<svg width="24" height="24" viewBox="0 0 24 24" fill="none" xmlns="http://www.w3.org/2000/svg">
<path opacity="0.4" d="M7.09188 20.6613L14.7224 7.44483M13.1643 20.7389L17.9848 12.3895M4.96745 21.0017H19.0352C20.4297 21.0017 21.127 21.0017 21.5301 20.7089C21.8817 20.4534 22.1084 20.0608 22.1538 19.6286C22.2059 19.1331 21.8572 18.5292 21.16 17.3215L14.1261 5.13849C13.4288 3.93078 13.0802 3.32692 12.625 3.12427C12.228 2.94751 11.7746 2.94751 11.3776 3.12427C10.9225 3.32692 10.5738 3.93078 9.87655 5.1385L2.84267 17.3215C2.1454 18.5292 1.79676 19.1331 1.84884 19.6286C1.89427 20.0608 2.12095 20.4534 2.47254 20.7089C2.87562 21.0017 3.5729 21.0017 4.96745 21.0017Z" stroke="black" stroke-width="2" stroke-linecap="round" stroke-linejoin="round"/>
<path d="M21.16 17.3215L14.1261 5.13849L14.1261 5.13847C13.4288 3.93077 13.0802 3.32692 12.625 3.12427C12.228 2.94751 11.7746 2.94751 11.3776 3.12427C10.9225 3.32692 10.5738 3.93078 9.87655 5.1385L2.84267 17.3215C2.1454 18.5292 1.79676 19.1331 1.84884 19.6286C1.89427 20.0608 2.12095 20.4534 2.47254 20.7089C2.87562 21.0017 3.5729 21.0017 4.96745 21.0017H19.0352C20.4297 21.0017 21.127 21.0017 21.5301 20.7089C21.8817 20.4534 22.1084 20.0608 22.1538 19.6286C22.2059 19.1331 21.8572 18.5292 21.16 17.3215Z" stroke="black" stroke-width="2" stroke-linecap="round" stroke-linejoin="round"/>
</svg>
