<svg width="24" height="24" viewBox="0 0 24 24" fill="none" xmlns="http://www.w3.org/2000/svg">
<path d="M9.87655 5.1385C10.5738 3.93078 10.9225 3.32692 11.3776 3.12427C11.7746 2.94751 12.228 2.94751 12.625 3.12427C13.0802 3.32692 13.4288 3.93078 14.1261 5.13849L21.16 17.3215C21.8572 18.5292 22.2059 19.1331 22.1538 19.6286C22.1084 20.0608 21.8817 20.4534 21.5301 20.7089C21.127 21.0017 20.4297 21.0017 19.0352 21.0017H4.96745C3.5729 21.0017 2.87562 21.0017 2.47254 20.7089C2.12095 20.4534 1.89427 20.0608 1.84884 19.6286C1.79676 19.1331 2.1454 18.5292 2.84267 17.3215L9.87655 5.1385Z" stroke="black" stroke-width="2" stroke-linecap="round" stroke-linejoin="round"/>
</svg>
