<svg width="24" height="24" viewBox="0 0 24 24" fill="none" xmlns="http://www.w3.org/2000/svg">
<path opacity="0.4" d="M2 10.4852L10.4853 1.99994M2.24264 16.2426L16.2426 2.24258" stroke="black" stroke-width="2" stroke-linecap="round" stroke-linejoin="round"/>
<path d="M2 6.79999C2 5.11983 2 4.27975 2.32698 3.63802C2.6146 3.07353 3.07354 2.61459 3.63803 2.32697C4.27976 1.99999 5.11984 1.99999 6.8 1.99999H17.2C18.8802 1.99999 19.7202 1.99999 20.362 2.32697C20.9265 2.61459 21.3854 3.07353 21.673 3.63802C22 4.27975 22 5.11983 22 6.79999V17.2C22 18.8801 22 19.7202 21.673 20.362C21.3854 20.9264 20.9265 21.3854 20.362 21.673C19.7202 22 18.8802 22 17.2 22H6.8C5.11984 22 4.27976 22 3.63803 21.673C3.07354 21.3854 2.6146 20.9264 2.32698 20.362C2 19.7202 2 18.8801 2 17.2V6.79999Z" stroke="black" stroke-width="2" stroke-linecap="round" stroke-linejoin="round"/>
</svg>
