<svg width="24" height="24" viewBox="0 0 24 24" fill="none" xmlns="http://www.w3.org/2000/svg">
<path opacity="0.4" d="M12.0009 22V19.3707M6.85742 21.0142L8.50085 19.3707M17.1443 21.0142L15.5009 19.3707" stroke="black" stroke-width="2" stroke-linecap="round" stroke-linejoin="round"/>
<path d="M20.5005 7.33894H11.352C7.98106 7.33894 4.80472 8.91782 2.76956 11.605C1.42699 13.3778 2.69143 15.9215 4.91516 15.9215H18.469C19.8459 15.9215 20.5343 15.9215 21.009 15.637C21.4251 15.3876 21.7364 14.9954 21.8849 14.5335C22.0543 14.0066 21.898 13.3362 21.5856 11.9953L20.5005 7.33894ZM20.5005 7.33894L20.0769 5.52137C19.8711 4.63797 19.7682 4.19627 19.5272 3.8669C19.3147 3.57633 19.0277 3.34852 18.6965 3.20748C18.321 3.04761 17.8675 3.04761 16.9604 3.04761H7.00048" stroke="black" stroke-width="2" stroke-linecap="round" stroke-linejoin="round"/>
</svg>
