<svg width="24" height="24" viewBox="0 0 24 24" fill="none" xmlns="http://www.w3.org/2000/svg">
<path opacity="0.4" d="M3 3L3.80564 3.67136C6.72075 6.10063 8.17831 7.31526 9.80534 7.77941C11.2398 8.18864 12.7602 8.18864 14.1947 7.77941C15.8217 7.31526 17.2792 6.10063 20.1944 3.67137L21 3" stroke="black" stroke-width="2" stroke-linecap="round" stroke-linejoin="round"/>
<path d="M2 6.8C2 5.11984 2 4.27976 2.32698 3.63803C2.6146 3.07354 3.07354 2.6146 3.63803 2.32698C4.27976 2 5.11984 2 6.8 2H17.2C18.8802 2 19.7202 2 20.362 2.32698C20.9265 2.6146 21.3854 3.07354 21.673 3.63803C22 4.27976 22 5.11984 22 6.8V17.2C22 18.8802 22 19.7202 21.673 20.362C21.3854 20.9265 20.9265 21.3854 20.362 21.673C19.7202 22 18.8802 22 17.2 22H6.8C5.11984 22 4.27976 22 3.63803 21.673C3.07354 21.3854 2.6146 20.9265 2.32698 20.362C2 19.7202 2 18.8802 2 17.2V6.8Z" stroke="black" stroke-width="2" stroke-linecap="round" stroke-linejoin="round"/>
</svg>
