<svg width="39" height="24" viewBox="0 0 39 24" fill="none" xmlns="http://www.w3.org/2000/svg">
<rect x="0.5" y="0.5" width="38" height="23" rx="11.5" fill="white"/>
<rect x="0.5" y="0.5" width="38" height="23" rx="11.5" stroke="#E9ECF1" stroke-opacity="0.24"/>
<rect x="0.5" y="0.5" width="38" height="23" rx="11.5" stroke="url(#paint0_radial_2012_12069)"/>
<path d="M10.7138 16V10.5455H11.7756V16H10.7138ZM11.25 9.70384C11.0653 9.70384 10.9067 9.64228 10.7741 9.51918C10.6439 9.3937 10.5788 9.24455 10.5788 9.07173C10.5788 8.89654 10.6439 8.7474 10.7741 8.62429C10.9067 8.49882 11.0653 8.43608 11.25 8.43608C11.4347 8.43608 11.5921 8.49882 11.7223 8.62429C11.8549 8.7474 11.9212 8.89654 11.9212 9.07173C11.9212 9.24455 11.8549 9.3937 11.7223 9.51918C11.5921 9.64228 11.4347 9.70384 11.25 9.70384ZM13.204 16V10.5455H14.2303V11.4119H14.2871C14.3865 11.1184 14.5617 10.8875 14.8127 10.7195C15.066 10.549 15.3525 10.4638 15.6721 10.4638C15.7383 10.4638 15.8165 10.4661 15.9064 10.4709C15.9988 10.4756 16.071 10.4815 16.123 10.4886V11.5043C16.0804 11.4924 16.0047 11.4794 15.8958 11.4652C15.7869 11.4486 15.678 11.4403 15.5691 11.4403C15.3181 11.4403 15.0944 11.4936 14.8979 11.6001C14.7038 11.7043 14.5499 11.8499 14.4363 12.0369C14.3226 12.2216 14.2658 12.4323 14.2658 12.669V16H13.204ZM19.1442 16.1101C18.6328 16.1101 18.1866 15.9929 17.8054 15.7585C17.4242 15.5241 17.1283 15.1963 16.9176 14.7749C16.7069 14.3535 16.6016 13.861 16.6016 13.2976C16.6016 12.7318 16.7069 12.237 16.9176 11.8132C17.1283 11.3894 17.4242 11.0604 17.8054 10.826C18.1866 10.5916 18.6328 10.4744 19.1442 10.4744C19.6555 10.4744 20.1018 10.5916 20.483 10.826C20.8641 11.0604 21.16 11.3894 21.3707 11.8132C21.5814 12.237 21.6868 12.7318 21.6868 13.2976C21.6868 13.861 21.5814 14.3535 21.3707 14.7749C21.16 15.1963 20.8641 15.5241 20.483 15.7585C20.1018 15.9929 19.6555 16.1101 19.1442 16.1101ZM19.1477 15.2188C19.4792 15.2188 19.7538 15.1312 19.9716 14.956C20.1894 14.7808 20.3504 14.5476 20.4545 14.2564C20.5611 13.9652 20.6143 13.6444 20.6143 13.294C20.6143 12.946 20.5611 12.6264 20.4545 12.3352C20.3504 12.0417 20.1894 11.8061 19.9716 11.6286C19.7538 11.451 19.4792 11.3622 19.1477 11.3622C18.8139 11.3622 18.5369 11.451 18.3168 11.6286C18.099 11.8061 17.9368 12.0417 17.8303 12.3352C17.7261 12.6264 17.674 12.946 17.674 13.294C17.674 13.6444 17.7261 13.9652 17.8303 14.2564C17.9368 14.5476 18.099 14.7808 18.3168 14.956C18.5369 15.1312 18.8139 15.2188 19.1477 15.2188ZM23.9338 12.7614V16H22.872V10.5455H23.8912V11.4332H23.9586C24.0841 11.1444 24.2806 10.9124 24.5481 10.7372C24.818 10.562 25.1577 10.4744 25.5673 10.4744C25.939 10.4744 26.2645 10.5526 26.5439 10.7088C26.8232 10.8627 27.0398 11.0923 27.1937 11.3977C27.3476 11.7031 27.4245 12.0807 27.4245 12.5305V16H26.3627V12.6584C26.3627 12.263 26.2598 11.9541 26.0538 11.7315C25.8478 11.5066 25.5649 11.3942 25.2051 11.3942C24.9589 11.3942 24.7399 11.4474 24.5481 11.554C24.3587 11.6605 24.2084 11.8168 24.0971 12.0227C23.9882 12.2263 23.9338 12.4725 23.9338 12.7614Z" fill="#3A3F46"/>
<defs>
<radialGradient id="paint0_radial_2012_12069" cx="0" cy="0" r="1" gradientTransform="matrix(-6.12857 18 -29.25 -32.0833 25.6286 10)" gradientUnits="userSpaceOnUse">
<stop stop-color="#E9ECF1"/>
<stop offset="1" stop-color="#CED5E0" stop-opacity="0.29"/>
</radialGradient>
</defs>
</svg>
