<svg width="24" height="24" viewBox="0 0 24 24" fill="none" xmlns="http://www.w3.org/2000/svg">
<path opacity="0.4" d="M10.9938 14.4999H10.9983M14.9431 14.4999H14.9475M11.2162 14.4999C11.2162 14.3771 11.1166 14.2776 10.9938 14.2776C10.871 14.2776 10.7715 14.3771 10.7715 14.4999C10.7715 14.6227 10.871 14.7223 10.9938 14.7223C11.1166 14.7223 11.2162 14.6227 11.2162 14.4999ZM15.1654 14.4999C15.1654 14.3771 15.0659 14.2776 14.9431 14.2776C14.8203 14.2776 14.7207 14.3771 14.7207 14.4999C14.7207 14.6227 14.8203 14.7223 14.9431 14.7223C15.0659 14.7223 15.1654 14.6227 15.1654 14.4999Z" stroke="black" stroke-width="2" stroke-linecap="round" stroke-linejoin="round"/>
<path d="M20.5007 9.5H12.4515C8.4281 9.5 4.67774 11.5353 2.48501 14.9087C1.19998 16.8857 2.61875 19.5 4.97664 19.5H18.5973C19.9353 19.5 20.6043 19.5 21.0729 19.2252C21.4839 18.9841 21.7954 18.6042 21.9511 18.1539C22.1288 17.6405 21.9976 16.9845 21.7351 15.6724L20.5007 9.5ZM20.5007 9.5L20.0151 7.07243C19.8319 6.1561 19.7402 5.69793 19.501 5.35522C19.2901 5.05301 18.9997 4.81497 18.662 4.66737C18.279 4.5 17.8118 4.5 16.8773 4.5H7.00066" stroke="black" stroke-width="2" stroke-linecap="round" stroke-linejoin="round"/>
</svg>
