<svg width="24" height="24" viewBox="0 0 24 24" fill="none" xmlns="http://www.w3.org/2000/svg">
<path opacity="0.4" d="M21.3069 6.78771L20.7472 6.52335C19.4991 5.93386 17.6483 5.9015 16.3314 6.44614C15.0816 6.96306 13.3402 6.96306 12.0903 6.44614L12.0171 6.41585C10.724 5.88108 8.92246 5.88108 7.62944 6.41585C6.33641 6.95062 4.53483 6.95062 3.24181 6.41585L2.69336 6.18902M5 20.5H19" stroke="black" stroke-width="2" stroke-linecap="round" stroke-linejoin="round"/>
<path d="M22 3.5L19.9791 13.6383C19.7049 15.0138 19.5678 15.7016 19.209 16.2161C18.8926 16.6697 18.457 17.0271 17.9502 17.2487C17.3755 17.5 16.6742 17.5 15.2717 17.5H8.39401C6.94868 17.5 6.22601 17.5 5.63999 17.237C5.12342 17.0052 4.683 16.6319 4.36965 16.1603C4.01416 15.6253 3.89574 14.9124 3.6589 13.4866L2 3.5" stroke="black" stroke-width="2" stroke-linecap="round" stroke-linejoin="round"/>
</svg>
