<svg width="24" height="24" viewBox="0 0 24 24" fill="none" xmlns="http://www.w3.org/2000/svg">
<path opacity="0.4" d="M21.3069 8.28771L20.7472 8.02335C19.4991 7.43386 17.6483 7.4015 16.3314 7.94614C15.0816 8.46306 13.3402 8.46306 12.0903 7.94614L12.0171 7.91585C10.724 7.38108 8.92246 7.38108 7.62944 7.91585C6.33641 8.45062 4.53483 8.45062 3.24181 7.91585L2.69336 7.68902" stroke="black" stroke-width="2" stroke-linecap="round" stroke-linejoin="round"/>
<path d="M22 5L19.9791 15.1383C19.7049 16.5138 19.5678 17.2016 19.209 17.7161C18.8926 18.1697 18.457 18.5271 17.9502 18.7487C17.3755 19 16.6742 19 15.2717 19H8.39401C6.94868 19 6.22601 19 5.63999 18.737C5.12342 18.5052 4.683 18.1319 4.36965 17.6603C4.01416 17.1253 3.89574 16.4124 3.6589 14.9866L2 5" stroke="black" stroke-width="2" stroke-linecap="round" stroke-linejoin="round"/>
</svg>
