<svg width="24" height="24" viewBox="0 0 24 24" fill="none" xmlns="http://www.w3.org/2000/svg">
<path opacity="0.4" d="M7.62944 7.91587C6.33641 8.45064 4.53483 8.45064 3.24181 7.91587L2.69336 7.68904M21.3069 8.28773L20.7472 8.02337C19.6822 7.52039 18.1785 7.42301 16.9421 7.7436M14.3872 9.92657L14.4152 9.95621C15.1186 10.7002 16.3263 10.6163 16.9201 9.78221C17.3366 9.19712 17.3196 8.40804 16.8784 7.84136L15.669 6.28794C15.2965 5.80952 15.1102 5.5703 14.8921 5.38019C14.4943 5.03343 14.0121 4.79774 13.4941 4.69689C13.2102 4.6416 12.907 4.6416 12.3006 4.6416H11.573C10.4529 4.6416 9.89289 4.6416 9.46507 4.85959C9.08874 5.05134 8.78278 5.3573 8.59103 5.73362C8.37305 6.16144 8.37305 6.7215 8.37305 7.8416V10.6256C8.37305 10.6311 8.37305 10.6339 8.37305 10.6363C8.37538 12.0703 9.3922 13.3021 10.7998 13.5762C10.8021 13.5766 10.8048 13.5771 10.8103 13.5782C10.8179 13.5797 10.8217 13.5804 10.8247 13.581C12.6713 13.9334 14.3833 12.5202 14.3871 10.6404C14.3872 10.6373 14.3872 10.6334 14.3872 10.6256V9.92657Z" stroke="black" stroke-width="2" stroke-linecap="round" stroke-linejoin="round"/>
<path d="M22 5L19.9791 15.1383C19.7049 16.5138 19.5678 17.2016 19.209 17.7161C18.8926 18.1697 18.457 18.5271 17.9502 18.7487C17.3755 19 16.6742 19 15.2717 19H8.39401C6.94868 19 6.22601 19 5.63999 18.737C5.12342 18.5052 4.683 18.1319 4.36965 17.6603C4.01416 17.1253 3.89574 16.4124 3.6589 14.9866L2 5" stroke="black" stroke-width="2" stroke-linecap="round" stroke-linejoin="round"/>
</svg>
