<svg width="24" height="24" viewBox="0 0 24 24" fill="none" xmlns="http://www.w3.org/2000/svg">
<path opacity="0.4" d="M21.3069 6.31463L20.7472 6.05027C19.4991 5.46077 17.6483 5.42841 16.3314 5.97306C15.0816 6.48998 13.3402 6.48998 12.0903 5.97306L12.0171 5.94277C10.724 5.40799 8.92246 5.40799 7.62944 5.94277C6.33641 6.47754 4.53483 6.47754 3.24181 5.94277L2.69336 5.71594M17.785 16.8695C16.675 17.8274 15.802 18.9156 14.5344 21.0148M20.1928 18.8088C19.0098 19.9918 16.985 20.0985 15.802 18.9156C14.619 17.7326 14.7258 15.7078 15.9088 14.5248C18.081 12.3526 21.9778 12.7398 21.9778 12.7398C21.9778 12.7398 22.365 16.6366 20.1928 18.8088Z" stroke="black" stroke-width="2" stroke-linecap="round" stroke-linejoin="round"/>
<path d="M2 3.02692L3.6589 13.0135C3.89574 14.4393 4.01416 15.1522 4.36965 15.6872C4.683 16.1588 5.12342 16.5321 5.63999 16.7639C6.22601 17.0269 6.94868 17.0269 8.39401 17.0269H11.0293M22 3.02692L20.8098 8.9978" stroke="black" stroke-width="2" stroke-linecap="round" stroke-linejoin="round"/>
</svg>
