<svg width="24" height="24" viewBox="0 0 24 24" fill="none" xmlns="http://www.w3.org/2000/svg">
<path opacity="0.4" d="M12.0004 13.4288H12.0104M3.24219 7.91585C4.53521 8.45062 6.33679 8.45062 7.62981 7.91585C8.92283 7.38108 10.7244 7.38108 12.0174 7.91585L12.0907 7.94614C13.3405 8.46306 15.082 8.46306 16.3318 7.94614C17.6487 7.4015 19.4994 7.43386 20.7476 8.02335L21.3073 8.28771" stroke="black" stroke-width="2" stroke-linecap="round" stroke-linejoin="round"/>
<path d="M22 5L19.9791 15.1383C19.7049 16.5138 19.5678 17.2016 19.209 17.7161C18.8926 18.1697 18.457 18.5271 17.9502 18.7487C17.3755 19 16.6742 19 15.2717 19H8.39401C6.94868 19 6.22601 19 5.63999 18.737C5.12342 18.5052 4.683 18.1319 4.36965 17.6603C4.01416 17.1253 3.89574 16.4124 3.6589 14.9866L2 5" stroke="black" stroke-width="2" stroke-linecap="round" stroke-linejoin="round"/>
</svg>
