<svg width="24" height="24" viewBox="0 0 24 24" fill="none" xmlns="http://www.w3.org/2000/svg">
<path d="M17.9502 18.7487C17.3755 19 16.6742 19 15.2717 19H8.39401C6.94868 19 6.22601 19 5.63999 18.737C5.12342 18.5052 4.683 18.1319 4.36965 17.6603C4.01416 17.1253 3.89574 16.4124 3.6589 14.9866L2.29553 6.77911M7.62944 7.91585C6.33641 8.45062 4.53483 8.45062 3.24181 7.91585L2.69336 7.68902M2 2L22 22" stroke="black" stroke-width="2" stroke-linecap="round" stroke-linejoin="round"/>
<path opacity="0.4" d="M22.0002 5L20.1437 14.3137M21.3072 8.28771L20.7474 8.02335C19.4993 7.43386 17.6486 7.4015 16.3317 7.94614C15.6512 8.22758 14.825 8.35579 14.0117 8.33077" stroke="black" stroke-width="2" stroke-linecap="round" stroke-linejoin="round"/>
</svg>
