<svg width="24" height="24" viewBox="0 0 24 24" fill="none" xmlns="http://www.w3.org/2000/svg">
<path opacity="0.4" d="M19.9952 15.1269C21.2083 14.2663 22 12.8506 22 11.25V10.9731C22 8.50269 19.9973 6.5 17.5269 6.5C17.5108 6.5 17.4966 6.48973 17.4915 6.47451L17.3264 5.97926C16.8008 4.40228 15.6258 3.12535 14.0979 2.47054C13.3735 2.16008 12.5936 2 11.8055 2H9C5.13401 2 2 5.13401 2 9C2 11.1869 3.00283 13.1395 4.5737 14.4232" stroke="black" stroke-width="2" stroke-linecap="round" stroke-linejoin="round"/>
<path d="M12.6172 13.3677L10.1781 22M16.7009 13.3677L14.8358 19.9685M8.53303 13.3677L6.66797 19.9685" stroke="black" stroke-width="2" stroke-linecap="round" stroke-linejoin="round"/>
</svg>
