<svg width="24" height="24" viewBox="0 0 24 24" fill="none" xmlns="http://www.w3.org/2000/svg">
<path opacity="0.4" d="M21.4004 8.96445C18.639 8.96445 16.4004 6.72587 16.4004 3.96445C16.4004 3.26708 16.5432 2.60305 16.8011 2C14.3222 2.29611 12.4004 4.40585 12.4004 6.96445M21.9997 8.9289C21.2364 10.7138 19.4644 11.9645 17.4004 11.9645M4 2L4.54018 3.45982L6 4L4.54018 4.54018L4 6L3.45982 4.54018L2 4L3.45982 3.45982L4 2Z" stroke="black" stroke-width="2" stroke-linecap="round" stroke-linejoin="round"/>
<path d="M6.46281 13.0508H5.9746C3.77949 13.0508 2 14.8303 2 17.0254C2 19.2205 3.77949 21 5.9746 21H18.0254C20.2205 21 22 19.2205 22 17.0254C22 14.8303 20.2205 13.0508 18.0254 13.0508H17.5372C17.5167 13.0508 17.5 13.0341 17.5 13.0136C17.5 10.2471 15.2574 8 12.4909 8H11.5091C8.74263 8 6.5 10.2472 6.5 13.0136C6.5 13.0341 6.48335 13.0508 6.46281 13.0508Z" stroke="black" stroke-width="2" stroke-linecap="round" stroke-linejoin="round"/>
</svg>
