<svg width="24" height="24" viewBox="0 0 24 24" fill="none" xmlns="http://www.w3.org/2000/svg">
<path opacity="0.4" d="M12 7C12 4.23858 14.2386 2 17 2C19.7614 2 22 4.23858 22 7C22 8.9791 20.8502 10.6896 19.1821 11.5" stroke="black" stroke-width="2" stroke-linecap="round" stroke-linejoin="round"/>
<path d="M22 16.25V15.9731C22 13.5027 19.9973 11.5 17.5269 11.5C17.5108 11.5 17.4966 11.4897 17.4915 11.4745L17.3264 10.9793C16.8008 9.40228 15.6258 8.12535 14.0979 7.47054C13.3735 7.16008 12.5936 7 11.8055 7H9C5.13401 7 2 10.134 2 14C2 17.866 5.13401 21 9 21H17.25C19.8734 21 22 18.8734 22 16.25Z" stroke="black" stroke-width="2" stroke-linecap="round" stroke-linejoin="round"/>
</svg>
