<svg width="24" height="24" viewBox="0 0 24 24" fill="none" xmlns="http://www.w3.org/2000/svg">
<path opacity="0.4" d="M19.9557 15.1546C21.1911 14.2969 22 12.8679 22 11.25V10.9731C22 8.50269 19.9973 6.5 17.5269 6.5C17.5108 6.5 17.4966 6.48973 17.4915 6.47451L17.3264 5.97926C16.8008 4.40228 15.6258 3.12535 14.0979 2.47054C13.3735 2.16008 12.5936 2 11.8055 2H9C5.13401 2 2 5.13401 2 9C2 11.1533 2.97226 13.0795 4.50173 14.3636" stroke="black" stroke-width="2" stroke-linecap="round" stroke-linejoin="round"/>
<path d="M15.6582 14.7797H15.6682M15.6582 18.7328H15.6682M11.9902 17.0315H12.0002M11.9902 20.9846H12.0002M8.32227 14.7797H8.33227M8.32227 18.7328H8.33227" stroke="black" stroke-width="2" stroke-linecap="round" stroke-linejoin="round"/>
</svg>
