<svg width="24" height="24" viewBox="0 0 24 24" fill="none" xmlns="http://www.w3.org/2000/svg">
<path opacity="0.4" d="M19.5462 15.5918C20.9966 14.9065 22 13.4303 22 11.7197C22 9.35569 20.0836 7.43932 17.7197 7.43932H17.5372C17.5167 7.43932 17.5 7.42262 17.5 7.40208C17.5 4.42285 15.0849 2 12.1056 2H11.8944C8.91514 2 6.5 4.42285 6.5 7.40208C6.5 7.42262 6.48335 7.43932 6.46281 7.43932H6.28034C3.91637 7.43932 2 9.35569 2 11.7197C2 13.4303 3.00344 14.9065 4.45381 15.5918" stroke="black" stroke-width="2" stroke-linecap="round" stroke-linejoin="round"/>
<path d="M7.78906 13.5383V15.2816M11.9996 14.4935V16.5272M16.2109 13.5383V15.2816M7.78906 19.011V20.7543M11.9996 19.9663V22M16.2109 19.011V20.7543" stroke="black" stroke-width="2" stroke-linecap="round" stroke-linejoin="round"/>
</svg>
