<svg width="24" height="24" viewBox="0 0 24 24" fill="none" xmlns="http://www.w3.org/2000/svg">
<path opacity="0.4" d="M11.1973 5.05169C11.4426 5.01762 11.693 5 11.947 5C14.9846 5 17.5003 7.46243 17.5003 10.5V11.9628C17.5003 11.9833 17.517 12 17.5375 12H18.5003C20.4333 12 22.0003 13.567 22.0003 15.5C22.0003 15.6854 21.9859 15.8674 21.9581 16.045" stroke="black" stroke-width="2" stroke-linecap="round" stroke-linejoin="round"/>
<path d="M18.5 19H6.28034C3.91637 19 2 17.0836 2 14.7197C2 12.3557 3.91637 10.4393 6.28034 10.4393H6.46281C6.48335 10.4393 6.5 10.4226 6.5 10.4021C6.5 9.31049 6.83125 8.29359 7.39756 7.44319M2 2L22 22" stroke="black" stroke-width="2" stroke-linecap="round" stroke-linejoin="round"/>
</svg>
