<svg width="24" height="24" viewBox="0 0 24 24" fill="none" xmlns="http://www.w3.org/2000/svg">
<path opacity="0.4" d="M6.46281 13.6623H5.66886C3.64261 13.6623 2 15.3049 2 17.3311C2 19.3574 3.64261 21 5.66886 21H18.3311C20.3574 21 22 19.3574 22 17.3311C22 15.3049 20.3574 13.6623 18.3311 13.6623H17.5372C17.5167 13.6623 17.5 13.6456 17.5 13.6251C17.5 11.0715 15.4299 9 12.8763 9H11.1237C8.57012 9 6.5 11.0715 6.5 13.6251C6.5 13.6456 6.48335 13.6623 6.46281 13.6623Z" stroke="black" stroke-width="2" stroke-linecap="round" stroke-linejoin="round"/>
<path d="M21.4993 11.0044C21.8214 10.2336 21.9993 9.38759 21.9993 8.5C21.9993 4.91015 19.0891 2 15.4993 2C12.9509 2 10.7451 3.46647 9.67969 5.60155" stroke="black" stroke-width="2" stroke-linecap="round" stroke-linejoin="round"/>
</svg>
