<svg width="24" height="24" viewBox="0 0 24 24" fill="none" xmlns="http://www.w3.org/2000/svg">
<path opacity="0.4" d="M12 7C12 4.23858 14.2386 2 17 2C19.7614 2 22 4.23858 22 7C22 9.51285 20.1463 11.5927 17.7318 11.9468" stroke="black" stroke-width="2" stroke-linecap="round" stroke-linejoin="round"/>
<path d="M6.46281 12.4393H6.28034C3.91637 12.4393 2 14.3557 2 16.7197C2 19.0836 3.91637 21 6.28034 21H17.7197C20.0836 21 22 19.0836 22 16.7197C22 14.3557 20.0836 12.4393 17.7197 12.4393H17.5372C17.5167 12.4393 17.5 12.4226 17.5 12.4021C17.5 9.42285 15.0849 7 12.1056 7H11.8944C8.91514 7 6.5 9.42285 6.5 12.4021C6.5 12.4226 6.48335 12.4393 6.46281 12.4393Z" stroke="black" stroke-width="2" stroke-linecap="round" stroke-linejoin="round"/>
</svg>
