<svg width="24" height="24" viewBox="0 0 24 24" fill="none" xmlns="http://www.w3.org/2000/svg">
<path opacity="0.4" d="M22 11.25V10.9731C22 8.50269 19.9973 6.5 17.5269 6.5C17.5108 6.5 17.4966 6.48973 17.4915 6.47451L17.3264 5.97926C16.8008 4.40228 15.6258 3.12535 14.0979 2.47054C13.3735 2.16008 12.5936 2 11.8055 2H9C5.13401 2 2 5.13401 2 9C2 12.866 5.13401 16 9 16H17.25C19.8734 16 22 13.8734 22 11.25Z" stroke="black" stroke-width="2" stroke-linecap="round" stroke-linejoin="round"/>
<path d="M8.39526 19.5767L7.18359 22M12.6062 19.5767L11.3945 22M16.8171 19.5767L15.6055 22" stroke="black" stroke-width="2" stroke-linecap="round" stroke-linejoin="round"/>
</svg>
