<svg width="24" height="24" viewBox="0 0 24 24" fill="none" xmlns="http://www.w3.org/2000/svg">
<path opacity="0.4" d="M6.46281 7.43932H6.28034C3.91637 7.43932 2 9.35569 2 11.7197C2 14.0836 3.91637 16 6.28034 16H18.5C20.433 16 22 14.433 22 12.5C22 10.567 20.433 9 18.5 9H17.5372C17.5167 9 17.5 8.98335 17.5 8.96281V7.5C17.5 4.46243 14.9842 2 11.9467 2C8.96745 2 6.5 4.42285 6.5 7.40208C6.5 7.42262 6.48335 7.43932 6.46281 7.43932Z" stroke="black" stroke-width="2" stroke-linecap="round" stroke-linejoin="round"/>
<path d="M7.78906 19.4336V22.143M12 19.4336V22.143M16.2109 19.4336V22.143" stroke="black" stroke-width="2" stroke-linecap="round" stroke-linejoin="round"/>
</svg>
