<svg width="24" height="24" viewBox="0 0 24 24" fill="none" xmlns="http://www.w3.org/2000/svg">
<path opacity="0.4" d="M4.18224 15.4514C2.87968 14.7175 2 13.3213 2 11.7197C2 9.35569 3.91637 7.43932 6.28034 7.43932H6.46281C6.48335 7.43932 6.5 7.42262 6.5 7.40208C6.5 4.42285 8.96745 2 11.9467 2C14.9842 2 17.5 4.46243 17.5 7.5V8.96281C17.5 8.98335 17.5167 9 17.5372 9H18.5C20.433 9 22 10.567 22 12.5C22 13.7402 21.355 14.8297 20.3821 15.4514" stroke="black" stroke-width="2" stroke-linecap="round" stroke-linejoin="round"/>
<path d="M12.6172 13.3677L10.1781 22M16.7009 13.3677L14.8358 19.9685M8.53303 13.3677L6.66797 19.9685" stroke="black" stroke-width="2" stroke-linecap="round" stroke-linejoin="round"/>
</svg>
