<svg width="24" height="24" viewBox="0 0 24 24" fill="none" xmlns="http://www.w3.org/2000/svg">
<path opacity="0.4" d="M4.27367 15.5014C2.92101 14.7822 2 13.3585 2 11.7197C2 9.35569 3.91637 7.43932 6.28034 7.43932H6.46281C6.48335 7.43932 6.5 7.42262 6.5 7.40208C6.5 4.42285 8.96745 2 11.9467 2C14.9842 2 17.5 4.46243 17.5 7.5V8.96281C17.5 8.98335 17.5167 9 17.5372 9H18.5C20.433 9 22 10.567 22 12.5C22 13.7742 21.3191 14.8893 20.3014 15.5014" stroke="black" stroke-width="2" stroke-linecap="round" stroke-linejoin="round"/>
<path d="M15.6582 14.7797H15.6682M15.6582 18.7328H15.6682M11.9902 17.0315H12.0002M11.9902 20.9846H12.0002M8.32227 14.7797H8.33227M8.32227 18.7328H8.33227" stroke="black" stroke-width="2" stroke-linecap="round" stroke-linejoin="round"/>
</svg>
