<svg width="24" height="24" viewBox="0 0 24 24" fill="none" xmlns="http://www.w3.org/2000/svg">
<path opacity="0.4" d="M12.4004 6.96445C12.4004 4.40585 14.3222 2.29611 16.8011 2C16.5432 2.60305 16.4004 3.26708 16.4004 3.96445C16.4004 6.72587 18.639 8.96445 21.4004 8.96445C21.6032 8.96445 21.8032 8.95237 21.9997 8.9289C21.2746 10.6244 19.6394 11.8378 17.7083 11.9551M4 2L4.54018 3.45982L6 4L4.54018 4.54018L4 6L3.45982 4.54018L2 4L3.45982 3.45982L4 2Z" stroke="black" stroke-width="2" stroke-linecap="round" stroke-linejoin="round"/>
<path d="M6.46281 13.0141H5.99296C3.78771 13.0141 2 14.8018 2 17.007C2 19.2123 3.78771 21 5.99296 21H18.735C20.5382 21 22 19.5382 22 17.735C22 15.9318 20.5382 14.47 18.735 14.47H17.5372C17.5167 14.47 17.5 14.4533 17.5 14.4328V13.4399C17.5 10.4024 15.0376 7.93994 12 7.93994H11.5322C8.75299 7.93994 6.5 10.1976 6.5 12.9768C6.5 12.9974 6.48335 13.0141 6.46281 13.0141Z" stroke="black" stroke-width="2" stroke-linecap="round" stroke-linejoin="round"/>
</svg>
