<svg width="24" height="24" viewBox="0 0 24 24" fill="none" xmlns="http://www.w3.org/2000/svg">
<path opacity="0.4" d="M3.60987 15.065C2.6286 14.2807 2 13.0736 2 11.7197C2 9.35569 3.91637 7.43932 6.28034 7.43932H6.46281C6.48335 7.43932 6.5 7.42262 6.5 7.40208C6.5 4.42285 8.91514 2 11.8944 2H12.1056C15.0849 2 17.5 4.42285 17.5 7.40208C17.5 7.42262 17.5167 7.43932 17.5372 7.43932H17.7197C20.0836 7.43932 22 9.35569 22 11.7197C22 13.0736 21.3714 14.2807 20.3901 15.065" stroke="black" stroke-width="2" stroke-linecap="round" stroke-linejoin="round"/>
<path d="M12.6172 13.3677L10.1781 22M16.7009 13.3677L14.8358 19.9685M8.53303 13.3677L6.66797 19.9685" stroke="black" stroke-width="2" stroke-linecap="round" stroke-linejoin="round"/>
</svg>
