<svg width="24" height="24" viewBox="0 0 24 24" fill="none" xmlns="http://www.w3.org/2000/svg">
<path opacity="0.4" d="M18.2679 13.5357H17.5247C17.5097 13.5357 17.4962 13.5267 17.4903 13.5129C16.862 12.0319 15.6275 10.8848 14.1028 10.3714L13.9351 10.3149C13.3158 10.1063 12.6668 10 12.0133 10H7.5C4.46243 10 2 12.4624 2 15.5C2 18.5376 4.46243 21 7.5 21H18.2679C20.3291 21 22 19.3291 22 17.2679C22 15.2067 20.3291 13.5357 18.2679 13.5357Z" stroke="black" stroke-width="2" stroke-linecap="round" stroke-linejoin="round"/>
<path d="M21.7125 10.4539C21.9625 9.65684 22.0621 8.79805 21.9807 7.9142C21.6516 4.33947 18.4868 1.70842 14.9121 2.03757C12.3745 2.27123 10.3125 3.93378 9.44727 6.15755" stroke="black" stroke-width="2" stroke-linecap="round" stroke-linejoin="round"/>
</svg>
