<svg width="24" height="24" viewBox="0 0 24 24" fill="none" xmlns="http://www.w3.org/2000/svg">
<path opacity="0.4" d="M6.46281 7.43932H6.28034C3.91637 7.43932 2 9.35569 2 11.7197C2 14.0836 3.91637 16 6.28034 16H17.7197C20.0836 16 22 14.0836 22 11.7197C22 9.35569 20.0836 7.43932 17.7197 7.43932H17.5372C17.5167 7.43932 17.5 7.42262 17.5 7.40208C17.5 4.42285 15.0849 2 12.1056 2H11.8944C8.91514 2 6.5 4.42285 6.5 7.40208C6.5 7.42262 6.48335 7.43932 6.46281 7.43932Z" stroke="black" stroke-width="2" stroke-linecap="round" stroke-linejoin="round"/>
<path d="M8.39526 19.5767L7.18359 22M12.6062 19.5767L11.3945 22M16.8171 19.5767L15.6055 22" stroke="black" stroke-width="2" stroke-linecap="round" stroke-linejoin="round"/>
</svg>
