<svg width="24" height="24" viewBox="0 0 24 24" fill="none" xmlns="http://www.w3.org/2000/svg">
<path opacity="0.4" d="M6.46281 13.6623H5.66886C3.64261 13.6623 2 15.3049 2 17.3311C2 19.3574 3.6426 21 5.66886 21H19C20.6569 21 22 19.6569 22 18C22 16.3431 20.6569 15 19 15H17.5372C17.5167 15 17.5 14.9833 17.5 14.9628V14.5C17.5 11.4624 15.0376 9 12 9H11.1237C8.57012 9 6.5 11.0715 6.5 13.6251C6.5 13.6456 6.48335 13.6623 6.46281 13.6623Z" stroke="black" stroke-width="2" stroke-linecap="round" stroke-linejoin="round"/>
<path d="M6.12695 8C6.571 6.27477 8.1371 5 10.0009 5C10.8608 5 11.6573 5.27133 12.3095 5.73304C12.4559 5.83666 12.595 5.94987 12.7259 6.07176M2 9H3.5M10 2.5V1M5.4043 4.40381L4.34364 3.34315M15.6562 3.34375L14.5956 4.40441" stroke="black" stroke-width="2" stroke-linecap="round" stroke-linejoin="round"/>
</svg>
