<svg width="24" height="24" viewBox="0 0 24 24" fill="none" xmlns="http://www.w3.org/2000/svg">
<path opacity="0.4" d="M11.1035 5H11.8049C12.593 5 13.3729 5.16008 14.0973 5.47054C15.6252 6.12535 16.8002 7.40228 17.3258 8.97926L17.4909 9.47451C17.496 9.48973 17.5102 9.5 17.5263 9.5C19.9967 9.5 21.9994 11.5027 21.9994 13.9731V14.25C21.9994 14.8418 21.8912 15.4083 21.6934 15.9308" stroke="black" stroke-width="2" stroke-linecap="round" stroke-linejoin="round"/>
<path d="M19.2334 18.5673C18.6298 18.8451 17.958 19 17.25 19H9C5.13401 19 2 15.866 2 12C2 9.21199 3.62992 6.80467 5.98886 5.67893M2.75 2L22.75 22" stroke="black" stroke-width="2" stroke-linecap="round" stroke-linejoin="round"/>
</svg>
