<svg width="24" height="24" viewBox="0 0 24 24" fill="none" xmlns="http://www.w3.org/2000/svg">
<path opacity="0.4" d="M10.877 5.09623C11.2067 5.03307 11.547 5 11.8951 5H12.1064C15.0856 5 17.5007 7.42285 17.5007 10.4021C17.5007 10.4226 17.5174 10.4393 17.5379 10.4393H17.7204C20.0844 10.4393 22.0007 12.3557 22.0007 14.7197C22.0007 15.1398 21.9402 15.5458 21.8274 15.9295" stroke="black" stroke-width="2" stroke-linecap="round" stroke-linejoin="round"/>
<path d="M7.32654 7.52901C6.80292 8.36164 6.5 9.34697 6.5 10.4021C6.5 10.4226 6.48335 10.4393 6.46281 10.4393H6.28034C3.91637 10.4393 2 12.3557 2 14.7197C2 17.0836 3.91637 19 6.28034 19H17.7197C18.0029 19 18.2797 18.9725 18.5476 18.92M2 2L22 22" stroke="black" stroke-width="2" stroke-linecap="round" stroke-linejoin="round"/>
</svg>
