<svg width="24" height="24" viewBox="0 0 24 24" fill="none" xmlns="http://www.w3.org/2000/svg">
<path opacity="0.4" d="M8.68164 18.9489C9.84136 20.7599 11.8693 21.9921 14.2376 21.9921H14.4819C18.68 21.9921 21.8087 18.1204 20.9275 14.0158C20.6905 12.9119 20.2848 11.8511 19.7246 10.8708L15.0787 2.74036C14.8431 2.32806 14.7253 2.12191 14.5711 2.05293C14.4366 1.99277 14.2829 1.99277 14.1484 2.05293C13.9942 2.12191 13.8764 2.32806 13.6408 2.74036L13.0032 3.85617" stroke="black" stroke-width="2" stroke-linecap="round" stroke-linejoin="round"/>
<path d="M7.15202 2.50821C7.31295 2.22657 7.39342 2.08575 7.49874 2.03863C7.5906 1.99754 7.69561 1.99754 7.78746 2.03863C7.89279 2.08575 7.97325 2.22657 8.13419 2.50821L11.3078 8.062C11.6904 8.73163 11.9676 9.45623 12.1295 10.2103C12.7314 13.0141 10.5942 15.6588 7.72654 15.6588H7.55967C4.69199 15.6588 2.55479 13.0141 3.15674 10.2103C3.31863 9.45623 3.59578 8.73163 3.97842 8.062L7.15202 2.50821Z" stroke="black" stroke-width="2" stroke-linecap="round" stroke-linejoin="round"/>
</svg>
