<svg width="24" height="24" viewBox="0 0 24 24" fill="none" xmlns="http://www.w3.org/2000/svg">
<path opacity="0.4" d="M19.9607 12.7116L19.4206 12.194C18.2162 11.0397 16.4304 10.9763 15.1597 12.0428C13.9537 13.055 12.2734 13.055 11.0673 12.0428L10.9967 11.9835C9.74899 10.9363 8.01061 10.9363 6.76294 11.9835C5.51527 13.0306 3.77688 13.0306 2.52922 11.9835L2 11.5393" stroke="black" stroke-width="2" stroke-linecap="round" stroke-linejoin="round"/>
<path d="M21.9607 7.10785L21.4206 6.5902C20.2162 5.43592 18.4304 5.37256 17.1597 6.43903C15.9537 7.45119 14.2734 7.45119 13.0673 6.43903L12.9967 6.37971C11.749 5.33258 10.0106 5.33258 8.76294 6.37971C7.51527 7.42684 5.77688 7.42684 4.52922 6.37971L4 5.93555M21.9607 18.3154L21.4206 17.7977C20.2162 16.6434 18.4304 16.5801 17.1597 17.6465C15.9537 18.6587 14.2734 18.6587 13.0673 17.6465L12.9967 17.5872C11.749 16.5401 10.0106 16.5401 8.76294 17.5872C7.51527 18.6344 5.77688 18.6344 4.52922 17.5872L4 17.1431" stroke="black" stroke-width="2" stroke-linecap="round" stroke-linejoin="round"/>
</svg>
