<svg width="24" height="24" viewBox="0 0 24 24" fill="none" xmlns="http://www.w3.org/2000/svg">
<path opacity="0.4" d="M19.7676 11.6405C18.7676 12.5002 15.9259 13.4554 11.3236 13.4554C6.72119 13.4554 4.76758 12.5002 3.76758 11.6405M16.7676 21.1423C15.9983 21.5712 14.4072 22 11.8109 22C9.21474 22 7.53681 21.5712 6.76758 21.1423" stroke="black" stroke-width="2" stroke-linecap="round" stroke-linejoin="round"/>
<path d="M18.2678 16.6701C17.4011 17.2818 15.2722 17.9275 11.8153 17.9275C8.35838 17.9275 6.13446 17.2818 5.2678 16.6701M21.0002 5.33333C21.0002 7.17428 16.7718 8.66667 11.5558 8.66667C6.33975 8.66667 2.11133 7.17428 2.11133 5.33333C2.11133 3.49238 6.33975 2 11.5558 2C16.7718 2 21.0002 3.49238 21.0002 5.33333Z" stroke="black" stroke-width="2" stroke-linecap="round" stroke-linejoin="round"/>
</svg>
