<svg width="24" height="24" viewBox="0 0 24 24" fill="none" xmlns="http://www.w3.org/2000/svg">
<path d="M11.3097 8.28538L12.6102 2.99082C12.6931 2.65292 12.7346 2.48396 12.6931 2.35098C12.6567 2.23441 12.5789 2.1352 12.4744 2.07205C12.3552 2 12.1812 2 11.8332 2H7.9606C7.74308 2 7.63432 2 7.54309 2.03745C7.46256 2.0705 7.39206 2.124 7.33856 2.19265C7.27794 2.27044 7.24867 2.37519 7.19012 2.58468L5.13496 9.93873C4.74939 11.3184 4.5566 12.0083 4.71371 12.5536C4.85134 13.0314 5.16199 13.4408 5.58508 13.7019C6.06802 14 6.78431 14 8.21688 14H11.3317C11.6426 14 11.798 14 11.9111 14.0627C12.0104 14.1177 12.088 14.2049 12.1312 14.3099C12.1804 14.4295 12.1624 14.5839 12.1264 14.8926L11.4984 20.2792C11.3737 21.3487 11.3114 21.8834 11.4505 22.0487C11.5702 22.1909 11.7589 22.255 11.9404 22.2151C12.1515 22.1686 12.4276 21.7065 12.9798 20.7821L19.1305 10.4865C19.3672 10.0902 19.4856 9.8921 19.4702 9.72913C19.4567 9.58702 19.3832 9.45743 19.2681 9.37301C19.1361 9.2762 18.9053 9.2762 18.4437 9.2762H12.0866C11.7387 9.2762 11.5647 9.2762 11.4455 9.20415C11.341 9.14101 11.2632 9.04179 11.2268 8.92522C11.1852 8.79224 11.2267 8.62328 11.3097 8.28538Z" stroke="black" stroke-width="2" stroke-linecap="round" stroke-linejoin="round"/>
</svg>
