<svg width="24" height="24" viewBox="0 0 24 24" fill="none" xmlns="http://www.w3.org/2000/svg">
<path opacity="0.4" d="M18.8135 5.17542H18.8258M18.8258 2L19.6835 4.31776L22.0012 5.17542L19.6835 6.03307L18.8258 8.35083L17.9682 6.03307L15.6504 5.17542L17.9682 4.31776L18.8258 2ZM19.4285 5.17542C19.4285 5.51509 19.1532 5.79045 18.8135 5.79045C18.4738 5.79045 18.1985 5.51509 18.1985 5.17542C18.1985 4.83574 18.4738 4.56038 18.8135 4.56038C19.1532 4.56038 19.4285 4.83574 19.4285 5.17542Z" stroke="black" stroke-width="2" stroke-linecap="round" stroke-linejoin="round"/>
<path d="M2.17578 11.9465C2.17578 17.4837 6.66452 21.9724 12.2017 21.9724C16.3404 21.9724 19.8935 19.4646 21.4241 15.8856C21.0301 15.9327 20.6291 15.9569 20.2224 15.9569C14.6852 15.9569 10.1965 11.4682 10.1965 5.93101C10.1965 4.53265 10.4828 3.20116 10.9999 1.99194C6.02936 2.5857 2.17578 6.81609 2.17578 11.9465Z" stroke="black" stroke-width="2" stroke-linecap="round" stroke-linejoin="round"/>
</svg>
