<svg width="24" height="24" viewBox="0 0 24 24" fill="none" xmlns="http://www.w3.org/2000/svg">
<path d="M12 5.00001V19M12 5.00001L15.9999 2M12 5.00001L7.9999 2.00001M12 19L15.9999 22M12 19L7.9999 22M5.00001 11.9999L19 11.9999M5.00001 11.9999L2 8.00001M5.00001 11.9999L2.00001 16M19 11.9999L22 8.00001M19 11.9999L22 16M15.5426 15.5422L8.4583 8.45789M15.5426 15.5422L15.848 18.273M15.5426 15.5422L18.2734 15.8475M8.4583 8.45789L5.72756 8.15249M8.4583 8.45789L8.15298 5.72707M15.5423 8.45788L8.458 15.5422M15.5423 8.45788L18.2731 8.15248M15.5423 8.45788L15.8477 5.72706M8.458 15.5422L8.15261 18.2729M8.458 15.5422L5.72719 15.8475" stroke="black" stroke-width="2" stroke-linecap="round" stroke-linejoin="round"/>
</svg>
