<svg width="24" height="24" viewBox="0 0 24 24" fill="none" xmlns="http://www.w3.org/2000/svg">
<g opacity="0.4">
<path d="M6.29499 2.76975C6.5243 2.33723 6.63895 2.12098 6.79185 2.05024C6.92503 1.98862 7.07855 1.98862 7.21173 2.05024C7.36463 2.12098 7.47929 2.33723 7.7086 2.76975L8.81434 4.85534C8.85709 4.93599 8.87847 4.97631 8.90616 5.01153C8.93074 5.04279 8.95896 5.07101 8.99022 5.09559C9.02544 5.12328 9.06577 5.14466 9.14641 5.18741L11.232 6.29315C11.6645 6.52246 11.8808 6.63712 11.9515 6.79002C12.0131 6.9232 12.0131 7.07672 11.9515 7.2099C11.8808 7.3628 11.6645 7.47746 11.232 7.70677L9.14641 8.81251C9.06577 8.85526 9.02544 8.87664 8.99022 8.90433C8.95896 8.92891 8.93074 8.95713 8.90616 8.98839C8.87847 9.02361 8.85709 9.06394 8.81434 9.14458L7.7086 11.2302C7.47929 11.6627 7.36463 11.8789 7.21173 11.9497C7.07855 12.0113 6.92503 12.0113 6.79185 11.9497C6.63895 11.8789 6.5243 11.6627 6.29499 11.2302L5.18924 9.14458C5.14649 9.06393 5.12511 9.02361 5.09742 8.98839C5.07284 8.95713 5.04462 8.92891 5.01336 8.90433C4.97814 8.87664 4.93782 8.85526 4.85717 8.81251L2.77158 7.70677C2.33906 7.47746 2.12281 7.3628 2.05207 7.2099C1.99046 7.07672 1.99046 6.9232 2.05207 6.79002C2.12281 6.63712 2.33906 6.52247 2.77158 6.29315L4.85717 5.18741C4.93782 5.14466 4.97814 5.12328 5.01336 5.09559C5.04462 5.07101 5.07284 5.04279 5.09742 5.01153C5.12511 4.97631 5.14649 4.93599 5.18924 4.85534L6.29499 2.76975Z" stroke="black" stroke-width="2" stroke-linecap="round" stroke-linejoin="round"/>
<path d="M16.3437 12.782C16.573 12.3494 16.6877 12.1332 16.8406 12.0624C16.9738 12.0008 17.1273 12.0008 17.2605 12.0624C17.4134 12.1332 17.528 12.3494 17.7573 12.782L18.8631 14.8675C18.9058 14.9482 18.9272 14.9885 18.9549 15.0237C18.9795 15.055 19.0077 15.0832 19.039 15.1078C19.0742 15.1355 19.1145 15.1569 19.1952 15.1996L21.2807 16.3054C21.7133 16.5347 21.9295 16.6493 22.0003 16.8022C22.0619 16.9354 22.0619 17.0889 22.0003 17.2221C21.9295 17.375 21.7133 17.4897 21.2807 17.719L19.1952 18.8247C19.1145 18.8675 19.0742 18.8888 19.039 18.9165C19.0077 18.9411 18.9795 18.9693 18.9549 19.0006C18.9272 19.0358 18.9058 19.0761 18.8631 19.1568L17.7573 21.2424C17.528 21.6749 17.4134 21.8911 17.2605 21.9619C17.1273 22.0235 16.9738 22.0235 16.8406 21.9619C16.6877 21.8911 16.573 21.6749 16.3437 21.2424L15.238 19.1568C15.1952 19.0761 15.1739 19.0358 15.1462 19.0006C15.1216 18.9693 15.0934 18.9411 15.0621 18.9165C15.0269 18.8888 14.9866 18.8675 14.9059 18.8247L12.8203 17.719C12.3878 17.4897 12.1716 17.375 12.1008 17.2221C12.0392 17.0889 12.0392 16.9354 12.1008 16.8022C12.1716 16.6493 12.3878 16.5347 12.8203 16.3054L14.9059 15.1996C14.9866 15.1569 15.0269 15.1355 15.0621 15.1078C15.0934 15.0832 15.1216 15.055 15.1462 15.0237C15.1739 14.9885 15.1952 14.9482 15.238 14.8675L16.3437 12.782Z" stroke="black" stroke-width="2" stroke-linecap="round" stroke-linejoin="round"/>
</g>
<path d="M5.57756 18.427H5.58759M18.4369 5.60571H18.447M5.58759 15.8394L6.28647 17.7281L8.17517 18.427L6.28647 19.1259L5.58759 21.0146L4.8887 19.1259L3 18.427L4.8887 17.7281L5.58759 15.8394ZM6.07874 18.427C6.07874 18.7038 5.85436 18.9282 5.57756 18.9282C5.30077 18.9282 5.07638 18.7038 5.07638 18.427C5.07638 18.1502 5.30077 17.9258 5.57756 17.9258C5.85436 17.9258 6.07874 18.1502 6.07874 18.427ZM18.447 3.01813L19.1458 4.90683L21.0345 5.60571L19.1458 6.3046L18.447 8.1933L17.7481 6.3046L15.8594 5.60571L17.7481 4.90683L18.447 3.01813ZM18.9381 5.60571C18.9381 5.88251 18.7137 6.10689 18.4369 6.10689C18.1601 6.10689 17.9358 5.88251 17.9358 5.60571C17.9358 5.32892 18.1601 5.10453 18.4369 5.10453C18.7137 5.10453 18.9381 5.32892 18.9381 5.60571Z" stroke="black" stroke-width="2" stroke-linecap="round" stroke-linejoin="round"/>
</svg>
