<svg width="24" height="24" viewBox="0 0 24 24" fill="none" xmlns="http://www.w3.org/2000/svg">
<path opacity="0.4" d="M16.3972 13.5249C16.6286 12.8474 16.7442 12.5086 16.916 12.4155C17.0646 12.335 17.2439 12.335 17.3925 12.4155C17.5643 12.5086 17.68 12.8474 17.9113 13.5249L18.5155 15.2941C18.5621 15.4305 18.5854 15.4987 18.6244 15.5554C18.659 15.6057 18.7025 15.6492 18.7528 15.6838C18.8095 15.7228 18.8777 15.7461 19.0141 15.7927L20.7833 16.3968C21.4608 16.6282 21.7996 16.7439 21.8927 16.9156C21.9732 17.0643 21.9732 17.2435 21.8927 17.3922C21.7996 17.5639 21.4608 17.6796 20.7833 17.911L19.0141 18.5151C18.8777 18.5617 18.8095 18.585 18.7528 18.6241C18.7025 18.6586 18.659 18.7022 18.6244 18.7524C18.5854 18.8091 18.5621 18.8773 18.5155 19.0137L17.9113 20.7829C17.68 21.4604 17.5643 21.7992 17.3925 21.8923C17.2439 21.9729 17.0646 21.9729 16.916 21.8923C16.7442 21.7992 16.6286 21.4604 16.3972 20.7829L15.793 19.0137C15.7465 18.8773 15.7232 18.8091 15.6841 18.7524C15.6495 18.7022 15.606 18.6586 15.5558 18.6241C15.499 18.585 15.4309 18.5617 15.2945 18.5151L13.5253 17.911C12.8477 17.6796 12.509 17.5639 12.4159 17.3922C12.3353 17.2435 12.3353 17.0643 12.4159 16.9156C12.509 16.7439 12.8477 16.6282 13.5253 16.3968L15.2945 15.7927C15.4309 15.7461 15.499 15.7228 15.5558 15.6838C15.606 15.6492 15.6495 15.6057 15.6841 15.5554C15.7232 15.4987 15.7465 15.4305 15.793 15.2941L16.3972 13.5249Z" stroke="black" stroke-width="2" stroke-linecap="round" stroke-linejoin="round"/>
<path d="M7.12181 3.21697C7.35317 2.53946 7.46885 2.2007 7.64062 2.1076C7.78925 2.02704 7.96852 2.02704 8.11714 2.1076C8.28891 2.2007 8.4046 2.53946 8.63596 3.21697L9.50314 5.75639C9.5497 5.89276 9.57299 5.96094 9.61204 6.01768C9.64664 6.06793 9.69014 6.11143 9.74039 6.14603C9.79713 6.18508 9.86531 6.20837 10.0017 6.25494L12.5411 7.12211C13.2186 7.35348 13.5574 7.46916 13.6505 7.64093C13.731 7.78955 13.731 7.96882 13.6505 8.11745C13.5574 8.28922 13.2186 8.4049 12.5411 8.63626L10.0017 9.50344C9.86531 9.55001 9.79713 9.57329 9.74039 9.61235C9.69014 9.64694 9.64664 9.69044 9.61204 9.7407C9.57299 9.79744 9.5497 9.86562 9.50314 10.002L8.63596 12.5414C8.4046 13.2189 8.28891 13.5577 8.11714 13.6508C7.96852 13.7313 7.78925 13.7313 7.64062 13.6508C7.46885 13.5577 7.35317 13.2189 7.12181 12.5414L6.25463 10.002C6.20806 9.86562 6.18478 9.79744 6.14572 9.7407C6.11113 9.69044 6.06763 9.64694 6.01737 9.61235C5.96063 9.57329 5.89245 9.55001 5.75609 9.50344L3.21667 8.63626C2.53915 8.4049 2.2004 8.28922 2.10729 8.11745C2.02674 7.96882 2.02674 7.78955 2.10729 7.64093C2.2004 7.46916 2.53915 7.35348 3.21667 7.12211L5.75609 6.25494C5.89245 6.20837 5.96063 6.18508 6.01737 6.14603C6.06763 6.11143 6.11113 6.06793 6.14572 6.01768C6.18478 5.96094 6.20806 5.89276 6.25463 5.75639L7.12181 3.21697Z" stroke="black" stroke-width="2" stroke-linecap="round" stroke-linejoin="round"/>
</svg>
