<svg width="24" height="24" viewBox="0 0 24 24" fill="none" xmlns="http://www.w3.org/2000/svg">
<path opacity="0.4" d="M16 12C16 14.2091 14.2091 16 12 16C9.79086 16 8 14.2091 8 12C8 9.79086 9.79086 8 12 8C14.2091 8 16 9.79086 16 12Z" stroke="black" stroke-width="2" stroke-linecap="round" stroke-linejoin="round"/>
<path d="M18.6832 7.58521C23.2459 13.5561 21.6783 20.4989 21.242 22M5.31602 16.4148C0.753298 10.4439 2.32095 3.50112 2.75723 2M19.9996 12C19.9996 16.4183 16.4179 20 11.9996 20C7.58133 20 3.99961 16.4183 3.99961 12C3.99961 7.58172 7.58133 4 11.9996 4C16.4179 4 19.9996 7.58172 19.9996 12Z" stroke="black" stroke-width="2" stroke-linecap="round" stroke-linejoin="round"/>
</svg>
