<svg width="24" height="24" viewBox="0 0 24 24" fill="none" xmlns="http://www.w3.org/2000/svg">
<path opacity="0.4" d="M12 3.02841V5.02841M2 13.0284H4M20 13.0284H22M4.92969 5.95737L6.3439 7.37158M17.6562 7.37155L19.0705 5.95734M3 17.7126L4.5 16.9357C5.44065 16.4484 6.55935 16.4484 7.5 16.9357C8.44065 17.4229 9.55935 17.4229 10.5 16.9357C11.4406 16.4484 12.5594 16.4484 13.5 16.9357L13.5564 16.9649C14.4689 17.4375 15.5467 17.4699 16.4859 17.0529L16.665 16.9734C17.8128 16.4638 19.1386 16.5556 20.2052 17.2186L21 17.7126" stroke="black" stroke-width="2" stroke-linecap="round" stroke-linejoin="round"/>
<path d="M7 13.0284C7 10.267 9.23858 8.02844 12 8.02844C14.7614 8.02844 17 10.267 17 13.0284M16.4859 20.711C15.5467 21.128 14.4689 21.0956 13.5564 20.6229L13.5 20.5937C12.5594 20.1065 11.4406 20.1065 10.5 20.5937C9.55935 21.081 8.44065 21.081 7.5 20.5937" stroke="black" stroke-width="2" stroke-linecap="round" stroke-linejoin="round"/>
</svg>
