<svg width="24" height="24" viewBox="0 0 24 24" fill="none" xmlns="http://www.w3.org/2000/svg">
<path opacity="0.4" d="M2 18.0283H4M20 18.0283H22M4.92969 10.9573L6.3439 12.3715M17.6562 12.3716L19.0705 10.9574M22 22H2" stroke="black" stroke-width="2" stroke-linecap="round"/>
<path d="M6 18.0283C6 18.5806 6.44772 19.0283 7 19.0283C7.55228 19.0283 8 18.5806 8 18.0283H7H6ZM16 18.0283C16 18.5806 16.4477 19.0283 17 19.0283C17.5523 19.0283 18 18.5806 18 18.0283H17H16ZM11.0002 9.88942C11.0002 10.4417 11.4479 10.8894 12.0002 10.8894C12.5525 10.8894 13.0002 10.4417 13.0002 9.88942H12.0002H11.0002ZM13.0002 2C13.0002 1.44772 12.5525 1 12.0002 1C11.4479 1 11.0002 1.44772 11.0002 2H12.0002H13.0002ZM14.7714 6.37034C15.1517 6.77082 15.7847 6.78717 16.1851 6.40686C16.5856 6.02655 16.602 5.3936 16.2217 4.99312L15.4965 5.68173L14.7714 6.37034ZM12.0709 2.07438L12.796 1.38577L12.796 1.38576L12.0709 2.07438ZM11.9296 2.07438L11.2045 1.38576L11.2045 1.38577L11.9296 2.07438ZM7.77878 4.99312C7.39847 5.39359 7.41482 6.02655 7.81529 6.40686C8.21577 6.78717 8.84873 6.77082 9.22904 6.37034L8.50391 5.68173L7.77878 4.99312ZM7 18.0283H8C8 15.8192 9.79086 14.0283 12 14.0283V13.0283V12.0283C8.68629 12.0283 6 14.7146 6 18.0283H7ZM12 13.0283V14.0283C14.2091 14.0283 16 15.8192 16 18.0283H17H18C18 14.7146 15.3137 12.0283 12 12.0283V13.0283ZM12.0002 9.88942H13.0002L13.0002 2.04357L12.0002 2.04357L11.0002 2.04357L11.0002 9.88942H12.0002ZM12.0002 2.04357H13.0002V2H12.0002H11.0002V2.04357H12.0002ZM15.4965 5.68173L16.2217 4.99312L12.796 1.38577L12.0709 2.07438L11.3457 2.76299L14.7714 6.37034L15.4965 5.68173ZM11.9296 2.07438L11.2045 1.38577L7.77878 4.99312L8.50391 5.68173L9.22904 6.37034L12.6547 2.76299L11.9296 2.07438ZM12.0709 2.07438L12.796 1.38576C12.5857 1.16429 12.297 1.04357 12.0002 1.04357V2.04357V3.04357C11.7545 3.04357 11.517 2.94339 11.3457 2.76301L12.0709 2.07438ZM12.0002 2.04357V1.04357C11.7034 1.04357 11.4148 1.1643 11.2045 1.38576L11.9296 2.07438L12.6547 2.76301C12.4834 2.94338 12.2459 3.04357 12.0002 3.04357V2.04357Z" fill="black"/>
</svg>
