<svg width="24" height="24" viewBox="0 0 24 24" fill="none" xmlns="http://www.w3.org/2000/svg">
<path opacity="0.4" d="M2 18.0283H4M20 18.0283H22M4.92969 10.9573L6.3439 12.3715M17.6562 12.3716L19.0705 10.9574M22 22H2" stroke="black" stroke-width="2" stroke-linecap="round"/>
<path d="M6 18.0283C6 18.5806 6.44772 19.0283 7 19.0283C7.55228 19.0283 8 18.5806 8 18.0283H7H6ZM16 18.0283C16 18.5806 16.4477 19.0283 17 19.0283C17.5523 19.0283 18 18.5806 18 18.0283H17H16ZM13.0002 2C13.0002 1.44772 12.5525 1 12.0002 1C11.4479 1 11.0002 1.44772 11.0002 2H12.0002H13.0002ZM11.0002 9.88942C11.0002 10.4417 11.4479 10.8894 12.0002 10.8894C12.5525 10.8894 13.0002 10.4417 13.0002 9.88942H12.0002H11.0002ZM9.22904 5.51908C8.84873 5.1186 8.21577 5.10225 7.81529 5.48256C7.41482 5.86287 7.39847 6.49582 7.77878 6.8963L8.50391 6.20769L9.22904 5.51908ZM11.9296 9.81504L11.2045 10.5036L11.2045 10.5037L11.9296 9.81504ZM12.0709 9.81504L12.796 10.5037L12.796 10.5036L12.0709 9.81504ZM16.2217 6.8963C16.602 6.49582 16.5856 5.86287 16.1851 5.48256C15.7847 5.10225 15.1517 5.1186 14.7714 5.51908L15.4965 6.20769L16.2217 6.8963ZM7 18.0283H8C8 15.8192 9.79086 14.0283 12 14.0283V13.0283V12.0283C8.68629 12.0283 6 14.7146 6 18.0283H7ZM12 13.0283V14.0283C14.2091 14.0283 16 15.8192 16 18.0283H17H18C18 14.7146 15.3137 12.0283 12 12.0283V13.0283ZM12.0002 2H11.0002V9.84585H12.0002H13.0002V2H12.0002ZM12.0002 9.84585H11.0002V9.88942H12.0002H13.0002V9.84585H12.0002ZM8.50391 6.20769L7.77878 6.8963L11.2045 10.5036L11.9296 9.81504L12.6547 9.12642L9.22904 5.51908L8.50391 6.20769ZM12.0709 9.81504L12.796 10.5036L16.2217 6.8963L15.4965 6.20769L14.7714 5.51908L11.3457 9.12642L12.0709 9.81504ZM11.9296 9.81504L11.2045 10.5037C11.4148 10.7251 11.7034 10.8458 12.0002 10.8458V9.84585V8.84585C12.2459 8.84585 12.4834 8.94603 12.6547 9.12641L11.9296 9.81504ZM12.0002 9.84585V10.8458C12.297 10.8458 12.5857 10.7251 12.796 10.5037L12.0709 9.81504L11.3457 9.12641C11.517 8.94603 11.7545 8.84585 12.0002 8.84585V9.84585Z" fill="black"/>
</svg>
