<svg width="24" height="24" viewBox="0 0 24 24" fill="none" xmlns="http://www.w3.org/2000/svg">
<path opacity="0.4" d="M12 22C14.4853 22 16.5 19.9853 16.5 17.5C16.5 15.8964 15.6612 14.4887 14.3984 13.6917V4.39844C14.3984 3.07382 13.3246 2 12 2C10.6754 2 9.60156 3.07382 9.60156 4.39844V13.6917C8.33879 14.4887 7.5 15.8964 7.5 17.5C7.5 19.9853 9.51472 22 12 22Z" stroke="black" stroke-width="2" stroke-linecap="round" stroke-linejoin="round"/>
<path d="M12.0003 17.4733H12.0159M12.7819 17.4733C12.7819 17.9049 12.4319 18.2548 12.0003 18.2548C11.5687 18.2548 11.2188 17.9049 11.2188 17.4733C11.2188 17.0416 11.5687 16.6917 12.0003 16.6917C12.4319 16.6917 12.7819 17.0416 12.7819 17.4733Z" stroke="black" stroke-width="2" stroke-linecap="round" stroke-linejoin="round"/>
</svg>
