<svg width="24" height="24" viewBox="0 0 24 24" fill="none" xmlns="http://www.w3.org/2000/svg">
<path opacity="0.4" d="M9.02552 11.2998L9.02552 5.09993M9.02552 11.2998L6.19963 14.3997M9.02552 11.2998L11.8516 14.3997M9.02552 11.2998V14.3997M9.02552 5.09993L6.19963 2M9.02552 5.09993L11.8516 2M9.02552 5.09993V2M5.92415 8.19979L12.124 8.19979M5.92415 8.19979L2.82422 5.37391M5.92415 8.19979L2.82422 11.0258M5.92415 8.19979H2.82422" stroke="black" stroke-width="2" stroke-linecap="round" stroke-linejoin="round"/>
<path d="M19.6601 4.01304C19.6601 2.90128 18.7589 2 17.6471 2C16.5354 2 15.6342 2.90117 15.6342 4.01286L15.6336 15.5713C14.7171 16.2087 14.1172 17.2696 14.1172 18.4707C14.1172 20.4199 15.6973 22 17.6465 22C19.5957 22 21.1758 20.4199 21.1758 18.4707C21.1758 17.2697 20.5759 16.2089 19.6595 15.5714L19.6601 4.01304Z" stroke="black" stroke-width="2" stroke-linecap="round" stroke-linejoin="round"/>
</svg>
