<svg width="24" height="24" viewBox="0 0 24 24" fill="none" xmlns="http://www.w3.org/2000/svg">
<path opacity="0.4" d="M9.26367 12L19 12C20.6569 12 21.999 10.6569 21.999 9C21.999 7.34315 20.6559 6 18.999 6C17.8886 6 16.9191 6.6033 16.4004 7.5" stroke="black" stroke-width="2" stroke-linecap="round" stroke-linejoin="round"/>
<path d="M2 8.0397H11.0459M11.0459 8.0397H11.168M11.0459 8.0397C12.1654 8.03144 13.0703 7.1214 13.0703 6C13.0703 4.87347 12.1571 3.96024 11.0306 3.96024C10.2755 3.96024 9.61636 4.37043 9.26367 4.98012M11.0459 8.0397C11.0408 8.03974 11.0357 8.03976 11.0306 8.03976M2 15.96H16.1855M16.263 15.96C17.3895 15.96 18.3027 16.8732 18.3027 17.9997C18.3027 19.1263 17.3895 20.0395 16.263 20.0395C15.508 20.0395 14.8488 19.6293 14.4961 19.0196" stroke="black" stroke-width="2" stroke-linecap="round" stroke-linejoin="round"/>
</svg>
