<svg width="24" height="24" viewBox="0 0 24 24" fill="none" xmlns="http://www.w3.org/2000/svg">
<path opacity="0.4" d="M16.4004 7.50003C16.9191 6.60333 17.8886 6.00003 18.999 6.00003C20.6559 6.00003 21.999 7.34317 21.999 9.00003C21.999 10.6569 20.6569 12 19 12H17.3867M9.26367 4.98015C9.61636 4.37046 10.2755 3.96027 11.0306 3.96027C12.1571 3.96027 13.0703 4.8735 13.0703 6.00003C13.0703 6.50083 12.8898 6.95948 12.5904 7.31449" stroke="black" stroke-width="2" stroke-linecap="round" stroke-linejoin="round"/>
<path d="M2 12H11.7289M2 8.03971H7.46038M2 15.96H15.4452M14.4961 19.0195C14.8488 19.6292 15.508 20.0394 16.263 20.0394C17.1196 20.0394 17.853 19.5113 18.1551 18.7629M2 2L22 22" stroke="black" stroke-width="2" stroke-linecap="round" stroke-linejoin="round"/>
</svg>
