<svg width="24" height="25" viewBox="0 0 24 25" fill="none" xmlns="http://www.w3.org/2000/svg">
<path opacity="0.4" d="M12 5.20832C12 5.20832 9.5 6.24999 7 6.24999C6.46719 6.24999 5.93439 6.20268 5.42578 6.12822C4.02131 5.9226 3.31908 5.81979 2.95269 5.96936C2.58465 6.1196 2.38723 6.29837 2.19318 6.6571C2 7.01422 2 7.64312 2 8.90091V18.0991C2 18.692 2 18.9884 2.11422 19.2756C2.20577 19.5058 2.39727 19.7657 2.58706 19.9173C2.82385 20.1065 3.06468 20.1737 3.54634 20.308C4.48561 20.5699 5.74281 20.8333 7 20.8333C9.5 20.8333 12 19.7917 12 19.7917C12 19.7917 14.5 18.75 17 18.75C17.5328 18.75 18.0656 18.7973 18.5742 18.8718C19.9787 19.0774 20.6809 19.1802 21.0473 19.0306C21.4153 18.8804 21.6128 18.7016 21.8068 18.3429C22 17.9858 22 17.3569 22 16.0991V6.90091C22 6.30801 22 6.01156 21.8858 5.72437C21.7942 5.49419 21.6027 5.23429 21.4129 5.08265C21.1762 4.89345 20.9353 4.82629 20.4537 4.69199C19.5144 4.43008 18.2572 4.16666 17 4.16666C14.5 4.16666 12 5.20832 12 5.20832ZM12 19.7917Cnan nan nan nan nan nanCnan nan nan nan nan nanCnan nan nan nan nan nanCnan nan nan nan nan nanLnan nanCnan nan nan nan nan nanCnan nan nan nan nan nanCnan nan nan nan nan nanCnan nan nan nan 12 19.7917ZM12 5.20832Cnan nan nan nan nan nanCnan nan nan nan nan nanCnan nan nan nan nan nanCnan nan nan nan nan nanLnan nanCnan nan nan nan nan nanCnan nan nan nan nan nanCnan nan nan nan nan nanCnan nan nan nan 12 5.20832Z" stroke="black" stroke-width="2" stroke-linecap="round" stroke-linejoin="round"/>
<path d="M18.332 10.9375H18.342M5.78516 14.0625H5.79516M18.832 10.9375C18.832 11.2251 18.6082 11.4583 18.332 11.4583C18.0559 11.4583 17.832 11.2251 17.832 10.9375C17.832 10.6499 18.0559 10.4167 18.332 10.4167C18.6082 10.4167 18.832 10.6499 18.832 10.9375ZM6.28516 14.0625C6.28516 14.3501 6.0613 14.5833 5.78516 14.5833C5.50901 14.5833 5.28516 14.3501 5.28516 14.0625C5.28516 13.7749 5.50901 13.5417 5.78516 13.5417C6.0613 13.5417 6.28516 13.7749 6.28516 14.0625ZM14.5957 12.5C14.5957 13.9596 13.4598 15.1428 12.0586 15.1428C10.6574 15.1428 9.52148 13.9596 9.52148 12.5C9.52148 11.0404 10.6574 9.85718 12.0586 9.85718C13.4598 9.85718 14.5957 11.0404 14.5957 12.5Z" stroke="black" stroke-width="2" stroke-linecap="round" stroke-linejoin="round"/>
</svg>
