<svg width="24" height="25" viewBox="0 0 24 25" fill="none" xmlns="http://www.w3.org/2000/svg">
<path opacity="0.4" d="M2 8.54165C2 7.37487 2 6.79148 2.21799 6.34583C2.40973 5.95383 2.71569 5.63512 3.09202 5.43538C3.51984 5.20831 4.07989 5.20831 5.2 5.20831H18.8C19.9201 5.20831 20.4802 5.20831 20.908 5.43538C21.2843 5.63512 21.5903 5.95383 21.782 6.34583C22 6.79148 22 7.37487 22 8.54165V16.4583C22 17.6251 22 18.2085 21.782 18.6541C21.5903 19.0461 21.2843 19.3648 20.908 19.5646C20.4802 19.7916 19.9201 19.7916 18.8 19.7916H5.2C4.0799 19.7916 3.51984 19.7916 3.09202 19.5646C2.71569 19.3648 2.40973 19.0461 2.21799 18.6541C2 18.2085 2 17.6251 2 16.4583V8.54165Z" stroke="black" stroke-width="2" stroke-linecap="round" stroke-linejoin="round"/>
<path d="M18.332 12.5H18.342M5.78516 12.5H5.79516M18.832 12.5C18.832 12.7876 18.6082 13.0208 18.332 13.0208C18.0559 13.0208 17.832 12.7876 17.832 12.5C17.832 12.2124 18.0559 11.9792 18.332 11.9792C18.6082 11.9792 18.832 12.2124 18.832 12.5ZM6.28516 12.5C6.28516 12.7876 6.0613 13.0208 5.78516 13.0208C5.50901 13.0208 5.28516 12.7876 5.28516 12.5C5.28516 12.2124 5.50901 11.9792 5.78516 11.9792C6.0613 11.9792 6.28516 12.2124 6.28516 12.5ZM14.5957 12.5C14.5957 13.9596 13.4598 15.1428 12.0586 15.1428C10.6574 15.1428 9.52148 13.9596 9.52148 12.5C9.52148 11.0404 10.6574 9.85718 12.0586 9.85718C13.4598 9.85718 14.5957 11.0404 14.5957 12.5Z" stroke="black" stroke-width="2" stroke-linecap="round" stroke-linejoin="round"/>
</svg>
