<svg width="24" height="25" viewBox="0 0 24 25" fill="none" xmlns="http://www.w3.org/2000/svg">
<path opacity="0.4" d="M18.3314 10.9375H18.3414M10.5664 5.69264C10.7207 5.64846 10.8656 5.60463 10.9994 5.56244C11.616 5.36806 11.9994 5.20832 11.9994 5.20832C11.9994 5.20832 14.4994 4.16666 16.9994 4.16666C18.5417 4.16666 20.0841 4.56311 21.0394 4.86686C21.626 5.05338 21.9994 5.62727 21.9994 6.26619V17.4838M11.9994 5.20832L12.0133 5.20252M18.8314 10.9375C18.8314 11.2251 18.6076 11.4583 18.3314 11.4583C18.0553 11.4583 17.8314 11.2251 17.8314 10.9375C17.8314 10.6498 18.0553 10.4167 18.3314 10.4167C18.6076 10.4167 18.8314 10.6498 18.8314 10.9375Z" stroke="black" stroke-width="2" stroke-linecap="round" stroke-linejoin="round"/>
<path d="M5.78516 14.0625H5.79516M10.0122 10.9375C9.7037 11.3752 9.52148 11.9154 9.52148 12.5C9.52148 13.9596 10.6574 15.1428 12.0586 15.1428C12.6474 15.1428 13.1893 14.9339 13.6198 14.5833M5.5 6.13888C5.01184 6.0703 4.5447 5.97604 4.1197 5.87369C3.08577 5.62471 2 6.41079 2 7.51621V18.7338C2 19.3727 2.37341 19.9466 2.96005 20.1331C3.91536 20.4369 5.45768 20.8333 7 20.8333C9.47906 20.8333 11.9586 19.8088 12 19.7917C12 19.7917 14.5 18.75 17 18.75C17.1669 18.75 17.3338 18.7547 17.5 18.7633M12 19.7917C16.2405 18.0248 18.3608 17.1413 12 19.7917ZM1.75 2.08334L21.75 22.9167M6.28516 14.0625C6.28516 14.3502 6.0613 14.5833 5.78516 14.5833C5.50901 14.5833 5.28516 14.3502 5.28516 14.0625C5.28516 13.7749 5.50901 13.5417 5.78516 13.5417C6.0613 13.5417 6.28516 13.7749 6.28516 14.0625Z" stroke="black" stroke-width="2" stroke-linecap="round" stroke-linejoin="round"/>
</svg>
