<svg width="24" height="25" viewBox="0 0 24 25" fill="none" xmlns="http://www.w3.org/2000/svg">
<path opacity="0.4" d="M17.7723 10.9694V14.0306M13.5398 9.37501H13.0008C12.4485 9.37501 12.0008 8.90864 12.0008 8.33334M21.9994 17.048C22.0008 16.8695 22.0008 16.6739 22.0008 16.4583V8.54168C22.0008 7.3749 22.0008 6.79151 21.7828 6.34586C21.5911 5.95386 21.2851 5.63515 20.9088 5.43541C20.481 5.20834 19.9209 5.20834 18.8008 5.20834H10.0254" stroke="black" stroke-width="2" stroke-linecap="round" stroke-linejoin="round"/>
<path d="M6.26169 10.9694V14.0306M12 15.625H12.2715C12.7334 15.625 13.1466 15.4075 13.4218 15.0654M12 15.625H10.4178M12 15.625V16.6667M10.2285 10.9375C10.2285 11.8005 10.9001 12.5 11.7285 12.5M1.75 2.08334L21.75 22.9167M4.44916 5.21204C3.80445 5.22294 3.41139 5.26591 3.09202 5.43541C2.71569 5.63515 2.40973 5.95386 2.21799 6.34586C2 6.79151 2 7.3749 2 8.54168V16.4583C2 17.6251 2 18.2085 2.21799 18.6542C2.40973 19.0462 2.71569 19.3649 3.09202 19.5646C3.51984 19.7917 4.0799 19.7917 5.2 19.7917H18.5397" stroke="black" stroke-width="2" stroke-linecap="round" stroke-linejoin="round"/>
</svg>
