<svg width="24" height="25" viewBox="0 0 24 25" fill="none" xmlns="http://www.w3.org/2000/svg">
<path opacity="0.4" d="M21.9994 17.048C22.0008 16.8694 22.0008 16.6738 22.0008 16.4583V8.54165C22.0008 7.37487 22.0008 6.79148 21.7828 6.34583C21.5911 5.95383 21.2851 5.63512 20.9088 5.43538C20.481 5.20831 19.9209 5.20831 18.8008 5.20831H10.0254M18.2645 10.9694V14.0306" stroke="black" stroke-width="2" stroke-linecap="round" stroke-linejoin="round"/>
<path d="M4.44916 5.21201C3.80445 5.22291 3.41139 5.26588 3.09202 5.43538C2.71569 5.63512 2.40973 5.95383 2.21799 6.34583C2 6.79148 2 7.37487 2 8.54165V16.4583C2 17.6251 2 18.2085 2.21799 18.6541C2.40973 19.0461 2.71569 19.3648 3.09202 19.5646C3.51984 19.7916 4.0799 19.7916 5.2 19.7916H18.5397M13.6195 14.5836C13.189 14.934 12.6472 15.1428 12.0586 15.1428C10.6574 15.1428 9.52148 13.9596 9.52148 12.5C9.52148 11.9791 9.66617 11.4933 9.91595 11.0841M5.74023 10.9694L5.74023 14.0306M1.75 2.08331L21.75 22.9166" stroke="black" stroke-width="2" stroke-linecap="round" stroke-linejoin="round"/>
</svg>
