<svg width="24" height="25" viewBox="0 0 24 25" fill="none" xmlns="http://www.w3.org/2000/svg">
<g opacity="0.4">
<path d="M7.14258 5.41664C7.14258 4.24987 7.14258 3.66648 7.36057 3.22083C7.55231 2.82883 7.85827 2.51012 8.2346 2.31038C8.66242 2.08331 9.22247 2.08331 10.3426 2.08331H17.7403C18.8604 2.08331 19.4204 2.08331 19.8482 2.31038C20.2246 2.51012 20.5305 2.82883 20.7223 3.22083C20.9403 3.66648 20.9403 4.24987 20.9403 5.41665V8.81079C20.9403 9.97756 20.9403 10.561 20.7223 11.0066C20.5305 11.3986 20.2246 11.7173 19.8482 11.917C19.4204 12.1441 18.8604 12.1441 17.7403 12.1441H10.3426C9.22247 12.1441 8.66242 12.1441 8.2346 11.917C7.85827 11.7173 7.55231 11.3986 7.36057 11.0066C7.14258 10.561 7.14258 9.97756 7.14258 8.81079V5.41664Z" stroke="black" stroke-width="2" stroke-linecap="round" stroke-linejoin="round"/>
<path d="M15.7918 7.1137C15.7918 8.12065 15.0082 8.93694 14.0415 8.93694C13.0748 8.93694 12.2912 8.12065 12.2912 7.1137C12.2912 6.10675 13.0748 5.29046 14.0415 5.29046C15.0082 5.29046 15.7918 6.10675 15.7918 7.1137Z" stroke="black" stroke-width="2" stroke-linecap="round" stroke-linejoin="round"/>
</g>
<path d="M6 16.7878L9.69191 15.4856C10.0703 15.3522 10.2595 15.2854 10.4535 15.2456C10.6259 15.2101 10.8008 15.1906 10.9765 15.187C11.1742 15.1831 11.3727 15.2064 11.7696 15.2531L16.3826 15.7954C17.1726 15.8883 17.7729 16.5786 17.7839 17.4066C17.7953 18.2664 17.1687 18.9902 16.3464 19.067L13.8175 19.303M6 21.8647H7.31175C7.70039 21.8647 7.89471 21.8647 8.08564 21.8904C8.25522 21.9131 8.42263 21.951 8.58603 22.0034C8.76999 22.0625 8.94685 22.1464 9.30055 22.3141L10.3668 22.8198C10.8429 23.0455 11.081 23.1584 11.3298 23.2263C11.5506 23.2866 11.7774 23.3204 12.0056 23.3271C12.2627 23.3346 12.5216 23.2958 13.0394 23.2182L16.7386 22.6636C17.1217 22.6062 17.3132 22.5775 17.4979 22.5241C17.6619 22.4767 17.8218 22.4148 17.9758 22.3392C18.1492 22.254 18.3123 22.1455 18.6384 21.9286L21.2632 20.1825C21.7222 19.8772 22 19.3491 22 18.7818C22 17.5147 20.6934 16.7137 19.63 17.3288L17.0354 18.8296M4 23.3337C3.53501 23.3337 3.30252 23.3337 3.11177 23.2804C2.59413 23.1359 2.18981 22.7148 2.05111 22.1756C2 21.9769 2 21.7347 2 21.2503V17.1181C2 16.6338 2 16.3916 2.05111 16.1929C2.18981 15.6537 2.59413 15.2325 3.11177 15.088C3.30252 15.0348 3.53501 15.0348 4 15.0348C4.46499 15.0348 4.69748 15.0348 4.88823 15.088C5.40587 15.2325 5.81019 15.6537 5.94889 16.1929C6 16.3916 6 16.6338 6 17.1181V21.2503C6 21.7347 6 21.9769 5.94889 22.1756C5.81019 22.7148 5.40587 23.1359 4.88823 23.2804C4.69748 23.3337 4.46499 23.3337 4 23.3337Z" stroke="black" stroke-width="2" stroke-linecap="round" stroke-linejoin="round"/>
</svg>
