<svg width="24" height="25" viewBox="0 0 24 25" fill="none" xmlns="http://www.w3.org/2000/svg">
<path opacity="0.4" d="M6.11618 15.7286H5.2C4.07989 15.7286 3.51984 15.7286 3.09202 15.5015C2.71569 15.3018 2.40973 14.9831 2.21799 14.5911C2 14.1454 2 13.562 2 12.3952V7.47915C2 6.31237 2 5.72898 2.21799 5.28333C2.40973 4.89133 2.71569 4.57262 3.09202 4.37288C3.51984 4.14581 4.0799 4.14581 5.2 4.14581H14.6849C15.805 4.14581 16.3651 4.14581 16.7929 4.37288C17.1692 4.57262 17.4752 4.89133 17.667 5.28333C17.8849 5.72898 17.8849 6.31237 17.8849 7.47915V9.09597" stroke="black" stroke-width="2" stroke-linecap="round" stroke-linejoin="round"/>
<path d="M19.0867 14.9598H19.0946M9.12186 14.9598H9.12981M9.31523 20.751H18.8002C19.9203 20.751 20.4803 20.751 20.9082 20.5239C21.2845 20.3242 21.5904 20.0055 21.7822 19.6135C22.0002 19.1678 22.0002 18.5845 22.0002 17.4177V12.5016C22.0002 11.3348 22.0002 10.7514 21.7822 10.3058C21.5904 9.91376 21.2845 9.59505 20.9082 9.39531C20.4803 9.16824 19.9203 9.16824 18.8002 9.16824H9.31523C8.19513 9.16824 7.63508 9.16824 7.20725 9.39531C6.83093 9.59505 6.52497 9.91376 6.33322 10.3058C6.11523 10.7514 6.11523 11.3348 6.11523 12.5016V17.4177C6.11523 18.5845 6.11523 19.1678 6.33322 19.6135C6.52497 20.0055 6.83093 20.3242 7.20725 20.5239C7.63508 20.751 8.19513 20.751 9.31523 20.751ZM19.484 14.9598C19.484 15.1883 19.3061 15.3736 19.0867 15.3736C18.8673 15.3736 18.6895 15.1883 18.6895 14.9598C18.6895 14.7312 18.8673 14.5459 19.0867 14.5459C19.3061 14.5459 19.484 14.7312 19.484 14.9598ZM9.51911 14.9598C9.51911 15.1883 9.34126 15.3736 9.12186 15.3736C8.90246 15.3736 8.72461 15.1883 8.72461 14.9598C8.72461 14.7312 8.90246 14.5459 9.12186 14.5459C9.34126 14.5459 9.51911 14.7312 9.51911 14.9598ZM16.1181 14.9597C16.1181 16.1189 15.2159 17.0587 14.103 17.0587C12.9901 17.0587 12.0879 16.1189 12.0879 14.9597C12.0879 13.8004 12.9901 12.8606 14.103 12.8606C15.2159 12.8606 16.1181 13.8004 16.1181 14.9597Z" stroke="black" stroke-width="2" stroke-linecap="round" stroke-linejoin="round"/>
</svg>
