<svg width="24" height="25" viewBox="0 0 24 25" fill="none" xmlns="http://www.w3.org/2000/svg">
<path opacity="0.4" d="M21.9975 18.164C22.0005 17.9448 22.0005 17.6981 22.0005 17.4177V12.5016C22.0005 11.3348 22.0005 10.7514 21.7825 10.3057C21.5908 9.91374 21.2848 9.59503 20.9085 9.39529C20.4806 9.16822 19.9206 9.16822 18.8005 9.16822H13.3377M17.8853 9.09597V7.47915C17.8853 6.31237 17.8853 5.72898 17.6673 5.28333C17.4755 4.89133 17.1696 4.57262 16.7932 4.37288C16.3654 4.14581 15.8054 4.14581 14.6853 4.14581H8.75781M19.087 14.9597H19.095M19.4843 14.9597C19.4843 15.1883 19.3064 15.3735 19.087 15.3735C18.8676 15.3735 18.6898 15.1883 18.6898 14.9597C18.6898 14.7312 18.8676 14.5459 19.087 14.5459C19.3064 14.5459 19.4843 14.7312 19.4843 14.9597Z" stroke="black" stroke-width="2" stroke-linecap="round" stroke-linejoin="round"/>
<path d="M19.6516 20.7453C19.4087 20.751 19.1285 20.751 18.8002 20.751H9.31523C8.19513 20.751 7.63508 20.751 7.20725 20.524C6.83093 20.3242 6.52497 20.0055 6.33322 19.6135C6.11523 19.1679 6.11523 18.5845 6.11523 17.4177V12.5016C6.11523 11.3348 6.11523 10.7514 6.33322 10.3058C6.52497 9.91377 6.83093 9.59506 7.20725 9.39532C7.48716 9.24676 7.82367 9.1954 8.33659 9.17764M6.11618 15.7286H5.2C4.07989 15.7286 3.51984 15.7286 3.09202 15.5015C2.71569 15.3018 2.40973 14.9831 2.21799 14.5911C2 14.1454 2 13.5621 2 12.3953V7.47918C2 6.3124 2 5.72901 2.21799 5.28336C2.40973 4.89136 2.71569 4.57265 3.09202 4.37291M9.12186 14.9598H9.12981M15.4876 16.4847C15.1266 16.8405 14.6392 17.0587 14.103 17.0587C12.9901 17.0587 12.0879 16.1189 12.0879 14.9597C12.0879 14.4473 12.2641 13.9778 12.5569 13.6134M1.75 2.08334L21.75 22.9167M9.51911 14.9598C9.51911 15.1883 9.34126 15.3736 9.12186 15.3736C8.90246 15.3736 8.72461 15.1883 8.72461 14.9598C8.72461 14.7312 8.90246 14.546 9.12186 14.546C9.34126 14.546 9.51911 14.7312 9.51911 14.9598Z" stroke="black" stroke-width="2" stroke-linecap="round" stroke-linejoin="round"/>
</svg>
