<svg width="24" height="25" viewBox="0 0 24 25" fill="none" xmlns="http://www.w3.org/2000/svg">
<path opacity="0.4" d="M2 8.54165C2 7.37487 2 6.79148 2.21799 6.34583C2.40973 5.95383 2.71569 5.63512 3.09202 5.43538C3.51984 5.20831 4.07989 5.20831 5.2 5.20831H18.8C19.9201 5.20831 20.4802 5.20831 20.908 5.43538C21.2843 5.63512 21.5903 5.95383 21.782 6.34583C22 6.79148 22 7.37487 22 8.54165V16.4583C22 17.6251 22 18.2085 21.782 18.6541C21.5903 19.0461 21.2843 19.3648 20.908 19.5646C20.4802 19.7916 19.9201 19.7916 18.8 19.7916H5.2C4.0799 19.7916 3.51984 19.7916 3.09202 19.5646C2.71569 19.3648 2.40973 19.0461 2.21799 18.6541C2 18.2085 2 17.6251 2 16.4583V8.54165Z" stroke="black" stroke-width="2" stroke-linecap="round" stroke-linejoin="round"/>
<path d="M5.74023 10.9694L5.74023 14.0306M18.2637 10.9694V14.0306M14.5957 12.5C14.5957 13.9596 13.4598 15.1428 12.0586 15.1428C10.6574 15.1428 9.52148 13.9596 9.52148 12.5C9.52148 11.0404 10.6574 9.85718 12.0586 9.85718C13.4598 9.85718 14.5957 11.0404 14.5957 12.5Z" stroke="black" stroke-width="2" stroke-linecap="round" stroke-linejoin="round"/>
</svg>
