<svg width="24" height="25" viewBox="0 0 24 25" fill="none" xmlns="http://www.w3.org/2000/svg">
<path opacity="0.4" d="M5 19.2708H21" stroke="black" stroke-width="2" stroke-linecap="round" stroke-linejoin="round"/>
<path d="M21.0001 15.1042L20.957 12.0629C20.9425 11.0335 20.9352 10.5187 20.7871 10.0582C20.6561 9.65061 20.4458 9.27557 20.1693 8.95651C19.8569 8.59598 19.43 8.33658 18.5764 7.81779L16.1692 6.35491C15.9234 6.20554 15.8005 6.13086 15.6721 6.06887C15.5579 6.0138 15.4406 5.96626 15.3207 5.92653C15.1858 5.88181 15.0468 5.85037 14.7687 5.78748L7.60145 4.16666M6.00007 10.0654L6.82141 10.6495C7.1128 10.8568 7.2585 10.9604 7.39061 11.08C7.50798 11.1863 7.61722 11.302 7.71737 11.4259C7.83011 11.5654 7.92726 11.7188 8.12155 12.0256L10.1051 15.1578C10.3236 15.5028 10.4329 15.6754 10.5615 15.8301C10.6758 15.9675 10.8014 16.0942 10.9368 16.2089C11.0893 16.338 11.2583 16.4463 11.5963 16.6629L14.634 18.61C15.4103 19.1076 16.4255 18.8762 16.9313 18.0862C17.4036 17.3486 17.2772 16.3604 16.6359 15.7774L14.4987 13.8343L13.2587 12.6027C12.2465 11.5974 13.3271 9.87965 14.616 10.4449L15.8687 10.9933C16.2847 11.1755 16.4928 11.2666 16.6555 11.4019C16.9002 11.6054 17.0777 11.8836 17.1629 12.1974C17.2196 12.4061 17.2196 12.6412 17.2196 13.1113M14.5001 13.5417H18.6001C19.4401 13.5417 19.8602 13.5417 20.1811 13.712C20.4633 13.8618 20.6928 14.1008 20.8366 14.3948C21.0001 14.729 21.0001 15.1666 21.0001 16.0417V20.4167C21.0001 21.2917 21.0001 21.7293 20.8366 22.0635C20.6928 22.3575 20.4633 22.5966 20.1811 22.7464C19.8602 22.9167 19.4401 22.9167 18.6001 22.9167H7.40007C6.55999 22.9167 6.13995 22.9167 5.81908 22.7464C5.53684 22.5966 5.30737 22.3575 5.16356 22.0635C5.00007 21.7293 5.00007 21.2917 5.00007 20.4167V16.0417C5.00007 15.1666 5.00007 14.729 5.16356 14.3948C5.30737 14.1008 5.53684 13.8618 5.81908 13.712C6.13995 13.5417 6.55999 13.5417 7.40007 13.5417H9.00007M3.55958 11.319C3.11044 11.1936 2.88587 11.1309 2.71484 11.0281C2.25074 10.749 1.96484 10.2331 1.96484 9.67491C1.96484 9.46921 2.02502 9.23528 2.14536 8.76742L3.43946 3.73656C3.55981 3.2687 3.61998 3.03478 3.71872 2.85663C3.98667 2.37319 4.48186 2.07538 5.01776 2.07538C5.21524 2.07538 5.43981 2.13806 5.88895 2.26342C6.33809 2.38878 6.56266 2.45146 6.73368 2.55432C7.19779 2.83343 7.48368 3.34925 7.48368 3.90748C7.48368 4.11319 7.42351 4.34712 7.30316 4.81497L6.00907 9.84584C5.88872 10.3137 5.82855 10.5476 5.72981 10.7258C5.46186 11.2092 4.96667 11.507 4.43077 11.507C4.23329 11.507 4.00872 11.4443 3.55958 11.319Z" stroke="black" stroke-width="2" stroke-linecap="round" stroke-linejoin="round"/>
</svg>
