<svg width="24" height="25" viewBox="0 0 24 25" fill="none" xmlns="http://www.w3.org/2000/svg">
<path opacity="0.4" d="M22 12.5C22 18.253 17.5228 22.9167 12 22.9167C6.47715 22.9167 2 18.253 2 12.5C2 6.74704 6.47715 2.08334 12 2.08334C17.5228 2.08334 22 6.74704 22 12.5Z" stroke="black" stroke-width="2" stroke-linecap="round" stroke-linejoin="round"/>
<path d="M15.2793 17.1093H8.7672C8.48864 17.1093 8.34936 17.1093 8.28677 17.0773C8.13215 16.9981 8.07316 16.7998 8.1577 16.6435C8.19192 16.5802 8.30679 16.4981 8.53652 16.334L8.98337 16.0148C9.09094 15.938 9.14472 15.8996 9.195 15.8612C10.0843 15.1826 10.6653 14.1517 10.8008 13.0122C10.8084 12.9477 10.8144 12.8801 10.8264 12.7448L11.1936 8.60286C11.2908 7.50575 12.1744 6.66644 13.2321 6.66644H13.4036C14.4395 6.66644 15.2793 7.54119 15.2793 8.62025M7.83203 13.2752H12.456" stroke="black" stroke-width="2" stroke-linecap="round" stroke-linejoin="round"/>
</svg>
