<svg width="24" height="25" viewBox="0 0 24 25" fill="none" xmlns="http://www.w3.org/2000/svg">
<path opacity="0.4" d="M19.3064 15.2224C20.4926 14.4827 22.0001 15.3729 22.0001 16.813C22.0001 17.2274 21.8671 17.6243 21.6299 17.9448M9.70703 5.18813C10.4725 3.36066 12.2225 2.08331 14.2589 2.08331C17.0003 2.08331 19.2227 4.39831 19.2227 7.25401C19.2227 9.34506 18.0311 11.1462 16.3167 11.9608" stroke="black" stroke-width="2" stroke-linecap="round" stroke-linejoin="round"/>
<path d="M6 14.4803L10.0021 12.8857C10.4641 12.7016 10.9626 12.6394 11.4533 12.7045M15.7527 16.9013H14.2755M6 20.2156H7.62672C8.10398 20.2156 8.57434 20.3342 8.99876 20.5615L10.7686 21.5097C11.3392 21.8153 11.9888 21.9224 12.6221 21.8151L17.0655 21.0627C17.5253 20.9848 17.9614 20.7964 18.3392 20.5125L18.7045 20.238M1.75 2.08331L21.75 22.9166M4 21.875C3.53501 21.875 3.30252 21.875 3.11177 21.8217C2.59413 21.6773 2.18981 21.2561 2.05111 20.7169C2 20.5182 2 20.276 2 19.7916V14.5833C2 14.099 2 13.8568 2.05111 13.6581C2.18981 13.1189 2.59413 12.6977 3.11177 12.5532C3.30252 12.5 3.53501 12.5 4 12.5C4.46499 12.5 4.69748 12.5 4.88823 12.5532C5.40587 12.6977 5.81019 13.1189 5.94889 13.6581C6 13.8568 6 14.099 6 14.5833V19.7916C6 20.276 6 20.5182 5.94889 20.7169C5.81019 21.2561 5.40587 21.6773 4.88823 21.8217C4.69748 21.875 4.46499 21.875 4 21.875Z" stroke="black" stroke-width="2" stroke-linecap="round" stroke-linejoin="round"/>
</svg>
