<svg width="24" height="25" viewBox="0 0 24 25" fill="none" xmlns="http://www.w3.org/2000/svg">
<path opacity="0.4" d="M11 4.16665C11 5.31724 13.4624 6.24998 16.5 6.24998C19.5376 6.24998 22 5.31724 22 4.16665M11 4.16665C11 3.01605 13.4624 2.08331 16.5 2.08331C19.5376 2.08331 22 3.01605 22 4.16665M11 4.16665V7.29165M22 4.16665V20.8333C22 21.9839 19.5376 22.9166 16.5 22.9166M16.5 10.4166C19.5376 10.4166 22 9.48391 22 8.33331M16.5 14.5833C19.5376 14.5833 22 13.6506 22 12.5M16.5 18.75C19.5376 18.75 22 17.8172 22 16.6666" stroke="black" stroke-width="2" stroke-linecap="round" stroke-linejoin="round"/>
<path d="M2 12.5C2 13.6506 4.46243 14.5834 7.5 14.5834C10.5376 14.5834 13 13.6506 13 12.5M2 12.5C2 11.3494 4.46243 10.4167 7.5 10.4167C10.5376 10.4167 13 11.3494 13 12.5M2 12.5V20.8334C2 21.9839 4.46243 22.9167 7.5 22.9167C10.5376 22.9167 13 21.9839 13 20.8334V12.5M2 16.6667C2 17.8173 4.46243 18.75 7.5 18.75C10.5376 18.75 13 17.8173 13 16.6667" stroke="black" stroke-width="2" stroke-linecap="round" stroke-linejoin="round"/>
</svg>
