<svg width="24" height="25" viewBox="0 0 24 25" fill="none" xmlns="http://www.w3.org/2000/svg">
<path opacity="0.4" d="M22 12.5C22 18.253 17.5228 22.9167 12 22.9167C6.47715 22.9167 2 18.253 2 12.5C2 6.74704 6.47715 2.08334 12 2.08334C17.5228 2.08334 22 6.74704 22 12.5Z" stroke="black" stroke-width="2" stroke-linecap="round" stroke-linejoin="round"/>
<path d="M15.8127 7.83523C14.8163 7.02251 13.5537 6.53674 12.1802 6.53674C8.96004 6.53674 6.34961 9.20659 6.34961 12.5C6.34961 15.7934 8.96004 18.4633 12.1802 18.4633C13.5537 18.4633 14.8163 17.9775 15.8127 17.1648M4.89648 10.8063H10.2559M4.89648 14.1937H10.2559" stroke="black" stroke-width="2" stroke-linecap="round" stroke-linejoin="round"/>
</svg>
