<svg width="24" height="25" viewBox="0 0 24 25" fill="none" xmlns="http://www.w3.org/2000/svg">
<path d="M13.2774 18.3736C13.2774 20.8827 15.23 22.9167 17.6387 22.9167C20.0474 22.9167 22.0001 20.8827 22.0001 18.3736C22.0001 15.8645 20.0474 13.8306 17.6387 13.8306C16.8091 13.8306 16.0335 14.0719 15.3733 14.4908M21.203 15.5954L21.0099 12.0365C20.9567 11.0559 20.9301 10.5656 20.7758 10.1285C20.6393 9.74158 20.4305 9.38662 20.1617 9.08408C19.858 8.74233 19.4508 8.49485 18.6364 7.99991L16.1165 6.46852C15.8707 6.31916 15.7478 6.24447 15.6193 6.18249C15.5052 6.12741 15.3879 6.07987 15.268 6.04014C15.1331 5.99542 14.9941 5.96398 14.716 5.9011L7.54872 4.28027M5.94733 10.179L6.76867 10.7631C7.06007 10.9704 7.20577 11.074 7.33788 11.1937C7.45524 11.2999 7.56449 11.4156 7.66464 11.5395C7.77738 11.679 7.87452 11.8324 8.06881 12.1392L10.0524 15.2714C10.2709 15.6165 10.3801 15.789 10.5088 15.9437C10.6231 16.0811 10.7487 16.2078 10.8841 16.3225C11.0366 16.4516 11.2056 16.5599 11.5436 16.7766L14.5812 18.7236C15.3576 19.2213 16.3728 18.9898 16.8786 18.1998C17.3508 17.4622 17.2244 16.4741 16.5832 15.891L14.4459 13.9479L13.206 12.7163C12.1938 11.711 13.2743 9.99327 14.5633 10.5585L15.8159 11.107C16.232 11.2891 16.44 11.3802 16.6027 11.5155C16.8475 11.719 17.0249 11.9972 17.1102 12.3111C17.1669 12.5197 17.1669 12.7548 17.1669 13.2249M3.55958 11.319C3.11044 11.1936 2.88587 11.1309 2.71484 11.0281C2.25074 10.749 1.96484 10.2331 1.96484 9.67491C1.96484 9.46921 2.02502 9.23528 2.14536 8.76742L3.43946 3.73656C3.55981 3.2687 3.61998 3.03478 3.71872 2.85663C3.98667 2.37319 4.48186 2.07538 5.01776 2.07538C5.21524 2.07538 5.43981 2.13806 5.88895 2.26342C6.33809 2.38878 6.56266 2.45146 6.73368 2.55432C7.19779 2.83343 7.48368 3.34925 7.48368 3.90748C7.48368 4.11319 7.42351 4.34712 7.30316 4.81497L6.00907 9.84584C5.88872 10.3137 5.82855 10.5476 5.72981 10.7258C5.46186 11.2092 4.96667 11.507 4.43077 11.507C4.23329 11.507 4.00872 11.4443 3.55958 11.319Z" stroke="black" stroke-width="2" stroke-linecap="round" stroke-linejoin="round"/>
</svg>
