<svg width="24" height="25" viewBox="0 0 24 25" fill="none" xmlns="http://www.w3.org/2000/svg">
<path d="M22 17.7083C22 20.5848 19.7614 22.9167 17 22.9167C14.2386 22.9167 12 20.5848 12 17.7083C12 14.8319 14.2386 12.5 17 12.5C19.7614 12.5 22 14.8319 22 17.7083Z" stroke="black" stroke-width="2" stroke-linecap="round" stroke-linejoin="round"/>
<path opacity="0.4" d="M13.0008 10.1486C13.0008 11.2992 10.5383 12.2319 7.50075 12.2319C4.46318 12.2319 2.00075 11.2992 2.00075 10.1486M2 15.491C2 16.6416 4.46243 17.5743 7.5 17.5743C9.41144 17.5743 11.0951 17.2049 12.0808 16.6444M13.0008 20.8333C13.0008 21.9839 10.5383 22.9166 7.50075 22.9166C4.46318 22.9166 2.00075 21.9839 2.00075 20.8333M2.00075 4.55842V20.9684M13.0008 4.55842V14.2278M13.0008 4.61475C13.0008 6.01282 10.5383 7.14618 7.50075 7.14618C4.46318 7.14618 2.00075 6.01282 2.00075 4.61475C2.00075 3.21667 4.46318 2.08331 7.50075 2.08331C10.5383 2.08331 13.0008 3.21667 13.0008 4.61475Z" stroke="black" stroke-width="2" stroke-linecap="round" stroke-linejoin="round"/>
</svg>
