<svg width="24" height="25" viewBox="0 0 24 25" fill="none" xmlns="http://www.w3.org/2000/svg">
<path opacity="0.4" d="M22 12.5C22 18.253 17.5228 22.9167 12 22.9167C6.47715 22.9167 2 18.253 2 12.5C2 6.74704 6.47715 2.08334 12 2.08334C17.5228 2.08334 22 6.74704 22 12.5Z" stroke="black" stroke-width="2" stroke-linecap="round" stroke-linejoin="round"/>
<path d="M11.9997 12.5001H10.7692C9.44802 12.5001 8.37695 11.3844 8.37695 10.0081C8.37695 8.6318 9.44802 7.51611 10.7692 7.51611H11.9997M11.9997 12.5001H13.2301C14.5514 12.5001 15.6224 13.6157 15.6224 14.992C15.6224 16.3683 14.5514 17.484 13.2301 17.484H11.9997M11.9997 12.5001V7.51611M11.9997 12.5001V17.484M11.9997 7.51611V5.8548M11.9997 7.51611H13.7764C14.3182 7.51611 14.8385 7.73679 15.2262 8.13102M11.9997 17.484V19.1453M11.9997 17.484H10.5545C10.1439 17.484 9.93864 17.484 9.73732 17.4555C9.55853 17.4301 9.3823 17.388 9.21077 17.3297C9.01763 17.264 8.83284 17.1708 8.46326 16.9845L8.37695 16.941" stroke="black" stroke-width="2" stroke-linecap="round" stroke-linejoin="round"/>
</svg>
