<svg width="24" height="25" viewBox="0 0 24 25" fill="none" xmlns="http://www.w3.org/2000/svg">
<path opacity="0.4" d="M22 12.5C22 18.253 17.5228 22.9167 12 22.9167C6.47715 22.9167 2 18.253 2 12.5C2 6.74704 6.47715 2.08334 12 2.08334C17.5228 2.08334 22 6.74704 22 12.5Z" stroke="black" stroke-width="2" stroke-linecap="round" stroke-linejoin="round"/>
<path d="M8.18164 7.52754H13.4326C14.7507 7.52754 15.8193 8.64066 15.8193 10.0138C15.8193 11.3869 14.7507 12.5 13.4326 12.5M13.4326 12.5H9.61371M13.4326 12.5C14.7507 12.5 15.8193 13.6131 15.8193 14.9862C15.8193 16.3593 14.7507 17.4725 13.4326 17.4725H8.18164M9.13672 6.53305L9.13672 18.4669M13.2207 17.4725V18.4669M13.2207 6.53305V7.52754" stroke="black" stroke-width="2" stroke-linecap="round" stroke-linejoin="round"/>
</svg>
