<svg width="24" height="25" viewBox="0 0 24 25" fill="none" xmlns="http://www.w3.org/2000/svg">
<path opacity="0.4" d="M11 10.1486C11 11.2992 13.4624 12.2319 16.5 12.2319C19.5376 12.2319 22 11.2992 22 10.1486M22.0008 15.491C22.0008 16.6416 19.5383 17.5743 16.5008 17.5743C14.5893 17.5743 12.9056 17.2049 11.9199 16.6444M11 20.8333C11 21.9839 13.4624 22.9166 16.5 22.9166C19.5376 22.9166 22 21.9839 22 20.8333M22 4.57469V20.9684M11 4.57469V14.4302M11 4.61475C11 6.01282 13.4624 7.14618 16.5 7.14618C19.5376 7.14618 22 6.01282 22 4.61475C22 3.21667 19.5376 2.08331 16.5 2.08331C13.4624 2.08331 11 3.21667 11 4.61475Z" stroke="black" stroke-width="2" stroke-linecap="round" stroke-linejoin="round"/>
<path d="M2 17.7083C2 20.5848 4.23858 22.9167 7 22.9167C9.76142 22.9167 12 20.5848 12 17.7083C12 14.8319 9.76142 12.5 7 12.5C4.23858 12.5 2 14.8319 2 17.7083Z" stroke="black" stroke-width="2" stroke-linecap="round" stroke-linejoin="round"/>
</svg>
