<svg width="24" height="25" viewBox="0 0 24 25" fill="none" xmlns="http://www.w3.org/2000/svg">
<path opacity="0.4" d="M16.5 13.5417C19.5376 13.5417 22 10.9766 22 7.81251C22 4.64838 19.5376 2.08334 16.5 2.08334C13.4624 2.08334 11 4.64838 11 7.81251" stroke="black" stroke-width="2" stroke-linecap="round" stroke-linejoin="round"/>
<path d="M6.33594 5.64373L4.17406 7.96812L2 5.64373M17.6641 19.3563L19.8259 17.0319L22 19.3563M4.16797 7.96815V6.79119C4.16797 5.31602 4.16797 4.57843 4.40224 3.99771C4.70636 3.24383 5.28204 2.64416 6.00576 2.32737C6.56325 2.08334 7.27134 2.08334 8.6875 2.08334M19.832 17.0319V18.2088C19.832 19.684 19.832 20.4216 19.5978 21.0023C19.2936 21.7562 18.718 22.3559 17.9942 22.6726C17.4367 22.9167 16.7287 22.9167 15.3125 22.9167M13 17.1875C13 20.3516 10.5376 22.9167 7.5 22.9167C4.46243 22.9167 2 20.3516 2 17.1875C2 14.0234 4.46243 11.4583 7.5 11.4583C10.5376 11.4583 13 14.0234 13 17.1875Z" stroke="black" stroke-width="2" stroke-linecap="round" stroke-linejoin="round"/>
</svg>
