<svg width="24" height="25" viewBox="0 0 24 25" fill="none" xmlns="http://www.w3.org/2000/svg">
<path d="M10 2.08331H14.8506C15.5281 2.08331 15.8669 2.08331 16.3926 2.23555C16.7144 2.32875 17.4171 2.68404 17.6865 2.8898C18.1265 3.22589 18.2167 3.34521 18.3971 3.58385C19.9847 5.68441 21 8.89811 21 12.5C21 16.1018 19.9847 19.3156 18.3971 21.4161C18.2167 21.6547 18.1265 21.7741 17.6865 22.1102C17.4171 22.3159 16.7144 22.6712 16.3926 22.7644C15.8669 22.9166 15.5281 22.9166 14.8506 22.9166H10M16 12.5C16 18.2529 13.0899 22.9166 9.5 22.9166C5.91015 22.9166 3 18.2529 3 12.5C3 6.74701 5.91015 2.08331 9.5 2.08331C13.0899 2.08331 16 6.74701 16 12.5Z" stroke="black" stroke-width="2" stroke-linecap="round" stroke-linejoin="round"/>
</svg>
