<svg width="24" height="25" viewBox="0 0 24 25" fill="none" xmlns="http://www.w3.org/2000/svg">
<path opacity="0.4" d="M21.9996 5.97513C21.9996 8.12452 20.3269 9.86695 18.2635 9.86695C16.2001 9.86695 14.5273 8.12452 14.5273 5.97513C14.5273 3.82574 16.2001 2.08331 18.2635 2.08331C20.3269 2.08331 21.9996 3.82574 21.9996 5.97513Z" stroke="black" stroke-width="2" stroke-linecap="round" stroke-linejoin="round"/>
<path d="M6 14.4803L9.57986 13.0539C9.99952 12.8867 10.2093 12.8031 10.426 12.7532C10.6183 12.7089 10.8144 12.6844 11.0114 12.6801C11.2332 12.6753 11.4561 12.7049 11.9018 12.7641L16.2865 13.3465C17.1341 13.459 17.7725 14.2049 17.7829 15.0949C17.7946 16.089 17.0242 16.9014 16.0698 16.9014H14.2755M6 20.2156H7.19099C7.62422 20.2156 7.84084 20.2156 8.05278 20.2473C8.241 20.2754 8.42623 20.3221 8.60596 20.3868C8.80835 20.4596 9.00099 20.5628 9.38625 20.7691L10.2416 21.2273C10.7632 21.5068 11.024 21.6465 11.2996 21.7304C11.5442 21.8048 11.7969 21.8464 12.0516 21.8543C12.3386 21.8632 12.6281 21.8141 13.2071 21.7161L16.6459 21.1337C17.0631 21.0631 17.2718 21.0277 17.4715 20.9633C17.6488 20.9061 17.8207 20.8319 17.9848 20.7416C18.1697 20.6399 18.3411 20.5111 18.684 20.2535L21.2616 18.3165C21.7253 17.968 22 17.4087 22 16.813C22 15.3729 20.4925 14.4828 19.3063 15.2224L17.1923 16.5406M4 21.875C3.53501 21.875 3.30252 21.875 3.11177 21.8218C2.59413 21.6773 2.18981 21.2561 2.05111 20.7169C2 20.5182 2 20.276 2 19.7917V14.5833C2 14.099 2 13.8568 2.05111 13.6581C2.18981 13.1189 2.59413 12.6977 3.11177 12.5532C3.30252 12.5 3.53501 12.5 4 12.5C4.46499 12.5 4.69748 12.5 4.88823 12.5532C5.40587 12.6977 5.81019 13.1189 5.94889 13.6581C6 13.8568 6 14.099 6 14.5833V19.7917C6 20.276 6 20.5182 5.94889 20.7169C5.81019 21.2561 5.40587 21.6773 4.88823 21.8218C4.69748 21.875 4.46499 21.875 4 21.875Z" stroke="black" stroke-width="2" stroke-linecap="round" stroke-linejoin="round"/>
</svg>
