<svg width="24" height="25" viewBox="0 0 24 25" fill="none" xmlns="http://www.w3.org/2000/svg">
<path opacity="0.4" d="M2 10.4167H22M19.1855 21.8982V15.6827M19.1855 15.6827V15.6482M19.1855 15.6827C19.2061 15.6827 19.2267 15.6908 19.2424 15.7071L22 18.5648M19.1855 15.6827C19.165 15.6827 19.1444 15.6908 19.1287 15.7071L16.3711 18.5648" stroke="black" stroke-width="2" stroke-linecap="round"/>
<path d="M12.7355 19.7916H6.8C5.11984 19.7916 4.27976 19.7916 3.63803 19.451C3.07354 19.1514 2.6146 18.6734 2.32698 18.0854C2 17.4169 2 16.5418 2 14.7916V10.2083C2 8.45815 2 7.58307 2.32698 6.91459C2.6146 6.32659 3.07354 5.84852 3.63803 5.54892C4.27976 5.20831 5.11984 5.20831 6.8 5.20831H17.2C18.8802 5.20831 19.7202 5.20831 20.362 5.54892C20.9265 5.84852 21.3854 6.32659 21.673 6.91459C22 7.58307 22 8.45815 22 10.2083V12.4163" stroke="black" stroke-width="2" stroke-linecap="round"/>
</svg>
