<svg width="24" height="25" viewBox="0 0 24 25" fill="none" xmlns="http://www.w3.org/2000/svg">
<path opacity="0.4" d="M2 10.4167H22M16.0585 16.669C16.2347 16.1473 16.5824 15.7073 17.0402 15.4271C17.498 15.1468 18.0362 15.0444 18.5595 15.1379C19.0828 15.2314 19.5575 15.5148 19.8994 15.9379C20.2413 16.3611 20.4285 16.8966 20.4277 17.4497C20.4277 19.2709 18.1794 19.7917 18.1794 19.7917M18.2085 22.9167H18.2185" stroke="black" stroke-width="2" stroke-linecap="round" stroke-linejoin="round"/>
<path d="M12.6504 19.7916H6.8C5.11984 19.7916 4.27976 19.7916 3.63803 19.451C3.07354 19.1514 2.6146 18.6734 2.32698 18.0854C2 17.4169 2 16.5418 2 14.7916V10.2083C2 8.45815 2 7.58307 2.32698 6.91459C2.6146 6.32659 3.07354 5.84852 3.63803 5.54892C4.27976 5.20831 5.11984 5.20831 6.8 5.20831H17.2C18.8802 5.20831 19.7202 5.20831 20.362 5.54892C20.9265 5.84852 21.3854 6.32659 21.673 6.91459C22 7.58307 22 8.45815 22 10.2083V12.4163" stroke="black" stroke-width="2" stroke-linecap="round" stroke-linejoin="round"/>
</svg>
