<svg width="24" height="25" viewBox="0 0 24 25" fill="none" xmlns="http://www.w3.org/2000/svg">
<path opacity="0.4" d="M2 10.4167H22M18.6923 15.7271L17.57 16.0924C17.1458 16.2305 16.9337 16.2995 16.7766 16.4327C16.6379 16.5504 16.5303 16.7028 16.4639 16.8758C16.3887 17.0717 16.3887 17.3032 16.3887 17.7662V18.087C16.3887 18.944 16.3887 19.3725 16.4777 19.7761C16.5682 20.1867 16.7262 20.578 16.9448 20.9325C17.1596 21.281 17.4537 21.5805 18.0419 22.1797C18.4317 22.5767 18.6266 22.7752 18.8482 22.8556C19.0724 22.9371 19.3165 22.9371 19.5408 22.8556C19.7624 22.7752 19.9572 22.5767 20.347 22.1797C20.9352 21.5805 21.2293 21.281 21.4442 20.9325C21.6627 20.578 21.8208 20.1867 21.9113 19.7761C22.0003 19.3725 22.0003 18.944 22.0003 18.087V17.7662C22.0003 17.3032 22.0003 17.0717 21.9251 16.8758C21.8587 16.7028 21.7511 16.5504 21.6124 16.4327C21.4553 16.2995 21.2432 16.2305 20.8189 16.0924L19.6966 15.7271C19.5101 15.6663 19.4168 15.636 19.3216 15.6239C19.2372 15.6132 19.1518 15.6132 19.0673 15.6239C18.9721 15.636 18.8789 15.6663 18.6923 15.7271Z" stroke="black" stroke-width="2" stroke-linecap="round" stroke-linejoin="round"/>
<path d="M12.6504 19.7916H6.8C5.11984 19.7916 4.27976 19.7916 3.63803 19.451C3.07354 19.1514 2.6146 18.6734 2.32698 18.0854C2 17.4169 2 16.5418 2 14.7916V10.2083C2 8.45815 2 7.58307 2.32698 6.91459C2.6146 6.32659 3.07354 5.84852 3.63803 5.54892C4.27976 5.20831 5.11984 5.20831 6.8 5.20831H17.2C18.8802 5.20831 19.7202 5.20831 20.362 5.54892C20.9265 5.84852 21.3854 6.32659 21.673 6.91459C22 7.58307 22 8.45815 22 10.2083V12.4163" stroke="black" stroke-width="2" stroke-linecap="round" stroke-linejoin="round"/>
</svg>
