<svg width="24" height="25" viewBox="0 0 24 25" fill="none" xmlns="http://www.w3.org/2000/svg">
<path opacity="0.4" d="M2 10.4167H22M20.1615 19.3057L22 21.221M21 17.0543C21 18.7802 19.6569 20.1793 18 20.1793C16.3431 20.1793 15 18.7802 15 17.0543C15 15.3284 16.3431 13.9293 18 13.9293C19.6569 13.9293 21 15.3284 21 17.0543Z" stroke="black" stroke-width="2" stroke-linecap="round"/>
<path d="M11.5995 19.7917H6.8C5.11984 19.7917 4.27976 19.7917 3.63803 19.4511C3.07354 19.1515 2.6146 18.6734 2.32698 18.0854C2 17.4169 2 16.5418 2 14.7917V10.2083C2 8.45818 2 7.5831 2.32698 6.91462C2.6146 6.32662 3.07354 5.84855 3.63803 5.54895C4.27976 5.20834 5.11984 5.20834 6.8 5.20834H17.2C18.8802 5.20834 19.7202 5.20834 20.362 5.54895C20.9265 5.84855 21.3854 6.32662 21.673 6.91462C22 7.5831 22 8.45818 22 10.2083V11.3801" stroke="black" stroke-width="2" stroke-linecap="round"/>
</svg>
