<svg width="24" height="25" viewBox="0 0 24 25" fill="none" xmlns="http://www.w3.org/2000/svg">
<path opacity="0.4" d="M2 10.4167H22M20.3996 17.9167V16.25C20.3996 15.3295 19.6833 14.5834 18.7996 14.5834C17.916 14.5834 17.1996 15.3295 17.1996 16.25V17.9167M17.1356 22.9167H20.4636C21.0013 22.9167 21.2701 22.9167 21.4754 22.8077C21.6561 22.7118 21.8029 22.5588 21.895 22.3707C21.9996 22.1568 21.9996 21.8767 21.9996 21.3167V19.5167C21.9996 18.9566 21.9996 18.6766 21.895 18.4627C21.8029 18.2745 21.6561 18.1216 21.4754 18.0257C21.2701 17.9167 21.0013 17.9167 20.4636 17.9167H17.1356C16.598 17.9167 16.3291 17.9167 16.1238 18.0257C15.9431 18.1216 15.7963 18.2745 15.7042 18.4627C15.5996 18.6766 15.5996 18.9566 15.5996 19.5167V21.3167C15.5996 21.8767 15.5996 22.1568 15.7042 22.3707C15.7963 22.5588 15.9431 22.7118 16.1238 22.8077C16.3291 22.9167 16.598 22.9167 17.1356 22.9167Z" stroke="black" stroke-width="2" stroke-linecap="round"/>
<path d="M11.6343 19.7916H6.8C5.11984 19.7916 4.27976 19.7916 3.63803 19.451C3.07354 19.1514 2.6146 18.6734 2.32698 18.0854C2 17.4169 2 16.5418 2 14.7916V10.2083C2 8.45815 2 7.58307 2.32698 6.91459C2.6146 6.32659 3.07354 5.84852 3.63803 5.54892C4.27976 5.20831 5.11984 5.20831 6.8 5.20831H17.2C18.8802 5.20831 19.7202 5.20831 20.362 5.54892C20.9265 5.84852 21.3854 6.32659 21.673 6.91459C22 7.58307 22 8.45815 22 10.2083V11.5713" stroke="black" stroke-width="2" stroke-linecap="round"/>
</svg>
