<svg width="24" height="25" viewBox="0 0 24 25" fill="none" xmlns="http://www.w3.org/2000/svg">
<path opacity="0.4" d="M2 10.4167H22M20.5177 19.0201L17.8495 21.7994C17.6585 21.9984 17.563 22.0979 17.4542 22.1769C17.3577 22.2471 17.2535 22.3051 17.1439 22.3499C17.0204 22.4004 16.888 22.4279 16.6231 22.4831L14.9768 22.8261C14.5834 22.9081 14.3867 22.949 14.2464 22.8886C14.1237 22.8357 14.0262 22.7342 13.9755 22.6064C13.9174 22.4603 13.9568 22.2554 14.0355 21.8455L14.3647 20.1306C14.4177 19.8548 14.4442 19.7168 14.4926 19.5882C14.5356 19.474 14.5914 19.3655 14.6587 19.2649C14.7346 19.1516 14.8301 19.0521 15.0211 18.8532L17.6892 16.0738L18.3963 15.3373C18.7251 14.9948 18.8895 14.8235 19.0605 14.7207C19.5246 14.4416 20.0964 14.4416 20.5605 14.7207C20.7316 14.8235 20.896 14.9948 21.2248 15.3373C21.5536 15.6798 21.718 15.851 21.8167 16.0292C22.0846 16.5126 22.0846 17.1082 21.8167 17.5917C21.718 17.7698 21.5536 17.941 21.2248 18.2835L20.5177 19.0201ZM17.6892 16.0738L20.5177 19.0201" stroke="black" stroke-width="2" stroke-linecap="round"/>
<path d="M10.4094 19.7917H6.8C5.11984 19.7917 4.27976 19.7917 3.63803 19.4511C3.07354 19.1515 2.6146 18.6734 2.32698 18.0854C2 17.4169 2 16.5418 2 14.7917V10.2083C2 8.45818 2 7.5831 2.32698 6.91462C2.6146 6.32662 3.07354 5.84855 3.63803 5.54895C4.27976 5.20834 5.11984 5.20834 6.8 5.20834H17.2C18.8802 5.20834 19.7202 5.20834 20.362 5.54895C20.9265 5.84855 21.3854 6.32662 21.673 6.91462C22 7.5831 22 8.45818 22 10.2083V10.3587" stroke="black" stroke-width="2" stroke-linecap="round"/>
</svg>
