<svg width="24" height="25" viewBox="0 0 24 25" fill="none" xmlns="http://www.w3.org/2000/svg">
<path opacity="0.4" d="M2 10.4167H22" stroke="black" stroke-width="2" stroke-linecap="round" stroke-linejoin="round"/>
<path d="M2 10.2083C2 8.45815 2 7.58307 2.32698 6.91459C2.6146 6.32659 3.07354 5.84852 3.63803 5.54892C4.27976 5.20831 5.11984 5.20831 6.8 5.20831H17.2C18.8802 5.20831 19.7202 5.20831 20.362 5.54892C20.9265 5.84852 21.3854 6.32659 21.673 6.91459C22 7.58307 22 8.45815 22 10.2083V14.7916C22 16.5418 22 17.4169 21.673 18.0854C21.3854 18.6734 20.9265 19.1514 20.362 19.451C19.7202 19.7916 18.8802 19.7916 17.2 19.7916H6.8C5.11984 19.7916 4.27976 19.7916 3.63803 19.451C3.07354 19.1514 2.6146 18.6734 2.32698 18.0854C2 17.4169 2 16.5418 2 14.7916V10.2083Z" stroke="black" stroke-width="2" stroke-linecap="round" stroke-linejoin="round"/>
</svg>
