<svg width="24" height="25" viewBox="0 0 24 25" fill="none" xmlns="http://www.w3.org/2000/svg">
<path d="M16.8584 5.72057L16.6555 5.41437C15.8515 4.20088 14.5089 3.49827 13.0944 3.55072C10.1616 3.65945 8.26181 6.81954 9.4484 9.61541L9.52923 9.80586C9.85266 10.5679 10.0366 11.3862 10.0717 12.2186L10.1363 13.7545C10.1916 15.0685 10.2193 15.7254 10.0704 16.3271C9.92964 16.8959 9.67504 17.4273 9.32327 17.8864C8.95115 18.372 8.43052 18.7439 7.38928 19.4877L6.23816 20.31C5.85277 20.5853 5.66007 20.7229 5.6353 20.8455C5.6139 20.9513 5.64659 21.0612 5.72172 21.1359C5.80867 21.2224 6.04232 21.2224 6.50962 21.2224H18.0377M5.50977 13.5397H13.2339" stroke="black" stroke-width="2" stroke-linecap="round" stroke-linejoin="round"/>
</svg>
