<svg width="24" height="25" viewBox="0 0 24 25" fill="none" xmlns="http://www.w3.org/2000/svg">
<path opacity="0.4" d="M12 7.29169V22.9167" stroke="black" stroke-width="2" stroke-linecap="round" stroke-linejoin="round"/>
<path d="M12 7.29165H15.5C16.8807 7.29165 18 6.12572 18 4.68748C18 3.24924 16.8807 2.08331 15.5 2.08331H15.4286C13.535 2.08331 12 3.6823 12 5.65474M12 7.29165V5.65474M12 7.29165H8.5C7.11929 7.29165 6 6.12572 6 4.68748C6 3.24924 7.11929 2.08331 8.5 2.08331H8.57143C10.465 2.08331 12 3.6823 12 5.65474M4 12.5H20V17.9166C20 19.6668 20 20.5419 19.673 21.2104C19.3854 21.7984 18.9265 22.2764 18.362 22.576C17.7202 22.9166 16.8802 22.9166 15.2 22.9166H8.8C7.11984 22.9166 6.27976 22.9166 5.63803 22.576C5.07354 22.2764 4.6146 21.7984 4.32698 21.2104C4 20.5419 4 19.6668 4 17.9166V12.5ZM4.4 12.5H19.6C20.4401 12.5 20.8601 12.5 21.181 12.3297C21.4632 12.1799 21.6927 11.9408 21.8365 11.6468C22 11.3126 22 10.8751 22 9.99998V9.79165C22 8.91656 22 8.47902 21.8365 8.14479C21.6927 7.85078 21.4632 7.61175 21.181 7.46195C20.8601 7.29165 20.4401 7.29165 19.6 7.29165H4.4C3.55992 7.29165 3.13988 7.29165 2.81901 7.46195C2.53677 7.61175 2.3073 7.85078 2.16349 8.14479C2 8.47902 2 8.91656 2 9.79165V9.99998C2 10.8751 2 11.3126 2.16349 11.6468C2.3073 11.9408 2.53677 12.1799 2.81901 12.3297C3.13988 12.5 3.55992 12.5 4.4 12.5Z" stroke="black" stroke-width="2" stroke-linecap="round" stroke-linejoin="round"/>
</svg>
