<svg width="24" height="25" viewBox="0 0 24 25" fill="none" xmlns="http://www.w3.org/2000/svg">
<path opacity="0.4" d="M12 7.29169V22.9167M21 15.1042H3" stroke="black" stroke-width="2" stroke-linecap="round" stroke-linejoin="round"/>
<path d="M12 7.29165H15.5C16.8807 7.29165 18 6.12572 18 4.68748C18 3.24924 16.8807 2.08331 15.5 2.08331H15.4286C13.535 2.08331 12 3.6823 12 5.65474M12 7.29165V5.65474M12 7.29165H8.5C7.11929 7.29165 6 6.12572 6 4.68748C6 3.24924 7.11929 2.08331 8.5 2.08331H8.57143C10.465 2.08331 12 3.6823 12 5.65474M7.8 22.9166H16.2C17.8802 22.9166 18.7202 22.9166 19.362 22.576C19.9265 22.2764 20.3854 21.7984 20.673 21.2104C21 20.5419 21 19.6668 21 17.9166V12.2916C21 10.5415 21 9.6664 20.673 8.99793C20.3854 8.40992 19.9265 7.93186 19.362 7.63225C18.7202 7.29165 17.8802 7.29165 16.2 7.29165H7.8C6.11984 7.29165 5.27976 7.29165 4.63803 7.63225C4.07354 7.93186 3.6146 8.40992 3.32698 8.99793C3 9.6664 3 10.5415 3 12.2916V17.9166C3 19.6668 3 20.5419 3.32698 21.2104C3.6146 21.7984 4.07354 22.2764 4.63803 22.576C5.27976 22.9166 6.11984 22.9166 7.8 22.9166Z" stroke="black" stroke-width="2" stroke-linecap="round" stroke-linejoin="round"/>
</svg>
