<svg width="24" height="25" viewBox="0 0 24 25" fill="none" xmlns="http://www.w3.org/2000/svg">
<path opacity="0.4" d="M8.99609 3.82179L10.4461 2.98266C11.0133 2.65442 11.2969 2.4903 11.5972 2.42595C11.8631 2.369 12.1372 2.369 12.4031 2.42595C12.7034 2.4903 12.987 2.65442 13.5542 2.98266L19.3542 6.33915C19.9533 6.68582 20.2528 6.85915 20.4709 7.10569C20.6638 7.32379 20.8099 7.5823 20.8992 7.86391C21.0002 8.18224 21.0002 8.53916 21.0002 9.253V15.747C21.0002 15.9765 21.0002 16.1691 20.9968 16.3354M20.5002 7.81249L15.7189 10.4492M16.5002 9.89583L12.0002 7.29166" stroke="black" stroke-width="2" stroke-linecap="round" stroke-linejoin="round"/>
<path d="M5.58002 5.79861L4.64594 6.33916C4.0469 6.68583 3.74737 6.85917 3.52927 7.10571C3.33632 7.32381 3.19029 7.58231 3.10097 7.86393C3 8.18226 3 8.53918 3 9.25302V15.747C3 16.4608 3 16.8178 3.10097 17.1361C3.19029 17.4177 3.33632 17.6762 3.52927 17.8943C3.74737 18.1409 4.0469 18.3142 4.64594 18.6609L10.4459 22.0173C11.0132 22.3456 11.2968 22.5097 11.5971 22.5741C11.8629 22.631 12.1371 22.631 12.4029 22.5741C12.7032 22.5097 12.9868 22.3456 13.5541 22.0173L18.4909 19.1604M12 21.875L12 12.5L3.5 7.81251M2.25 2.08334L22.25 22.9167" stroke="black" stroke-width="2" stroke-linecap="round" stroke-linejoin="round"/>
</svg>
