<svg width="24" height="25" viewBox="0 0 24 25" fill="none" xmlns="http://www.w3.org/2000/svg">
<path opacity="0.4" d="M16.5 9.89583L7.5 4.6875M22 19.4965H15.3261M15.3261 19.4965H15.2891M15.3261 19.4965C15.3261 19.5215 15.3349 19.5466 15.3523 19.5656L18.4208 22.9167M15.3261 19.4965C15.3261 19.4715 15.3349 19.4465 15.3523 19.4274L18.4208 16.0764" stroke="black" stroke-width="2" stroke-linecap="round"/>
<path d="M12 12.5L12 22.1942C12 22.4275 11.8166 22.621 11.5971 22.574C11.2968 22.5097 11.0132 22.3456 10.4459 22.0173L4.64594 18.6608C4.0469 18.3142 3.74737 18.1408 3.52927 17.8943C3.33632 17.6762 3.19029 17.4177 3.10097 17.1361C3 16.8177 3 16.4608 3 15.747V9.253C3 8.53916 3 8.18224 3.10097 7.86391C3.14407 7.72802 3.20038 7.59752 3.26878 7.47433C3.34214 7.34223 3.42942 7.21855 3.52927 7.10569C3.74737 6.85915 4.04689 6.68582 4.64594 6.33915L10.4459 2.98266C11.0132 2.65442 11.2968 2.4903 11.5971 2.42595C11.8629 2.369 12.1371 2.369 12.4029 2.42595C12.7032 2.4903 12.9868 2.65442 13.5541 2.98266L19.3541 6.33914C19.9531 6.68582 20.2526 6.85915 20.4707 7.10569C20.5637 7.21078 20.6458 7.32525 20.7159 7.44717M20.7159 7.44717C20.7912 7.57827 20.8527 7.71799 20.899 7.86391C21 8.18224 21 8.53916 21 9.253V13.0765M20.7159 7.44717L12 12.5M3.26878 7.47433L12 12.5" stroke="black" stroke-width="2" stroke-linecap="round"/>
</svg>
