<svg width="24" height="25" viewBox="0 0 24 25" fill="none" xmlns="http://www.w3.org/2000/svg">
<path opacity="0.4" d="M16.5 9.89583L7.5 4.6875" stroke="black" stroke-width="2" stroke-linecap="round"/>
<path d="M12 12.5L12 21.875M12 12.5L3.5 7.81249M12 12.5L20.5 7.81249M13.5541 22.0173L19.3541 18.6608C19.9531 18.3142 20.2526 18.1408 20.4707 17.8943C20.6637 17.6762 20.8097 17.4177 20.899 17.1361C21 16.8177 21 16.4608 21 15.747V9.253C21 8.53916 21 8.18224 20.899 7.86391C20.8097 7.5823 20.6637 7.32379 20.4707 7.10569C20.2526 6.85915 19.9531 6.68582 19.3541 6.33914L13.5541 2.98266C12.9868 2.65442 12.7032 2.4903 12.4029 2.42595C12.1371 2.369 11.8629 2.369 11.5971 2.42595C11.2968 2.4903 11.0132 2.65442 10.4459 2.98266L4.64594 6.33915C4.04689 6.68582 3.74737 6.85915 3.52927 7.10569C3.33632 7.32379 3.19029 7.5823 3.10097 7.86391C3 8.18224 3 8.53916 3 9.253V15.747C3 16.4608 3 16.8177 3.10097 17.1361C3.19029 17.4177 3.33632 17.6762 3.52927 17.8943C3.74737 18.1408 4.0469 18.3142 4.64594 18.6608L10.4459 22.0173C11.0132 22.3456 11.2968 22.5097 11.5971 22.574C11.8629 22.631 12.1371 22.631 12.4029 22.574C12.7032 22.5097 12.9868 22.3456 13.5541 22.0173Z" stroke="black" stroke-width="2" stroke-linecap="round"/>
</svg>
