<svg width="24" height="25" viewBox="0 0 24 25" fill="none" xmlns="http://www.w3.org/2000/svg">
<path opacity="0.4" d="M14 6.77083C14 4.7573 12.433 3.125 10.5 3.125C8.567 3.125 7 4.7573 7 6.77083C7 7.2218 7.0786 7.65365 7.22232 8.05231M5 14.5833H4.12026C2.94927 14.5833 2 13.5945 2 12.3747C2 11.9151 2.13768 11.4669 2.39386 11.0926L2.5 10.9375" stroke="black" stroke-width="2" stroke-linecap="round" stroke-linejoin="round"/>
<path d="M14.9289 6.84042H11.2222C7.78578 6.84042 5 9.55228 5 12.8975V13.6006C5 15.8522 5.57981 17.7792 6.96018 18.5704C7.73581 19.015 8.12363 19.2373 8.23344 19.3607C8.37699 19.522 8.38264 19.532 8.44913 19.7408C8.5 19.9005 8.5 20.1408 8.5 20.6213V21.875H12V18.9547H15V21.875H18.5V20.0388C18.5 19.8017 18.5 19.6832 18.5229 19.5737C18.5602 19.3951 18.5383 19.4563 18.6224 19.2959C18.674 19.1976 18.967 18.8454 19.5532 18.141C19.9656 17.6454 19.9933 16.9878 20.2369 16.3561C20.332 16.1092 20.5629 15.9261 20.8338 15.9261C21.4779 15.9261 22 15.4178 22 14.7908V12.2238C22 11.6401 21.5139 11.1669 20.9143 11.1669C20.6145 11.1669 20.3774 10.9287 20.331 10.6404C20.1576 9.56433 19.4601 9.03454 18.8947 8.70962C18.4976 8.48144 18.2571 8.08813 18.2571 7.63925C18.2571 6.59172 17.1102 5.92209 16.1609 6.41535L15.7081 6.65065C15.4683 6.77524 15.2007 6.84042 14.9289 6.84042Z" stroke="black" stroke-width="2" stroke-linecap="round" stroke-linejoin="round"/>
</svg>
