<svg width="24" height="25" viewBox="0 0 24 25" fill="none" xmlns="http://www.w3.org/2000/svg">
<path opacity="0.4" d="M4 8.125C4 6.37484 4 5.49975 4.32698 4.83128C4.6146 4.24327 5.07354 3.76521 5.63803 3.4656C6.27976 3.125 7.11984 3.125 8.8 3.125H15.2C16.8802 3.125 17.7202 3.125 18.362 3.4656C18.9265 3.76521 19.3854 4.24327 19.673 4.83128C20 5.49975 20 6.37484 20 8.125V20.5535C20 21.9798 18.1322 22.3933 17.5531 21.1007C17.1157 20.1242 15.7966 20.0688 15.2942 21.0108L15.195 21.197C14.7163 22.0943 13.4522 22.0109 13.0862 21.0577C12.694 20.0364 11.306 20.0364 10.9138 21.0577C10.5478 22.0109 9.28365 22.0943 8.80504 21.197L8.70577 21.0108C8.20337 20.0688 6.88435 20.1242 6.44687 21.1007C5.86781 22.3933 4 21.9798 4 20.5535L4 8.125Z" stroke="black" stroke-width="2" stroke-linecap="round"/>
<path d="M9.08008 11.874L10.814 13.868C11.0196 14.1044 11.353 14.1044 11.5586 13.868L15.3987 9.45184" stroke="black" stroke-width="2" stroke-linecap="round"/>
</svg>
