<svg width="24" height="25" viewBox="0 0 24 25" fill="none" xmlns="http://www.w3.org/2000/svg">
<g clip-path="url(#clip0_2012_12509)">
<path d="M4 7.925C4 6.24484 4 5.40476 4.32698 4.76303C4.6146 4.19854 5.07354 3.7396 5.63803 3.45198C6.27976 3.125 7.11984 3.125 8.8 3.125H15.2C16.8802 3.125 17.7202 3.125 18.362 3.45198C18.9265 3.7396 19.3854 4.19854 19.673 4.76303C20 5.40476 20 6.24484 20 7.925V20.6023C20 21.9763 18.1141 22.3529 17.5524 21.099C17.1255 20.1463 15.7854 20.0899 15.2941 21.0111L15.1994 21.1886C14.7301 22.0685 13.4438 21.9891 13.0863 21.0581C12.7041 20.0628 11.2959 20.0628 10.9137 21.0581C10.5562 21.9891 9.26987 22.0685 8.80059 21.1886L8.70591 21.0111C8.21463 20.0899 6.87447 20.1463 6.44765 21.099C5.88589 22.3529 4 21.9763 4 20.6023L4 7.925Z" stroke="black" stroke-width="2" stroke-linecap="round" stroke-linejoin="round"/>
</g>
<defs>
<clipPath id="clip0_2012_12509">
<rect width="24" height="25" fill="white"/>
</clipPath>
</defs>
</svg>
