<svg width="24" height="25" viewBox="0 0 24 25" fill="none" xmlns="http://www.w3.org/2000/svg">
<path opacity="0.4" d="M4 8.125C4 6.37484 4 5.49975 4.32698 4.83128C4.6146 4.24327 5.07354 3.76521 5.63803 3.4656C6.27976 3.125 7.11984 3.125 8.8 3.125H15.2C16.8802 3.125 17.7202 3.125 18.362 3.4656C18.9265 3.76521 19.3854 4.24327 19.673 4.83128C20 5.49975 20 6.37484 20 8.125V20.5535C20 21.9798 18.1322 22.3933 17.5531 21.1007C17.1157 20.1242 15.7966 20.0688 15.2942 21.0108L15.195 21.197C14.7163 22.0943 13.4522 22.0109 13.0862 21.0577C12.694 20.0364 11.306 20.0364 10.9138 21.0577C10.5478 22.0109 9.28365 22.0943 8.80504 21.197L8.70577 21.0108C8.20337 20.0688 6.88435 20.1242 6.44687 21.1007C5.86781 22.3933 4 21.9798 4 20.5535L4 8.125Z" stroke="black" stroke-width="2" stroke-linecap="round" stroke-linejoin="round"/>
<path d="M12.0003 12.0309H11.039C10.0067 12.0309 9.16992 11.1593 9.16992 10.084C9.16992 9.00875 10.0067 8.13707 11.039 8.13707H12.0003M12.0003 12.0309H12.9616C13.9939 12.0309 14.8307 12.9026 14.8307 13.9779C14.8307 15.0532 13.9939 15.9248 12.9616 15.9248H12.0003M12.0003 12.0309V8.13707M12.0003 12.0309V15.9248M12.0003 8.13707V6.83911M12.0003 8.13707H13.5609C13.8819 8.13707 14.1987 8.21291 14.4875 8.35887M12.0003 15.9248V17.2228M12.0003 15.9248H10.5783C10.4684 15.9248 10.4134 15.9248 10.3588 15.9228C10.1294 15.914 9.90172 15.8779 9.68025 15.8151C9.62749 15.8002 9.57503 15.7832 9.4701 15.7491" stroke="black" stroke-width="2" stroke-linecap="round" stroke-linejoin="round"/>
</svg>
