<svg width="24" height="25" viewBox="0 0 24 25" fill="none" xmlns="http://www.w3.org/2000/svg">
<path opacity="0.4" d="M16.5098 7.76648V14.1085M12 10.9375C12 12.3758 10.8807 13.5417 9.5 13.5417C8.11929 13.5417 7 12.3758 7 10.9375C7 9.49927 8.11929 8.33334 9.5 8.33334C10.8807 8.33334 12 9.49927 12 10.9375Z" stroke="black" stroke-width="2" stroke-linecap="round" stroke-linejoin="round"/>
<path d="M3 8.125C3 6.37484 3 5.49975 3.32698 4.83128C3.6146 4.24327 4.07354 3.76521 4.63803 3.4656C5.27976 3.125 6.11984 3.125 7.8 3.125H16.2C17.8802 3.125 18.7202 3.125 19.362 3.4656C19.9265 3.76521 20.3854 4.24327 20.673 4.83128C21 5.49975 21 6.37484 21 8.125V13.75C21 15.5002 21 16.3752 20.673 17.0437C20.3854 17.6317 19.9265 18.1098 19.362 18.4094C18.7202 18.75 17.8802 18.75 16.2 18.75H7.8C6.11984 18.75 5.27976 18.75 4.63803 18.4094C4.07354 18.1098 3.6146 17.6317 3.32698 17.0437C3 16.3752 3 15.5002 3 13.75V8.125Z" stroke="black" stroke-width="2" stroke-linecap="round" stroke-linejoin="round"/>
<path d="M5 18.75H19V20.2083C19 20.7917 19 21.0834 18.891 21.3062C18.7951 21.5022 18.6422 21.6616 18.454 21.7615C18.2401 21.875 17.9601 21.875 17.4 21.875H6.6C6.03995 21.875 5.75992 21.875 5.54601 21.7615C5.35785 21.6616 5.20487 21.5022 5.10899 21.3062C5 21.0834 5 20.7917 5 20.2083V18.75Z" stroke="black" stroke-width="2" stroke-linecap="round" stroke-linejoin="round"/>
</svg>
