<svg width="24" height="25" viewBox="0 0 24 25" fill="none" xmlns="http://www.w3.org/2000/svg">
<path opacity="0.4" d="M10.2843 3.25515C10.8846 2.61823 11.1847 2.29977 11.531 2.18111C11.8355 2.07676 12.1641 2.07676 12.4686 2.18111C12.8148 2.29977 13.115 2.61823 13.7152 3.25515C14.0369 3.59651 14.1978 3.76719 14.3882 3.87718C14.5568 3.97456 14.7418 4.03719 14.9332 4.06162C15.1493 4.08922 15.3757 4.04962 15.8286 3.97044C16.6736 3.82269 17.0961 3.74882 17.4432 3.86482C17.7484 3.96683 18.0143 4.16801 18.2017 4.43887C18.4149 4.74687 18.478 5.18828 18.6042 6.07109C18.6719 6.54423 18.7057 6.78081 18.7977 6.98636C18.8791 7.16837 18.9935 7.33233 19.1345 7.46925C19.2938 7.62388 19.4993 7.7305 19.9104 7.94374C20.6774 8.3416 21.0609 8.54053 21.2762 8.84689C21.4656 9.1163 21.5671 9.44181 21.566 9.77572C21.5646 10.1554 21.3666 10.5512 20.9706 11.3427C20.7583 11.7669 20.6522 11.979 20.6106 12.2016C20.5738 12.3987 20.5738 12.6014 20.6106 12.7985C20.6522 13.0211 20.7583 13.2332 20.9706 13.6574C21.3666 14.4489 21.5646 14.8446 21.566 15.2243C21.5671 15.5582 21.4656 15.8837 21.2762 16.1532C21.0609 16.4595 20.6774 16.6584 19.9104 17.0563C19.4993 17.2695 19.2938 17.3762 19.1345 17.5308C18.9935 17.6677 18.8791 17.8317 18.7977 18.0137C18.7057 18.2192 18.6719 18.4558 18.6042 18.929C18.478 19.8118 18.4149 20.2532 18.2017 20.5612C18.0143 20.832 17.7484 21.0332 17.4432 21.1352C17.0961 21.2512 16.6736 21.1773 15.8286 21.0296C15.3757 20.9504 15.1493 20.9108 14.9332 20.9384C14.7418 20.9629 14.5568 21.0255 14.3882 21.1229C14.1978 21.2329 14.0369 21.4035 13.7152 21.7449C13.115 22.3818 12.8148 22.7003 12.4686 22.8189C12.1641 22.9233 11.8355 22.9233 11.531 22.8189C11.1847 22.7003 10.8846 22.3818 10.2843 21.7449C9.96262 21.4035 9.80176 21.2329 9.61136 21.1229C9.44278 21.0255 9.25775 20.9629 9.0664 20.9384C8.85031 20.9108 8.62386 20.9504 8.17097 21.0296C7.32594 21.1773 6.90342 21.2512 6.55634 21.1352C6.25112 21.0332 5.98529 20.832 5.79784 20.5612C5.58467 20.2532 5.52155 19.8118 5.39532 18.929C5.32766 18.4558 5.29383 18.2192 5.20186 18.0137C5.12043 17.8317 5.00607 17.6677 4.86506 17.5308C4.7058 17.3762 4.50026 17.2695 4.08918 17.0563C3.32217 16.6584 2.93867 16.4595 2.72333 16.1532C2.53396 15.8837 2.43242 15.5582 2.4336 15.2243C2.43495 14.8446 2.63296 14.4489 3.02898 13.6574C3.24123 13.2332 3.34735 13.0211 3.38894 12.7985C3.42576 12.6014 3.42576 12.3987 3.38894 12.2016C3.34735 11.979 3.24123 11.7669 3.02898 11.3427C2.63296 10.5512 2.43495 10.1554 2.4336 9.77572C2.43242 9.44181 2.53396 9.1163 2.72333 8.84689C2.93866 8.54053 3.32217 8.3416 4.08918 7.94374C4.50026 7.7305 4.7058 7.62388 4.86506 7.46925C5.00607 7.33233 5.12043 7.16837 5.20186 6.98636C5.29383 6.78081 5.32766 6.54423 5.39532 6.07109C5.52155 5.18828 5.58467 4.74687 5.79784 4.43887C5.98529 4.16801 6.25112 3.96683 6.55634 3.86482C6.90342 3.74882 7.32594 3.82269 8.17097 3.97044C8.62386 4.04962 8.85031 4.08922 9.0664 4.06162C9.25775 4.03719 9.44278 3.97456 9.61136 3.87718C9.80176 3.76719 9.96262 3.59651 10.2843 3.25515Z" stroke="black" stroke-width="2" stroke-linecap="round" stroke-linejoin="round"/>
<path d="M15.3553 9.0069L8.64844 15.9933M9.14844 9.52773H9.15844M14.8553 15.4724H14.8653M9.64844 9.52773C9.64844 9.81538 9.42458 10.0486 9.14844 10.0486C8.8723 10.0486 8.64844 9.81538 8.64844 9.52773C8.64844 9.24008 8.8723 9.0069 9.14844 9.0069C9.42458 9.0069 9.64844 9.24008 9.64844 9.52773ZM15.3553 15.4724C15.3553 15.7601 15.1315 15.9933 14.8553 15.9933C14.5792 15.9933 14.3553 15.7601 14.3553 15.4724C14.3553 15.1848 14.5792 14.9516 14.8553 14.9516C15.1315 14.9516 15.3553 15.1848 15.3553 15.4724Z" stroke="black" stroke-width="2" stroke-linecap="round" stroke-linejoin="round"/>
</svg>
