<svg width="24" height="25" viewBox="0 0 24 25" fill="none" xmlns="http://www.w3.org/2000/svg">
<path opacity="0.4" d="M9.40465 3.32355C10.2511 2.70931 10.6743 2.4022 11.1268 2.25861C11.6967 2.07778 12.3053 2.07778 12.8752 2.25861C13.3277 2.4022 13.7509 2.70931 14.5974 3.32355C14.8734 3.52384 15.0114 3.62398 15.1577 3.70679C15.3422 3.81114 15.5366 3.89505 15.7379 3.95712C15.8976 4.00637 16.0632 4.03721 16.3943 4.09888C17.4098 4.288 17.9175 4.38256 18.335 4.61433C18.8607 4.90622 19.2911 5.35454 19.5713 5.90216C19.7938 6.337 19.8845 6.86589 20.0661 7.92367C20.1253 8.26859 20.1549 8.44105 20.2022 8.6074C20.2618 8.81706 20.3423 9.01963 20.4425 9.21177C20.522 9.36422 20.6181 9.50797 20.8104 9.79548C21.4001 10.6772 21.6949 11.118 21.8328 11.5894C22.0064 12.183 22.0064 12.817 21.8328 13.4106C21.6949 13.882 21.4001 14.3229 20.8104 15.2046C20.6181 15.4921 20.522 15.6358 20.4425 15.7883C20.3423 15.9804 20.2618 16.183 20.2022 16.3926C20.1549 16.559 20.1253 16.7314 20.0661 17.0764C19.8845 18.1341 19.7938 18.663 19.5713 19.0979C19.2911 19.6455 18.8607 20.0938 18.335 20.3857C17.9175 20.6175 17.4098 20.712 16.3943 20.9012C16.0632 20.9628 15.8976 20.9937 15.7379 21.0429C15.5366 21.105 15.3422 21.1889 15.1577 21.2932C15.0114 21.376 14.8734 21.4762 14.5974 21.6765C13.7509 22.2907 13.3277 22.5978 12.8752 22.7414C12.3053 22.9223 11.6967 22.9223 11.1268 22.7414C10.6743 22.5978 10.2511 22.2907 9.40465 21.6765C9.12865 21.4762 8.99065 21.376 8.8443 21.2932C8.65984 21.1889 8.46538 21.105 8.2641 21.0429C8.10441 20.9937 7.93885 20.9628 7.60772 20.9012C6.59225 20.712 6.08451 20.6175 5.66707 20.3857C5.14136 20.0938 4.71097 19.6455 4.43076 19.0979C4.20826 18.663 4.11748 18.1341 3.93592 17.0764C3.87671 16.7314 3.84711 16.559 3.79983 16.3926C3.74024 16.183 3.65969 15.9804 3.55951 15.7883C3.48002 15.6358 3.38388 15.4921 3.1916 15.2046C2.60194 14.3229 2.3071 13.882 2.16926 13.4106C1.99566 12.817 1.99566 12.183 2.16926 11.5894C2.3071 11.118 2.60194 10.6772 3.1916 9.79548C3.38388 9.50797 3.48002 9.36422 3.55951 9.21177C3.65969 9.01963 3.74024 8.81706 3.79983 8.60741C3.84711 8.44106 3.87671 8.26859 3.93592 7.92367C4.11748 6.86589 4.20826 6.337 4.43076 5.90216C4.71097 5.35454 5.14136 4.90622 5.66707 4.61433C6.08451 4.38256 6.59225 4.288 7.60772 4.09888C7.93885 4.03721 8.10441 4.00637 8.26411 3.95712C8.46538 3.89505 8.65984 3.81114 8.8443 3.70679C8.99065 3.62398 9.12865 3.52384 9.40465 3.32355Z" stroke="black" stroke-width="2" stroke-linecap="round" stroke-linejoin="round"/>
<path d="M15.3553 9.0069L8.64844 15.9933M9.14844 9.52773H9.15844M14.8553 15.4724H14.8653M9.64844 9.52773C9.64844 9.81538 9.42458 10.0486 9.14844 10.0486C8.8723 10.0486 8.64844 9.81538 8.64844 9.52773C8.64844 9.24008 8.8723 9.0069 9.14844 9.0069C9.42458 9.0069 9.64844 9.24008 9.64844 9.52773ZM15.3553 15.4724C15.3553 15.7601 15.1315 15.9933 14.8553 15.9933C14.5792 15.9933 14.3553 15.7601 14.3553 15.4724C14.3553 15.1848 14.5792 14.9516 14.8553 14.9516C15.1315 14.9516 15.3553 15.1848 15.3553 15.4724Z" stroke="black" stroke-width="2" stroke-linecap="round" stroke-linejoin="round"/>
</svg>
