<svg width="24" height="25" viewBox="0 0 24 25" fill="none" xmlns="http://www.w3.org/2000/svg">
<path opacity="0.4" d="M16 9.79603V6.25001C16 3.94882 14.2091 2.08334 12 2.08334C9.79086 2.08334 8 3.94882 8 6.25001V9.79603M20.5177 19.0201L17.8495 21.7995C17.6585 21.9984 17.563 22.0979 17.4542 22.1769C17.3577 22.2471 17.2535 22.3051 17.1439 22.3499C17.0204 22.4004 16.888 22.428 16.6231 22.4831L14.9768 22.8261C14.5834 22.9081 14.3867 22.9491 14.2464 22.8886C14.1237 22.8357 14.0262 22.7342 13.9755 22.6064C13.9174 22.4603 13.9568 22.2554 14.0355 21.8455L14.3647 20.1307C14.4177 19.8548 14.4442 19.7168 14.4926 19.5882C14.5356 19.474 14.5914 19.3655 14.6587 19.2649C14.7346 19.1516 14.8301 19.0521 15.0211 18.8532L17.6892 16.0739L18.3963 15.3373C18.7251 14.9948 18.8895 14.8235 19.0605 14.7207C19.5246 14.4416 20.0964 14.4416 20.5605 14.7207C20.7316 14.8235 20.896 14.9948 21.2248 15.3373C21.5536 15.6798 21.718 15.851 21.8167 16.0292C22.0846 16.5126 22.0846 17.1082 21.8167 17.5917C21.718 17.7698 21.5536 17.9411 21.2248 18.2836L20.5177 19.0201ZM17.6892 16.0739L20.5177 19.0201" stroke="black" stroke-width="2" stroke-linecap="round"/>
<path d="M19.9319 10.4196C19.7999 9.44602 19.6811 8.87202 19.4052 8.41561C19.0958 7.90403 18.6506 7.49691 18.1236 7.2436C17.5255 6.95612 16.7791 6.95612 15.2864 6.95612H8.71477C7.22206 6.95612 6.47571 6.95612 5.87757 7.2436C5.35054 7.49691 4.90538 7.90403 4.59603 8.41561C4.24495 8.99622 4.14835 9.76714 3.95514 11.309L3.20823 17.2695C2.96382 19.22 2.84161 20.1953 3.13206 20.9519C3.38708 21.6163 3.85323 22.1693 4.45263 22.5187C5.13532 22.9167 6.0795 22.9167 7.96785 22.9167H9.9987" stroke="black" stroke-width="2" stroke-linecap="round"/>
</svg>
