<svg width="24" height="25" viewBox="0 0 24 25" fill="none" xmlns="http://www.w3.org/2000/svg">
<g opacity="0.4">
<path d="M17.3184 22.9166C17.8706 22.9166 18.3184 22.4503 18.3184 21.875C18.3184 21.2997 17.8706 20.8333 17.3184 20.8333C16.7661 20.8333 16.3184 21.2997 16.3184 21.875C16.3184 22.4503 16.7661 22.9166 17.3184 22.9166Z" stroke="black" stroke-width="2" stroke-linecap="round" stroke-linejoin="round"/>
<path d="M9.31836 22.9166C9.87064 22.9166 10.3184 22.4503 10.3184 21.875C10.3184 21.2997 9.87064 20.8333 9.31836 20.8333C8.76607 20.8333 8.31836 21.2997 8.31836 21.875C8.31836 22.4503 8.76607 22.9166 9.31836 22.9166Z" stroke="black" stroke-width="2" stroke-linecap="round" stroke-linejoin="round"/>
</g>
<path d="M4.94608 6.24998L17.5686 6.13606C18.883 6.1242 19.5401 6.11826 20.0072 6.39415C20.4169 6.63621 20.7315 7.02117 20.8955 7.48117C21.0824 8.00547 20.9718 8.68029 20.7508 10.0299L19.9472 14.9356C19.7858 15.921 19.7051 16.4137 19.4678 16.7833C19.2585 17.1091 18.9654 17.3668 18.6219 17.5268C18.2322 17.7083 17.7524 17.7083 16.7928 17.7083H9.66614C8.72124 17.7083 8.24878 17.7083 7.86301 17.531C7.52288 17.3746 7.23131 17.1226 7.02104 16.8033C6.78256 16.441 6.6954 15.9573 6.52107 14.99L4.94608 6.24998ZM4.94608 6.24998L4.27766 2.08331L2.8457 2.08331" stroke="black" stroke-width="2" stroke-linecap="round" stroke-linejoin="round"/>
</svg>
