<svg width="24" height="25" viewBox="0 0 24 25" fill="none" xmlns="http://www.w3.org/2000/svg">
<path opacity="0.4" d="M8 11.4852V12.3479C8 14.6491 9.79086 16.5146 12 16.5146C14.2091 16.5146 16 14.6491 16 12.3479V11.4852" stroke="black" stroke-width="2" stroke-linecap="round" stroke-linejoin="round"/>
<path d="M4 7.29165H20M15.7502 2.08331C16.9236 2.08331 17.5103 2.08331 18.0175 2.28044C18.4657 2.45462 18.8675 2.73793 19.1892 3.10672C19.5533 3.5241 19.7712 4.09152 20.2069 5.22636L20.6567 6.3976C20.785 6.73164 20.8491 6.89866 20.8942 7.07092C20.9343 7.22394 20.9631 7.37993 20.9805 7.53752C21 7.71491 21 7.89479 21 8.25456V17.9166C21 19.6668 21 20.5419 20.673 21.2104C20.3854 21.7984 19.9265 22.2764 19.362 22.576C18.7202 22.9166 17.8802 22.9166 16.2 22.9166H7.8C6.11984 22.9166 5.27976 22.9166 4.63803 22.576C4.07354 22.2764 3.6146 21.7984 3.32698 21.2104C3 20.5419 3 19.6668 3 17.9166V8.25456C3 7.89479 3 7.71491 3.01952 7.53752C3.03687 7.37993 3.06571 7.22394 3.10579 7.07092C3.15091 6.89866 3.21504 6.73164 3.34331 6.39761L3.79307 5.22636C4.22885 4.09152 4.44674 3.5241 4.81083 3.10672C5.13254 2.73793 5.53426 2.45462 5.98246 2.28044C6.4897 2.08331 7.07639 2.08331 8.24976 2.08331H15.7502Z" stroke="black" stroke-width="2" stroke-linecap="round" stroke-linejoin="round"/>
</svg>
