<svg width="24" height="25" viewBox="0 0 24 25" fill="none" xmlns="http://www.w3.org/2000/svg">
<path opacity="0.4" d="M10.5098 6.19983L17.5681 6.13613C18.8824 6.12426 19.5396 6.11833 20.0066 6.39422C20.4164 6.63628 20.731 7.02123 20.8949 7.48124C21.0818 8.00554 20.9713 8.68036 20.7502 10.03L19.9466 14.9357C19.9036 15.1983 19.8663 15.4259 19.8303 15.6255" stroke="black" stroke-width="2" stroke-linecap="round" stroke-linejoin="round"/>
<path d="M4.84375 5.58737L6.52401 14.9853C6.69724 15.9543 6.78386 16.4387 7.02224 16.8016C7.23243 17.1215 7.52413 17.374 7.86456 17.5307C8.25066 17.7084 8.72375 17.7084 9.66992 17.7084H16.4579M1.75 2.08331L21.75 22.9166M18.3184 21.875C18.3184 22.4503 17.8706 22.9166 17.3184 22.9166C16.7661 22.9166 16.3184 22.4503 16.3184 21.875C16.3184 21.2997 16.7661 20.8333 17.3184 20.8333C17.8706 20.8333 18.3184 21.2997 18.3184 21.875ZM10.3184 21.875C10.3184 22.4503 9.87064 22.9166 9.31836 22.9166C8.76607 22.9166 8.31836 22.4503 8.31836 21.875C8.31836 21.2997 8.76607 20.8333 9.31836 20.8333C9.87064 20.8333 10.3184 21.2997 10.3184 21.875Z" stroke="black" stroke-width="2" stroke-linecap="round" stroke-linejoin="round"/>
</svg>
