<svg width="24" height="25" viewBox="0 0 24 25" fill="none" xmlns="http://www.w3.org/2000/svg">
<path opacity="0.4" d="M16 9.79603V6.25001C16 3.94882 14.2091 2.08334 12 2.08334C9.79086 2.08334 8 3.94882 8 6.25001V9.79603M16.1816 20.7206L17.7782 22.7373C17.9676 22.9765 18.2746 22.9765 18.4639 22.7373L22 18.2709" stroke="black" stroke-width="2" stroke-linecap="round"/>
<path d="M13 22.9167H7.96785C6.0795 22.9167 5.13532 22.9167 4.45263 22.5187C3.85323 22.1693 3.38708 21.6163 3.13206 20.9519C2.84161 20.1953 2.96382 19.22 3.20823 17.2695L3.95514 11.309C4.14835 9.76714 4.24495 8.99622 4.59603 8.41561C4.90538 7.90403 5.35054 7.49691 5.87757 7.2436C6.47571 6.95612 7.22206 6.95612 8.71477 6.95612H15.2864C16.7791 6.95612 17.5255 6.95612 18.1236 7.2436C18.6506 7.49691 19.0958 7.90403 19.4052 8.41561C19.7562 8.99622 19.8528 9.76713 20.046 11.309L20.4564 14.5833" stroke="black" stroke-width="2" stroke-linecap="round"/>
</svg>
