<svg width="24" height="25" viewBox="0 0 24 25" fill="none" xmlns="http://www.w3.org/2000/svg">
<path d="M5 6.39839L18.531 6.28299C19.859 6.27167 20.5229 6.266 20.9922 6.53434C21.4039 6.76972 21.7185 7.14372 21.8799 7.58959C22.064 8.09786 21.9448 8.75106 21.7063 10.0574L20.9792 14.0413C20.8087 14.9752 20.7235 15.4422 20.4854 15.7921C20.2754 16.1005 19.9833 16.3441 19.6422 16.4953C19.2552 16.6667 18.7805 16.6667 17.8312 16.6667L6.5 16.6667M18.4882 21.8874L9.48076 21.8772C8.77556 21.8764 8.42297 21.876 8.13471 21.749C7.88054 21.637 7.66247 21.4566 7.50479 21.2279C7.32597 20.9686 7.25948 20.6223 7.12652 19.9298L6.5 16.6667L5 6.39839M5 6.39839L4.5 3.27339H2" stroke="black" stroke-width="2" stroke-linecap="round" stroke-linejoin="round"/>
</svg>
