<svg width="24" height="25" viewBox="0 0 24 25" fill="none" xmlns="http://www.w3.org/2000/svg">
<path opacity="0.4" d="M17.2129 9.91591L15.9869 6.14847C15.7203 5.32935 15.587 4.91979 15.3805 4.58976C14.9705 3.93439 14.3393 3.46307 13.6118 3.26892C13.2455 3.17114 12.8303 3.17114 12 3.17114C11.1697 3.17114 10.7545 3.17114 10.3882 3.26892C9.66068 3.46307 9.02955 3.93439 8.61947 4.58976C8.41296 4.91979 8.27968 5.32935 8.01312 6.14847L6.78711 9.91591M14.5 14.8095C14.5 16.2478 13.3807 17.4137 12 17.4137C10.6193 17.4137 9.5 16.2478 9.5 14.8095C9.5 13.3713 10.6193 12.2054 12 12.2054C13.3807 12.2054 14.5 13.3713 14.5 14.8095Z" stroke="black" stroke-width="2" stroke-linecap="round" stroke-linejoin="round"/>
<path d="M2.54427 13.6503C2.18546 11.6222 2.00606 10.6082 2.27817 9.81613C2.51689 9.12128 2.98399 8.53685 3.59674 8.16637C4.29518 7.74408 5.28504 7.74408 7.26477 7.74408H16.7339C18.7137 7.74408 19.7035 7.74408 20.402 8.16637C21.0147 8.53685 21.4818 9.12128 21.7206 9.81613C21.9927 10.6082 21.8133 11.6222 21.4545 13.6503L20.7236 17.7812C20.466 19.2376 20.3371 19.9659 19.9797 20.5114C19.6646 20.9924 19.2268 21.3721 18.7156 21.6078C18.1358 21.875 17.4249 21.875 16.0031 21.875H7.9956C6.57385 21.875 5.86297 21.875 5.28314 21.6078C4.77193 21.3721 4.33409 20.9924 4.01899 20.5114C3.66161 19.9659 3.53277 19.2376 3.27509 17.7812L2.54427 13.6503Z" stroke="black" stroke-width="2" stroke-linecap="round" stroke-linejoin="round"/>
</svg>
