<svg width="24" height="25" viewBox="0 0 24 25" fill="none" xmlns="http://www.w3.org/2000/svg">
<path opacity="0.4" d="M16 9.796V6.24998C16 3.94879 14.2091 2.08331 12 2.08331C9.79086 2.08331 8 3.94879 8 6.24998V9.796M22 19.7916C22 21.5175 20.6569 22.9166 19 22.9166C17.3431 22.9166 16 21.5175 16 19.7916C16 18.0658 17.3431 16.6666 19 16.6666C20.6569 16.6666 22 18.0658 22 19.7916Z" stroke="black" stroke-width="2" stroke-linecap="round" stroke-linejoin="round"/>
<path d="M20.1394 12.054L20.046 11.309C19.8528 9.76713 19.7562 8.99622 19.4052 8.41561C19.0958 7.90403 18.6506 7.49691 18.1236 7.2436C17.5255 6.95612 16.7791 6.95612 15.2864 6.95612H8.71477C7.22206 6.95612 6.47571 6.95612 5.87757 7.2436C5.35054 7.49691 4.90538 7.90403 4.59603 8.41561C4.24495 8.99622 4.14835 9.76714 3.95514 11.309L3.20823 17.2695C2.96382 19.22 2.84161 20.1953 3.13206 20.9519C3.38708 21.6163 3.85323 22.1693 4.45263 22.5187C5.13532 22.9167 6.0795 22.9167 7.96785 22.9167H12.5047" stroke="black" stroke-width="2" stroke-linecap="round" stroke-linejoin="round"/>
</svg>
