<svg width="24" height="25" viewBox="0 0 24 25" fill="none" xmlns="http://www.w3.org/2000/svg">
<path opacity="0.4" d="M16 10.4166V6.24998C16 3.94879 14.2091 2.08331 12 2.08331C9.79086 2.08331 8 3.94879 8 6.24998V10.4166" stroke="black" stroke-width="2" stroke-linecap="round" stroke-linejoin="round"/>
<path d="M3 12.2917C3 10.5415 3 9.66644 3.32698 8.99797C3.6146 8.40996 4.07354 7.9319 4.63803 7.63229C5.27976 7.29169 6.11984 7.29169 7.8 7.29169H16.2C17.8802 7.29169 18.7202 7.29169 19.362 7.63229C19.9265 7.9319 20.3854 8.40996 20.673 8.99797C21 9.66644 21 10.5415 21 12.2917V17.9167C21 19.6669 21 20.5419 20.673 21.2104C20.3854 21.7984 19.9265 22.2765 19.362 22.5761C18.7202 22.9167 17.8802 22.9167 16.2 22.9167H7.8C6.11984 22.9167 5.27976 22.9167 4.63803 22.5761C4.07354 22.2765 3.6146 21.7984 3.32698 21.2104C3 20.5419 3 19.6669 3 17.9167V12.2917Z" stroke="black" stroke-width="2" stroke-linecap="round" stroke-linejoin="round"/>
</svg>
