<svg width="24" height="25" viewBox="0 0 24 25" fill="none" xmlns="http://www.w3.org/2000/svg">
<path opacity="0.4" d="M16.5 22.3958H16.51M8.5 22.3958H8.51M17 22.3958C17 22.6835 16.7761 22.9167 16.5 22.9167C16.2239 22.9167 16 22.6835 16 22.3958C16 22.1082 16.2239 21.875 16.5 21.875C16.7761 21.875 17 22.1082 17 22.3958ZM9 22.3958C9 22.6835 8.77614 22.9167 8.5 22.9167C8.22386 22.9167 8 22.6835 8 22.3958C8 22.1082 8.22386 21.875 8.5 21.875C8.77614 21.875 9 22.1082 9 22.3958Z" stroke="black" stroke-width="2" stroke-linecap="round" stroke-linejoin="round"/>
<path d="M5 5.20831L18.5136 5.09306C19.8468 5.08169 20.5134 5.07601 20.9835 5.35707C21.3958 5.60361 21.7103 5.99509 21.8707 6.4613C22.0534 6.9928 21.9306 7.67534 21.685 9.0404L20.9894 12.9058C20.8153 13.8734 20.7282 14.3573 20.4898 14.7196C20.2795 15.0391 19.9879 15.2912 19.6477 15.4476C19.2619 15.625 18.7893 15.625 17.8442 15.625H6.5M18.5001 18.7499H9.03705C8.31732 18.7499 7.95746 18.7499 7.66521 18.6138C7.40759 18.4938 7.1877 18.3005 7.0308 18.0561C6.85281 17.779 6.79228 17.4094 6.67123 16.6704L6.5 15.625L5 5.20831M5 5.20831L4.5 2.08331H2" stroke="black" stroke-width="2" stroke-linecap="round" stroke-linejoin="round"/>
</svg>
