<svg width="24" height="25" viewBox="0 0 24 25" fill="none" xmlns="http://www.w3.org/2000/svg">
<path opacity="0.4" d="M16 6.24998C16 3.94879 14.2091 2.08331 12 2.08331C9.79086 2.08331 8 3.94879 8 6.24998M8.39844 12.8998V13.2213C8.39844 15.2932 10.0109 16.9729 12 16.9729C13.9891 16.9729 15.6016 15.2932 15.6016 13.2213V12.8998" stroke="black" stroke-width="2" stroke-linecap="round" stroke-linejoin="round"/>
<path d="M3 11.9561C3 10.206 3 9.33087 3.32698 8.6624C3.6146 8.07439 4.07354 7.59632 4.63803 7.29672C5.27976 6.95612 6.11984 6.95612 7.8 6.95612H16.2C17.8802 6.95612 18.7202 6.95612 19.362 7.29672C19.9265 7.59632 20.3854 8.07439 20.673 8.6624C21 9.33087 21 10.206 21 11.9561V13.5417C21 16.4538 21 17.9099 20.5433 19.0585C19.9343 20.5899 18.7663 21.8066 17.2961 22.4409C16.1935 22.9167 14.7956 22.9167 12 22.9167C9.20435 22.9167 7.80653 22.9167 6.7039 22.4409C5.23373 21.8066 4.06569 20.5899 3.45672 19.0585C3 17.9099 3 16.4538 3 13.5417V11.9561Z" stroke="black" stroke-width="2" stroke-linecap="round" stroke-linejoin="round"/>
</svg>
