<svg width="24" height="25" viewBox="0 0 24 25" fill="none" xmlns="http://www.w3.org/2000/svg">
<path opacity="0.4" d="M11.9993 7.74407H17.2493C18.753 7.74407 19.5049 7.74407 20.0656 7.99141C20.9592 8.38553 21.6146 9.20551 21.8247 10.1923C21.9566 10.8116 21.8203 11.5818 21.5478 13.1223L20.8286 17.1875M17.2133 9.91591L15.7089 5.2929C15.2961 4.02453 14.1534 3.17114 12.8677 3.17114H11.1332C10.2232 3.17114 9.3848 3.59866 8.82617 4.29825" stroke="black" stroke-width="2" stroke-linecap="round" stroke-linejoin="round"/>
<path d="M6.74928 7.74407C5.24555 7.74407 4.49369 7.74407 3.93292 7.99141C3.03937 8.38553 2.384 9.20551 2.17386 10.1923C2.04198 10.8116 2.17824 11.5818 2.45077 13.1223L3.27501 17.7812C3.53269 19.2376 3.66152 19.9659 4.01891 20.5114C4.33401 20.9924 4.77185 21.3721 5.28306 21.6077C5.86289 21.875 6.57377 21.875 7.99552 21.875H16.5508C17.4505 21.875 17.9004 21.875 18.2854 21.7665C18.8518 21.6068 19.3544 21.2797 19.7377 20.8333M11.5 12.2575C10.3589 12.4987 9.5 13.5497 9.5 14.8095C9.5 16.2478 10.6193 17.4137 12 17.4137C13.1634 17.4137 14.1412 16.5859 14.4202 15.4649M1.75 2.08331L21.75 22.9166" stroke="black" stroke-width="2" stroke-linecap="round" stroke-linejoin="round"/>
</svg>
