<svg width="24" height="25" viewBox="0 0 24 25" fill="none" xmlns="http://www.w3.org/2000/svg">
<path opacity="0.4" d="M8.01758 2.12201H8.79212C9.5882 2.12167 10.3518 2.45094 10.9147 3.0373L21.1569 13.7063C21.9001 14.4804 22.1718 15.5597 21.9721 16.557" stroke="black" stroke-width="2" stroke-linecap="round" stroke-linejoin="round"/>
<path d="M3.13922 2.83971C2.4745 3.41262 2.05088 4.27835 2.05047 5.24718L2.04883 9.14528C2.04848 9.97455 2.36458 10.77 2.92751 11.3564L13.1697 22.0253C14.3412 23.2457 16.2407 23.2457 17.4123 22.0253L19.2841 20.0755M7.13477 7.40952H7.14477M2.75 2.08331L22.75 22.9166M7.63477 7.40952C7.63477 7.69717 7.41091 7.93035 7.13477 7.93035C6.85862 7.93035 6.63477 7.69717 6.63477 7.40952C6.63477 7.12187 6.85862 6.88869 7.13477 6.88869C7.41091 6.88869 7.63477 7.12187 7.63477 7.40952Z" stroke="black" stroke-width="2" stroke-linecap="round" stroke-linejoin="round"/>
</svg>
