<svg width="24" height="25" viewBox="0 0 24 25" fill="none" xmlns="http://www.w3.org/2000/svg">
<path opacity="0.4" d="M7.13477 7.40957H7.14477M7.63477 7.40957C7.63477 7.69721 7.41091 7.9304 7.13477 7.9304C6.85862 7.9304 6.63477 7.69721 6.63477 7.40957C6.63477 7.12192 6.85862 6.88873 7.13477 6.88873C7.41091 6.88873 7.63477 7.12192 7.63477 7.40957Z" stroke="black" stroke-width="2" stroke-linecap="round" stroke-linejoin="round"/>
<path d="M8.04491 2.12229C8.7791 2.12198 9.14619 2.12182 9.49166 2.20811C9.79794 2.28461 10.0908 2.41088 10.3593 2.58227C10.6623 2.77559 10.9218 3.04598 11.441 3.58675L19.8829 12.3804C21.0709 13.618 21.665 14.2367 21.8875 14.9503C22.0833 15.5779 22.0833 16.254 21.8875 16.8816C21.665 17.5951 21.0709 18.2139 19.8829 19.4515L18.6848 20.6995C17.4968 21.937 16.9027 22.5558 16.2178 22.7876C15.6152 22.9916 14.9662 22.9916 14.3637 22.7876C13.6787 22.5558 13.0846 21.937 11.8966 20.6995L3.45475 11.9059C2.93559 11.3651 2.676 11.0947 2.49041 10.7791C2.32587 10.4993 2.20465 10.1943 2.13121 9.87523C2.04838 9.51536 2.04854 9.13295 2.04887 8.36815L2.04939 7.1206C2.05013 5.37178 2.05049 4.49736 2.37741 3.82932C2.66498 3.24169 3.12366 2.76391 3.6878 2.46438C4.32912 2.12386 5.16856 2.12351 6.84744 2.1228L8.04491 2.12229Z" stroke="black" stroke-width="2" stroke-linecap="round" stroke-linejoin="round"/>
</svg>
