<svg width="24" height="25" viewBox="0 0 24 25" fill="none" xmlns="http://www.w3.org/2000/svg">
<path opacity="0.4" d="M9.93118 3.60046C10.3155 3.02848 10.5077 2.74249 10.7006 2.5706C11.4491 1.90379 12.5521 1.90379 13.3006 2.5706C13.4935 2.74249 13.6857 3.02848 14.0701 3.60046C14.2554 3.87625 14.348 4.01414 14.451 4.12703C14.8408 4.55426 15.3861 4.78952 15.9517 4.77452C16.1011 4.77056 16.2603 4.74131 16.5785 4.6828C17.2386 4.56145 17.5686 4.50078 17.8217 4.52134C18.8036 4.60111 19.5836 5.41359 19.6601 6.43638C19.6799 6.70003 19.6216 7.04381 19.5051 7.73137C19.449 8.06288 19.4209 8.22863 19.4171 8.38432C19.4027 8.97351 19.6285 9.54149 20.0387 9.9475C20.1471 10.0548 20.2794 10.1513 20.5442 10.3443C21.0933 10.7447 21.3678 10.9449 21.5328 11.1459C22.173 11.9255 22.173 13.0745 21.5328 13.8541C21.3678 14.0551 21.0933 14.2553 20.5442 14.6557C20.2794 14.8487 20.1471 14.9452 20.0387 15.0525C19.6285 15.4585 19.4027 16.0265 19.4171 16.6157C19.4209 16.7714 19.449 16.9371 19.5051 17.2687C19.6216 17.9562 19.6799 18.3 19.6601 18.5636C19.5836 19.5864 18.8036 20.3989 17.8217 20.4787C17.5686 20.4992 17.2386 20.4386 16.5785 20.3172C16.2603 20.2587 16.1011 20.2295 15.9517 20.2255C15.3861 20.2105 14.8408 20.4458 14.451 20.873C14.348 20.9859 14.2554 21.1238 14.0701 21.3996C13.6857 21.9715 13.4935 22.2575 13.3006 22.4294C12.5521 23.0962 11.4491 23.0962 10.7006 22.4294C10.5077 22.2575 10.3155 21.9715 9.93118 21.3996C9.74586 21.1238 9.6532 20.9859 9.5502 20.873C9.16043 20.4458 8.61518 20.2105 8.04955 20.2255C7.90009 20.2295 7.74097 20.2587 7.42272 20.3172C6.76266 20.4386 6.43263 20.4992 6.17953 20.4787C5.19766 20.3989 4.41767 19.5864 4.34109 18.5636C4.32135 18.3 4.3796 17.9562 4.49609 17.2687C4.55226 16.9371 4.58034 16.7714 4.58415 16.6157C4.59855 16.0265 4.37269 15.4585 3.96256 15.0525C3.85418 14.9452 3.7218 14.8487 3.45705 14.6557C2.90795 14.2553 2.6334 14.0551 2.46839 13.8541C1.82825 13.0745 1.82825 11.9255 2.46839 11.1459C2.6334 10.9449 2.90795 10.7447 3.45705 10.3443C3.7218 10.1513 3.85418 10.0548 3.96256 9.9475C4.37269 9.54149 4.59855 8.97351 4.58415 8.38432C4.58034 8.22863 4.55226 8.06288 4.49609 7.73137C4.3796 7.04381 4.32135 6.70003 4.34109 6.43638C4.41767 5.41359 5.19766 4.60111 6.17953 4.52134C6.43263 4.50078 6.76266 4.56145 7.42272 4.6828C7.74097 4.74131 7.90009 4.77056 8.04955 4.77452C8.61518 4.78952 9.16043 4.55426 9.5502 4.12703C9.6532 4.01414 9.74586 3.87625 9.93118 3.60046Z" stroke="black" stroke-width="2" stroke-linecap="round" stroke-linejoin="round"/>
<path d="M15.3553 9.0069L8.64844 15.9933M9.14844 9.52773H9.15844M14.8553 15.4724H14.8653M9.64844 9.52773C9.64844 9.81538 9.42458 10.0486 9.14844 10.0486C8.8723 10.0486 8.64844 9.81538 8.64844 9.52773C8.64844 9.24008 8.8723 9.0069 9.14844 9.0069C9.42458 9.0069 9.64844 9.24008 9.64844 9.52773ZM15.3553 15.4724C15.3553 15.7601 15.1315 15.9933 14.8553 15.9933C14.5792 15.9933 14.3553 15.7601 14.3553 15.4724C14.3553 15.1848 14.5792 14.9516 14.8553 14.9516C15.1315 14.9516 15.3553 15.1848 15.3553 15.4724Z" stroke="black" stroke-width="2" stroke-linecap="round" stroke-linejoin="round"/>
</svg>
