<svg width="24" height="25" viewBox="0 0 24 25" fill="none" xmlns="http://www.w3.org/2000/svg">
<path opacity="0.4" d="M5.36133 2.08003L6.56487 2.07969C8.03296 2.07927 8.76701 2.07906 9.45781 2.25167C10.0703 2.40471 10.6558 2.65724 11.1928 2.99999C11.7986 3.38659 12.3176 3.92727 13.3557 5.00862L21.1926 13.1721M6.48316 9.65299H6.49181M6.91585 9.65299C6.91585 9.90192 6.72213 10.1037 6.48316 10.1037C6.24419 10.1037 6.05046 9.90192 6.05046 9.65299C6.05046 9.40406 6.24419 9.20226 6.48316 9.20226C6.72213 9.20226 6.91585 9.40406 6.91585 9.65299Z" stroke="black" stroke-width="2" stroke-linecap="round" stroke-linejoin="round"/>
<path d="M7.0031 5.07749C7.73728 5.07718 8.10437 5.07702 8.44984 5.16331C8.75613 5.23981 9.04894 5.36608 9.31752 5.53747C9.62045 5.73079 9.88002 6.00118 10.3992 6.54195L17.0585 13.4787C18.2465 14.7163 18.8406 15.3351 19.0631 16.0486C19.2589 16.6762 19.2589 17.3523 19.0631 17.98C18.8406 18.6935 18.2465 19.3123 17.0585 20.5498L16.9354 20.678C15.7474 21.9155 15.1534 22.5343 14.4684 22.7662C13.8659 22.9701 13.2168 22.9701 12.6143 22.7662C11.9293 22.5343 11.3353 21.9155 10.1472 20.678L3.48796 13.7413C2.96879 13.2005 2.70921 12.9301 2.52362 12.6145C2.35907 12.3347 2.23786 12.0297 2.16442 11.7106C2.08159 11.3507 2.08175 10.9683 2.08207 10.2035L2.08212 10.0753C2.08286 8.32652 2.08323 7.45211 2.41014 6.78407C2.69771 6.19644 3.1564 5.71866 3.72053 5.41913C4.36186 5.07861 5.20129 5.07825 6.88017 5.07754L7.0031 5.07749Z" stroke="black" stroke-width="2" stroke-linecap="round" stroke-linejoin="round"/>
</svg>
