<svg width="24" height="25" viewBox="0 0 24 25" fill="none" xmlns="http://www.w3.org/2000/svg">
<path opacity="0.4" d="M16 6.25H8V12.7083C8 14.4585 8 15.3336 8.32698 16.0021C8.6146 16.5901 9.07354 17.0681 9.63803 17.3677C10.2798 17.7083 11.1198 17.7083 12.8 17.7083H13.5M19.4105 13.6878H18.5307C17.5861 13.6878 16.8203 14.4855 16.8203 15.4695C16.8203 16.4535 17.5861 17.2512 18.5307 17.2512H20.2902C21.2348 17.2512 22.0006 18.0489 22.0006 19.0329C22.0006 20.0169 21.2348 20.8145 20.2902 20.8145H19.4105M19.4105 13.6878V12.5M19.4105 13.6878H20.6808C21.0681 13.6878 21.4401 13.8456 21.7173 14.1274M19.4105 20.8145V22.0023M19.4105 20.8145H18.4458C18.2791 20.8145 18.1958 20.8146 18.1135 20.8098C17.7723 20.7903 17.4367 20.7101 17.1213 20.5728C17.0453 20.5398 16.9703 20.5019 16.8203 20.4263" stroke="black" stroke-width="2" stroke-linecap="round" stroke-linejoin="round"/>
<path d="M8 6.25C8 7.97589 6.65685 9.375 5 9.375C3.34315 9.375 2 7.97589 2 6.25C2 4.52411 3.34315 3.125 5 3.125C6.65685 3.125 8 4.52411 8 6.25Z" stroke="black" stroke-width="2" stroke-linecap="round" stroke-linejoin="round"/>
<path d="M22 6.25C22 7.97589 20.6569 9.375 19 9.375C17.3431 9.375 16 7.97589 16 6.25C16 4.52411 17.3431 3.125 19 3.125C20.6569 3.125 22 4.52411 22 6.25Z" stroke="black" stroke-width="2" stroke-linecap="round" stroke-linejoin="round"/>
</svg>
