<svg width="24" height="25" viewBox="0 0 24 25" fill="none" xmlns="http://www.w3.org/2000/svg">
<path opacity="0.4" d="M12.8786 21.8749H16.1968C17.8769 21.8749 18.717 21.8749 19.3588 21.5343C19.9232 21.2347 20.3822 20.7566 20.6698 20.1686C20.9968 19.5002 20.9968 18.6251 20.9968 16.8749V12.813C20.9968 11.7382 20.9968 11.2008 20.8749 10.6984C20.7669 10.253 20.5889 9.82932 20.3482 9.44446C20.0766 9.01025 19.6977 8.64557 18.9398 7.91623L15.254 4.36921C14.1054 3.26383 13.5311 2.71114 12.8786 2.50212C12.304 2.31806 11.6896 2.31806 11.115 2.50212C10.4625 2.71114 9.88815 3.26383 8.73954 4.36921L5.0538 7.91623C4.29593 8.64557 3.91699 9.01025 3.6454 9.44446C3.40467 9.82932 3.22669 10.253 3.11867 10.6984C3.03305 11.0513 3.00758 11.4216 3 11.9832" stroke="black" stroke-width="2" stroke-linecap="round" stroke-linejoin="round"/>
<path d="M3 18.4547H9.67387M9.67387 18.4547H9.71094M9.67387 18.4547C9.67387 18.4797 9.66514 18.5048 9.64767 18.5238L6.57917 21.8749M9.67387 18.4547C9.67387 18.4297 9.66514 18.4047 9.64767 18.3856L6.57917 15.0346" stroke="black" stroke-width="2" stroke-linecap="round" stroke-linejoin="round"/>
</svg>
