<svg width="24" height="25" viewBox="0 0 24 25" fill="none" xmlns="http://www.w3.org/2000/svg">
<path opacity="0.4" d="M11.1182 21.8749H7.8C6.11984 21.8749 5.27976 21.8749 4.63803 21.5343C4.07354 21.2347 3.6146 20.7566 3.32698 20.1686C3 19.5002 3 18.6251 3 16.8749V12.813C3 11.7382 3 11.2008 3.12187 10.6984C3.2299 10.253 3.40788 9.82932 3.6486 9.44446C3.9202 9.01025 4.29913 8.64557 5.057 7.91623L8.74275 4.36921C9.89136 3.26383 10.4657 2.71114 11.1182 2.50212C11.6928 2.31806 12.3072 2.31806 12.8818 2.50212C13.5343 2.71114 14.1086 3.26383 15.2572 4.36921L18.943 7.91623C19.7009 8.64557 20.0798 9.01025 20.3514 9.44446C20.5921 9.82932 20.7701 10.253 20.8781 10.6984C20.9637 11.0513 20.9892 11.4216 20.9968 11.9832" stroke="black" stroke-width="2" stroke-linecap="round" stroke-linejoin="round"/>
<path d="M14.2891 18.4548H20.9629M20.9629 18.4548H21M20.9629 18.4548C20.9629 18.4798 20.9542 18.5048 20.9367 18.5239L17.8682 21.8749M20.9629 18.4548C20.9629 18.4298 20.9542 18.4048 20.9367 18.3857L17.8682 15.0347" stroke="black" stroke-width="2" stroke-linecap="round" stroke-linejoin="round"/>
</svg>
