<svg width="24" height="25" viewBox="0 0 24 25" fill="none" xmlns="http://www.w3.org/2000/svg">
<path opacity="0.4" d="M18.5566 16.6667V9.79169C18.5566 8.9166 18.5566 8.47906 18.3932 8.14483C18.2493 7.85082 18.0199 7.61179 17.7376 7.46199C17.4168 7.29169 16.9967 7.29169 16.1566 7.29169H10.9566C10.1166 7.29169 9.69652 7.29169 9.37565 7.46199C9.09341 7.61179 8.86394 7.85082 8.72013 8.14483C8.55664 8.47906 8.55664 8.9166 8.55664 9.79169V16.6667" stroke="black" stroke-width="2" stroke-linecap="round" stroke-linejoin="round"/>
<path d="M2 4.16669H2.6C3.44008 4.16669 3.86012 4.16669 4.18099 4.33699C4.46323 4.48679 4.6927 4.72582 4.83651 5.01983C5 5.35406 5 5.7916 5 6.66669V14.1667C5 15.0418 5 15.4793 5.16349 15.8135C5.3073 16.1076 5.53677 16.3466 5.81901 16.4964C6.13988 16.6667 6.55992 16.6667 7.4 16.6667H22M18.5566 16.6667H8.55664M11.1777 18.75C11.1777 19.9006 10.2823 20.8334 9.17773 20.8334C8.07316 20.8334 7.17773 19.9006 7.17773 18.75C7.17773 17.5994 8.07316 16.6667 9.17773 16.6667C10.2823 16.6667 11.1777 17.5994 11.1777 18.75ZM19.5 18.75C19.5 19.9006 18.6046 20.8334 17.5 20.8334C16.3954 20.8334 15.5 19.9006 15.5 18.75C15.5 17.5994 16.3954 16.6667 17.5 16.6667C18.6046 16.6667 19.5 17.5994 19.5 18.75Z" stroke="black" stroke-width="2" stroke-linecap="round" stroke-linejoin="round"/>
</svg>
