<svg width="24" height="25" viewBox="0 0 24 25" fill="none" xmlns="http://www.w3.org/2000/svg">
<path opacity="0.4" d="M2 6.86218L7.25985 6.86218M7.25985 6.86218H7.28906M7.25985 6.86218C7.25985 6.88189 7.25297 6.9016 7.2392 6.91664L4.82083 9.55767M7.25985 6.86218C7.25985 6.84247 7.25297 6.82276 7.2392 6.80772L4.82083 4.16669" stroke="black" stroke-width="2" stroke-linecap="round"/>
<path d="M10.3284 3.16669C9.77608 3.16669 9.32837 3.6144 9.32837 4.16669C9.32837 4.71897 9.77608 5.16669 10.3284 5.16669V4.16669V3.16669ZM3.09202 16.4396L3.56083 15.5563H3.56083L3.09202 16.4396ZM3 12.5544C3 12.0021 2.55228 11.5544 2 11.5544C1.44772 11.5544 1 12.0021 1 12.5544H2H3ZM2.21799 15.5292L1.31969 15.9686H1.31969L2.21799 15.5292ZM15.908 4.39376L16.3768 3.51046V3.51046L15.908 4.39376ZM16.782 5.30421L15.8837 5.7436V5.7436L16.782 5.30421ZM17 7.29169V6.29169H16V7.29169H17ZM19.6619 7.35176L19.3768 8.31024V8.31024L19.6619 7.35176ZM20.72 8.29169L19.9085 8.87599V8.87599L20.72 8.29169ZM20.1567 7.60946L20.7768 6.82494V6.82494L20.1567 7.60946ZM22.8365 15.8135L23.7348 16.2529L22.8365 15.8135ZM22.181 16.4964L22.6498 17.3797L22.181 16.4964ZM22.9721 11.6794L23.955 11.495L22.9721 11.6794ZM22.52 10.7917L23.3315 10.2074V10.2074L22.52 10.7917ZM22.8504 11.2989L23.7574 10.8778V10.8778L22.8504 11.2989ZM10.3284 4.16669V5.16669H13.8V4.16669V3.16669H10.3284V4.16669ZM17 7.50002H16V16.6667H17H18V7.50002H17ZM17 16.6667V15.6667H5.2V16.6667V17.6667H17V16.6667ZM5.2 16.6667V15.6667C4.62277 15.6667 4.25248 15.6658 3.9712 15.6419C3.70287 15.6191 3.60675 15.5807 3.56083 15.5563L3.09202 16.4396L2.6232 17.3229C3.00512 17.5256 3.40293 17.6008 3.8016 17.6347C4.18734 17.6675 4.65713 17.6667 5.2 17.6667V16.6667ZM2 12.5544H1C1 13.1313 0.999753 13.7903 1.02851 14.3624C1.0429 14.6488 1.06539 14.9327 1.10259 15.1858C1.1364 15.4159 1.19425 15.7121 1.31969 15.9686L2.21799 15.5292L3.11628 15.0898C3.13273 15.1234 3.10884 15.0822 3.08134 14.8951C3.05723 14.731 3.03884 14.5177 3.02599 14.262C3.00025 13.7499 3 13.1443 3 12.5544H2ZM3.09202 16.4396L3.56083 15.5563C3.37572 15.4581 3.21771 15.2971 3.11628 15.0898L2.21799 15.5292L1.31969 15.9686C1.60176 16.5452 2.05567 17.0217 2.6232 17.3229L3.09202 16.4396ZM13.8 4.16669V5.16669C14.3772 5.16669 14.7475 5.16753 15.0288 5.19147C15.2971 5.21431 15.3933 5.25269 15.4392 5.27705L15.908 4.39376L16.3768 3.51046C15.9949 3.30776 15.5971 3.2326 15.1984 3.19867C14.8127 3.16584 14.3429 3.16669 13.8 3.16669V4.16669ZM17 7.50002H18C18 6.93248 18.0007 6.44908 17.9697 6.0535C17.9378 5.64739 17.868 5.24844 17.6803 4.86481L16.782 5.30421L15.8837 5.7436C15.9141 5.80563 15.9532 5.9212 15.9758 6.20989C15.9993 6.50911 16 6.90079 16 7.50002H17ZM15.908 4.39376L15.4392 5.27705C15.6243 5.37531 15.7823 5.53624 15.8837 5.7436L16.782 5.30421L17.6803 4.86481C17.3982 4.28816 16.9443 3.81168 16.3768 3.51046L15.908 4.39376ZM23 12.2917H22V14.1667H23H24V12.2917H23ZM20.6 16.6667V15.6667H17V16.6667V17.6667H20.6V16.6667ZM17 16.6667H18V7.29169H17H16V16.6667H17ZM17 7.29169V8.29169H18.8V7.29169V6.29169H17V7.29169ZM20.72 8.29169L19.9085 8.87599L21.7085 11.376L22.52 10.7917L23.3315 10.2074L21.5315 7.70738L20.72 8.29169ZM18.8 7.29169V8.29169C19.3001 8.29169 19.3471 8.30142 19.3768 8.31024L19.6619 7.35176L19.9471 6.39327C19.5729 6.28195 19.1799 6.29169 18.8 6.29169V7.29169ZM20.72 8.29169L21.5315 7.70738C21.302 7.38856 21.0798 7.06442 20.7768 6.82494L20.1567 7.60946L19.5366 8.39399C19.5682 8.41895 19.61 8.46148 19.9085 8.87599L20.72 8.29169ZM19.6619 7.35176L19.3768 8.31024C19.4324 8.3268 19.4868 8.35461 19.5366 8.39399L20.1567 7.60946L20.7768 6.82494C20.5303 6.63008 20.2491 6.48313 19.9471 6.39327L19.6619 7.35176ZM23 14.1667H22C22 14.6201 21.9993 14.9024 21.9826 15.1147C21.9668 15.3166 21.9413 15.3678 21.9382 15.3742L22.8365 15.8135L23.7348 16.2529C23.8952 15.925 23.9515 15.5904 23.9765 15.2711C24.0007 14.9624 24 14.5884 24 14.1667H23ZM20.6 16.6667V17.6667C21.0029 17.6667 21.3676 17.6675 21.67 17.6418C21.9853 17.615 22.3214 17.554 22.6498 17.3797L22.181 16.4964L21.7122 15.6131C21.7121 15.6131 21.7118 15.6133 21.7112 15.6136C21.7105 15.6139 21.7091 15.6145 21.7069 15.6153C21.7025 15.6169 21.6936 15.6199 21.6785 15.6236C21.6465 15.6315 21.5922 15.6412 21.5004 15.649C21.3025 15.6658 21.0372 15.6667 20.6 15.6667V16.6667ZM22.8365 15.8135L21.9382 15.3742C21.8847 15.4835 21.8032 15.5648 21.7122 15.6131L22.181 16.4964L22.6498 17.3797C23.1233 17.1284 23.5007 16.7316 23.7348 16.2529L22.8365 15.8135ZM23 12.2917H24C24 12.0191 24.004 11.756 23.955 11.495L22.9721 11.6794L21.9893 11.8639C21.996 11.8998 22 11.9459 22 12.2917H23ZM22.52 10.7917L21.7085 11.376C21.9081 11.6532 21.9293 11.6897 21.9434 11.72L22.8504 11.2989L23.7574 10.8778C23.645 10.6357 23.4881 10.4249 23.3315 10.2074L22.52 10.7917ZM22.9721 11.6794L23.955 11.495C23.915 11.282 23.8487 11.0746 23.7574 10.8778L22.8504 11.2989L21.9434 11.72C21.9642 11.765 21.9798 11.8133 21.9893 11.8639L22.9721 11.6794ZM7 20.8334V19.8334C6.4858 19.8334 6 19.3872 6 18.75H5H4C4 20.414 5.30506 21.8334 7 21.8334V20.8334ZM9 18.75H8C8 19.3872 7.5142 19.8334 7 19.8334V20.8334V21.8334C8.69494 21.8334 10 20.414 10 18.75H9ZM7 16.6667V17.6667C7.5142 17.6667 8 18.1128 8 18.75H9H10C10 17.086 8.69494 15.6667 7 15.6667V16.6667ZM7 16.6667V15.6667C5.30506 15.6667 4 17.086 4 18.75H5H6C6 18.1128 6.4858 17.6667 7 17.6667V16.6667ZM18 20.8334V19.8334C17.4858 19.8334 17 19.3872 17 18.75H16H15C15 20.414 16.3051 21.8334 18 21.8334V20.8334ZM20 18.75H19C19 19.3872 18.5142 19.8334 18 19.8334V20.8334V21.8334C19.6949 21.8334 21 20.414 21 18.75H20ZM18 16.6667V17.6667C18.5142 17.6667 19 18.1128 19 18.75H20H21C21 17.086 19.6949 15.6667 18 15.6667V16.6667ZM18 16.6667V15.6667C16.3051 15.6667 15 17.086 15 18.75H16H17C17 18.1128 17.4858 17.6667 18 17.6667V16.6667Z" fill="black"/>
</svg>
