<svg width="24" height="25" viewBox="0 0 24 25" fill="none" xmlns="http://www.w3.org/2000/svg">
<path d="M3.09202 16.4396L3.56083 15.5563H3.56083L3.09202 16.4396ZM2.21799 15.5291L1.31969 15.9685H1.31969L2.21799 15.5291ZM16.782 5.30418L15.8837 5.74357V5.74357L16.782 5.30418ZM16.3768 3.51043C15.889 3.25151 15.2836 3.43708 15.0247 3.92491C14.7658 4.41274 14.9513 5.0181 15.4392 5.27702L15.908 4.39373L16.3768 3.51043ZM3.09202 4.39373L3.56083 5.27702L3.56083 5.27702L3.09202 4.39373ZM2.21799 5.30418L3.11628 5.74357V5.74357L2.21799 5.30418ZM6.16154 9.45926C5.60925 9.45926 5.16154 9.90697 5.16154 10.4593C5.16154 11.0115 5.60925 11.4593 6.16154 11.4593V10.4593V9.45926ZM12.1128 9.18861L13.0391 9.56535L13.0391 9.56535L12.1128 9.18861ZM11.0514 10.2942L11.4551 11.2091L11.4551 11.2091L11.0514 10.2942ZM11.0514 4.3317L11.4551 3.41683V3.41683L11.0514 4.3317ZM12.1128 5.4373L13.0391 5.06056L13.0391 5.06056L12.1128 5.4373ZM17 7.29166V6.29166H16V7.29166H17ZM19.6619 7.35173L19.3768 8.31021V8.31021L19.6619 7.35173ZM20.72 8.29166L19.9085 8.87596V8.87596L20.72 8.29166ZM20.1567 7.60943L20.7768 6.82491V6.82491L20.1567 7.60943ZM22.8365 15.8135L23.7348 16.2529L22.8365 15.8135ZM22.181 16.4964L22.6498 17.3797L22.181 16.4964ZM22.9721 11.6794L23.955 11.4949L22.9721 11.6794ZM22.52 10.7917L23.3315 10.2074V10.2074L22.52 10.7917ZM22.8504 11.2989L23.7574 10.8778V10.8778L22.8504 11.2989ZM5.97715 9.41666C5.42487 9.41666 4.97715 9.86437 4.97715 10.4167C4.97715 10.9689 5.42487 11.4167 5.97715 11.4167V10.4167V9.41666ZM7.70787 13.7875C8.08084 14.1948 8.7134 14.2226 9.12071 13.8497C9.52803 13.4767 9.55587 12.8441 9.1829 12.4368L8.44538 13.1121L7.70787 13.7875ZM6.02702 10.4711L5.2895 11.1464L5.2895 11.1464L6.02702 10.4711ZM6.02702 10.3622L5.2895 9.68687L5.2895 9.68687L6.02702 10.3622ZM9.1829 8.3965C9.55587 7.98918 9.52803 7.35663 9.12071 6.98365C8.7134 6.61067 8.08084 6.63851 7.70787 7.04583L8.44538 7.72116L9.1829 8.3965ZM17 7.49999H16V16.6667H17H18V7.49999H17ZM17 16.6667V15.6667H5.2V16.6667V17.6667H17V16.6667ZM2 13.3333H3V7.49999H2H1V13.3333H2ZM5.2 16.6667V15.6667C4.62277 15.6667 4.25248 15.6658 3.9712 15.6419C3.70287 15.619 3.60675 15.5807 3.56083 15.5563L3.09202 16.4396L2.6232 17.3229C3.00512 17.5256 3.40293 17.6007 3.8016 17.6347C4.18734 17.6675 4.65713 17.6667 5.2 17.6667V16.6667ZM2 13.3333H1C1 13.9009 0.999283 14.3843 1.03031 14.7798C1.06216 15.186 1.13205 15.5849 1.31969 15.9685L2.21799 15.5291L3.11628 15.0897C3.08594 15.0277 3.04683 14.9121 3.02419 14.6235C3.00072 14.3242 3 13.9326 3 13.3333H2ZM3.09202 16.4396L3.56083 15.5563C3.37572 15.458 3.21771 15.2971 3.11628 15.0897L2.21799 15.5291L1.31969 15.9685C1.60176 16.5452 2.05567 17.0217 2.6232 17.3229L3.09202 16.4396ZM17 7.49999H18C18 6.93245 18.0007 6.44905 17.9697 6.05347C17.9378 5.64736 17.868 5.2484 17.6803 4.86478L16.782 5.30418L15.8837 5.74357C15.9141 5.8056 15.9532 5.92117 15.9758 6.20986C15.9993 6.50908 16 6.90075 16 7.49999H17ZM15.908 4.39373L15.4392 5.27702C15.6243 5.37527 15.7823 5.53621 15.8837 5.74357L16.782 5.30418L17.6803 4.86478C17.3982 4.28813 16.9443 3.81165 16.3768 3.51043L15.908 4.39373ZM5.2 4.16666V3.16666C4.65713 3.16666 4.18734 3.16581 3.8016 3.19864C3.40293 3.23257 3.00512 3.30773 2.6232 3.51043L3.09202 4.39373L3.56083 5.27702C3.60675 5.25265 3.70287 5.21428 3.9712 5.19144C4.25248 5.1675 4.62277 5.16666 5.2 5.16666V4.16666ZM2 7.49999H3C3 6.90075 3.00072 6.50908 3.02419 6.20986C3.04683 5.92117 3.08594 5.8056 3.11628 5.74357L2.21799 5.30418L1.31969 4.86478C1.13205 5.2484 1.06216 5.64736 1.03031 6.05347C0.999283 6.44905 1 6.93245 1 7.49999H2ZM3.09202 4.39373L2.6232 3.51043C2.05567 3.81165 1.60176 4.28813 1.31969 4.86478L2.21799 5.30418L3.11628 5.74357C3.21771 5.53621 3.37572 5.37527 3.56083 5.27702L3.09202 4.39373ZM5.2 4.16666V5.16666H9.25077V4.16666V3.16666H5.2V4.16666ZM9.25077 10.4593V9.45926H6.16154V10.4593V11.4593H9.25077V10.4593ZM12.2712 7.31296H11.2712C11.2712 7.82173 11.2707 8.15423 11.2536 8.40953C11.2371 8.65638 11.2085 8.75774 11.1865 8.81187L12.1128 9.18861L13.0391 9.56535C13.1755 9.2299 13.2261 8.88879 13.2492 8.54289C13.2717 8.20543 13.2712 7.7949 13.2712 7.31296H12.2712ZM9.25077 10.4593V11.4593C9.71177 11.4593 10.1107 11.4599 10.4398 11.436C10.779 11.4114 11.1197 11.3571 11.4551 11.2091L11.0514 10.2942L10.6477 9.37934C10.6091 9.39635 10.525 9.42458 10.2952 9.44125C10.0552 9.45865 9.74086 9.45926 9.25077 9.45926V10.4593ZM12.1128 9.18861L11.1865 8.81187C11.0785 9.07728 10.8809 9.2764 10.6477 9.37934L11.0514 10.2942L11.4551 11.2091C12.1782 10.89 12.7419 10.2961 13.0391 9.56535L12.1128 9.18861ZM9.25077 4.16666V5.16666C9.74086 5.16666 10.0552 5.16727 10.2952 5.18467C10.525 5.20134 10.6091 5.22957 10.6477 5.24658L11.0514 4.3317L11.4551 3.41683C11.1197 3.2688 10.779 3.2145 10.4398 3.18991C10.1107 3.16604 9.71176 3.16666 9.25077 3.16666V4.16666ZM12.2712 7.31296H13.2712C13.2712 6.83101 13.2717 6.42048 13.2492 6.08303C13.2261 5.73713 13.1755 5.39601 13.0391 5.06056L12.1128 5.4373L11.1865 5.81404C11.2085 5.86818 11.2371 5.96953 11.2536 6.21638C11.2707 6.47168 11.2712 6.80419 11.2712 7.31296H12.2712ZM11.0514 4.3317L10.6477 5.24658C10.8809 5.34951 11.0785 5.54863 11.1865 5.81404L12.1128 5.4373L13.0391 5.06056C12.7419 4.32978 12.1782 3.73594 11.4551 3.41683L11.0514 4.3317ZM23 12.2917H22V14.1667H23H24V12.2917H23ZM20.6 16.6667V15.6667H17V16.6667V17.6667H20.6V16.6667ZM17 16.6667H18V7.29166H17H16V16.6667H17ZM17 7.29166V8.29166H18.8V7.29166V6.29166H17V7.29166ZM20.72 8.29166L19.9085 8.87596L21.7085 11.376L22.52 10.7917L23.3315 10.2074L21.5315 7.70735L20.72 8.29166ZM18.8 7.29166V8.29166C19.3001 8.29166 19.3471 8.30139 19.3768 8.31021L19.6619 7.35173L19.9471 6.39324C19.5729 6.28192 19.1799 6.29166 18.8 6.29166V7.29166ZM20.72 8.29166L21.5315 7.70735C21.302 7.38852 21.0798 7.06439 20.7768 6.82491L20.1567 7.60943L19.5366 8.39396C19.5682 8.41893 19.61 8.46146 19.9085 8.87596L20.72 8.29166ZM19.6619 7.35173L19.3768 8.31021C19.4324 8.32677 19.4868 8.35458 19.5366 8.39396L20.1567 7.60943L20.7768 6.82491C20.5303 6.63006 20.2491 6.4831 19.9471 6.39324L19.6619 7.35173ZM23 14.1667H22C22 14.62 21.9993 14.9023 21.9826 15.1147C21.9668 15.3165 21.9413 15.3678 21.9382 15.3741L22.8365 15.8135L23.7348 16.2529C23.8952 15.925 23.9515 15.5904 23.9765 15.2711C24.0007 14.9624 24 14.5884 24 14.1667H23ZM20.6 16.6667V17.6667C21.0029 17.6667 21.3676 17.6675 21.67 17.6418C21.9853 17.6149 22.3214 17.554 22.6498 17.3797L22.181 16.4964L21.7122 15.6131C21.7121 15.6131 21.7118 15.6132 21.7112 15.6135C21.7105 15.6138 21.7091 15.6144 21.7069 15.6153C21.7025 15.6169 21.6936 15.6199 21.6785 15.6236C21.6465 15.6314 21.5922 15.6412 21.5004 15.649C21.3025 15.6658 21.0372 15.6667 20.6 15.6667V16.6667ZM22.8365 15.8135L21.9382 15.3741C21.8847 15.4835 21.8032 15.5647 21.7122 15.6131L22.181 16.4964L22.6498 17.3797C23.1233 17.1284 23.5007 16.7316 23.7348 16.2529L22.8365 15.8135ZM23 12.2917H24C24 12.019 24.004 11.7559 23.955 11.4949L22.9721 11.6794L21.9893 11.8638C21.996 11.8998 22 11.9459 22 12.2917H23ZM22.52 10.7917L21.7085 11.376C21.9081 11.6532 21.9293 11.6897 21.9434 11.72L22.8504 11.2989L23.7574 10.8778C23.645 10.6357 23.4881 10.4248 23.3315 10.2074L22.52 10.7917ZM22.9721 11.6794L23.955 11.4949C23.915 11.282 23.8487 11.0745 23.7574 10.8778L22.8504 11.2989L21.9434 11.72C21.9642 11.765 21.9798 11.8133 21.9893 11.8638L22.9721 11.6794ZM7 20.8333V19.8333C6.4858 19.8333 6 19.3872 6 18.75H5H4C4 20.414 5.30506 21.8333 7 21.8333V20.8333ZM9 18.75H8C8 19.3872 7.5142 19.8333 7 19.8333V20.8333V21.8333C8.69494 21.8333 10 20.414 10 18.75H9ZM7 16.6667V17.6667C7.5142 17.6667 8 18.1128 8 18.75H9H10C10 17.086 8.69494 15.6667 7 15.6667V16.6667ZM7 16.6667V15.6667C5.30506 15.6667 4 17.086 4 18.75H5H6C6 18.1128 6.4858 17.6667 7 17.6667V16.6667ZM18 20.8333V19.8333C17.4858 19.8333 17 19.3872 17 18.75H16H15C15 20.414 16.3051 21.8333 18 21.8333V20.8333ZM20 18.75H19C19 19.3872 18.5142 19.8333 18 19.8333V20.8333V21.8333C19.6949 21.8333 21 20.414 21 18.75H20ZM18 16.6667V17.6667C18.5142 17.6667 19 18.1128 19 18.75H20H21C21 17.086 19.6949 15.6667 18 15.6667V16.6667ZM18 16.6667V15.6667C16.3051 15.6667 15 17.086 15 18.75H16H17C17 18.1128 17.4858 17.6667 18 17.6667V16.6667ZM6.00636 10.4167V9.41666H5.97715V10.4167V11.4167H6.00636V10.4167ZM8.44538 13.1121L9.1829 12.4368L6.76453 9.79578L6.02702 10.4711L5.2895 11.1464L7.70787 13.7875L8.44538 13.1121ZM6.02702 10.3622L6.76453 11.0375L9.1829 8.3965L8.44538 7.72116L7.70787 7.04583L5.2895 9.68687L6.02702 10.3622ZM6.02702 10.4711L6.76454 9.79579C6.93396 9.98081 7.00636 10.2085 7.00636 10.4167H6.00636L5.00636 10.4167C5.00636 10.6643 5.09254 10.9313 5.2895 11.1464L6.02702 10.4711ZM6.00636 10.4167H7.00636C7.00636 10.6249 6.93395 10.8525 6.76454 11.0375L6.02702 10.3622L5.2895 9.68687C5.09254 9.90197 5.00636 10.169 5.00636 10.4167L6.00636 10.4167Z" fill="black"/>
</svg>
