<svg width="24" height="25" viewBox="0 0 24 25" fill="none" xmlns="http://www.w3.org/2000/svg">
<path opacity="0.4" d="M3.79102 8.50968L13.605 3.85185C14.735 3.31553 15.3 3.04737 15.7567 3.13C16.1558 3.20221 16.5099 3.43948 16.7385 3.78785C17.0001 4.18655 17.0001 4.83331 17.0001 6.12683V8.36164M16.9999 15.1042H17.0099M17.4999 15.1042C17.4999 15.3918 17.276 15.625 16.9999 15.625C16.7237 15.625 16.4999 15.3918 16.4999 15.1042C16.4999 14.8165 16.7237 14.5833 16.9999 14.5833C17.276 14.5833 17.4999 14.8165 17.4999 15.1042Z" stroke="black" stroke-width="2" stroke-linecap="round" stroke-linejoin="round"/>
<path d="M3 10.8333C3 9.95826 3 9.52072 3.16349 9.18648C3.3073 8.89248 3.53677 8.65345 3.81901 8.50365C4.13988 8.33334 4.55992 8.33334 5.4 8.33334H18.6C19.4401 8.33334 19.8601 8.33334 20.181 8.50365C20.4632 8.65345 20.6927 8.89248 20.8365 9.18648C21 9.52072 21 9.95826 21 10.8333V19.375C21 20.2501 21 20.6876 20.8365 21.0219C20.6927 21.3159 20.4632 21.5549 20.181 21.7047C19.8601 21.875 19.4401 21.875 18.6 21.875H5.4C4.55992 21.875 4.13988 21.875 3.81901 21.7047C3.53677 21.5549 3.3073 21.3159 3.16349 21.0219C3 20.6876 3 20.2501 3 19.375V10.8333Z" stroke="black" stroke-width="2" stroke-linecap="round" stroke-linejoin="round"/>
</svg>
