<svg width="24" height="25" viewBox="0 0 24 25" fill="none" xmlns="http://www.w3.org/2000/svg">
<path d="M15 12.4388C15 11.5637 15 11.1262 15.1635 10.792C15.3073 10.4979 15.5368 10.2589 15.819 10.1091C16.1399 9.93881 16.5599 9.93881 17.4 9.93881H19.6C20.4401 9.93881 20.8601 9.93881 21.181 10.1091C21.4632 10.2589 21.6927 10.4979 21.8365 10.792C22 11.1262 22 11.5637 22 12.4388V12.5612C22 13.4363 22 13.8738 21.8365 14.208C21.6927 14.5021 21.4632 14.7411 21.181 14.8909C20.8601 15.0612 20.4401 15.0612 19.6 15.0612H17.4C16.5599 15.0612 16.1399 15.0612 15.819 14.8909C15.5368 14.7411 15.3073 14.5021 15.1635 14.208C15 13.8738 15 13.4363 15 12.5612V12.4388Z" stroke="black" stroke-width="2" stroke-linecap="round" stroke-linejoin="round"/>
<path opacity="0.4" d="M20 15.1042V17.5C20 18.6668 20 19.2502 19.782 19.6958C19.5903 20.0878 19.2843 20.4065 18.908 20.6063C18.4802 20.8333 17.9201 20.8333 16.8 20.8333H5.2C4.0799 20.8333 3.51984 20.8333 3.09202 20.6063C2.71569 20.4065 2.40973 20.0878 2.21799 19.6958C2 19.2502 2 18.6668 2 17.5V7.49999C2 6.33321 2 5.74983 2.21799 5.30418C2.40973 4.91217 2.71569 4.59346 3.09202 4.39373C3.51984 4.16666 4.0799 4.16666 5.2 4.16666H16.8C17.9201 4.16666 18.4802 4.16666 18.908 4.39373C19.2843 4.59346 19.5903 4.91217 19.782 5.30418C20 5.74983 20 6.33321 20 7.49999V9.62698" stroke="black" stroke-width="2" stroke-linecap="round" stroke-linejoin="round"/>
</svg>
