<svg width="18" height="15" viewBox="0 0 18 15" fill="none" xmlns="http://www.w3.org/2000/svg">
<g clip-path="url(#clip0_1545_8876)">
<path d="M3.07288 4.28564V1.60707C3.07288 1.32291 3.20833 1.05039 3.44945 0.849459C3.69057 0.648527 4.0176 0.535645 4.35859 0.535645H10.7872L17.2157 5.89279V13.3928C17.2157 13.6769 17.0803 13.9495 16.8392 14.1504C16.598 14.3513 16.271 14.4642 15.93 14.4642H11.43" stroke="#000001" stroke-linecap="round" stroke-linejoin="round"/>
<path d="M10.7872 0.535645V5.89279H17.2157" stroke="#000001" stroke-linecap="round" stroke-linejoin="round"/>
<path d="M4.67999 6.96411V8.57125" stroke="#000001" stroke-linecap="round" stroke-linejoin="round"/>
<path d="M0.784302 8.83911L2.45573 9.64268" stroke="#000001" stroke-linecap="round" stroke-linejoin="round"/>
<path d="M0.784302 12.5892L2.45573 11.7856" stroke="#000001" stroke-linecap="round" stroke-linejoin="round"/>
<path d="M4.67999 14.4641V12.8569" stroke="#000001" stroke-linecap="round" stroke-linejoin="round"/>
<path d="M8.57573 12.5892L6.9043 11.7856" stroke="#000001" stroke-linecap="round" stroke-linejoin="round"/>
<path d="M8.57573 8.83911L6.9043 9.64268" stroke="#000001" stroke-linecap="round" stroke-linejoin="round"/>
<path d="M4.68001 12.857C6.10017 12.857 7.25144 11.8976 7.25144 10.7141C7.25144 9.53068 6.10017 8.57129 4.68001 8.57129C3.25985 8.57129 2.10858 9.53068 2.10858 10.7141C2.10858 11.8976 3.25985 12.857 4.68001 12.857Z" stroke="#000001" stroke-linecap="round" stroke-linejoin="round"/>
</g>
<defs>
<clipPath id="clip0_1545_8876">
<rect width="18" height="15" fill="white"/>
</clipPath>
</defs>
</svg>
