<svg width="150" height="150" viewBox="0 0 150 150" fill="none" xmlns="http://www.w3.org/2000/svg">
<mask id="mask0_6_3597" style="mask-type:alpha" maskUnits="userSpaceOnUse" x="26" y="5" width="98" height="140">
<path d="M52.9254 108.712C57.2551 114.114 61.6648 120.907 63.9725 125.01C66.7829 130.344 67.9481 133.945 70.0387 140.396C71.2611 143.929 72.4264 145 74.8711 145C77.5444 145 78.7668 143.199 79.7035 140.396C81.6571 134.344 83.1651 129.74 85.5527 125.352C94.7605 108.028 109.772 95.7197 118.226 78.8522C118.226 78.8522 123.789 68.5494 123.789 54.1209C123.789 40.6725 118.306 31.327 118.306 31.327L52.9597 108.826L52.9254 108.712Z" fill="#34A853"/>
<path d="M30.7631 77.0287C36.0296 88.9955 46.0709 99.4807 52.9254 108.712L89.2547 65.7457C89.2547 65.7457 84.1252 72.4471 74.8603 72.4471C64.5328 72.4471 56.1247 64.2413 56.1247 53.8701C56.1247 46.7357 60.3859 41.7894 60.3859 41.7894C33.6534 45.7555 35.1385 52.2176 30.6831 77.0059L30.7631 77.0287Z" fill="#FBBC04"/>
<path d="M89.711 7.24523C101.821 11.1316 112.102 19.326 118.271 31.2928L89.254 65.8255C89.254 65.8255 93.5152 60.8564 93.5152 53.7447C93.5152 43.157 84.5587 35.1677 74.8939 35.1677C65.7203 35.1677 60.4995 41.7893 60.4995 41.7893C62.7272 36.7291 85.7468 8.96616 89.7453 7.25662L89.711 7.24523Z" fill="#4285F4"/>
<path d="M37.3932 22.4373C44.6132 13.8668 57.2711 5 74.7501 5C83.1925 5 89.6014 7.2338 89.6014 7.2338L60.4699 41.7665C58.5049 40.7032 39.3353 25.8108 37.3932 22.3917V22.4373Z" fill="#1A73E8"/>
<path d="M30.7631 77.0287C30.7631 77.0287 26 67.5918 26 54.0066C26 41.1281 31.0495 29.8451 37.4241 22.5511L60.5009 41.9259L30.7981 77.0285L30.7631 77.0287Z" fill="#EA4335"/>
</mask>
<g mask="url(#mask0_6_3597)">
<g filter="url(#filter0_f_6_3597)">
<path d="M52.9246 108.712C57.2543 114.114 61.664 120.907 63.9717 125.01C66.782 130.343 67.9473 133.945 70.0379 140.396C71.2603 143.929 72.4255 145 74.8703 145C77.5436 145 78.7659 143.199 79.7027 140.396C81.6562 134.344 83.1642 129.739 85.5519 125.352C94.7597 108.028 109.771 95.7196 118.225 78.8521C118.225 78.8521 123.788 68.5493 123.788 54.1208C123.788 40.6724 118.305 31.3269 118.305 31.3269L52.9588 108.826L52.9246 108.712Z" fill="#34A853"/>
<path d="M30.7623 77.0286C36.0288 88.9954 46.0706 99.4806 52.9251 108.712L89.2538 65.7457C89.2538 65.7457 84.1244 72.4471 74.8594 72.4471C64.532 72.4471 56.1239 64.2413 56.1239 53.8701C56.1239 46.7356 60.385 41.7893 60.385 41.7893C33.6526 45.7554 35.1377 52.2175 30.6823 77.0058L30.7623 77.0286Z" fill="#FBBC04"/>
<path d="M89.7102 7.24512C101.82 11.1315 112.101 19.3259 118.27 31.2926L89.2532 65.8253C89.2532 65.8253 93.5144 60.8563 93.5144 53.7446C93.5144 43.1568 84.5579 35.1676 74.8931 35.1676C65.7195 35.1676 60.4987 41.7892 60.4987 41.7892C62.7264 36.729 85.746 8.96605 89.7444 7.25651L89.7102 7.24512Z" fill="#4285F4"/>
<path d="M37.3923 22.4373C44.6124 13.8668 57.2703 5 74.7492 5C83.1917 5 89.6006 7.2338 89.6006 7.2338L60.4691 41.7665C58.5041 40.7032 39.3344 25.8108 37.3923 22.3917V22.4373Z" fill="#1A73E8"/>
<path d="M30.7631 77.0284C30.7631 77.0284 25.9992 67.5917 25.9992 54.0066C25.9992 41.128 31.0487 29.8451 37.4233 22.551L60.5001 41.9258L30.7973 77.0284H30.7631Z" fill="#EA4335"/>
</g>
<g filter="url(#filter1_f_6_3597)">
<path d="M52.9246 108.712C57.2543 114.114 61.664 120.907 63.9717 125.01C66.782 130.343 67.9473 133.945 70.0379 140.396C71.2603 143.929 72.4255 145 74.8703 145C77.5436 145 78.7659 143.199 79.7027 140.396C81.6562 134.344 83.1642 129.739 85.5519 125.352C94.7597 108.028 109.771 95.7196 118.225 78.8521C118.225 78.8521 123.788 68.5493 123.788 54.1208C123.788 40.6724 118.305 31.3269 118.305 31.3269L52.9588 108.826L52.9246 108.712Z" fill="#34A853"/>
<path d="M30.7623 77.0286C36.0288 88.9954 46.0706 99.4806 52.9251 108.712L89.2538 65.7457C89.2538 65.7457 84.1244 72.4471 74.8594 72.4471C64.532 72.4471 56.1239 64.2413 56.1239 53.8701C56.1239 46.7356 60.385 41.7893 60.385 41.7893C33.6526 45.7554 35.1377 52.2175 30.6823 77.0058L30.7623 77.0286Z" fill="#FBBC04"/>
<path d="M89.7102 7.24512C101.82 11.1315 112.101 19.3259 118.27 31.2926L89.2532 65.8253C89.2532 65.8253 93.5144 60.8563 93.5144 53.7446C93.5144 43.1568 84.5579 35.1676 74.8931 35.1676C65.7195 35.1676 60.4987 41.7892 60.4987 41.7892C62.7264 36.729 85.746 8.96605 89.7444 7.25651L89.7102 7.24512Z" fill="#4285F4"/>
<path d="M37.3923 22.4373C44.6124 13.8668 57.2703 5 74.7492 5C83.1917 5 89.6006 7.2338 89.6006 7.2338L60.4691 41.7665C58.5041 40.7032 39.3344 25.8108 37.3923 22.3917V22.4373Z" fill="#1A73E8"/>
<path d="M30.7631 77.0284C30.7631 77.0284 25.9992 67.5917 25.9992 54.0066C25.9992 41.128 31.0487 29.8451 37.4233 22.551L60.5001 41.9258L30.7973 77.0284H30.7631Z" fill="#EA4335"/>
</g>
<g filter="url(#filter2_f_6_3597)">
<path d="M52.9246 108.712C57.2543 114.114 61.664 120.907 63.9717 125.01C66.782 130.343 67.9473 133.945 70.0379 140.396C71.2603 143.929 72.4255 145 74.8703 145C77.5436 145 78.7659 143.199 79.7027 140.396C81.6562 134.344 83.1642 129.739 85.5519 125.352C94.7597 108.028 109.771 95.7196 118.225 78.8521C118.225 78.8521 123.788 68.5493 123.788 54.1208C123.788 40.6724 118.305 31.3269 118.305 31.3269L52.9588 108.826L52.9246 108.712Z" fill="#34A853"/>
<path d="M30.7623 77.0286C36.0288 88.9954 46.0706 99.4806 52.9251 108.712L89.2538 65.7457C89.2538 65.7457 84.1244 72.4471 74.8594 72.4471C64.532 72.4471 56.1239 64.2413 56.1239 53.8701C56.1239 46.7356 60.385 41.7893 60.385 41.7893C33.6526 45.7554 35.1377 52.2175 30.6823 77.0058L30.7623 77.0286Z" fill="#FBBC04"/>
<path d="M89.7102 7.24512C101.82 11.1315 112.101 19.3259 118.27 31.2926L89.2532 65.8253C89.2532 65.8253 93.5144 60.8563 93.5144 53.7446C93.5144 43.1568 84.5579 35.1676 74.8931 35.1676C65.7195 35.1676 60.4987 41.7892 60.4987 41.7892C62.7264 36.729 85.746 8.96605 89.7444 7.25651L89.7102 7.24512Z" fill="#4285F4"/>
<path d="M37.3923 22.4373C44.6124 13.8668 57.2703 5 74.7492 5C83.1917 5 89.6006 7.2338 89.6006 7.2338L60.4691 41.7665C58.5041 40.7032 39.3344 25.8108 37.3923 22.3917V22.4373Z" fill="#1A73E8"/>
<path d="M30.7631 77.0284C30.7631 77.0284 25.9992 67.5917 25.9992 54.0066C25.9992 41.128 31.0487 29.8451 37.4233 22.551L60.5001 41.9258L30.7973 77.0284H30.7631Z" fill="#EA4335"/>
</g>
<g filter="url(#filter3_f_6_3597)">
<path d="M52.9246 108.712C57.2543 114.114 61.664 120.907 63.9717 125.01C66.782 130.343 67.9473 133.945 70.0379 140.396C71.2603 143.929 72.4255 145 74.8703 145C77.5436 145 78.7659 143.199 79.7027 140.396C81.6562 134.344 83.1642 129.739 85.5519 125.352C94.7597 108.028 109.771 95.7196 118.225 78.8521C118.225 78.8521 123.788 68.5493 123.788 54.1208C123.788 40.6724 118.305 31.3269 118.305 31.3269L52.9588 108.826L52.9246 108.712Z" fill="#34A853"/>
<path d="M30.7623 77.0286C36.0288 88.9954 46.0706 99.4806 52.9251 108.712L89.2538 65.7457C89.2538 65.7457 84.1244 72.4471 74.8594 72.4471C64.532 72.4471 56.1239 64.2413 56.1239 53.8701C56.1239 46.7356 60.385 41.7893 60.385 41.7893C33.6526 45.7554 35.1377 52.2175 30.6823 77.0058L30.7623 77.0286Z" fill="#FBBC04"/>
<path d="M89.7102 7.24512C101.82 11.1315 112.101 19.3259 118.27 31.2926L89.2532 65.8253C89.2532 65.8253 93.5144 60.8563 93.5144 53.7446C93.5144 43.1568 84.5579 35.1676 74.8931 35.1676C65.7195 35.1676 60.4987 41.7892 60.4987 41.7892C62.7264 36.729 85.746 8.96605 89.7444 7.25651L89.7102 7.24512Z" fill="#4285F4"/>
<path d="M37.3923 22.4373C44.6124 13.8668 57.2703 5 74.7492 5C83.1917 5 89.6006 7.2338 89.6006 7.2338L60.4691 41.7665C58.5041 40.7032 39.3344 25.8108 37.3923 22.3917V22.4373Z" fill="#1A73E8"/>
<path d="M30.7631 77.0284C30.7631 77.0284 25.9992 67.5917 25.9992 54.0066C25.9992 41.128 31.0487 29.8451 37.4233 22.551L60.5001 41.9258L30.7973 77.0284H30.7631Z" fill="#EA4335"/>
</g>
<g filter="url(#filter4_f_6_3597)">
<path d="M52.9246 108.712C57.2543 114.114 61.664 120.907 63.9717 125.01C66.782 130.343 67.9473 133.945 70.0379 140.396C71.2603 143.929 72.4255 145 74.8703 145C77.5436 145 78.7659 143.199 79.7027 140.396C81.6562 134.344 83.1642 129.739 85.5519 125.352C94.7597 108.028 109.771 95.7196 118.225 78.8521C118.225 78.8521 123.788 68.5493 123.788 54.1208C123.788 40.6724 118.305 31.3269 118.305 31.3269L52.9588 108.826L52.9246 108.712Z" fill="#34A853"/>
<path d="M30.7623 77.0286C36.0288 88.9954 46.0706 99.4806 52.9251 108.712L89.2538 65.7457C89.2538 65.7457 84.1244 72.4471 74.8594 72.4471C64.532 72.4471 56.1239 64.2413 56.1239 53.8701C56.1239 46.7356 60.385 41.7893 60.385 41.7893C33.6526 45.7554 35.1377 52.2175 30.6823 77.0058L30.7623 77.0286Z" fill="#FBBC04"/>
<path d="M89.7102 7.24512C101.82 11.1315 112.101 19.3259 118.27 31.2926L89.2532 65.8253C89.2532 65.8253 93.5144 60.8563 93.5144 53.7446C93.5144 43.1568 84.5579 35.1676 74.8931 35.1676C65.7195 35.1676 60.4987 41.7892 60.4987 41.7892C62.7264 36.729 85.746 8.96605 89.7444 7.25651L89.7102 7.24512Z" fill="#4285F4"/>
<path d="M37.3923 22.4373C44.6124 13.8668 57.2703 5 74.7492 5C83.1917 5 89.6006 7.2338 89.6006 7.2338L60.4691 41.7665C58.5041 40.7032 39.3344 25.8108 37.3923 22.3917V22.4373Z" fill="#1A73E8"/>
<path d="M30.7631 77.0284C30.7631 77.0284 25.9992 67.5917 25.9992 54.0066C25.9992 41.128 31.0487 29.8451 37.4233 22.551L60.5001 41.9258L30.7973 77.0284H30.7631Z" fill="#EA4335"/>
</g>
<g filter="url(#filter5_f_6_3597)">
<path d="M52.9246 108.712C57.2543 114.114 61.664 120.907 63.9717 125.01C66.782 130.343 67.9473 133.945 70.0379 140.396C71.2603 143.929 72.4255 145 74.8703 145C77.5436 145 78.7659 143.199 79.7027 140.396C81.6562 134.344 83.1642 129.739 85.5519 125.352C94.7597 108.028 109.771 95.7196 118.225 78.8521C118.225 78.8521 123.788 68.5493 123.788 54.1208C123.788 40.6724 118.305 31.3269 118.305 31.3269L52.9588 108.826L52.9246 108.712Z" fill="#34A853"/>
<path d="M30.7623 77.0286C36.0288 88.9954 46.0706 99.4806 52.9251 108.712L89.2538 65.7457C89.2538 65.7457 84.1244 72.4471 74.8594 72.4471C64.532 72.4471 56.1239 64.2413 56.1239 53.8701C56.1239 46.7356 60.385 41.7893 60.385 41.7893C33.6526 45.7554 35.1377 52.2175 30.6823 77.0058L30.7623 77.0286Z" fill="#FBBC04"/>
<path d="M89.7102 7.24512C101.82 11.1315 112.101 19.3259 118.27 31.2926L89.2532 65.8253C89.2532 65.8253 93.5144 60.8563 93.5144 53.7446C93.5144 43.1568 84.5579 35.1676 74.8931 35.1676C65.7195 35.1676 60.4987 41.7892 60.4987 41.7892C62.7264 36.729 85.746 8.96605 89.7444 7.25651L89.7102 7.24512Z" fill="#4285F4"/>
<path d="M37.3923 22.4373C44.6124 13.8668 57.2703 5 74.7492 5C83.1917 5 89.6006 7.2338 89.6006 7.2338L60.4691 41.7665C58.5041 40.7032 39.3344 25.8108 37.3923 22.3917V22.4373Z" fill="#1A73E8"/>
<path d="M30.7631 77.0284C30.7631 77.0284 25.9992 67.5917 25.9992 54.0066C25.9992 41.128 31.0487 29.8451 37.4233 22.551L60.5001 41.9258L30.7973 77.0284H30.7631Z" fill="#EA4335"/>
</g>
</g>
<defs>
<filter id="filter0_f_6_3597" x="-4.00079" y="-25" width="157.789" height="200" filterUnits="userSpaceOnUse" color-interpolation-filters="sRGB">
<feFlood flood-opacity="0" result="BackgroundImageFix"/>
<feBlend mode="normal" in="SourceGraphic" in2="BackgroundImageFix" result="shape"/>
<feGaussianBlur stdDeviation="15" result="effect1_foregroundBlur_6_3597"/>
</filter>
<filter id="filter1_f_6_3597" x="-4.00079" y="-25" width="157.789" height="200" filterUnits="userSpaceOnUse" color-interpolation-filters="sRGB">
<feFlood flood-opacity="0" result="BackgroundImageFix"/>
<feBlend mode="normal" in="SourceGraphic" in2="BackgroundImageFix" result="shape"/>
<feGaussianBlur stdDeviation="15" result="effect1_foregroundBlur_6_3597"/>
</filter>
<filter id="filter2_f_6_3597" x="-4.00079" y="-25" width="157.789" height="200" filterUnits="userSpaceOnUse" color-interpolation-filters="sRGB">
<feFlood flood-opacity="0" result="BackgroundImageFix"/>
<feBlend mode="normal" in="SourceGraphic" in2="BackgroundImageFix" result="shape"/>
<feGaussianBlur stdDeviation="15" result="effect1_foregroundBlur_6_3597"/>
</filter>
<filter id="filter3_f_6_3597" x="-4.00079" y="-25" width="157.789" height="200" filterUnits="userSpaceOnUse" color-interpolation-filters="sRGB">
<feFlood flood-opacity="0" result="BackgroundImageFix"/>
<feBlend mode="normal" in="SourceGraphic" in2="BackgroundImageFix" result="shape"/>
<feGaussianBlur stdDeviation="15" result="effect1_foregroundBlur_6_3597"/>
</filter>
<filter id="filter4_f_6_3597" x="-4.00079" y="-25" width="157.789" height="200" filterUnits="userSpaceOnUse" color-interpolation-filters="sRGB">
<feFlood flood-opacity="0" result="BackgroundImageFix"/>
<feBlend mode="normal" in="SourceGraphic" in2="BackgroundImageFix" result="shape"/>
<feGaussianBlur stdDeviation="15" result="effect1_foregroundBlur_6_3597"/>
</filter>
<filter id="filter5_f_6_3597" x="-4.00079" y="-25" width="157.789" height="200" filterUnits="userSpaceOnUse" color-interpolation-filters="sRGB">
<feFlood flood-opacity="0" result="BackgroundImageFix"/>
<feBlend mode="normal" in="SourceGraphic" in2="BackgroundImageFix" result="shape"/>
<feGaussianBlur stdDeviation="15" result="effect1_foregroundBlur_6_3597"/>
</filter>
</defs>
</svg>
