<svg width="150" height="150" viewBox="0 0 150 150" fill="none" xmlns="http://www.w3.org/2000/svg">
<mask id="mask0_6_3585" style="mask-type:alpha" maskUnits="userSpaceOnUse" x="5" y="5" width="140" height="140">
<path d="M44.6939 92.5L44.721 92.493C41.6381 87.1767 40.0112 81.1416 40.0043 74.9961C40.0032 73.9721 40.047 72.951 40.1351 71.9357C40.0474 72.9404 40 73.957 40 74.9842C40 74.9842 40.0032 74.9941 40.0043 74.9961C40.0043 74.9961 40.0054 74.9981 40.0043 74.9961C40.0064 81.2184 41.6278 87.0612 44.4767 92.1237L44.6939 92.5ZM40.184 71.4169C40.6076 67.3005 41.7602 63.27 43.6095 59.5199C46.6712 53.3114 51.5052 48.1503 57.5001 44.6891C62.8259 41.6142 68.8165 40.0244 74.8607 40.0002L75.0042 40.0001H75.1082C75.3411 40.0008 75.5741 40.0038 75.8072 40.0092H74.9958L74.9885 40.0363C81.1341 40.0245 87.1741 41.633 92.4998 44.6997C94.8649 46.0617 97.052 47.6898 99.022 49.5452C101.472 51.8568 103.596 54.5301 105.311 57.5C108.347 62.7594 109.956 68.7053 109.999 74.7494C109.873 55.5275 94.2515 39.9843 74.9999 39.9843C56.8744 39.9843 41.9713 53.7628 40.184 71.4169ZM105.307 92.5086C104.029 94.7141 102.515 96.7649 100.803 98.6318C102.51 96.7611 104.016 94.7028 105.289 92.4888L105.307 92.5086ZM106.118 91.0202C108.267 86.8598 109.605 82.2132 109.925 77.2891C109.61 82.1008 108.305 86.7722 106.118 91.0202ZM109.935 77.1293C109.936 77.1091 109.938 77.0889 109.939 77.0686C109.941 77.0402 109.942 77.0117 109.944 76.9832C109.941 77.0319 109.938 77.0806 109.935 77.1293ZM74.9999 102.708C90.3028 102.708 102.708 90.3028 102.708 74.9999C102.708 59.697 90.3028 47.2916 74.9999 47.2916C59.6971 47.2916 47.2916 59.697 47.2916 74.9999C47.2916 90.3028 59.6971 102.708 74.9999 102.708Z" fill="white"/>
<path d="M75.0042 40.0001H75.1082L75.8072 40.0092L135.616 40.0001C129.474 29.3583 120.639 20.5211 109.998 14.3772C99.3572 8.23328 87.2866 4.99914 74.9995 5C62.7125 5.00086 50.6399 8.23286 40.0001 14.3783C29.3603 20.5237 20.5285 29.3659 14.388 40.0085L44.4767 92.1237L44.6939 92.5L44.721 92.493C41.6381 87.1767 40.0112 81.1416 40.0043 74.9961C40.003 73.7975 40.0633 72.6029 40.184 71.4169C40.6822 66.5222 42.2097 61.7737 44.6817 57.4887C47.7526 52.1655 52.1727 47.7459 57.4962 44.6756C62.7783 41.6291 68.7647 40.0177 74.8607 40.0002C74.9057 40 74.9508 40.0092 74.9958 40.0092C74.9986 40.0092 75.0014 40.0001 75.0042 40.0001Z" fill="url(#paint0_linear_6_3585)"/>
<path d="M74.9999 102.708C90.3028 102.708 102.708 90.3028 102.708 74.9999C102.708 59.697 90.3028 47.2916 74.9999 47.2916C59.6971 47.2916 47.2916 59.697 47.2916 74.9999C47.2916 90.3028 59.6971 102.708 74.9999 102.708Z" fill="#1A73E8"/>
<path d="M105.307 92.5086L75.0011 145C87.2881 145.002 99.3589 141.768 110 135.625C120.641 129.482 129.477 120.646 135.62 110.004C141.763 99.3631 144.995 87.2921 144.993 75.0051C144.991 62.7181 141.754 50.6483 135.607 40.0092H75.8072L75.1082 40.0001H75.0042L74.9958 40.0092L74.9885 40.0363C81.1341 40.0245 87.1741 41.633 92.4998 44.6997C94.8649 46.0617 97.052 47.6898 99.022 49.5452C101.486 51.8655 103.615 54.5495 105.323 57.5042C108.398 62.8253 110.015 68.863 110.012 75.0085C110.01 80.5881 108.669 86.0763 106.118 91.0202C105.86 91.522 105.59 92.0191 105.307 92.5086Z" fill="url(#paint1_linear_6_3585)"/>
<path d="M44.6868 92.5092L14.3809 40.0178C8.2359 50.6577 5.00049 62.7281 5.00003 75.0151C4.99957 87.3021 8.23409 99.3727 14.3783 110.013C20.5226 120.654 29.36 129.489 40.002 135.63C50.6439 141.772 62.7141 145.004 75.0011 145L105.307 92.5086L105.289 92.4888C104.016 94.7028 102.51 96.7611 100.803 98.6318C98.4021 101.263 95.6029 103.523 92.4943 105.322C87.1755 108.401 81.1392 110.023 74.9937 110.025C68.8481 110.027 62.8107 108.409 57.4899 105.334C52.1691 102.259 47.753 97.8352 44.6868 92.5092Z" fill="url(#paint2_linear_6_3585)"/>
</mask>
<g mask="url(#mask0_6_3585)">
<g filter="url(#filter0_f_6_3585)">
<path d="M74.9999 109.984C94.3299 109.984 110 94.3143 110 74.9843C110 55.6544 94.3299 39.9844 74.9999 39.9844C55.67 39.9844 40 55.6544 40 74.9843C40 94.3143 55.67 109.984 74.9999 109.984Z" fill="white"/>
<path d="M75.0042 40.0001H135.616C129.474 29.3583 120.639 20.5211 109.998 14.3772C99.3573 8.23328 87.2866 4.99914 74.9995 5C62.7125 5.00086 50.6423 8.23668 40.0025 14.3821C29.3627 20.5275 20.5285 29.3659 14.388 40.0085L44.6939 92.5L44.721 92.493C41.6381 87.1767 40.0112 81.1416 40.0043 74.9961C39.9974 68.8506 41.6107 62.8119 44.6817 57.4887C47.7526 52.1655 52.1727 47.7459 57.4962 44.6756C62.8198 41.6052 68.8587 39.9925 75.0042 40.0001Z" fill="url(#paint3_linear_6_3585)"/>
<path d="M74.9999 102.708C90.3028 102.708 102.708 90.3027 102.708 74.9998C102.708 59.6969 90.3028 47.2915 74.9999 47.2915C59.6971 47.2915 47.2916 59.6969 47.2916 74.9998C47.2916 90.3027 59.6971 102.708 74.9999 102.708Z" fill="#1A73E8"/>
<path d="M105.307 92.5086L75.0011 145C87.2881 145.002 99.3589 141.769 110 135.625C120.641 129.482 129.477 120.646 135.62 110.004C141.763 99.3632 144.995 87.2922 144.993 75.0052C144.991 62.7182 141.754 50.6484 135.607 40.0093H74.9958L74.9886 40.0364C81.1341 40.0245 87.1741 41.6331 92.4998 44.6998C97.8254 47.7665 102.248 52.1831 105.323 57.5042C108.398 62.8254 110.015 68.8631 110.012 75.0086C110.009 81.1541 108.386 87.1903 105.307 92.5086Z" fill="url(#paint4_linear_6_3585)"/>
<path d="M44.6868 92.5091L14.3809 40.0176C8.2359 50.6576 5.00049 62.7279 5.00003 75.0149C4.99957 87.3019 8.23409 99.3725 14.3783 110.013C20.5226 120.653 29.36 129.489 40.002 135.63C50.6439 141.772 62.7153 145.003 75.0023 145L105.308 92.5085L105.289 92.4886C102.226 97.8167 97.813 102.243 92.4943 105.322C87.1755 108.401 81.1392 110.023 74.9937 110.025C68.8481 110.027 62.8107 108.409 57.4899 105.334C52.1691 102.259 47.753 97.835 44.6868 92.5091Z" fill="url(#paint5_linear_6_3585)"/>
</g>
<g filter="url(#filter1_f_6_3585)">
<path d="M74.9999 109.984C94.3299 109.984 110 94.3143 110 74.9843C110 55.6544 94.3299 39.9844 74.9999 39.9844C55.67 39.9844 40 55.6544 40 74.9843C40 94.3143 55.67 109.984 74.9999 109.984Z" fill="white"/>
<path d="M75.0042 40.0001H135.616C129.474 29.3583 120.639 20.5211 109.998 14.3772C99.3573 8.23328 87.2866 4.99914 74.9995 5C62.7125 5.00086 50.6423 8.23668 40.0025 14.3821C29.3627 20.5275 20.5285 29.3659 14.388 40.0085L44.6939 92.5L44.721 92.493C41.6381 87.1767 40.0112 81.1416 40.0043 74.9961C39.9974 68.8506 41.6107 62.8119 44.6817 57.4887C47.7526 52.1655 52.1727 47.7459 57.4962 44.6756C62.8198 41.6052 68.8587 39.9925 75.0042 40.0001Z" fill="url(#paint6_linear_6_3585)"/>
<path d="M74.9999 102.708C90.3028 102.708 102.708 90.3027 102.708 74.9998C102.708 59.6969 90.3028 47.2915 74.9999 47.2915C59.6971 47.2915 47.2916 59.6969 47.2916 74.9998C47.2916 90.3027 59.6971 102.708 74.9999 102.708Z" fill="#1A73E8"/>
<path d="M105.307 92.5086L75.0011 145C87.2881 145.002 99.3589 141.769 110 135.625C120.641 129.482 129.477 120.646 135.62 110.004C141.763 99.3632 144.995 87.2922 144.993 75.0052C144.991 62.7182 141.754 50.6484 135.607 40.0093H74.9958L74.9886 40.0364C81.1341 40.0245 87.1741 41.6331 92.4998 44.6998C97.8254 47.7665 102.248 52.1831 105.323 57.5042C108.398 62.8254 110.015 68.8631 110.012 75.0086C110.009 81.1541 108.386 87.1903 105.307 92.5086Z" fill="url(#paint7_linear_6_3585)"/>
<path d="M44.6868 92.5091L14.3809 40.0176C8.2359 50.6576 5.00049 62.7279 5.00003 75.0149C4.99957 87.3019 8.23409 99.3725 14.3783 110.013C20.5226 120.653 29.36 129.489 40.002 135.63C50.6439 141.772 62.7153 145.003 75.0023 145L105.308 92.5085L105.289 92.4886C102.226 97.8167 97.813 102.243 92.4943 105.322C87.1755 108.401 81.1392 110.023 74.9937 110.025C68.8481 110.027 62.8107 108.409 57.4899 105.334C52.1691 102.259 47.753 97.835 44.6868 92.5091Z" fill="url(#paint8_linear_6_3585)"/>
</g>
<g filter="url(#filter2_f_6_3585)">
<path d="M74.9999 109.984C94.3299 109.984 110 94.3143 110 74.9843C110 55.6544 94.3299 39.9844 74.9999 39.9844C55.67 39.9844 40 55.6544 40 74.9843C40 94.3143 55.67 109.984 74.9999 109.984Z" fill="white"/>
<path d="M75.0042 40.0001H135.616C129.474 29.3583 120.639 20.5211 109.998 14.3772C99.3573 8.23328 87.2866 4.99914 74.9995 5C62.7125 5.00086 50.6423 8.23668 40.0025 14.3821C29.3627 20.5275 20.5285 29.3659 14.388 40.0085L44.6939 92.5L44.721 92.493C41.6381 87.1767 40.0112 81.1416 40.0043 74.9961C39.9974 68.8506 41.6107 62.8119 44.6817 57.4887C47.7526 52.1655 52.1727 47.7459 57.4962 44.6756C62.8198 41.6052 68.8587 39.9925 75.0042 40.0001Z" fill="url(#paint9_linear_6_3585)"/>
<path d="M74.9999 102.708C90.3028 102.708 102.708 90.3027 102.708 74.9998C102.708 59.6969 90.3028 47.2915 74.9999 47.2915C59.6971 47.2915 47.2916 59.6969 47.2916 74.9998C47.2916 90.3027 59.6971 102.708 74.9999 102.708Z" fill="#1A73E8"/>
<path d="M105.307 92.5086L75.0011 145C87.2881 145.002 99.3589 141.769 110 135.625C120.641 129.482 129.477 120.646 135.62 110.004C141.763 99.3632 144.995 87.2922 144.993 75.0052C144.991 62.7182 141.754 50.6484 135.607 40.0093H74.9958L74.9886 40.0364C81.1341 40.0245 87.1741 41.6331 92.4998 44.6998C97.8254 47.7665 102.248 52.1831 105.323 57.5042C108.398 62.8254 110.015 68.8631 110.012 75.0086C110.009 81.1541 108.386 87.1903 105.307 92.5086Z" fill="url(#paint10_linear_6_3585)"/>
<path d="M44.6868 92.5091L14.3809 40.0176C8.2359 50.6576 5.00049 62.7279 5.00003 75.0149C4.99957 87.3019 8.23409 99.3725 14.3783 110.013C20.5226 120.653 29.36 129.489 40.002 135.63C50.6439 141.772 62.7153 145.003 75.0023 145L105.308 92.5085L105.289 92.4886C102.226 97.8167 97.813 102.243 92.4943 105.322C87.1755 108.401 81.1392 110.023 74.9937 110.025C68.8481 110.027 62.8107 108.409 57.4899 105.334C52.1691 102.259 47.753 97.835 44.6868 92.5091Z" fill="url(#paint11_linear_6_3585)"/>
</g>
<g filter="url(#filter3_f_6_3585)">
<path d="M74.9999 109.984C94.3299 109.984 110 94.3143 110 74.9843C110 55.6544 94.3299 39.9844 74.9999 39.9844C55.67 39.9844 40 55.6544 40 74.9843C40 94.3143 55.67 109.984 74.9999 109.984Z" fill="white"/>
<path d="M75.0042 40.0001H135.616C129.474 29.3583 120.639 20.5211 109.998 14.3772C99.3573 8.23328 87.2866 4.99914 74.9995 5C62.7125 5.00086 50.6423 8.23668 40.0025 14.3821C29.3627 20.5275 20.5285 29.3659 14.388 40.0085L44.6939 92.5L44.721 92.493C41.6381 87.1767 40.0112 81.1416 40.0043 74.9961C39.9974 68.8506 41.6107 62.8119 44.6817 57.4887C47.7526 52.1655 52.1727 47.7459 57.4962 44.6756C62.8198 41.6052 68.8587 39.9925 75.0042 40.0001Z" fill="url(#paint12_linear_6_3585)"/>
<path d="M74.9999 102.708C90.3028 102.708 102.708 90.3027 102.708 74.9998C102.708 59.6969 90.3028 47.2915 74.9999 47.2915C59.6971 47.2915 47.2916 59.6969 47.2916 74.9998C47.2916 90.3027 59.6971 102.708 74.9999 102.708Z" fill="#1A73E8"/>
<path d="M105.307 92.5086L75.0011 145C87.2881 145.002 99.3589 141.769 110 135.625C120.641 129.482 129.477 120.646 135.62 110.004C141.763 99.3632 144.995 87.2922 144.993 75.0052C144.991 62.7182 141.754 50.6484 135.607 40.0093H74.9958L74.9886 40.0364C81.1341 40.0245 87.1741 41.6331 92.4998 44.6998C97.8254 47.7665 102.248 52.1831 105.323 57.5042C108.398 62.8254 110.015 68.8631 110.012 75.0086C110.009 81.1541 108.386 87.1903 105.307 92.5086Z" fill="url(#paint13_linear_6_3585)"/>
<path d="M44.6868 92.5091L14.3809 40.0176C8.2359 50.6576 5.00049 62.7279 5.00003 75.0149C4.99957 87.3019 8.23409 99.3725 14.3783 110.013C20.5226 120.653 29.36 129.489 40.002 135.63C50.6439 141.772 62.7153 145.003 75.0023 145L105.308 92.5085L105.289 92.4886C102.226 97.8167 97.813 102.243 92.4943 105.322C87.1755 108.401 81.1392 110.023 74.9937 110.025C68.8481 110.027 62.8107 108.409 57.4899 105.334C52.1691 102.259 47.753 97.835 44.6868 92.5091Z" fill="url(#paint14_linear_6_3585)"/>
</g>
<g filter="url(#filter4_f_6_3585)">
<path d="M74.9999 109.984C94.3299 109.984 110 94.3143 110 74.9843C110 55.6544 94.3299 39.9844 74.9999 39.9844C55.67 39.9844 40 55.6544 40 74.9843C40 94.3143 55.67 109.984 74.9999 109.984Z" fill="white"/>
<path d="M75.0042 40.0001H135.616C129.474 29.3583 120.639 20.5211 109.998 14.3772C99.3573 8.23328 87.2866 4.99914 74.9995 5C62.7125 5.00086 50.6423 8.23668 40.0025 14.3821C29.3627 20.5275 20.5285 29.3659 14.388 40.0085L44.6939 92.5L44.721 92.493C41.6381 87.1767 40.0112 81.1416 40.0043 74.9961C39.9974 68.8506 41.6107 62.8119 44.6817 57.4887C47.7526 52.1655 52.1727 47.7459 57.4962 44.6756C62.8198 41.6052 68.8587 39.9925 75.0042 40.0001Z" fill="url(#paint15_linear_6_3585)"/>
<path d="M74.9999 102.708C90.3028 102.708 102.708 90.3027 102.708 74.9998C102.708 59.6969 90.3028 47.2915 74.9999 47.2915C59.6971 47.2915 47.2916 59.6969 47.2916 74.9998C47.2916 90.3027 59.6971 102.708 74.9999 102.708Z" fill="#1A73E8"/>
<path d="M105.307 92.5086L75.0011 145C87.2881 145.002 99.3589 141.769 110 135.625C120.641 129.482 129.477 120.646 135.62 110.004C141.763 99.3632 144.995 87.2922 144.993 75.0052C144.991 62.7182 141.754 50.6484 135.607 40.0093H74.9958L74.9886 40.0364C81.1341 40.0245 87.1741 41.6331 92.4998 44.6998C97.8254 47.7665 102.248 52.1831 105.323 57.5042C108.398 62.8254 110.015 68.8631 110.012 75.0086C110.009 81.1541 108.386 87.1903 105.307 92.5086Z" fill="url(#paint16_linear_6_3585)"/>
<path d="M44.6868 92.5091L14.3809 40.0176C8.2359 50.6576 5.00049 62.7279 5.00003 75.0149C4.99957 87.3019 8.23409 99.3725 14.3783 110.013C20.5226 120.653 29.36 129.489 40.002 135.63C50.6439 141.772 62.7153 145.003 75.0023 145L105.308 92.5085L105.289 92.4886C102.226 97.8167 97.813 102.243 92.4943 105.322C87.1755 108.401 81.1392 110.023 74.9937 110.025C68.8481 110.027 62.8107 108.409 57.4899 105.334C52.1691 102.259 47.753 97.835 44.6868 92.5091Z" fill="url(#paint17_linear_6_3585)"/>
</g>
<g filter="url(#filter5_f_6_3585)">
<path d="M74.9999 109.984C94.3299 109.984 110 94.3143 110 74.9843C110 55.6544 94.3299 39.9844 74.9999 39.9844C55.67 39.9844 40 55.6544 40 74.9843C40 94.3143 55.67 109.984 74.9999 109.984Z" fill="white"/>
<path d="M75.0042 40.0001H135.616C129.474 29.3583 120.639 20.5211 109.998 14.3772C99.3573 8.23328 87.2866 4.99914 74.9995 5C62.7125 5.00086 50.6423 8.23668 40.0025 14.3821C29.3627 20.5275 20.5285 29.3659 14.388 40.0085L44.6939 92.5L44.721 92.493C41.6381 87.1767 40.0112 81.1416 40.0043 74.9961C39.9974 68.8506 41.6107 62.8119 44.6817 57.4887C47.7526 52.1655 52.1727 47.7459 57.4962 44.6756C62.8198 41.6052 68.8587 39.9925 75.0042 40.0001Z" fill="url(#paint18_linear_6_3585)"/>
<path d="M74.9999 102.708C90.3028 102.708 102.708 90.3027 102.708 74.9998C102.708 59.6969 90.3028 47.2915 74.9999 47.2915C59.6971 47.2915 47.2916 59.6969 47.2916 74.9998C47.2916 90.3027 59.6971 102.708 74.9999 102.708Z" fill="#1A73E8"/>
<path d="M105.307 92.5086L75.0011 145C87.2881 145.002 99.3589 141.769 110 135.625C120.641 129.482 129.477 120.646 135.62 110.004C141.763 99.3632 144.995 87.2922 144.993 75.0052C144.991 62.7182 141.754 50.6484 135.607 40.0093H74.9958L74.9886 40.0364C81.1341 40.0245 87.1741 41.6331 92.4998 44.6998C97.8254 47.7665 102.248 52.1831 105.323 57.5042C108.398 62.8254 110.015 68.8631 110.012 75.0086C110.009 81.1541 108.386 87.1903 105.307 92.5086Z" fill="url(#paint19_linear_6_3585)"/>
<path d="M44.6868 92.5091L14.3809 40.0176C8.2359 50.6576 5.00049 62.7279 5.00003 75.0149C4.99957 87.3019 8.23409 99.3725 14.3783 110.013C20.5226 120.653 29.36 129.489 40.002 135.63C50.6439 141.772 62.7153 145.003 75.0023 145L105.308 92.5085L105.289 92.4886C102.226 97.8167 97.813 102.243 92.4943 105.322C87.1755 108.401 81.1392 110.023 74.9937 110.025C68.8481 110.027 62.8107 108.409 57.4899 105.334C52.1691 102.259 47.753 97.835 44.6868 92.5091Z" fill="url(#paint20_linear_6_3585)"/>
</g>
<g filter="url(#filter6_f_6_3585)">
<path d="M74.9999 109.984C94.3299 109.984 110 94.3143 110 74.9843C110 55.6544 94.3299 39.9844 74.9999 39.9844C55.67 39.9844 40 55.6544 40 74.9843C40 94.3143 55.67 109.984 74.9999 109.984Z" fill="white"/>
<path d="M75.0042 40.0001H135.616C129.474 29.3583 120.639 20.5211 109.998 14.3772C99.3573 8.23328 87.2866 4.99914 74.9995 5C62.7125 5.00086 50.6423 8.23668 40.0025 14.3821C29.3627 20.5275 20.5285 29.3659 14.388 40.0085L44.6939 92.5L44.721 92.493C41.6381 87.1767 40.0112 81.1416 40.0043 74.9961C39.9974 68.8506 41.6107 62.8119 44.6817 57.4887C47.7526 52.1655 52.1727 47.7459 57.4962 44.6756C62.8198 41.6052 68.8587 39.9925 75.0042 40.0001Z" fill="url(#paint21_linear_6_3585)"/>
<path d="M74.9999 102.708C90.3028 102.708 102.708 90.3027 102.708 74.9998C102.708 59.6969 90.3028 47.2915 74.9999 47.2915C59.6971 47.2915 47.2916 59.6969 47.2916 74.9998C47.2916 90.3027 59.6971 102.708 74.9999 102.708Z" fill="#1A73E8"/>
<path d="M105.307 92.5086L75.0011 145C87.2881 145.002 99.3589 141.769 110 135.625C120.641 129.482 129.477 120.646 135.62 110.004C141.763 99.3632 144.995 87.2922 144.993 75.0052C144.991 62.7182 141.754 50.6484 135.607 40.0093H74.9958L74.9886 40.0364C81.1341 40.0245 87.1741 41.6331 92.4998 44.6998C97.8254 47.7665 102.248 52.1831 105.323 57.5042C108.398 62.8254 110.015 68.8631 110.012 75.0086C110.009 81.1541 108.386 87.1903 105.307 92.5086Z" fill="url(#paint22_linear_6_3585)"/>
<path d="M44.6868 92.5091L14.3809 40.0176C8.2359 50.6576 5.00049 62.7279 5.00003 75.0149C4.99957 87.3019 8.23409 99.3725 14.3783 110.013C20.5226 120.653 29.36 129.489 40.002 135.63C50.6439 141.772 62.7153 145.003 75.0023 145L105.308 92.5085L105.289 92.4886C102.226 97.8167 97.813 102.243 92.4943 105.322C87.1755 108.401 81.1392 110.023 74.9937 110.025C68.8481 110.027 62.8107 108.409 57.4899 105.334C52.1691 102.259 47.753 97.835 44.6868 92.5091Z" fill="url(#paint23_linear_6_3585)"/>
</g>
</g>
<defs>
<filter id="filter0_f_6_3585" x="-19" y="-19" width="187.993" height="188" filterUnits="userSpaceOnUse" color-interpolation-filters="sRGB">
<feFlood flood-opacity="0" result="BackgroundImageFix"/>
<feBlend mode="normal" in="SourceGraphic" in2="BackgroundImageFix" result="shape"/>
<feGaussianBlur stdDeviation="12" result="effect1_foregroundBlur_6_3585"/>
</filter>
<filter id="filter1_f_6_3585" x="-19" y="-19" width="187.993" height="188" filterUnits="userSpaceOnUse" color-interpolation-filters="sRGB">
<feFlood flood-opacity="0" result="BackgroundImageFix"/>
<feBlend mode="normal" in="SourceGraphic" in2="BackgroundImageFix" result="shape"/>
<feGaussianBlur stdDeviation="12" result="effect1_foregroundBlur_6_3585"/>
</filter>
<filter id="filter2_f_6_3585" x="-19" y="-19" width="187.993" height="188" filterUnits="userSpaceOnUse" color-interpolation-filters="sRGB">
<feFlood flood-opacity="0" result="BackgroundImageFix"/>
<feBlend mode="normal" in="SourceGraphic" in2="BackgroundImageFix" result="shape"/>
<feGaussianBlur stdDeviation="12" result="effect1_foregroundBlur_6_3585"/>
</filter>
<filter id="filter3_f_6_3585" x="-19" y="-19" width="187.993" height="188" filterUnits="userSpaceOnUse" color-interpolation-filters="sRGB">
<feFlood flood-opacity="0" result="BackgroundImageFix"/>
<feBlend mode="normal" in="SourceGraphic" in2="BackgroundImageFix" result="shape"/>
<feGaussianBlur stdDeviation="12" result="effect1_foregroundBlur_6_3585"/>
</filter>
<filter id="filter4_f_6_3585" x="-19" y="-19" width="187.993" height="188" filterUnits="userSpaceOnUse" color-interpolation-filters="sRGB">
<feFlood flood-opacity="0" result="BackgroundImageFix"/>
<feBlend mode="normal" in="SourceGraphic" in2="BackgroundImageFix" result="shape"/>
<feGaussianBlur stdDeviation="12" result="effect1_foregroundBlur_6_3585"/>
</filter>
<filter id="filter5_f_6_3585" x="-19" y="-19" width="187.993" height="188" filterUnits="userSpaceOnUse" color-interpolation-filters="sRGB">
<feFlood flood-opacity="0" result="BackgroundImageFix"/>
<feBlend mode="normal" in="SourceGraphic" in2="BackgroundImageFix" result="shape"/>
<feGaussianBlur stdDeviation="12" result="effect1_foregroundBlur_6_3585"/>
</filter>
<filter id="filter6_f_6_3585" x="-19" y="-19" width="187.993" height="188" filterUnits="userSpaceOnUse" color-interpolation-filters="sRGB">
<feFlood flood-opacity="0" result="BackgroundImageFix"/>
<feBlend mode="normal" in="SourceGraphic" in2="BackgroundImageFix" result="shape"/>
<feGaussianBlur stdDeviation="12" result="effect1_foregroundBlur_6_3585"/>
</filter>
<linearGradient id="paint0_linear_6_3585" x1="5" y1="75.0002" x2="145" y2="75.0002" gradientUnits="userSpaceOnUse">
<stop stop-color="#D93025"/>
<stop offset="1" stop-color="#EA4335"/>
</linearGradient>
<linearGradient id="paint1_linear_6_3585" x1="-14.1" y1="143.752" x2="48.4821" y2="-18.8156" gradientUnits="userSpaceOnUse">
<stop stop-color="#FCC934"/>
<stop offset="1" stop-color="#FBBC04"/>
</linearGradient>
<linearGradient id="paint2_linear_6_3585" x1="82.5728" y1="140.629" x2="21.9587" y2="35.6426" gradientUnits="userSpaceOnUse">
<stop stop-color="#1E8E3E"/>
<stop offset="1" stop-color="#34A853"/>
</linearGradient>
<linearGradient id="paint3_linear_6_3585" x1="14.388" y1="48.7501" x2="135.616" y2="48.7501" gradientUnits="userSpaceOnUse">
<stop stop-color="#D93025"/>
<stop offset="1" stop-color="#EA4335"/>
</linearGradient>
<linearGradient id="paint4_linear_6_3585" x1="65.4379" y1="144.064" x2="126.052" y2="39.0777" gradientUnits="userSpaceOnUse">
<stop stop-color="#FCC934"/>
<stop offset="1" stop-color="#FBBC04"/>
</linearGradient>
<linearGradient id="paint5_linear_6_3585" x1="82.5728" y1="140.629" x2="21.9587" y2="35.6426" gradientUnits="userSpaceOnUse">
<stop stop-color="#1E8E3E"/>
<stop offset="1" stop-color="#34A853"/>
</linearGradient>
<linearGradient id="paint6_linear_6_3585" x1="14.388" y1="48.7501" x2="135.616" y2="48.7501" gradientUnits="userSpaceOnUse">
<stop stop-color="#D93025"/>
<stop offset="1" stop-color="#EA4335"/>
</linearGradient>
<linearGradient id="paint7_linear_6_3585" x1="65.4379" y1="144.064" x2="126.052" y2="39.0777" gradientUnits="userSpaceOnUse">
<stop stop-color="#FCC934"/>
<stop offset="1" stop-color="#FBBC04"/>
</linearGradient>
<linearGradient id="paint8_linear_6_3585" x1="82.5728" y1="140.629" x2="21.9587" y2="35.6426" gradientUnits="userSpaceOnUse">
<stop stop-color="#1E8E3E"/>
<stop offset="1" stop-color="#34A853"/>
</linearGradient>
<linearGradient id="paint9_linear_6_3585" x1="14.388" y1="48.7501" x2="135.616" y2="48.7501" gradientUnits="userSpaceOnUse">
<stop stop-color="#D93025"/>
<stop offset="1" stop-color="#EA4335"/>
</linearGradient>
<linearGradient id="paint10_linear_6_3585" x1="65.4379" y1="144.064" x2="126.052" y2="39.0777" gradientUnits="userSpaceOnUse">
<stop stop-color="#FCC934"/>
<stop offset="1" stop-color="#FBBC04"/>
</linearGradient>
<linearGradient id="paint11_linear_6_3585" x1="82.5728" y1="140.629" x2="21.9587" y2="35.6426" gradientUnits="userSpaceOnUse">
<stop stop-color="#1E8E3E"/>
<stop offset="1" stop-color="#34A853"/>
</linearGradient>
<linearGradient id="paint12_linear_6_3585" x1="14.388" y1="48.7501" x2="135.616" y2="48.7501" gradientUnits="userSpaceOnUse">
<stop stop-color="#D93025"/>
<stop offset="1" stop-color="#EA4335"/>
</linearGradient>
<linearGradient id="paint13_linear_6_3585" x1="65.4379" y1="144.064" x2="126.052" y2="39.0777" gradientUnits="userSpaceOnUse">
<stop stop-color="#FCC934"/>
<stop offset="1" stop-color="#FBBC04"/>
</linearGradient>
<linearGradient id="paint14_linear_6_3585" x1="82.5728" y1="140.629" x2="21.9587" y2="35.6426" gradientUnits="userSpaceOnUse">
<stop stop-color="#1E8E3E"/>
<stop offset="1" stop-color="#34A853"/>
</linearGradient>
<linearGradient id="paint15_linear_6_3585" x1="14.388" y1="48.7501" x2="135.616" y2="48.7501" gradientUnits="userSpaceOnUse">
<stop stop-color="#D93025"/>
<stop offset="1" stop-color="#EA4335"/>
</linearGradient>
<linearGradient id="paint16_linear_6_3585" x1="65.4379" y1="144.064" x2="126.052" y2="39.0777" gradientUnits="userSpaceOnUse">
<stop stop-color="#FCC934"/>
<stop offset="1" stop-color="#FBBC04"/>
</linearGradient>
<linearGradient id="paint17_linear_6_3585" x1="82.5728" y1="140.629" x2="21.9587" y2="35.6426" gradientUnits="userSpaceOnUse">
<stop stop-color="#1E8E3E"/>
<stop offset="1" stop-color="#34A853"/>
</linearGradient>
<linearGradient id="paint18_linear_6_3585" x1="14.388" y1="48.7501" x2="135.616" y2="48.7501" gradientUnits="userSpaceOnUse">
<stop stop-color="#D93025"/>
<stop offset="1" stop-color="#EA4335"/>
</linearGradient>
<linearGradient id="paint19_linear_6_3585" x1="65.4379" y1="144.064" x2="126.052" y2="39.0777" gradientUnits="userSpaceOnUse">
<stop stop-color="#FCC934"/>
<stop offset="1" stop-color="#FBBC04"/>
</linearGradient>
<linearGradient id="paint20_linear_6_3585" x1="82.5728" y1="140.629" x2="21.9587" y2="35.6426" gradientUnits="userSpaceOnUse">
<stop stop-color="#1E8E3E"/>
<stop offset="1" stop-color="#34A853"/>
</linearGradient>
<linearGradient id="paint21_linear_6_3585" x1="14.388" y1="48.7501" x2="135.616" y2="48.7501" gradientUnits="userSpaceOnUse">
<stop stop-color="#D93025"/>
<stop offset="1" stop-color="#EA4335"/>
</linearGradient>
<linearGradient id="paint22_linear_6_3585" x1="65.4379" y1="144.064" x2="126.052" y2="39.0777" gradientUnits="userSpaceOnUse">
<stop stop-color="#FCC934"/>
<stop offset="1" stop-color="#FBBC04"/>
</linearGradient>
<linearGradient id="paint23_linear_6_3585" x1="82.5728" y1="140.629" x2="21.9587" y2="35.6426" gradientUnits="userSpaceOnUse">
<stop stop-color="#1E8E3E"/>
<stop offset="1" stop-color="#34A853"/>
</linearGradient>
</defs>
</svg>
