<svg width="150" height="150" viewBox="0 0 150 150" fill="none" xmlns="http://www.w3.org/2000/svg">
<mask id="mask0_6_3589" style="mask-type:alpha" maskUnits="userSpaceOnUse" x="5" y="5" width="140" height="140">
<path d="M39.9998 36.8629C59.3158 36.8629 74.9997 52.5468 74.9997 71.8628V75.0821H8.21932C6.48584 75.0821 5.08255 73.6788 5 71.8628C5 52.5468 20.6839 36.8629 39.9998 36.8629Z" fill="#F6B704"/>
<path d="M113.137 39.9998C113.137 59.3158 97.453 74.9997 78.1371 74.9997H75.0003V8.21932C75.0003 6.48584 76.4036 5 78.1371 5C97.5356 5 113.137 20.6839 113.137 39.9998Z" fill="#E54335"/>
<path d="M110 113.219C90.6842 113.219 75.0003 97.535 75.0003 78.219V74.9997L141.781 74.9997C143.514 74.9997 145 76.403 145 78.1365C145 97.535 129.316 113.219 110 113.219Z" fill="#4280EF"/>
<path d="M36.8643 110C36.8643 90.6836 52.5482 74.9997 71.8642 74.9997L75.0003 74.9997L75.001 141.78C75.001 143.514 73.5977 144.917 71.7816 144.999C52.4657 144.999 36.8643 129.316 36.8643 110Z" fill="#34A353"/>
</mask>
<g mask="url(#mask0_6_3589)">
<g filter="url(#filter0_f_6_3589)">
<path d="M39.9995 36.8628C59.3154 36.8628 74.9993 52.5467 74.9993 71.8626V75.082H8.21896C6.48548 75.082 5.08218 73.6787 4.99963 71.8626C4.99963 52.5467 20.6835 36.8628 39.9995 36.8628Z" fill="#F6B704"/>
<path d="M113.137 39.9998C113.137 59.3158 97.4527 74.9997 78.1367 74.9997H74.9999V8.21932C74.9999 6.48584 76.4032 5 78.1367 5C97.5352 5 113.137 20.6839 113.137 39.9998Z" fill="#E54335"/>
<path d="M110 113.219C90.6838 113.219 74.9999 97.5348 74.9999 78.2188V74.9995H141.78C143.514 74.9995 145 76.4028 145 78.1363C145 97.5348 129.316 113.219 110 113.219Z" fill="#4280EF"/>
<path d="M36.864 109.999C36.864 90.6834 52.5478 74.9995 71.8638 74.9995H75.0006V141.78C75.0006 143.513 73.5973 144.917 71.7812 144.999C52.4653 144.999 36.864 129.315 36.864 109.999Z" fill="#34A353"/>
</g>
<g filter="url(#filter1_f_6_3589)">
<path d="M39.9995 36.8628C59.3154 36.8628 74.9993 52.5467 74.9993 71.8626V75.082H8.21896C6.48548 75.082 5.08218 73.6787 4.99963 71.8626C4.99963 52.5467 20.6835 36.8628 39.9995 36.8628Z" fill="#F6B704"/>
<path d="M113.137 39.9998C113.137 59.3158 97.4527 74.9997 78.1367 74.9997H74.9999V8.21932C74.9999 6.48584 76.4032 5 78.1367 5C97.5352 5 113.137 20.6839 113.137 39.9998Z" fill="#E54335"/>
<path d="M110 113.219C90.6838 113.219 74.9999 97.5348 74.9999 78.2188V74.9995H141.78C143.514 74.9995 145 76.4028 145 78.1363C145 97.5348 129.316 113.219 110 113.219Z" fill="#4280EF"/>
<path d="M36.864 109.999C36.864 90.6834 52.5478 74.9995 71.8638 74.9995H75.0006V141.78C75.0006 143.513 73.5973 144.917 71.7812 144.999C52.4653 144.999 36.864 129.315 36.864 109.999Z" fill="#34A353"/>
</g>
<g filter="url(#filter2_f_6_3589)">
<path d="M39.9995 36.8628C59.3154 36.8628 74.9993 52.5467 74.9993 71.8626V75.082H8.21896C6.48548 75.082 5.08218 73.6787 4.99963 71.8626C4.99963 52.5467 20.6835 36.8628 39.9995 36.8628Z" fill="#F6B704"/>
<path d="M113.137 39.9998C113.137 59.3158 97.4527 74.9997 78.1367 74.9997H74.9999V8.21932C74.9999 6.48584 76.4032 5 78.1367 5C97.5352 5 113.137 20.6839 113.137 39.9998Z" fill="#E54335"/>
<path d="M110 113.219C90.6838 113.219 74.9999 97.5348 74.9999 78.2188V74.9995H141.78C143.514 74.9995 145 76.4028 145 78.1363C145 97.5348 129.316 113.219 110 113.219Z" fill="#4280EF"/>
<path d="M36.864 109.999C36.864 90.6834 52.5478 74.9995 71.8638 74.9995H75.0006V141.78C75.0006 143.513 73.5973 144.917 71.7812 144.999C52.4653 144.999 36.864 129.315 36.864 109.999Z" fill="#34A353"/>
</g>
<g filter="url(#filter3_f_6_3589)">
<path d="M39.9995 36.8628C59.3154 36.8628 74.9993 52.5467 74.9993 71.8626V75.082H8.21896C6.48548 75.082 5.08218 73.6787 4.99963 71.8626C4.99963 52.5467 20.6835 36.8628 39.9995 36.8628Z" fill="#F6B704"/>
<path d="M113.137 39.9998C113.137 59.3158 97.4527 74.9997 78.1367 74.9997H74.9999V8.21932C74.9999 6.48584 76.4032 5 78.1367 5C97.5352 5 113.137 20.6839 113.137 39.9998Z" fill="#E54335"/>
<path d="M110 113.219C90.6838 113.219 74.9999 97.5348 74.9999 78.2188V74.9995H141.78C143.514 74.9995 145 76.4028 145 78.1363C145 97.5348 129.316 113.219 110 113.219Z" fill="#4280EF"/>
<path d="M36.864 109.999C36.864 90.6834 52.5478 74.9995 71.8638 74.9995H75.0006V141.78C75.0006 143.513 73.5973 144.917 71.7812 144.999C52.4653 144.999 36.864 129.315 36.864 109.999Z" fill="#34A353"/>
</g>
<g filter="url(#filter4_f_6_3589)">
<path d="M39.9995 36.8628C59.3154 36.8628 74.9993 52.5467 74.9993 71.8626V75.082H8.21896C6.48548 75.082 5.08218 73.6787 4.99963 71.8626C4.99963 52.5467 20.6835 36.8628 39.9995 36.8628Z" fill="#F6B704"/>
<path d="M113.137 39.9998C113.137 59.3158 97.4527 74.9997 78.1367 74.9997H74.9999V8.21932C74.9999 6.48584 76.4032 5 78.1367 5C97.5352 5 113.137 20.6839 113.137 39.9998Z" fill="#E54335"/>
<path d="M110 113.219C90.6838 113.219 74.9999 97.5348 74.9999 78.2188V74.9995H141.78C143.514 74.9995 145 76.4028 145 78.1363C145 97.5348 129.316 113.219 110 113.219Z" fill="#4280EF"/>
<path d="M36.864 109.999C36.864 90.6834 52.5478 74.9995 71.8638 74.9995H75.0006V141.78C75.0006 143.513 73.5973 144.917 71.7812 144.999C52.4653 144.999 36.864 129.315 36.864 109.999Z" fill="#34A353"/>
</g>
<g filter="url(#filter5_f_6_3589)">
<path d="M39.9995 36.8628C59.3154 36.8628 74.9993 52.5467 74.9993 71.8626V75.082H8.21896C6.48548 75.082 5.08218 73.6787 4.99963 71.8626C4.99963 52.5467 20.6835 36.8628 39.9995 36.8628Z" fill="#F6B704"/>
<path d="M113.137 39.9998C113.137 59.3158 97.4527 74.9997 78.1367 74.9997H74.9999V8.21932C74.9999 6.48584 76.4032 5 78.1367 5C97.5352 5 113.137 20.6839 113.137 39.9998Z" fill="#E54335"/>
<path d="M110 113.219C90.6838 113.219 74.9999 97.5348 74.9999 78.2188V74.9995H141.78C143.514 74.9995 145 76.4028 145 78.1363C145 97.5348 129.316 113.219 110 113.219Z" fill="#4280EF"/>
<path d="M36.864 109.999C36.864 90.6834 52.5478 74.9995 71.8638 74.9995H75.0006V141.78C75.0006 143.513 73.5973 144.917 71.7812 144.999C52.4653 144.999 36.864 129.315 36.864 109.999Z" fill="#34A353"/>
</g>
<g filter="url(#filter6_f_6_3589)">
<path d="M39.9995 36.8628C59.3154 36.8628 74.9993 52.5467 74.9993 71.8626V75.082H8.21896C6.48548 75.082 5.08218 73.6787 4.99963 71.8626C4.99963 52.5467 20.6835 36.8628 39.9995 36.8628Z" fill="#F6B704"/>
<path d="M113.137 39.9998C113.137 59.3158 97.4527 74.9997 78.1367 74.9997H74.9999V8.21932C74.9999 6.48584 76.4032 5 78.1367 5C97.5352 5 113.137 20.6839 113.137 39.9998Z" fill="#E54335"/>
<path d="M110 113.219C90.6838 113.219 74.9999 97.5348 74.9999 78.2188V74.9995H141.78C143.514 74.9995 145 76.4028 145 78.1363C145 97.5348 129.316 113.219 110 113.219Z" fill="#4280EF"/>
<path d="M36.864 109.999C36.864 90.6834 52.5478 74.9995 71.8638 74.9995H75.0006V141.78C75.0006 143.513 73.5973 144.917 71.7812 144.999C52.4653 144.999 36.864 129.315 36.864 109.999Z" fill="#34A353"/>
</g>
<g filter="url(#filter7_f_6_3589)">
<path d="M39.9995 36.8628C59.3154 36.8628 74.9993 52.5467 74.9993 71.8626V75.082H8.21896C6.48548 75.082 5.08218 73.6787 4.99963 71.8626C4.99963 52.5467 20.6835 36.8628 39.9995 36.8628Z" fill="#F6B704"/>
<path d="M113.137 39.9998C113.137 59.3158 97.4527 74.9997 78.1367 74.9997H74.9999V8.21932C74.9999 6.48584 76.4032 5 78.1367 5C97.5352 5 113.137 20.6839 113.137 39.9998Z" fill="#E54335"/>
<path d="M110 113.219C90.6838 113.219 74.9999 97.5348 74.9999 78.2188V74.9995H141.78C143.514 74.9995 145 76.4028 145 78.1363C145 97.5348 129.316 113.219 110 113.219Z" fill="#4280EF"/>
<path d="M36.864 109.999C36.864 90.6834 52.5478 74.9995 71.8638 74.9995H75.0006V141.78C75.0006 143.513 73.5973 144.917 71.7812 144.999C52.4653 144.999 36.864 129.315 36.864 109.999Z" fill="#34A353"/>
</g>
</g>
<defs>
<filter id="filter0_f_6_3589" x="-35.0004" y="-35" width="220" height="219.999" filterUnits="userSpaceOnUse" color-interpolation-filters="sRGB">
<feFlood flood-opacity="0" result="BackgroundImageFix"/>
<feBlend mode="normal" in="SourceGraphic" in2="BackgroundImageFix" result="shape"/>
<feGaussianBlur stdDeviation="20" result="effect1_foregroundBlur_6_3589"/>
</filter>
<filter id="filter1_f_6_3589" x="-35.0004" y="-35" width="220" height="219.999" filterUnits="userSpaceOnUse" color-interpolation-filters="sRGB">
<feFlood flood-opacity="0" result="BackgroundImageFix"/>
<feBlend mode="normal" in="SourceGraphic" in2="BackgroundImageFix" result="shape"/>
<feGaussianBlur stdDeviation="20" result="effect1_foregroundBlur_6_3589"/>
</filter>
<filter id="filter2_f_6_3589" x="-35.0004" y="-35" width="220" height="219.999" filterUnits="userSpaceOnUse" color-interpolation-filters="sRGB">
<feFlood flood-opacity="0" result="BackgroundImageFix"/>
<feBlend mode="normal" in="SourceGraphic" in2="BackgroundImageFix" result="shape"/>
<feGaussianBlur stdDeviation="20" result="effect1_foregroundBlur_6_3589"/>
</filter>
<filter id="filter3_f_6_3589" x="-35.0004" y="-35" width="220" height="219.999" filterUnits="userSpaceOnUse" color-interpolation-filters="sRGB">
<feFlood flood-opacity="0" result="BackgroundImageFix"/>
<feBlend mode="normal" in="SourceGraphic" in2="BackgroundImageFix" result="shape"/>
<feGaussianBlur stdDeviation="20" result="effect1_foregroundBlur_6_3589"/>
</filter>
<filter id="filter4_f_6_3589" x="-35.0004" y="-35" width="220" height="219.999" filterUnits="userSpaceOnUse" color-interpolation-filters="sRGB">
<feFlood flood-opacity="0" result="BackgroundImageFix"/>
<feBlend mode="normal" in="SourceGraphic" in2="BackgroundImageFix" result="shape"/>
<feGaussianBlur stdDeviation="20" result="effect1_foregroundBlur_6_3589"/>
</filter>
<filter id="filter5_f_6_3589" x="-35.0004" y="-35" width="220" height="219.999" filterUnits="userSpaceOnUse" color-interpolation-filters="sRGB">
<feFlood flood-opacity="0" result="BackgroundImageFix"/>
<feBlend mode="normal" in="SourceGraphic" in2="BackgroundImageFix" result="shape"/>
<feGaussianBlur stdDeviation="20" result="effect1_foregroundBlur_6_3589"/>
</filter>
<filter id="filter6_f_6_3589" x="-35.0004" y="-35" width="220" height="219.999" filterUnits="userSpaceOnUse" color-interpolation-filters="sRGB">
<feFlood flood-opacity="0" result="BackgroundImageFix"/>
<feBlend mode="normal" in="SourceGraphic" in2="BackgroundImageFix" result="shape"/>
<feGaussianBlur stdDeviation="20" result="effect1_foregroundBlur_6_3589"/>
</filter>
<filter id="filter7_f_6_3589" x="-35.0004" y="-35" width="220" height="219.999" filterUnits="userSpaceOnUse" color-interpolation-filters="sRGB">
<feFlood flood-opacity="0" result="BackgroundImageFix"/>
<feBlend mode="normal" in="SourceGraphic" in2="BackgroundImageFix" result="shape"/>
<feGaussianBlur stdDeviation="20" result="effect1_foregroundBlur_6_3589"/>
</filter>
</defs>
</svg>
