<svg width="150" height="150" viewBox="0 0 150 150" fill="none" xmlns="http://www.w3.org/2000/svg">
<mask id="mask0_6_3591" style="mask-type:alpha" maskUnits="userSpaceOnUse" x="5" y="12" width="141" height="126">
<path d="M15.5853 119.206L21.7595 129.871C23.0425 132.116 24.8867 133.88 27.0517 135.163L49.1024 96.9954H5.00101C5.00101 99.4811 5.64248 101.967 6.92543 104.212L15.5853 119.206Z" fill="#0066DA"/>
<path d="M75.0019 52.092L52.9512 13.9243C50.7862 15.2073 48.942 16.9713 47.6591 19.2165L6.92543 89.7787C5.66608 91.9754 5.00268 94.4631 5.00101 96.9953H49.1024L75.0019 52.092Z" fill="#00AC47"/>
<path d="M122.95 135.163C125.115 133.88 126.96 132.116 128.242 129.871L130.808 125.461L143.077 104.212C144.36 101.967 145.001 99.4811 145.001 96.9954H100.896L110.281 115.438L122.95 135.163Z" fill="#EA4335"/>
<path d="M74.9994 52.0922L97.0501 13.9244C94.8851 12.6415 92.3994 12 89.8335 12H60.1653C57.5994 12 55.1137 12.7217 52.9487 13.9244L74.9994 52.0922Z" fill="#00832D"/>
<path d="M100.901 96.9954H49.1024L27.0517 135.163C29.2167 136.446 31.7024 137.088 34.2683 137.088H115.736C118.301 137.088 120.787 136.366 122.952 135.163L100.901 96.9954Z" fill="#2684FC"/>
<path d="M122.709 54.4976L102.342 19.2165C101.059 16.9713 99.2151 15.2073 97.0501 13.9243L74.9994 52.092L100.899 96.9953H144.92C144.92 94.5095 144.279 92.0238 142.996 89.7787L122.709 54.4976Z" fill="#FFBA00"/>
</mask>
<g mask="url(#mask0_6_3591)">
<g filter="url(#filter0_f_6_3591)">
<path d="M15.5853 119.206L21.7595 129.871C23.0425 132.116 24.8867 133.88 27.0517 135.163L49.1024 96.9954H5.00101C5.00101 99.4811 5.64248 101.967 6.92543 104.212L15.5853 119.206Z" fill="#0066DA"/>
<path d="M75.0019 52.092L52.9512 13.9243C50.7862 15.2073 48.942 16.9713 47.6591 19.2165L6.92543 89.7787C5.66608 91.9754 5.00268 94.4631 5.00101 96.9953H49.1024L75.0019 52.092Z" fill="#00AC47"/>
<path d="M122.95 135.163C125.115 133.88 126.96 132.116 128.242 129.871L130.808 125.461L143.077 104.212C144.36 101.967 145.001 99.4811 145.001 96.9954H100.896L110.281 115.438L122.95 135.163Z" fill="#EA4335"/>
<path d="M74.9994 52.0922L97.0501 13.9244C94.8851 12.6415 92.3994 12 89.8335 12H60.1653C57.5994 12 55.1137 12.7217 52.9487 13.9244L74.9994 52.0922Z" fill="#00832D"/>
<path d="M100.901 96.9954H49.1024L27.0517 135.163C29.2167 136.446 31.7024 137.088 34.2683 137.088H115.736C118.301 137.088 120.787 136.366 122.952 135.163L100.901 96.9954Z" fill="#2684FC"/>
<path d="M122.709 54.4976L102.342 19.2165C101.059 16.9713 99.2151 15.2073 97.0501 13.9243L74.9994 52.092L100.899 96.9953H144.92C144.92 94.5095 144.279 92.0238 142.996 89.7787L122.709 54.4976Z" fill="#FFBA00"/>
</g>
<g filter="url(#filter1_f_6_3591)">
<path d="M15.5853 119.206L21.7595 129.871C23.0425 132.116 24.8867 133.88 27.0517 135.163L49.1024 96.9954H5.00101C5.00101 99.4811 5.64248 101.967 6.92543 104.212L15.5853 119.206Z" fill="#0066DA"/>
<path d="M75.0019 52.092L52.9512 13.9243C50.7862 15.2073 48.942 16.9713 47.6591 19.2165L6.92543 89.7787C5.66608 91.9754 5.00268 94.4631 5.00101 96.9953H49.1024L75.0019 52.092Z" fill="#00AC47"/>
<path d="M122.95 135.163C125.115 133.88 126.96 132.116 128.242 129.871L130.808 125.461L143.077 104.212C144.36 101.967 145.001 99.4811 145.001 96.9954H100.896L110.281 115.438L122.95 135.163Z" fill="#EA4335"/>
<path d="M74.9994 52.0922L97.0501 13.9244C94.8851 12.6415 92.3994 12 89.8335 12H60.1653C57.5994 12 55.1137 12.7217 52.9487 13.9244L74.9994 52.0922Z" fill="#00832D"/>
<path d="M100.901 96.9954H49.1024L27.0517 135.163C29.2167 136.446 31.7024 137.088 34.2683 137.088H115.736C118.301 137.088 120.787 136.366 122.952 135.163L100.901 96.9954Z" fill="#2684FC"/>
<path d="M122.709 54.4976L102.342 19.2165C101.059 16.9713 99.2151 15.2073 97.0501 13.9243L74.9994 52.092L100.899 96.9953H144.92C144.92 94.5095 144.279 92.0238 142.996 89.7787L122.709 54.4976Z" fill="#FFBA00"/>
</g>
<g filter="url(#filter2_f_6_3591)">
<path d="M15.5853 119.206L21.7595 129.871C23.0425 132.116 24.8867 133.88 27.0517 135.163L49.1024 96.9954H5.00101C5.00101 99.4811 5.64248 101.967 6.92543 104.212L15.5853 119.206Z" fill="#0066DA"/>
<path d="M75.0019 52.092L52.9512 13.9243C50.7862 15.2073 48.942 16.9713 47.6591 19.2165L6.92543 89.7787C5.66608 91.9754 5.00268 94.4631 5.00101 96.9953H49.1024L75.0019 52.092Z" fill="#00AC47"/>
<path d="M122.95 135.163C125.115 133.88 126.96 132.116 128.242 129.871L130.808 125.461L143.077 104.212C144.36 101.967 145.001 99.4811 145.001 96.9954H100.896L110.281 115.438L122.95 135.163Z" fill="#EA4335"/>
<path d="M74.9994 52.0922L97.0501 13.9244C94.8851 12.6415 92.3994 12 89.8335 12H60.1653C57.5994 12 55.1137 12.7217 52.9487 13.9244L74.9994 52.0922Z" fill="#00832D"/>
<path d="M100.901 96.9954H49.1024L27.0517 135.163C29.2167 136.446 31.7024 137.088 34.2683 137.088H115.736C118.301 137.088 120.787 136.366 122.952 135.163L100.901 96.9954Z" fill="#2684FC"/>
<path d="M122.709 54.4976L102.342 19.2165C101.059 16.9713 99.2151 15.2073 97.0501 13.9243L74.9994 52.092L100.899 96.9953H144.92C144.92 94.5095 144.279 92.0238 142.996 89.7787L122.709 54.4976Z" fill="#FFBA00"/>
</g>
<g filter="url(#filter3_f_6_3591)">
<path d="M15.5853 119.206L21.7595 129.871C23.0425 132.116 24.8867 133.88 27.0517 135.163L49.1024 96.9954H5.00101C5.00101 99.4811 5.64248 101.967 6.92543 104.212L15.5853 119.206Z" fill="#0066DA"/>
<path d="M75.0019 52.092L52.9512 13.9243C50.7862 15.2073 48.942 16.9713 47.6591 19.2165L6.92543 89.7787C5.66608 91.9754 5.00268 94.4631 5.00101 96.9953H49.1024L75.0019 52.092Z" fill="#00AC47"/>
<path d="M122.95 135.163C125.115 133.88 126.96 132.116 128.242 129.871L130.808 125.461L143.077 104.212C144.36 101.967 145.001 99.4811 145.001 96.9954H100.896L110.281 115.438L122.95 135.163Z" fill="#EA4335"/>
<path d="M74.9994 52.0922L97.0501 13.9244C94.8851 12.6415 92.3994 12 89.8335 12H60.1653C57.5994 12 55.1137 12.7217 52.9487 13.9244L74.9994 52.0922Z" fill="#00832D"/>
<path d="M100.901 96.9954H49.1024L27.0517 135.163C29.2167 136.446 31.7024 137.088 34.2683 137.088H115.736C118.301 137.088 120.787 136.366 122.952 135.163L100.901 96.9954Z" fill="#2684FC"/>
<path d="M122.709 54.4976L102.342 19.2165C101.059 16.9713 99.2151 15.2073 97.0501 13.9243L74.9994 52.092L100.899 96.9953H144.92C144.92 94.5095 144.279 92.0238 142.996 89.7787L122.709 54.4976Z" fill="#FFBA00"/>
</g>
<g filter="url(#filter4_f_6_3591)">
<path d="M15.5853 119.206L21.7595 129.871C23.0425 132.116 24.8867 133.88 27.0517 135.163L49.1024 96.9954H5.00101C5.00101 99.4811 5.64248 101.967 6.92543 104.212L15.5853 119.206Z" fill="#0066DA"/>
<path d="M75.0019 52.092L52.9512 13.9243C50.7862 15.2073 48.942 16.9713 47.6591 19.2165L6.92543 89.7787C5.66608 91.9754 5.00268 94.4631 5.00101 96.9953H49.1024L75.0019 52.092Z" fill="#00AC47"/>
<path d="M122.95 135.163C125.115 133.88 126.96 132.116 128.242 129.871L130.808 125.461L143.077 104.212C144.36 101.967 145.001 99.4811 145.001 96.9954H100.896L110.281 115.438L122.95 135.163Z" fill="#EA4335"/>
<path d="M74.9994 52.0922L97.0501 13.9244C94.8851 12.6415 92.3994 12 89.8335 12H60.1653C57.5994 12 55.1137 12.7217 52.9487 13.9244L74.9994 52.0922Z" fill="#00832D"/>
<path d="M100.901 96.9954H49.1024L27.0517 135.163C29.2167 136.446 31.7024 137.088 34.2683 137.088H115.736C118.301 137.088 120.787 136.366 122.952 135.163L100.901 96.9954Z" fill="#2684FC"/>
<path d="M122.709 54.4976L102.342 19.2165C101.059 16.9713 99.2151 15.2073 97.0501 13.9243L74.9994 52.092L100.899 96.9953H144.92C144.92 94.5095 144.279 92.0238 142.996 89.7787L122.709 54.4976Z" fill="#FFBA00"/>
</g>
<g filter="url(#filter5_f_6_3591)">
<path d="M15.5853 119.206L21.7595 129.871C23.0425 132.116 24.8867 133.88 27.0517 135.163L49.1024 96.9954H5.00101C5.00101 99.4811 5.64248 101.967 6.92543 104.212L15.5853 119.206Z" fill="#0066DA"/>
<path d="M75.0019 52.092L52.9512 13.9243C50.7862 15.2073 48.942 16.9713 47.6591 19.2165L6.92543 89.7787C5.66608 91.9754 5.00268 94.4631 5.00101 96.9953H49.1024L75.0019 52.092Z" fill="#00AC47"/>
<path d="M122.95 135.163C125.115 133.88 126.96 132.116 128.242 129.871L130.808 125.461L143.077 104.212C144.36 101.967 145.001 99.4811 145.001 96.9954H100.896L110.281 115.438L122.95 135.163Z" fill="#EA4335"/>
<path d="M74.9994 52.0922L97.0501 13.9244C94.8851 12.6415 92.3994 12 89.8335 12H60.1653C57.5994 12 55.1137 12.7217 52.9487 13.9244L74.9994 52.0922Z" fill="#00832D"/>
<path d="M100.901 96.9954H49.1024L27.0517 135.163C29.2167 136.446 31.7024 137.088 34.2683 137.088H115.736C118.301 137.088 120.787 136.366 122.952 135.163L100.901 96.9954Z" fill="#2684FC"/>
<path d="M122.709 54.4976L102.342 19.2165C101.059 16.9713 99.2151 15.2073 97.0501 13.9243L74.9994 52.092L100.899 96.9953H144.92C144.92 94.5095 144.279 92.0238 142.996 89.7787L122.709 54.4976Z" fill="#FFBA00"/>
</g>
</g>
<defs>
<filter id="filter0_f_6_3591" x="-24.999" y="-18" width="200" height="185.087" filterUnits="userSpaceOnUse" color-interpolation-filters="sRGB">
<feFlood flood-opacity="0" result="BackgroundImageFix"/>
<feBlend mode="normal" in="SourceGraphic" in2="BackgroundImageFix" result="shape"/>
<feGaussianBlur stdDeviation="15" result="effect1_foregroundBlur_6_3591"/>
</filter>
<filter id="filter1_f_6_3591" x="-24.999" y="-18" width="200" height="185.087" filterUnits="userSpaceOnUse" color-interpolation-filters="sRGB">
<feFlood flood-opacity="0" result="BackgroundImageFix"/>
<feBlend mode="normal" in="SourceGraphic" in2="BackgroundImageFix" result="shape"/>
<feGaussianBlur stdDeviation="15" result="effect1_foregroundBlur_6_3591"/>
</filter>
<filter id="filter2_f_6_3591" x="-24.999" y="-18" width="200" height="185.087" filterUnits="userSpaceOnUse" color-interpolation-filters="sRGB">
<feFlood flood-opacity="0" result="BackgroundImageFix"/>
<feBlend mode="normal" in="SourceGraphic" in2="BackgroundImageFix" result="shape"/>
<feGaussianBlur stdDeviation="15" result="effect1_foregroundBlur_6_3591"/>
</filter>
<filter id="filter3_f_6_3591" x="-24.999" y="-18" width="200" height="185.087" filterUnits="userSpaceOnUse" color-interpolation-filters="sRGB">
<feFlood flood-opacity="0" result="BackgroundImageFix"/>
<feBlend mode="normal" in="SourceGraphic" in2="BackgroundImageFix" result="shape"/>
<feGaussianBlur stdDeviation="15" result="effect1_foregroundBlur_6_3591"/>
</filter>
<filter id="filter4_f_6_3591" x="-24.999" y="-18" width="200" height="185.087" filterUnits="userSpaceOnUse" color-interpolation-filters="sRGB">
<feFlood flood-opacity="0" result="BackgroundImageFix"/>
<feBlend mode="normal" in="SourceGraphic" in2="BackgroundImageFix" result="shape"/>
<feGaussianBlur stdDeviation="15" result="effect1_foregroundBlur_6_3591"/>
</filter>
<filter id="filter5_f_6_3591" x="-24.999" y="-18" width="200" height="185.087" filterUnits="userSpaceOnUse" color-interpolation-filters="sRGB">
<feFlood flood-opacity="0" result="BackgroundImageFix"/>
<feBlend mode="normal" in="SourceGraphic" in2="BackgroundImageFix" result="shape"/>
<feGaussianBlur stdDeviation="15" result="effect1_foregroundBlur_6_3591"/>
</filter>
</defs>
</svg>
