<svg width="150" height="150" viewBox="0 0 150 150" fill="none" xmlns="http://www.w3.org/2000/svg">
<mask id="mask0_6_3601" style="mask-type:alpha" maskUnits="userSpaceOnUse" x="7" y="5" width="136" height="140">
<path d="M71.9529 5.56177C72.7302 5.29996 73.4992 4.9236 74.346 5.0136C74.9924 5.09542 75.7656 4.83769 76.3383 5.20178C77.889 5.55448 79.2958 6.37059 80.3718 7.54172C85.0435 12.2243 89.7193 16.9042 94.3992 21.5814C94.905 22.0472 95.3779 22.5475 95.8146 23.0786C90.5661 28.4335 85.2235 33.6943 79.9382 39.0328C78.2037 40.7468 76.5142 42.5018 74.7551 44.1872C72.4315 46.3758 70.2348 48.6871 67.9603 50.9288C57.6733 61.2513 47.3822 71.5629 37.087 81.8635C32.2884 86.7275 27.4286 91.5383 22.6096 96.3777C17.4061 101.569 12.2271 106.793 7.00725 111.968C7.00725 100.624 7.00725 89.2761 7.00725 77.9323C7.00725 75.7887 6.97452 73.6492 7.04815 71.5097C7.0277 71.0761 7.35497 70.7324 7.33452 70.2824C7.63723 69.7711 7.90723 69.2434 8.20176 68.732C8.98428 67.7814 9.82738 66.8823 10.7258 66.0403C30.1926 46.5326 49.6648 27.0331 69.1425 7.54172C69.9065 6.66533 70.8705 5.98614 71.9529 5.56177Z" fill="#EC5043"/>
<path d="M79.9439 39.0043C85.2292 33.6862 90.58 28.4255 95.8203 23.0501C110.097 37.4171 124.407 51.754 138.749 66.0609C140.038 67.3904 141.613 68.6095 142.116 70.4831C142.607 71.7103 142.456 73.0316 142.48 74.3121C142.48 95.3115 142.48 116.3 142.48 137.278C142.795 141.418 138.847 145.288 134.708 144.96H112.384C112.355 134.93 112.384 124.915 112.384 114.872C112.403 103.846 112.403 92.8216 112.384 81.7982C103.087 72.5257 93.7995 63.2355 84.5215 53.9276C81.2816 50.6549 77.9762 47.4395 74.7772 44.1423C76.5199 42.4815 78.2135 40.7265 79.9439 39.0043Z" fill="#4586F7"/>
<path d="M22.6125 96.3779C27.4356 91.5384 32.2914 86.7276 37.0899 81.8637C37.1308 92.8761 37.0899 103.889 37.1144 114.901C37.1144 124.932 37.1144 134.946 37.1144 144.989C29.2764 144.989 21.4385 144.989 13.6005 144.989C10.3278 144.58 7.46425 141.823 7.02654 138.521C7.00199 129.669 7.02654 120.82 7.02654 111.972C12.23 106.793 17.409 101.569 22.6125 96.3779Z" fill="#FDC00D"/>
<path d="M37.1144 114.901C62.2047 114.901 87.2878 114.901 112.364 114.901C112.389 124.932 112.364 134.946 112.364 144.989L37.1144 144.989C37.1144 134.958 37.094 124.911 37.1144 114.901Z" fill="#3BAB59"/>
</mask>
<g mask="url(#mask0_6_3601)">
<g filter="url(#filter0_f_6_3601)">
<path d="M71.9567 5.56177C70.8717 5.98382 69.9048 6.66166 69.1381 7.53763C49.6631 27.0426 30.1909 46.5421 10.7214 66.0362C9.82294 66.8782 8.97984 67.7773 8.19732 68.7279C7.90279 69.2434 7.63279 69.7711 7.33008 70.2784C7.33008 70.712 7.02327 71.0556 7.04372 71.5056C6.97009 73.6451 7.01508 75.7887 7.00281 77.9282C7.00281 89.272 7.00281 100.616 7.00281 111.964C7.00281 120.812 7.00281 129.665 7.00281 138.513C7.41189 141.81 10.3 144.567 13.5767 144.981C21.4147 144.981 29.2527 144.981 37.0907 144.981H134.726C138.85 145.308 142.797 141.442 142.499 137.298C142.499 116.299 142.499 95.31 142.499 74.3323C142.478 73.0519 142.625 71.7224 142.134 70.5033C141.631 68.6298 140.06 67.4107 138.768 66.0812C124.453 51.7497 110.138 37.4155 95.8224 23.0786C95.3857 22.5475 94.9128 22.0472 94.407 21.5814C89.7299 16.9015 85.0541 12.2216 80.3796 7.54172C79.3037 6.37059 77.8969 5.55448 76.3461 5.20178C75.7693 4.83769 75.0002 5.09542 74.3539 5.0136C73.5234 4.9236 72.7339 5.29996 71.9567 5.56177Z" fill="white"/>
<path d="M67.9656 50.9084C70.2483 48.6707 72.4368 46.3676 74.7481 44.1667C77.9594 47.4639 81.2484 50.6834 84.4924 53.952C93.7813 63.2245 103.069 72.5147 112.355 81.8226C112.355 92.846 112.355 103.871 112.355 114.897C87.2646 114.897 62.1812 114.897 37.1045 114.897C37.0759 103.884 37.1045 92.8719 37.08 81.8595C47.3506 71.5152 57.6458 61.1982 67.9656 50.9084Z" fill="white"/>
<path d="M71.9531 5.56177C72.7303 5.29996 73.4994 4.9236 74.3462 5.0136C74.9925 5.09542 75.7657 4.83769 76.3384 5.20178C77.8892 5.55448 79.296 6.37059 80.372 7.54172C85.0437 12.2243 89.7195 16.9042 94.3993 21.5814C94.9051 22.0472 95.378 22.5475 95.8148 23.0786C90.5662 28.4335 85.2237 33.6943 79.9383 39.0328C78.2038 40.7468 76.5143 42.5018 74.7553 44.1872C72.4317 46.3758 70.2349 48.6871 67.9604 50.9288C57.6734 61.2513 47.3823 71.5629 37.0871 81.8635C32.2886 86.7275 27.4287 91.5383 22.6097 96.3777C17.4062 101.569 12.2273 106.793 7.0074 111.968C7.0074 100.624 7.0074 89.2761 7.0074 77.9323C7.0074 75.7887 6.97467 73.6492 7.04831 71.5097C7.02785 71.0761 7.35512 70.7324 7.33467 70.2824C7.63739 69.7711 7.90738 69.2434 8.20192 68.732C8.98444 67.7814 9.82753 66.8823 10.7259 66.0403C30.1927 46.5326 49.665 27.0331 69.1427 7.54172C69.9066 6.66533 70.8707 5.98614 71.9531 5.56177Z" fill="#EC5043"/>
<path d="M79.944 39.0042C85.2294 33.6862 90.5801 28.4254 95.8205 23.05C110.097 37.417 124.407 51.7539 138.749 66.0608C140.038 67.3903 141.613 68.6094 142.116 70.483C142.607 71.7102 142.456 73.0315 142.48 74.312C142.48 95.3115 142.48 116.3 142.48 137.278C142.795 141.418 138.848 145.288 134.708 144.96H112.384C112.356 134.93 112.384 124.915 112.384 114.872C112.403 103.846 112.403 92.8215 112.384 81.7981C103.087 72.5256 93.7996 63.2354 84.5217 53.9275C81.2817 50.6548 77.9764 47.4394 74.7773 44.1423C76.52 42.4814 78.2136 40.7264 79.944 39.0042Z" fill="#4586F7"/>
<path d="M22.6127 96.378C27.4357 91.5385 32.2915 86.7277 37.09 81.8638C37.1309 92.8762 37.09 103.889 37.1146 114.901C37.1146 124.932 37.1146 134.946 37.1146 144.989C29.2766 144.989 21.4386 144.989 13.6006 144.989C10.328 144.58 7.4644 141.823 7.02669 138.521C7.00214 129.669 7.02669 120.821 7.02669 111.972C12.2302 106.793 17.4092 101.569 22.6127 96.378Z" fill="#FDC00D"/>
<path d="M37.1142 114.901C62.2045 114.901 87.288 114.901 112.365 114.901C112.389 124.932 112.365 134.946 112.365 144.989H37.1142C37.1142 134.958 37.0937 124.911 37.1142 114.901Z" fill="#3BAB59"/>
</g>
<g filter="url(#filter1_f_6_3601)">
<path d="M71.9567 5.56177C70.8717 5.98382 69.9048 6.66166 69.1381 7.53763C49.6631 27.0426 30.1909 46.5421 10.7214 66.0362C9.82294 66.8782 8.97984 67.7773 8.19732 68.7279C7.90279 69.2434 7.63279 69.7711 7.33008 70.2784C7.33008 70.712 7.02327 71.0556 7.04372 71.5056C6.97009 73.6451 7.01508 75.7887 7.00281 77.9282C7.00281 89.272 7.00281 100.616 7.00281 111.964C7.00281 120.812 7.00281 129.665 7.00281 138.513C7.41189 141.81 10.3 144.567 13.5767 144.981C21.4147 144.981 29.2527 144.981 37.0907 144.981H134.726C138.85 145.308 142.797 141.442 142.499 137.298C142.499 116.299 142.499 95.31 142.499 74.3323C142.478 73.0519 142.625 71.7224 142.134 70.5033C141.631 68.6298 140.06 67.4107 138.768 66.0812C124.453 51.7497 110.138 37.4155 95.8224 23.0786C95.3857 22.5475 94.9128 22.0472 94.407 21.5814C89.7299 16.9015 85.0541 12.2216 80.3796 7.54172C79.3037 6.37059 77.8969 5.55448 76.3461 5.20178C75.7693 4.83769 75.0002 5.09542 74.3539 5.0136C73.5234 4.9236 72.7339 5.29996 71.9567 5.56177Z" fill="white"/>
<path d="M67.9656 50.9084C70.2483 48.6707 72.4368 46.3676 74.7481 44.1667C77.9594 47.4639 81.2484 50.6834 84.4924 53.952C93.7813 63.2245 103.069 72.5147 112.355 81.8226C112.355 92.846 112.355 103.871 112.355 114.897C87.2646 114.897 62.1812 114.897 37.1045 114.897C37.0759 103.884 37.1045 92.8719 37.08 81.8595C47.3506 71.5152 57.6458 61.1982 67.9656 50.9084Z" fill="white"/>
<path d="M71.9531 5.56177C72.7303 5.29996 73.4994 4.9236 74.3462 5.0136C74.9925 5.09542 75.7657 4.83769 76.3384 5.20178C77.8892 5.55448 79.296 6.37059 80.372 7.54172C85.0437 12.2243 89.7195 16.9042 94.3993 21.5814C94.9051 22.0472 95.378 22.5475 95.8148 23.0786C90.5662 28.4335 85.2237 33.6943 79.9383 39.0328C78.2038 40.7468 76.5143 42.5018 74.7553 44.1872C72.4317 46.3758 70.2349 48.6871 67.9604 50.9288C57.6734 61.2513 47.3823 71.5629 37.0871 81.8635C32.2886 86.7275 27.4287 91.5383 22.6097 96.3777C17.4062 101.569 12.2273 106.793 7.0074 111.968C7.0074 100.624 7.0074 89.2761 7.0074 77.9323C7.0074 75.7887 6.97467 73.6492 7.04831 71.5097C7.02785 71.0761 7.35512 70.7324 7.33467 70.2824C7.63739 69.7711 7.90738 69.2434 8.20192 68.732C8.98444 67.7814 9.82753 66.8823 10.7259 66.0403C30.1927 46.5326 49.665 27.0331 69.1427 7.54172C69.9066 6.66533 70.8707 5.98614 71.9531 5.56177Z" fill="#EC5043"/>
<path d="M79.944 39.0042C85.2294 33.6862 90.5801 28.4254 95.8205 23.05C110.097 37.417 124.407 51.7539 138.749 66.0608C140.038 67.3903 141.613 68.6094 142.116 70.483C142.607 71.7102 142.456 73.0315 142.48 74.312C142.48 95.3115 142.48 116.3 142.48 137.278C142.795 141.418 138.848 145.288 134.708 144.96H112.384C112.356 134.93 112.384 124.915 112.384 114.872C112.403 103.846 112.403 92.8215 112.384 81.7981C103.087 72.5256 93.7996 63.2354 84.5217 53.9275C81.2817 50.6548 77.9764 47.4394 74.7773 44.1423C76.52 42.4814 78.2136 40.7264 79.944 39.0042Z" fill="#4586F7"/>
<path d="M22.6127 96.378C27.4357 91.5385 32.2915 86.7277 37.09 81.8638C37.1309 92.8762 37.09 103.889 37.1146 114.901C37.1146 124.932 37.1146 134.946 37.1146 144.989C29.2766 144.989 21.4386 144.989 13.6006 144.989C10.328 144.58 7.4644 141.823 7.02669 138.521C7.00214 129.669 7.02669 120.821 7.02669 111.972C12.2302 106.793 17.4092 101.569 22.6127 96.378Z" fill="#FDC00D"/>
<path d="M37.1142 114.901C62.2045 114.901 87.288 114.901 112.365 114.901C112.389 124.932 112.365 134.946 112.365 144.989H37.1142C37.1142 134.958 37.0937 124.911 37.1142 114.901Z" fill="#3BAB59"/>
</g>
<g filter="url(#filter2_f_6_3601)">
<path d="M71.9567 5.56177C70.8717 5.98382 69.9048 6.66166 69.1381 7.53763C49.6631 27.0426 30.1909 46.5421 10.7214 66.0362C9.82294 66.8782 8.97984 67.7773 8.19732 68.7279C7.90279 69.2434 7.63279 69.7711 7.33008 70.2784C7.33008 70.712 7.02327 71.0556 7.04372 71.5056C6.97009 73.6451 7.01508 75.7887 7.00281 77.9282C7.00281 89.272 7.00281 100.616 7.00281 111.964C7.00281 120.812 7.00281 129.665 7.00281 138.513C7.41189 141.81 10.3 144.567 13.5767 144.981C21.4147 144.981 29.2527 144.981 37.0907 144.981H134.726C138.85 145.308 142.797 141.442 142.499 137.298C142.499 116.299 142.499 95.31 142.499 74.3323C142.478 73.0519 142.625 71.7224 142.134 70.5033C141.631 68.6298 140.06 67.4107 138.768 66.0812C124.453 51.7497 110.138 37.4155 95.8224 23.0786C95.3857 22.5475 94.9128 22.0472 94.407 21.5814C89.7299 16.9015 85.0541 12.2216 80.3796 7.54172C79.3037 6.37059 77.8969 5.55448 76.3461 5.20178C75.7693 4.83769 75.0002 5.09542 74.3539 5.0136C73.5234 4.9236 72.7339 5.29996 71.9567 5.56177Z" fill="white"/>
<path d="M67.9656 50.9084C70.2483 48.6707 72.4368 46.3676 74.7481 44.1667C77.9594 47.4639 81.2484 50.6834 84.4924 53.952C93.7813 63.2245 103.069 72.5147 112.355 81.8226C112.355 92.846 112.355 103.871 112.355 114.897C87.2646 114.897 62.1812 114.897 37.1045 114.897C37.0759 103.884 37.1045 92.8719 37.08 81.8595C47.3506 71.5152 57.6458 61.1982 67.9656 50.9084Z" fill="white"/>
<path d="M71.9531 5.56177C72.7303 5.29996 73.4994 4.9236 74.3462 5.0136C74.9925 5.09542 75.7657 4.83769 76.3384 5.20178C77.8892 5.55448 79.296 6.37059 80.372 7.54172C85.0437 12.2243 89.7195 16.9042 94.3993 21.5814C94.9051 22.0472 95.378 22.5475 95.8148 23.0786C90.5662 28.4335 85.2237 33.6943 79.9383 39.0328C78.2038 40.7468 76.5143 42.5018 74.7553 44.1872C72.4317 46.3758 70.2349 48.6871 67.9604 50.9288C57.6734 61.2513 47.3823 71.5629 37.0871 81.8635C32.2886 86.7275 27.4287 91.5383 22.6097 96.3777C17.4062 101.569 12.2273 106.793 7.0074 111.968C7.0074 100.624 7.0074 89.2761 7.0074 77.9323C7.0074 75.7887 6.97467 73.6492 7.04831 71.5097C7.02785 71.0761 7.35512 70.7324 7.33467 70.2824C7.63739 69.7711 7.90738 69.2434 8.20192 68.732C8.98444 67.7814 9.82753 66.8823 10.7259 66.0403C30.1927 46.5326 49.665 27.0331 69.1427 7.54172C69.9066 6.66533 70.8707 5.98614 71.9531 5.56177Z" fill="#EC5043"/>
<path d="M79.944 39.0042C85.2294 33.6862 90.5801 28.4254 95.8205 23.05C110.097 37.417 124.407 51.7539 138.749 66.0608C140.038 67.3903 141.613 68.6094 142.116 70.483C142.607 71.7102 142.456 73.0315 142.48 74.312C142.48 95.3115 142.48 116.3 142.48 137.278C142.795 141.418 138.848 145.288 134.708 144.96H112.384C112.356 134.93 112.384 124.915 112.384 114.872C112.403 103.846 112.403 92.8215 112.384 81.7981C103.087 72.5256 93.7996 63.2354 84.5217 53.9275C81.2817 50.6548 77.9764 47.4394 74.7773 44.1423C76.52 42.4814 78.2136 40.7264 79.944 39.0042Z" fill="#4586F7"/>
<path d="M22.6127 96.378C27.4357 91.5385 32.2915 86.7277 37.09 81.8638C37.1309 92.8762 37.09 103.889 37.1146 114.901C37.1146 124.932 37.1146 134.946 37.1146 144.989C29.2766 144.989 21.4386 144.989 13.6006 144.989C10.328 144.58 7.4644 141.823 7.02669 138.521C7.00214 129.669 7.02669 120.821 7.02669 111.972C12.2302 106.793 17.4092 101.569 22.6127 96.378Z" fill="#FDC00D"/>
<path d="M37.1142 114.901C62.2045 114.901 87.288 114.901 112.365 114.901C112.389 124.932 112.365 134.946 112.365 144.989H37.1142C37.1142 134.958 37.0937 124.911 37.1142 114.901Z" fill="#3BAB59"/>
</g>
<g filter="url(#filter3_f_6_3601)">
<path d="M71.9567 5.56177C70.8717 5.98382 69.9048 6.66166 69.1381 7.53763C49.6631 27.0426 30.1909 46.5421 10.7214 66.0362C9.82294 66.8782 8.97984 67.7773 8.19732 68.7279C7.90279 69.2434 7.63279 69.7711 7.33008 70.2784C7.33008 70.712 7.02327 71.0556 7.04372 71.5056C6.97009 73.6451 7.01508 75.7887 7.00281 77.9282C7.00281 89.272 7.00281 100.616 7.00281 111.964C7.00281 120.812 7.00281 129.665 7.00281 138.513C7.41189 141.81 10.3 144.567 13.5767 144.981C21.4147 144.981 29.2527 144.981 37.0907 144.981H134.726C138.85 145.308 142.797 141.442 142.499 137.298C142.499 116.299 142.499 95.31 142.499 74.3323C142.478 73.0519 142.625 71.7224 142.134 70.5033C141.631 68.6298 140.06 67.4107 138.768 66.0812C124.453 51.7497 110.138 37.4155 95.8224 23.0786C95.3857 22.5475 94.9128 22.0472 94.407 21.5814C89.7299 16.9015 85.0541 12.2216 80.3796 7.54172C79.3037 6.37059 77.8969 5.55448 76.3461 5.20178C75.7693 4.83769 75.0002 5.09542 74.3539 5.0136C73.5234 4.9236 72.7339 5.29996 71.9567 5.56177Z" fill="white"/>
<path d="M67.9656 50.9084C70.2483 48.6707 72.4368 46.3676 74.7481 44.1667C77.9594 47.4639 81.2484 50.6834 84.4924 53.952C93.7813 63.2245 103.069 72.5147 112.355 81.8226C112.355 92.846 112.355 103.871 112.355 114.897C87.2646 114.897 62.1812 114.897 37.1045 114.897C37.0759 103.884 37.1045 92.8719 37.08 81.8595C47.3506 71.5152 57.6458 61.1982 67.9656 50.9084Z" fill="white"/>
<path d="M71.9531 5.56177C72.7303 5.29996 73.4994 4.9236 74.3462 5.0136C74.9925 5.09542 75.7657 4.83769 76.3384 5.20178C77.8892 5.55448 79.296 6.37059 80.372 7.54172C85.0437 12.2243 89.7195 16.9042 94.3993 21.5814C94.9051 22.0472 95.378 22.5475 95.8148 23.0786C90.5662 28.4335 85.2237 33.6943 79.9383 39.0328C78.2038 40.7468 76.5143 42.5018 74.7553 44.1872C72.4317 46.3758 70.2349 48.6871 67.9604 50.9288C57.6734 61.2513 47.3823 71.5629 37.0871 81.8635C32.2886 86.7275 27.4287 91.5383 22.6097 96.3777C17.4062 101.569 12.2273 106.793 7.0074 111.968C7.0074 100.624 7.0074 89.2761 7.0074 77.9323C7.0074 75.7887 6.97467 73.6492 7.04831 71.5097C7.02785 71.0761 7.35512 70.7324 7.33467 70.2824C7.63739 69.7711 7.90738 69.2434 8.20192 68.732C8.98444 67.7814 9.82753 66.8823 10.7259 66.0403C30.1927 46.5326 49.665 27.0331 69.1427 7.54172C69.9066 6.66533 70.8707 5.98614 71.9531 5.56177Z" fill="#EC5043"/>
<path d="M79.944 39.0042C85.2294 33.6862 90.5801 28.4254 95.8205 23.05C110.097 37.417 124.407 51.7539 138.749 66.0608C140.038 67.3903 141.613 68.6094 142.116 70.483C142.607 71.7102 142.456 73.0315 142.48 74.312C142.48 95.3115 142.48 116.3 142.48 137.278C142.795 141.418 138.848 145.288 134.708 144.96H112.384C112.356 134.93 112.384 124.915 112.384 114.872C112.403 103.846 112.403 92.8215 112.384 81.7981C103.087 72.5256 93.7996 63.2354 84.5217 53.9275C81.2817 50.6548 77.9764 47.4394 74.7773 44.1423C76.52 42.4814 78.2136 40.7264 79.944 39.0042Z" fill="#4586F7"/>
<path d="M22.6127 96.378C27.4357 91.5385 32.2915 86.7277 37.09 81.8638C37.1309 92.8762 37.09 103.889 37.1146 114.901C37.1146 124.932 37.1146 134.946 37.1146 144.989C29.2766 144.989 21.4386 144.989 13.6006 144.989C10.328 144.58 7.4644 141.823 7.02669 138.521C7.00214 129.669 7.02669 120.821 7.02669 111.972C12.2302 106.793 17.4092 101.569 22.6127 96.378Z" fill="#FDC00D"/>
<path d="M37.1142 114.901C62.2045 114.901 87.288 114.901 112.365 114.901C112.389 124.932 112.365 134.946 112.365 144.989H37.1142C37.1142 134.958 37.0937 124.911 37.1142 114.901Z" fill="#3BAB59"/>
</g>
<g filter="url(#filter4_f_6_3601)">
<path d="M71.9567 5.56177C70.8717 5.98382 69.9048 6.66166 69.1381 7.53763C49.6631 27.0426 30.1909 46.5421 10.7214 66.0362C9.82294 66.8782 8.97984 67.7773 8.19732 68.7279C7.90279 69.2434 7.63279 69.7711 7.33008 70.2784C7.33008 70.712 7.02327 71.0556 7.04372 71.5056C6.97009 73.6451 7.01508 75.7887 7.00281 77.9282C7.00281 89.272 7.00281 100.616 7.00281 111.964C7.00281 120.812 7.00281 129.665 7.00281 138.513C7.41189 141.81 10.3 144.567 13.5767 144.981C21.4147 144.981 29.2527 144.981 37.0907 144.981H134.726C138.85 145.308 142.797 141.442 142.499 137.298C142.499 116.299 142.499 95.31 142.499 74.3323C142.478 73.0519 142.625 71.7224 142.134 70.5033C141.631 68.6298 140.06 67.4107 138.768 66.0812C124.453 51.7497 110.138 37.4155 95.8224 23.0786C95.3857 22.5475 94.9128 22.0472 94.407 21.5814C89.7299 16.9015 85.0541 12.2216 80.3796 7.54172C79.3037 6.37059 77.8969 5.55448 76.3461 5.20178C75.7693 4.83769 75.0002 5.09542 74.3539 5.0136C73.5234 4.9236 72.7339 5.29996 71.9567 5.56177Z" fill="white"/>
<path d="M67.9656 50.9084C70.2483 48.6707 72.4368 46.3676 74.7481 44.1667C77.9594 47.4639 81.2484 50.6834 84.4924 53.952C93.7813 63.2245 103.069 72.5147 112.355 81.8226C112.355 92.846 112.355 103.871 112.355 114.897C87.2646 114.897 62.1812 114.897 37.1045 114.897C37.0759 103.884 37.1045 92.8719 37.08 81.8595C47.3506 71.5152 57.6458 61.1982 67.9656 50.9084Z" fill="white"/>
<path d="M71.9531 5.56177C72.7303 5.29996 73.4994 4.9236 74.3462 5.0136C74.9925 5.09542 75.7657 4.83769 76.3384 5.20178C77.8892 5.55448 79.296 6.37059 80.372 7.54172C85.0437 12.2243 89.7195 16.9042 94.3993 21.5814C94.9051 22.0472 95.378 22.5475 95.8148 23.0786C90.5662 28.4335 85.2237 33.6943 79.9383 39.0328C78.2038 40.7468 76.5143 42.5018 74.7553 44.1872C72.4317 46.3758 70.2349 48.6871 67.9604 50.9288C57.6734 61.2513 47.3823 71.5629 37.0871 81.8635C32.2886 86.7275 27.4287 91.5383 22.6097 96.3777C17.4062 101.569 12.2273 106.793 7.0074 111.968C7.0074 100.624 7.0074 89.2761 7.0074 77.9323C7.0074 75.7887 6.97467 73.6492 7.04831 71.5097C7.02785 71.0761 7.35512 70.7324 7.33467 70.2824C7.63739 69.7711 7.90738 69.2434 8.20192 68.732C8.98444 67.7814 9.82753 66.8823 10.7259 66.0403C30.1927 46.5326 49.665 27.0331 69.1427 7.54172C69.9066 6.66533 70.8707 5.98614 71.9531 5.56177Z" fill="#EC5043"/>
<path d="M79.944 39.0042C85.2294 33.6862 90.5801 28.4254 95.8205 23.05C110.097 37.417 124.407 51.7539 138.749 66.0608C140.038 67.3903 141.613 68.6094 142.116 70.483C142.607 71.7102 142.456 73.0315 142.48 74.312C142.48 95.3115 142.48 116.3 142.48 137.278C142.795 141.418 138.848 145.288 134.708 144.96H112.384C112.356 134.93 112.384 124.915 112.384 114.872C112.403 103.846 112.403 92.8215 112.384 81.7981C103.087 72.5256 93.7996 63.2354 84.5217 53.9275C81.2817 50.6548 77.9764 47.4394 74.7773 44.1423C76.52 42.4814 78.2136 40.7264 79.944 39.0042Z" fill="#4586F7"/>
<path d="M22.6127 96.378C27.4357 91.5385 32.2915 86.7277 37.09 81.8638C37.1309 92.8762 37.09 103.889 37.1146 114.901C37.1146 124.932 37.1146 134.946 37.1146 144.989C29.2766 144.989 21.4386 144.989 13.6006 144.989C10.328 144.58 7.4644 141.823 7.02669 138.521C7.00214 129.669 7.02669 120.821 7.02669 111.972C12.2302 106.793 17.4092 101.569 22.6127 96.378Z" fill="#FDC00D"/>
<path d="M37.1142 114.901C62.2045 114.901 87.288 114.901 112.365 114.901C112.389 124.932 112.365 134.946 112.365 144.989H37.1142C37.1142 134.958 37.0937 124.911 37.1142 114.901Z" fill="#3BAB59"/>
</g>
<g style="mix-blend-mode:multiply" opacity="0.2">
<g filter="url(#filter5_f_6_3601)">
<path d="M71.9567 5.56177C70.8717 5.98382 69.9048 6.66166 69.1381 7.53763C49.6631 27.0426 30.1909 46.5421 10.7214 66.0362C9.82294 66.8782 8.97984 67.7773 8.19732 68.7279C7.90279 69.2434 7.63279 69.7711 7.33008 70.2784C7.33008 70.712 7.02327 71.0556 7.04372 71.5056C6.97009 73.6451 7.01508 75.7887 7.00281 77.9282C7.00281 89.272 7.00281 100.616 7.00281 111.964C7.00281 120.812 7.00281 129.665 7.00281 138.513C7.41189 141.81 10.3 144.567 13.5767 144.981C21.4147 144.981 29.2527 144.981 37.0907 144.981H134.726C138.85 145.308 142.797 141.442 142.499 137.298C142.499 116.299 142.499 95.31 142.499 74.3323C142.478 73.0519 142.625 71.7224 142.134 70.5033C141.631 68.6298 140.06 67.4107 138.768 66.0812C124.453 51.7497 110.138 37.4155 95.8224 23.0786C95.3857 22.5475 94.9128 22.0472 94.407 21.5814C89.7299 16.9015 85.0541 12.2216 80.3796 7.54172C79.3037 6.37059 77.8969 5.55448 76.3461 5.20178C75.7693 4.83769 75.0002 5.09542 74.3539 5.0136C73.5234 4.9236 72.7339 5.29996 71.9567 5.56177Z" fill="white"/>
<path d="M67.9656 50.9084C70.2483 48.6707 72.4368 46.3676 74.7481 44.1667C77.9594 47.4639 81.2484 50.6834 84.4924 53.952C93.7813 63.2245 103.069 72.5147 112.355 81.8226C112.355 92.846 112.355 103.871 112.355 114.897C87.2646 114.897 62.1812 114.897 37.1045 114.897C37.0759 103.884 37.1045 92.8719 37.08 81.8595C47.3506 71.5152 57.6458 61.1982 67.9656 50.9084Z" fill="white"/>
<path d="M71.9531 5.56177C72.7303 5.29996 73.4994 4.9236 74.3462 5.0136C74.9925 5.09542 75.7657 4.83769 76.3384 5.20178C77.8892 5.55448 79.296 6.37059 80.372 7.54172C85.0437 12.2243 89.7195 16.9042 94.3993 21.5814C94.9051 22.0472 95.378 22.5475 95.8148 23.0786C90.5662 28.4335 85.2237 33.6943 79.9383 39.0328C78.2038 40.7468 76.5143 42.5018 74.7553 44.1872C72.4317 46.3758 70.2349 48.6871 67.9604 50.9288C57.6734 61.2513 47.3823 71.5629 37.0871 81.8635C32.2886 86.7275 27.4287 91.5383 22.6097 96.3777C17.4062 101.569 12.2273 106.793 7.0074 111.968C7.0074 100.624 7.0074 89.2761 7.0074 77.9323C7.0074 75.7887 6.97467 73.6492 7.04831 71.5097C7.02785 71.0761 7.35512 70.7324 7.33467 70.2824C7.63739 69.7711 7.90738 69.2434 8.20192 68.732C8.98444 67.7814 9.82753 66.8823 10.7259 66.0403C30.1927 46.5326 49.665 27.0331 69.1427 7.54172C69.9066 6.66533 70.8707 5.98614 71.9531 5.56177Z" fill="#EC5043"/>
<path d="M79.944 39.0042C85.2294 33.6862 90.5801 28.4254 95.8205 23.05C110.097 37.417 124.407 51.7539 138.749 66.0608C140.038 67.3903 141.613 68.6094 142.116 70.483C142.607 71.7102 142.456 73.0315 142.48 74.312C142.48 95.3115 142.48 116.3 142.48 137.278C142.795 141.418 138.848 145.288 134.708 144.96H112.384C112.356 134.93 112.384 124.915 112.384 114.872C112.403 103.846 112.403 92.8215 112.384 81.7981C103.087 72.5256 93.7996 63.2354 84.5217 53.9275C81.2817 50.6548 77.9764 47.4394 74.7773 44.1423C76.52 42.4814 78.2136 40.7264 79.944 39.0042Z" fill="#4586F7"/>
<path d="M22.6127 96.378C27.4357 91.5385 32.2915 86.7277 37.09 81.8638C37.1309 92.8762 37.09 103.889 37.1146 114.901C37.1146 124.932 37.1146 134.946 37.1146 144.989C29.2766 144.989 21.4386 144.989 13.6006 144.989C10.328 144.58 7.4644 141.823 7.02669 138.521C7.00214 129.669 7.02669 120.821 7.02669 111.972C12.2302 106.793 17.4092 101.569 22.6127 96.378Z" fill="#FDC00D"/>
<path d="M37.1142 114.901C62.2045 114.901 87.288 114.901 112.365 114.901C112.389 124.932 112.365 134.946 112.365 144.989H37.1142C37.1142 134.958 37.0937 124.911 37.1142 114.901Z" fill="#3BAB59"/>
</g>
<g filter="url(#filter6_f_6_3601)">
<path d="M71.9567 5.56177C70.8717 5.98382 69.9048 6.66166 69.1381 7.53763C49.6631 27.0426 30.1909 46.5421 10.7214 66.0362C9.82294 66.8782 8.97984 67.7773 8.19732 68.7279C7.90279 69.2434 7.63279 69.7711 7.33008 70.2784C7.33008 70.712 7.02327 71.0556 7.04372 71.5056C6.97009 73.6451 7.01508 75.7887 7.00281 77.9282C7.00281 89.272 7.00281 100.616 7.00281 111.964C7.00281 120.812 7.00281 129.665 7.00281 138.513C7.41189 141.81 10.3 144.567 13.5767 144.981C21.4147 144.981 29.2527 144.981 37.0907 144.981H134.726C138.85 145.308 142.797 141.442 142.499 137.298C142.499 116.299 142.499 95.31 142.499 74.3323C142.478 73.0519 142.625 71.7224 142.134 70.5033C141.631 68.6298 140.06 67.4107 138.768 66.0812C124.453 51.7497 110.138 37.4155 95.8224 23.0786C95.3857 22.5475 94.9128 22.0472 94.407 21.5814C89.7299 16.9015 85.0541 12.2216 80.3796 7.54172C79.3037 6.37059 77.8969 5.55448 76.3461 5.20178C75.7693 4.83769 75.0002 5.09542 74.3539 5.0136C73.5234 4.9236 72.7339 5.29996 71.9567 5.56177Z" fill="white"/>
<path d="M67.9656 50.9084C70.2483 48.6707 72.4368 46.3676 74.7481 44.1667C77.9594 47.4639 81.2484 50.6834 84.4924 53.952C93.7813 63.2245 103.069 72.5147 112.355 81.8226C112.355 92.846 112.355 103.871 112.355 114.897C87.2646 114.897 62.1812 114.897 37.1045 114.897C37.0759 103.884 37.1045 92.8719 37.08 81.8595C47.3506 71.5152 57.6458 61.1982 67.9656 50.9084Z" fill="white"/>
<path d="M71.9531 5.56177C72.7303 5.29996 73.4994 4.9236 74.3462 5.0136C74.9925 5.09542 75.7657 4.83769 76.3384 5.20178C77.8892 5.55448 79.296 6.37059 80.372 7.54172C85.0437 12.2243 89.7195 16.9042 94.3993 21.5814C94.9051 22.0472 95.378 22.5475 95.8148 23.0786C90.5662 28.4335 85.2237 33.6943 79.9383 39.0328C78.2038 40.7468 76.5143 42.5018 74.7553 44.1872C72.4317 46.3758 70.2349 48.6871 67.9604 50.9288C57.6734 61.2513 47.3823 71.5629 37.0871 81.8635C32.2886 86.7275 27.4287 91.5383 22.6097 96.3777C17.4062 101.569 12.2273 106.793 7.0074 111.968C7.0074 100.624 7.0074 89.2761 7.0074 77.9323C7.0074 75.7887 6.97467 73.6492 7.04831 71.5097C7.02785 71.0761 7.35512 70.7324 7.33467 70.2824C7.63739 69.7711 7.90738 69.2434 8.20192 68.732C8.98444 67.7814 9.82753 66.8823 10.7259 66.0403C30.1927 46.5326 49.665 27.0331 69.1427 7.54172C69.9066 6.66533 70.8707 5.98614 71.9531 5.56177Z" fill="#EC5043"/>
<path d="M79.944 39.0042C85.2294 33.6862 90.5801 28.4254 95.8205 23.05C110.097 37.417 124.407 51.7539 138.749 66.0608C140.038 67.3903 141.613 68.6094 142.116 70.483C142.607 71.7102 142.456 73.0315 142.48 74.312C142.48 95.3115 142.48 116.3 142.48 137.278C142.795 141.418 138.848 145.288 134.708 144.96H112.384C112.356 134.93 112.384 124.915 112.384 114.872C112.403 103.846 112.403 92.8215 112.384 81.7981C103.087 72.5256 93.7996 63.2354 84.5217 53.9275C81.2817 50.6548 77.9764 47.4394 74.7773 44.1423C76.52 42.4814 78.2136 40.7264 79.944 39.0042Z" fill="#4586F7"/>
<path d="M22.6127 96.378C27.4357 91.5385 32.2915 86.7277 37.09 81.8638C37.1309 92.8762 37.09 103.889 37.1146 114.901C37.1146 124.932 37.1146 134.946 37.1146 144.989C29.2766 144.989 21.4386 144.989 13.6006 144.989C10.328 144.58 7.4644 141.823 7.02669 138.521C7.00214 129.669 7.02669 120.821 7.02669 111.972C12.2302 106.793 17.4092 101.569 22.6127 96.378Z" fill="#FDC00D"/>
<path d="M37.1142 114.901C62.2045 114.901 87.288 114.901 112.365 114.901C112.389 124.932 112.365 134.946 112.365 144.989H37.1142C37.1142 134.958 37.0937 124.911 37.1142 114.901Z" fill="#3BAB59"/>
</g>
<g filter="url(#filter7_f_6_3601)">
<path d="M71.9567 5.56177C70.8717 5.98382 69.9048 6.66166 69.1381 7.53763C49.6631 27.0426 30.1909 46.5421 10.7214 66.0362C9.82294 66.8782 8.97984 67.7773 8.19732 68.7279C7.90279 69.2434 7.63279 69.7711 7.33008 70.2784C7.33008 70.712 7.02327 71.0556 7.04372 71.5056C6.97009 73.6451 7.01508 75.7887 7.00281 77.9282C7.00281 89.272 7.00281 100.616 7.00281 111.964C7.00281 120.812 7.00281 129.665 7.00281 138.513C7.41189 141.81 10.3 144.567 13.5767 144.981C21.4147 144.981 29.2527 144.981 37.0907 144.981H134.726C138.85 145.308 142.797 141.442 142.499 137.298C142.499 116.299 142.499 95.31 142.499 74.3323C142.478 73.0519 142.625 71.7224 142.134 70.5033C141.631 68.6298 140.06 67.4107 138.768 66.0812C124.453 51.7497 110.138 37.4155 95.8224 23.0786C95.3857 22.5475 94.9128 22.0472 94.407 21.5814C89.7299 16.9015 85.0541 12.2216 80.3796 7.54172C79.3037 6.37059 77.8969 5.55448 76.3461 5.20178C75.7693 4.83769 75.0002 5.09542 74.3539 5.0136C73.5234 4.9236 72.7339 5.29996 71.9567 5.56177Z" fill="white"/>
<path d="M67.9656 50.9084C70.2483 48.6707 72.4368 46.3676 74.7481 44.1667C77.9594 47.4639 81.2484 50.6834 84.4924 53.952C93.7813 63.2245 103.069 72.5147 112.355 81.8226C112.355 92.846 112.355 103.871 112.355 114.897C87.2646 114.897 62.1812 114.897 37.1045 114.897C37.0759 103.884 37.1045 92.8719 37.08 81.8595C47.3506 71.5152 57.6458 61.1982 67.9656 50.9084Z" fill="white"/>
<path d="M71.9531 5.56177C72.7303 5.29996 73.4994 4.9236 74.3462 5.0136C74.9925 5.09542 75.7657 4.83769 76.3384 5.20178C77.8892 5.55448 79.296 6.37059 80.372 7.54172C85.0437 12.2243 89.7195 16.9042 94.3993 21.5814C94.9051 22.0472 95.378 22.5475 95.8148 23.0786C90.5662 28.4335 85.2237 33.6943 79.9383 39.0328C78.2038 40.7468 76.5143 42.5018 74.7553 44.1872C72.4317 46.3758 70.2349 48.6871 67.9604 50.9288C57.6734 61.2513 47.3823 71.5629 37.0871 81.8635C32.2886 86.7275 27.4287 91.5383 22.6097 96.3777C17.4062 101.569 12.2273 106.793 7.0074 111.968C7.0074 100.624 7.0074 89.2761 7.0074 77.9323C7.0074 75.7887 6.97467 73.6492 7.04831 71.5097C7.02785 71.0761 7.35512 70.7324 7.33467 70.2824C7.63739 69.7711 7.90738 69.2434 8.20192 68.732C8.98444 67.7814 9.82753 66.8823 10.7259 66.0403C30.1927 46.5326 49.665 27.0331 69.1427 7.54172C69.9066 6.66533 70.8707 5.98614 71.9531 5.56177Z" fill="#EC5043"/>
<path d="M79.944 39.0042C85.2294 33.6862 90.5801 28.4254 95.8205 23.05C110.097 37.417 124.407 51.7539 138.749 66.0608C140.038 67.3903 141.613 68.6094 142.116 70.483C142.607 71.7102 142.456 73.0315 142.48 74.312C142.48 95.3115 142.48 116.3 142.48 137.278C142.795 141.418 138.848 145.288 134.708 144.96H112.384C112.356 134.93 112.384 124.915 112.384 114.872C112.403 103.846 112.403 92.8215 112.384 81.7981C103.087 72.5256 93.7996 63.2354 84.5217 53.9275C81.2817 50.6548 77.9764 47.4394 74.7773 44.1423C76.52 42.4814 78.2136 40.7264 79.944 39.0042Z" fill="#4586F7"/>
<path d="M22.6127 96.378C27.4357 91.5385 32.2915 86.7277 37.09 81.8638C37.1309 92.8762 37.09 103.889 37.1146 114.901C37.1146 124.932 37.1146 134.946 37.1146 144.989C29.2766 144.989 21.4386 144.989 13.6006 144.989C10.328 144.58 7.4644 141.823 7.02669 138.521C7.00214 129.669 7.02669 120.821 7.02669 111.972C12.2302 106.793 17.4092 101.569 22.6127 96.378Z" fill="#FDC00D"/>
<path d="M37.1142 114.901C62.2045 114.901 87.288 114.901 112.365 114.901C112.389 124.932 112.365 134.946 112.365 144.989H37.1142C37.1142 134.958 37.0937 124.911 37.1142 114.901Z" fill="#3BAB59"/>
</g>
<g filter="url(#filter8_f_6_3601)">
<path d="M71.9567 5.56177C70.8717 5.98382 69.9048 6.66166 69.1381 7.53763C49.6631 27.0426 30.1909 46.5421 10.7214 66.0362C9.82294 66.8782 8.97984 67.7773 8.19732 68.7279C7.90279 69.2434 7.63279 69.7711 7.33008 70.2784C7.33008 70.712 7.02327 71.0556 7.04372 71.5056C6.97009 73.6451 7.01508 75.7887 7.00281 77.9282C7.00281 89.272 7.00281 100.616 7.00281 111.964C7.00281 120.812 7.00281 129.665 7.00281 138.513C7.41189 141.81 10.3 144.567 13.5767 144.981C21.4147 144.981 29.2527 144.981 37.0907 144.981H134.726C138.85 145.308 142.797 141.442 142.499 137.298C142.499 116.299 142.499 95.31 142.499 74.3323C142.478 73.0519 142.625 71.7224 142.134 70.5033C141.631 68.6298 140.06 67.4107 138.768 66.0812C124.453 51.7497 110.138 37.4155 95.8224 23.0786C95.3857 22.5475 94.9128 22.0472 94.407 21.5814C89.7299 16.9015 85.0541 12.2216 80.3796 7.54172C79.3037 6.37059 77.8969 5.55448 76.3461 5.20178C75.7693 4.83769 75.0002 5.09542 74.3539 5.0136C73.5234 4.9236 72.7339 5.29996 71.9567 5.56177Z" fill="white"/>
<path d="M67.9656 50.9084C70.2483 48.6707 72.4368 46.3676 74.7481 44.1667C77.9594 47.4639 81.2484 50.6834 84.4924 53.952C93.7813 63.2245 103.069 72.5147 112.355 81.8226C112.355 92.846 112.355 103.871 112.355 114.897C87.2646 114.897 62.1812 114.897 37.1045 114.897C37.0759 103.884 37.1045 92.8719 37.08 81.8595C47.3506 71.5152 57.6458 61.1982 67.9656 50.9084Z" fill="white"/>
<path d="M71.9531 5.56177C72.7303 5.29996 73.4994 4.9236 74.3462 5.0136C74.9925 5.09542 75.7657 4.83769 76.3384 5.20178C77.8892 5.55448 79.296 6.37059 80.372 7.54172C85.0437 12.2243 89.7195 16.9042 94.3993 21.5814C94.9051 22.0472 95.378 22.5475 95.8148 23.0786C90.5662 28.4335 85.2237 33.6943 79.9383 39.0328C78.2038 40.7468 76.5143 42.5018 74.7553 44.1872C72.4317 46.3758 70.2349 48.6871 67.9604 50.9288C57.6734 61.2513 47.3823 71.5629 37.0871 81.8635C32.2886 86.7275 27.4287 91.5383 22.6097 96.3777C17.4062 101.569 12.2273 106.793 7.0074 111.968C7.0074 100.624 7.0074 89.2761 7.0074 77.9323C7.0074 75.7887 6.97467 73.6492 7.04831 71.5097C7.02785 71.0761 7.35512 70.7324 7.33467 70.2824C7.63739 69.7711 7.90738 69.2434 8.20192 68.732C8.98444 67.7814 9.82753 66.8823 10.7259 66.0403C30.1927 46.5326 49.665 27.0331 69.1427 7.54172C69.9066 6.66533 70.8707 5.98614 71.9531 5.56177Z" fill="#EC5043"/>
<path d="M79.944 39.0042C85.2294 33.6862 90.5801 28.4254 95.8205 23.05C110.097 37.417 124.407 51.7539 138.749 66.0608C140.038 67.3903 141.613 68.6094 142.116 70.483C142.607 71.7102 142.456 73.0315 142.48 74.312C142.48 95.3115 142.48 116.3 142.48 137.278C142.795 141.418 138.848 145.288 134.708 144.96H112.384C112.356 134.93 112.384 124.915 112.384 114.872C112.403 103.846 112.403 92.8215 112.384 81.7981C103.087 72.5256 93.7996 63.2354 84.5217 53.9275C81.2817 50.6548 77.9764 47.4394 74.7773 44.1423C76.52 42.4814 78.2136 40.7264 79.944 39.0042Z" fill="#4586F7"/>
<path d="M22.6127 96.378C27.4357 91.5385 32.2915 86.7277 37.09 81.8638C37.1309 92.8762 37.09 103.889 37.1146 114.901C37.1146 124.932 37.1146 134.946 37.1146 144.989C29.2766 144.989 21.4386 144.989 13.6006 144.989C10.328 144.58 7.4644 141.823 7.02669 138.521C7.00214 129.669 7.02669 120.821 7.02669 111.972C12.2302 106.793 17.4092 101.569 22.6127 96.378Z" fill="#FDC00D"/>
<path d="M37.1142 114.901C62.2045 114.901 87.288 114.901 112.365 114.901C112.389 124.932 112.365 134.946 112.365 144.989H37.1142C37.1142 134.958 37.0937 124.911 37.1142 114.901Z" fill="#3BAB59"/>
</g>
<g filter="url(#filter9_f_6_3601)">
<path d="M71.9567 5.56177C70.8717 5.98382 69.9048 6.66166 69.1381 7.53763C49.6631 27.0426 30.1909 46.5421 10.7214 66.0362C9.82294 66.8782 8.97984 67.7773 8.19732 68.7279C7.90279 69.2434 7.63279 69.7711 7.33008 70.2784C7.33008 70.712 7.02327 71.0556 7.04372 71.5056C6.97009 73.6451 7.01508 75.7887 7.00281 77.9282C7.00281 89.272 7.00281 100.616 7.00281 111.964C7.00281 120.812 7.00281 129.665 7.00281 138.513C7.41189 141.81 10.3 144.567 13.5767 144.981C21.4147 144.981 29.2527 144.981 37.0907 144.981H134.726C138.85 145.308 142.797 141.442 142.499 137.298C142.499 116.299 142.499 95.31 142.499 74.3323C142.478 73.0519 142.625 71.7224 142.134 70.5033C141.631 68.6298 140.06 67.4107 138.768 66.0812C124.453 51.7497 110.138 37.4155 95.8224 23.0786C95.3857 22.5475 94.9128 22.0472 94.407 21.5814C89.7299 16.9015 85.0541 12.2216 80.3796 7.54172C79.3037 6.37059 77.8969 5.55448 76.3461 5.20178C75.7693 4.83769 75.0002 5.09542 74.3539 5.0136C73.5234 4.9236 72.7339 5.29996 71.9567 5.56177Z" fill="white"/>
<path d="M67.9656 50.9084C70.2483 48.6707 72.4368 46.3676 74.7481 44.1667C77.9594 47.4639 81.2484 50.6834 84.4924 53.952C93.7813 63.2245 103.069 72.5147 112.355 81.8226C112.355 92.846 112.355 103.871 112.355 114.897C87.2646 114.897 62.1812 114.897 37.1045 114.897C37.0759 103.884 37.1045 92.8719 37.08 81.8595C47.3506 71.5152 57.6458 61.1982 67.9656 50.9084Z" fill="white"/>
<path d="M71.9531 5.56177C72.7303 5.29996 73.4994 4.9236 74.3462 5.0136C74.9925 5.09542 75.7657 4.83769 76.3384 5.20178C77.8892 5.55448 79.296 6.37059 80.372 7.54172C85.0437 12.2243 89.7195 16.9042 94.3993 21.5814C94.9051 22.0472 95.378 22.5475 95.8148 23.0786C90.5662 28.4335 85.2237 33.6943 79.9383 39.0328C78.2038 40.7468 76.5143 42.5018 74.7553 44.1872C72.4317 46.3758 70.2349 48.6871 67.9604 50.9288C57.6734 61.2513 47.3823 71.5629 37.0871 81.8635C32.2886 86.7275 27.4287 91.5383 22.6097 96.3777C17.4062 101.569 12.2273 106.793 7.0074 111.968C7.0074 100.624 7.0074 89.2761 7.0074 77.9323C7.0074 75.7887 6.97467 73.6492 7.04831 71.5097C7.02785 71.0761 7.35512 70.7324 7.33467 70.2824C7.63739 69.7711 7.90738 69.2434 8.20192 68.732C8.98444 67.7814 9.82753 66.8823 10.7259 66.0403C30.1927 46.5326 49.665 27.0331 69.1427 7.54172C69.9066 6.66533 70.8707 5.98614 71.9531 5.56177Z" fill="#EC5043"/>
<path d="M79.944 39.0042C85.2294 33.6862 90.5801 28.4254 95.8205 23.05C110.097 37.417 124.407 51.7539 138.749 66.0608C140.038 67.3903 141.613 68.6094 142.116 70.483C142.607 71.7102 142.456 73.0315 142.48 74.312C142.48 95.3115 142.48 116.3 142.48 137.278C142.795 141.418 138.848 145.288 134.708 144.96H112.384C112.356 134.93 112.384 124.915 112.384 114.872C112.403 103.846 112.403 92.8215 112.384 81.7981C103.087 72.5256 93.7996 63.2354 84.5217 53.9275C81.2817 50.6548 77.9764 47.4394 74.7773 44.1423C76.52 42.4814 78.2136 40.7264 79.944 39.0042Z" fill="#4586F7"/>
<path d="M22.6127 96.378C27.4357 91.5385 32.2915 86.7277 37.09 81.8638C37.1309 92.8762 37.09 103.889 37.1146 114.901C37.1146 124.932 37.1146 134.946 37.1146 144.989C29.2766 144.989 21.4386 144.989 13.6006 144.989C10.328 144.58 7.4644 141.823 7.02669 138.521C7.00214 129.669 7.02669 120.821 7.02669 111.972C12.2302 106.793 17.4092 101.569 22.6127 96.378Z" fill="#FDC00D"/>
<path d="M37.1142 114.901C62.2045 114.901 87.288 114.901 112.365 114.901C112.389 124.932 112.365 134.946 112.365 144.989H37.1142C37.1142 134.958 37.0937 124.911 37.1142 114.901Z" fill="#3BAB59"/>
</g>
</g>
</g>
<defs>
<filter id="filter0_f_6_3601" x="-12.9998" y="-15" width="175.514" height="180" filterUnits="userSpaceOnUse" color-interpolation-filters="sRGB">
<feFlood flood-opacity="0" result="BackgroundImageFix"/>
<feBlend mode="normal" in="SourceGraphic" in2="BackgroundImageFix" result="shape"/>
<feGaussianBlur stdDeviation="10" result="effect1_foregroundBlur_6_3601"/>
</filter>
<filter id="filter1_f_6_3601" x="-12.9998" y="-15" width="175.514" height="180" filterUnits="userSpaceOnUse" color-interpolation-filters="sRGB">
<feFlood flood-opacity="0" result="BackgroundImageFix"/>
<feBlend mode="normal" in="SourceGraphic" in2="BackgroundImageFix" result="shape"/>
<feGaussianBlur stdDeviation="10" result="effect1_foregroundBlur_6_3601"/>
</filter>
<filter id="filter2_f_6_3601" x="-12.9998" y="-15" width="175.514" height="180" filterUnits="userSpaceOnUse" color-interpolation-filters="sRGB">
<feFlood flood-opacity="0" result="BackgroundImageFix"/>
<feBlend mode="normal" in="SourceGraphic" in2="BackgroundImageFix" result="shape"/>
<feGaussianBlur stdDeviation="10" result="effect1_foregroundBlur_6_3601"/>
</filter>
<filter id="filter3_f_6_3601" x="-12.9998" y="-15" width="175.514" height="180" filterUnits="userSpaceOnUse" color-interpolation-filters="sRGB">
<feFlood flood-opacity="0" result="BackgroundImageFix"/>
<feBlend mode="normal" in="SourceGraphic" in2="BackgroundImageFix" result="shape"/>
<feGaussianBlur stdDeviation="10" result="effect1_foregroundBlur_6_3601"/>
</filter>
<filter id="filter4_f_6_3601" x="-12.9998" y="-15" width="175.514" height="180" filterUnits="userSpaceOnUse" color-interpolation-filters="sRGB">
<feFlood flood-opacity="0" result="BackgroundImageFix"/>
<feBlend mode="normal" in="SourceGraphic" in2="BackgroundImageFix" result="shape"/>
<feGaussianBlur stdDeviation="10" result="effect1_foregroundBlur_6_3601"/>
</filter>
<filter id="filter5_f_6_3601" x="-12.9998" y="-15" width="175.514" height="180" filterUnits="userSpaceOnUse" color-interpolation-filters="sRGB">
<feFlood flood-opacity="0" result="BackgroundImageFix"/>
<feBlend mode="normal" in="SourceGraphic" in2="BackgroundImageFix" result="shape"/>
<feGaussianBlur stdDeviation="10" result="effect1_foregroundBlur_6_3601"/>
</filter>
<filter id="filter6_f_6_3601" x="-12.9998" y="-15" width="175.514" height="180" filterUnits="userSpaceOnUse" color-interpolation-filters="sRGB">
<feFlood flood-opacity="0" result="BackgroundImageFix"/>
<feBlend mode="normal" in="SourceGraphic" in2="BackgroundImageFix" result="shape"/>
<feGaussianBlur stdDeviation="10" result="effect1_foregroundBlur_6_3601"/>
</filter>
<filter id="filter7_f_6_3601" x="-12.9998" y="-15" width="175.514" height="180" filterUnits="userSpaceOnUse" color-interpolation-filters="sRGB">
<feFlood flood-opacity="0" result="BackgroundImageFix"/>
<feBlend mode="normal" in="SourceGraphic" in2="BackgroundImageFix" result="shape"/>
<feGaussianBlur stdDeviation="10" result="effect1_foregroundBlur_6_3601"/>
</filter>
<filter id="filter8_f_6_3601" x="-12.9998" y="-15" width="175.514" height="180" filterUnits="userSpaceOnUse" color-interpolation-filters="sRGB">
<feFlood flood-opacity="0" result="BackgroundImageFix"/>
<feBlend mode="normal" in="SourceGraphic" in2="BackgroundImageFix" result="shape"/>
<feGaussianBlur stdDeviation="10" result="effect1_foregroundBlur_6_3601"/>
</filter>
<filter id="filter9_f_6_3601" x="-12.9998" y="-15" width="175.514" height="180" filterUnits="userSpaceOnUse" color-interpolation-filters="sRGB">
<feFlood flood-opacity="0" result="BackgroundImageFix"/>
<feBlend mode="normal" in="SourceGraphic" in2="BackgroundImageFix" result="shape"/>
<feGaussianBlur stdDeviation="10" result="effect1_foregroundBlur_6_3601"/>
</filter>
</defs>
</svg>
