<svg width="150" height="150" viewBox="0 0 150 150" fill="none" xmlns="http://www.w3.org/2000/svg">
<mask id="mask0_6_3607" style="mask-type:alpha" maskUnits="userSpaceOnUse" x="5" y="19" width="140" height="113">
<path d="M93.8288 50.0253H98.0988L110.268 37.8559L110.866 32.6892C103.895 26.536 95.4696 22.2616 86.3869 20.2697C77.3042 18.2778 67.8636 18.6343 58.957 21.3055C50.0504 23.9766 41.9717 28.8742 35.4842 35.5356C28.9966 42.1971 24.3144 50.4024 21.8797 59.3765C23.2355 58.8209 24.7373 58.7307 26.1497 59.1203L50.4886 55.1066C50.4886 55.1066 51.7268 53.057 52.3673 53.1851C57.5824 47.4576 64.7894 43.9401 72.5131 43.3527C80.2368 42.7653 87.8929 45.1524 93.9142 50.0253H93.8288Z" fill="#EA4335"/>
<path d="M127.612 59.3771C124.815 49.0764 119.072 39.8162 111.087 32.7325L94.0076 49.8124C97.5672 52.7209 100.42 56.3999 102.35 60.5716C104.281 64.7434 105.239 69.2991 105.152 73.895V76.9267C107.148 76.9267 109.125 77.3199 110.969 78.0838C112.814 78.8478 114.489 79.9675 115.901 81.379C117.313 82.7906 118.432 84.4663 119.196 86.3106C119.96 88.1549 120.353 90.1316 120.353 92.1278C120.353 94.1241 119.96 96.1008 119.196 97.945C118.432 99.7893 117.313 101.465 115.901 102.877C114.489 104.288 112.814 105.408 110.969 106.172C109.125 106.936 107.148 107.329 105.152 107.329H74.75L71.7183 110.403V128.636L74.75 131.668H105.152C113.642 131.734 121.927 129.066 128.783 124.058C135.639 119.05 140.701 111.968 143.22 103.861C145.739 95.7529 145.581 87.0497 142.77 79.0386C139.959 71.0274 134.645 64.1336 127.612 59.3771Z" fill="#4285F4"/>
<path d="M44.2978 131.496H74.7V107.158H44.2978C42.1317 107.157 39.9911 106.691 38.0209 105.791L33.7509 107.115L21.4961 119.284L20.4286 123.554C27.3008 128.744 35.6864 131.534 44.2978 131.496Z" fill="#34A853"/>
<path d="M44.3038 52.545C36.0662 52.5942 28.0497 55.215 21.374 60.0414C14.6982 64.8677 9.69657 71.6586 7.06761 79.4655C4.43865 87.2724 4.31368 95.7055 6.71013 103.587C9.10659 111.468 13.9048 118.404 20.4346 123.427L38.0696 105.792C35.8286 104.779 33.8666 103.238 32.3521 101.301C30.8376 99.3631 29.8157 97.0871 29.3742 94.668C28.9327 92.2488 29.0847 89.7586 29.8171 87.411C30.5496 85.0635 31.8406 82.9287 33.5795 81.1898C35.3184 79.451 37.4532 78.1599 39.8007 77.4275C42.1482 76.695 44.6384 76.543 47.0576 76.9846C49.4768 77.4261 51.7527 78.448 53.6902 79.9625C55.6276 81.477 57.1687 83.4389 58.1812 85.68L75.8162 68.045C72.1147 63.2061 67.3441 59.289 61.8774 56.6001C56.4106 53.9111 50.396 52.5233 44.3038 52.545Z" fill="#FBBC05"/>
</mask>
<g mask="url(#mask0_6_3607)">
<g filter="url(#filter0_f_6_3607)">
<path d="M93.8278 50.0253H98.0978L110.267 37.8559L110.865 32.6892C103.894 26.536 95.4686 22.2616 86.3859 20.2697C77.3032 18.2778 67.8626 18.6343 58.956 21.3055C50.0494 23.9766 41.9707 28.8742 35.4832 35.5356C28.9957 42.1971 24.3134 50.4024 21.8788 59.3765C23.2345 58.8209 24.7363 58.7307 26.1487 59.1203L50.4876 55.1066C50.4876 55.1066 51.7259 53.057 52.3664 53.1851C57.5814 47.4576 64.7885 43.9401 72.5121 43.3527C80.2358 42.7653 87.892 45.1524 93.9132 50.0253H93.8278Z" fill="#EA4335"/>
<path d="M127.611 59.3771C124.814 49.0763 119.071 39.8161 111.086 32.7324L94.0066 49.8123C97.5662 52.7209 100.419 56.3998 102.349 60.5715C104.28 64.7433 105.238 69.299 105.151 73.895V76.9266C107.147 76.9266 109.124 77.3198 110.968 78.0838C112.813 78.8477 114.488 79.9674 115.9 81.3789C117.312 82.7905 118.431 84.4663 119.195 86.3105C119.959 88.1548 120.352 90.1315 120.352 92.1277C120.352 94.124 119.959 96.1007 119.195 97.945C118.431 99.7892 117.312 101.465 115.9 102.877C114.488 104.288 112.813 105.408 110.968 106.172C109.124 106.936 107.147 107.329 105.151 107.329H74.749L71.7173 110.403V128.636L74.749 131.668H105.151C113.641 131.734 121.926 129.066 128.782 124.058C135.638 119.05 140.7 111.968 143.219 103.86C145.738 95.7528 145.58 87.0497 142.769 79.0385C139.958 71.0273 134.644 64.1336 127.611 59.3771Z" fill="#4285F4"/>
<path d="M44.2968 131.496H74.699V107.157H44.2968C42.1308 107.157 39.9901 106.691 38.0199 105.791L33.7499 107.115L21.4951 119.284L20.4276 123.554C27.2999 128.743 35.6854 131.534 44.2968 131.496Z" fill="#34A853"/>
<path d="M44.3028 52.5449C36.0652 52.5941 28.0488 55.2149 21.373 60.0413C14.6972 64.8677 9.69559 71.6586 7.06664 79.4655C4.43768 87.2724 4.3127 95.7055 6.70916 103.587C9.10561 111.468 13.9038 118.404 20.4336 123.426L38.0686 105.791C35.8276 104.779 33.8656 103.238 32.3511 101.3C30.8366 99.363 29.8148 97.0871 29.3732 94.6679C28.9317 92.2487 29.0837 89.7585 29.8161 87.411C30.5486 85.0635 31.8396 82.9287 33.5785 81.1898C35.3174 79.4509 37.4522 78.1599 39.7997 77.4274C42.1472 76.695 44.6374 76.543 47.0566 76.9845C49.4758 77.4261 51.7517 78.4479 53.6892 79.9624C55.6266 81.4769 57.1677 83.4389 58.1802 85.6799L75.8152 68.0449C72.1138 63.206 67.3431 59.2889 61.8764 56.6C56.4097 53.9111 50.395 52.5232 44.3028 52.5449Z" fill="#FBBC05"/>
</g>
<g filter="url(#filter1_f_6_3607)">
<path d="M93.8278 50.0253H98.0978L110.267 37.8559L110.865 32.6892C103.894 26.536 95.4686 22.2616 86.3859 20.2697C77.3032 18.2778 67.8626 18.6343 58.956 21.3055C50.0494 23.9766 41.9707 28.8742 35.4832 35.5356C28.9957 42.1971 24.3134 50.4024 21.8788 59.3765C23.2345 58.8209 24.7363 58.7307 26.1487 59.1203L50.4876 55.1066C50.4876 55.1066 51.7259 53.057 52.3664 53.1851C57.5814 47.4576 64.7885 43.9401 72.5121 43.3527C80.2358 42.7653 87.892 45.1524 93.9132 50.0253H93.8278Z" fill="#EA4335"/>
<path d="M127.611 59.3771C124.814 49.0763 119.071 39.8161 111.086 32.7324L94.0066 49.8123C97.5662 52.7209 100.419 56.3998 102.349 60.5715C104.28 64.7433 105.238 69.299 105.151 73.895V76.9266C107.147 76.9266 109.124 77.3198 110.968 78.0838C112.813 78.8477 114.488 79.9674 115.9 81.3789C117.312 82.7905 118.431 84.4663 119.195 86.3105C119.959 88.1548 120.352 90.1315 120.352 92.1277C120.352 94.124 119.959 96.1007 119.195 97.945C118.431 99.7892 117.312 101.465 115.9 102.877C114.488 104.288 112.813 105.408 110.968 106.172C109.124 106.936 107.147 107.329 105.151 107.329H74.749L71.7173 110.403V128.636L74.749 131.668H105.151C113.641 131.734 121.926 129.066 128.782 124.058C135.638 119.05 140.7 111.968 143.219 103.86C145.738 95.7528 145.58 87.0497 142.769 79.0385C139.958 71.0273 134.644 64.1336 127.611 59.3771Z" fill="#4285F4"/>
<path d="M44.2968 131.496H74.699V107.157H44.2968C42.1308 107.157 39.9901 106.691 38.0199 105.791L33.7499 107.115L21.4951 119.284L20.4276 123.554C27.2999 128.743 35.6854 131.534 44.2968 131.496Z" fill="#34A853"/>
<path d="M44.3028 52.5449C36.0652 52.5941 28.0488 55.2149 21.373 60.0413C14.6972 64.8677 9.69559 71.6586 7.06664 79.4655C4.43768 87.2724 4.3127 95.7055 6.70916 103.587C9.10561 111.468 13.9038 118.404 20.4336 123.426L38.0686 105.791C35.8276 104.779 33.8656 103.238 32.3511 101.3C30.8366 99.363 29.8148 97.0871 29.3732 94.6679C28.9317 92.2487 29.0837 89.7585 29.8161 87.411C30.5486 85.0635 31.8396 82.9287 33.5785 81.1898C35.3174 79.4509 37.4522 78.1599 39.7997 77.4274C42.1472 76.695 44.6374 76.543 47.0566 76.9845C49.4758 77.4261 51.7517 78.4479 53.6892 79.9624C55.6266 81.4769 57.1677 83.4389 58.1802 85.6799L75.8152 68.0449C72.1138 63.206 67.3431 59.2889 61.8764 56.6C56.4097 53.9111 50.395 52.5232 44.3028 52.5449Z" fill="#FBBC05"/>
</g>
<g filter="url(#filter2_f_6_3607)">
<path d="M93.8278 50.0253H98.0978L110.267 37.8559L110.865 32.6892C103.894 26.536 95.4686 22.2616 86.3859 20.2697C77.3032 18.2778 67.8626 18.6343 58.956 21.3055C50.0494 23.9766 41.9707 28.8742 35.4832 35.5356C28.9957 42.1971 24.3134 50.4024 21.8788 59.3765C23.2345 58.8209 24.7363 58.7307 26.1487 59.1203L50.4876 55.1066C50.4876 55.1066 51.7259 53.057 52.3664 53.1851C57.5814 47.4576 64.7885 43.9401 72.5121 43.3527C80.2358 42.7653 87.892 45.1524 93.9132 50.0253H93.8278Z" fill="#EA4335"/>
<path d="M127.611 59.3771C124.814 49.0763 119.071 39.8161 111.086 32.7324L94.0066 49.8123C97.5662 52.7209 100.419 56.3998 102.349 60.5715C104.28 64.7433 105.238 69.299 105.151 73.895V76.9266C107.147 76.9266 109.124 77.3198 110.968 78.0838C112.813 78.8477 114.488 79.9674 115.9 81.3789C117.312 82.7905 118.431 84.4663 119.195 86.3105C119.959 88.1548 120.352 90.1315 120.352 92.1277C120.352 94.124 119.959 96.1007 119.195 97.945C118.431 99.7892 117.312 101.465 115.9 102.877C114.488 104.288 112.813 105.408 110.968 106.172C109.124 106.936 107.147 107.329 105.151 107.329H74.749L71.7173 110.403V128.636L74.749 131.668H105.151C113.641 131.734 121.926 129.066 128.782 124.058C135.638 119.05 140.7 111.968 143.219 103.86C145.738 95.7528 145.58 87.0497 142.769 79.0385C139.958 71.0273 134.644 64.1336 127.611 59.3771Z" fill="#4285F4"/>
<path d="M44.2968 131.496H74.699V107.157H44.2968C42.1308 107.157 39.9901 106.691 38.0199 105.791L33.7499 107.115L21.4951 119.284L20.4276 123.554C27.2999 128.743 35.6854 131.534 44.2968 131.496Z" fill="#34A853"/>
<path d="M44.3028 52.5449C36.0652 52.5941 28.0488 55.2149 21.373 60.0413C14.6972 64.8677 9.69559 71.6586 7.06664 79.4655C4.43768 87.2724 4.3127 95.7055 6.70916 103.587C9.10561 111.468 13.9038 118.404 20.4336 123.426L38.0686 105.791C35.8276 104.779 33.8656 103.238 32.3511 101.3C30.8366 99.363 29.8148 97.0871 29.3732 94.6679C28.9317 92.2487 29.0837 89.7585 29.8161 87.411C30.5486 85.0635 31.8396 82.9287 33.5785 81.1898C35.3174 79.4509 37.4522 78.1599 39.7997 77.4274C42.1472 76.695 44.6374 76.543 47.0566 76.9845C49.4758 77.4261 51.7517 78.4479 53.6892 79.9624C55.6266 81.4769 57.1677 83.4389 58.1802 85.6799L75.8152 68.0449C72.1138 63.206 67.3431 59.2889 61.8764 56.6C56.4097 53.9111 50.395 52.5232 44.3028 52.5449Z" fill="#FBBC05"/>
</g>
<g filter="url(#filter3_f_6_3607)">
<path d="M93.8278 50.0253H98.0978L110.267 37.8559L110.865 32.6892C103.894 26.536 95.4686 22.2616 86.3859 20.2697C77.3032 18.2778 67.8626 18.6343 58.956 21.3055C50.0494 23.9766 41.9707 28.8742 35.4832 35.5356C28.9957 42.1971 24.3134 50.4024 21.8788 59.3765C23.2345 58.8209 24.7363 58.7307 26.1487 59.1203L50.4876 55.1066C50.4876 55.1066 51.7259 53.057 52.3664 53.1851C57.5814 47.4576 64.7885 43.9401 72.5121 43.3527C80.2358 42.7653 87.892 45.1524 93.9132 50.0253H93.8278Z" fill="#EA4335"/>
<path d="M127.611 59.3771C124.814 49.0763 119.071 39.8161 111.086 32.7324L94.0066 49.8123C97.5662 52.7209 100.419 56.3998 102.349 60.5715C104.28 64.7433 105.238 69.299 105.151 73.895V76.9266C107.147 76.9266 109.124 77.3198 110.968 78.0838C112.813 78.8477 114.488 79.9674 115.9 81.3789C117.312 82.7905 118.431 84.4663 119.195 86.3105C119.959 88.1548 120.352 90.1315 120.352 92.1277C120.352 94.124 119.959 96.1007 119.195 97.945C118.431 99.7892 117.312 101.465 115.9 102.877C114.488 104.288 112.813 105.408 110.968 106.172C109.124 106.936 107.147 107.329 105.151 107.329H74.749L71.7173 110.403V128.636L74.749 131.668H105.151C113.641 131.734 121.926 129.066 128.782 124.058C135.638 119.05 140.7 111.968 143.219 103.86C145.738 95.7528 145.58 87.0497 142.769 79.0385C139.958 71.0273 134.644 64.1336 127.611 59.3771Z" fill="#4285F4"/>
<path d="M44.2968 131.496H74.699V107.157H44.2968C42.1308 107.157 39.9901 106.691 38.0199 105.791L33.7499 107.115L21.4951 119.284L20.4276 123.554C27.2999 128.743 35.6854 131.534 44.2968 131.496Z" fill="#34A853"/>
<path d="M44.3028 52.5449C36.0652 52.5941 28.0488 55.2149 21.373 60.0413C14.6972 64.8677 9.69559 71.6586 7.06664 79.4655C4.43768 87.2724 4.3127 95.7055 6.70916 103.587C9.10561 111.468 13.9038 118.404 20.4336 123.426L38.0686 105.791C35.8276 104.779 33.8656 103.238 32.3511 101.3C30.8366 99.363 29.8148 97.0871 29.3732 94.6679C28.9317 92.2487 29.0837 89.7585 29.8161 87.411C30.5486 85.0635 31.8396 82.9287 33.5785 81.1898C35.3174 79.4509 37.4522 78.1599 39.7997 77.4274C42.1472 76.695 44.6374 76.543 47.0566 76.9845C49.4758 77.4261 51.7517 78.4479 53.6892 79.9624C55.6266 81.4769 57.1677 83.4389 58.1802 85.6799L75.8152 68.0449C72.1138 63.206 67.3431 59.2889 61.8764 56.6C56.4097 53.9111 50.395 52.5232 44.3028 52.5449Z" fill="#FBBC05"/>
</g>
<g filter="url(#filter4_f_6_3607)">
<path d="M93.8278 50.0253H98.0978L110.267 37.8559L110.865 32.6892C103.894 26.536 95.4686 22.2616 86.3859 20.2697C77.3032 18.2778 67.8626 18.6343 58.956 21.3055C50.0494 23.9766 41.9707 28.8742 35.4832 35.5356C28.9957 42.1971 24.3134 50.4024 21.8788 59.3765C23.2345 58.8209 24.7363 58.7307 26.1487 59.1203L50.4876 55.1066C50.4876 55.1066 51.7259 53.057 52.3664 53.1851C57.5814 47.4576 64.7885 43.9401 72.5121 43.3527C80.2358 42.7653 87.892 45.1524 93.9132 50.0253H93.8278Z" fill="#EA4335"/>
<path d="M127.611 59.3771C124.814 49.0763 119.071 39.8161 111.086 32.7324L94.0066 49.8123C97.5662 52.7209 100.419 56.3998 102.349 60.5715C104.28 64.7433 105.238 69.299 105.151 73.895V76.9266C107.147 76.9266 109.124 77.3198 110.968 78.0838C112.813 78.8477 114.488 79.9674 115.9 81.3789C117.312 82.7905 118.431 84.4663 119.195 86.3105C119.959 88.1548 120.352 90.1315 120.352 92.1277C120.352 94.124 119.959 96.1007 119.195 97.945C118.431 99.7892 117.312 101.465 115.9 102.877C114.488 104.288 112.813 105.408 110.968 106.172C109.124 106.936 107.147 107.329 105.151 107.329H74.749L71.7173 110.403V128.636L74.749 131.668H105.151C113.641 131.734 121.926 129.066 128.782 124.058C135.638 119.05 140.7 111.968 143.219 103.86C145.738 95.7528 145.58 87.0497 142.769 79.0385C139.958 71.0273 134.644 64.1336 127.611 59.3771Z" fill="#4285F4"/>
<path d="M44.2968 131.496H74.699V107.157H44.2968C42.1308 107.157 39.9901 106.691 38.0199 105.791L33.7499 107.115L21.4951 119.284L20.4276 123.554C27.2999 128.743 35.6854 131.534 44.2968 131.496Z" fill="#34A853"/>
<path d="M44.3028 52.5449C36.0652 52.5941 28.0488 55.2149 21.373 60.0413C14.6972 64.8677 9.69559 71.6586 7.06664 79.4655C4.43768 87.2724 4.3127 95.7055 6.70916 103.587C9.10561 111.468 13.9038 118.404 20.4336 123.426L38.0686 105.791C35.8276 104.779 33.8656 103.238 32.3511 101.3C30.8366 99.363 29.8148 97.0871 29.3732 94.6679C28.9317 92.2487 29.0837 89.7585 29.8161 87.411C30.5486 85.0635 31.8396 82.9287 33.5785 81.1898C35.3174 79.4509 37.4522 78.1599 39.7997 77.4274C42.1472 76.695 44.6374 76.543 47.0566 76.9845C49.4758 77.4261 51.7517 78.4479 53.6892 79.9624C55.6266 81.4769 57.1677 83.4389 58.1802 85.6799L75.8152 68.0449C72.1138 63.206 67.3431 59.2889 61.8764 56.6C56.4097 53.9111 50.395 52.5232 44.3028 52.5449Z" fill="#FBBC05"/>
</g>
<g filter="url(#filter5_f_6_3607)">
<path d="M93.8278 50.0253H98.0978L110.267 37.8559L110.865 32.6892C103.894 26.536 95.4686 22.2616 86.3859 20.2697C77.3032 18.2778 67.8626 18.6343 58.956 21.3055C50.0494 23.9766 41.9707 28.8742 35.4832 35.5356C28.9957 42.1971 24.3134 50.4024 21.8788 59.3765C23.2345 58.8209 24.7363 58.7307 26.1487 59.1203L50.4876 55.1066C50.4876 55.1066 51.7259 53.057 52.3664 53.1851C57.5814 47.4576 64.7885 43.9401 72.5121 43.3527C80.2358 42.7653 87.892 45.1524 93.9132 50.0253H93.8278Z" fill="#EA4335"/>
<path d="M127.611 59.3771C124.814 49.0763 119.071 39.8161 111.086 32.7324L94.0066 49.8123C97.5662 52.7209 100.419 56.3998 102.349 60.5715C104.28 64.7433 105.238 69.299 105.151 73.895V76.9266C107.147 76.9266 109.124 77.3198 110.968 78.0838C112.813 78.8477 114.488 79.9674 115.9 81.3789C117.312 82.7905 118.431 84.4663 119.195 86.3105C119.959 88.1548 120.352 90.1315 120.352 92.1277C120.352 94.124 119.959 96.1007 119.195 97.945C118.431 99.7892 117.312 101.465 115.9 102.877C114.488 104.288 112.813 105.408 110.968 106.172C109.124 106.936 107.147 107.329 105.151 107.329H74.749L71.7173 110.403V128.636L74.749 131.668H105.151C113.641 131.734 121.926 129.066 128.782 124.058C135.638 119.05 140.7 111.968 143.219 103.86C145.738 95.7528 145.58 87.0497 142.769 79.0385C139.958 71.0273 134.644 64.1336 127.611 59.3771Z" fill="#4285F4"/>
<path d="M44.2968 131.496H74.699V107.157H44.2968C42.1308 107.157 39.9901 106.691 38.0199 105.791L33.7499 107.115L21.4951 119.284L20.4276 123.554C27.2999 128.743 35.6854 131.534 44.2968 131.496Z" fill="#34A853"/>
<path d="M44.3028 52.5449C36.0652 52.5941 28.0488 55.2149 21.373 60.0413C14.6972 64.8677 9.69559 71.6586 7.06664 79.4655C4.43768 87.2724 4.3127 95.7055 6.70916 103.587C9.10561 111.468 13.9038 118.404 20.4336 123.426L38.0686 105.791C35.8276 104.779 33.8656 103.238 32.3511 101.3C30.8366 99.363 29.8148 97.0871 29.3732 94.6679C28.9317 92.2487 29.0837 89.7585 29.8161 87.411C30.5486 85.0635 31.8396 82.9287 33.5785 81.1898C35.3174 79.4509 37.4522 78.1599 39.7997 77.4274C42.1472 76.695 44.6374 76.543 47.0566 76.9845C49.4758 77.4261 51.7517 78.4479 53.6892 79.9624C55.6266 81.4769 57.1677 83.4389 58.1802 85.6799L75.8152 68.0449C72.1138 63.206 67.3431 59.2889 61.8764 56.6C56.4097 53.9111 50.395 52.5232 44.3028 52.5449Z" fill="#FBBC05"/>
</g>
</g>
<defs>
<filter id="filter0_f_6_3607" x="-25.001" y="-11" width="200" height="172.669" filterUnits="userSpaceOnUse" color-interpolation-filters="sRGB">
<feFlood flood-opacity="0" result="BackgroundImageFix"/>
<feBlend mode="normal" in="SourceGraphic" in2="BackgroundImageFix" result="shape"/>
<feGaussianBlur stdDeviation="15" result="effect1_foregroundBlur_6_3607"/>
</filter>
<filter id="filter1_f_6_3607" x="-25.001" y="-11" width="200" height="172.669" filterUnits="userSpaceOnUse" color-interpolation-filters="sRGB">
<feFlood flood-opacity="0" result="BackgroundImageFix"/>
<feBlend mode="normal" in="SourceGraphic" in2="BackgroundImageFix" result="shape"/>
<feGaussianBlur stdDeviation="15" result="effect1_foregroundBlur_6_3607"/>
</filter>
<filter id="filter2_f_6_3607" x="-25.001" y="-11" width="200" height="172.669" filterUnits="userSpaceOnUse" color-interpolation-filters="sRGB">
<feFlood flood-opacity="0" result="BackgroundImageFix"/>
<feBlend mode="normal" in="SourceGraphic" in2="BackgroundImageFix" result="shape"/>
<feGaussianBlur stdDeviation="15" result="effect1_foregroundBlur_6_3607"/>
</filter>
<filter id="filter3_f_6_3607" x="-25.001" y="-11" width="200" height="172.669" filterUnits="userSpaceOnUse" color-interpolation-filters="sRGB">
<feFlood flood-opacity="0" result="BackgroundImageFix"/>
<feBlend mode="normal" in="SourceGraphic" in2="BackgroundImageFix" result="shape"/>
<feGaussianBlur stdDeviation="15" result="effect1_foregroundBlur_6_3607"/>
</filter>
<filter id="filter4_f_6_3607" x="-25.001" y="-11" width="200" height="172.669" filterUnits="userSpaceOnUse" color-interpolation-filters="sRGB">
<feFlood flood-opacity="0" result="BackgroundImageFix"/>
<feBlend mode="normal" in="SourceGraphic" in2="BackgroundImageFix" result="shape"/>
<feGaussianBlur stdDeviation="15" result="effect1_foregroundBlur_6_3607"/>
</filter>
<filter id="filter5_f_6_3607" x="-25.001" y="-11" width="200" height="172.669" filterUnits="userSpaceOnUse" color-interpolation-filters="sRGB">
<feFlood flood-opacity="0" result="BackgroundImageFix"/>
<feBlend mode="normal" in="SourceGraphic" in2="BackgroundImageFix" result="shape"/>
<feGaussianBlur stdDeviation="15" result="effect1_foregroundBlur_6_3607"/>
</filter>
</defs>
</svg>
