<svg width="150" height="150" viewBox="0 0 150 150" fill="none" xmlns="http://www.w3.org/2000/svg">
<mask id="mask0_6_3609" style="mask-type:alpha" maskUnits="userSpaceOnUse" x="5" y="16" width="140" height="119">
<path d="M25.4479 85.76L40.6801 70.587L33.6863 63.534L30.4858 60.3334C27.9372 57.7849 26.574 54.4658 26.574 50.8504C26.574 47.7091 27.6409 44.8642 29.4782 42.6119C31.9675 39.4706 35.7608 37.4555 40.0282 37.4555C43.6436 37.4555 46.9627 38.878 49.5705 41.4265L52.7118 44.4493L59.7648 51.5616L75.0563 36.3886L67.944 29.3356L64.7435 26.2536C58.4017 19.9118 49.6891 16 40.0282 16C20.6471 16 5 31.6471 5 50.9096C5 55.7104 5.94831 60.2742 7.72639 64.4823C9.50447 68.6904 12.053 72.4244 15.2536 75.5657L25.4479 85.76Z" fill="#EA4335"/>
<path d="M53.301 88.427L75.0529 66.7937L59.7614 51.5615L25.4445 85.7599L33.6236 93.9983L40.6767 100.992L48.0261 93.6427" fill="#FBBC04"/>
<path d="M90.2273 120.077L124.604 85.76L109.312 70.5871L74.9951 104.845L55.9104 85.8193L40.6782 100.992L59.7629 120.077L59.7036 120.136L74.9951 134.539L90.2866 120.077H90.2273Z" fill="#34A853"/>
<path d="M134.739 75.5656C141.851 68.4532 145.941 57.5477 144.815 46.5236C143.155 29.8097 129.286 17.2446 112.454 16.1184C101.845 15.4072 92.1244 19.3783 85.2491 26.2535L59.7633 51.5615L74.9955 66.7937L100.481 41.4264C103.563 38.4037 107.831 36.9812 112.217 37.6925C117.907 38.5815 122.53 43.2638 123.3 48.9536C123.893 53.221 122.47 57.3699 119.448 60.3926L109.312 70.5871L124.604 85.76L134.739 75.5656Z" fill="#4285F4"/>
</mask>
<g mask="url(#mask0_6_3609)">
<g filter="url(#filter0_f_6_3609)">
<path d="M18.3949 78.7096L25.4479 85.7629L40.6801 70.5893L33.6863 63.536L30.4858 60.3353C27.9372 57.7866 26.574 54.4674 26.574 50.8518C26.574 47.7104 27.6409 44.8654 29.4782 42.613C31.9675 39.4716 35.7608 37.4564 40.0282 37.4564C43.6436 37.4564 46.9627 38.8789 49.5705 41.4276L52.7118 44.4505L59.7648 51.5631L75.0563 36.3895L67.944 29.3362L64.7435 26.254C58.4017 19.9119 49.6891 16 40.0282 16C20.6471 16 5 31.6478 5 50.9111C5 55.7121 5.94831 60.276 7.72639 64.4843C9.50447 68.6926 12.053 72.4268 15.2536 75.5682L18.3949 78.7096Z" fill="#EA4335"/>
<path d="M53.301 88.43L75.0529 66.7958L59.7614 51.563L40.6767 70.5892L25.4445 85.7628L33.6236 94.0016L40.6767 100.996L48.0261 93.646" fill="#FBBC04"/>
<path d="M90.2273 120.081L124.604 85.7629L109.312 70.5894L74.9951 104.848L55.9104 85.8222L40.6782 100.996L59.7629 120.081L59.7036 120.141L74.9951 134.544L90.2866 120.081H90.2273Z" fill="#34A853"/>
<path d="M134.739 75.5681C141.851 68.4555 145.941 57.5494 144.815 46.5249C143.155 29.8102 129.286 17.2446 112.454 16.1184C101.845 15.4072 92.1244 19.3784 85.2491 26.2539L59.7633 51.563L74.9955 66.7958L100.481 41.4275C103.563 38.4046 107.831 36.9821 112.217 37.6934C117.907 38.5825 122.53 43.2649 123.3 48.955C123.893 53.2226 122.47 57.3716 119.448 60.3945L109.312 70.5892L124.604 85.7628L134.739 75.5681Z" fill="#4285F4"/>
</g>
<g filter="url(#filter1_f_6_3609)">
<path d="M18.3949 78.7096L25.4479 85.7629L40.6801 70.5893L33.6863 63.536L30.4858 60.3353C27.9372 57.7866 26.574 54.4674 26.574 50.8518C26.574 47.7104 27.6409 44.8654 29.4782 42.613C31.9675 39.4716 35.7608 37.4564 40.0282 37.4564C43.6436 37.4564 46.9627 38.8789 49.5705 41.4276L52.7118 44.4505L59.7648 51.5631L75.0563 36.3895L67.944 29.3362L64.7435 26.254C58.4017 19.9119 49.6891 16 40.0282 16C20.6471 16 5 31.6478 5 50.9111C5 55.7121 5.94831 60.276 7.72639 64.4843C9.50447 68.6926 12.053 72.4268 15.2536 75.5682L18.3949 78.7096Z" fill="#EA4335"/>
<path d="M53.301 88.43L75.0529 66.7958L59.7614 51.563L40.6767 70.5892L25.4445 85.7628L33.6236 94.0016L40.6767 100.996L48.0261 93.646" fill="#FBBC04"/>
<path d="M90.2273 120.081L124.604 85.7629L109.312 70.5894L74.9951 104.848L55.9104 85.8222L40.6782 100.996L59.7629 120.081L59.7036 120.141L74.9951 134.544L90.2866 120.081H90.2273Z" fill="#34A853"/>
<path d="M134.739 75.5681C141.851 68.4555 145.941 57.5494 144.815 46.5249C143.155 29.8102 129.286 17.2446 112.454 16.1184C101.845 15.4072 92.1244 19.3784 85.2491 26.2539L59.7633 51.563L74.9955 66.7958L100.481 41.4275C103.563 38.4046 107.831 36.9821 112.217 37.6934C117.907 38.5825 122.53 43.2649 123.3 48.955C123.893 53.2226 122.47 57.3716 119.448 60.3945L109.312 70.5892L124.604 85.7628L134.739 75.5681Z" fill="#4285F4"/>
</g>
<g filter="url(#filter2_f_6_3609)">
<path d="M18.3949 78.7096L25.4479 85.7629L40.6801 70.5893L33.6863 63.536L30.4858 60.3353C27.9372 57.7866 26.574 54.4674 26.574 50.8518C26.574 47.7104 27.6409 44.8654 29.4782 42.613C31.9675 39.4716 35.7608 37.4564 40.0282 37.4564C43.6436 37.4564 46.9627 38.8789 49.5705 41.4276L52.7118 44.4505L59.7648 51.5631L75.0563 36.3895L67.944 29.3362L64.7435 26.254C58.4017 19.9119 49.6891 16 40.0282 16C20.6471 16 5 31.6478 5 50.9111C5 55.7121 5.94831 60.276 7.72639 64.4843C9.50447 68.6926 12.053 72.4268 15.2536 75.5682L18.3949 78.7096Z" fill="#EA4335"/>
<path d="M53.301 88.43L75.0529 66.7958L59.7614 51.563L40.6767 70.5892L25.4445 85.7628L33.6236 94.0016L40.6767 100.996L48.0261 93.646" fill="#FBBC04"/>
<path d="M90.2273 120.081L124.604 85.7629L109.312 70.5894L74.9951 104.848L55.9104 85.8222L40.6782 100.996L59.7629 120.081L59.7036 120.141L74.9951 134.544L90.2866 120.081H90.2273Z" fill="#34A853"/>
<path d="M134.739 75.5681C141.851 68.4555 145.941 57.5494 144.815 46.5249C143.155 29.8102 129.286 17.2446 112.454 16.1184C101.845 15.4072 92.1244 19.3784 85.2491 26.2539L59.7633 51.563L74.9955 66.7958L100.481 41.4275C103.563 38.4046 107.831 36.9821 112.217 37.6934C117.907 38.5825 122.53 43.2649 123.3 48.955C123.893 53.2226 122.47 57.3716 119.448 60.3945L109.312 70.5892L124.604 85.7628L134.739 75.5681Z" fill="#4285F4"/>
</g>
<g filter="url(#filter3_f_6_3609)">
<path d="M18.3949 78.7096L25.4479 85.7629L40.6801 70.5893L33.6863 63.536L30.4858 60.3353C27.9372 57.7866 26.574 54.4674 26.574 50.8518C26.574 47.7104 27.6409 44.8654 29.4782 42.613C31.9675 39.4716 35.7608 37.4564 40.0282 37.4564C43.6436 37.4564 46.9627 38.8789 49.5705 41.4276L52.7118 44.4505L59.7648 51.5631L75.0563 36.3895L67.944 29.3362L64.7435 26.254C58.4017 19.9119 49.6891 16 40.0282 16C20.6471 16 5 31.6478 5 50.9111C5 55.7121 5.94831 60.276 7.72639 64.4843C9.50447 68.6926 12.053 72.4268 15.2536 75.5682L18.3949 78.7096Z" fill="#EA4335"/>
<path d="M53.301 88.43L75.0529 66.7958L59.7614 51.563L40.6767 70.5892L25.4445 85.7628L33.6236 94.0016L40.6767 100.996L48.0261 93.646" fill="#FBBC04"/>
<path d="M90.2273 120.081L124.604 85.7629L109.312 70.5894L74.9951 104.848L55.9104 85.8222L40.6782 100.996L59.7629 120.081L59.7036 120.141L74.9951 134.544L90.2866 120.081H90.2273Z" fill="#34A853"/>
<path d="M134.739 75.5681C141.851 68.4555 145.941 57.5494 144.815 46.5249C143.155 29.8102 129.286 17.2446 112.454 16.1184C101.845 15.4072 92.1244 19.3784 85.2491 26.2539L59.7633 51.563L74.9955 66.7958L100.481 41.4275C103.563 38.4046 107.831 36.9821 112.217 37.6934C117.907 38.5825 122.53 43.2649 123.3 48.955C123.893 53.2226 122.47 57.3716 119.448 60.3945L109.312 70.5892L124.604 85.7628L134.739 75.5681Z" fill="#4285F4"/>
</g>
<g filter="url(#filter4_f_6_3609)">
<path d="M18.3949 78.7096L25.4479 85.7629L40.6801 70.5893L33.6863 63.536L30.4858 60.3353C27.9372 57.7866 26.574 54.4674 26.574 50.8518C26.574 47.7104 27.6409 44.8654 29.4782 42.613C31.9675 39.4716 35.7608 37.4564 40.0282 37.4564C43.6436 37.4564 46.9627 38.8789 49.5705 41.4276L52.7118 44.4505L59.7648 51.5631L75.0563 36.3895L67.944 29.3362L64.7435 26.254C58.4017 19.9119 49.6891 16 40.0282 16C20.6471 16 5 31.6478 5 50.9111C5 55.7121 5.94831 60.276 7.72639 64.4843C9.50447 68.6926 12.053 72.4268 15.2536 75.5682L18.3949 78.7096Z" fill="#EA4335"/>
<path d="M53.301 88.43L75.0529 66.7958L59.7614 51.563L40.6767 70.5892L25.4445 85.7628L33.6236 94.0016L40.6767 100.996L48.0261 93.646" fill="#FBBC04"/>
<path d="M90.2273 120.081L124.604 85.7629L109.312 70.5894L74.9951 104.848L55.9104 85.8222L40.6782 100.996L59.7629 120.081L59.7036 120.141L74.9951 134.544L90.2866 120.081H90.2273Z" fill="#34A853"/>
<path d="M134.739 75.5681C141.851 68.4555 145.941 57.5494 144.815 46.5249C143.155 29.8102 129.286 17.2446 112.454 16.1184C101.845 15.4072 92.1244 19.3784 85.2491 26.2539L59.7633 51.563L74.9955 66.7958L100.481 41.4275C103.563 38.4046 107.831 36.9821 112.217 37.6934C117.907 38.5825 122.53 43.2649 123.3 48.955C123.893 53.2226 122.47 57.3716 119.448 60.3945L109.312 70.5892L124.604 85.7628L134.739 75.5681Z" fill="#4285F4"/>
</g>
<g filter="url(#filter5_f_6_3609)">
<path d="M18.3949 78.7096L25.4479 85.7629L40.6801 70.5893L33.6863 63.536L30.4858 60.3353C27.9372 57.7866 26.574 54.4674 26.574 50.8518C26.574 47.7104 27.6409 44.8654 29.4782 42.613C31.9675 39.4716 35.7608 37.4564 40.0282 37.4564C43.6436 37.4564 46.9627 38.8789 49.5705 41.4276L52.7118 44.4505L59.7648 51.5631L75.0563 36.3895L67.944 29.3362L64.7435 26.254C58.4017 19.9119 49.6891 16 40.0282 16C20.6471 16 5 31.6478 5 50.9111C5 55.7121 5.94831 60.276 7.72639 64.4843C9.50447 68.6926 12.053 72.4268 15.2536 75.5682L18.3949 78.7096Z" fill="#EA4335"/>
<path d="M53.301 88.43L75.0529 66.7958L59.7614 51.563L40.6767 70.5892L25.4445 85.7628L33.6236 94.0016L40.6767 100.996L48.0261 93.646" fill="#FBBC04"/>
<path d="M90.2273 120.081L124.604 85.7629L109.312 70.5894L74.9951 104.848L55.9104 85.8222L40.6782 100.996L59.7629 120.081L59.7036 120.141L74.9951 134.544L90.2866 120.081H90.2273Z" fill="#34A853"/>
<path d="M134.739 75.5681C141.851 68.4555 145.941 57.5494 144.815 46.5249C143.155 29.8102 129.286 17.2446 112.454 16.1184C101.845 15.4072 92.1244 19.3784 85.2491 26.2539L59.7633 51.563L74.9955 66.7958L100.481 41.4275C103.563 38.4046 107.831 36.9821 112.217 37.6934C117.907 38.5825 122.53 43.2649 123.3 48.955C123.893 53.2226 122.47 57.3716 119.448 60.3945L109.312 70.5892L124.604 85.7628L134.739 75.5681Z" fill="#4285F4"/>
</g>
<g filter="url(#filter6_f_6_3609)">
<path d="M18.3949 78.7096L25.4479 85.7629L40.6801 70.5893L33.6863 63.536L30.4858 60.3353C27.9372 57.7866 26.574 54.4674 26.574 50.8518C26.574 47.7104 27.6409 44.8654 29.4782 42.613C31.9675 39.4716 35.7608 37.4564 40.0282 37.4564C43.6436 37.4564 46.9627 38.8789 49.5705 41.4276L52.7118 44.4505L59.7648 51.5631L75.0563 36.3895L67.944 29.3362L64.7435 26.254C58.4017 19.9119 49.6891 16 40.0282 16C20.6471 16 5 31.6478 5 50.9111C5 55.7121 5.94831 60.276 7.72639 64.4843C9.50447 68.6926 12.053 72.4268 15.2536 75.5682L18.3949 78.7096Z" fill="#EA4335"/>
<path d="M53.301 88.43L75.0529 66.7958L59.7614 51.563L40.6767 70.5892L25.4445 85.7628L33.6236 94.0016L40.6767 100.996L48.0261 93.646" fill="#FBBC04"/>
<path d="M90.2273 120.081L124.604 85.7629L109.312 70.5894L74.9951 104.848L55.9104 85.8222L40.6782 100.996L59.7629 120.081L59.7036 120.141L74.9951 134.544L90.2866 120.081H90.2273Z" fill="#34A853"/>
<path d="M134.739 75.5681C141.851 68.4555 145.941 57.5494 144.815 46.5249C143.155 29.8102 129.286 17.2446 112.454 16.1184C101.845 15.4072 92.1244 19.3784 85.2491 26.2539L59.7633 51.563L74.9955 66.7958L100.481 41.4275C103.563 38.4046 107.831 36.9821 112.217 37.6934C117.907 38.5825 122.53 43.2649 123.3 48.955C123.893 53.2226 122.47 57.3716 119.448 60.3945L109.312 70.5892L124.604 85.7628L134.739 75.5681Z" fill="#4285F4"/>
</g>
</g>
<defs>
<filter id="filter0_f_6_3609" x="-15" y="-4" width="180" height="158.544" filterUnits="userSpaceOnUse" color-interpolation-filters="sRGB">
<feFlood flood-opacity="0" result="BackgroundImageFix"/>
<feBlend mode="normal" in="SourceGraphic" in2="BackgroundImageFix" result="shape"/>
<feGaussianBlur stdDeviation="10" result="effect1_foregroundBlur_6_3609"/>
</filter>
<filter id="filter1_f_6_3609" x="-15" y="-4" width="180" height="158.544" filterUnits="userSpaceOnUse" color-interpolation-filters="sRGB">
<feFlood flood-opacity="0" result="BackgroundImageFix"/>
<feBlend mode="normal" in="SourceGraphic" in2="BackgroundImageFix" result="shape"/>
<feGaussianBlur stdDeviation="10" result="effect1_foregroundBlur_6_3609"/>
</filter>
<filter id="filter2_f_6_3609" x="-15" y="-4" width="180" height="158.544" filterUnits="userSpaceOnUse" color-interpolation-filters="sRGB">
<feFlood flood-opacity="0" result="BackgroundImageFix"/>
<feBlend mode="normal" in="SourceGraphic" in2="BackgroundImageFix" result="shape"/>
<feGaussianBlur stdDeviation="10" result="effect1_foregroundBlur_6_3609"/>
</filter>
<filter id="filter3_f_6_3609" x="-15" y="-4" width="180" height="158.544" filterUnits="userSpaceOnUse" color-interpolation-filters="sRGB">
<feFlood flood-opacity="0" result="BackgroundImageFix"/>
<feBlend mode="normal" in="SourceGraphic" in2="BackgroundImageFix" result="shape"/>
<feGaussianBlur stdDeviation="10" result="effect1_foregroundBlur_6_3609"/>
</filter>
<filter id="filter4_f_6_3609" x="-15" y="-4" width="180" height="158.544" filterUnits="userSpaceOnUse" color-interpolation-filters="sRGB">
<feFlood flood-opacity="0" result="BackgroundImageFix"/>
<feBlend mode="normal" in="SourceGraphic" in2="BackgroundImageFix" result="shape"/>
<feGaussianBlur stdDeviation="10" result="effect1_foregroundBlur_6_3609"/>
</filter>
<filter id="filter5_f_6_3609" x="-15" y="-4" width="180" height="158.544" filterUnits="userSpaceOnUse" color-interpolation-filters="sRGB">
<feFlood flood-opacity="0" result="BackgroundImageFix"/>
<feBlend mode="normal" in="SourceGraphic" in2="BackgroundImageFix" result="shape"/>
<feGaussianBlur stdDeviation="10" result="effect1_foregroundBlur_6_3609"/>
</filter>
<filter id="filter6_f_6_3609" x="-15" y="-4" width="180" height="158.544" filterUnits="userSpaceOnUse" color-interpolation-filters="sRGB">
<feFlood flood-opacity="0" result="BackgroundImageFix"/>
<feBlend mode="normal" in="SourceGraphic" in2="BackgroundImageFix" result="shape"/>
<feGaussianBlur stdDeviation="10" result="effect1_foregroundBlur_6_3609"/>
</filter>
</defs>
</svg>
