<svg width="150" height="150" viewBox="0 0 150 150" fill="none" xmlns="http://www.w3.org/2000/svg">
<mask id="mask0_6_3595" style="mask-type:alpha" maskUnits="userSpaceOnUse" x="5" y="5" width="141" height="140">
<path d="M53.273 95.3182C50.5192 93.4576 48.6124 90.7409 47.5715 87.1485L53.9639 84.5144C54.5442 86.725 55.5571 88.4379 57.0033 89.6538C58.4404 90.8697 60.1904 91.4682 62.2351 91.4682C64.326 91.4682 66.1222 90.8326 67.623 89.5614C69.1238 88.2902 69.8798 86.669 69.8798 84.7076C69.8798 82.7 69.0874 81.0599 67.5033 79.7894C65.9192 78.5189 63.9298 77.8826 61.5533 77.8826H57.8601V71.5553H61.1753C63.22 71.5553 64.9427 71.003 66.3427 69.8977C67.7427 68.7924 68.4427 67.2818 68.4427 65.3568C68.4427 63.6439 67.8162 62.2803 66.5639 61.2583C65.3116 60.2363 63.7268 59.7204 61.8018 59.7204C59.923 59.7204 58.4306 60.2181 57.3253 61.2219C56.22 62.2257 55.4185 63.4598 54.9124 64.9151L48.5851 62.281C49.423 59.9045 50.9616 57.8045 53.2177 55.9901C55.4745 54.1757 58.3571 53.2636 61.8571 53.2636C64.445 53.2636 66.7753 53.7613 68.8389 54.7651C70.9018 55.7689 72.523 57.1598 73.6927 58.928C74.8624 60.7053 75.4427 62.6954 75.4427 64.9053C75.4427 67.1621 74.8995 69.0682 73.8124 70.6341C72.7253 72.2 71.3897 73.397 69.8056 74.2356V74.6129C71.8965 75.4879 73.6003 76.8235 74.945 78.6197C76.2806 80.4159 76.9526 82.5621 76.9526 85.0674C76.9526 87.5727 76.317 89.8106 75.0458 91.7727C73.7746 93.7348 72.0155 95.2818 69.7867 96.4053C67.5488 97.5288 65.0344 98.1 62.2435 98.1C59.0109 98.1091 56.0268 97.1788 53.273 95.3182Z" fill="#1A73E8"/>
<path d="M92.4991 63.5978L85.5173 68.6728L82.0082 63.3493L94.5991 54.2675H99.4256V97.1054H92.4991V63.5978Z" fill="#1A73E8"/>
<path d="M111.842 145L145 111.842L128.421 104.474L111.842 111.842L104.474 128.421L111.842 145Z" fill="#EA4335"/>
<path d="M30.7906 128.421L38.1588 145L111.842 145V111.842L38.1588 111.842L30.7906 128.421Z" fill="#34A853"/>
<path d="M16.0523 5C9.9462 5 5 9.9462 5 16.0523V111.842L21.5788 119.21L38.1576 111.842V38.1576H111.842L119.21 21.5788L111.842 5H16.0523Z" fill="#4285F4"/>
<path d="M5 111.842V133.948C5 140.055 9.9462 145 16.0523 145H38.1576V111.842H5Z" fill="#188038"/>
<path d="M111.843 38.1576V111.842H145.001V38.1576L128.422 30.7894L111.843 38.1576Z" fill="#FBBC04"/>
<path d="M145.001 38.1576V16.0523C145.001 9.9455 140.054 5 133.948 5H111.842L111.843 38.1576H145.001Z" fill="#1967D2"/>
</mask>
<g mask="url(#mask0_6_3595)">
<g filter="url(#filter0_f_6_3595)">
<path d="M111.843 38.1575L78.6851 34.4734L38.1586 38.1575L34.4738 74.9999L38.1579 111.842L75.0003 116.448L111.843 111.842L115.527 74.0794L111.843 38.1575Z" fill="white"/>
<path d="M53.273 95.3183C50.5192 93.4577 48.6124 90.741 47.5715 87.1486L53.9639 84.5145C54.5442 86.7251 55.5571 88.438 57.0033 89.6539C58.4404 90.8698 60.1904 91.4683 62.2351 91.4683C64.326 91.4683 66.1222 90.8327 67.623 89.5615C69.1238 88.2903 69.8798 86.6691 69.8798 84.7077C69.8798 82.7001 69.0874 81.06 67.5033 79.7895C65.9192 78.519 63.9298 77.8827 61.5533 77.8827H57.8601V71.5554H61.1753C63.22 71.5554 64.9427 71.0031 66.3427 69.8978C67.7427 68.7925 68.4427 67.2819 68.4427 65.3569C68.4427 63.644 67.8162 62.2804 66.5639 61.2584C65.3116 60.2364 63.7268 59.7205 61.8018 59.7205C59.923 59.7205 58.4306 60.2182 57.3253 61.222C56.22 62.2258 55.4185 63.4599 54.9124 64.9152L48.5851 62.2811C49.423 59.9046 50.9616 57.8046 53.2177 55.9902C55.4745 54.1758 58.3571 53.2637 61.8571 53.2637C64.445 53.2637 66.7753 53.7614 68.8389 54.7652C70.9018 55.769 72.523 57.1599 73.6927 58.9281C74.8624 60.7054 75.4427 62.6955 75.4427 64.9054C75.4427 67.1622 74.8995 69.0683 73.8124 70.6342C72.7253 72.2001 71.3897 73.3971 69.8056 74.2357V74.613C71.8965 75.488 73.6003 76.8236 74.945 78.6198C76.2806 80.416 76.9526 82.5622 76.9526 85.0675C76.9526 87.5728 76.317 89.8107 75.0458 91.7728C73.7746 93.7349 72.0155 95.2819 69.7867 96.4054C67.5488 97.5289 65.0344 98.1001 62.2435 98.1001C59.0109 98.1092 56.0268 97.1789 53.273 95.3183Z" fill="#1A73E8"/>
<path d="M92.4991 63.5979L85.5173 68.6729L82.0082 63.3494L94.5991 54.2676H99.4256V97.1055H92.4991V63.5979Z" fill="#1A73E8"/>
<path d="M111.842 145L145 111.842L128.421 104.474L111.842 111.842L104.474 128.421L111.842 145Z" fill="#EA4335"/>
<path d="M30.7906 128.421L38.1588 145H111.843V111.843H38.1588L30.7906 128.421Z" fill="#34A853"/>
<path d="M16.0523 5C9.9462 5 5 9.9462 5 16.0523V111.842L21.5788 119.21L38.1576 111.842V38.1576H111.842L119.21 21.5788L111.842 5H16.0523Z" fill="#4285F4"/>
<path d="M5 111.843V133.948C5 140.055 9.9462 145 16.0523 145H38.1576V111.843H5Z" fill="#188038"/>
<path d="M111.843 38.1578V111.842H145.001V38.1578L128.422 30.7896L111.843 38.1578Z" fill="#FBBC04"/>
<path d="M145.001 38.1576V16.0523C145.001 9.9455 140.054 5 133.948 5H111.843V38.1576H145.001Z" fill="#1967D2"/>
</g>
<g filter="url(#filter1_f_6_3595)">
<path d="M111.843 38.1575L78.6851 34.4734L38.1586 38.1575L34.4738 74.9999L38.1579 111.842L75.0003 116.448L111.843 111.842L115.527 74.0794L111.843 38.1575Z" fill="white"/>
<path d="M53.273 95.3183C50.5192 93.4577 48.6124 90.741 47.5715 87.1486L53.9639 84.5145C54.5442 86.7251 55.5571 88.438 57.0033 89.6539C58.4404 90.8698 60.1904 91.4683 62.2351 91.4683C64.326 91.4683 66.1222 90.8327 67.623 89.5615C69.1238 88.2903 69.8798 86.6691 69.8798 84.7077C69.8798 82.7001 69.0874 81.06 67.5033 79.7895C65.9192 78.519 63.9298 77.8827 61.5533 77.8827H57.8601V71.5554H61.1753C63.22 71.5554 64.9427 71.0031 66.3427 69.8978C67.7427 68.7925 68.4427 67.2819 68.4427 65.3569C68.4427 63.644 67.8162 62.2804 66.5639 61.2584C65.3116 60.2364 63.7268 59.7205 61.8018 59.7205C59.923 59.7205 58.4306 60.2182 57.3253 61.222C56.22 62.2258 55.4185 63.4599 54.9124 64.9152L48.5851 62.2811C49.423 59.9046 50.9616 57.8046 53.2177 55.9902C55.4745 54.1758 58.3571 53.2637 61.8571 53.2637C64.445 53.2637 66.7753 53.7614 68.8389 54.7652C70.9018 55.769 72.523 57.1599 73.6927 58.9281C74.8624 60.7054 75.4427 62.6955 75.4427 64.9054C75.4427 67.1622 74.8995 69.0683 73.8124 70.6342C72.7253 72.2001 71.3897 73.3971 69.8056 74.2357V74.613C71.8965 75.488 73.6003 76.8236 74.945 78.6198C76.2806 80.416 76.9526 82.5622 76.9526 85.0675C76.9526 87.5728 76.317 89.8107 75.0458 91.7728C73.7746 93.7349 72.0155 95.2819 69.7867 96.4054C67.5488 97.5289 65.0344 98.1001 62.2435 98.1001C59.0109 98.1092 56.0268 97.1789 53.273 95.3183Z" fill="#1A73E8"/>
<path d="M92.4991 63.5979L85.5173 68.6729L82.0082 63.3494L94.5991 54.2676H99.4256V97.1055H92.4991V63.5979Z" fill="#1A73E8"/>
<path d="M111.842 145L145 111.842L128.421 104.474L111.842 111.842L104.474 128.421L111.842 145Z" fill="#EA4335"/>
<path d="M30.7906 128.421L38.1588 145H111.843V111.843H38.1588L30.7906 128.421Z" fill="#34A853"/>
<path d="M16.0523 5C9.9462 5 5 9.9462 5 16.0523V111.842L21.5788 119.21L38.1576 111.842V38.1576H111.842L119.21 21.5788L111.842 5H16.0523Z" fill="#4285F4"/>
<path d="M5 111.843V133.948C5 140.055 9.9462 145 16.0523 145H38.1576V111.843H5Z" fill="#188038"/>
<path d="M111.843 38.1578V111.842H145.001V38.1578L128.422 30.7896L111.843 38.1578Z" fill="#FBBC04"/>
<path d="M145.001 38.1576V16.0523C145.001 9.9455 140.054 5 133.948 5H111.843V38.1576H145.001Z" fill="#1967D2"/>
</g>
<g filter="url(#filter2_f_6_3595)">
<path d="M111.843 38.1575L78.6851 34.4734L38.1586 38.1575L34.4738 74.9999L38.1579 111.842L75.0003 116.448L111.843 111.842L115.527 74.0794L111.843 38.1575Z" fill="white"/>
<path d="M53.273 95.3183C50.5192 93.4577 48.6124 90.741 47.5715 87.1486L53.9639 84.5145C54.5442 86.7251 55.5571 88.438 57.0033 89.6539C58.4404 90.8698 60.1904 91.4683 62.2351 91.4683C64.326 91.4683 66.1222 90.8327 67.623 89.5615C69.1238 88.2903 69.8798 86.6691 69.8798 84.7077C69.8798 82.7001 69.0874 81.06 67.5033 79.7895C65.9192 78.519 63.9298 77.8827 61.5533 77.8827H57.8601V71.5554H61.1753C63.22 71.5554 64.9427 71.0031 66.3427 69.8978C67.7427 68.7925 68.4427 67.2819 68.4427 65.3569C68.4427 63.644 67.8162 62.2804 66.5639 61.2584C65.3116 60.2364 63.7268 59.7205 61.8018 59.7205C59.923 59.7205 58.4306 60.2182 57.3253 61.222C56.22 62.2258 55.4185 63.4599 54.9124 64.9152L48.5851 62.2811C49.423 59.9046 50.9616 57.8046 53.2177 55.9902C55.4745 54.1758 58.3571 53.2637 61.8571 53.2637C64.445 53.2637 66.7753 53.7614 68.8389 54.7652C70.9018 55.769 72.523 57.1599 73.6927 58.9281C74.8624 60.7054 75.4427 62.6955 75.4427 64.9054C75.4427 67.1622 74.8995 69.0683 73.8124 70.6342C72.7253 72.2001 71.3897 73.3971 69.8056 74.2357V74.613C71.8965 75.488 73.6003 76.8236 74.945 78.6198C76.2806 80.416 76.9526 82.5622 76.9526 85.0675C76.9526 87.5728 76.317 89.8107 75.0458 91.7728C73.7746 93.7349 72.0155 95.2819 69.7867 96.4054C67.5488 97.5289 65.0344 98.1001 62.2435 98.1001C59.0109 98.1092 56.0268 97.1789 53.273 95.3183Z" fill="#1A73E8"/>
<path d="M92.4991 63.5979L85.5173 68.6729L82.0082 63.3494L94.5991 54.2676H99.4256V97.1055H92.4991V63.5979Z" fill="#1A73E8"/>
<path d="M111.842 145L145 111.842L128.421 104.474L111.842 111.842L104.474 128.421L111.842 145Z" fill="#EA4335"/>
<path d="M30.7906 128.421L38.1588 145H111.843V111.843H38.1588L30.7906 128.421Z" fill="#34A853"/>
<path d="M16.0523 5C9.9462 5 5 9.9462 5 16.0523V111.842L21.5788 119.21L38.1576 111.842V38.1576H111.842L119.21 21.5788L111.842 5H16.0523Z" fill="#4285F4"/>
<path d="M5 111.843V133.948C5 140.055 9.9462 145 16.0523 145H38.1576V111.843H5Z" fill="#188038"/>
<path d="M111.843 38.1578V111.842H145.001V38.1578L128.422 30.7896L111.843 38.1578Z" fill="#FBBC04"/>
<path d="M145.001 38.1576V16.0523C145.001 9.9455 140.054 5 133.948 5H111.843V38.1576H145.001Z" fill="#1967D2"/>
</g>
<g filter="url(#filter3_f_6_3595)">
<path d="M111.843 38.1575L78.6851 34.4734L38.1586 38.1575L34.4738 74.9999L38.1579 111.842L75.0003 116.448L111.843 111.842L115.527 74.0794L111.843 38.1575Z" fill="white"/>
<path d="M53.273 95.3183C50.5192 93.4577 48.6124 90.741 47.5715 87.1486L53.9639 84.5145C54.5442 86.7251 55.5571 88.438 57.0033 89.6539C58.4404 90.8698 60.1904 91.4683 62.2351 91.4683C64.326 91.4683 66.1222 90.8327 67.623 89.5615C69.1238 88.2903 69.8798 86.6691 69.8798 84.7077C69.8798 82.7001 69.0874 81.06 67.5033 79.7895C65.9192 78.519 63.9298 77.8827 61.5533 77.8827H57.8601V71.5554H61.1753C63.22 71.5554 64.9427 71.0031 66.3427 69.8978C67.7427 68.7925 68.4427 67.2819 68.4427 65.3569C68.4427 63.644 67.8162 62.2804 66.5639 61.2584C65.3116 60.2364 63.7268 59.7205 61.8018 59.7205C59.923 59.7205 58.4306 60.2182 57.3253 61.222C56.22 62.2258 55.4185 63.4599 54.9124 64.9152L48.5851 62.2811C49.423 59.9046 50.9616 57.8046 53.2177 55.9902C55.4745 54.1758 58.3571 53.2637 61.8571 53.2637C64.445 53.2637 66.7753 53.7614 68.8389 54.7652C70.9018 55.769 72.523 57.1599 73.6927 58.9281C74.8624 60.7054 75.4427 62.6955 75.4427 64.9054C75.4427 67.1622 74.8995 69.0683 73.8124 70.6342C72.7253 72.2001 71.3897 73.3971 69.8056 74.2357V74.613C71.8965 75.488 73.6003 76.8236 74.945 78.6198C76.2806 80.416 76.9526 82.5622 76.9526 85.0675C76.9526 87.5728 76.317 89.8107 75.0458 91.7728C73.7746 93.7349 72.0155 95.2819 69.7867 96.4054C67.5488 97.5289 65.0344 98.1001 62.2435 98.1001C59.0109 98.1092 56.0268 97.1789 53.273 95.3183Z" fill="#1A73E8"/>
<path d="M92.4991 63.5979L85.5173 68.6729L82.0082 63.3494L94.5991 54.2676H99.4256V97.1055H92.4991V63.5979Z" fill="#1A73E8"/>
<path d="M111.842 145L145 111.842L128.421 104.474L111.842 111.842L104.474 128.421L111.842 145Z" fill="#EA4335"/>
<path d="M30.7906 128.421L38.1588 145H111.843V111.843H38.1588L30.7906 128.421Z" fill="#34A853"/>
<path d="M16.0523 5C9.9462 5 5 9.9462 5 16.0523V111.842L21.5788 119.21L38.1576 111.842V38.1576H111.842L119.21 21.5788L111.842 5H16.0523Z" fill="#4285F4"/>
<path d="M5 111.843V133.948C5 140.055 9.9462 145 16.0523 145H38.1576V111.843H5Z" fill="#188038"/>
<path d="M111.843 38.1578V111.842H145.001V38.1578L128.422 30.7896L111.843 38.1578Z" fill="#FBBC04"/>
<path d="M145.001 38.1576V16.0523C145.001 9.9455 140.054 5 133.948 5H111.843V38.1576H145.001Z" fill="#1967D2"/>
</g>
<g filter="url(#filter4_f_6_3595)">
<path d="M111.843 38.1575L78.6851 34.4734L38.1586 38.1575L34.4738 74.9999L38.1579 111.842L75.0003 116.448L111.843 111.842L115.527 74.0794L111.843 38.1575Z" fill="white"/>
<path d="M53.273 95.3183C50.5192 93.4577 48.6124 90.741 47.5715 87.1486L53.9639 84.5145C54.5442 86.7251 55.5571 88.438 57.0033 89.6539C58.4404 90.8698 60.1904 91.4683 62.2351 91.4683C64.326 91.4683 66.1222 90.8327 67.623 89.5615C69.1238 88.2903 69.8798 86.6691 69.8798 84.7077C69.8798 82.7001 69.0874 81.06 67.5033 79.7895C65.9192 78.519 63.9298 77.8827 61.5533 77.8827H57.8601V71.5554H61.1753C63.22 71.5554 64.9427 71.0031 66.3427 69.8978C67.7427 68.7925 68.4427 67.2819 68.4427 65.3569C68.4427 63.644 67.8162 62.2804 66.5639 61.2584C65.3116 60.2364 63.7268 59.7205 61.8018 59.7205C59.923 59.7205 58.4306 60.2182 57.3253 61.222C56.22 62.2258 55.4185 63.4599 54.9124 64.9152L48.5851 62.2811C49.423 59.9046 50.9616 57.8046 53.2177 55.9902C55.4745 54.1758 58.3571 53.2637 61.8571 53.2637C64.445 53.2637 66.7753 53.7614 68.8389 54.7652C70.9018 55.769 72.523 57.1599 73.6927 58.9281C74.8624 60.7054 75.4427 62.6955 75.4427 64.9054C75.4427 67.1622 74.8995 69.0683 73.8124 70.6342C72.7253 72.2001 71.3897 73.3971 69.8056 74.2357V74.613C71.8965 75.488 73.6003 76.8236 74.945 78.6198C76.2806 80.416 76.9526 82.5622 76.9526 85.0675C76.9526 87.5728 76.317 89.8107 75.0458 91.7728C73.7746 93.7349 72.0155 95.2819 69.7867 96.4054C67.5488 97.5289 65.0344 98.1001 62.2435 98.1001C59.0109 98.1092 56.0268 97.1789 53.273 95.3183Z" fill="#1A73E8"/>
<path d="M92.4991 63.5979L85.5173 68.6729L82.0082 63.3494L94.5991 54.2676H99.4256V97.1055H92.4991V63.5979Z" fill="#1A73E8"/>
<path d="M111.842 145L145 111.842L128.421 104.474L111.842 111.842L104.474 128.421L111.842 145Z" fill="#EA4335"/>
<path d="M30.7906 128.421L38.1588 145H111.843V111.843H38.1588L30.7906 128.421Z" fill="#34A853"/>
<path d="M16.0523 5C9.9462 5 5 9.9462 5 16.0523V111.842L21.5788 119.21L38.1576 111.842V38.1576H111.842L119.21 21.5788L111.842 5H16.0523Z" fill="#4285F4"/>
<path d="M5 111.843V133.948C5 140.055 9.9462 145 16.0523 145H38.1576V111.843H5Z" fill="#188038"/>
<path d="M111.843 38.1578V111.842H145.001V38.1578L128.422 30.7896L111.843 38.1578Z" fill="#FBBC04"/>
<path d="M145.001 38.1576V16.0523C145.001 9.9455 140.054 5 133.948 5H111.843V38.1576H145.001Z" fill="#1967D2"/>
</g>
<g filter="url(#filter5_f_6_3595)">
<path d="M111.843 38.1575L78.6851 34.4734L38.1586 38.1575L34.4738 74.9999L38.1579 111.842L75.0003 116.448L111.843 111.842L115.527 74.0794L111.843 38.1575Z" fill="white"/>
<path d="M53.273 95.3183C50.5192 93.4577 48.6124 90.741 47.5715 87.1486L53.9639 84.5145C54.5442 86.7251 55.5571 88.438 57.0033 89.6539C58.4404 90.8698 60.1904 91.4683 62.2351 91.4683C64.326 91.4683 66.1222 90.8327 67.623 89.5615C69.1238 88.2903 69.8798 86.6691 69.8798 84.7077C69.8798 82.7001 69.0874 81.06 67.5033 79.7895C65.9192 78.519 63.9298 77.8827 61.5533 77.8827H57.8601V71.5554H61.1753C63.22 71.5554 64.9427 71.0031 66.3427 69.8978C67.7427 68.7925 68.4427 67.2819 68.4427 65.3569C68.4427 63.644 67.8162 62.2804 66.5639 61.2584C65.3116 60.2364 63.7268 59.7205 61.8018 59.7205C59.923 59.7205 58.4306 60.2182 57.3253 61.222C56.22 62.2258 55.4185 63.4599 54.9124 64.9152L48.5851 62.2811C49.423 59.9046 50.9616 57.8046 53.2177 55.9902C55.4745 54.1758 58.3571 53.2637 61.8571 53.2637C64.445 53.2637 66.7753 53.7614 68.8389 54.7652C70.9018 55.769 72.523 57.1599 73.6927 58.9281C74.8624 60.7054 75.4427 62.6955 75.4427 64.9054C75.4427 67.1622 74.8995 69.0683 73.8124 70.6342C72.7253 72.2001 71.3897 73.3971 69.8056 74.2357V74.613C71.8965 75.488 73.6003 76.8236 74.945 78.6198C76.2806 80.416 76.9526 82.5622 76.9526 85.0675C76.9526 87.5728 76.317 89.8107 75.0458 91.7728C73.7746 93.7349 72.0155 95.2819 69.7867 96.4054C67.5488 97.5289 65.0344 98.1001 62.2435 98.1001C59.0109 98.1092 56.0268 97.1789 53.273 95.3183Z" fill="#1A73E8"/>
<path d="M92.4991 63.5979L85.5173 68.6729L82.0082 63.3494L94.5991 54.2676H99.4256V97.1055H92.4991V63.5979Z" fill="#1A73E8"/>
<path d="M111.842 145L145 111.842L128.421 104.474L111.842 111.842L104.474 128.421L111.842 145Z" fill="#EA4335"/>
<path d="M30.7906 128.421L38.1588 145H111.843V111.843H38.1588L30.7906 128.421Z" fill="#34A853"/>
<path d="M16.0523 5C9.9462 5 5 9.9462 5 16.0523V111.842L21.5788 119.21L38.1576 111.842V38.1576H111.842L119.21 21.5788L111.842 5H16.0523Z" fill="#4285F4"/>
<path d="M5 111.843V133.948C5 140.055 9.9462 145 16.0523 145H38.1576V111.843H5Z" fill="#188038"/>
<path d="M111.843 38.1578V111.842H145.001V38.1578L128.422 30.7896L111.843 38.1578Z" fill="#FBBC04"/>
<path d="M145.001 38.1576V16.0523C145.001 9.9455 140.054 5 133.948 5H111.843V38.1576H145.001Z" fill="#1967D2"/>
</g>
<g style="mix-blend-mode:multiply" opacity="0.2" filter="url(#filter6_f_6_3595)">
<path d="M111.843 38.1575L78.6851 34.4734L38.1586 38.1575L34.4738 74.9999L38.1579 111.842L75.0003 116.448L111.843 111.842L115.527 74.0794L111.843 38.1575Z" fill="white"/>
<path d="M53.273 95.3183C50.5192 93.4577 48.6124 90.741 47.5715 87.1486L53.9639 84.5145C54.5442 86.7251 55.5571 88.438 57.0033 89.6539C58.4404 90.8698 60.1904 91.4683 62.2351 91.4683C64.326 91.4683 66.1222 90.8327 67.623 89.5615C69.1238 88.2903 69.8798 86.6691 69.8798 84.7077C69.8798 82.7001 69.0874 81.06 67.5033 79.7895C65.9192 78.519 63.9298 77.8827 61.5533 77.8827H57.8601V71.5554H61.1753C63.22 71.5554 64.9427 71.0031 66.3427 69.8978C67.7427 68.7925 68.4427 67.2819 68.4427 65.3569C68.4427 63.644 67.8162 62.2804 66.5639 61.2584C65.3116 60.2364 63.7268 59.7205 61.8018 59.7205C59.923 59.7205 58.4306 60.2182 57.3253 61.222C56.22 62.2258 55.4185 63.4599 54.9124 64.9152L48.5851 62.2811C49.423 59.9046 50.9616 57.8046 53.2177 55.9902C55.4745 54.1758 58.3571 53.2637 61.8571 53.2637C64.445 53.2637 66.7753 53.7614 68.8389 54.7652C70.9018 55.769 72.523 57.1599 73.6927 58.9281C74.8624 60.7054 75.4427 62.6955 75.4427 64.9054C75.4427 67.1622 74.8995 69.0683 73.8124 70.6342C72.7253 72.2001 71.3897 73.3971 69.8056 74.2357V74.613C71.8965 75.488 73.6003 76.8236 74.945 78.6198C76.2806 80.416 76.9526 82.5622 76.9526 85.0675C76.9526 87.5728 76.317 89.8107 75.0458 91.7728C73.7746 93.7349 72.0155 95.2819 69.7867 96.4054C67.5488 97.5289 65.0344 98.1001 62.2435 98.1001C59.0109 98.1092 56.0268 97.1789 53.273 95.3183Z" fill="#1A73E8"/>
<path d="M92.4991 63.5979L85.5173 68.6729L82.0082 63.3494L94.5991 54.2676H99.4256V97.1055H92.4991V63.5979Z" fill="#1A73E8"/>
<path d="M111.842 145L145 111.842L128.421 104.474L111.842 111.842L104.474 128.421L111.842 145Z" fill="#EA4335"/>
<path d="M30.7906 128.421L38.1588 145H111.843V111.843H38.1588L30.7906 128.421Z" fill="#34A853"/>
<path d="M16.0523 5C9.9462 5 5 9.9462 5 16.0523V111.842L21.5788 119.21L38.1576 111.842V38.1576H111.842L119.21 21.5788L111.842 5H16.0523Z" fill="#4285F4"/>
<path d="M5 111.843V133.948C5 140.055 9.9462 145 16.0523 145H38.1576V111.843H5Z" fill="#188038"/>
<path d="M111.843 38.1578V111.842H145.001V38.1578L128.422 30.7896L111.843 38.1578Z" fill="#FBBC04"/>
<path d="M145.001 38.1576V16.0523C145.001 9.9455 140.054 5 133.948 5H111.843V38.1576H145.001Z" fill="#1967D2"/>
</g>
<path d="M53.273 95.3183C50.5192 93.4577 48.6124 90.741 47.5715 87.1486L53.9639 84.5145C54.5442 86.7251 55.5571 88.438 57.0033 89.6539C58.4404 90.8698 60.1904 91.4683 62.2351 91.4683C64.326 91.4683 66.1222 90.8327 67.623 89.5615C69.1238 88.2903 69.8798 86.6691 69.8798 84.7077C69.8798 82.7001 69.0874 81.06 67.5033 79.7895C65.9192 78.519 63.9298 77.8827 61.5533 77.8827H57.8601V71.5554H61.1753C63.22 71.5554 64.9427 71.0031 66.3427 69.8978C67.7427 68.7925 68.4427 67.2819 68.4427 65.3569C68.4427 63.644 67.8162 62.2804 66.5639 61.2584C65.3116 60.2364 63.7268 59.7205 61.8018 59.7205C59.923 59.7205 58.4306 60.2182 57.3253 61.222C56.22 62.2258 55.4185 63.4599 54.9124 64.9152L48.5851 62.2811C49.423 59.9046 50.9616 57.8046 53.2177 55.9902C55.4745 54.1758 58.3571 53.2637 61.8571 53.2637C64.445 53.2637 66.7753 53.7614 68.8389 54.7652C70.9018 55.769 72.523 57.1599 73.6927 58.9281C74.8624 60.7054 75.4427 62.6955 75.4427 64.9054C75.4427 67.1622 74.8995 69.0683 73.8124 70.6342C72.7253 72.2001 71.3897 73.3971 69.8056 74.2357V74.613C71.8965 75.488 73.6003 76.8236 74.945 78.6198C76.2806 80.416 76.9526 82.5622 76.9526 85.0675C76.9526 87.5728 76.317 89.8107 75.0458 91.7728C73.7746 93.7349 72.0155 95.2819 69.7867 96.4054C67.5488 97.5289 65.0344 98.1001 62.2435 98.1001C59.0109 98.1092 56.0268 97.1789 53.273 95.3183Z" fill="#1A73E8"/>
<path d="M92.4991 63.5978L85.5173 68.6728L82.0082 63.3493L94.5991 54.2675H99.4256V97.1054H92.4991V63.5978Z" fill="#1A73E8"/>
</g>
<defs>
<filter id="filter0_f_6_3595" x="-15" y="-15" width="180.001" height="180" filterUnits="userSpaceOnUse" color-interpolation-filters="sRGB">
<feFlood flood-opacity="0" result="BackgroundImageFix"/>
<feBlend mode="normal" in="SourceGraphic" in2="BackgroundImageFix" result="shape"/>
<feGaussianBlur stdDeviation="10" result="effect1_foregroundBlur_6_3595"/>
</filter>
<filter id="filter1_f_6_3595" x="-15" y="-15" width="180.001" height="180" filterUnits="userSpaceOnUse" color-interpolation-filters="sRGB">
<feFlood flood-opacity="0" result="BackgroundImageFix"/>
<feBlend mode="normal" in="SourceGraphic" in2="BackgroundImageFix" result="shape"/>
<feGaussianBlur stdDeviation="10" result="effect1_foregroundBlur_6_3595"/>
</filter>
<filter id="filter2_f_6_3595" x="-15" y="-15" width="180.001" height="180" filterUnits="userSpaceOnUse" color-interpolation-filters="sRGB">
<feFlood flood-opacity="0" result="BackgroundImageFix"/>
<feBlend mode="normal" in="SourceGraphic" in2="BackgroundImageFix" result="shape"/>
<feGaussianBlur stdDeviation="10" result="effect1_foregroundBlur_6_3595"/>
</filter>
<filter id="filter3_f_6_3595" x="-15" y="-15" width="180.001" height="180" filterUnits="userSpaceOnUse" color-interpolation-filters="sRGB">
<feFlood flood-opacity="0" result="BackgroundImageFix"/>
<feBlend mode="normal" in="SourceGraphic" in2="BackgroundImageFix" result="shape"/>
<feGaussianBlur stdDeviation="10" result="effect1_foregroundBlur_6_3595"/>
</filter>
<filter id="filter4_f_6_3595" x="-15" y="-15" width="180.001" height="180" filterUnits="userSpaceOnUse" color-interpolation-filters="sRGB">
<feFlood flood-opacity="0" result="BackgroundImageFix"/>
<feBlend mode="normal" in="SourceGraphic" in2="BackgroundImageFix" result="shape"/>
<feGaussianBlur stdDeviation="10" result="effect1_foregroundBlur_6_3595"/>
</filter>
<filter id="filter5_f_6_3595" x="-15" y="-15" width="180.001" height="180" filterUnits="userSpaceOnUse" color-interpolation-filters="sRGB">
<feFlood flood-opacity="0" result="BackgroundImageFix"/>
<feBlend mode="normal" in="SourceGraphic" in2="BackgroundImageFix" result="shape"/>
<feGaussianBlur stdDeviation="10" result="effect1_foregroundBlur_6_3595"/>
</filter>
<filter id="filter6_f_6_3595" x="-15" y="-15" width="180.001" height="180" filterUnits="userSpaceOnUse" color-interpolation-filters="sRGB">
<feFlood flood-opacity="0" result="BackgroundImageFix"/>
<feBlend mode="normal" in="SourceGraphic" in2="BackgroundImageFix" result="shape"/>
<feGaussianBlur stdDeviation="10" result="effect1_foregroundBlur_6_3595"/>
</filter>
</defs>
</svg>
