<svg width="150" height="150" viewBox="0 0 150 150" fill="none" xmlns="http://www.w3.org/2000/svg">
<mask id="mask0_6_3583" style="mask-type:alpha" maskUnits="userSpaceOnUse" x="4" y="4" width="138" height="141">
<path d="M140.702 62.0227C141.53 66.6045 141.975 71.3773 141.975 76.3409C141.975 97.6591 134.339 115.605 121.102 127.791C109.52 138.482 93.675 144.75 74.775 144.75C47.4114 144.75 23.7387 129.064 12.2205 106.186C7.47957 96.7364 4.77503 86.0455 4.77503 74.75C4.77071 63.8339 7.32048 53.0682 12.2205 43.3136C23.7387 20.4364 47.4114 4.75 74.775 4.75C93.6432 4.75 109.489 11.6864 121.611 22.9818L101.534 43.0591C94.2796 36.1227 85.0523 32.5909 74.775 32.5909C56.5432 32.5909 41.1114 44.9045 35.6068 61.45C34.2068 65.65 33.4114 70.1364 33.4114 74.75C33.4114 79.3636 34.2068 83.85 35.6068 88.05C41.1114 104.595 56.5432 116.909 74.775 116.909C84.1932 116.909 92.2114 114.427 98.4796 110.227C105.893 105.264 110.825 97.85 112.448 89.1H74.775V62.0227H140.702Z" fill="#D9D9D9"/>
</mask>
<g mask="url(#mask0_6_3583)">
<g filter="url(#filter0_f_6_3583)">
<path d="M142.23 76.5955C142.23 71.6319 141.784 66.8592 140.957 62.2773H75.0295V89.3546H112.702C111.08 98.1046 106.148 105.518 98.7341 110.482V128.046H121.357C134.593 115.859 142.23 97.9137 142.23 76.5955Z" fill="#4285F4"/>
<path d="M75.0296 145.004C93.9296 145.004 109.775 138.736 121.357 128.045L98.7341 110.481C92.4659 114.681 84.4477 117.163 75.0296 117.163C56.7977 117.163 41.3659 104.85 35.8614 88.3042H12.475V106.441C23.9932 129.318 47.6659 145.004 75.0296 145.004Z" fill="#34A853"/>
<path d="M35.8614 88.3042C34.4614 84.1042 33.6659 79.6179 33.6659 75.0042C33.6659 70.3906 34.4614 65.9042 35.8614 61.7042V43.5679H12.475C7.575 53.3224 5.02522 64.0881 5.02955 75.0042C5.02955 86.2997 7.73409 96.9906 12.475 106.441L35.8614 88.3042Z" fill="#FBBC05"/>
<path d="M75.0295 32.8453C85.3068 32.8453 94.5341 36.3771 101.789 43.3135L121.866 23.2362C109.743 11.9408 93.8977 5.00439 75.0295 5.00439C47.6659 5.00439 23.9932 20.6908 12.475 43.568L35.8614 61.7044C41.3659 45.1589 56.7977 32.8453 75.0295 32.8453Z" fill="#EA4335"/>
</g>
<g filter="url(#filter1_f_6_3583)">
<path d="M142.23 76.5955C142.23 71.6319 141.784 66.8592 140.957 62.2773H75.0295V89.3546H112.702C111.08 98.1046 106.148 105.518 98.7341 110.482V128.046H121.357C134.593 115.859 142.23 97.9137 142.23 76.5955Z" fill="#4285F4"/>
<path d="M75.0296 145.004C93.9296 145.004 109.775 138.736 121.357 128.045L98.7341 110.481C92.4659 114.681 84.4477 117.163 75.0296 117.163C56.7977 117.163 41.3659 104.85 35.8614 88.3042H12.475V106.441C23.9932 129.318 47.6659 145.004 75.0296 145.004Z" fill="#34A853"/>
<path d="M35.8614 88.3042C34.4614 84.1042 33.6659 79.6179 33.6659 75.0042C33.6659 70.3906 34.4614 65.9042 35.8614 61.7042V43.5679H12.475C7.575 53.3224 5.02522 64.0881 5.02955 75.0042C5.02955 86.2997 7.73409 96.9906 12.475 106.441L35.8614 88.3042Z" fill="#FBBC05"/>
<path d="M75.0295 32.8453C85.3068 32.8453 94.5341 36.3771 101.789 43.3135L121.866 23.2362C109.743 11.9408 93.8977 5.00439 75.0295 5.00439C47.6659 5.00439 23.9932 20.6908 12.475 43.568L35.8614 61.7044C41.3659 45.1589 56.7977 32.8453 75.0295 32.8453Z" fill="#EA4335"/>
</g>
<g filter="url(#filter2_f_6_3583)">
<path d="M142.23 76.5955C142.23 71.6319 141.784 66.8592 140.957 62.2773H75.0295V89.3546H112.702C111.08 98.1046 106.148 105.518 98.7341 110.482V128.046H121.357C134.593 115.859 142.23 97.9137 142.23 76.5955Z" fill="#4285F4"/>
<path d="M75.0296 145.004C93.9296 145.004 109.775 138.736 121.357 128.045L98.7341 110.481C92.4659 114.681 84.4477 117.163 75.0296 117.163C56.7977 117.163 41.3659 104.85 35.8614 88.3042H12.475V106.441C23.9932 129.318 47.6659 145.004 75.0296 145.004Z" fill="#34A853"/>
<path d="M35.8614 88.3042C34.4614 84.1042 33.6659 79.6179 33.6659 75.0042C33.6659 70.3906 34.4614 65.9042 35.8614 61.7042V43.5679H12.475C7.575 53.3224 5.02522 64.0881 5.02955 75.0042C5.02955 86.2997 7.73409 96.9906 12.475 106.441L35.8614 88.3042Z" fill="#FBBC05"/>
<path d="M75.0295 32.8453C85.3068 32.8453 94.5341 36.3771 101.789 43.3135L121.866 23.2362C109.743 11.9408 93.8977 5.00439 75.0295 5.00439C47.6659 5.00439 23.9932 20.6908 12.475 43.568L35.8614 61.7044C41.3659 45.1589 56.7977 32.8453 75.0295 32.8453Z" fill="#EA4335"/>
</g>
<g filter="url(#filter3_f_6_3583)">
<path d="M142.23 76.5955C142.23 71.6319 141.784 66.8592 140.957 62.2773H75.0295V89.3546H112.702C111.08 98.1046 106.148 105.518 98.7341 110.482V128.046H121.357C134.593 115.859 142.23 97.9137 142.23 76.5955Z" fill="#4285F4"/>
<path d="M75.0296 145.004C93.9296 145.004 109.775 138.736 121.357 128.045L98.7341 110.481C92.4659 114.681 84.4477 117.163 75.0296 117.163C56.7977 117.163 41.3659 104.85 35.8614 88.3042H12.475V106.441C23.9932 129.318 47.6659 145.004 75.0296 145.004Z" fill="#34A853"/>
<path d="M35.8614 88.3042C34.4614 84.1042 33.6659 79.6179 33.6659 75.0042C33.6659 70.3906 34.4614 65.9042 35.8614 61.7042V43.5679H12.475C7.575 53.3224 5.02522 64.0881 5.02955 75.0042C5.02955 86.2997 7.73409 96.9906 12.475 106.441L35.8614 88.3042Z" fill="#FBBC05"/>
<path d="M75.0295 32.8453C85.3068 32.8453 94.5341 36.3771 101.789 43.3135L121.866 23.2362C109.743 11.9408 93.8977 5.00439 75.0295 5.00439C47.6659 5.00439 23.9932 20.6908 12.475 43.568L35.8614 61.7044C41.3659 45.1589 56.7977 32.8453 75.0295 32.8453Z" fill="#EA4335"/>
</g>
<g filter="url(#filter4_f_6_3583)">
<path d="M142.23 76.5955C142.23 71.6319 141.784 66.8592 140.957 62.2773H75.0295V89.3546H112.702C111.08 98.1046 106.148 105.518 98.7341 110.482V128.046H121.357C134.593 115.859 142.23 97.9137 142.23 76.5955Z" fill="#4285F4"/>
<path d="M75.0296 145.004C93.9296 145.004 109.775 138.736 121.357 128.045L98.7341 110.481C92.4659 114.681 84.4477 117.163 75.0296 117.163C56.7977 117.163 41.3659 104.85 35.8614 88.3042H12.475V106.441C23.9932 129.318 47.6659 145.004 75.0296 145.004Z" fill="#34A853"/>
<path d="M35.8614 88.3042C34.4614 84.1042 33.6659 79.6179 33.6659 75.0042C33.6659 70.3906 34.4614 65.9042 35.8614 61.7042V43.5679H12.475C7.575 53.3224 5.02522 64.0881 5.02955 75.0042C5.02955 86.2997 7.73409 96.9906 12.475 106.441L35.8614 88.3042Z" fill="#FBBC05"/>
<path d="M75.0295 32.8453C85.3068 32.8453 94.5341 36.3771 101.789 43.3135L121.866 23.2362C109.743 11.9408 93.8977 5.00439 75.0295 5.00439C47.6659 5.00439 23.9932 20.6908 12.475 43.568L35.8614 61.7044C41.3659 45.1589 56.7977 32.8453 75.0295 32.8453Z" fill="#EA4335"/>
</g>
<g filter="url(#filter5_f_6_3583)">
<path d="M142.23 76.5955C142.23 71.6319 141.784 66.8592 140.957 62.2773H75.0295V89.3546H112.702C111.08 98.1046 106.148 105.518 98.7341 110.482V128.046H121.357C134.593 115.859 142.23 97.9137 142.23 76.5955Z" fill="#4285F4"/>
<path d="M75.0296 145.004C93.9296 145.004 109.775 138.736 121.357 128.045L98.7341 110.481C92.4659 114.681 84.4477 117.163 75.0296 117.163C56.7977 117.163 41.3659 104.85 35.8614 88.3042H12.475V106.441C23.9932 129.318 47.6659 145.004 75.0296 145.004Z" fill="#34A853"/>
<path d="M35.8614 88.3042C34.4614 84.1042 33.6659 79.6179 33.6659 75.0042C33.6659 70.3906 34.4614 65.9042 35.8614 61.7042V43.5679H12.475C7.575 53.3224 5.02522 64.0881 5.02955 75.0042C5.02955 86.2997 7.73409 96.9906 12.475 106.441L35.8614 88.3042Z" fill="#FBBC05"/>
<path d="M75.0295 32.8453C85.3068 32.8453 94.5341 36.3771 101.789 43.3135L121.866 23.2362C109.743 11.9408 93.8977 5.00439 75.0295 5.00439C47.6659 5.00439 23.9932 20.6908 12.475 43.568L35.8614 61.7044C41.3659 45.1589 56.7977 32.8453 75.0295 32.8453Z" fill="#EA4335"/>
</g>
<g filter="url(#filter6_f_6_3583)">
<path d="M142.23 76.5955C142.23 71.6319 141.784 66.8592 140.957 62.2773H75.0295V89.3546H112.702C111.08 98.1046 106.148 105.518 98.7341 110.482V128.046H121.357C134.593 115.859 142.23 97.9137 142.23 76.5955Z" fill="#4285F4"/>
<path d="M75.0296 145.004C93.9296 145.004 109.775 138.736 121.357 128.045L98.7341 110.481C92.4659 114.681 84.4477 117.163 75.0296 117.163C56.7977 117.163 41.3659 104.85 35.8614 88.3042H12.475V106.441C23.9932 129.318 47.6659 145.004 75.0296 145.004Z" fill="#34A853"/>
<path d="M35.8614 88.3042C34.4614 84.1042 33.6659 79.6179 33.6659 75.0042C33.6659 70.3906 34.4614 65.9042 35.8614 61.7042V43.5679H12.475C7.575 53.3224 5.02522 64.0881 5.02955 75.0042C5.02955 86.2997 7.73409 96.9906 12.475 106.441L35.8614 88.3042Z" fill="#FBBC05"/>
<path d="M75.0295 32.8453C85.3068 32.8453 94.5341 36.3771 101.789 43.3135L121.866 23.2362C109.743 11.9408 93.8977 5.00439 75.0295 5.00439C47.6659 5.00439 23.9932 20.6908 12.475 43.568L35.8614 61.7044C41.3659 45.1589 56.7977 32.8453 75.0295 32.8453Z" fill="#EA4335"/>
</g>
<g filter="url(#filter7_f_6_3583)">
<path d="M142.23 76.5955C142.23 71.6319 141.784 66.8592 140.957 62.2773H75.0295V89.3546H112.702C111.08 98.1046 106.148 105.518 98.7341 110.482V128.046H121.357C134.593 115.859 142.23 97.9137 142.23 76.5955Z" fill="#4285F4"/>
<path d="M75.0296 145.004C93.9296 145.004 109.775 138.736 121.357 128.045L98.7341 110.481C92.4659 114.681 84.4477 117.163 75.0296 117.163C56.7977 117.163 41.3659 104.85 35.8614 88.3042H12.475V106.441C23.9932 129.318 47.6659 145.004 75.0296 145.004Z" fill="#34A853"/>
<path d="M35.8614 88.3042C34.4614 84.1042 33.6659 79.6179 33.6659 75.0042C33.6659 70.3906 34.4614 65.9042 35.8614 61.7042V43.5679H12.475C7.575 53.3224 5.02522 64.0881 5.02955 75.0042C5.02955 86.2997 7.73409 96.9906 12.475 106.441L35.8614 88.3042Z" fill="#FBBC05"/>
<path d="M75.0295 32.8453C85.3068 32.8453 94.5341 36.3771 101.789 43.3135L121.866 23.2362C109.743 11.9408 93.8977 5.00439 75.0295 5.00439C47.6659 5.00439 23.9932 20.6908 12.475 43.568L35.8614 61.7044C41.3659 45.1589 56.7977 32.8453 75.0295 32.8453Z" fill="#EA4335"/>
</g>
<g filter="url(#filter8_f_6_3583)">
<path d="M142.23 76.5955C142.23 71.6319 141.784 66.8592 140.957 62.2773H75.0295V89.3546H112.702C111.08 98.1046 106.148 105.518 98.7341 110.482V128.046H121.357C134.593 115.859 142.23 97.9137 142.23 76.5955Z" fill="#4285F4"/>
<path d="M75.0296 145.004C93.9296 145.004 109.775 138.736 121.357 128.045L98.7341 110.481C92.4659 114.681 84.4477 117.163 75.0296 117.163C56.7977 117.163 41.3659 104.85 35.8614 88.3042H12.475V106.441C23.9932 129.318 47.6659 145.004 75.0296 145.004Z" fill="#34A853"/>
<path d="M35.8614 88.3042C34.4614 84.1042 33.6659 79.6179 33.6659 75.0042C33.6659 70.3906 34.4614 65.9042 35.8614 61.7042V43.5679H12.475C7.575 53.3224 5.02522 64.0881 5.02955 75.0042C5.02955 86.2997 7.73409 96.9906 12.475 106.441L35.8614 88.3042Z" fill="#FBBC05"/>
<path d="M75.0295 32.8453C85.3068 32.8453 94.5341 36.3771 101.789 43.3135L121.866 23.2362C109.743 11.9408 93.8977 5.00439 75.0295 5.00439C47.6659 5.00439 23.9932 20.6908 12.475 43.568L35.8614 61.7044C41.3659 45.1589 56.7977 32.8453 75.0295 32.8453Z" fill="#EA4335"/>
</g>
<g filter="url(#filter9_f_6_3583)">
<path d="M142.23 76.5955C142.23 71.6319 141.784 66.8592 140.957 62.2773H75.0295V89.3546H112.702C111.08 98.1046 106.148 105.518 98.7341 110.482V128.046H121.357C134.593 115.859 142.23 97.9137 142.23 76.5955Z" fill="#4285F4"/>
<path d="M75.0296 145.004C93.9296 145.004 109.775 138.736 121.357 128.045L98.7341 110.481C92.4659 114.681 84.4477 117.163 75.0296 117.163C56.7977 117.163 41.3659 104.85 35.8614 88.3042H12.475V106.441C23.9932 129.318 47.6659 145.004 75.0296 145.004Z" fill="#34A853"/>
<path d="M35.8614 88.3042C34.4614 84.1042 33.6659 79.6179 33.6659 75.0042C33.6659 70.3906 34.4614 65.9042 35.8614 61.7042V43.5679H12.475C7.575 53.3224 5.02522 64.0881 5.02955 75.0042C5.02955 86.2997 7.73409 96.9906 12.475 106.441L35.8614 88.3042Z" fill="#FBBC05"/>
<path d="M75.0295 32.8453C85.3068 32.8453 94.5341 36.3771 101.789 43.3135L121.866 23.2362C109.743 11.9408 93.8977 5.00439 75.0295 5.00439C47.6659 5.00439 23.9932 20.6908 12.475 43.568L35.8614 61.7044C41.3659 45.1589 56.7977 32.8453 75.0295 32.8453Z" fill="#EA4335"/>
</g>
<g filter="url(#filter10_f_6_3583)">
<path d="M142.23 76.5955C142.23 71.6319 141.784 66.8592 140.957 62.2773H75.0295V89.3546H112.702C111.08 98.1046 106.148 105.518 98.7341 110.482V128.046H121.357C134.593 115.859 142.23 97.9137 142.23 76.5955Z" fill="#4285F4"/>
<path d="M75.0296 145.004C93.9296 145.004 109.775 138.736 121.357 128.045L98.7341 110.481C92.4659 114.681 84.4477 117.163 75.0296 117.163C56.7977 117.163 41.3659 104.85 35.8614 88.3042H12.475V106.441C23.9932 129.318 47.6659 145.004 75.0296 145.004Z" fill="#34A853"/>
<path d="M35.8614 88.3042C34.4614 84.1042 33.6659 79.6179 33.6659 75.0042C33.6659 70.3906 34.4614 65.9042 35.8614 61.7042V43.5679H12.475C7.575 53.3224 5.02522 64.0881 5.02955 75.0042C5.02955 86.2997 7.73409 96.9906 12.475 106.441L35.8614 88.3042Z" fill="#FBBC05"/>
<path d="M75.0295 32.8453C85.3068 32.8453 94.5341 36.3771 101.789 43.3135L121.866 23.2362C109.743 11.9408 93.8977 5.00439 75.0295 5.00439C47.6659 5.00439 23.9932 20.6908 12.475 43.568L35.8614 61.7044C41.3659 45.1589 56.7977 32.8453 75.0295 32.8453Z" fill="#EA4335"/>
</g>
<g filter="url(#filter11_f_6_3583)">
<path d="M142.23 76.5955C142.23 71.6319 141.784 66.8592 140.957 62.2773H75.0295V89.3546H112.702C111.08 98.1046 106.148 105.518 98.7341 110.482V128.046H121.357C134.593 115.859 142.23 97.9137 142.23 76.5955Z" fill="#4285F4"/>
<path d="M75.0296 145.004C93.9296 145.004 109.775 138.736 121.357 128.045L98.7341 110.481C92.4659 114.681 84.4477 117.163 75.0296 117.163C56.7977 117.163 41.3659 104.85 35.8614 88.3042H12.475V106.441C23.9932 129.318 47.6659 145.004 75.0296 145.004Z" fill="#34A853"/>
<path d="M35.8614 88.3042C34.4614 84.1042 33.6659 79.6179 33.6659 75.0042C33.6659 70.3906 34.4614 65.9042 35.8614 61.7042V43.5679H12.475C7.575 53.3224 5.02522 64.0881 5.02955 75.0042C5.02955 86.2997 7.73409 96.9906 12.475 106.441L35.8614 88.3042Z" fill="#FBBC05"/>
<path d="M75.0295 32.8453C85.3068 32.8453 94.5341 36.3771 101.789 43.3135L121.866 23.2362C109.743 11.9408 93.8977 5.00439 75.0295 5.00439C47.6659 5.00439 23.9932 20.6908 12.475 43.568L35.8614 61.7044C41.3659 45.1589 56.7977 32.8453 75.0295 32.8453Z" fill="#EA4335"/>
</g>
<g filter="url(#filter12_f_6_3583)">
<path d="M142.23 76.5955C142.23 71.6319 141.784 66.8592 140.957 62.2773H75.0295V89.3546H112.702C111.08 98.1046 106.148 105.518 98.7341 110.482V128.046H121.357C134.593 115.859 142.23 97.9137 142.23 76.5955Z" fill="#4285F4"/>
<path d="M75.0296 145.004C93.9296 145.004 109.775 138.736 121.357 128.045L98.7341 110.481C92.4659 114.681 84.4477 117.163 75.0296 117.163C56.7977 117.163 41.3659 104.85 35.8614 88.3042H12.475V106.441C23.9932 129.318 47.6659 145.004 75.0296 145.004Z" fill="#34A853"/>
<path d="M35.8614 88.3042C34.4614 84.1042 33.6659 79.6179 33.6659 75.0042C33.6659 70.3906 34.4614 65.9042 35.8614 61.7042V43.5679H12.475C7.575 53.3224 5.02522 64.0881 5.02955 75.0042C5.02955 86.2997 7.73409 96.9906 12.475 106.441L35.8614 88.3042Z" fill="#FBBC05"/>
<path d="M75.0295 32.8453C85.3068 32.8453 94.5341 36.3771 101.789 43.3135L121.866 23.2362C109.743 11.9408 93.8977 5.00439 75.0295 5.00439C47.6659 5.00439 23.9932 20.6908 12.475 43.568L35.8614 61.7044C41.3659 45.1589 56.7977 32.8453 75.0295 32.8453Z" fill="#EA4335"/>
</g>
<g filter="url(#filter13_f_6_3583)">
<path d="M142.23 76.5955C142.23 71.6319 141.784 66.8592 140.957 62.2773H75.0295V89.3546H112.702C111.08 98.1046 106.148 105.518 98.7341 110.482V128.046H121.357C134.593 115.859 142.23 97.9137 142.23 76.5955Z" fill="#4285F4"/>
<path d="M75.0296 145.004C93.9296 145.004 109.775 138.736 121.357 128.045L98.7341 110.481C92.4659 114.681 84.4477 117.163 75.0296 117.163C56.7977 117.163 41.3659 104.85 35.8614 88.3042H12.475V106.441C23.9932 129.318 47.6659 145.004 75.0296 145.004Z" fill="#34A853"/>
<path d="M35.8614 88.3042C34.4614 84.1042 33.6659 79.6179 33.6659 75.0042C33.6659 70.3906 34.4614 65.9042 35.8614 61.7042V43.5679H12.475C7.575 53.3224 5.02522 64.0881 5.02955 75.0042C5.02955 86.2997 7.73409 96.9906 12.475 106.441L35.8614 88.3042Z" fill="#FBBC05"/>
<path d="M75.0295 32.8453C85.3068 32.8453 94.5341 36.3771 101.789 43.3135L121.866 23.2362C109.743 11.9408 93.8977 5.00439 75.0295 5.00439C47.6659 5.00439 23.9932 20.6908 12.475 43.568L35.8614 61.7044C41.3659 45.1589 56.7977 32.8453 75.0295 32.8453Z" fill="#EA4335"/>
</g>
<g filter="url(#filter14_f_6_3583)">
<path d="M142.23 76.5955C142.23 71.6319 141.784 66.8592 140.957 62.2773H75.0295V89.3546H112.702C111.08 98.1046 106.148 105.518 98.7341 110.482V128.046H121.357C134.593 115.859 142.23 97.9137 142.23 76.5955Z" fill="#4285F4"/>
<path d="M75.0296 145.004C93.9296 145.004 109.775 138.736 121.357 128.045L98.7341 110.481C92.4659 114.681 84.4477 117.163 75.0296 117.163C56.7977 117.163 41.3659 104.85 35.8614 88.3042H12.475V106.441C23.9932 129.318 47.6659 145.004 75.0296 145.004Z" fill="#34A853"/>
<path d="M35.8614 88.3042C34.4614 84.1042 33.6659 79.6179 33.6659 75.0042C33.6659 70.3906 34.4614 65.9042 35.8614 61.7042V43.5679H12.475C7.575 53.3224 5.02522 64.0881 5.02955 75.0042C5.02955 86.2997 7.73409 96.9906 12.475 106.441L35.8614 88.3042Z" fill="#FBBC05"/>
<path d="M75.0295 32.8453C85.3068 32.8453 94.5341 36.3771 101.789 43.3135L121.866 23.2362C109.743 11.9408 93.8977 5.00439 75.0295 5.00439C47.6659 5.00439 23.9932 20.6908 12.475 43.568L35.8614 61.7044C41.3659 45.1589 56.7977 32.8453 75.0295 32.8453Z" fill="#EA4335"/>
</g>
<g filter="url(#filter15_f_6_3583)">
<path d="M142.23 76.5955C142.23 71.6319 141.784 66.8592 140.957 62.2773H75.0295V89.3546H112.702C111.08 98.1046 106.148 105.518 98.7341 110.482V128.046H121.357C134.593 115.859 142.23 97.9137 142.23 76.5955Z" fill="#4285F4"/>
<path d="M75.0296 145.004C93.9296 145.004 109.775 138.736 121.357 128.045L98.7341 110.481C92.4659 114.681 84.4477 117.163 75.0296 117.163C56.7977 117.163 41.3659 104.85 35.8614 88.3042H12.475V106.441C23.9932 129.318 47.6659 145.004 75.0296 145.004Z" fill="#34A853"/>
<path d="M35.8614 88.3042C34.4614 84.1042 33.6659 79.6179 33.6659 75.0042C33.6659 70.3906 34.4614 65.9042 35.8614 61.7042V43.5679H12.475C7.575 53.3224 5.02522 64.0881 5.02955 75.0042C5.02955 86.2997 7.73409 96.9906 12.475 106.441L35.8614 88.3042Z" fill="#FBBC05"/>
<path d="M75.0295 32.8453C85.3068 32.8453 94.5341 36.3771 101.789 43.3135L121.866 23.2362C109.743 11.9408 93.8977 5.00439 75.0295 5.00439C47.6659 5.00439 23.9932 20.6908 12.475 43.568L35.8614 61.7044C41.3659 45.1589 56.7977 32.8453 75.0295 32.8453Z" fill="#EA4335"/>
</g>
<g filter="url(#filter16_f_6_3583)">
<path d="M142.23 76.5955C142.23 71.6319 141.784 66.8592 140.957 62.2773H75.0295V89.3546H112.702C111.08 98.1046 106.148 105.518 98.7341 110.482V128.046H121.357C134.593 115.859 142.23 97.9137 142.23 76.5955Z" fill="#4285F4"/>
<path d="M75.0296 145.004C93.9296 145.004 109.775 138.736 121.357 128.045L98.7341 110.481C92.4659 114.681 84.4477 117.163 75.0296 117.163C56.7977 117.163 41.3659 104.85 35.8614 88.3042H12.475V106.441C23.9932 129.318 47.6659 145.004 75.0296 145.004Z" fill="#34A853"/>
<path d="M35.8614 88.3042C34.4614 84.1042 33.6659 79.6179 33.6659 75.0042C33.6659 70.3906 34.4614 65.9042 35.8614 61.7042V43.5679H12.475C7.575 53.3224 5.02522 64.0881 5.02955 75.0042C5.02955 86.2997 7.73409 96.9906 12.475 106.441L35.8614 88.3042Z" fill="#FBBC05"/>
<path d="M75.0295 32.8453C85.3068 32.8453 94.5341 36.3771 101.789 43.3135L121.866 23.2362C109.743 11.9408 93.8977 5.00439 75.0295 5.00439C47.6659 5.00439 23.9932 20.6908 12.475 43.568L35.8614 61.7044C41.3659 45.1589 56.7977 32.8453 75.0295 32.8453Z" fill="#EA4335"/>
</g>
<g filter="url(#filter17_f_6_3583)">
<path d="M142.23 76.5955C142.23 71.6319 141.784 66.8592 140.957 62.2773H75.0295V89.3546H112.702C111.08 98.1046 106.148 105.518 98.7341 110.482V128.046H121.357C134.593 115.859 142.23 97.9137 142.23 76.5955Z" fill="#4285F4"/>
<path d="M75.0296 145.004C93.9296 145.004 109.775 138.736 121.357 128.045L98.7341 110.481C92.4659 114.681 84.4477 117.163 75.0296 117.163C56.7977 117.163 41.3659 104.85 35.8614 88.3042H12.475V106.441C23.9932 129.318 47.6659 145.004 75.0296 145.004Z" fill="#34A853"/>
<path d="M35.8614 88.3042C34.4614 84.1042 33.6659 79.6179 33.6659 75.0042C33.6659 70.3906 34.4614 65.9042 35.8614 61.7042V43.5679H12.475C7.575 53.3224 5.02522 64.0881 5.02955 75.0042C5.02955 86.2997 7.73409 96.9906 12.475 106.441L35.8614 88.3042Z" fill="#FBBC05"/>
<path d="M75.0295 32.8453C85.3068 32.8453 94.5341 36.3771 101.789 43.3135L121.866 23.2362C109.743 11.9408 93.8977 5.00439 75.0295 5.00439C47.6659 5.00439 23.9932 20.6908 12.475 43.568L35.8614 61.7044C41.3659 45.1589 56.7977 32.8453 75.0295 32.8453Z" fill="#EA4335"/>
</g>
<g filter="url(#filter18_f_6_3583)">
<path d="M142.23 76.5955C142.23 71.6319 141.784 66.8592 140.957 62.2773H75.0295V89.3546H112.702C111.08 98.1046 106.148 105.518 98.7341 110.482V128.046H121.357C134.593 115.859 142.23 97.9137 142.23 76.5955Z" fill="#4285F4"/>
<path d="M75.0296 145.004C93.9296 145.004 109.775 138.736 121.357 128.045L98.7341 110.481C92.4659 114.681 84.4477 117.163 75.0296 117.163C56.7977 117.163 41.3659 104.85 35.8614 88.3042H12.475V106.441C23.9932 129.318 47.6659 145.004 75.0296 145.004Z" fill="#34A853"/>
<path d="M35.8614 88.3042C34.4614 84.1042 33.6659 79.6179 33.6659 75.0042C33.6659 70.3906 34.4614 65.9042 35.8614 61.7042V43.5679H12.475C7.575 53.3224 5.02522 64.0881 5.02955 75.0042C5.02955 86.2997 7.73409 96.9906 12.475 106.441L35.8614 88.3042Z" fill="#FBBC05"/>
<path d="M75.0295 32.8453C85.3068 32.8453 94.5341 36.3771 101.789 43.3135L121.866 23.2362C109.743 11.9408 93.8977 5.00439 75.0295 5.00439C47.6659 5.00439 23.9932 20.6908 12.475 43.568L35.8614 61.7044C41.3659 45.1589 56.7977 32.8453 75.0295 32.8453Z" fill="#EA4335"/>
</g>
<g filter="url(#filter19_f_6_3583)">
<path d="M142.23 76.5955C142.23 71.6319 141.784 66.8592 140.957 62.2773H75.0295V89.3546H112.702C111.08 98.1046 106.148 105.518 98.7341 110.482V128.046H121.357C134.593 115.859 142.23 97.9137 142.23 76.5955Z" fill="#4285F4"/>
<path d="M75.0296 145.004C93.9296 145.004 109.775 138.736 121.357 128.045L98.7341 110.481C92.4659 114.681 84.4477 117.163 75.0296 117.163C56.7977 117.163 41.3659 104.85 35.8614 88.3042H12.475V106.441C23.9932 129.318 47.6659 145.004 75.0296 145.004Z" fill="#34A853"/>
<path d="M35.8614 88.3042C34.4614 84.1042 33.6659 79.6179 33.6659 75.0042C33.6659 70.3906 34.4614 65.9042 35.8614 61.7042V43.5679H12.475C7.575 53.3224 5.02522 64.0881 5.02955 75.0042C5.02955 86.2997 7.73409 96.9906 12.475 106.441L35.8614 88.3042Z" fill="#FBBC05"/>
<path d="M75.0295 32.8453C85.3068 32.8453 94.5341 36.3771 101.789 43.3135L121.866 23.2362C109.743 11.9408 93.8977 5.00439 75.0295 5.00439C47.6659 5.00439 23.9932 20.6908 12.475 43.568L35.8614 61.7044C41.3659 45.1589 56.7977 32.8453 75.0295 32.8453Z" fill="#EA4335"/>
</g>
<g filter="url(#filter20_f_6_3583)">
<path d="M142.23 76.5955C142.23 71.6319 141.784 66.8592 140.957 62.2773H75.0295V89.3546H112.702C111.08 98.1046 106.148 105.518 98.7341 110.482V128.046H121.357C134.593 115.859 142.23 97.9137 142.23 76.5955Z" fill="#4285F4"/>
<path d="M75.0296 145.004C93.9296 145.004 109.775 138.736 121.357 128.045L98.7341 110.481C92.4659 114.681 84.4477 117.163 75.0296 117.163C56.7977 117.163 41.3659 104.85 35.8614 88.3042H12.475V106.441C23.9932 129.318 47.6659 145.004 75.0296 145.004Z" fill="#34A853"/>
<path d="M35.8614 88.3042C34.4614 84.1042 33.6659 79.6179 33.6659 75.0042C33.6659 70.3906 34.4614 65.9042 35.8614 61.7042V43.5679H12.475C7.575 53.3224 5.02522 64.0881 5.02955 75.0042C5.02955 86.2997 7.73409 96.9906 12.475 106.441L35.8614 88.3042Z" fill="#FBBC05"/>
<path d="M75.0295 32.8453C85.3068 32.8453 94.5341 36.3771 101.789 43.3135L121.866 23.2362C109.743 11.9408 93.8977 5.00439 75.0295 5.00439C47.6659 5.00439 23.9932 20.6908 12.475 43.568L35.8614 61.7044C41.3659 45.1589 56.7977 32.8453 75.0295 32.8453Z" fill="#EA4335"/>
</g>
<g filter="url(#filter21_f_6_3583)">
<path d="M142.23 76.5955C142.23 71.6319 141.784 66.8592 140.957 62.2773H75.0295V89.3546H112.702C111.08 98.1046 106.148 105.518 98.7341 110.482V128.046H121.357C134.593 115.859 142.23 97.9137 142.23 76.5955Z" fill="#4285F4"/>
<path d="M75.0296 145.004C93.9296 145.004 109.775 138.736 121.357 128.045L98.7341 110.481C92.4659 114.681 84.4477 117.163 75.0296 117.163C56.7977 117.163 41.3659 104.85 35.8614 88.3042H12.475V106.441C23.9932 129.318 47.6659 145.004 75.0296 145.004Z" fill="#34A853"/>
<path d="M35.8614 88.3042C34.4614 84.1042 33.6659 79.6179 33.6659 75.0042C33.6659 70.3906 34.4614 65.9042 35.8614 61.7042V43.5679H12.475C7.575 53.3224 5.02522 64.0881 5.02955 75.0042C5.02955 86.2997 7.73409 96.9906 12.475 106.441L35.8614 88.3042Z" fill="#FBBC05"/>
<path d="M75.0295 32.8453C85.3068 32.8453 94.5341 36.3771 101.789 43.3135L121.866 23.2362C109.743 11.9408 93.8977 5.00439 75.0295 5.00439C47.6659 5.00439 23.9932 20.6908 12.475 43.568L35.8614 61.7044C41.3659 45.1589 56.7977 32.8453 75.0295 32.8453Z" fill="#EA4335"/>
</g>
<g filter="url(#filter22_f_6_3583)">
<path d="M142.23 76.5955C142.23 71.6319 141.784 66.8592 140.957 62.2773H75.0295V89.3546H112.702C111.08 98.1046 106.148 105.518 98.7341 110.482V128.046H121.357C134.593 115.859 142.23 97.9137 142.23 76.5955Z" fill="#4285F4"/>
<path d="M75.0296 145.004C93.9296 145.004 109.775 138.736 121.357 128.045L98.7341 110.481C92.4659 114.681 84.4477 117.163 75.0296 117.163C56.7977 117.163 41.3659 104.85 35.8614 88.3042H12.475V106.441C23.9932 129.318 47.6659 145.004 75.0296 145.004Z" fill="#34A853"/>
<path d="M35.8614 88.3042C34.4614 84.1042 33.6659 79.6179 33.6659 75.0042C33.6659 70.3906 34.4614 65.9042 35.8614 61.7042V43.5679H12.475C7.575 53.3224 5.02522 64.0881 5.02955 75.0042C5.02955 86.2997 7.73409 96.9906 12.475 106.441L35.8614 88.3042Z" fill="#FBBC05"/>
<path d="M75.0295 32.8453C85.3068 32.8453 94.5341 36.3771 101.789 43.3135L121.866 23.2362C109.743 11.9408 93.8977 5.00439 75.0295 5.00439C47.6659 5.00439 23.9932 20.6908 12.475 43.568L35.8614 61.7044C41.3659 45.1589 56.7977 32.8453 75.0295 32.8453Z" fill="#EA4335"/>
</g>
<g filter="url(#filter23_f_6_3583)">
<path d="M142.23 76.5955C142.23 71.6319 141.784 66.8592 140.957 62.2773H75.0295V89.3546H112.702C111.08 98.1046 106.148 105.518 98.7341 110.482V128.046H121.357C134.593 115.859 142.23 97.9137 142.23 76.5955Z" fill="#4285F4"/>
<path d="M75.0296 145.004C93.9296 145.004 109.775 138.736 121.357 128.045L98.7341 110.481C92.4659 114.681 84.4477 117.163 75.0296 117.163C56.7977 117.163 41.3659 104.85 35.8614 88.3042H12.475V106.441C23.9932 129.318 47.6659 145.004 75.0296 145.004Z" fill="#34A853"/>
<path d="M35.8614 88.3042C34.4614 84.1042 33.6659 79.6179 33.6659 75.0042C33.6659 70.3906 34.4614 65.9042 35.8614 61.7042V43.5679H12.475C7.575 53.3224 5.02522 64.0881 5.02955 75.0042C5.02955 86.2997 7.73409 96.9906 12.475 106.441L35.8614 88.3042Z" fill="#FBBC05"/>
<path d="M75.0295 32.8453C85.3068 32.8453 94.5341 36.3771 101.789 43.3135L121.866 23.2362C109.743 11.9408 93.8977 5.00439 75.0295 5.00439C47.6659 5.00439 23.9932 20.6908 12.475 43.568L35.8614 61.7044C41.3659 45.1589 56.7977 32.8453 75.0295 32.8453Z" fill="#EA4335"/>
</g>
<g filter="url(#filter24_f_6_3583)">
<path d="M142.23 76.5955C142.23 71.6319 141.784 66.8592 140.957 62.2773H75.0295V89.3546H112.702C111.08 98.1046 106.148 105.518 98.7341 110.482V128.046H121.357C134.593 115.859 142.23 97.9137 142.23 76.5955Z" fill="#4285F4"/>
<path d="M75.0296 145.004C93.9296 145.004 109.775 138.736 121.357 128.045L98.7341 110.481C92.4659 114.681 84.4477 117.163 75.0296 117.163C56.7977 117.163 41.3659 104.85 35.8614 88.3042H12.475V106.441C23.9932 129.318 47.6659 145.004 75.0296 145.004Z" fill="#34A853"/>
<path d="M35.8614 88.3042C34.4614 84.1042 33.6659 79.6179 33.6659 75.0042C33.6659 70.3906 34.4614 65.9042 35.8614 61.7042V43.5679H12.475C7.575 53.3224 5.02522 64.0881 5.02955 75.0042C5.02955 86.2997 7.73409 96.9906 12.475 106.441L35.8614 88.3042Z" fill="#FBBC05"/>
<path d="M75.0295 32.8453C85.3068 32.8453 94.5341 36.3771 101.789 43.3135L121.866 23.2362C109.743 11.9408 93.8977 5.00439 75.0295 5.00439C47.6659 5.00439 23.9932 20.6908 12.475 43.568L35.8614 61.7044C41.3659 45.1589 56.7977 32.8453 75.0295 32.8453Z" fill="#EA4335"/>
</g>
<g filter="url(#filter25_f_6_3583)">
<path d="M142.23 76.5955C142.23 71.6319 141.784 66.8592 140.957 62.2773H75.0295V89.3546H112.702C111.08 98.1046 106.148 105.518 98.7341 110.482V128.046H121.357C134.593 115.859 142.23 97.9137 142.23 76.5955Z" fill="#4285F4"/>
<path d="M75.0296 145.004C93.9296 145.004 109.775 138.736 121.357 128.045L98.7341 110.481C92.4659 114.681 84.4477 117.163 75.0296 117.163C56.7977 117.163 41.3659 104.85 35.8614 88.3042H12.475V106.441C23.9932 129.318 47.6659 145.004 75.0296 145.004Z" fill="#34A853"/>
<path d="M35.8614 88.3042C34.4614 84.1042 33.6659 79.6179 33.6659 75.0042C33.6659 70.3906 34.4614 65.9042 35.8614 61.7042V43.5679H12.475C7.575 53.3224 5.02522 64.0881 5.02955 75.0042C5.02955 86.2997 7.73409 96.9906 12.475 106.441L35.8614 88.3042Z" fill="#FBBC05"/>
<path d="M75.0295 32.8453C85.3068 32.8453 94.5341 36.3771 101.789 43.3135L121.866 23.2362C109.743 11.9408 93.8977 5.00439 75.0295 5.00439C47.6659 5.00439 23.9932 20.6908 12.475 43.568L35.8614 61.7044C41.3659 45.1589 56.7977 32.8453 75.0295 32.8453Z" fill="#EA4335"/>
</g>
<g filter="url(#filter26_f_6_3583)">
<path d="M142.23 76.5955C142.23 71.6319 141.784 66.8592 140.957 62.2773H75.0295V89.3546H112.702C111.08 98.1046 106.148 105.518 98.7341 110.482V128.046H121.357C134.593 115.859 142.23 97.9137 142.23 76.5955Z" fill="#4285F4"/>
<path d="M75.0296 145.004C93.9296 145.004 109.775 138.736 121.357 128.045L98.7341 110.481C92.4659 114.681 84.4477 117.163 75.0296 117.163C56.7977 117.163 41.3659 104.85 35.8614 88.3042H12.475V106.441C23.9932 129.318 47.6659 145.004 75.0296 145.004Z" fill="#34A853"/>
<path d="M35.8614 88.3042C34.4614 84.1042 33.6659 79.6179 33.6659 75.0042C33.6659 70.3906 34.4614 65.9042 35.8614 61.7042V43.5679H12.475C7.575 53.3224 5.02522 64.0881 5.02955 75.0042C5.02955 86.2997 7.73409 96.9906 12.475 106.441L35.8614 88.3042Z" fill="#FBBC05"/>
<path d="M75.0295 32.8453C85.3068 32.8453 94.5341 36.3771 101.789 43.3135L121.866 23.2362C109.743 11.9408 93.8977 5.00439 75.0295 5.00439C47.6659 5.00439 23.9932 20.6908 12.475 43.568L35.8614 61.7044C41.3659 45.1589 56.7977 32.8453 75.0295 32.8453Z" fill="#EA4335"/>
</g>
<g filter="url(#filter27_f_6_3583)">
<path d="M142.23 76.5955C142.23 71.6319 141.784 66.8592 140.957 62.2773H75.0295V89.3546H112.702C111.08 98.1046 106.148 105.518 98.7341 110.482V128.046H121.357C134.593 115.859 142.23 97.9137 142.23 76.5955Z" fill="#4285F4"/>
<path d="M75.0296 145.004C93.9296 145.004 109.775 138.736 121.357 128.045L98.7341 110.481C92.4659 114.681 84.4477 117.163 75.0296 117.163C56.7977 117.163 41.3659 104.85 35.8614 88.3042H12.475V106.441C23.9932 129.318 47.6659 145.004 75.0296 145.004Z" fill="#34A853"/>
<path d="M35.8614 88.3042C34.4614 84.1042 33.6659 79.6179 33.6659 75.0042C33.6659 70.3906 34.4614 65.9042 35.8614 61.7042V43.5679H12.475C7.575 53.3224 5.02522 64.0881 5.02955 75.0042C5.02955 86.2997 7.73409 96.9906 12.475 106.441L35.8614 88.3042Z" fill="#FBBC05"/>
<path d="M75.0295 32.8453C85.3068 32.8453 94.5341 36.3771 101.789 43.3135L121.866 23.2362C109.743 11.9408 93.8977 5.00439 75.0295 5.00439C47.6659 5.00439 23.9932 20.6908 12.475 43.568L35.8614 61.7044C41.3659 45.1589 56.7977 32.8453 75.0295 32.8453Z" fill="#EA4335"/>
</g>
<g filter="url(#filter28_f_6_3583)">
<path d="M142.23 76.5955C142.23 71.6319 141.784 66.8592 140.957 62.2773H75.0295V89.3546H112.702C111.08 98.1046 106.148 105.518 98.7341 110.482V128.046H121.357C134.593 115.859 142.23 97.9137 142.23 76.5955Z" fill="#4285F4"/>
<path d="M75.0296 145.004C93.9296 145.004 109.775 138.736 121.357 128.045L98.7341 110.481C92.4659 114.681 84.4477 117.163 75.0296 117.163C56.7977 117.163 41.3659 104.85 35.8614 88.3042H12.475V106.441C23.9932 129.318 47.6659 145.004 75.0296 145.004Z" fill="#34A853"/>
<path d="M35.8614 88.3042C34.4614 84.1042 33.6659 79.6179 33.6659 75.0042C33.6659 70.3906 34.4614 65.9042 35.8614 61.7042V43.5679H12.475C7.575 53.3224 5.02522 64.0881 5.02955 75.0042C5.02955 86.2997 7.73409 96.9906 12.475 106.441L35.8614 88.3042Z" fill="#FBBC05"/>
<path d="M75.0295 32.8453C85.3068 32.8453 94.5341 36.3771 101.789 43.3135L121.866 23.2362C109.743 11.9408 93.8977 5.00439 75.0295 5.00439C47.6659 5.00439 23.9932 20.6908 12.475 43.568L35.8614 61.7044C41.3659 45.1589 56.7977 32.8453 75.0295 32.8453Z" fill="#EA4335"/>
</g>
<g filter="url(#filter29_f_6_3583)">
<path d="M142.23 76.5955C142.23 71.6319 141.784 66.8592 140.957 62.2773H75.0295V89.3546H112.702C111.08 98.1046 106.148 105.518 98.7341 110.482V128.046H121.357C134.593 115.859 142.23 97.9137 142.23 76.5955Z" fill="#4285F4"/>
<path d="M75.0296 145.004C93.9296 145.004 109.775 138.736 121.357 128.045L98.7341 110.481C92.4659 114.681 84.4477 117.163 75.0296 117.163C56.7977 117.163 41.3659 104.85 35.8614 88.3042H12.475V106.441C23.9932 129.318 47.6659 145.004 75.0296 145.004Z" fill="#34A853"/>
<path d="M35.8614 88.3042C34.4614 84.1042 33.6659 79.6179 33.6659 75.0042C33.6659 70.3906 34.4614 65.9042 35.8614 61.7042V43.5679H12.475C7.575 53.3224 5.02522 64.0881 5.02955 75.0042C5.02955 86.2997 7.73409 96.9906 12.475 106.441L35.8614 88.3042Z" fill="#FBBC05"/>
<path d="M75.0295 32.8453C85.3068 32.8453 94.5341 36.3771 101.789 43.3135L121.866 23.2362C109.743 11.9408 93.8977 5.00439 75.0295 5.00439C47.6659 5.00439 23.9932 20.6908 12.475 43.568L35.8614 61.7044C41.3659 45.1589 56.7977 32.8453 75.0295 32.8453Z" fill="#EA4335"/>
</g>
<g filter="url(#filter30_f_6_3583)">
<path d="M142.23 76.5955C142.23 71.6319 141.784 66.8592 140.957 62.2773H75.0295V89.3546H112.702C111.08 98.1046 106.148 105.518 98.7341 110.482V128.046H121.357C134.593 115.859 142.23 97.9137 142.23 76.5955Z" fill="#4285F4"/>
<path d="M75.0296 145.004C93.9296 145.004 109.775 138.736 121.357 128.045L98.7341 110.481C92.4659 114.681 84.4477 117.163 75.0296 117.163C56.7977 117.163 41.3659 104.85 35.8614 88.3042H12.475V106.441C23.9932 129.318 47.6659 145.004 75.0296 145.004Z" fill="#34A853"/>
<path d="M35.8614 88.3042C34.4614 84.1042 33.6659 79.6179 33.6659 75.0042C33.6659 70.3906 34.4614 65.9042 35.8614 61.7042V43.5679H12.475C7.575 53.3224 5.02522 64.0881 5.02955 75.0042C5.02955 86.2997 7.73409 96.9906 12.475 106.441L35.8614 88.3042Z" fill="#FBBC05"/>
<path d="M75.0295 32.8453C85.3068 32.8453 94.5341 36.3771 101.789 43.3135L121.866 23.2362C109.743 11.9408 93.8977 5.00439 75.0295 5.00439C47.6659 5.00439 23.9932 20.6908 12.475 43.568L35.8614 61.7044C41.3659 45.1589 56.7977 32.8453 75.0295 32.8453Z" fill="#EA4335"/>
</g>
<g filter="url(#filter31_f_6_3583)">
<path d="M142.23 76.5955C142.23 71.6319 141.784 66.8592 140.957 62.2773H75.0295V89.3546H112.702C111.08 98.1046 106.148 105.518 98.7341 110.482V128.046H121.357C134.593 115.859 142.23 97.9137 142.23 76.5955Z" fill="#4285F4"/>
<path d="M75.0296 145.004C93.9296 145.004 109.775 138.736 121.357 128.045L98.7341 110.481C92.4659 114.681 84.4477 117.163 75.0296 117.163C56.7977 117.163 41.3659 104.85 35.8614 88.3042H12.475V106.441C23.9932 129.318 47.6659 145.004 75.0296 145.004Z" fill="#34A853"/>
<path d="M35.8614 88.3042C34.4614 84.1042 33.6659 79.6179 33.6659 75.0042C33.6659 70.3906 34.4614 65.9042 35.8614 61.7042V43.5679H12.475C7.575 53.3224 5.02522 64.0881 5.02955 75.0042C5.02955 86.2997 7.73409 96.9906 12.475 106.441L35.8614 88.3042Z" fill="#FBBC05"/>
<path d="M75.0295 32.8453C85.3068 32.8453 94.5341 36.3771 101.789 43.3135L121.866 23.2362C109.743 11.9408 93.8977 5.00439 75.0295 5.00439C47.6659 5.00439 23.9932 20.6908 12.475 43.568L35.8614 61.7044C41.3659 45.1589 56.7977 32.8453 75.0295 32.8453Z" fill="#EA4335"/>
</g>
<g filter="url(#filter32_f_6_3583)">
<path d="M142.23 76.5955C142.23 71.6319 141.784 66.8592 140.957 62.2773H75.0295V89.3546H112.702C111.08 98.1046 106.148 105.518 98.7341 110.482V128.046H121.357C134.593 115.859 142.23 97.9137 142.23 76.5955Z" fill="#4285F4"/>
<path d="M75.0296 145.004C93.9296 145.004 109.775 138.736 121.357 128.045L98.7341 110.481C92.4659 114.681 84.4477 117.163 75.0296 117.163C56.7977 117.163 41.3659 104.85 35.8614 88.3042H12.475V106.441C23.9932 129.318 47.6659 145.004 75.0296 145.004Z" fill="#34A853"/>
<path d="M35.8614 88.3042C34.4614 84.1042 33.6659 79.6179 33.6659 75.0042C33.6659 70.3906 34.4614 65.9042 35.8614 61.7042V43.5679H12.475C7.575 53.3224 5.02522 64.0881 5.02955 75.0042C5.02955 86.2997 7.73409 96.9906 12.475 106.441L35.8614 88.3042Z" fill="#FBBC05"/>
<path d="M75.0295 32.8453C85.3068 32.8453 94.5341 36.3771 101.789 43.3135L121.866 23.2362C109.743 11.9408 93.8977 5.00439 75.0295 5.00439C47.6659 5.00439 23.9932 20.6908 12.475 43.568L35.8614 61.7044C41.3659 45.1589 56.7977 32.8453 75.0295 32.8453Z" fill="#EA4335"/>
</g>
<g filter="url(#filter33_f_6_3583)">
<path d="M142.23 76.5955C142.23 71.6319 141.784 66.8592 140.957 62.2773H75.0295V89.3546H112.702C111.08 98.1046 106.148 105.518 98.7341 110.482V128.046H121.357C134.593 115.859 142.23 97.9137 142.23 76.5955Z" fill="#4285F4"/>
<path d="M75.0296 145.004C93.9296 145.004 109.775 138.736 121.357 128.045L98.7341 110.481C92.4659 114.681 84.4477 117.163 75.0296 117.163C56.7977 117.163 41.3659 104.85 35.8614 88.3042H12.475V106.441C23.9932 129.318 47.6659 145.004 75.0296 145.004Z" fill="#34A853"/>
<path d="M35.8614 88.3042C34.4614 84.1042 33.6659 79.6179 33.6659 75.0042C33.6659 70.3906 34.4614 65.9042 35.8614 61.7042V43.5679H12.475C7.575 53.3224 5.02522 64.0881 5.02955 75.0042C5.02955 86.2997 7.73409 96.9906 12.475 106.441L35.8614 88.3042Z" fill="#FBBC05"/>
<path d="M75.0295 32.8453C85.3068 32.8453 94.5341 36.3771 101.789 43.3135L121.866 23.2362C109.743 11.9408 93.8977 5.00439 75.0295 5.00439C47.6659 5.00439 23.9932 20.6908 12.475 43.568L35.8614 61.7044C41.3659 45.1589 56.7977 32.8453 75.0295 32.8453Z" fill="#EA4335"/>
</g>
<g filter="url(#filter34_f_6_3583)">
<path d="M142.23 76.5955C142.23 71.6319 141.784 66.8592 140.957 62.2773H75.0295V89.3546H112.702C111.08 98.1046 106.148 105.518 98.7341 110.482V128.046H121.357C134.593 115.859 142.23 97.9137 142.23 76.5955Z" fill="#4285F4"/>
<path d="M75.0296 145.004C93.9296 145.004 109.775 138.736 121.357 128.045L98.7341 110.481C92.4659 114.681 84.4477 117.163 75.0296 117.163C56.7977 117.163 41.3659 104.85 35.8614 88.3042H12.475V106.441C23.9932 129.318 47.6659 145.004 75.0296 145.004Z" fill="#34A853"/>
<path d="M35.8614 88.3042C34.4614 84.1042 33.6659 79.6179 33.6659 75.0042C33.6659 70.3906 34.4614 65.9042 35.8614 61.7042V43.5679H12.475C7.575 53.3224 5.02522 64.0881 5.02955 75.0042C5.02955 86.2997 7.73409 96.9906 12.475 106.441L35.8614 88.3042Z" fill="#FBBC05"/>
<path d="M75.0295 32.8453C85.3068 32.8453 94.5341 36.3771 101.789 43.3135L121.866 23.2362C109.743 11.9408 93.8977 5.00439 75.0295 5.00439C47.6659 5.00439 23.9932 20.6908 12.475 43.568L35.8614 61.7044C41.3659 45.1589 56.7977 32.8453 75.0295 32.8453Z" fill="#EA4335"/>
</g>
<g filter="url(#filter35_f_6_3583)">
<path d="M142.23 76.5955C142.23 71.6319 141.784 66.8592 140.957 62.2773H75.0295V89.3546H112.702C111.08 98.1046 106.148 105.518 98.7341 110.482V128.046H121.357C134.593 115.859 142.23 97.9137 142.23 76.5955Z" fill="#4285F4"/>
<path d="M75.0296 145.004C93.9296 145.004 109.775 138.736 121.357 128.045L98.7341 110.481C92.4659 114.681 84.4477 117.163 75.0296 117.163C56.7977 117.163 41.3659 104.85 35.8614 88.3042H12.475V106.441C23.9932 129.318 47.6659 145.004 75.0296 145.004Z" fill="#34A853"/>
<path d="M35.8614 88.3042C34.4614 84.1042 33.6659 79.6179 33.6659 75.0042C33.6659 70.3906 34.4614 65.9042 35.8614 61.7042V43.5679H12.475C7.575 53.3224 5.02522 64.0881 5.02955 75.0042C5.02955 86.2997 7.73409 96.9906 12.475 106.441L35.8614 88.3042Z" fill="#FBBC05"/>
<path d="M75.0295 32.8453C85.3068 32.8453 94.5341 36.3771 101.789 43.3135L121.866 23.2362C109.743 11.9408 93.8977 5.00439 75.0295 5.00439C47.6659 5.00439 23.9932 20.6908 12.475 43.568L35.8614 61.7044C41.3659 45.1589 56.7977 32.8453 75.0295 32.8453Z" fill="#EA4335"/>
</g>
<g filter="url(#filter36_f_6_3583)">
<path d="M142.23 76.5955C142.23 71.6319 141.784 66.8592 140.957 62.2773H75.0295V89.3546H112.702C111.08 98.1046 106.148 105.518 98.7341 110.482V128.046H121.357C134.593 115.859 142.23 97.9137 142.23 76.5955Z" fill="#4285F4"/>
<path d="M75.0296 145.004C93.9296 145.004 109.775 138.736 121.357 128.045L98.7341 110.481C92.4659 114.681 84.4477 117.163 75.0296 117.163C56.7977 117.163 41.3659 104.85 35.8614 88.3042H12.475V106.441C23.9932 129.318 47.6659 145.004 75.0296 145.004Z" fill="#34A853"/>
<path d="M35.8614 88.3042C34.4614 84.1042 33.6659 79.6179 33.6659 75.0042C33.6659 70.3906 34.4614 65.9042 35.8614 61.7042V43.5679H12.475C7.575 53.3224 5.02522 64.0881 5.02955 75.0042C5.02955 86.2997 7.73409 96.9906 12.475 106.441L35.8614 88.3042Z" fill="#FBBC05"/>
<path d="M75.0295 32.8453C85.3068 32.8453 94.5341 36.3771 101.789 43.3135L121.866 23.2362C109.743 11.9408 93.8977 5.00439 75.0295 5.00439C47.6659 5.00439 23.9932 20.6908 12.475 43.568L35.8614 61.7044C41.3659 45.1589 56.7977 32.8453 75.0295 32.8453Z" fill="#EA4335"/>
</g>
<g filter="url(#filter37_f_6_3583)">
<path d="M142.23 76.5955C142.23 71.6319 141.784 66.8592 140.957 62.2773H75.0295V89.3546H112.702C111.08 98.1046 106.148 105.518 98.7341 110.482V128.046H121.357C134.593 115.859 142.23 97.9137 142.23 76.5955Z" fill="#4285F4"/>
<path d="M75.0296 145.004C93.9296 145.004 109.775 138.736 121.357 128.045L98.7341 110.481C92.4659 114.681 84.4477 117.163 75.0296 117.163C56.7977 117.163 41.3659 104.85 35.8614 88.3042H12.475V106.441C23.9932 129.318 47.6659 145.004 75.0296 145.004Z" fill="#34A853"/>
<path d="M35.8614 88.3042C34.4614 84.1042 33.6659 79.6179 33.6659 75.0042C33.6659 70.3906 34.4614 65.9042 35.8614 61.7042V43.5679H12.475C7.575 53.3224 5.02522 64.0881 5.02955 75.0042C5.02955 86.2997 7.73409 96.9906 12.475 106.441L35.8614 88.3042Z" fill="#FBBC05"/>
<path d="M75.0295 32.8453C85.3068 32.8453 94.5341 36.3771 101.789 43.3135L121.866 23.2362C109.743 11.9408 93.8977 5.00439 75.0295 5.00439C47.6659 5.00439 23.9932 20.6908 12.475 43.568L35.8614 61.7044C41.3659 45.1589 56.7977 32.8453 75.0295 32.8453Z" fill="#EA4335"/>
</g>
<g filter="url(#filter38_f_6_3583)">
<path d="M142.23 76.5955C142.23 71.6319 141.784 66.8592 140.957 62.2773H75.0295V89.3546H112.702C111.08 98.1046 106.148 105.518 98.7341 110.482V128.046H121.357C134.593 115.859 142.23 97.9137 142.23 76.5955Z" fill="#4285F4"/>
<path d="M75.0296 145.004C93.9296 145.004 109.775 138.736 121.357 128.045L98.7341 110.481C92.4659 114.681 84.4477 117.163 75.0296 117.163C56.7977 117.163 41.3659 104.85 35.8614 88.3042H12.475V106.441C23.9932 129.318 47.6659 145.004 75.0296 145.004Z" fill="#34A853"/>
<path d="M35.8614 88.3042C34.4614 84.1042 33.6659 79.6179 33.6659 75.0042C33.6659 70.3906 34.4614 65.9042 35.8614 61.7042V43.5679H12.475C7.575 53.3224 5.02522 64.0881 5.02955 75.0042C5.02955 86.2997 7.73409 96.9906 12.475 106.441L35.8614 88.3042Z" fill="#FBBC05"/>
<path d="M75.0295 32.8453C85.3068 32.8453 94.5341 36.3771 101.789 43.3135L121.866 23.2362C109.743 11.9408 93.8977 5.00439 75.0295 5.00439C47.6659 5.00439 23.9932 20.6908 12.475 43.568L35.8614 61.7044C41.3659 45.1589 56.7977 32.8453 75.0295 32.8453Z" fill="#EA4335"/>
</g>
<g filter="url(#filter39_f_6_3583)">
<path d="M142.23 76.5955C142.23 71.6319 141.784 66.8592 140.957 62.2773H75.0295V89.3546H112.702C111.08 98.1046 106.148 105.518 98.7341 110.482V128.046H121.357C134.593 115.859 142.23 97.9137 142.23 76.5955Z" fill="#4285F4"/>
<path d="M75.0296 145.004C93.9296 145.004 109.775 138.736 121.357 128.045L98.7341 110.481C92.4659 114.681 84.4477 117.163 75.0296 117.163C56.7977 117.163 41.3659 104.85 35.8614 88.3042H12.475V106.441C23.9932 129.318 47.6659 145.004 75.0296 145.004Z" fill="#34A853"/>
<path d="M35.8614 88.3042C34.4614 84.1042 33.6659 79.6179 33.6659 75.0042C33.6659 70.3906 34.4614 65.9042 35.8614 61.7042V43.5679H12.475C7.575 53.3224 5.02522 64.0881 5.02955 75.0042C5.02955 86.2997 7.73409 96.9906 12.475 106.441L35.8614 88.3042Z" fill="#FBBC05"/>
<path d="M75.0295 32.8453C85.3068 32.8453 94.5341 36.3771 101.789 43.3135L121.866 23.2362C109.743 11.9408 93.8977 5.00439 75.0295 5.00439C47.6659 5.00439 23.9932 20.6908 12.475 43.568L35.8614 61.7044C41.3659 45.1589 56.7977 32.8453 75.0295 32.8453Z" fill="#EA4335"/>
</g>
<g filter="url(#filter40_f_6_3583)">
<path d="M142.23 76.5955C142.23 71.6319 141.784 66.8592 140.957 62.2773H75.0295V89.3546H112.702C111.08 98.1046 106.148 105.518 98.7341 110.482V128.046H121.357C134.593 115.859 142.23 97.9137 142.23 76.5955Z" fill="#4285F4"/>
<path d="M75.0296 145.004C93.9296 145.004 109.775 138.736 121.357 128.045L98.7341 110.481C92.4659 114.681 84.4477 117.163 75.0296 117.163C56.7977 117.163 41.3659 104.85 35.8614 88.3042H12.475V106.441C23.9932 129.318 47.6659 145.004 75.0296 145.004Z" fill="#34A853"/>
<path d="M35.8614 88.3042C34.4614 84.1042 33.6659 79.6179 33.6659 75.0042C33.6659 70.3906 34.4614 65.9042 35.8614 61.7042V43.5679H12.475C7.575 53.3224 5.02522 64.0881 5.02955 75.0042C5.02955 86.2997 7.73409 96.9906 12.475 106.441L35.8614 88.3042Z" fill="#FBBC05"/>
<path d="M75.0295 32.8453C85.3068 32.8453 94.5341 36.3771 101.789 43.3135L121.866 23.2362C109.743 11.9408 93.8977 5.00439 75.0295 5.00439C47.6659 5.00439 23.9932 20.6908 12.475 43.568L35.8614 61.7044C41.3659 45.1589 56.7977 32.8453 75.0295 32.8453Z" fill="#EA4335"/>
</g>
<g filter="url(#filter41_f_6_3583)">
<path d="M142.23 76.5955C142.23 71.6319 141.784 66.8592 140.957 62.2773H75.0295V89.3546H112.702C111.08 98.1046 106.148 105.518 98.7341 110.482V128.046H121.357C134.593 115.859 142.23 97.9137 142.23 76.5955Z" fill="#4285F4"/>
<path d="M75.0296 145.004C93.9296 145.004 109.775 138.736 121.357 128.045L98.7341 110.481C92.4659 114.681 84.4477 117.163 75.0296 117.163C56.7977 117.163 41.3659 104.85 35.8614 88.3042H12.475V106.441C23.9932 129.318 47.6659 145.004 75.0296 145.004Z" fill="#34A853"/>
<path d="M35.8614 88.3042C34.4614 84.1042 33.6659 79.6179 33.6659 75.0042C33.6659 70.3906 34.4614 65.9042 35.8614 61.7042V43.5679H12.475C7.575 53.3224 5.02522 64.0881 5.02955 75.0042C5.02955 86.2997 7.73409 96.9906 12.475 106.441L35.8614 88.3042Z" fill="#FBBC05"/>
<path d="M75.0295 32.8453C85.3068 32.8453 94.5341 36.3771 101.789 43.3135L121.866 23.2362C109.743 11.9408 93.8977 5.00439 75.0295 5.00439C47.6659 5.00439 23.9932 20.6908 12.475 43.568L35.8614 61.7044C41.3659 45.1589 56.7977 32.8453 75.0295 32.8453Z" fill="#EA4335"/>
</g>
<g filter="url(#filter42_f_6_3583)">
<path d="M142.23 76.5955C142.23 71.6319 141.784 66.8592 140.957 62.2773H75.0295V89.3546H112.702C111.08 98.1046 106.148 105.518 98.7341 110.482V128.046H121.357C134.593 115.859 142.23 97.9137 142.23 76.5955Z" fill="#4285F4"/>
<path d="M75.0296 145.004C93.9296 145.004 109.775 138.736 121.357 128.045L98.7341 110.481C92.4659 114.681 84.4477 117.163 75.0296 117.163C56.7977 117.163 41.3659 104.85 35.8614 88.3042H12.475V106.441C23.9932 129.318 47.6659 145.004 75.0296 145.004Z" fill="#34A853"/>
<path d="M35.8614 88.3042C34.4614 84.1042 33.6659 79.6179 33.6659 75.0042C33.6659 70.3906 34.4614 65.9042 35.8614 61.7042V43.5679H12.475C7.575 53.3224 5.02522 64.0881 5.02955 75.0042C5.02955 86.2997 7.73409 96.9906 12.475 106.441L35.8614 88.3042Z" fill="#FBBC05"/>
<path d="M75.0295 32.8453C85.3068 32.8453 94.5341 36.3771 101.789 43.3135L121.866 23.2362C109.743 11.9408 93.8977 5.00439 75.0295 5.00439C47.6659 5.00439 23.9932 20.6908 12.475 43.568L35.8614 61.7044C41.3659 45.1589 56.7977 32.8453 75.0295 32.8453Z" fill="#EA4335"/>
</g>
<g filter="url(#filter43_f_6_3583)">
<path d="M142.23 76.5955C142.23 71.6319 141.784 66.8592 140.957 62.2773H75.0295V89.3546H112.702C111.08 98.1046 106.148 105.518 98.7341 110.482V128.046H121.357C134.593 115.859 142.23 97.9137 142.23 76.5955Z" fill="#4285F4"/>
<path d="M75.0296 145.004C93.9296 145.004 109.775 138.736 121.357 128.045L98.7341 110.481C92.4659 114.681 84.4477 117.163 75.0296 117.163C56.7977 117.163 41.3659 104.85 35.8614 88.3042H12.475V106.441C23.9932 129.318 47.6659 145.004 75.0296 145.004Z" fill="#34A853"/>
<path d="M35.8614 88.3042C34.4614 84.1042 33.6659 79.6179 33.6659 75.0042C33.6659 70.3906 34.4614 65.9042 35.8614 61.7042V43.5679H12.475C7.575 53.3224 5.02522 64.0881 5.02955 75.0042C5.02955 86.2997 7.73409 96.9906 12.475 106.441L35.8614 88.3042Z" fill="#FBBC05"/>
<path d="M75.0295 32.8453C85.3068 32.8453 94.5341 36.3771 101.789 43.3135L121.866 23.2362C109.743 11.9408 93.8977 5.00439 75.0295 5.00439C47.6659 5.00439 23.9932 20.6908 12.475 43.568L35.8614 61.7044C41.3659 45.1589 56.7977 32.8453 75.0295 32.8453Z" fill="#EA4335"/>
</g>
</g>
<defs>
<filter id="filter0_f_6_3583" x="-25.5159" y="-25.5411" width="198.291" height="201.091" filterUnits="userSpaceOnUse" color-interpolation-filters="sRGB">
<feFlood flood-opacity="0" result="BackgroundImageFix"/>
<feBlend mode="normal" in="SourceGraphic" in2="BackgroundImageFix" result="shape"/>
<feGaussianBlur stdDeviation="15.2727" result="effect1_foregroundBlur_6_3583"/>
</filter>
<filter id="filter1_f_6_3583" x="-25.5159" y="-25.5411" width="198.291" height="201.091" filterUnits="userSpaceOnUse" color-interpolation-filters="sRGB">
<feFlood flood-opacity="0" result="BackgroundImageFix"/>
<feBlend mode="normal" in="SourceGraphic" in2="BackgroundImageFix" result="shape"/>
<feGaussianBlur stdDeviation="15.2727" result="effect1_foregroundBlur_6_3583"/>
</filter>
<filter id="filter2_f_6_3583" x="-25.5159" y="-25.5411" width="198.291" height="201.091" filterUnits="userSpaceOnUse" color-interpolation-filters="sRGB">
<feFlood flood-opacity="0" result="BackgroundImageFix"/>
<feBlend mode="normal" in="SourceGraphic" in2="BackgroundImageFix" result="shape"/>
<feGaussianBlur stdDeviation="15.2727" result="effect1_foregroundBlur_6_3583"/>
</filter>
<filter id="filter3_f_6_3583" x="-25.5159" y="-25.5411" width="198.291" height="201.091" filterUnits="userSpaceOnUse" color-interpolation-filters="sRGB">
<feFlood flood-opacity="0" result="BackgroundImageFix"/>
<feBlend mode="normal" in="SourceGraphic" in2="BackgroundImageFix" result="shape"/>
<feGaussianBlur stdDeviation="15.2727" result="effect1_foregroundBlur_6_3583"/>
</filter>
<filter id="filter4_f_6_3583" x="-25.5159" y="-25.5411" width="198.291" height="201.091" filterUnits="userSpaceOnUse" color-interpolation-filters="sRGB">
<feFlood flood-opacity="0" result="BackgroundImageFix"/>
<feBlend mode="normal" in="SourceGraphic" in2="BackgroundImageFix" result="shape"/>
<feGaussianBlur stdDeviation="15.2727" result="effect1_foregroundBlur_6_3583"/>
</filter>
<filter id="filter5_f_6_3583" x="-25.5159" y="-25.5411" width="198.291" height="201.091" filterUnits="userSpaceOnUse" color-interpolation-filters="sRGB">
<feFlood flood-opacity="0" result="BackgroundImageFix"/>
<feBlend mode="normal" in="SourceGraphic" in2="BackgroundImageFix" result="shape"/>
<feGaussianBlur stdDeviation="15.2727" result="effect1_foregroundBlur_6_3583"/>
</filter>
<filter id="filter6_f_6_3583" x="-25.5159" y="-25.5411" width="198.291" height="201.091" filterUnits="userSpaceOnUse" color-interpolation-filters="sRGB">
<feFlood flood-opacity="0" result="BackgroundImageFix"/>
<feBlend mode="normal" in="SourceGraphic" in2="BackgroundImageFix" result="shape"/>
<feGaussianBlur stdDeviation="15.2727" result="effect1_foregroundBlur_6_3583"/>
</filter>
<filter id="filter7_f_6_3583" x="-25.5159" y="-25.5411" width="198.291" height="201.091" filterUnits="userSpaceOnUse" color-interpolation-filters="sRGB">
<feFlood flood-opacity="0" result="BackgroundImageFix"/>
<feBlend mode="normal" in="SourceGraphic" in2="BackgroundImageFix" result="shape"/>
<feGaussianBlur stdDeviation="15.2727" result="effect1_foregroundBlur_6_3583"/>
</filter>
<filter id="filter8_f_6_3583" x="-25.5159" y="-25.5411" width="198.291" height="201.091" filterUnits="userSpaceOnUse" color-interpolation-filters="sRGB">
<feFlood flood-opacity="0" result="BackgroundImageFix"/>
<feBlend mode="normal" in="SourceGraphic" in2="BackgroundImageFix" result="shape"/>
<feGaussianBlur stdDeviation="15.2727" result="effect1_foregroundBlur_6_3583"/>
</filter>
<filter id="filter9_f_6_3583" x="-25.5159" y="-25.5411" width="198.291" height="201.091" filterUnits="userSpaceOnUse" color-interpolation-filters="sRGB">
<feFlood flood-opacity="0" result="BackgroundImageFix"/>
<feBlend mode="normal" in="SourceGraphic" in2="BackgroundImageFix" result="shape"/>
<feGaussianBlur stdDeviation="15.2727" result="effect1_foregroundBlur_6_3583"/>
</filter>
<filter id="filter10_f_6_3583" x="-25.5159" y="-25.5411" width="198.291" height="201.091" filterUnits="userSpaceOnUse" color-interpolation-filters="sRGB">
<feFlood flood-opacity="0" result="BackgroundImageFix"/>
<feBlend mode="normal" in="SourceGraphic" in2="BackgroundImageFix" result="shape"/>
<feGaussianBlur stdDeviation="15.2727" result="effect1_foregroundBlur_6_3583"/>
</filter>
<filter id="filter11_f_6_3583" x="-25.5159" y="-25.5411" width="198.291" height="201.091" filterUnits="userSpaceOnUse" color-interpolation-filters="sRGB">
<feFlood flood-opacity="0" result="BackgroundImageFix"/>
<feBlend mode="normal" in="SourceGraphic" in2="BackgroundImageFix" result="shape"/>
<feGaussianBlur stdDeviation="15.2727" result="effect1_foregroundBlur_6_3583"/>
</filter>
<filter id="filter12_f_6_3583" x="-25.5159" y="-25.5411" width="198.291" height="201.091" filterUnits="userSpaceOnUse" color-interpolation-filters="sRGB">
<feFlood flood-opacity="0" result="BackgroundImageFix"/>
<feBlend mode="normal" in="SourceGraphic" in2="BackgroundImageFix" result="shape"/>
<feGaussianBlur stdDeviation="15.2727" result="effect1_foregroundBlur_6_3583"/>
</filter>
<filter id="filter13_f_6_3583" x="-25.5159" y="-25.5411" width="198.291" height="201.091" filterUnits="userSpaceOnUse" color-interpolation-filters="sRGB">
<feFlood flood-opacity="0" result="BackgroundImageFix"/>
<feBlend mode="normal" in="SourceGraphic" in2="BackgroundImageFix" result="shape"/>
<feGaussianBlur stdDeviation="15.2727" result="effect1_foregroundBlur_6_3583"/>
</filter>
<filter id="filter14_f_6_3583" x="-25.5159" y="-25.5411" width="198.291" height="201.091" filterUnits="userSpaceOnUse" color-interpolation-filters="sRGB">
<feFlood flood-opacity="0" result="BackgroundImageFix"/>
<feBlend mode="normal" in="SourceGraphic" in2="BackgroundImageFix" result="shape"/>
<feGaussianBlur stdDeviation="15.2727" result="effect1_foregroundBlur_6_3583"/>
</filter>
<filter id="filter15_f_6_3583" x="-25.5159" y="-25.5411" width="198.291" height="201.091" filterUnits="userSpaceOnUse" color-interpolation-filters="sRGB">
<feFlood flood-opacity="0" result="BackgroundImageFix"/>
<feBlend mode="normal" in="SourceGraphic" in2="BackgroundImageFix" result="shape"/>
<feGaussianBlur stdDeviation="15.2727" result="effect1_foregroundBlur_6_3583"/>
</filter>
<filter id="filter16_f_6_3583" x="-25.5159" y="-25.5411" width="198.291" height="201.091" filterUnits="userSpaceOnUse" color-interpolation-filters="sRGB">
<feFlood flood-opacity="0" result="BackgroundImageFix"/>
<feBlend mode="normal" in="SourceGraphic" in2="BackgroundImageFix" result="shape"/>
<feGaussianBlur stdDeviation="15.2727" result="effect1_foregroundBlur_6_3583"/>
</filter>
<filter id="filter17_f_6_3583" x="-25.5159" y="-25.5411" width="198.291" height="201.091" filterUnits="userSpaceOnUse" color-interpolation-filters="sRGB">
<feFlood flood-opacity="0" result="BackgroundImageFix"/>
<feBlend mode="normal" in="SourceGraphic" in2="BackgroundImageFix" result="shape"/>
<feGaussianBlur stdDeviation="15.2727" result="effect1_foregroundBlur_6_3583"/>
</filter>
<filter id="filter18_f_6_3583" x="-25.5159" y="-25.5411" width="198.291" height="201.091" filterUnits="userSpaceOnUse" color-interpolation-filters="sRGB">
<feFlood flood-opacity="0" result="BackgroundImageFix"/>
<feBlend mode="normal" in="SourceGraphic" in2="BackgroundImageFix" result="shape"/>
<feGaussianBlur stdDeviation="15.2727" result="effect1_foregroundBlur_6_3583"/>
</filter>
<filter id="filter19_f_6_3583" x="-25.5159" y="-25.5411" width="198.291" height="201.091" filterUnits="userSpaceOnUse" color-interpolation-filters="sRGB">
<feFlood flood-opacity="0" result="BackgroundImageFix"/>
<feBlend mode="normal" in="SourceGraphic" in2="BackgroundImageFix" result="shape"/>
<feGaussianBlur stdDeviation="15.2727" result="effect1_foregroundBlur_6_3583"/>
</filter>
<filter id="filter20_f_6_3583" x="-25.5159" y="-25.5411" width="198.291" height="201.091" filterUnits="userSpaceOnUse" color-interpolation-filters="sRGB">
<feFlood flood-opacity="0" result="BackgroundImageFix"/>
<feBlend mode="normal" in="SourceGraphic" in2="BackgroundImageFix" result="shape"/>
<feGaussianBlur stdDeviation="15.2727" result="effect1_foregroundBlur_6_3583"/>
</filter>
<filter id="filter21_f_6_3583" x="-25.5159" y="-25.5411" width="198.291" height="201.091" filterUnits="userSpaceOnUse" color-interpolation-filters="sRGB">
<feFlood flood-opacity="0" result="BackgroundImageFix"/>
<feBlend mode="normal" in="SourceGraphic" in2="BackgroundImageFix" result="shape"/>
<feGaussianBlur stdDeviation="15.2727" result="effect1_foregroundBlur_6_3583"/>
</filter>
<filter id="filter22_f_6_3583" x="-25.5159" y="-25.5411" width="198.291" height="201.091" filterUnits="userSpaceOnUse" color-interpolation-filters="sRGB">
<feFlood flood-opacity="0" result="BackgroundImageFix"/>
<feBlend mode="normal" in="SourceGraphic" in2="BackgroundImageFix" result="shape"/>
<feGaussianBlur stdDeviation="15.2727" result="effect1_foregroundBlur_6_3583"/>
</filter>
<filter id="filter23_f_6_3583" x="-25.5159" y="-25.5411" width="198.291" height="201.091" filterUnits="userSpaceOnUse" color-interpolation-filters="sRGB">
<feFlood flood-opacity="0" result="BackgroundImageFix"/>
<feBlend mode="normal" in="SourceGraphic" in2="BackgroundImageFix" result="shape"/>
<feGaussianBlur stdDeviation="15.2727" result="effect1_foregroundBlur_6_3583"/>
</filter>
<filter id="filter24_f_6_3583" x="-25.5159" y="-25.5411" width="198.291" height="201.091" filterUnits="userSpaceOnUse" color-interpolation-filters="sRGB">
<feFlood flood-opacity="0" result="BackgroundImageFix"/>
<feBlend mode="normal" in="SourceGraphic" in2="BackgroundImageFix" result="shape"/>
<feGaussianBlur stdDeviation="15.2727" result="effect1_foregroundBlur_6_3583"/>
</filter>
<filter id="filter25_f_6_3583" x="-25.5159" y="-25.5411" width="198.291" height="201.091" filterUnits="userSpaceOnUse" color-interpolation-filters="sRGB">
<feFlood flood-opacity="0" result="BackgroundImageFix"/>
<feBlend mode="normal" in="SourceGraphic" in2="BackgroundImageFix" result="shape"/>
<feGaussianBlur stdDeviation="15.2727" result="effect1_foregroundBlur_6_3583"/>
</filter>
<filter id="filter26_f_6_3583" x="-25.5159" y="-25.5411" width="198.291" height="201.091" filterUnits="userSpaceOnUse" color-interpolation-filters="sRGB">
<feFlood flood-opacity="0" result="BackgroundImageFix"/>
<feBlend mode="normal" in="SourceGraphic" in2="BackgroundImageFix" result="shape"/>
<feGaussianBlur stdDeviation="15.2727" result="effect1_foregroundBlur_6_3583"/>
</filter>
<filter id="filter27_f_6_3583" x="-25.5159" y="-25.5411" width="198.291" height="201.091" filterUnits="userSpaceOnUse" color-interpolation-filters="sRGB">
<feFlood flood-opacity="0" result="BackgroundImageFix"/>
<feBlend mode="normal" in="SourceGraphic" in2="BackgroundImageFix" result="shape"/>
<feGaussianBlur stdDeviation="15.2727" result="effect1_foregroundBlur_6_3583"/>
</filter>
<filter id="filter28_f_6_3583" x="-25.5159" y="-25.5411" width="198.291" height="201.091" filterUnits="userSpaceOnUse" color-interpolation-filters="sRGB">
<feFlood flood-opacity="0" result="BackgroundImageFix"/>
<feBlend mode="normal" in="SourceGraphic" in2="BackgroundImageFix" result="shape"/>
<feGaussianBlur stdDeviation="15.2727" result="effect1_foregroundBlur_6_3583"/>
</filter>
<filter id="filter29_f_6_3583" x="-25.5159" y="-25.5411" width="198.291" height="201.091" filterUnits="userSpaceOnUse" color-interpolation-filters="sRGB">
<feFlood flood-opacity="0" result="BackgroundImageFix"/>
<feBlend mode="normal" in="SourceGraphic" in2="BackgroundImageFix" result="shape"/>
<feGaussianBlur stdDeviation="15.2727" result="effect1_foregroundBlur_6_3583"/>
</filter>
<filter id="filter30_f_6_3583" x="-25.5159" y="-25.5411" width="198.291" height="201.091" filterUnits="userSpaceOnUse" color-interpolation-filters="sRGB">
<feFlood flood-opacity="0" result="BackgroundImageFix"/>
<feBlend mode="normal" in="SourceGraphic" in2="BackgroundImageFix" result="shape"/>
<feGaussianBlur stdDeviation="15.2727" result="effect1_foregroundBlur_6_3583"/>
</filter>
<filter id="filter31_f_6_3583" x="-25.5159" y="-25.5411" width="198.291" height="201.091" filterUnits="userSpaceOnUse" color-interpolation-filters="sRGB">
<feFlood flood-opacity="0" result="BackgroundImageFix"/>
<feBlend mode="normal" in="SourceGraphic" in2="BackgroundImageFix" result="shape"/>
<feGaussianBlur stdDeviation="15.2727" result="effect1_foregroundBlur_6_3583"/>
</filter>
<filter id="filter32_f_6_3583" x="-25.5159" y="-25.5411" width="198.291" height="201.091" filterUnits="userSpaceOnUse" color-interpolation-filters="sRGB">
<feFlood flood-opacity="0" result="BackgroundImageFix"/>
<feBlend mode="normal" in="SourceGraphic" in2="BackgroundImageFix" result="shape"/>
<feGaussianBlur stdDeviation="15.2727" result="effect1_foregroundBlur_6_3583"/>
</filter>
<filter id="filter33_f_6_3583" x="-25.5159" y="-25.5411" width="198.291" height="201.091" filterUnits="userSpaceOnUse" color-interpolation-filters="sRGB">
<feFlood flood-opacity="0" result="BackgroundImageFix"/>
<feBlend mode="normal" in="SourceGraphic" in2="BackgroundImageFix" result="shape"/>
<feGaussianBlur stdDeviation="15.2727" result="effect1_foregroundBlur_6_3583"/>
</filter>
<filter id="filter34_f_6_3583" x="-25.5159" y="-25.5411" width="198.291" height="201.091" filterUnits="userSpaceOnUse" color-interpolation-filters="sRGB">
<feFlood flood-opacity="0" result="BackgroundImageFix"/>
<feBlend mode="normal" in="SourceGraphic" in2="BackgroundImageFix" result="shape"/>
<feGaussianBlur stdDeviation="15.2727" result="effect1_foregroundBlur_6_3583"/>
</filter>
<filter id="filter35_f_6_3583" x="-25.5159" y="-25.5411" width="198.291" height="201.091" filterUnits="userSpaceOnUse" color-interpolation-filters="sRGB">
<feFlood flood-opacity="0" result="BackgroundImageFix"/>
<feBlend mode="normal" in="SourceGraphic" in2="BackgroundImageFix" result="shape"/>
<feGaussianBlur stdDeviation="15.2727" result="effect1_foregroundBlur_6_3583"/>
</filter>
<filter id="filter36_f_6_3583" x="-25.5159" y="-25.5411" width="198.291" height="201.091" filterUnits="userSpaceOnUse" color-interpolation-filters="sRGB">
<feFlood flood-opacity="0" result="BackgroundImageFix"/>
<feBlend mode="normal" in="SourceGraphic" in2="BackgroundImageFix" result="shape"/>
<feGaussianBlur stdDeviation="15.2727" result="effect1_foregroundBlur_6_3583"/>
</filter>
<filter id="filter37_f_6_3583" x="-25.5159" y="-25.5411" width="198.291" height="201.091" filterUnits="userSpaceOnUse" color-interpolation-filters="sRGB">
<feFlood flood-opacity="0" result="BackgroundImageFix"/>
<feBlend mode="normal" in="SourceGraphic" in2="BackgroundImageFix" result="shape"/>
<feGaussianBlur stdDeviation="15.2727" result="effect1_foregroundBlur_6_3583"/>
</filter>
<filter id="filter38_f_6_3583" x="-25.5159" y="-25.5411" width="198.291" height="201.091" filterUnits="userSpaceOnUse" color-interpolation-filters="sRGB">
<feFlood flood-opacity="0" result="BackgroundImageFix"/>
<feBlend mode="normal" in="SourceGraphic" in2="BackgroundImageFix" result="shape"/>
<feGaussianBlur stdDeviation="15.2727" result="effect1_foregroundBlur_6_3583"/>
</filter>
<filter id="filter39_f_6_3583" x="-25.5159" y="-25.5411" width="198.291" height="201.091" filterUnits="userSpaceOnUse" color-interpolation-filters="sRGB">
<feFlood flood-opacity="0" result="BackgroundImageFix"/>
<feBlend mode="normal" in="SourceGraphic" in2="BackgroundImageFix" result="shape"/>
<feGaussianBlur stdDeviation="15.2727" result="effect1_foregroundBlur_6_3583"/>
</filter>
<filter id="filter40_f_6_3583" x="-25.5159" y="-25.5411" width="198.291" height="201.091" filterUnits="userSpaceOnUse" color-interpolation-filters="sRGB">
<feFlood flood-opacity="0" result="BackgroundImageFix"/>
<feBlend mode="normal" in="SourceGraphic" in2="BackgroundImageFix" result="shape"/>
<feGaussianBlur stdDeviation="15.2727" result="effect1_foregroundBlur_6_3583"/>
</filter>
<filter id="filter41_f_6_3583" x="-25.5159" y="-25.5411" width="198.291" height="201.091" filterUnits="userSpaceOnUse" color-interpolation-filters="sRGB">
<feFlood flood-opacity="0" result="BackgroundImageFix"/>
<feBlend mode="normal" in="SourceGraphic" in2="BackgroundImageFix" result="shape"/>
<feGaussianBlur stdDeviation="15.2727" result="effect1_foregroundBlur_6_3583"/>
</filter>
<filter id="filter42_f_6_3583" x="-25.5159" y="-25.5411" width="198.291" height="201.091" filterUnits="userSpaceOnUse" color-interpolation-filters="sRGB">
<feFlood flood-opacity="0" result="BackgroundImageFix"/>
<feBlend mode="normal" in="SourceGraphic" in2="BackgroundImageFix" result="shape"/>
<feGaussianBlur stdDeviation="15.2727" result="effect1_foregroundBlur_6_3583"/>
</filter>
<filter id="filter43_f_6_3583" x="-25.5159" y="-25.5411" width="198.291" height="201.091" filterUnits="userSpaceOnUse" color-interpolation-filters="sRGB">
<feFlood flood-opacity="0" result="BackgroundImageFix"/>
<feBlend mode="normal" in="SourceGraphic" in2="BackgroundImageFix" result="shape"/>
<feGaussianBlur stdDeviation="15.2727" result="effect1_foregroundBlur_6_3583"/>
</filter>
</defs>
</svg>
