<svg width="150" height="150" viewBox="0 0 150 150" fill="none" xmlns="http://www.w3.org/2000/svg">
<mask id="mask0_6_3603" style="mask-type:alpha" maskUnits="userSpaceOnUse" x="5" y="24" width="140" height="103">
<path d="M126.85 24H44.0696C40.6169 24.0048 37.307 25.3785 34.8656 27.8199C32.4242 30.2613 31.0505 33.5712 31.0457 37.0239V50.0478H131.976C135.429 50.0526 138.739 51.4262 141.18 53.8676C143.622 56.309 144.995 59.6189 145 63.0716V42.132C145.002 39.7487 144.534 37.3883 143.623 35.1862C142.711 32.984 141.374 30.9835 139.688 29.299C138.002 27.6146 136 26.2795 133.797 25.3702C131.594 24.4609 129.233 23.9953 126.85 24Z" fill="#4285F4"/>
<path d="M23.1351 24C18.331 24 13.7237 25.9084 10.3267 29.3054C6.92965 32.7024 5.02123 37.3098 5.02123 42.1139V87.0543C5.02602 90.507 6.39971 93.8169 8.84112 96.2583C11.2825 98.6997 14.5924 100.073 18.0451 100.078H31.069V37.0239C31.0737 33.5712 32.4474 30.2613 34.8888 27.8199C37.3303 25.3785 40.6401 24.0048 44.0928 24H23.1351Z" fill="#34A853"/>
<path d="M23.132 126.126H105.912C109.365 126.121 112.675 124.748 115.116 122.306C117.558 119.865 118.931 116.555 118.936 113.102V100.078H18.0239C14.5712 100.074 11.2613 98.6998 8.81989 96.2584C6.37848 93.817 5.00479 90.5071 5 87.0544V108.121C5.02873 112.909 6.95231 117.491 10.3501 120.865C13.7479 124.24 18.3435 126.131 23.132 126.126Z" fill="#FBBC04"/>
<path d="M126.872 126.126C131.676 126.126 136.283 124.217 139.68 120.82C143.077 117.423 144.986 112.816 144.986 108.012V63.0895C144.981 59.6368 143.607 56.3269 141.166 53.8855C138.724 51.4441 135.414 50.0704 131.962 50.0656H118.938V113.138C118.933 116.591 117.559 119.901 115.118 122.342C112.677 124.783 109.367 126.157 105.914 126.162L126.872 126.126Z" fill="#EA4335"/>
</mask>
<g mask="url(#mask0_6_3603)">
<g filter="url(#filter0_f_6_3603)">
<path d="M126.85 24H44.0695C40.6168 24.0048 37.307 25.3785 34.8656 27.8199C32.4241 30.2613 31.0504 33.5712 31.0457 37.0239V50.0478H131.976C135.429 50.0526 138.739 51.4262 141.18 53.8676C143.621 56.309 144.995 59.6189 145 63.0716V42.132C145.002 39.7487 144.534 37.3883 143.623 35.1862C142.711 32.984 141.374 30.9835 139.688 29.299C138.002 27.6146 136 26.2795 133.797 25.3702C131.594 24.4609 129.233 23.9953 126.85 24Z" fill="#4285F4"/>
<path d="M23.135 24C18.3309 24 13.7236 25.9084 10.3266 29.3054C6.92957 32.7024 5.02115 37.3098 5.02115 42.1139V87.0543C5.02594 90.507 6.39964 93.8169 8.84104 96.2583C11.2825 98.6997 14.5923 100.073 18.045 100.078H31.0689V37.0239C31.0737 33.5712 32.4474 30.2613 34.8888 27.8199C37.3302 25.3785 40.6401 24.0048 44.0927 24H23.135Z" fill="#34A853"/>
<path d="M23.1319 126.126H105.912C109.365 126.121 112.675 124.748 115.116 122.306C117.558 119.865 118.931 116.555 118.936 113.102V100.078H18.0238C14.5711 100.074 11.2612 98.6998 8.81983 96.2584C6.37842 93.817 5.00473 90.5071 4.99994 87.0544V108.121C5.02867 112.909 6.95224 117.491 10.3501 120.865C13.7479 124.24 18.3435 126.131 23.1319 126.126Z" fill="#FBBC04"/>
<path d="M126.872 126.126C131.676 126.126 136.283 124.217 139.68 120.82C143.077 117.423 144.985 112.816 144.985 108.012V63.0895C144.981 59.6369 143.607 56.327 141.166 53.8856C138.724 51.4442 135.414 50.0705 131.962 50.0657H118.938V113.138C118.933 116.591 117.559 119.901 115.118 122.342C112.676 124.783 109.367 126.157 105.914 126.162L126.872 126.126Z" fill="#EA4335"/>
</g>
<g filter="url(#filter1_f_6_3603)">
<path d="M126.85 24H44.0695C40.6168 24.0048 37.307 25.3785 34.8656 27.8199C32.4241 30.2613 31.0504 33.5712 31.0457 37.0239V50.0478H131.976C135.429 50.0526 138.739 51.4262 141.18 53.8676C143.621 56.309 144.995 59.6189 145 63.0716V42.132C145.002 39.7487 144.534 37.3883 143.623 35.1862C142.711 32.984 141.374 30.9835 139.688 29.299C138.002 27.6146 136 26.2795 133.797 25.3702C131.594 24.4609 129.233 23.9953 126.85 24Z" fill="#4285F4"/>
<path d="M23.135 24C18.3309 24 13.7236 25.9084 10.3266 29.3054C6.92957 32.7024 5.02115 37.3098 5.02115 42.1139V87.0543C5.02594 90.507 6.39964 93.8169 8.84104 96.2583C11.2825 98.6997 14.5923 100.073 18.045 100.078H31.0689V37.0239C31.0737 33.5712 32.4474 30.2613 34.8888 27.8199C37.3302 25.3785 40.6401 24.0048 44.0927 24H23.135Z" fill="#34A853"/>
<path d="M23.1319 126.126H105.912C109.365 126.121 112.675 124.748 115.116 122.306C117.558 119.865 118.931 116.555 118.936 113.102V100.078H18.0238C14.5711 100.074 11.2612 98.6998 8.81983 96.2584C6.37842 93.817 5.00473 90.5071 4.99994 87.0544V108.121C5.02867 112.909 6.95224 117.491 10.3501 120.865C13.7479 124.24 18.3435 126.131 23.1319 126.126Z" fill="#FBBC04"/>
<path d="M126.872 126.126C131.676 126.126 136.283 124.217 139.68 120.82C143.077 117.423 144.985 112.816 144.985 108.012V63.0895C144.981 59.6369 143.607 56.327 141.166 53.8856C138.724 51.4442 135.414 50.0705 131.962 50.0657H118.938V113.138C118.933 116.591 117.559 119.901 115.118 122.342C112.676 124.783 109.367 126.157 105.914 126.162L126.872 126.126Z" fill="#EA4335"/>
</g>
<g filter="url(#filter2_f_6_3603)">
<path d="M126.85 24H44.0695C40.6168 24.0048 37.307 25.3785 34.8656 27.8199C32.4241 30.2613 31.0504 33.5712 31.0457 37.0239V50.0478H131.976C135.429 50.0526 138.739 51.4262 141.18 53.8676C143.621 56.309 144.995 59.6189 145 63.0716V42.132C145.002 39.7487 144.534 37.3883 143.623 35.1862C142.711 32.984 141.374 30.9835 139.688 29.299C138.002 27.6146 136 26.2795 133.797 25.3702C131.594 24.4609 129.233 23.9953 126.85 24Z" fill="#4285F4"/>
<path d="M23.135 24C18.3309 24 13.7236 25.9084 10.3266 29.3054C6.92957 32.7024 5.02115 37.3098 5.02115 42.1139V87.0543C5.02594 90.507 6.39964 93.8169 8.84104 96.2583C11.2825 98.6997 14.5923 100.073 18.045 100.078H31.0689V37.0239C31.0737 33.5712 32.4474 30.2613 34.8888 27.8199C37.3302 25.3785 40.6401 24.0048 44.0927 24H23.135Z" fill="#34A853"/>
<path d="M23.1319 126.126H105.912C109.365 126.121 112.675 124.748 115.116 122.306C117.558 119.865 118.931 116.555 118.936 113.102V100.078H18.0238C14.5711 100.074 11.2612 98.6998 8.81983 96.2584C6.37842 93.817 5.00473 90.5071 4.99994 87.0544V108.121C5.02867 112.909 6.95224 117.491 10.3501 120.865C13.7479 124.24 18.3435 126.131 23.1319 126.126Z" fill="#FBBC04"/>
<path d="M126.872 126.126C131.676 126.126 136.283 124.217 139.68 120.82C143.077 117.423 144.985 112.816 144.985 108.012V63.0895C144.981 59.6369 143.607 56.327 141.166 53.8856C138.724 51.4442 135.414 50.0705 131.962 50.0657H118.938V113.138C118.933 116.591 117.559 119.901 115.118 122.342C112.676 124.783 109.367 126.157 105.914 126.162L126.872 126.126Z" fill="#EA4335"/>
</g>
<g filter="url(#filter3_f_6_3603)">
<path d="M126.85 24H44.0695C40.6168 24.0048 37.307 25.3785 34.8656 27.8199C32.4241 30.2613 31.0504 33.5712 31.0457 37.0239V50.0478H131.976C135.429 50.0526 138.739 51.4262 141.18 53.8676C143.621 56.309 144.995 59.6189 145 63.0716V42.132C145.002 39.7487 144.534 37.3883 143.623 35.1862C142.711 32.984 141.374 30.9835 139.688 29.299C138.002 27.6146 136 26.2795 133.797 25.3702C131.594 24.4609 129.233 23.9953 126.85 24Z" fill="#4285F4"/>
<path d="M23.135 24C18.3309 24 13.7236 25.9084 10.3266 29.3054C6.92957 32.7024 5.02115 37.3098 5.02115 42.1139V87.0543C5.02594 90.507 6.39964 93.8169 8.84104 96.2583C11.2825 98.6997 14.5923 100.073 18.045 100.078H31.0689V37.0239C31.0737 33.5712 32.4474 30.2613 34.8888 27.8199C37.3302 25.3785 40.6401 24.0048 44.0927 24H23.135Z" fill="#34A853"/>
<path d="M23.1319 126.126H105.912C109.365 126.121 112.675 124.748 115.116 122.306C117.558 119.865 118.931 116.555 118.936 113.102V100.078H18.0238C14.5711 100.074 11.2612 98.6998 8.81983 96.2584C6.37842 93.817 5.00473 90.5071 4.99994 87.0544V108.121C5.02867 112.909 6.95224 117.491 10.3501 120.865C13.7479 124.24 18.3435 126.131 23.1319 126.126Z" fill="#FBBC04"/>
<path d="M126.872 126.126C131.676 126.126 136.283 124.217 139.68 120.82C143.077 117.423 144.985 112.816 144.985 108.012V63.0895C144.981 59.6369 143.607 56.327 141.166 53.8856C138.724 51.4442 135.414 50.0705 131.962 50.0657H118.938V113.138C118.933 116.591 117.559 119.901 115.118 122.342C112.676 124.783 109.367 126.157 105.914 126.162L126.872 126.126Z" fill="#EA4335"/>
</g>
<g filter="url(#filter4_f_6_3603)">
<path d="M126.85 24H44.0695C40.6168 24.0048 37.307 25.3785 34.8656 27.8199C32.4241 30.2613 31.0504 33.5712 31.0457 37.0239V50.0478H131.976C135.429 50.0526 138.739 51.4262 141.18 53.8676C143.621 56.309 144.995 59.6189 145 63.0716V42.132C145.002 39.7487 144.534 37.3883 143.623 35.1862C142.711 32.984 141.374 30.9835 139.688 29.299C138.002 27.6146 136 26.2795 133.797 25.3702C131.594 24.4609 129.233 23.9953 126.85 24Z" fill="#4285F4"/>
<path d="M23.135 24C18.3309 24 13.7236 25.9084 10.3266 29.3054C6.92957 32.7024 5.02115 37.3098 5.02115 42.1139V87.0543C5.02594 90.507 6.39964 93.8169 8.84104 96.2583C11.2825 98.6997 14.5923 100.073 18.045 100.078H31.0689V37.0239C31.0737 33.5712 32.4474 30.2613 34.8888 27.8199C37.3302 25.3785 40.6401 24.0048 44.0927 24H23.135Z" fill="#34A853"/>
<path d="M23.1319 126.126H105.912C109.365 126.121 112.675 124.748 115.116 122.306C117.558 119.865 118.931 116.555 118.936 113.102V100.078H18.0238C14.5711 100.074 11.2612 98.6998 8.81983 96.2584C6.37842 93.817 5.00473 90.5071 4.99994 87.0544V108.121C5.02867 112.909 6.95224 117.491 10.3501 120.865C13.7479 124.24 18.3435 126.131 23.1319 126.126Z" fill="#FBBC04"/>
<path d="M126.872 126.126C131.676 126.126 136.283 124.217 139.68 120.82C143.077 117.423 144.985 112.816 144.985 108.012V63.0895C144.981 59.6369 143.607 56.327 141.166 53.8856C138.724 51.4442 135.414 50.0705 131.962 50.0657H118.938V113.138C118.933 116.591 117.559 119.901 115.118 122.342C112.676 124.783 109.367 126.157 105.914 126.162L126.872 126.126Z" fill="#EA4335"/>
</g>
<g filter="url(#filter5_f_6_3603)">
<path d="M126.85 24H44.0695C40.6168 24.0048 37.307 25.3785 34.8656 27.8199C32.4241 30.2613 31.0504 33.5712 31.0457 37.0239V50.0478H131.976C135.429 50.0526 138.739 51.4262 141.18 53.8676C143.621 56.309 144.995 59.6189 145 63.0716V42.132C145.002 39.7487 144.534 37.3883 143.623 35.1862C142.711 32.984 141.374 30.9835 139.688 29.299C138.002 27.6146 136 26.2795 133.797 25.3702C131.594 24.4609 129.233 23.9953 126.85 24Z" fill="#4285F4"/>
<path d="M23.135 24C18.3309 24 13.7236 25.9084 10.3266 29.3054C6.92957 32.7024 5.02115 37.3098 5.02115 42.1139V87.0543C5.02594 90.507 6.39964 93.8169 8.84104 96.2583C11.2825 98.6997 14.5923 100.073 18.045 100.078H31.0689V37.0239C31.0737 33.5712 32.4474 30.2613 34.8888 27.8199C37.3302 25.3785 40.6401 24.0048 44.0927 24H23.135Z" fill="#34A853"/>
<path d="M23.1319 126.126H105.912C109.365 126.121 112.675 124.748 115.116 122.306C117.558 119.865 118.931 116.555 118.936 113.102V100.078H18.0238C14.5711 100.074 11.2612 98.6998 8.81983 96.2584C6.37842 93.817 5.00473 90.5071 4.99994 87.0544V108.121C5.02867 112.909 6.95224 117.491 10.3501 120.865C13.7479 124.24 18.3435 126.131 23.1319 126.126Z" fill="#FBBC04"/>
<path d="M126.872 126.126C131.676 126.126 136.283 124.217 139.68 120.82C143.077 117.423 144.985 112.816 144.985 108.012V63.0895C144.981 59.6369 143.607 56.327 141.166 53.8856C138.724 51.4442 135.414 50.0705 131.962 50.0657H118.938V113.138C118.933 116.591 117.559 119.901 115.118 122.342C112.676 124.783 109.367 126.157 105.914 126.162L126.872 126.126Z" fill="#EA4335"/>
</g>
</g>
<defs>
<filter id="filter0_f_6_3603" x="-19.0001" y="0" width="188" height="150.162" filterUnits="userSpaceOnUse" color-interpolation-filters="sRGB">
<feFlood flood-opacity="0" result="BackgroundImageFix"/>
<feBlend mode="normal" in="SourceGraphic" in2="BackgroundImageFix" result="shape"/>
<feGaussianBlur stdDeviation="12" result="effect1_foregroundBlur_6_3603"/>
</filter>
<filter id="filter1_f_6_3603" x="-19.0001" y="0" width="188" height="150.162" filterUnits="userSpaceOnUse" color-interpolation-filters="sRGB">
<feFlood flood-opacity="0" result="BackgroundImageFix"/>
<feBlend mode="normal" in="SourceGraphic" in2="BackgroundImageFix" result="shape"/>
<feGaussianBlur stdDeviation="12" result="effect1_foregroundBlur_6_3603"/>
</filter>
<filter id="filter2_f_6_3603" x="-19.0001" y="0" width="188" height="150.162" filterUnits="userSpaceOnUse" color-interpolation-filters="sRGB">
<feFlood flood-opacity="0" result="BackgroundImageFix"/>
<feBlend mode="normal" in="SourceGraphic" in2="BackgroundImageFix" result="shape"/>
<feGaussianBlur stdDeviation="12" result="effect1_foregroundBlur_6_3603"/>
</filter>
<filter id="filter3_f_6_3603" x="-19.0001" y="0" width="188" height="150.162" filterUnits="userSpaceOnUse" color-interpolation-filters="sRGB">
<feFlood flood-opacity="0" result="BackgroundImageFix"/>
<feBlend mode="normal" in="SourceGraphic" in2="BackgroundImageFix" result="shape"/>
<feGaussianBlur stdDeviation="12" result="effect1_foregroundBlur_6_3603"/>
</filter>
<filter id="filter4_f_6_3603" x="-19.0001" y="0" width="188" height="150.162" filterUnits="userSpaceOnUse" color-interpolation-filters="sRGB">
<feFlood flood-opacity="0" result="BackgroundImageFix"/>
<feBlend mode="normal" in="SourceGraphic" in2="BackgroundImageFix" result="shape"/>
<feGaussianBlur stdDeviation="12" result="effect1_foregroundBlur_6_3603"/>
</filter>
<filter id="filter5_f_6_3603" x="-19.0001" y="0" width="188" height="150.162" filterUnits="userSpaceOnUse" color-interpolation-filters="sRGB">
<feFlood flood-opacity="0" result="BackgroundImageFix"/>
<feBlend mode="normal" in="SourceGraphic" in2="BackgroundImageFix" result="shape"/>
<feGaussianBlur stdDeviation="12" result="effect1_foregroundBlur_6_3603"/>
</filter>
</defs>
</svg>
