<svg width="150" height="150" viewBox="0 0 150 150" fill="none" xmlns="http://www.w3.org/2000/svg">
<mask id="mask0_6_3605" style="mask-type:alpha" maskUnits="userSpaceOnUse" x="40" y="5" width="70" height="140">
<path d="M109.511 114.759V129.442C109.511 138.032 102.567 145 94.0008 145C85.4343 145 78.4904 138.04 78.4904 129.442V90.9998L109.511 114.759Z" fill="#34A853"/>
<path d="M109.511 20.5583V114.759L78.4904 90.9998V53.5359L103.872 32.553C107.594 29.4827 109.511 25.0364 109.511 20.5583Z" fill="url(#paint0_linear_6_3605)"/>
<path d="M109.503 20.0173C109.511 20.1923 109.511 20.3673 109.511 20.5503C109.511 25.0284 107.594 29.4747 103.872 32.545L78.4904 53.5279V20.5582C78.4904 15.4676 80.9323 10.9338 84.7264 8.09414C84.9968 7.88734 85.2672 7.69644 85.5615 7.51349C85.6968 7.426 85.824 7.3385 85.9593 7.25896C86.2058 7.09988 86.4683 6.95671 86.7069 6.82944L87.391 6.48742L87.9637 6.22493C88.1944 6.12948 88.425 6.03403 88.6716 5.94654C88.9023 5.85904 89.1488 5.7795 89.3875 5.69996C89.8329 5.56474 90.2863 5.43748 90.7556 5.34203C90.8908 5.31021 91.034 5.28635 91.1851 5.25453C91.2885 5.23862 91.3919 5.22271 91.4953 5.20681C91.6782 5.17499 91.8612 5.15113 92.0441 5.12727C92.2589 5.09545 92.4737 5.07159 92.6964 5.05568C92.8714 5.03977 93.0463 5.02386 93.2213 5.01591C93.4759 5.00795 93.7384 5 94.0008 5H94.0088C94.5735 5 95.1224 5.03182 95.6792 5.0875C95.9496 5.11931 96.228 5.15908 96.5143 5.20681C96.7848 5.24658 97.0552 5.30226 97.3416 5.36589C97.612 5.42157 97.8824 5.49315 98.1529 5.57269C98.3756 5.62837 98.6063 5.69996 98.829 5.7795C99.2664 5.92267 99.7039 6.08176 100.118 6.2647C100.324 6.3522 100.531 6.44764 100.738 6.54309C101 6.67036 101.263 6.80558 101.517 6.9408C101.899 7.15556 102.265 7.37827 102.631 7.62485C102.671 7.65667 102.711 7.68053 102.75 7.70439C103.14 7.97483 103.514 8.26913 103.888 8.57139C104.071 8.73047 104.254 8.8816 104.437 9.04863L104.453 9.06454C104.628 9.23158 104.803 9.39861 104.977 9.5736C105.152 9.74859 105.327 9.93154 105.495 10.1065C105.837 10.4724 106.147 10.8622 106.441 11.2599C106.648 11.5303 106.839 11.8167 107.022 12.0951C107.109 12.2303 107.197 12.3575 107.276 12.4928C107.435 12.7393 107.578 13.0018 107.706 13.2404C107.801 13.4313 107.952 13.7415 108.048 13.9245C108.135 14.1154 108.223 14.3063 108.302 14.4972C108.398 14.7279 108.493 14.9665 108.581 15.2051C108.668 15.4358 108.748 15.6823 108.819 15.921C108.923 16.263 109.01 16.605 109.09 16.9391C109.137 17.0982 109.169 17.2493 109.193 17.4084C109.241 17.6311 109.281 17.8459 109.32 18.0606C109.352 18.2356 109.368 18.4106 109.392 18.5856C109.424 18.8004 109.448 19.0151 109.464 19.2378C109.48 19.4128 109.495 19.5878 109.503 19.7628C109.495 19.8423 109.503 19.9298 109.503 20.0173Z" fill="#EA4335"/>
<path d="M84.1216 8.54744C84.3125 8.38836 84.5113 8.23723 84.7102 8.09406C80.932 10.9337 78.4904 15.4596 78.4904 20.5582V53.5359L65.3181 64.4409C62.4387 66.835 58.9548 67.9884 55.4789 67.9884C51.0166 67.9884 46.5862 66.0635 43.5318 62.333C38.0992 55.6993 39.0378 45.8999 45.6317 40.4434L84.1216 8.54744Z" fill="#FBBC04"/>
</mask>
<g mask="url(#mask0_6_3605)">
<g filter="url(#filter0_f_6_3605)">
<path d="M109.509 114.759V129.442C109.509 138.032 102.566 145 93.999 145C85.4324 145 78.4885 138.04 78.4885 129.442V90.9998L109.509 114.759Z" fill="#34A853"/>
<path d="M109.509 20.5583V114.759L78.4885 90.9998V53.536L103.87 32.5531C107.593 29.4828 109.509 25.0365 109.509 20.5583Z" fill="url(#paint1_linear_6_3605)"/>
<path d="M109.502 20.0173C109.509 20.1923 109.509 20.3673 109.509 20.5503C109.509 25.0284 107.593 29.4747 103.87 32.545L78.4885 53.5279V20.5582C78.4885 15.4676 80.9304 10.9338 84.7245 8.09414C84.995 7.88734 85.2654 7.69644 85.5597 7.51349C85.6949 7.426 85.8222 7.3385 85.9574 7.25896C86.204 7.09988 86.4665 6.95671 86.7051 6.82944L87.3892 6.48742L87.9619 6.22493C88.1925 6.12948 88.4232 6.03403 88.6698 5.94654C88.9004 5.85904 89.147 5.7795 89.3856 5.69996C89.8311 5.56474 90.2844 5.43748 90.7537 5.34203C90.889 5.31021 91.0321 5.28635 91.1833 5.25453C91.2867 5.23862 91.3901 5.22271 91.4935 5.20681C91.6764 5.17499 91.8594 5.15113 92.0423 5.12727C92.2571 5.09545 92.4718 5.07159 92.6945 5.05568C92.8695 5.03977 93.0445 5.02386 93.2195 5.01591C93.474 5.00795 93.7365 5 93.999 5H94.007C94.5717 5 95.1205 5.03182 95.6773 5.0875C95.9478 5.11931 96.2262 5.15908 96.5125 5.20681C96.7829 5.24658 97.0534 5.30226 97.3397 5.36589C97.6102 5.42157 97.8806 5.49315 98.151 5.57269C98.3738 5.62837 98.6044 5.69996 98.8271 5.7795C99.2646 5.92267 99.7021 6.08176 100.116 6.2647C100.323 6.3522 100.529 6.44764 100.736 6.54309C100.999 6.67036 101.261 6.80558 101.516 6.9408C101.897 7.15556 102.263 7.37827 102.629 7.62485C102.669 7.65667 102.709 7.68053 102.749 7.70439C103.138 7.97483 103.512 8.26913 103.886 8.57139C104.069 8.73047 104.252 8.8816 104.435 9.04863L104.451 9.06454C104.626 9.23158 104.801 9.39861 104.976 9.5736C105.151 9.74859 105.326 9.93154 105.493 10.1065C105.835 10.4724 106.145 10.8622 106.439 11.2599C106.646 11.5303 106.837 11.8167 107.02 12.0951C107.107 12.2303 107.195 12.3575 107.274 12.4928C107.433 12.7393 107.577 13.0018 107.704 13.2404C107.799 13.4313 107.95 13.7415 108.046 13.9245C108.133 14.1154 108.221 14.3063 108.3 14.4972C108.396 14.7279 108.491 14.9665 108.579 15.2051C108.666 15.4358 108.746 15.6823 108.817 15.921C108.921 16.263 109.008 16.605 109.088 16.9391C109.136 17.0982 109.167 17.2493 109.191 17.4084C109.239 17.6311 109.279 17.8459 109.319 18.0606C109.35 18.2356 109.366 18.4106 109.39 18.5856C109.422 18.8004 109.446 19.0151 109.462 19.2378C109.478 19.4128 109.494 19.5878 109.502 19.7628C109.494 19.8423 109.502 19.9298 109.502 20.0173Z" fill="#EA4335"/>
<path d="M84.1197 8.54738C84.3106 8.3883 84.5095 8.23717 84.7083 8.09399C80.9301 10.9336 78.4882 15.4595 78.4882 20.5581V53.5357L65.3163 64.4408C62.4369 66.835 58.953 67.9883 55.477 67.9883C51.0148 67.9883 46.5844 66.0634 43.53 62.333C38.0973 55.6992 39.0359 45.8998 45.6299 40.4433L84.1197 8.54738Z" fill="#FBBC04"/>
</g>
<g filter="url(#filter1_f_6_3605)">
<path d="M109.509 114.759V129.442C109.509 138.032 102.566 145 93.999 145C85.4324 145 78.4885 138.04 78.4885 129.442V90.9998L109.509 114.759Z" fill="#34A853"/>
<path d="M109.509 20.5583V114.759L78.4885 90.9998V53.536L103.87 32.5531C107.593 29.4828 109.509 25.0365 109.509 20.5583Z" fill="url(#paint2_linear_6_3605)"/>
<path d="M109.502 20.0173C109.509 20.1923 109.509 20.3673 109.509 20.5503C109.509 25.0284 107.593 29.4747 103.87 32.545L78.4885 53.5279V20.5582C78.4885 15.4676 80.9304 10.9338 84.7245 8.09414C84.995 7.88734 85.2654 7.69644 85.5597 7.51349C85.6949 7.426 85.8222 7.3385 85.9574 7.25896C86.204 7.09988 86.4665 6.95671 86.7051 6.82944L87.3892 6.48742L87.9619 6.22493C88.1925 6.12948 88.4232 6.03403 88.6698 5.94654C88.9004 5.85904 89.147 5.7795 89.3856 5.69996C89.8311 5.56474 90.2844 5.43748 90.7537 5.34203C90.889 5.31021 91.0321 5.28635 91.1833 5.25453C91.2867 5.23862 91.3901 5.22271 91.4935 5.20681C91.6764 5.17499 91.8594 5.15113 92.0423 5.12727C92.2571 5.09545 92.4718 5.07159 92.6945 5.05568C92.8695 5.03977 93.0445 5.02386 93.2195 5.01591C93.474 5.00795 93.7365 5 93.999 5H94.007C94.5717 5 95.1205 5.03182 95.6773 5.0875C95.9478 5.11931 96.2262 5.15908 96.5125 5.20681C96.7829 5.24658 97.0534 5.30226 97.3397 5.36589C97.6102 5.42157 97.8806 5.49315 98.151 5.57269C98.3738 5.62837 98.6044 5.69996 98.8271 5.7795C99.2646 5.92267 99.7021 6.08176 100.116 6.2647C100.323 6.3522 100.529 6.44764 100.736 6.54309C100.999 6.67036 101.261 6.80558 101.516 6.9408C101.897 7.15556 102.263 7.37827 102.629 7.62485C102.669 7.65667 102.709 7.68053 102.749 7.70439C103.138 7.97483 103.512 8.26913 103.886 8.57139C104.069 8.73047 104.252 8.8816 104.435 9.04863L104.451 9.06454C104.626 9.23158 104.801 9.39861 104.976 9.5736C105.151 9.74859 105.326 9.93154 105.493 10.1065C105.835 10.4724 106.145 10.8622 106.439 11.2599C106.646 11.5303 106.837 11.8167 107.02 12.0951C107.107 12.2303 107.195 12.3575 107.274 12.4928C107.433 12.7393 107.577 13.0018 107.704 13.2404C107.799 13.4313 107.95 13.7415 108.046 13.9245C108.133 14.1154 108.221 14.3063 108.3 14.4972C108.396 14.7279 108.491 14.9665 108.579 15.2051C108.666 15.4358 108.746 15.6823 108.817 15.921C108.921 16.263 109.008 16.605 109.088 16.9391C109.136 17.0982 109.167 17.2493 109.191 17.4084C109.239 17.6311 109.279 17.8459 109.319 18.0606C109.35 18.2356 109.366 18.4106 109.39 18.5856C109.422 18.8004 109.446 19.0151 109.462 19.2378C109.478 19.4128 109.494 19.5878 109.502 19.7628C109.494 19.8423 109.502 19.9298 109.502 20.0173Z" fill="#EA4335"/>
<path d="M84.1197 8.54738C84.3106 8.3883 84.5095 8.23717 84.7083 8.09399C80.9301 10.9336 78.4882 15.4595 78.4882 20.5581V53.5357L65.3163 64.4408C62.4369 66.835 58.953 67.9883 55.477 67.9883C51.0148 67.9883 46.5844 66.0634 43.53 62.333C38.0973 55.6992 39.0359 45.8998 45.6299 40.4433L84.1197 8.54738Z" fill="#FBBC04"/>
</g>
<g filter="url(#filter2_f_6_3605)">
<path d="M109.509 114.759V129.442C109.509 138.032 102.566 145 93.999 145C85.4324 145 78.4885 138.04 78.4885 129.442V90.9998L109.509 114.759Z" fill="#34A853"/>
<path d="M109.509 20.5583V114.759L78.4885 90.9998V53.536L103.87 32.5531C107.593 29.4828 109.509 25.0365 109.509 20.5583Z" fill="url(#paint3_linear_6_3605)"/>
<path d="M109.502 20.0173C109.509 20.1923 109.509 20.3673 109.509 20.5503C109.509 25.0284 107.593 29.4747 103.87 32.545L78.4885 53.5279V20.5582C78.4885 15.4676 80.9304 10.9338 84.7245 8.09414C84.995 7.88734 85.2654 7.69644 85.5597 7.51349C85.6949 7.426 85.8222 7.3385 85.9574 7.25896C86.204 7.09988 86.4665 6.95671 86.7051 6.82944L87.3892 6.48742L87.9619 6.22493C88.1925 6.12948 88.4232 6.03403 88.6698 5.94654C88.9004 5.85904 89.147 5.7795 89.3856 5.69996C89.8311 5.56474 90.2844 5.43748 90.7537 5.34203C90.889 5.31021 91.0321 5.28635 91.1833 5.25453C91.2867 5.23862 91.3901 5.22271 91.4935 5.20681C91.6764 5.17499 91.8594 5.15113 92.0423 5.12727C92.2571 5.09545 92.4718 5.07159 92.6945 5.05568C92.8695 5.03977 93.0445 5.02386 93.2195 5.01591C93.474 5.00795 93.7365 5 93.999 5H94.007C94.5717 5 95.1205 5.03182 95.6773 5.0875C95.9478 5.11931 96.2262 5.15908 96.5125 5.20681C96.7829 5.24658 97.0534 5.30226 97.3397 5.36589C97.6102 5.42157 97.8806 5.49315 98.151 5.57269C98.3738 5.62837 98.6044 5.69996 98.8271 5.7795C99.2646 5.92267 99.7021 6.08176 100.116 6.2647C100.323 6.3522 100.529 6.44764 100.736 6.54309C100.999 6.67036 101.261 6.80558 101.516 6.9408C101.897 7.15556 102.263 7.37827 102.629 7.62485C102.669 7.65667 102.709 7.68053 102.749 7.70439C103.138 7.97483 103.512 8.26913 103.886 8.57139C104.069 8.73047 104.252 8.8816 104.435 9.04863L104.451 9.06454C104.626 9.23158 104.801 9.39861 104.976 9.5736C105.151 9.74859 105.326 9.93154 105.493 10.1065C105.835 10.4724 106.145 10.8622 106.439 11.2599C106.646 11.5303 106.837 11.8167 107.02 12.0951C107.107 12.2303 107.195 12.3575 107.274 12.4928C107.433 12.7393 107.577 13.0018 107.704 13.2404C107.799 13.4313 107.95 13.7415 108.046 13.9245C108.133 14.1154 108.221 14.3063 108.3 14.4972C108.396 14.7279 108.491 14.9665 108.579 15.2051C108.666 15.4358 108.746 15.6823 108.817 15.921C108.921 16.263 109.008 16.605 109.088 16.9391C109.136 17.0982 109.167 17.2493 109.191 17.4084C109.239 17.6311 109.279 17.8459 109.319 18.0606C109.35 18.2356 109.366 18.4106 109.39 18.5856C109.422 18.8004 109.446 19.0151 109.462 19.2378C109.478 19.4128 109.494 19.5878 109.502 19.7628C109.494 19.8423 109.502 19.9298 109.502 20.0173Z" fill="#EA4335"/>
<path d="M84.1197 8.54738C84.3106 8.3883 84.5095 8.23717 84.7083 8.09399C80.9301 10.9336 78.4882 15.4595 78.4882 20.5581V53.5357L65.3163 64.4408C62.4369 66.835 58.953 67.9883 55.477 67.9883C51.0148 67.9883 46.5844 66.0634 43.53 62.333C38.0973 55.6992 39.0359 45.8998 45.6299 40.4433L84.1197 8.54738Z" fill="#FBBC04"/>
</g>
<g filter="url(#filter3_f_6_3605)">
<path d="M109.509 114.759V129.442C109.509 138.032 102.566 145 93.999 145C85.4324 145 78.4885 138.04 78.4885 129.442V90.9998L109.509 114.759Z" fill="#34A853"/>
<path d="M109.509 20.5583V114.759L78.4885 90.9998V53.536L103.87 32.5531C107.593 29.4828 109.509 25.0365 109.509 20.5583Z" fill="url(#paint4_linear_6_3605)"/>
<path d="M109.502 20.0173C109.509 20.1923 109.509 20.3673 109.509 20.5503C109.509 25.0284 107.593 29.4747 103.87 32.545L78.4885 53.5279V20.5582C78.4885 15.4676 80.9304 10.9338 84.7245 8.09414C84.995 7.88734 85.2654 7.69644 85.5597 7.51349C85.6949 7.426 85.8222 7.3385 85.9574 7.25896C86.204 7.09988 86.4665 6.95671 86.7051 6.82944L87.3892 6.48742L87.9619 6.22493C88.1925 6.12948 88.4232 6.03403 88.6698 5.94654C88.9004 5.85904 89.147 5.7795 89.3856 5.69996C89.8311 5.56474 90.2844 5.43748 90.7537 5.34203C90.889 5.31021 91.0321 5.28635 91.1833 5.25453C91.2867 5.23862 91.3901 5.22271 91.4935 5.20681C91.6764 5.17499 91.8594 5.15113 92.0423 5.12727C92.2571 5.09545 92.4718 5.07159 92.6945 5.05568C92.8695 5.03977 93.0445 5.02386 93.2195 5.01591C93.474 5.00795 93.7365 5 93.999 5H94.007C94.5717 5 95.1205 5.03182 95.6773 5.0875C95.9478 5.11931 96.2262 5.15908 96.5125 5.20681C96.7829 5.24658 97.0534 5.30226 97.3397 5.36589C97.6102 5.42157 97.8806 5.49315 98.151 5.57269C98.3738 5.62837 98.6044 5.69996 98.8271 5.7795C99.2646 5.92267 99.7021 6.08176 100.116 6.2647C100.323 6.3522 100.529 6.44764 100.736 6.54309C100.999 6.67036 101.261 6.80558 101.516 6.9408C101.897 7.15556 102.263 7.37827 102.629 7.62485C102.669 7.65667 102.709 7.68053 102.749 7.70439C103.138 7.97483 103.512 8.26913 103.886 8.57139C104.069 8.73047 104.252 8.8816 104.435 9.04863L104.451 9.06454C104.626 9.23158 104.801 9.39861 104.976 9.5736C105.151 9.74859 105.326 9.93154 105.493 10.1065C105.835 10.4724 106.145 10.8622 106.439 11.2599C106.646 11.5303 106.837 11.8167 107.02 12.0951C107.107 12.2303 107.195 12.3575 107.274 12.4928C107.433 12.7393 107.577 13.0018 107.704 13.2404C107.799 13.4313 107.95 13.7415 108.046 13.9245C108.133 14.1154 108.221 14.3063 108.3 14.4972C108.396 14.7279 108.491 14.9665 108.579 15.2051C108.666 15.4358 108.746 15.6823 108.817 15.921C108.921 16.263 109.008 16.605 109.088 16.9391C109.136 17.0982 109.167 17.2493 109.191 17.4084C109.239 17.6311 109.279 17.8459 109.319 18.0606C109.35 18.2356 109.366 18.4106 109.39 18.5856C109.422 18.8004 109.446 19.0151 109.462 19.2378C109.478 19.4128 109.494 19.5878 109.502 19.7628C109.494 19.8423 109.502 19.9298 109.502 20.0173Z" fill="#EA4335"/>
<path d="M84.1197 8.54738C84.3106 8.3883 84.5095 8.23717 84.7083 8.09399C80.9301 10.9336 78.4882 15.4595 78.4882 20.5581V53.5357L65.3163 64.4408C62.4369 66.835 58.953 67.9883 55.477 67.9883C51.0148 67.9883 46.5844 66.0634 43.53 62.333C38.0973 55.6992 39.0359 45.8998 45.6299 40.4433L84.1197 8.54738Z" fill="#FBBC04"/>
</g>
<g filter="url(#filter4_f_6_3605)">
<path d="M109.509 114.759V129.442C109.509 138.032 102.566 145 93.999 145C85.4324 145 78.4885 138.04 78.4885 129.442V90.9998L109.509 114.759Z" fill="#34A853"/>
<path d="M109.509 20.5583V114.759L78.4885 90.9998V53.536L103.87 32.5531C107.593 29.4828 109.509 25.0365 109.509 20.5583Z" fill="url(#paint5_linear_6_3605)"/>
<path d="M109.502 20.0173C109.509 20.1923 109.509 20.3673 109.509 20.5503C109.509 25.0284 107.593 29.4747 103.87 32.545L78.4885 53.5279V20.5582C78.4885 15.4676 80.9304 10.9338 84.7245 8.09414C84.995 7.88734 85.2654 7.69644 85.5597 7.51349C85.6949 7.426 85.8222 7.3385 85.9574 7.25896C86.204 7.09988 86.4665 6.95671 86.7051 6.82944L87.3892 6.48742L87.9619 6.22493C88.1925 6.12948 88.4232 6.03403 88.6698 5.94654C88.9004 5.85904 89.147 5.7795 89.3856 5.69996C89.8311 5.56474 90.2844 5.43748 90.7537 5.34203C90.889 5.31021 91.0321 5.28635 91.1833 5.25453C91.2867 5.23862 91.3901 5.22271 91.4935 5.20681C91.6764 5.17499 91.8594 5.15113 92.0423 5.12727C92.2571 5.09545 92.4718 5.07159 92.6945 5.05568C92.8695 5.03977 93.0445 5.02386 93.2195 5.01591C93.474 5.00795 93.7365 5 93.999 5H94.007C94.5717 5 95.1205 5.03182 95.6773 5.0875C95.9478 5.11931 96.2262 5.15908 96.5125 5.20681C96.7829 5.24658 97.0534 5.30226 97.3397 5.36589C97.6102 5.42157 97.8806 5.49315 98.151 5.57269C98.3738 5.62837 98.6044 5.69996 98.8271 5.7795C99.2646 5.92267 99.7021 6.08176 100.116 6.2647C100.323 6.3522 100.529 6.44764 100.736 6.54309C100.999 6.67036 101.261 6.80558 101.516 6.9408C101.897 7.15556 102.263 7.37827 102.629 7.62485C102.669 7.65667 102.709 7.68053 102.749 7.70439C103.138 7.97483 103.512 8.26913 103.886 8.57139C104.069 8.73047 104.252 8.8816 104.435 9.04863L104.451 9.06454C104.626 9.23158 104.801 9.39861 104.976 9.5736C105.151 9.74859 105.326 9.93154 105.493 10.1065C105.835 10.4724 106.145 10.8622 106.439 11.2599C106.646 11.5303 106.837 11.8167 107.02 12.0951C107.107 12.2303 107.195 12.3575 107.274 12.4928C107.433 12.7393 107.577 13.0018 107.704 13.2404C107.799 13.4313 107.95 13.7415 108.046 13.9245C108.133 14.1154 108.221 14.3063 108.3 14.4972C108.396 14.7279 108.491 14.9665 108.579 15.2051C108.666 15.4358 108.746 15.6823 108.817 15.921C108.921 16.263 109.008 16.605 109.088 16.9391C109.136 17.0982 109.167 17.2493 109.191 17.4084C109.239 17.6311 109.279 17.8459 109.319 18.0606C109.35 18.2356 109.366 18.4106 109.39 18.5856C109.422 18.8004 109.446 19.0151 109.462 19.2378C109.478 19.4128 109.494 19.5878 109.502 19.7628C109.494 19.8423 109.502 19.9298 109.502 20.0173Z" fill="#EA4335"/>
<path d="M84.1197 8.54738C84.3106 8.3883 84.5095 8.23717 84.7083 8.09399C80.9301 10.9336 78.4882 15.4595 78.4882 20.5581V53.5357L65.3163 64.4408C62.4369 66.835 58.953 67.9883 55.477 67.9883C51.0148 67.9883 46.5844 66.0634 43.53 62.333C38.0973 55.6992 39.0359 45.8998 45.6299 40.4433L84.1197 8.54738Z" fill="#FBBC04"/>
</g>
<g filter="url(#filter5_f_6_3605)">
<path d="M109.509 114.759V129.442C109.509 138.032 102.566 145 93.999 145C85.4324 145 78.4885 138.04 78.4885 129.442V90.9998L109.509 114.759Z" fill="#34A853"/>
<path d="M109.509 20.5583V114.759L78.4885 90.9998V53.536L103.87 32.5531C107.593 29.4828 109.509 25.0365 109.509 20.5583Z" fill="url(#paint6_linear_6_3605)"/>
<path d="M109.502 20.0173C109.509 20.1923 109.509 20.3673 109.509 20.5503C109.509 25.0284 107.593 29.4747 103.87 32.545L78.4885 53.5279V20.5582C78.4885 15.4676 80.9304 10.9338 84.7245 8.09414C84.995 7.88734 85.2654 7.69644 85.5597 7.51349C85.6949 7.426 85.8222 7.3385 85.9574 7.25896C86.204 7.09988 86.4665 6.95671 86.7051 6.82944L87.3892 6.48742L87.9619 6.22493C88.1925 6.12948 88.4232 6.03403 88.6698 5.94654C88.9004 5.85904 89.147 5.7795 89.3856 5.69996C89.8311 5.56474 90.2844 5.43748 90.7537 5.34203C90.889 5.31021 91.0321 5.28635 91.1833 5.25453C91.2867 5.23862 91.3901 5.22271 91.4935 5.20681C91.6764 5.17499 91.8594 5.15113 92.0423 5.12727C92.2571 5.09545 92.4718 5.07159 92.6945 5.05568C92.8695 5.03977 93.0445 5.02386 93.2195 5.01591C93.474 5.00795 93.7365 5 93.999 5H94.007C94.5717 5 95.1205 5.03182 95.6773 5.0875C95.9478 5.11931 96.2262 5.15908 96.5125 5.20681C96.7829 5.24658 97.0534 5.30226 97.3397 5.36589C97.6102 5.42157 97.8806 5.49315 98.151 5.57269C98.3738 5.62837 98.6044 5.69996 98.8271 5.7795C99.2646 5.92267 99.7021 6.08176 100.116 6.2647C100.323 6.3522 100.529 6.44764 100.736 6.54309C100.999 6.67036 101.261 6.80558 101.516 6.9408C101.897 7.15556 102.263 7.37827 102.629 7.62485C102.669 7.65667 102.709 7.68053 102.749 7.70439C103.138 7.97483 103.512 8.26913 103.886 8.57139C104.069 8.73047 104.252 8.8816 104.435 9.04863L104.451 9.06454C104.626 9.23158 104.801 9.39861 104.976 9.5736C105.151 9.74859 105.326 9.93154 105.493 10.1065C105.835 10.4724 106.145 10.8622 106.439 11.2599C106.646 11.5303 106.837 11.8167 107.02 12.0951C107.107 12.2303 107.195 12.3575 107.274 12.4928C107.433 12.7393 107.577 13.0018 107.704 13.2404C107.799 13.4313 107.95 13.7415 108.046 13.9245C108.133 14.1154 108.221 14.3063 108.3 14.4972C108.396 14.7279 108.491 14.9665 108.579 15.2051C108.666 15.4358 108.746 15.6823 108.817 15.921C108.921 16.263 109.008 16.605 109.088 16.9391C109.136 17.0982 109.167 17.2493 109.191 17.4084C109.239 17.6311 109.279 17.8459 109.319 18.0606C109.35 18.2356 109.366 18.4106 109.39 18.5856C109.422 18.8004 109.446 19.0151 109.462 19.2378C109.478 19.4128 109.494 19.5878 109.502 19.7628C109.494 19.8423 109.502 19.9298 109.502 20.0173Z" fill="#EA4335"/>
<path d="M84.1197 8.54738C84.3106 8.3883 84.5095 8.23717 84.7083 8.09399C80.9301 10.9336 78.4882 15.4595 78.4882 20.5581V53.5357L65.3163 64.4408C62.4369 66.835 58.953 67.9883 55.477 67.9883C51.0148 67.9883 46.5844 66.0634 43.53 62.333C38.0973 55.6992 39.0359 45.8998 45.6299 40.4433L84.1197 8.54738Z" fill="#FBBC04"/>
</g>
<g filter="url(#filter6_f_6_3605)">
<path d="M109.509 114.759V129.442C109.509 138.032 102.566 145 93.999 145C85.4324 145 78.4885 138.04 78.4885 129.442V90.9998L109.509 114.759Z" fill="#34A853"/>
<path d="M109.509 20.5583V114.759L78.4885 90.9998V53.536L103.87 32.5531C107.593 29.4828 109.509 25.0365 109.509 20.5583Z" fill="url(#paint7_linear_6_3605)"/>
<path d="M109.502 20.0173C109.509 20.1923 109.509 20.3673 109.509 20.5503C109.509 25.0284 107.593 29.4747 103.87 32.545L78.4885 53.5279V20.5582C78.4885 15.4676 80.9304 10.9338 84.7245 8.09414C84.995 7.88734 85.2654 7.69644 85.5597 7.51349C85.6949 7.426 85.8222 7.3385 85.9574 7.25896C86.204 7.09988 86.4665 6.95671 86.7051 6.82944L87.3892 6.48742L87.9619 6.22493C88.1925 6.12948 88.4232 6.03403 88.6698 5.94654C88.9004 5.85904 89.147 5.7795 89.3856 5.69996C89.8311 5.56474 90.2844 5.43748 90.7537 5.34203C90.889 5.31021 91.0321 5.28635 91.1833 5.25453C91.2867 5.23862 91.3901 5.22271 91.4935 5.20681C91.6764 5.17499 91.8594 5.15113 92.0423 5.12727C92.2571 5.09545 92.4718 5.07159 92.6945 5.05568C92.8695 5.03977 93.0445 5.02386 93.2195 5.01591C93.474 5.00795 93.7365 5 93.999 5H94.007C94.5717 5 95.1205 5.03182 95.6773 5.0875C95.9478 5.11931 96.2262 5.15908 96.5125 5.20681C96.7829 5.24658 97.0534 5.30226 97.3397 5.36589C97.6102 5.42157 97.8806 5.49315 98.151 5.57269C98.3738 5.62837 98.6044 5.69996 98.8271 5.7795C99.2646 5.92267 99.7021 6.08176 100.116 6.2647C100.323 6.3522 100.529 6.44764 100.736 6.54309C100.999 6.67036 101.261 6.80558 101.516 6.9408C101.897 7.15556 102.263 7.37827 102.629 7.62485C102.669 7.65667 102.709 7.68053 102.749 7.70439C103.138 7.97483 103.512 8.26913 103.886 8.57139C104.069 8.73047 104.252 8.8816 104.435 9.04863L104.451 9.06454C104.626 9.23158 104.801 9.39861 104.976 9.5736C105.151 9.74859 105.326 9.93154 105.493 10.1065C105.835 10.4724 106.145 10.8622 106.439 11.2599C106.646 11.5303 106.837 11.8167 107.02 12.0951C107.107 12.2303 107.195 12.3575 107.274 12.4928C107.433 12.7393 107.577 13.0018 107.704 13.2404C107.799 13.4313 107.95 13.7415 108.046 13.9245C108.133 14.1154 108.221 14.3063 108.3 14.4972C108.396 14.7279 108.491 14.9665 108.579 15.2051C108.666 15.4358 108.746 15.6823 108.817 15.921C108.921 16.263 109.008 16.605 109.088 16.9391C109.136 17.0982 109.167 17.2493 109.191 17.4084C109.239 17.6311 109.279 17.8459 109.319 18.0606C109.35 18.2356 109.366 18.4106 109.39 18.5856C109.422 18.8004 109.446 19.0151 109.462 19.2378C109.478 19.4128 109.494 19.5878 109.502 19.7628C109.494 19.8423 109.502 19.9298 109.502 20.0173Z" fill="#EA4335"/>
<path d="M84.1197 8.54738C84.3106 8.3883 84.5095 8.23717 84.7083 8.09399C80.9301 10.9336 78.4882 15.4595 78.4882 20.5581V53.5357L65.3163 64.4408C62.4369 66.835 58.953 67.9883 55.477 67.9883C51.0148 67.9883 46.5844 66.0634 43.53 62.333C38.0973 55.6992 39.0359 45.8998 45.6299 40.4433L84.1197 8.54738Z" fill="#FBBC04"/>
</g>
</g>
<defs>
<filter id="filter0_f_6_3605" x="15.9982" y="-19" width="117.511" height="188" filterUnits="userSpaceOnUse" color-interpolation-filters="sRGB">
<feFlood flood-opacity="0" result="BackgroundImageFix"/>
<feBlend mode="normal" in="SourceGraphic" in2="BackgroundImageFix" result="shape"/>
<feGaussianBlur stdDeviation="12" result="effect1_foregroundBlur_6_3605"/>
</filter>
<filter id="filter1_f_6_3605" x="15.9982" y="-19" width="117.511" height="188" filterUnits="userSpaceOnUse" color-interpolation-filters="sRGB">
<feFlood flood-opacity="0" result="BackgroundImageFix"/>
<feBlend mode="normal" in="SourceGraphic" in2="BackgroundImageFix" result="shape"/>
<feGaussianBlur stdDeviation="12" result="effect1_foregroundBlur_6_3605"/>
</filter>
<filter id="filter2_f_6_3605" x="15.9982" y="-19" width="117.511" height="188" filterUnits="userSpaceOnUse" color-interpolation-filters="sRGB">
<feFlood flood-opacity="0" result="BackgroundImageFix"/>
<feBlend mode="normal" in="SourceGraphic" in2="BackgroundImageFix" result="shape"/>
<feGaussianBlur stdDeviation="12" result="effect1_foregroundBlur_6_3605"/>
</filter>
<filter id="filter3_f_6_3605" x="15.9982" y="-19" width="117.511" height="188" filterUnits="userSpaceOnUse" color-interpolation-filters="sRGB">
<feFlood flood-opacity="0" result="BackgroundImageFix"/>
<feBlend mode="normal" in="SourceGraphic" in2="BackgroundImageFix" result="shape"/>
<feGaussianBlur stdDeviation="12" result="effect1_foregroundBlur_6_3605"/>
</filter>
<filter id="filter4_f_6_3605" x="15.9982" y="-19" width="117.511" height="188" filterUnits="userSpaceOnUse" color-interpolation-filters="sRGB">
<feFlood flood-opacity="0" result="BackgroundImageFix"/>
<feBlend mode="normal" in="SourceGraphic" in2="BackgroundImageFix" result="shape"/>
<feGaussianBlur stdDeviation="12" result="effect1_foregroundBlur_6_3605"/>
</filter>
<filter id="filter5_f_6_3605" x="15.9982" y="-19" width="117.511" height="188" filterUnits="userSpaceOnUse" color-interpolation-filters="sRGB">
<feFlood flood-opacity="0" result="BackgroundImageFix"/>
<feBlend mode="normal" in="SourceGraphic" in2="BackgroundImageFix" result="shape"/>
<feGaussianBlur stdDeviation="12" result="effect1_foregroundBlur_6_3605"/>
</filter>
<filter id="filter6_f_6_3605" x="15.9982" y="-19" width="117.511" height="188" filterUnits="userSpaceOnUse" color-interpolation-filters="sRGB">
<feFlood flood-opacity="0" result="BackgroundImageFix"/>
<feBlend mode="normal" in="SourceGraphic" in2="BackgroundImageFix" result="shape"/>
<feGaussianBlur stdDeviation="12" result="effect1_foregroundBlur_6_3605"/>
</filter>
<linearGradient id="paint0_linear_6_3605" x1="74.7557" y1="146.088" x2="74.7557" y2="4.94444" gradientUnits="userSpaceOnUse">
<stop stop-color="#1A73E8"/>
<stop offset="1" stop-color="#4285F4"/>
</linearGradient>
<linearGradient id="paint1_linear_6_3605" x1="93.999" y1="115.49" x2="93.999" y2="20.521" gradientUnits="userSpaceOnUse">
<stop stop-color="#1A73E8"/>
<stop offset="1" stop-color="#4285F4"/>
</linearGradient>
<linearGradient id="paint2_linear_6_3605" x1="93.999" y1="115.49" x2="93.999" y2="20.521" gradientUnits="userSpaceOnUse">
<stop stop-color="#1A73E8"/>
<stop offset="1" stop-color="#4285F4"/>
</linearGradient>
<linearGradient id="paint3_linear_6_3605" x1="93.999" y1="115.49" x2="93.999" y2="20.521" gradientUnits="userSpaceOnUse">
<stop stop-color="#1A73E8"/>
<stop offset="1" stop-color="#4285F4"/>
</linearGradient>
<linearGradient id="paint4_linear_6_3605" x1="93.999" y1="115.49" x2="93.999" y2="20.521" gradientUnits="userSpaceOnUse">
<stop stop-color="#1A73E8"/>
<stop offset="1" stop-color="#4285F4"/>
</linearGradient>
<linearGradient id="paint5_linear_6_3605" x1="93.999" y1="115.49" x2="93.999" y2="20.521" gradientUnits="userSpaceOnUse">
<stop stop-color="#1A73E8"/>
<stop offset="1" stop-color="#4285F4"/>
</linearGradient>
<linearGradient id="paint6_linear_6_3605" x1="93.999" y1="115.49" x2="93.999" y2="20.521" gradientUnits="userSpaceOnUse">
<stop stop-color="#1A73E8"/>
<stop offset="1" stop-color="#4285F4"/>
</linearGradient>
<linearGradient id="paint7_linear_6_3605" x1="93.999" y1="115.49" x2="93.999" y2="20.521" gradientUnits="userSpaceOnUse">
<stop stop-color="#1A73E8"/>
<stop offset="1" stop-color="#4285F4"/>
</linearGradient>
</defs>
</svg>
