<svg width="150" height="150" viewBox="0 0 150 150" fill="none" xmlns="http://www.w3.org/2000/svg">
<mask id="mask0_6_3613" style="mask-type:alpha" maskUnits="userSpaceOnUse" x="5" y="5" width="140" height="141">
<path d="M106.116 24.4505C111.265 24.468 116.197 26.5211 119.838 30.1619C123.479 33.8026 125.532 38.7354 125.55 43.8842V59.4512H145V43.8842C145.002 38.78 143.999 33.7254 142.048 29.009C140.097 24.2925 137.235 20.0066 133.628 16.3958C130.02 12.7851 125.737 9.9203 121.022 7.965C116.307 6.0097 111.253 5.00219 106.149 5H90.5488V24.4505H106.116Z" fill="#FBBC05"/>
<path d="M24.4505 43.8842C24.468 38.7354 26.5211 33.8026 30.1619 30.1619C33.8026 26.5211 38.7354 24.468 43.8842 24.4505H59.4512V5H43.8842C38.78 4.99781 33.7254 6.00098 29.009 7.95224C24.2925 9.90349 20.0066 12.7646 16.3958 16.3723C12.7851 19.9799 9.9203 24.2634 7.965 28.9782C6.0097 33.693 5.00219 38.7467 5 43.8509V59.4179H24.4505V43.8842Z" fill="#EA4335"/>
<path d="M43.8842 125.553C38.7354 125.535 33.8026 123.482 30.1619 119.841C26.5211 116.201 24.468 111.268 24.4505 106.119V90.5521H5V106.119C4.99781 111.223 6.00098 116.278 7.95224 120.994C9.90349 125.711 12.7646 129.997 16.3723 133.607C19.9799 137.218 24.2634 140.083 28.9782 142.038C33.693 143.994 38.7467 145.001 43.8509 145.003H59.4513V125.553H43.8842Z" fill="#4285F4"/>
<path d="M121.672 137.22C124.748 137.22 127.755 136.308 130.312 134.599C132.869 132.89 134.862 130.462 136.039 127.62C137.216 124.779 137.524 121.652 136.924 118.635C136.324 115.619 134.843 112.848 132.668 110.673C130.493 108.499 127.723 107.018 124.706 106.418C121.69 105.818 118.563 106.126 115.722 107.303C112.88 108.48 110.451 110.473 108.743 113.03C107.034 115.587 106.122 118.594 106.122 121.669C106.122 125.793 107.76 129.749 110.677 132.665C113.593 135.581 117.548 137.22 121.672 137.22Z" fill="#34A853"/>
<path d="M75.0047 102.219C80.3877 102.219 85.6499 100.622 90.1258 97.6318C94.6016 94.6411 98.0902 90.3904 100.15 85.417C102.21 80.4437 102.749 74.9713 101.699 69.6917C100.649 64.412 98.0566 59.5623 94.2502 55.7559C90.4438 51.9495 85.5942 49.3573 80.3146 48.3071C75.0349 47.257 69.5624 47.796 64.5891 49.856C59.6158 51.916 55.365 55.4045 52.3743 59.8804C49.3836 64.3562 47.7874 69.6184 47.7874 75.0015C47.7874 82.2199 50.6549 89.1428 55.7591 94.247C60.8634 99.3512 67.7862 102.219 75.0047 102.219Z" fill="#4285F4"/>
</mask>
<g mask="url(#mask0_6_3613)">
<g filter="url(#filter0_f_6_3613)">
<path d="M106.115 24.4505C111.264 24.468 116.196 26.5211 119.837 30.1619C123.478 33.8026 125.531 38.7354 125.549 43.8842V59.4512H144.999V43.8842C145.001 38.78 143.998 33.7254 142.047 29.009C140.096 24.2925 137.234 20.0066 133.627 16.3958C130.019 12.7851 125.736 9.9203 121.021 7.965C116.306 6.0097 111.252 5.00219 106.148 5H90.5479V24.4505H106.115Z" fill="#FBBC05"/>
<path d="M24.4495 43.8842C24.4671 38.7354 26.5201 33.8026 30.1609 30.1619C33.8016 26.5211 38.7345 24.468 43.8832 24.4505H59.4503V5H43.8832C38.7791 4.99781 33.7245 6.00098 29.008 7.95224C24.2915 9.90349 20.0056 12.7646 16.3948 16.3723C12.7841 19.9799 9.91932 24.2634 7.96403 28.9782C6.00873 33.693 5.00121 38.7467 4.99902 43.8509V59.4179H24.4495V43.8842Z" fill="#EA4335"/>
<path d="M43.8832 125.553C38.7345 125.535 33.8016 123.482 30.1609 119.841C26.5201 116.201 24.4671 111.268 24.4495 106.119V90.552H4.99903V106.119C4.99684 111.223 6.00001 116.278 7.95126 120.994C9.90252 125.711 12.7637 129.997 16.3713 133.607C19.9789 137.218 24.2624 140.083 28.9772 142.038C33.692 143.994 38.7457 145.001 43.8499 145.003H59.4503V125.553H43.8832Z" fill="#4285F4"/>
<path d="M121.671 137.22C124.747 137.22 127.754 136.308 130.311 134.599C132.868 132.89 134.861 130.462 136.038 127.62C137.215 124.779 137.523 121.652 136.923 118.636C136.323 115.619 134.842 112.848 132.667 110.674C130.492 108.499 127.722 107.018 124.705 106.418C121.689 105.818 118.562 106.126 115.721 107.303C112.879 108.48 110.45 110.473 108.742 113.03C107.033 115.587 106.121 118.594 106.121 121.669C106.121 125.794 107.759 129.749 110.676 132.665C113.592 135.581 117.547 137.22 121.671 137.22Z" fill="#34A853"/>
<path d="M75.0038 102.219C80.3868 102.219 85.649 100.622 90.1248 97.6318C94.6007 94.6411 98.0893 90.3904 100.149 85.4171C102.209 80.4438 102.748 74.9713 101.698 69.6917C100.648 64.412 98.0557 59.5624 94.2493 55.756C90.4429 51.9495 85.5933 49.3573 80.3136 48.3072C75.034 47.257 69.5615 47.796 64.5882 49.856C59.6149 51.916 55.3641 55.4045 52.3734 59.8804C49.3827 64.3563 47.7865 69.6184 47.7865 75.0015C47.7865 82.22 50.654 89.1428 55.7582 94.247C60.8625 99.3512 67.7853 102.219 75.0038 102.219Z" fill="#4285F4"/>
</g>
<g filter="url(#filter1_f_6_3613)">
<path d="M106.115 24.4505C111.264 24.468 116.196 26.5211 119.837 30.1619C123.478 33.8026 125.531 38.7354 125.549 43.8842V59.4512H144.999V43.8842C145.001 38.78 143.998 33.7254 142.047 29.009C140.096 24.2925 137.234 20.0066 133.627 16.3958C130.019 12.7851 125.736 9.9203 121.021 7.965C116.306 6.0097 111.252 5.00219 106.148 5H90.5479V24.4505H106.115Z" fill="#FBBC05"/>
<path d="M24.4495 43.8842C24.4671 38.7354 26.5201 33.8026 30.1609 30.1619C33.8016 26.5211 38.7345 24.468 43.8832 24.4505H59.4503V5H43.8832C38.7791 4.99781 33.7245 6.00098 29.008 7.95224C24.2915 9.90349 20.0056 12.7646 16.3948 16.3723C12.7841 19.9799 9.91932 24.2634 7.96403 28.9782C6.00873 33.693 5.00121 38.7467 4.99902 43.8509V59.4179H24.4495V43.8842Z" fill="#EA4335"/>
<path d="M43.8832 125.553C38.7345 125.535 33.8016 123.482 30.1609 119.841C26.5201 116.201 24.4671 111.268 24.4495 106.119V90.552H4.99903V106.119C4.99684 111.223 6.00001 116.278 7.95126 120.994C9.90252 125.711 12.7637 129.997 16.3713 133.607C19.9789 137.218 24.2624 140.083 28.9772 142.038C33.692 143.994 38.7457 145.001 43.8499 145.003H59.4503V125.553H43.8832Z" fill="#4285F4"/>
<path d="M121.671 137.22C124.747 137.22 127.754 136.308 130.311 134.599C132.868 132.89 134.861 130.462 136.038 127.62C137.215 124.779 137.523 121.652 136.923 118.636C136.323 115.619 134.842 112.848 132.667 110.674C130.492 108.499 127.722 107.018 124.705 106.418C121.689 105.818 118.562 106.126 115.721 107.303C112.879 108.48 110.45 110.473 108.742 113.03C107.033 115.587 106.121 118.594 106.121 121.669C106.121 125.794 107.759 129.749 110.676 132.665C113.592 135.581 117.547 137.22 121.671 137.22Z" fill="#34A853"/>
<path d="M75.0038 102.219C80.3868 102.219 85.649 100.622 90.1248 97.6318C94.6007 94.6411 98.0893 90.3904 100.149 85.4171C102.209 80.4438 102.748 74.9713 101.698 69.6917C100.648 64.412 98.0557 59.5624 94.2493 55.756C90.4429 51.9495 85.5933 49.3573 80.3136 48.3072C75.034 47.257 69.5615 47.796 64.5882 49.856C59.6149 51.916 55.3641 55.4045 52.3734 59.8804C49.3827 64.3563 47.7865 69.6184 47.7865 75.0015C47.7865 82.22 50.654 89.1428 55.7582 94.247C60.8625 99.3512 67.7853 102.219 75.0038 102.219Z" fill="#4285F4"/>
</g>
<g filter="url(#filter2_f_6_3613)">
<path d="M106.115 24.4505C111.264 24.468 116.196 26.5211 119.837 30.1619C123.478 33.8026 125.531 38.7354 125.549 43.8842V59.4512H144.999V43.8842C145.001 38.78 143.998 33.7254 142.047 29.009C140.096 24.2925 137.234 20.0066 133.627 16.3958C130.019 12.7851 125.736 9.9203 121.021 7.965C116.306 6.0097 111.252 5.00219 106.148 5H90.5479V24.4505H106.115Z" fill="#FBBC05"/>
<path d="M24.4495 43.8842C24.4671 38.7354 26.5201 33.8026 30.1609 30.1619C33.8016 26.5211 38.7345 24.468 43.8832 24.4505H59.4503V5H43.8832C38.7791 4.99781 33.7245 6.00098 29.008 7.95224C24.2915 9.90349 20.0056 12.7646 16.3948 16.3723C12.7841 19.9799 9.91932 24.2634 7.96403 28.9782C6.00873 33.693 5.00121 38.7467 4.99902 43.8509V59.4179H24.4495V43.8842Z" fill="#EA4335"/>
<path d="M43.8832 125.553C38.7345 125.535 33.8016 123.482 30.1609 119.841C26.5201 116.201 24.4671 111.268 24.4495 106.119V90.552H4.99903V106.119C4.99684 111.223 6.00001 116.278 7.95126 120.994C9.90252 125.711 12.7637 129.997 16.3713 133.607C19.9789 137.218 24.2624 140.083 28.9772 142.038C33.692 143.994 38.7457 145.001 43.8499 145.003H59.4503V125.553H43.8832Z" fill="#4285F4"/>
<path d="M121.671 137.22C124.747 137.22 127.754 136.308 130.311 134.599C132.868 132.89 134.861 130.462 136.038 127.62C137.215 124.779 137.523 121.652 136.923 118.636C136.323 115.619 134.842 112.848 132.667 110.674C130.492 108.499 127.722 107.018 124.705 106.418C121.689 105.818 118.562 106.126 115.721 107.303C112.879 108.48 110.45 110.473 108.742 113.03C107.033 115.587 106.121 118.594 106.121 121.669C106.121 125.794 107.759 129.749 110.676 132.665C113.592 135.581 117.547 137.22 121.671 137.22Z" fill="#34A853"/>
<path d="M75.0038 102.219C80.3868 102.219 85.649 100.622 90.1248 97.6318C94.6007 94.6411 98.0893 90.3904 100.149 85.4171C102.209 80.4438 102.748 74.9713 101.698 69.6917C100.648 64.412 98.0557 59.5624 94.2493 55.756C90.4429 51.9495 85.5933 49.3573 80.3136 48.3072C75.034 47.257 69.5615 47.796 64.5882 49.856C59.6149 51.916 55.3641 55.4045 52.3734 59.8804C49.3827 64.3563 47.7865 69.6184 47.7865 75.0015C47.7865 82.22 50.654 89.1428 55.7582 94.247C60.8625 99.3512 67.7853 102.219 75.0038 102.219Z" fill="#4285F4"/>
</g>
<g filter="url(#filter3_f_6_3613)">
<path d="M106.115 24.4505C111.264 24.468 116.196 26.5211 119.837 30.1619C123.478 33.8026 125.531 38.7354 125.549 43.8842V59.4512H144.999V43.8842C145.001 38.78 143.998 33.7254 142.047 29.009C140.096 24.2925 137.234 20.0066 133.627 16.3958C130.019 12.7851 125.736 9.9203 121.021 7.965C116.306 6.0097 111.252 5.00219 106.148 5H90.5479V24.4505H106.115Z" fill="#FBBC05"/>
<path d="M24.4495 43.8842C24.4671 38.7354 26.5201 33.8026 30.1609 30.1619C33.8016 26.5211 38.7345 24.468 43.8832 24.4505H59.4503V5H43.8832C38.7791 4.99781 33.7245 6.00098 29.008 7.95224C24.2915 9.90349 20.0056 12.7646 16.3948 16.3723C12.7841 19.9799 9.91932 24.2634 7.96403 28.9782C6.00873 33.693 5.00121 38.7467 4.99902 43.8509V59.4179H24.4495V43.8842Z" fill="#EA4335"/>
<path d="M43.8832 125.553C38.7345 125.535 33.8016 123.482 30.1609 119.841C26.5201 116.201 24.4671 111.268 24.4495 106.119V90.552H4.99903V106.119C4.99684 111.223 6.00001 116.278 7.95126 120.994C9.90252 125.711 12.7637 129.997 16.3713 133.607C19.9789 137.218 24.2624 140.083 28.9772 142.038C33.692 143.994 38.7457 145.001 43.8499 145.003H59.4503V125.553H43.8832Z" fill="#4285F4"/>
<path d="M121.671 137.22C124.747 137.22 127.754 136.308 130.311 134.599C132.868 132.89 134.861 130.462 136.038 127.62C137.215 124.779 137.523 121.652 136.923 118.636C136.323 115.619 134.842 112.848 132.667 110.674C130.492 108.499 127.722 107.018 124.705 106.418C121.689 105.818 118.562 106.126 115.721 107.303C112.879 108.48 110.45 110.473 108.742 113.03C107.033 115.587 106.121 118.594 106.121 121.669C106.121 125.794 107.759 129.749 110.676 132.665C113.592 135.581 117.547 137.22 121.671 137.22Z" fill="#34A853"/>
<path d="M75.0038 102.219C80.3868 102.219 85.649 100.622 90.1248 97.6318C94.6007 94.6411 98.0893 90.3904 100.149 85.4171C102.209 80.4438 102.748 74.9713 101.698 69.6917C100.648 64.412 98.0557 59.5624 94.2493 55.756C90.4429 51.9495 85.5933 49.3573 80.3136 48.3072C75.034 47.257 69.5615 47.796 64.5882 49.856C59.6149 51.916 55.3641 55.4045 52.3734 59.8804C49.3827 64.3563 47.7865 69.6184 47.7865 75.0015C47.7865 82.22 50.654 89.1428 55.7582 94.247C60.8625 99.3512 67.7853 102.219 75.0038 102.219Z" fill="#4285F4"/>
</g>
<g filter="url(#filter4_f_6_3613)">
<path d="M106.115 24.4505C111.264 24.468 116.196 26.5211 119.837 30.1619C123.478 33.8026 125.531 38.7354 125.549 43.8842V59.4512H144.999V43.8842C145.001 38.78 143.998 33.7254 142.047 29.009C140.096 24.2925 137.234 20.0066 133.627 16.3958C130.019 12.7851 125.736 9.9203 121.021 7.965C116.306 6.0097 111.252 5.00219 106.148 5H90.5479V24.4505H106.115Z" fill="#FBBC05"/>
<path d="M24.4495 43.8842C24.4671 38.7354 26.5201 33.8026 30.1609 30.1619C33.8016 26.5211 38.7345 24.468 43.8832 24.4505H59.4503V5H43.8832C38.7791 4.99781 33.7245 6.00098 29.008 7.95224C24.2915 9.90349 20.0056 12.7646 16.3948 16.3723C12.7841 19.9799 9.91932 24.2634 7.96403 28.9782C6.00873 33.693 5.00121 38.7467 4.99902 43.8509V59.4179H24.4495V43.8842Z" fill="#EA4335"/>
<path d="M43.8832 125.553C38.7345 125.535 33.8016 123.482 30.1609 119.841C26.5201 116.201 24.4671 111.268 24.4495 106.119V90.552H4.99903V106.119C4.99684 111.223 6.00001 116.278 7.95126 120.994C9.90252 125.711 12.7637 129.997 16.3713 133.607C19.9789 137.218 24.2624 140.083 28.9772 142.038C33.692 143.994 38.7457 145.001 43.8499 145.003H59.4503V125.553H43.8832Z" fill="#4285F4"/>
<path d="M121.671 137.22C124.747 137.22 127.754 136.308 130.311 134.599C132.868 132.89 134.861 130.462 136.038 127.62C137.215 124.779 137.523 121.652 136.923 118.636C136.323 115.619 134.842 112.848 132.667 110.674C130.492 108.499 127.722 107.018 124.705 106.418C121.689 105.818 118.562 106.126 115.721 107.303C112.879 108.48 110.45 110.473 108.742 113.03C107.033 115.587 106.121 118.594 106.121 121.669C106.121 125.794 107.759 129.749 110.676 132.665C113.592 135.581 117.547 137.22 121.671 137.22Z" fill="#34A853"/>
<path d="M75.0038 102.219C80.3868 102.219 85.649 100.622 90.1248 97.6318C94.6007 94.6411 98.0893 90.3904 100.149 85.4171C102.209 80.4438 102.748 74.9713 101.698 69.6917C100.648 64.412 98.0557 59.5624 94.2493 55.756C90.4429 51.9495 85.5933 49.3573 80.3136 48.3072C75.034 47.257 69.5615 47.796 64.5882 49.856C59.6149 51.916 55.3641 55.4045 52.3734 59.8804C49.3827 64.3563 47.7865 69.6184 47.7865 75.0015C47.7865 82.22 50.654 89.1428 55.7582 94.247C60.8625 99.3512 67.7853 102.219 75.0038 102.219Z" fill="#4285F4"/>
</g>
<g filter="url(#filter5_f_6_3613)">
<path d="M106.115 24.4505C111.264 24.468 116.196 26.5211 119.837 30.1619C123.478 33.8026 125.531 38.7354 125.549 43.8842V59.4512H144.999V43.8842C145.001 38.78 143.998 33.7254 142.047 29.009C140.096 24.2925 137.234 20.0066 133.627 16.3958C130.019 12.7851 125.736 9.9203 121.021 7.965C116.306 6.0097 111.252 5.00219 106.148 5H90.5479V24.4505H106.115Z" fill="#FBBC05"/>
<path d="M24.4495 43.8842C24.4671 38.7354 26.5201 33.8026 30.1609 30.1619C33.8016 26.5211 38.7345 24.468 43.8832 24.4505H59.4503V5H43.8832C38.7791 4.99781 33.7245 6.00098 29.008 7.95224C24.2915 9.90349 20.0056 12.7646 16.3948 16.3723C12.7841 19.9799 9.91932 24.2634 7.96403 28.9782C6.00873 33.693 5.00121 38.7467 4.99902 43.8509V59.4179H24.4495V43.8842Z" fill="#EA4335"/>
<path d="M43.8832 125.553C38.7345 125.535 33.8016 123.482 30.1609 119.841C26.5201 116.201 24.4671 111.268 24.4495 106.119V90.552H4.99903V106.119C4.99684 111.223 6.00001 116.278 7.95126 120.994C9.90252 125.711 12.7637 129.997 16.3713 133.607C19.9789 137.218 24.2624 140.083 28.9772 142.038C33.692 143.994 38.7457 145.001 43.8499 145.003H59.4503V125.553H43.8832Z" fill="#4285F4"/>
<path d="M121.671 137.22C124.747 137.22 127.754 136.308 130.311 134.599C132.868 132.89 134.861 130.462 136.038 127.62C137.215 124.779 137.523 121.652 136.923 118.636C136.323 115.619 134.842 112.848 132.667 110.674C130.492 108.499 127.722 107.018 124.705 106.418C121.689 105.818 118.562 106.126 115.721 107.303C112.879 108.48 110.45 110.473 108.742 113.03C107.033 115.587 106.121 118.594 106.121 121.669C106.121 125.794 107.759 129.749 110.676 132.665C113.592 135.581 117.547 137.22 121.671 137.22Z" fill="#34A853"/>
<path d="M75.0038 102.219C80.3868 102.219 85.649 100.622 90.1248 97.6318C94.6007 94.6411 98.0893 90.3904 100.149 85.4171C102.209 80.4438 102.748 74.9713 101.698 69.6917C100.648 64.412 98.0557 59.5624 94.2493 55.756C90.4429 51.9495 85.5933 49.3573 80.3136 48.3072C75.034 47.257 69.5615 47.796 64.5882 49.856C59.6149 51.916 55.3641 55.4045 52.3734 59.8804C49.3827 64.3563 47.7865 69.6184 47.7865 75.0015C47.7865 82.22 50.654 89.1428 55.7582 94.247C60.8625 99.3512 67.7853 102.219 75.0038 102.219Z" fill="#4285F4"/>
</g>
<g filter="url(#filter6_f_6_3613)">
<path d="M106.115 24.4505C111.264 24.468 116.196 26.5211 119.837 30.1619C123.478 33.8026 125.531 38.7354 125.549 43.8842V59.4512H144.999V43.8842C145.001 38.78 143.998 33.7254 142.047 29.009C140.096 24.2925 137.234 20.0066 133.627 16.3958C130.019 12.7851 125.736 9.9203 121.021 7.965C116.306 6.0097 111.252 5.00219 106.148 5H90.5479V24.4505H106.115Z" fill="#FBBC05"/>
<path d="M24.4495 43.8842C24.4671 38.7354 26.5201 33.8026 30.1609 30.1619C33.8016 26.5211 38.7345 24.468 43.8832 24.4505H59.4503V5H43.8832C38.7791 4.99781 33.7245 6.00098 29.008 7.95224C24.2915 9.90349 20.0056 12.7646 16.3948 16.3723C12.7841 19.9799 9.91932 24.2634 7.96403 28.9782C6.00873 33.693 5.00121 38.7467 4.99902 43.8509V59.4179H24.4495V43.8842Z" fill="#EA4335"/>
<path d="M43.8832 125.553C38.7345 125.535 33.8016 123.482 30.1609 119.841C26.5201 116.201 24.4671 111.268 24.4495 106.119V90.552H4.99903V106.119C4.99684 111.223 6.00001 116.278 7.95126 120.994C9.90252 125.711 12.7637 129.997 16.3713 133.607C19.9789 137.218 24.2624 140.083 28.9772 142.038C33.692 143.994 38.7457 145.001 43.8499 145.003H59.4503V125.553H43.8832Z" fill="#4285F4"/>
<path d="M121.671 137.22C124.747 137.22 127.754 136.308 130.311 134.599C132.868 132.89 134.861 130.462 136.038 127.62C137.215 124.779 137.523 121.652 136.923 118.636C136.323 115.619 134.842 112.848 132.667 110.674C130.492 108.499 127.722 107.018 124.705 106.418C121.689 105.818 118.562 106.126 115.721 107.303C112.879 108.48 110.45 110.473 108.742 113.03C107.033 115.587 106.121 118.594 106.121 121.669C106.121 125.794 107.759 129.749 110.676 132.665C113.592 135.581 117.547 137.22 121.671 137.22Z" fill="#34A853"/>
<path d="M75.0038 102.219C80.3868 102.219 85.649 100.622 90.1248 97.6318C94.6007 94.6411 98.0893 90.3904 100.149 85.4171C102.209 80.4438 102.748 74.9713 101.698 69.6917C100.648 64.412 98.0557 59.5624 94.2493 55.756C90.4429 51.9495 85.5933 49.3573 80.3136 48.3072C75.034 47.257 69.5615 47.796 64.5882 49.856C59.6149 51.916 55.3641 55.4045 52.3734 59.8804C49.3827 64.3563 47.7865 69.6184 47.7865 75.0015C47.7865 82.22 50.654 89.1428 55.7582 94.247C60.8625 99.3512 67.7853 102.219 75.0038 102.219Z" fill="#4285F4"/>
</g>
<g filter="url(#filter7_f_6_3613)">
<path d="M106.115 24.4505C111.264 24.468 116.196 26.5211 119.837 30.1619C123.478 33.8026 125.531 38.7354 125.549 43.8842V59.4512H144.999V43.8842C145.001 38.78 143.998 33.7254 142.047 29.009C140.096 24.2925 137.234 20.0066 133.627 16.3958C130.019 12.7851 125.736 9.9203 121.021 7.965C116.306 6.0097 111.252 5.00219 106.148 5H90.5479V24.4505H106.115Z" fill="#FBBC05"/>
<path d="M24.4495 43.8842C24.4671 38.7354 26.5201 33.8026 30.1609 30.1619C33.8016 26.5211 38.7345 24.468 43.8832 24.4505H59.4503V5H43.8832C38.7791 4.99781 33.7245 6.00098 29.008 7.95224C24.2915 9.90349 20.0056 12.7646 16.3948 16.3723C12.7841 19.9799 9.91932 24.2634 7.96403 28.9782C6.00873 33.693 5.00121 38.7467 4.99902 43.8509V59.4179H24.4495V43.8842Z" fill="#EA4335"/>
<path d="M43.8832 125.553C38.7345 125.535 33.8016 123.482 30.1609 119.841C26.5201 116.201 24.4671 111.268 24.4495 106.119V90.552H4.99903V106.119C4.99684 111.223 6.00001 116.278 7.95126 120.994C9.90252 125.711 12.7637 129.997 16.3713 133.607C19.9789 137.218 24.2624 140.083 28.9772 142.038C33.692 143.994 38.7457 145.001 43.8499 145.003H59.4503V125.553H43.8832Z" fill="#4285F4"/>
<path d="M121.671 137.22C124.747 137.22 127.754 136.308 130.311 134.599C132.868 132.89 134.861 130.462 136.038 127.62C137.215 124.779 137.523 121.652 136.923 118.636C136.323 115.619 134.842 112.848 132.667 110.674C130.492 108.499 127.722 107.018 124.705 106.418C121.689 105.818 118.562 106.126 115.721 107.303C112.879 108.48 110.45 110.473 108.742 113.03C107.033 115.587 106.121 118.594 106.121 121.669C106.121 125.794 107.759 129.749 110.676 132.665C113.592 135.581 117.547 137.22 121.671 137.22Z" fill="#34A853"/>
<path d="M75.0038 102.219C80.3868 102.219 85.649 100.622 90.1248 97.6318C94.6007 94.6411 98.0893 90.3904 100.149 85.4171C102.209 80.4438 102.748 74.9713 101.698 69.6917C100.648 64.412 98.0557 59.5624 94.2493 55.756C90.4429 51.9495 85.5933 49.3573 80.3136 48.3072C75.034 47.257 69.5615 47.796 64.5882 49.856C59.6149 51.916 55.3641 55.4045 52.3734 59.8804C49.3827 64.3563 47.7865 69.6184 47.7865 75.0015C47.7865 82.22 50.654 89.1428 55.7582 94.247C60.8625 99.3512 67.7853 102.219 75.0038 102.219Z" fill="#4285F4"/>
</g>
<g filter="url(#filter8_f_6_3613)">
<path d="M106.115 24.4505C111.264 24.468 116.196 26.5211 119.837 30.1619C123.478 33.8026 125.531 38.7354 125.549 43.8842V59.4512H144.999V43.8842C145.001 38.78 143.998 33.7254 142.047 29.009C140.096 24.2925 137.234 20.0066 133.627 16.3958C130.019 12.7851 125.736 9.9203 121.021 7.965C116.306 6.0097 111.252 5.00219 106.148 5H90.5479V24.4505H106.115Z" fill="#FBBC05"/>
<path d="M24.4495 43.8842C24.4671 38.7354 26.5201 33.8026 30.1609 30.1619C33.8016 26.5211 38.7345 24.468 43.8832 24.4505H59.4503V5H43.8832C38.7791 4.99781 33.7245 6.00098 29.008 7.95224C24.2915 9.90349 20.0056 12.7646 16.3948 16.3723C12.7841 19.9799 9.91932 24.2634 7.96403 28.9782C6.00873 33.693 5.00121 38.7467 4.99902 43.8509V59.4179H24.4495V43.8842Z" fill="#EA4335"/>
<path d="M43.8832 125.553C38.7345 125.535 33.8016 123.482 30.1609 119.841C26.5201 116.201 24.4671 111.268 24.4495 106.119V90.552H4.99903V106.119C4.99684 111.223 6.00001 116.278 7.95126 120.994C9.90252 125.711 12.7637 129.997 16.3713 133.607C19.9789 137.218 24.2624 140.083 28.9772 142.038C33.692 143.994 38.7457 145.001 43.8499 145.003H59.4503V125.553H43.8832Z" fill="#4285F4"/>
<path d="M121.671 137.22C124.747 137.22 127.754 136.308 130.311 134.599C132.868 132.89 134.861 130.462 136.038 127.62C137.215 124.779 137.523 121.652 136.923 118.636C136.323 115.619 134.842 112.848 132.667 110.674C130.492 108.499 127.722 107.018 124.705 106.418C121.689 105.818 118.562 106.126 115.721 107.303C112.879 108.48 110.45 110.473 108.742 113.03C107.033 115.587 106.121 118.594 106.121 121.669C106.121 125.794 107.759 129.749 110.676 132.665C113.592 135.581 117.547 137.22 121.671 137.22Z" fill="#34A853"/>
<path d="M75.0038 102.219C80.3868 102.219 85.649 100.622 90.1248 97.6318C94.6007 94.6411 98.0893 90.3904 100.149 85.4171C102.209 80.4438 102.748 74.9713 101.698 69.6917C100.648 64.412 98.0557 59.5624 94.2493 55.756C90.4429 51.9495 85.5933 49.3573 80.3136 48.3072C75.034 47.257 69.5615 47.796 64.5882 49.856C59.6149 51.916 55.3641 55.4045 52.3734 59.8804C49.3827 64.3563 47.7865 69.6184 47.7865 75.0015C47.7865 82.22 50.654 89.1428 55.7582 94.247C60.8625 99.3512 67.7853 102.219 75.0038 102.219Z" fill="#4285F4"/>
</g>
<g filter="url(#filter9_f_6_3613)">
<path d="M106.115 24.4505C111.264 24.468 116.196 26.5211 119.837 30.1619C123.478 33.8026 125.531 38.7354 125.549 43.8842V59.4512H144.999V43.8842C145.001 38.78 143.998 33.7254 142.047 29.009C140.096 24.2925 137.234 20.0066 133.627 16.3958C130.019 12.7851 125.736 9.9203 121.021 7.965C116.306 6.0097 111.252 5.00219 106.148 5H90.5479V24.4505H106.115Z" fill="#FBBC05"/>
<path d="M24.4495 43.8842C24.4671 38.7354 26.5201 33.8026 30.1609 30.1619C33.8016 26.5211 38.7345 24.468 43.8832 24.4505H59.4503V5H43.8832C38.7791 4.99781 33.7245 6.00098 29.008 7.95224C24.2915 9.90349 20.0056 12.7646 16.3948 16.3723C12.7841 19.9799 9.91932 24.2634 7.96403 28.9782C6.00873 33.693 5.00121 38.7467 4.99902 43.8509V59.4179H24.4495V43.8842Z" fill="#EA4335"/>
<path d="M43.8832 125.553C38.7345 125.535 33.8016 123.482 30.1609 119.841C26.5201 116.201 24.4671 111.268 24.4495 106.119V90.552H4.99903V106.119C4.99684 111.223 6.00001 116.278 7.95126 120.994C9.90252 125.711 12.7637 129.997 16.3713 133.607C19.9789 137.218 24.2624 140.083 28.9772 142.038C33.692 143.994 38.7457 145.001 43.8499 145.003H59.4503V125.553H43.8832Z" fill="#4285F4"/>
<path d="M121.671 137.22C124.747 137.22 127.754 136.308 130.311 134.599C132.868 132.89 134.861 130.462 136.038 127.62C137.215 124.779 137.523 121.652 136.923 118.636C136.323 115.619 134.842 112.848 132.667 110.674C130.492 108.499 127.722 107.018 124.705 106.418C121.689 105.818 118.562 106.126 115.721 107.303C112.879 108.48 110.45 110.473 108.742 113.03C107.033 115.587 106.121 118.594 106.121 121.669C106.121 125.794 107.759 129.749 110.676 132.665C113.592 135.581 117.547 137.22 121.671 137.22Z" fill="#34A853"/>
<path d="M75.0038 102.219C80.3868 102.219 85.649 100.622 90.1248 97.6318C94.6007 94.6411 98.0893 90.3904 100.149 85.4171C102.209 80.4438 102.748 74.9713 101.698 69.6917C100.648 64.412 98.0557 59.5624 94.2493 55.756C90.4429 51.9495 85.5933 49.3573 80.3136 48.3072C75.034 47.257 69.5615 47.796 64.5882 49.856C59.6149 51.916 55.3641 55.4045 52.3734 59.8804C49.3827 64.3563 47.7865 69.6184 47.7865 75.0015C47.7865 82.22 50.654 89.1428 55.7582 94.247C60.8625 99.3512 67.7853 102.219 75.0038 102.219Z" fill="#4285F4"/>
</g>
<g filter="url(#filter10_f_6_3613)">
<path d="M106.115 24.4505C111.264 24.468 116.196 26.5211 119.837 30.1619C123.478 33.8026 125.531 38.7354 125.549 43.8842V59.4512H144.999V43.8842C145.001 38.78 143.998 33.7254 142.047 29.009C140.096 24.2925 137.234 20.0066 133.627 16.3958C130.019 12.7851 125.736 9.9203 121.021 7.965C116.306 6.0097 111.252 5.00219 106.148 5H90.5479V24.4505H106.115Z" fill="#FBBC05"/>
<path d="M24.4495 43.8842C24.4671 38.7354 26.5201 33.8026 30.1609 30.1619C33.8016 26.5211 38.7345 24.468 43.8832 24.4505H59.4503V5H43.8832C38.7791 4.99781 33.7245 6.00098 29.008 7.95224C24.2915 9.90349 20.0056 12.7646 16.3948 16.3723C12.7841 19.9799 9.91932 24.2634 7.96403 28.9782C6.00873 33.693 5.00121 38.7467 4.99902 43.8509V59.4179H24.4495V43.8842Z" fill="#EA4335"/>
<path d="M43.8832 125.553C38.7345 125.535 33.8016 123.482 30.1609 119.841C26.5201 116.201 24.4671 111.268 24.4495 106.119V90.552H4.99903V106.119C4.99684 111.223 6.00001 116.278 7.95126 120.994C9.90252 125.711 12.7637 129.997 16.3713 133.607C19.9789 137.218 24.2624 140.083 28.9772 142.038C33.692 143.994 38.7457 145.001 43.8499 145.003H59.4503V125.553H43.8832Z" fill="#4285F4"/>
<path d="M121.671 137.22C124.747 137.22 127.754 136.308 130.311 134.599C132.868 132.89 134.861 130.462 136.038 127.62C137.215 124.779 137.523 121.652 136.923 118.636C136.323 115.619 134.842 112.848 132.667 110.674C130.492 108.499 127.722 107.018 124.705 106.418C121.689 105.818 118.562 106.126 115.721 107.303C112.879 108.48 110.45 110.473 108.742 113.03C107.033 115.587 106.121 118.594 106.121 121.669C106.121 125.794 107.759 129.749 110.676 132.665C113.592 135.581 117.547 137.22 121.671 137.22Z" fill="#34A853"/>
<path d="M75.0038 102.219C80.3868 102.219 85.649 100.622 90.1248 97.6318C94.6007 94.6411 98.0893 90.3904 100.149 85.4171C102.209 80.4438 102.748 74.9713 101.698 69.6917C100.648 64.412 98.0557 59.5624 94.2493 55.756C90.4429 51.9495 85.5933 49.3573 80.3136 48.3072C75.034 47.257 69.5615 47.796 64.5882 49.856C59.6149 51.916 55.3641 55.4045 52.3734 59.8804C49.3827 64.3563 47.7865 69.6184 47.7865 75.0015C47.7865 82.22 50.654 89.1428 55.7582 94.247C60.8625 99.3512 67.7853 102.219 75.0038 102.219Z" fill="#4285F4"/>
</g>
<g filter="url(#filter11_f_6_3613)">
<path d="M106.115 24.4505C111.264 24.468 116.196 26.5211 119.837 30.1619C123.478 33.8026 125.531 38.7354 125.549 43.8842V59.4512H144.999V43.8842C145.001 38.78 143.998 33.7254 142.047 29.009C140.096 24.2925 137.234 20.0066 133.627 16.3958C130.019 12.7851 125.736 9.9203 121.021 7.965C116.306 6.0097 111.252 5.00219 106.148 5H90.5479V24.4505H106.115Z" fill="#FBBC05"/>
<path d="M24.4495 43.8842C24.4671 38.7354 26.5201 33.8026 30.1609 30.1619C33.8016 26.5211 38.7345 24.468 43.8832 24.4505H59.4503V5H43.8832C38.7791 4.99781 33.7245 6.00098 29.008 7.95224C24.2915 9.90349 20.0056 12.7646 16.3948 16.3723C12.7841 19.9799 9.91932 24.2634 7.96403 28.9782C6.00873 33.693 5.00121 38.7467 4.99902 43.8509V59.4179H24.4495V43.8842Z" fill="#EA4335"/>
<path d="M43.8832 125.553C38.7345 125.535 33.8016 123.482 30.1609 119.841C26.5201 116.201 24.4671 111.268 24.4495 106.119V90.552H4.99903V106.119C4.99684 111.223 6.00001 116.278 7.95126 120.994C9.90252 125.711 12.7637 129.997 16.3713 133.607C19.9789 137.218 24.2624 140.083 28.9772 142.038C33.692 143.994 38.7457 145.001 43.8499 145.003H59.4503V125.553H43.8832Z" fill="#4285F4"/>
<path d="M121.671 137.22C124.747 137.22 127.754 136.308 130.311 134.599C132.868 132.89 134.861 130.462 136.038 127.62C137.215 124.779 137.523 121.652 136.923 118.636C136.323 115.619 134.842 112.848 132.667 110.674C130.492 108.499 127.722 107.018 124.705 106.418C121.689 105.818 118.562 106.126 115.721 107.303C112.879 108.48 110.45 110.473 108.742 113.03C107.033 115.587 106.121 118.594 106.121 121.669C106.121 125.794 107.759 129.749 110.676 132.665C113.592 135.581 117.547 137.22 121.671 137.22Z" fill="#34A853"/>
<path d="M75.0038 102.219C80.3868 102.219 85.649 100.622 90.1248 97.6318C94.6007 94.6411 98.0893 90.3904 100.149 85.4171C102.209 80.4438 102.748 74.9713 101.698 69.6917C100.648 64.412 98.0557 59.5624 94.2493 55.756C90.4429 51.9495 85.5933 49.3573 80.3136 48.3072C75.034 47.257 69.5615 47.796 64.5882 49.856C59.6149 51.916 55.3641 55.4045 52.3734 59.8804C49.3827 64.3563 47.7865 69.6184 47.7865 75.0015C47.7865 82.22 50.654 89.1428 55.7582 94.247C60.8625 99.3512 67.7853 102.219 75.0038 102.219Z" fill="#4285F4"/>
</g>
<g filter="url(#filter12_f_6_3613)">
<path d="M106.115 24.4505C111.264 24.468 116.196 26.5211 119.837 30.1619C123.478 33.8026 125.531 38.7354 125.549 43.8842V59.4512H144.999V43.8842C145.001 38.78 143.998 33.7254 142.047 29.009C140.096 24.2925 137.234 20.0066 133.627 16.3958C130.019 12.7851 125.736 9.9203 121.021 7.965C116.306 6.0097 111.252 5.00219 106.148 5H90.5479V24.4505H106.115Z" fill="#FBBC05"/>
<path d="M24.4495 43.8842C24.4671 38.7354 26.5201 33.8026 30.1609 30.1619C33.8016 26.5211 38.7345 24.468 43.8832 24.4505H59.4503V5H43.8832C38.7791 4.99781 33.7245 6.00098 29.008 7.95224C24.2915 9.90349 20.0056 12.7646 16.3948 16.3723C12.7841 19.9799 9.91932 24.2634 7.96403 28.9782C6.00873 33.693 5.00121 38.7467 4.99902 43.8509V59.4179H24.4495V43.8842Z" fill="#EA4335"/>
<path d="M43.8832 125.553C38.7345 125.535 33.8016 123.482 30.1609 119.841C26.5201 116.201 24.4671 111.268 24.4495 106.119V90.552H4.99903V106.119C4.99684 111.223 6.00001 116.278 7.95126 120.994C9.90252 125.711 12.7637 129.997 16.3713 133.607C19.9789 137.218 24.2624 140.083 28.9772 142.038C33.692 143.994 38.7457 145.001 43.8499 145.003H59.4503V125.553H43.8832Z" fill="#4285F4"/>
<path d="M121.671 137.22C124.747 137.22 127.754 136.308 130.311 134.599C132.868 132.89 134.861 130.462 136.038 127.62C137.215 124.779 137.523 121.652 136.923 118.636C136.323 115.619 134.842 112.848 132.667 110.674C130.492 108.499 127.722 107.018 124.705 106.418C121.689 105.818 118.562 106.126 115.721 107.303C112.879 108.48 110.45 110.473 108.742 113.03C107.033 115.587 106.121 118.594 106.121 121.669C106.121 125.794 107.759 129.749 110.676 132.665C113.592 135.581 117.547 137.22 121.671 137.22Z" fill="#34A853"/>
<path d="M75.0038 102.219C80.3868 102.219 85.649 100.622 90.1248 97.6318C94.6007 94.6411 98.0893 90.3904 100.149 85.4171C102.209 80.4438 102.748 74.9713 101.698 69.6917C100.648 64.412 98.0557 59.5624 94.2493 55.756C90.4429 51.9495 85.5933 49.3573 80.3136 48.3072C75.034 47.257 69.5615 47.796 64.5882 49.856C59.6149 51.916 55.3641 55.4045 52.3734 59.8804C49.3827 64.3563 47.7865 69.6184 47.7865 75.0015C47.7865 82.22 50.654 89.1428 55.7582 94.247C60.8625 99.3512 67.7853 102.219 75.0038 102.219Z" fill="#4285F4"/>
</g>
<g filter="url(#filter13_f_6_3613)">
<path d="M106.115 24.4505C111.264 24.468 116.196 26.5211 119.837 30.1619C123.478 33.8026 125.531 38.7354 125.549 43.8842V59.4512H144.999V43.8842C145.001 38.78 143.998 33.7254 142.047 29.009C140.096 24.2925 137.234 20.0066 133.627 16.3958C130.019 12.7851 125.736 9.9203 121.021 7.965C116.306 6.0097 111.252 5.00219 106.148 5H90.5479V24.4505H106.115Z" fill="#FBBC05"/>
<path d="M24.4495 43.8842C24.4671 38.7354 26.5201 33.8026 30.1609 30.1619C33.8016 26.5211 38.7345 24.468 43.8832 24.4505H59.4503V5H43.8832C38.7791 4.99781 33.7245 6.00098 29.008 7.95224C24.2915 9.90349 20.0056 12.7646 16.3948 16.3723C12.7841 19.9799 9.91932 24.2634 7.96403 28.9782C6.00873 33.693 5.00121 38.7467 4.99902 43.8509V59.4179H24.4495V43.8842Z" fill="#EA4335"/>
<path d="M43.8832 125.553C38.7345 125.535 33.8016 123.482 30.1609 119.841C26.5201 116.201 24.4671 111.268 24.4495 106.119V90.552H4.99903V106.119C4.99684 111.223 6.00001 116.278 7.95126 120.994C9.90252 125.711 12.7637 129.997 16.3713 133.607C19.9789 137.218 24.2624 140.083 28.9772 142.038C33.692 143.994 38.7457 145.001 43.8499 145.003H59.4503V125.553H43.8832Z" fill="#4285F4"/>
<path d="M121.671 137.22C124.747 137.22 127.754 136.308 130.311 134.599C132.868 132.89 134.861 130.462 136.038 127.62C137.215 124.779 137.523 121.652 136.923 118.636C136.323 115.619 134.842 112.848 132.667 110.674C130.492 108.499 127.722 107.018 124.705 106.418C121.689 105.818 118.562 106.126 115.721 107.303C112.879 108.48 110.45 110.473 108.742 113.03C107.033 115.587 106.121 118.594 106.121 121.669C106.121 125.794 107.759 129.749 110.676 132.665C113.592 135.581 117.547 137.22 121.671 137.22Z" fill="#34A853"/>
<path d="M75.0038 102.219C80.3868 102.219 85.649 100.622 90.1248 97.6318C94.6007 94.6411 98.0893 90.3904 100.149 85.4171C102.209 80.4438 102.748 74.9713 101.698 69.6917C100.648 64.412 98.0557 59.5624 94.2493 55.756C90.4429 51.9495 85.5933 49.3573 80.3136 48.3072C75.034 47.257 69.5615 47.796 64.5882 49.856C59.6149 51.916 55.3641 55.4045 52.3734 59.8804C49.3827 64.3563 47.7865 69.6184 47.7865 75.0015C47.7865 82.22 50.654 89.1428 55.7582 94.247C60.8625 99.3512 67.7853 102.219 75.0038 102.219Z" fill="#4285F4"/>
</g>
<g filter="url(#filter14_f_6_3613)">
<path d="M106.115 24.4505C111.264 24.468 116.196 26.5211 119.837 30.1619C123.478 33.8026 125.531 38.7354 125.549 43.8842V59.4512H144.999V43.8842C145.001 38.78 143.998 33.7254 142.047 29.009C140.096 24.2925 137.234 20.0066 133.627 16.3958C130.019 12.7851 125.736 9.9203 121.021 7.965C116.306 6.0097 111.252 5.00219 106.148 5H90.5479V24.4505H106.115Z" fill="#FBBC05"/>
<path d="M24.4495 43.8842C24.4671 38.7354 26.5201 33.8026 30.1609 30.1619C33.8016 26.5211 38.7345 24.468 43.8832 24.4505H59.4503V5H43.8832C38.7791 4.99781 33.7245 6.00098 29.008 7.95224C24.2915 9.90349 20.0056 12.7646 16.3948 16.3723C12.7841 19.9799 9.91932 24.2634 7.96403 28.9782C6.00873 33.693 5.00121 38.7467 4.99902 43.8509V59.4179H24.4495V43.8842Z" fill="#EA4335"/>
<path d="M43.8832 125.553C38.7345 125.535 33.8016 123.482 30.1609 119.841C26.5201 116.201 24.4671 111.268 24.4495 106.119V90.552H4.99903V106.119C4.99684 111.223 6.00001 116.278 7.95126 120.994C9.90252 125.711 12.7637 129.997 16.3713 133.607C19.9789 137.218 24.2624 140.083 28.9772 142.038C33.692 143.994 38.7457 145.001 43.8499 145.003H59.4503V125.553H43.8832Z" fill="#4285F4"/>
<path d="M121.671 137.22C124.747 137.22 127.754 136.308 130.311 134.599C132.868 132.89 134.861 130.462 136.038 127.62C137.215 124.779 137.523 121.652 136.923 118.636C136.323 115.619 134.842 112.848 132.667 110.674C130.492 108.499 127.722 107.018 124.705 106.418C121.689 105.818 118.562 106.126 115.721 107.303C112.879 108.48 110.45 110.473 108.742 113.03C107.033 115.587 106.121 118.594 106.121 121.669C106.121 125.794 107.759 129.749 110.676 132.665C113.592 135.581 117.547 137.22 121.671 137.22Z" fill="#34A853"/>
<path d="M75.0038 102.219C80.3868 102.219 85.649 100.622 90.1248 97.6318C94.6007 94.6411 98.0893 90.3904 100.149 85.4171C102.209 80.4438 102.748 74.9713 101.698 69.6917C100.648 64.412 98.0557 59.5624 94.2493 55.756C90.4429 51.9495 85.5933 49.3573 80.3136 48.3072C75.034 47.257 69.5615 47.796 64.5882 49.856C59.6149 51.916 55.3641 55.4045 52.3734 59.8804C49.3827 64.3563 47.7865 69.6184 47.7865 75.0015C47.7865 82.22 50.654 89.1428 55.7582 94.247C60.8625 99.3512 67.7853 102.219 75.0038 102.219Z" fill="#4285F4"/>
</g>
<g filter="url(#filter15_f_6_3613)">
<path d="M106.115 24.4505C111.264 24.468 116.196 26.5211 119.837 30.1619C123.478 33.8026 125.531 38.7354 125.549 43.8842V59.4512H144.999V43.8842C145.001 38.78 143.998 33.7254 142.047 29.009C140.096 24.2925 137.234 20.0066 133.627 16.3958C130.019 12.7851 125.736 9.9203 121.021 7.965C116.306 6.0097 111.252 5.00219 106.148 5H90.5479V24.4505H106.115Z" fill="#FBBC05"/>
<path d="M24.4495 43.8842C24.4671 38.7354 26.5201 33.8026 30.1609 30.1619C33.8016 26.5211 38.7345 24.468 43.8832 24.4505H59.4503V5H43.8832C38.7791 4.99781 33.7245 6.00098 29.008 7.95224C24.2915 9.90349 20.0056 12.7646 16.3948 16.3723C12.7841 19.9799 9.91932 24.2634 7.96403 28.9782C6.00873 33.693 5.00121 38.7467 4.99902 43.8509V59.4179H24.4495V43.8842Z" fill="#EA4335"/>
<path d="M43.8832 125.553C38.7345 125.535 33.8016 123.482 30.1609 119.841C26.5201 116.201 24.4671 111.268 24.4495 106.119V90.552H4.99903V106.119C4.99684 111.223 6.00001 116.278 7.95126 120.994C9.90252 125.711 12.7637 129.997 16.3713 133.607C19.9789 137.218 24.2624 140.083 28.9772 142.038C33.692 143.994 38.7457 145.001 43.8499 145.003H59.4503V125.553H43.8832Z" fill="#4285F4"/>
<path d="M121.671 137.22C124.747 137.22 127.754 136.308 130.311 134.599C132.868 132.89 134.861 130.462 136.038 127.62C137.215 124.779 137.523 121.652 136.923 118.636C136.323 115.619 134.842 112.848 132.667 110.674C130.492 108.499 127.722 107.018 124.705 106.418C121.689 105.818 118.562 106.126 115.721 107.303C112.879 108.48 110.45 110.473 108.742 113.03C107.033 115.587 106.121 118.594 106.121 121.669C106.121 125.794 107.759 129.749 110.676 132.665C113.592 135.581 117.547 137.22 121.671 137.22Z" fill="#34A853"/>
<path d="M75.0038 102.219C80.3868 102.219 85.649 100.622 90.1248 97.6318C94.6007 94.6411 98.0893 90.3904 100.149 85.4171C102.209 80.4438 102.748 74.9713 101.698 69.6917C100.648 64.412 98.0557 59.5624 94.2493 55.756C90.4429 51.9495 85.5933 49.3573 80.3136 48.3072C75.034 47.257 69.5615 47.796 64.5882 49.856C59.6149 51.916 55.3641 55.4045 52.3734 59.8804C49.3827 64.3563 47.7865 69.6184 47.7865 75.0015C47.7865 82.22 50.654 89.1428 55.7582 94.247C60.8625 99.3512 67.7853 102.219 75.0038 102.219Z" fill="#4285F4"/>
</g>
<g filter="url(#filter16_f_6_3613)">
<path d="M106.115 24.4505C111.264 24.468 116.196 26.5211 119.837 30.1619C123.478 33.8026 125.531 38.7354 125.549 43.8842V59.4512H144.999V43.8842C145.001 38.78 143.998 33.7254 142.047 29.009C140.096 24.2925 137.234 20.0066 133.627 16.3958C130.019 12.7851 125.736 9.9203 121.021 7.965C116.306 6.0097 111.252 5.00219 106.148 5H90.5479V24.4505H106.115Z" fill="#FBBC05"/>
<path d="M24.4495 43.8842C24.4671 38.7354 26.5201 33.8026 30.1609 30.1619C33.8016 26.5211 38.7345 24.468 43.8832 24.4505H59.4503V5H43.8832C38.7791 4.99781 33.7245 6.00098 29.008 7.95224C24.2915 9.90349 20.0056 12.7646 16.3948 16.3723C12.7841 19.9799 9.91932 24.2634 7.96403 28.9782C6.00873 33.693 5.00121 38.7467 4.99902 43.8509V59.4179H24.4495V43.8842Z" fill="#EA4335"/>
<path d="M43.8832 125.553C38.7345 125.535 33.8016 123.482 30.1609 119.841C26.5201 116.201 24.4671 111.268 24.4495 106.119V90.552H4.99903V106.119C4.99684 111.223 6.00001 116.278 7.95126 120.994C9.90252 125.711 12.7637 129.997 16.3713 133.607C19.9789 137.218 24.2624 140.083 28.9772 142.038C33.692 143.994 38.7457 145.001 43.8499 145.003H59.4503V125.553H43.8832Z" fill="#4285F4"/>
<path d="M121.671 137.22C124.747 137.22 127.754 136.308 130.311 134.599C132.868 132.89 134.861 130.462 136.038 127.62C137.215 124.779 137.523 121.652 136.923 118.636C136.323 115.619 134.842 112.848 132.667 110.674C130.492 108.499 127.722 107.018 124.705 106.418C121.689 105.818 118.562 106.126 115.721 107.303C112.879 108.48 110.45 110.473 108.742 113.03C107.033 115.587 106.121 118.594 106.121 121.669C106.121 125.794 107.759 129.749 110.676 132.665C113.592 135.581 117.547 137.22 121.671 137.22Z" fill="#34A853"/>
<path d="M75.0038 102.219C80.3868 102.219 85.649 100.622 90.1248 97.6318C94.6007 94.6411 98.0893 90.3904 100.149 85.4171C102.209 80.4438 102.748 74.9713 101.698 69.6917C100.648 64.412 98.0557 59.5624 94.2493 55.756C90.4429 51.9495 85.5933 49.3573 80.3136 48.3072C75.034 47.257 69.5615 47.796 64.5882 49.856C59.6149 51.916 55.3641 55.4045 52.3734 59.8804C49.3827 64.3563 47.7865 69.6184 47.7865 75.0015C47.7865 82.22 50.654 89.1428 55.7582 94.247C60.8625 99.3512 67.7853 102.219 75.0038 102.219Z" fill="#4285F4"/>
</g>
<g filter="url(#filter17_f_6_3613)">
<path d="M106.115 24.4505C111.264 24.468 116.196 26.5211 119.837 30.1619C123.478 33.8026 125.531 38.7354 125.549 43.8842V59.4512H144.999V43.8842C145.001 38.78 143.998 33.7254 142.047 29.009C140.096 24.2925 137.234 20.0066 133.627 16.3958C130.019 12.7851 125.736 9.9203 121.021 7.965C116.306 6.0097 111.252 5.00219 106.148 5H90.5479V24.4505H106.115Z" fill="#FBBC05"/>
<path d="M24.4495 43.8842C24.4671 38.7354 26.5201 33.8026 30.1609 30.1619C33.8016 26.5211 38.7345 24.468 43.8832 24.4505H59.4503V5H43.8832C38.7791 4.99781 33.7245 6.00098 29.008 7.95224C24.2915 9.90349 20.0056 12.7646 16.3948 16.3723C12.7841 19.9799 9.91932 24.2634 7.96403 28.9782C6.00873 33.693 5.00121 38.7467 4.99902 43.8509V59.4179H24.4495V43.8842Z" fill="#EA4335"/>
<path d="M43.8832 125.553C38.7345 125.535 33.8016 123.482 30.1609 119.841C26.5201 116.201 24.4671 111.268 24.4495 106.119V90.552H4.99903V106.119C4.99684 111.223 6.00001 116.278 7.95126 120.994C9.90252 125.711 12.7637 129.997 16.3713 133.607C19.9789 137.218 24.2624 140.083 28.9772 142.038C33.692 143.994 38.7457 145.001 43.8499 145.003H59.4503V125.553H43.8832Z" fill="#4285F4"/>
<path d="M121.671 137.22C124.747 137.22 127.754 136.308 130.311 134.599C132.868 132.89 134.861 130.462 136.038 127.62C137.215 124.779 137.523 121.652 136.923 118.636C136.323 115.619 134.842 112.848 132.667 110.674C130.492 108.499 127.722 107.018 124.705 106.418C121.689 105.818 118.562 106.126 115.721 107.303C112.879 108.48 110.45 110.473 108.742 113.03C107.033 115.587 106.121 118.594 106.121 121.669C106.121 125.794 107.759 129.749 110.676 132.665C113.592 135.581 117.547 137.22 121.671 137.22Z" fill="#34A853"/>
<path d="M75.0038 102.219C80.3868 102.219 85.649 100.622 90.1248 97.6318C94.6007 94.6411 98.0893 90.3904 100.149 85.4171C102.209 80.4438 102.748 74.9713 101.698 69.6917C100.648 64.412 98.0557 59.5624 94.2493 55.756C90.4429 51.9495 85.5933 49.3573 80.3136 48.3072C75.034 47.257 69.5615 47.796 64.5882 49.856C59.6149 51.916 55.3641 55.4045 52.3734 59.8804C49.3827 64.3563 47.7865 69.6184 47.7865 75.0015C47.7865 82.22 50.654 89.1428 55.7582 94.247C60.8625 99.3512 67.7853 102.219 75.0038 102.219Z" fill="#4285F4"/>
</g>
<g filter="url(#filter18_f_6_3613)">
<path d="M106.115 24.4505C111.264 24.468 116.196 26.5211 119.837 30.1619C123.478 33.8026 125.531 38.7354 125.549 43.8842V59.4512H144.999V43.8842C145.001 38.78 143.998 33.7254 142.047 29.009C140.096 24.2925 137.234 20.0066 133.627 16.3958C130.019 12.7851 125.736 9.9203 121.021 7.965C116.306 6.0097 111.252 5.00219 106.148 5H90.5479V24.4505H106.115Z" fill="#FBBC05"/>
<path d="M24.4495 43.8842C24.4671 38.7354 26.5201 33.8026 30.1609 30.1619C33.8016 26.5211 38.7345 24.468 43.8832 24.4505H59.4503V5H43.8832C38.7791 4.99781 33.7245 6.00098 29.008 7.95224C24.2915 9.90349 20.0056 12.7646 16.3948 16.3723C12.7841 19.9799 9.91932 24.2634 7.96403 28.9782C6.00873 33.693 5.00121 38.7467 4.99902 43.8509V59.4179H24.4495V43.8842Z" fill="#EA4335"/>
<path d="M43.8832 125.553C38.7345 125.535 33.8016 123.482 30.1609 119.841C26.5201 116.201 24.4671 111.268 24.4495 106.119V90.552H4.99903V106.119C4.99684 111.223 6.00001 116.278 7.95126 120.994C9.90252 125.711 12.7637 129.997 16.3713 133.607C19.9789 137.218 24.2624 140.083 28.9772 142.038C33.692 143.994 38.7457 145.001 43.8499 145.003H59.4503V125.553H43.8832Z" fill="#4285F4"/>
<path d="M121.671 137.22C124.747 137.22 127.754 136.308 130.311 134.599C132.868 132.89 134.861 130.462 136.038 127.62C137.215 124.779 137.523 121.652 136.923 118.636C136.323 115.619 134.842 112.848 132.667 110.674C130.492 108.499 127.722 107.018 124.705 106.418C121.689 105.818 118.562 106.126 115.721 107.303C112.879 108.48 110.45 110.473 108.742 113.03C107.033 115.587 106.121 118.594 106.121 121.669C106.121 125.794 107.759 129.749 110.676 132.665C113.592 135.581 117.547 137.22 121.671 137.22Z" fill="#34A853"/>
<path d="M75.0038 102.219C80.3868 102.219 85.649 100.622 90.1248 97.6318C94.6007 94.6411 98.0893 90.3904 100.149 85.4171C102.209 80.4438 102.748 74.9713 101.698 69.6917C100.648 64.412 98.0557 59.5624 94.2493 55.756C90.4429 51.9495 85.5933 49.3573 80.3136 48.3072C75.034 47.257 69.5615 47.796 64.5882 49.856C59.6149 51.916 55.3641 55.4045 52.3734 59.8804C49.3827 64.3563 47.7865 69.6184 47.7865 75.0015C47.7865 82.22 50.654 89.1428 55.7582 94.247C60.8625 99.3512 67.7853 102.219 75.0038 102.219Z" fill="#4285F4"/>
</g>
<g filter="url(#filter19_f_6_3613)">
<path d="M106.115 24.4505C111.264 24.468 116.196 26.5211 119.837 30.1619C123.478 33.8026 125.531 38.7354 125.549 43.8842V59.4512H144.999V43.8842C145.001 38.78 143.998 33.7254 142.047 29.009C140.096 24.2925 137.234 20.0066 133.627 16.3958C130.019 12.7851 125.736 9.9203 121.021 7.965C116.306 6.0097 111.252 5.00219 106.148 5H90.5479V24.4505H106.115Z" fill="#FBBC05"/>
<path d="M24.4495 43.8842C24.4671 38.7354 26.5201 33.8026 30.1609 30.1619C33.8016 26.5211 38.7345 24.468 43.8832 24.4505H59.4503V5H43.8832C38.7791 4.99781 33.7245 6.00098 29.008 7.95224C24.2915 9.90349 20.0056 12.7646 16.3948 16.3723C12.7841 19.9799 9.91932 24.2634 7.96403 28.9782C6.00873 33.693 5.00121 38.7467 4.99902 43.8509V59.4179H24.4495V43.8842Z" fill="#EA4335"/>
<path d="M43.8832 125.553C38.7345 125.535 33.8016 123.482 30.1609 119.841C26.5201 116.201 24.4671 111.268 24.4495 106.119V90.552H4.99903V106.119C4.99684 111.223 6.00001 116.278 7.95126 120.994C9.90252 125.711 12.7637 129.997 16.3713 133.607C19.9789 137.218 24.2624 140.083 28.9772 142.038C33.692 143.994 38.7457 145.001 43.8499 145.003H59.4503V125.553H43.8832Z" fill="#4285F4"/>
<path d="M121.671 137.22C124.747 137.22 127.754 136.308 130.311 134.599C132.868 132.89 134.861 130.462 136.038 127.62C137.215 124.779 137.523 121.652 136.923 118.636C136.323 115.619 134.842 112.848 132.667 110.674C130.492 108.499 127.722 107.018 124.705 106.418C121.689 105.818 118.562 106.126 115.721 107.303C112.879 108.48 110.45 110.473 108.742 113.03C107.033 115.587 106.121 118.594 106.121 121.669C106.121 125.794 107.759 129.749 110.676 132.665C113.592 135.581 117.547 137.22 121.671 137.22Z" fill="#34A853"/>
<path d="M75.0038 102.219C80.3868 102.219 85.649 100.622 90.1248 97.6318C94.6007 94.6411 98.0893 90.3904 100.149 85.4171C102.209 80.4438 102.748 74.9713 101.698 69.6917C100.648 64.412 98.0557 59.5624 94.2493 55.756C90.4429 51.9495 85.5933 49.3573 80.3136 48.3072C75.034 47.257 69.5615 47.796 64.5882 49.856C59.6149 51.916 55.3641 55.4045 52.3734 59.8804C49.3827 64.3563 47.7865 69.6184 47.7865 75.0015C47.7865 82.22 50.654 89.1428 55.7582 94.247C60.8625 99.3512 67.7853 102.219 75.0038 102.219Z" fill="#4285F4"/>
</g>
<g filter="url(#filter20_f_6_3613)">
<path d="M106.115 24.4505C111.264 24.468 116.196 26.5211 119.837 30.1619C123.478 33.8026 125.531 38.7354 125.549 43.8842V59.4512H144.999V43.8842C145.001 38.78 143.998 33.7254 142.047 29.009C140.096 24.2925 137.234 20.0066 133.627 16.3958C130.019 12.7851 125.736 9.9203 121.021 7.965C116.306 6.0097 111.252 5.00219 106.148 5H90.5479V24.4505H106.115Z" fill="#FBBC05"/>
<path d="M24.4495 43.8842C24.4671 38.7354 26.5201 33.8026 30.1609 30.1619C33.8016 26.5211 38.7345 24.468 43.8832 24.4505H59.4503V5H43.8832C38.7791 4.99781 33.7245 6.00098 29.008 7.95224C24.2915 9.90349 20.0056 12.7646 16.3948 16.3723C12.7841 19.9799 9.91932 24.2634 7.96403 28.9782C6.00873 33.693 5.00121 38.7467 4.99902 43.8509V59.4179H24.4495V43.8842Z" fill="#EA4335"/>
<path d="M43.8832 125.553C38.7345 125.535 33.8016 123.482 30.1609 119.841C26.5201 116.201 24.4671 111.268 24.4495 106.119V90.552H4.99903V106.119C4.99684 111.223 6.00001 116.278 7.95126 120.994C9.90252 125.711 12.7637 129.997 16.3713 133.607C19.9789 137.218 24.2624 140.083 28.9772 142.038C33.692 143.994 38.7457 145.001 43.8499 145.003H59.4503V125.553H43.8832Z" fill="#4285F4"/>
<path d="M121.671 137.22C124.747 137.22 127.754 136.308 130.311 134.599C132.868 132.89 134.861 130.462 136.038 127.62C137.215 124.779 137.523 121.652 136.923 118.636C136.323 115.619 134.842 112.848 132.667 110.674C130.492 108.499 127.722 107.018 124.705 106.418C121.689 105.818 118.562 106.126 115.721 107.303C112.879 108.48 110.45 110.473 108.742 113.03C107.033 115.587 106.121 118.594 106.121 121.669C106.121 125.794 107.759 129.749 110.676 132.665C113.592 135.581 117.547 137.22 121.671 137.22Z" fill="#34A853"/>
<path d="M75.0038 102.219C80.3868 102.219 85.649 100.622 90.1248 97.6318C94.6007 94.6411 98.0893 90.3904 100.149 85.4171C102.209 80.4438 102.748 74.9713 101.698 69.6917C100.648 64.412 98.0557 59.5624 94.2493 55.756C90.4429 51.9495 85.5933 49.3573 80.3136 48.3072C75.034 47.257 69.5615 47.796 64.5882 49.856C59.6149 51.916 55.3641 55.4045 52.3734 59.8804C49.3827 64.3563 47.7865 69.6184 47.7865 75.0015C47.7865 82.22 50.654 89.1428 55.7582 94.247C60.8625 99.3512 67.7853 102.219 75.0038 102.219Z" fill="#4285F4"/>
</g>
<g filter="url(#filter21_f_6_3613)">
<path d="M106.115 24.4505C111.264 24.468 116.196 26.5211 119.837 30.1619C123.478 33.8026 125.531 38.7354 125.549 43.8842V59.4512H144.999V43.8842C145.001 38.78 143.998 33.7254 142.047 29.009C140.096 24.2925 137.234 20.0066 133.627 16.3958C130.019 12.7851 125.736 9.9203 121.021 7.965C116.306 6.0097 111.252 5.00219 106.148 5H90.5479V24.4505H106.115Z" fill="#FBBC05"/>
<path d="M24.4495 43.8842C24.4671 38.7354 26.5201 33.8026 30.1609 30.1619C33.8016 26.5211 38.7345 24.468 43.8832 24.4505H59.4503V5H43.8832C38.7791 4.99781 33.7245 6.00098 29.008 7.95224C24.2915 9.90349 20.0056 12.7646 16.3948 16.3723C12.7841 19.9799 9.91932 24.2634 7.96403 28.9782C6.00873 33.693 5.00121 38.7467 4.99902 43.8509V59.4179H24.4495V43.8842Z" fill="#EA4335"/>
<path d="M43.8832 125.553C38.7345 125.535 33.8016 123.482 30.1609 119.841C26.5201 116.201 24.4671 111.268 24.4495 106.119V90.552H4.99903V106.119C4.99684 111.223 6.00001 116.278 7.95126 120.994C9.90252 125.711 12.7637 129.997 16.3713 133.607C19.9789 137.218 24.2624 140.083 28.9772 142.038C33.692 143.994 38.7457 145.001 43.8499 145.003H59.4503V125.553H43.8832Z" fill="#4285F4"/>
<path d="M121.671 137.22C124.747 137.22 127.754 136.308 130.311 134.599C132.868 132.89 134.861 130.462 136.038 127.62C137.215 124.779 137.523 121.652 136.923 118.636C136.323 115.619 134.842 112.848 132.667 110.674C130.492 108.499 127.722 107.018 124.705 106.418C121.689 105.818 118.562 106.126 115.721 107.303C112.879 108.48 110.45 110.473 108.742 113.03C107.033 115.587 106.121 118.594 106.121 121.669C106.121 125.794 107.759 129.749 110.676 132.665C113.592 135.581 117.547 137.22 121.671 137.22Z" fill="#34A853"/>
<path d="M75.0038 102.219C80.3868 102.219 85.649 100.622 90.1248 97.6318C94.6007 94.6411 98.0893 90.3904 100.149 85.4171C102.209 80.4438 102.748 74.9713 101.698 69.6917C100.648 64.412 98.0557 59.5624 94.2493 55.756C90.4429 51.9495 85.5933 49.3573 80.3136 48.3072C75.034 47.257 69.5615 47.796 64.5882 49.856C59.6149 51.916 55.3641 55.4045 52.3734 59.8804C49.3827 64.3563 47.7865 69.6184 47.7865 75.0015C47.7865 82.22 50.654 89.1428 55.7582 94.247C60.8625 99.3512 67.7853 102.219 75.0038 102.219Z" fill="#4285F4"/>
</g>
<g filter="url(#filter22_f_6_3613)">
<path d="M106.115 24.4505C111.264 24.468 116.196 26.5211 119.837 30.1619C123.478 33.8026 125.531 38.7354 125.549 43.8842V59.4512H144.999V43.8842C145.001 38.78 143.998 33.7254 142.047 29.009C140.096 24.2925 137.234 20.0066 133.627 16.3958C130.019 12.7851 125.736 9.9203 121.021 7.965C116.306 6.0097 111.252 5.00219 106.148 5H90.5479V24.4505H106.115Z" fill="#FBBC05"/>
<path d="M24.4495 43.8842C24.4671 38.7354 26.5201 33.8026 30.1609 30.1619C33.8016 26.5211 38.7345 24.468 43.8832 24.4505H59.4503V5H43.8832C38.7791 4.99781 33.7245 6.00098 29.008 7.95224C24.2915 9.90349 20.0056 12.7646 16.3948 16.3723C12.7841 19.9799 9.91932 24.2634 7.96403 28.9782C6.00873 33.693 5.00121 38.7467 4.99902 43.8509V59.4179H24.4495V43.8842Z" fill="#EA4335"/>
<path d="M43.8832 125.553C38.7345 125.535 33.8016 123.482 30.1609 119.841C26.5201 116.201 24.4671 111.268 24.4495 106.119V90.552H4.99903V106.119C4.99684 111.223 6.00001 116.278 7.95126 120.994C9.90252 125.711 12.7637 129.997 16.3713 133.607C19.9789 137.218 24.2624 140.083 28.9772 142.038C33.692 143.994 38.7457 145.001 43.8499 145.003H59.4503V125.553H43.8832Z" fill="#4285F4"/>
<path d="M121.671 137.22C124.747 137.22 127.754 136.308 130.311 134.599C132.868 132.89 134.861 130.462 136.038 127.62C137.215 124.779 137.523 121.652 136.923 118.636C136.323 115.619 134.842 112.848 132.667 110.674C130.492 108.499 127.722 107.018 124.705 106.418C121.689 105.818 118.562 106.126 115.721 107.303C112.879 108.48 110.45 110.473 108.742 113.03C107.033 115.587 106.121 118.594 106.121 121.669C106.121 125.794 107.759 129.749 110.676 132.665C113.592 135.581 117.547 137.22 121.671 137.22Z" fill="#34A853"/>
<path d="M75.0038 102.219C80.3868 102.219 85.649 100.622 90.1248 97.6318C94.6007 94.6411 98.0893 90.3904 100.149 85.4171C102.209 80.4438 102.748 74.9713 101.698 69.6917C100.648 64.412 98.0557 59.5624 94.2493 55.756C90.4429 51.9495 85.5933 49.3573 80.3136 48.3072C75.034 47.257 69.5615 47.796 64.5882 49.856C59.6149 51.916 55.3641 55.4045 52.3734 59.8804C49.3827 64.3563 47.7865 69.6184 47.7865 75.0015C47.7865 82.22 50.654 89.1428 55.7582 94.247C60.8625 99.3512 67.7853 102.219 75.0038 102.219Z" fill="#4285F4"/>
</g>
<g filter="url(#filter23_f_6_3613)">
<path d="M106.115 24.4505C111.264 24.468 116.196 26.5211 119.837 30.1619C123.478 33.8026 125.531 38.7354 125.549 43.8842V59.4512H144.999V43.8842C145.001 38.78 143.998 33.7254 142.047 29.009C140.096 24.2925 137.234 20.0066 133.627 16.3958C130.019 12.7851 125.736 9.9203 121.021 7.965C116.306 6.0097 111.252 5.00219 106.148 5H90.5479V24.4505H106.115Z" fill="#FBBC05"/>
<path d="M24.4495 43.8842C24.4671 38.7354 26.5201 33.8026 30.1609 30.1619C33.8016 26.5211 38.7345 24.468 43.8832 24.4505H59.4503V5H43.8832C38.7791 4.99781 33.7245 6.00098 29.008 7.95224C24.2915 9.90349 20.0056 12.7646 16.3948 16.3723C12.7841 19.9799 9.91932 24.2634 7.96403 28.9782C6.00873 33.693 5.00121 38.7467 4.99902 43.8509V59.4179H24.4495V43.8842Z" fill="#EA4335"/>
<path d="M43.8832 125.553C38.7345 125.535 33.8016 123.482 30.1609 119.841C26.5201 116.201 24.4671 111.268 24.4495 106.119V90.552H4.99903V106.119C4.99684 111.223 6.00001 116.278 7.95126 120.994C9.90252 125.711 12.7637 129.997 16.3713 133.607C19.9789 137.218 24.2624 140.083 28.9772 142.038C33.692 143.994 38.7457 145.001 43.8499 145.003H59.4503V125.553H43.8832Z" fill="#4285F4"/>
<path d="M121.671 137.22C124.747 137.22 127.754 136.308 130.311 134.599C132.868 132.89 134.861 130.462 136.038 127.62C137.215 124.779 137.523 121.652 136.923 118.636C136.323 115.619 134.842 112.848 132.667 110.674C130.492 108.499 127.722 107.018 124.705 106.418C121.689 105.818 118.562 106.126 115.721 107.303C112.879 108.48 110.45 110.473 108.742 113.03C107.033 115.587 106.121 118.594 106.121 121.669C106.121 125.794 107.759 129.749 110.676 132.665C113.592 135.581 117.547 137.22 121.671 137.22Z" fill="#34A853"/>
<path d="M75.0038 102.219C80.3868 102.219 85.649 100.622 90.1248 97.6318C94.6007 94.6411 98.0893 90.3904 100.149 85.4171C102.209 80.4438 102.748 74.9713 101.698 69.6917C100.648 64.412 98.0557 59.5624 94.2493 55.756C90.4429 51.9495 85.5933 49.3573 80.3136 48.3072C75.034 47.257 69.5615 47.796 64.5882 49.856C59.6149 51.916 55.3641 55.4045 52.3734 59.8804C49.3827 64.3563 47.7865 69.6184 47.7865 75.0015C47.7865 82.22 50.654 89.1428 55.7582 94.247C60.8625 99.3512 67.7853 102.219 75.0038 102.219Z" fill="#4285F4"/>
</g>
<g filter="url(#filter24_f_6_3613)">
<path d="M106.115 24.4505C111.264 24.468 116.196 26.5211 119.837 30.1619C123.478 33.8026 125.531 38.7354 125.549 43.8842V59.4512H144.999V43.8842C145.001 38.78 143.998 33.7254 142.047 29.009C140.096 24.2925 137.234 20.0066 133.627 16.3958C130.019 12.7851 125.736 9.9203 121.021 7.965C116.306 6.0097 111.252 5.00219 106.148 5H90.5479V24.4505H106.115Z" fill="#FBBC05"/>
<path d="M24.4495 43.8842C24.4671 38.7354 26.5201 33.8026 30.1609 30.1619C33.8016 26.5211 38.7345 24.468 43.8832 24.4505H59.4503V5H43.8832C38.7791 4.99781 33.7245 6.00098 29.008 7.95224C24.2915 9.90349 20.0056 12.7646 16.3948 16.3723C12.7841 19.9799 9.91932 24.2634 7.96403 28.9782C6.00873 33.693 5.00121 38.7467 4.99902 43.8509V59.4179H24.4495V43.8842Z" fill="#EA4335"/>
<path d="M43.8832 125.553C38.7345 125.535 33.8016 123.482 30.1609 119.841C26.5201 116.201 24.4671 111.268 24.4495 106.119V90.552H4.99903V106.119C4.99684 111.223 6.00001 116.278 7.95126 120.994C9.90252 125.711 12.7637 129.997 16.3713 133.607C19.9789 137.218 24.2624 140.083 28.9772 142.038C33.692 143.994 38.7457 145.001 43.8499 145.003H59.4503V125.553H43.8832Z" fill="#4285F4"/>
<path d="M121.671 137.22C124.747 137.22 127.754 136.308 130.311 134.599C132.868 132.89 134.861 130.462 136.038 127.62C137.215 124.779 137.523 121.652 136.923 118.636C136.323 115.619 134.842 112.848 132.667 110.674C130.492 108.499 127.722 107.018 124.705 106.418C121.689 105.818 118.562 106.126 115.721 107.303C112.879 108.48 110.45 110.473 108.742 113.03C107.033 115.587 106.121 118.594 106.121 121.669C106.121 125.794 107.759 129.749 110.676 132.665C113.592 135.581 117.547 137.22 121.671 137.22Z" fill="#34A853"/>
<path d="M75.0038 102.219C80.3868 102.219 85.649 100.622 90.1248 97.6318C94.6007 94.6411 98.0893 90.3904 100.149 85.4171C102.209 80.4438 102.748 74.9713 101.698 69.6917C100.648 64.412 98.0557 59.5624 94.2493 55.756C90.4429 51.9495 85.5933 49.3573 80.3136 48.3072C75.034 47.257 69.5615 47.796 64.5882 49.856C59.6149 51.916 55.3641 55.4045 52.3734 59.8804C49.3827 64.3563 47.7865 69.6184 47.7865 75.0015C47.7865 82.22 50.654 89.1428 55.7582 94.247C60.8625 99.3512 67.7853 102.219 75.0038 102.219Z" fill="#4285F4"/>
</g>
<g filter="url(#filter25_f_6_3613)">
<path d="M106.115 24.4505C111.264 24.468 116.196 26.5211 119.837 30.1619C123.478 33.8026 125.531 38.7354 125.549 43.8842V59.4512H144.999V43.8842C145.001 38.78 143.998 33.7254 142.047 29.009C140.096 24.2925 137.234 20.0066 133.627 16.3958C130.019 12.7851 125.736 9.9203 121.021 7.965C116.306 6.0097 111.252 5.00219 106.148 5H90.5479V24.4505H106.115Z" fill="#FBBC05"/>
<path d="M24.4495 43.8842C24.4671 38.7354 26.5201 33.8026 30.1609 30.1619C33.8016 26.5211 38.7345 24.468 43.8832 24.4505H59.4503V5H43.8832C38.7791 4.99781 33.7245 6.00098 29.008 7.95224C24.2915 9.90349 20.0056 12.7646 16.3948 16.3723C12.7841 19.9799 9.91932 24.2634 7.96403 28.9782C6.00873 33.693 5.00121 38.7467 4.99902 43.8509V59.4179H24.4495V43.8842Z" fill="#EA4335"/>
<path d="M43.8832 125.553C38.7345 125.535 33.8016 123.482 30.1609 119.841C26.5201 116.201 24.4671 111.268 24.4495 106.119V90.552H4.99903V106.119C4.99684 111.223 6.00001 116.278 7.95126 120.994C9.90252 125.711 12.7637 129.997 16.3713 133.607C19.9789 137.218 24.2624 140.083 28.9772 142.038C33.692 143.994 38.7457 145.001 43.8499 145.003H59.4503V125.553H43.8832Z" fill="#4285F4"/>
<path d="M121.671 137.22C124.747 137.22 127.754 136.308 130.311 134.599C132.868 132.89 134.861 130.462 136.038 127.62C137.215 124.779 137.523 121.652 136.923 118.636C136.323 115.619 134.842 112.848 132.667 110.674C130.492 108.499 127.722 107.018 124.705 106.418C121.689 105.818 118.562 106.126 115.721 107.303C112.879 108.48 110.45 110.473 108.742 113.03C107.033 115.587 106.121 118.594 106.121 121.669C106.121 125.794 107.759 129.749 110.676 132.665C113.592 135.581 117.547 137.22 121.671 137.22Z" fill="#34A853"/>
<path d="M75.0038 102.219C80.3868 102.219 85.649 100.622 90.1248 97.6318C94.6007 94.6411 98.0893 90.3904 100.149 85.4171C102.209 80.4438 102.748 74.9713 101.698 69.6917C100.648 64.412 98.0557 59.5624 94.2493 55.756C90.4429 51.9495 85.5933 49.3573 80.3136 48.3072C75.034 47.257 69.5615 47.796 64.5882 49.856C59.6149 51.916 55.3641 55.4045 52.3734 59.8804C49.3827 64.3563 47.7865 69.6184 47.7865 75.0015C47.7865 82.22 50.654 89.1428 55.7582 94.247C60.8625 99.3512 67.7853 102.219 75.0038 102.219Z" fill="#4285F4"/>
</g>
<g filter="url(#filter26_f_6_3613)">
<path d="M106.115 24.4505C111.264 24.468 116.196 26.5211 119.837 30.1619C123.478 33.8026 125.531 38.7354 125.549 43.8842V59.4512H144.999V43.8842C145.001 38.78 143.998 33.7254 142.047 29.009C140.096 24.2925 137.234 20.0066 133.627 16.3958C130.019 12.7851 125.736 9.9203 121.021 7.965C116.306 6.0097 111.252 5.00219 106.148 5H90.5479V24.4505H106.115Z" fill="#FBBC05"/>
<path d="M24.4495 43.8842C24.4671 38.7354 26.5201 33.8026 30.1609 30.1619C33.8016 26.5211 38.7345 24.468 43.8832 24.4505H59.4503V5H43.8832C38.7791 4.99781 33.7245 6.00098 29.008 7.95224C24.2915 9.90349 20.0056 12.7646 16.3948 16.3723C12.7841 19.9799 9.91932 24.2634 7.96403 28.9782C6.00873 33.693 5.00121 38.7467 4.99902 43.8509V59.4179H24.4495V43.8842Z" fill="#EA4335"/>
<path d="M43.8832 125.553C38.7345 125.535 33.8016 123.482 30.1609 119.841C26.5201 116.201 24.4671 111.268 24.4495 106.119V90.552H4.99903V106.119C4.99684 111.223 6.00001 116.278 7.95126 120.994C9.90252 125.711 12.7637 129.997 16.3713 133.607C19.9789 137.218 24.2624 140.083 28.9772 142.038C33.692 143.994 38.7457 145.001 43.8499 145.003H59.4503V125.553H43.8832Z" fill="#4285F4"/>
<path d="M121.671 137.22C124.747 137.22 127.754 136.308 130.311 134.599C132.868 132.89 134.861 130.462 136.038 127.62C137.215 124.779 137.523 121.652 136.923 118.636C136.323 115.619 134.842 112.848 132.667 110.674C130.492 108.499 127.722 107.018 124.705 106.418C121.689 105.818 118.562 106.126 115.721 107.303C112.879 108.48 110.45 110.473 108.742 113.03C107.033 115.587 106.121 118.594 106.121 121.669C106.121 125.794 107.759 129.749 110.676 132.665C113.592 135.581 117.547 137.22 121.671 137.22Z" fill="#34A853"/>
<path d="M75.0038 102.219C80.3868 102.219 85.649 100.622 90.1248 97.6318C94.6007 94.6411 98.0893 90.3904 100.149 85.4171C102.209 80.4438 102.748 74.9713 101.698 69.6917C100.648 64.412 98.0557 59.5624 94.2493 55.756C90.4429 51.9495 85.5933 49.3573 80.3136 48.3072C75.034 47.257 69.5615 47.796 64.5882 49.856C59.6149 51.916 55.3641 55.4045 52.3734 59.8804C49.3827 64.3563 47.7865 69.6184 47.7865 75.0015C47.7865 82.22 50.654 89.1428 55.7582 94.247C60.8625 99.3512 67.7853 102.219 75.0038 102.219Z" fill="#4285F4"/>
</g>
<g filter="url(#filter27_f_6_3613)">
<path d="M106.115 24.4505C111.264 24.468 116.196 26.5211 119.837 30.1619C123.478 33.8026 125.531 38.7354 125.549 43.8842V59.4512H144.999V43.8842C145.001 38.78 143.998 33.7254 142.047 29.009C140.096 24.2925 137.234 20.0066 133.627 16.3958C130.019 12.7851 125.736 9.9203 121.021 7.965C116.306 6.0097 111.252 5.00219 106.148 5H90.5479V24.4505H106.115Z" fill="#FBBC05"/>
<path d="M24.4495 43.8842C24.4671 38.7354 26.5201 33.8026 30.1609 30.1619C33.8016 26.5211 38.7345 24.468 43.8832 24.4505H59.4503V5H43.8832C38.7791 4.99781 33.7245 6.00098 29.008 7.95224C24.2915 9.90349 20.0056 12.7646 16.3948 16.3723C12.7841 19.9799 9.91932 24.2634 7.96403 28.9782C6.00873 33.693 5.00121 38.7467 4.99902 43.8509V59.4179H24.4495V43.8842Z" fill="#EA4335"/>
<path d="M43.8832 125.553C38.7345 125.535 33.8016 123.482 30.1609 119.841C26.5201 116.201 24.4671 111.268 24.4495 106.119V90.552H4.99903V106.119C4.99684 111.223 6.00001 116.278 7.95126 120.994C9.90252 125.711 12.7637 129.997 16.3713 133.607C19.9789 137.218 24.2624 140.083 28.9772 142.038C33.692 143.994 38.7457 145.001 43.8499 145.003H59.4503V125.553H43.8832Z" fill="#4285F4"/>
<path d="M121.671 137.22C124.747 137.22 127.754 136.308 130.311 134.599C132.868 132.89 134.861 130.462 136.038 127.62C137.215 124.779 137.523 121.652 136.923 118.636C136.323 115.619 134.842 112.848 132.667 110.674C130.492 108.499 127.722 107.018 124.705 106.418C121.689 105.818 118.562 106.126 115.721 107.303C112.879 108.48 110.45 110.473 108.742 113.03C107.033 115.587 106.121 118.594 106.121 121.669C106.121 125.794 107.759 129.749 110.676 132.665C113.592 135.581 117.547 137.22 121.671 137.22Z" fill="#34A853"/>
<path d="M75.0038 102.219C80.3868 102.219 85.649 100.622 90.1248 97.6318C94.6007 94.6411 98.0893 90.3904 100.149 85.4171C102.209 80.4438 102.748 74.9713 101.698 69.6917C100.648 64.412 98.0557 59.5624 94.2493 55.756C90.4429 51.9495 85.5933 49.3573 80.3136 48.3072C75.034 47.257 69.5615 47.796 64.5882 49.856C59.6149 51.916 55.3641 55.4045 52.3734 59.8804C49.3827 64.3563 47.7865 69.6184 47.7865 75.0015C47.7865 82.22 50.654 89.1428 55.7582 94.247C60.8625 99.3512 67.7853 102.219 75.0038 102.219Z" fill="#4285F4"/>
</g>
<g filter="url(#filter28_f_6_3613)">
<path d="M106.115 24.4505C111.264 24.468 116.196 26.5211 119.837 30.1619C123.478 33.8026 125.531 38.7354 125.549 43.8842V59.4512H144.999V43.8842C145.001 38.78 143.998 33.7254 142.047 29.009C140.096 24.2925 137.234 20.0066 133.627 16.3958C130.019 12.7851 125.736 9.9203 121.021 7.965C116.306 6.0097 111.252 5.00219 106.148 5H90.5479V24.4505H106.115Z" fill="#FBBC05"/>
<path d="M24.4495 43.8842C24.4671 38.7354 26.5201 33.8026 30.1609 30.1619C33.8016 26.5211 38.7345 24.468 43.8832 24.4505H59.4503V5H43.8832C38.7791 4.99781 33.7245 6.00098 29.008 7.95224C24.2915 9.90349 20.0056 12.7646 16.3948 16.3723C12.7841 19.9799 9.91932 24.2634 7.96403 28.9782C6.00873 33.693 5.00121 38.7467 4.99902 43.8509V59.4179H24.4495V43.8842Z" fill="#EA4335"/>
<path d="M43.8832 125.553C38.7345 125.535 33.8016 123.482 30.1609 119.841C26.5201 116.201 24.4671 111.268 24.4495 106.119V90.552H4.99903V106.119C4.99684 111.223 6.00001 116.278 7.95126 120.994C9.90252 125.711 12.7637 129.997 16.3713 133.607C19.9789 137.218 24.2624 140.083 28.9772 142.038C33.692 143.994 38.7457 145.001 43.8499 145.003H59.4503V125.553H43.8832Z" fill="#4285F4"/>
<path d="M121.671 137.22C124.747 137.22 127.754 136.308 130.311 134.599C132.868 132.89 134.861 130.462 136.038 127.62C137.215 124.779 137.523 121.652 136.923 118.636C136.323 115.619 134.842 112.848 132.667 110.674C130.492 108.499 127.722 107.018 124.705 106.418C121.689 105.818 118.562 106.126 115.721 107.303C112.879 108.48 110.45 110.473 108.742 113.03C107.033 115.587 106.121 118.594 106.121 121.669C106.121 125.794 107.759 129.749 110.676 132.665C113.592 135.581 117.547 137.22 121.671 137.22Z" fill="#34A853"/>
<path d="M75.0038 102.219C80.3868 102.219 85.649 100.622 90.1248 97.6318C94.6007 94.6411 98.0893 90.3904 100.149 85.4171C102.209 80.4438 102.748 74.9713 101.698 69.6917C100.648 64.412 98.0557 59.5624 94.2493 55.756C90.4429 51.9495 85.5933 49.3573 80.3136 48.3072C75.034 47.257 69.5615 47.796 64.5882 49.856C59.6149 51.916 55.3641 55.4045 52.3734 59.8804C49.3827 64.3563 47.7865 69.6184 47.7865 75.0015C47.7865 82.22 50.654 89.1428 55.7582 94.247C60.8625 99.3512 67.7853 102.219 75.0038 102.219Z" fill="#4285F4"/>
</g>
<g filter="url(#filter29_f_6_3613)">
<path d="M106.115 24.4505C111.264 24.468 116.196 26.5211 119.837 30.1619C123.478 33.8026 125.531 38.7354 125.549 43.8842V59.4512H144.999V43.8842C145.001 38.78 143.998 33.7254 142.047 29.009C140.096 24.2925 137.234 20.0066 133.627 16.3958C130.019 12.7851 125.736 9.9203 121.021 7.965C116.306 6.0097 111.252 5.00219 106.148 5H90.5479V24.4505H106.115Z" fill="#FBBC05"/>
<path d="M24.4495 43.8842C24.4671 38.7354 26.5201 33.8026 30.1609 30.1619C33.8016 26.5211 38.7345 24.468 43.8832 24.4505H59.4503V5H43.8832C38.7791 4.99781 33.7245 6.00098 29.008 7.95224C24.2915 9.90349 20.0056 12.7646 16.3948 16.3723C12.7841 19.9799 9.91932 24.2634 7.96403 28.9782C6.00873 33.693 5.00121 38.7467 4.99902 43.8509V59.4179H24.4495V43.8842Z" fill="#EA4335"/>
<path d="M43.8832 125.553C38.7345 125.535 33.8016 123.482 30.1609 119.841C26.5201 116.201 24.4671 111.268 24.4495 106.119V90.552H4.99903V106.119C4.99684 111.223 6.00001 116.278 7.95126 120.994C9.90252 125.711 12.7637 129.997 16.3713 133.607C19.9789 137.218 24.2624 140.083 28.9772 142.038C33.692 143.994 38.7457 145.001 43.8499 145.003H59.4503V125.553H43.8832Z" fill="#4285F4"/>
<path d="M121.671 137.22C124.747 137.22 127.754 136.308 130.311 134.599C132.868 132.89 134.861 130.462 136.038 127.62C137.215 124.779 137.523 121.652 136.923 118.636C136.323 115.619 134.842 112.848 132.667 110.674C130.492 108.499 127.722 107.018 124.705 106.418C121.689 105.818 118.562 106.126 115.721 107.303C112.879 108.48 110.45 110.473 108.742 113.03C107.033 115.587 106.121 118.594 106.121 121.669C106.121 125.794 107.759 129.749 110.676 132.665C113.592 135.581 117.547 137.22 121.671 137.22Z" fill="#34A853"/>
<path d="M75.0038 102.219C80.3868 102.219 85.649 100.622 90.1248 97.6318C94.6007 94.6411 98.0893 90.3904 100.149 85.4171C102.209 80.4438 102.748 74.9713 101.698 69.6917C100.648 64.412 98.0557 59.5624 94.2493 55.756C90.4429 51.9495 85.5933 49.3573 80.3136 48.3072C75.034 47.257 69.5615 47.796 64.5882 49.856C59.6149 51.916 55.3641 55.4045 52.3734 59.8804C49.3827 64.3563 47.7865 69.6184 47.7865 75.0015C47.7865 82.22 50.654 89.1428 55.7582 94.247C60.8625 99.3512 67.7853 102.219 75.0038 102.219Z" fill="#4285F4"/>
</g>
<g filter="url(#filter30_f_6_3613)">
<path d="M106.115 24.4505C111.264 24.468 116.196 26.5211 119.837 30.1619C123.478 33.8026 125.531 38.7354 125.549 43.8842V59.4512H144.999V43.8842C145.001 38.78 143.998 33.7254 142.047 29.009C140.096 24.2925 137.234 20.0066 133.627 16.3958C130.019 12.7851 125.736 9.9203 121.021 7.965C116.306 6.0097 111.252 5.00219 106.148 5H90.5479V24.4505H106.115Z" fill="#FBBC05"/>
<path d="M24.4495 43.8842C24.4671 38.7354 26.5201 33.8026 30.1609 30.1619C33.8016 26.5211 38.7345 24.468 43.8832 24.4505H59.4503V5H43.8832C38.7791 4.99781 33.7245 6.00098 29.008 7.95224C24.2915 9.90349 20.0056 12.7646 16.3948 16.3723C12.7841 19.9799 9.91932 24.2634 7.96403 28.9782C6.00873 33.693 5.00121 38.7467 4.99902 43.8509V59.4179H24.4495V43.8842Z" fill="#EA4335"/>
<path d="M43.8832 125.553C38.7345 125.535 33.8016 123.482 30.1609 119.841C26.5201 116.201 24.4671 111.268 24.4495 106.119V90.552H4.99903V106.119C4.99684 111.223 6.00001 116.278 7.95126 120.994C9.90252 125.711 12.7637 129.997 16.3713 133.607C19.9789 137.218 24.2624 140.083 28.9772 142.038C33.692 143.994 38.7457 145.001 43.8499 145.003H59.4503V125.553H43.8832Z" fill="#4285F4"/>
<path d="M121.671 137.22C124.747 137.22 127.754 136.308 130.311 134.599C132.868 132.89 134.861 130.462 136.038 127.62C137.215 124.779 137.523 121.652 136.923 118.636C136.323 115.619 134.842 112.848 132.667 110.674C130.492 108.499 127.722 107.018 124.705 106.418C121.689 105.818 118.562 106.126 115.721 107.303C112.879 108.48 110.45 110.473 108.742 113.03C107.033 115.587 106.121 118.594 106.121 121.669C106.121 125.794 107.759 129.749 110.676 132.665C113.592 135.581 117.547 137.22 121.671 137.22Z" fill="#34A853"/>
<path d="M75.0038 102.219C80.3868 102.219 85.649 100.622 90.1248 97.6318C94.6007 94.6411 98.0893 90.3904 100.149 85.4171C102.209 80.4438 102.748 74.9713 101.698 69.6917C100.648 64.412 98.0557 59.5624 94.2493 55.756C90.4429 51.9495 85.5933 49.3573 80.3136 48.3072C75.034 47.257 69.5615 47.796 64.5882 49.856C59.6149 51.916 55.3641 55.4045 52.3734 59.8804C49.3827 64.3563 47.7865 69.6184 47.7865 75.0015C47.7865 82.22 50.654 89.1428 55.7582 94.247C60.8625 99.3512 67.7853 102.219 75.0038 102.219Z" fill="#4285F4"/>
</g>
<g filter="url(#filter31_f_6_3613)">
<path d="M106.115 24.4505C111.264 24.468 116.196 26.5211 119.837 30.1619C123.478 33.8026 125.531 38.7354 125.549 43.8842V59.4512H144.999V43.8842C145.001 38.78 143.998 33.7254 142.047 29.009C140.096 24.2925 137.234 20.0066 133.627 16.3958C130.019 12.7851 125.736 9.9203 121.021 7.965C116.306 6.0097 111.252 5.00219 106.148 5H90.5479V24.4505H106.115Z" fill="#FBBC05"/>
<path d="M24.4495 43.8842C24.4671 38.7354 26.5201 33.8026 30.1609 30.1619C33.8016 26.5211 38.7345 24.468 43.8832 24.4505H59.4503V5H43.8832C38.7791 4.99781 33.7245 6.00098 29.008 7.95224C24.2915 9.90349 20.0056 12.7646 16.3948 16.3723C12.7841 19.9799 9.91932 24.2634 7.96403 28.9782C6.00873 33.693 5.00121 38.7467 4.99902 43.8509V59.4179H24.4495V43.8842Z" fill="#EA4335"/>
<path d="M43.8832 125.553C38.7345 125.535 33.8016 123.482 30.1609 119.841C26.5201 116.201 24.4671 111.268 24.4495 106.119V90.552H4.99903V106.119C4.99684 111.223 6.00001 116.278 7.95126 120.994C9.90252 125.711 12.7637 129.997 16.3713 133.607C19.9789 137.218 24.2624 140.083 28.9772 142.038C33.692 143.994 38.7457 145.001 43.8499 145.003H59.4503V125.553H43.8832Z" fill="#4285F4"/>
<path d="M121.671 137.22C124.747 137.22 127.754 136.308 130.311 134.599C132.868 132.89 134.861 130.462 136.038 127.62C137.215 124.779 137.523 121.652 136.923 118.636C136.323 115.619 134.842 112.848 132.667 110.674C130.492 108.499 127.722 107.018 124.705 106.418C121.689 105.818 118.562 106.126 115.721 107.303C112.879 108.48 110.45 110.473 108.742 113.03C107.033 115.587 106.121 118.594 106.121 121.669C106.121 125.794 107.759 129.749 110.676 132.665C113.592 135.581 117.547 137.22 121.671 137.22Z" fill="#34A853"/>
<path d="M75.0038 102.219C80.3868 102.219 85.649 100.622 90.1248 97.6318C94.6007 94.6411 98.0893 90.3904 100.149 85.4171C102.209 80.4438 102.748 74.9713 101.698 69.6917C100.648 64.412 98.0557 59.5624 94.2493 55.756C90.4429 51.9495 85.5933 49.3573 80.3136 48.3072C75.034 47.257 69.5615 47.796 64.5882 49.856C59.6149 51.916 55.3641 55.4045 52.3734 59.8804C49.3827 64.3563 47.7865 69.6184 47.7865 75.0015C47.7865 82.22 50.654 89.1428 55.7582 94.247C60.8625 99.3512 67.7853 102.219 75.0038 102.219Z" fill="#4285F4"/>
</g>
<g filter="url(#filter32_f_6_3613)">
<path d="M106.115 24.4505C111.264 24.468 116.196 26.5211 119.837 30.1619C123.478 33.8026 125.531 38.7354 125.549 43.8842V59.4512H144.999V43.8842C145.001 38.78 143.998 33.7254 142.047 29.009C140.096 24.2925 137.234 20.0066 133.627 16.3958C130.019 12.7851 125.736 9.9203 121.021 7.965C116.306 6.0097 111.252 5.00219 106.148 5H90.5479V24.4505H106.115Z" fill="#FBBC05"/>
<path d="M24.4495 43.8842C24.4671 38.7354 26.5201 33.8026 30.1609 30.1619C33.8016 26.5211 38.7345 24.468 43.8832 24.4505H59.4503V5H43.8832C38.7791 4.99781 33.7245 6.00098 29.008 7.95224C24.2915 9.90349 20.0056 12.7646 16.3948 16.3723C12.7841 19.9799 9.91932 24.2634 7.96403 28.9782C6.00873 33.693 5.00121 38.7467 4.99902 43.8509V59.4179H24.4495V43.8842Z" fill="#EA4335"/>
<path d="M43.8832 125.553C38.7345 125.535 33.8016 123.482 30.1609 119.841C26.5201 116.201 24.4671 111.268 24.4495 106.119V90.552H4.99903V106.119C4.99684 111.223 6.00001 116.278 7.95126 120.994C9.90252 125.711 12.7637 129.997 16.3713 133.607C19.9789 137.218 24.2624 140.083 28.9772 142.038C33.692 143.994 38.7457 145.001 43.8499 145.003H59.4503V125.553H43.8832Z" fill="#4285F4"/>
<path d="M121.671 137.22C124.747 137.22 127.754 136.308 130.311 134.599C132.868 132.89 134.861 130.462 136.038 127.62C137.215 124.779 137.523 121.652 136.923 118.636C136.323 115.619 134.842 112.848 132.667 110.674C130.492 108.499 127.722 107.018 124.705 106.418C121.689 105.818 118.562 106.126 115.721 107.303C112.879 108.48 110.45 110.473 108.742 113.03C107.033 115.587 106.121 118.594 106.121 121.669C106.121 125.794 107.759 129.749 110.676 132.665C113.592 135.581 117.547 137.22 121.671 137.22Z" fill="#34A853"/>
<path d="M75.0038 102.219C80.3868 102.219 85.649 100.622 90.1248 97.6318C94.6007 94.6411 98.0893 90.3904 100.149 85.4171C102.209 80.4438 102.748 74.9713 101.698 69.6917C100.648 64.412 98.0557 59.5624 94.2493 55.756C90.4429 51.9495 85.5933 49.3573 80.3136 48.3072C75.034 47.257 69.5615 47.796 64.5882 49.856C59.6149 51.916 55.3641 55.4045 52.3734 59.8804C49.3827 64.3563 47.7865 69.6184 47.7865 75.0015C47.7865 82.22 50.654 89.1428 55.7582 94.247C60.8625 99.3512 67.7853 102.219 75.0038 102.219Z" fill="#4285F4"/>
</g>
<g filter="url(#filter33_f_6_3613)">
<path d="M106.115 24.4505C111.264 24.468 116.196 26.5211 119.837 30.1619C123.478 33.8026 125.531 38.7354 125.549 43.8842V59.4512H144.999V43.8842C145.001 38.78 143.998 33.7254 142.047 29.009C140.096 24.2925 137.234 20.0066 133.627 16.3958C130.019 12.7851 125.736 9.9203 121.021 7.965C116.306 6.0097 111.252 5.00219 106.148 5H90.5479V24.4505H106.115Z" fill="#FBBC05"/>
<path d="M24.4495 43.8842C24.4671 38.7354 26.5201 33.8026 30.1609 30.1619C33.8016 26.5211 38.7345 24.468 43.8832 24.4505H59.4503V5H43.8832C38.7791 4.99781 33.7245 6.00098 29.008 7.95224C24.2915 9.90349 20.0056 12.7646 16.3948 16.3723C12.7841 19.9799 9.91932 24.2634 7.96403 28.9782C6.00873 33.693 5.00121 38.7467 4.99902 43.8509V59.4179H24.4495V43.8842Z" fill="#EA4335"/>
<path d="M43.8832 125.553C38.7345 125.535 33.8016 123.482 30.1609 119.841C26.5201 116.201 24.4671 111.268 24.4495 106.119V90.552H4.99903V106.119C4.99684 111.223 6.00001 116.278 7.95126 120.994C9.90252 125.711 12.7637 129.997 16.3713 133.607C19.9789 137.218 24.2624 140.083 28.9772 142.038C33.692 143.994 38.7457 145.001 43.8499 145.003H59.4503V125.553H43.8832Z" fill="#4285F4"/>
<path d="M121.671 137.22C124.747 137.22 127.754 136.308 130.311 134.599C132.868 132.89 134.861 130.462 136.038 127.62C137.215 124.779 137.523 121.652 136.923 118.636C136.323 115.619 134.842 112.848 132.667 110.674C130.492 108.499 127.722 107.018 124.705 106.418C121.689 105.818 118.562 106.126 115.721 107.303C112.879 108.48 110.45 110.473 108.742 113.03C107.033 115.587 106.121 118.594 106.121 121.669C106.121 125.794 107.759 129.749 110.676 132.665C113.592 135.581 117.547 137.22 121.671 137.22Z" fill="#34A853"/>
<path d="M75.0038 102.219C80.3868 102.219 85.649 100.622 90.1248 97.6318C94.6007 94.6411 98.0893 90.3904 100.149 85.4171C102.209 80.4438 102.748 74.9713 101.698 69.6917C100.648 64.412 98.0557 59.5624 94.2493 55.756C90.4429 51.9495 85.5933 49.3573 80.3136 48.3072C75.034 47.257 69.5615 47.796 64.5882 49.856C59.6149 51.916 55.3641 55.4045 52.3734 59.8804C49.3827 64.3563 47.7865 69.6184 47.7865 75.0015C47.7865 82.22 50.654 89.1428 55.7582 94.247C60.8625 99.3512 67.7853 102.219 75.0038 102.219Z" fill="#4285F4"/>
</g>
<g filter="url(#filter34_f_6_3613)">
<path d="M106.115 24.4505C111.264 24.468 116.196 26.5211 119.837 30.1619C123.478 33.8026 125.531 38.7354 125.549 43.8842V59.4512H144.999V43.8842C145.001 38.78 143.998 33.7254 142.047 29.009C140.096 24.2925 137.234 20.0066 133.627 16.3958C130.019 12.7851 125.736 9.9203 121.021 7.965C116.306 6.0097 111.252 5.00219 106.148 5H90.5479V24.4505H106.115Z" fill="#FBBC05"/>
<path d="M24.4495 43.8842C24.4671 38.7354 26.5201 33.8026 30.1609 30.1619C33.8016 26.5211 38.7345 24.468 43.8832 24.4505H59.4503V5H43.8832C38.7791 4.99781 33.7245 6.00098 29.008 7.95224C24.2915 9.90349 20.0056 12.7646 16.3948 16.3723C12.7841 19.9799 9.91932 24.2634 7.96403 28.9782C6.00873 33.693 5.00121 38.7467 4.99902 43.8509V59.4179H24.4495V43.8842Z" fill="#EA4335"/>
<path d="M43.8832 125.553C38.7345 125.535 33.8016 123.482 30.1609 119.841C26.5201 116.201 24.4671 111.268 24.4495 106.119V90.552H4.99903V106.119C4.99684 111.223 6.00001 116.278 7.95126 120.994C9.90252 125.711 12.7637 129.997 16.3713 133.607C19.9789 137.218 24.2624 140.083 28.9772 142.038C33.692 143.994 38.7457 145.001 43.8499 145.003H59.4503V125.553H43.8832Z" fill="#4285F4"/>
<path d="M121.671 137.22C124.747 137.22 127.754 136.308 130.311 134.599C132.868 132.89 134.861 130.462 136.038 127.62C137.215 124.779 137.523 121.652 136.923 118.636C136.323 115.619 134.842 112.848 132.667 110.674C130.492 108.499 127.722 107.018 124.705 106.418C121.689 105.818 118.562 106.126 115.721 107.303C112.879 108.48 110.45 110.473 108.742 113.03C107.033 115.587 106.121 118.594 106.121 121.669C106.121 125.794 107.759 129.749 110.676 132.665C113.592 135.581 117.547 137.22 121.671 137.22Z" fill="#34A853"/>
<path d="M75.0038 102.219C80.3868 102.219 85.649 100.622 90.1248 97.6318C94.6007 94.6411 98.0893 90.3904 100.149 85.4171C102.209 80.4438 102.748 74.9713 101.698 69.6917C100.648 64.412 98.0557 59.5624 94.2493 55.756C90.4429 51.9495 85.5933 49.3573 80.3136 48.3072C75.034 47.257 69.5615 47.796 64.5882 49.856C59.6149 51.916 55.3641 55.4045 52.3734 59.8804C49.3827 64.3563 47.7865 69.6184 47.7865 75.0015C47.7865 82.22 50.654 89.1428 55.7582 94.247C60.8625 99.3512 67.7853 102.219 75.0038 102.219Z" fill="#4285F4"/>
</g>
<g filter="url(#filter35_f_6_3613)">
<path d="M106.115 24.4505C111.264 24.468 116.196 26.5211 119.837 30.1619C123.478 33.8026 125.531 38.7354 125.549 43.8842V59.4512H144.999V43.8842C145.001 38.78 143.998 33.7254 142.047 29.009C140.096 24.2925 137.234 20.0066 133.627 16.3958C130.019 12.7851 125.736 9.9203 121.021 7.965C116.306 6.0097 111.252 5.00219 106.148 5H90.5479V24.4505H106.115Z" fill="#FBBC05"/>
<path d="M24.4495 43.8842C24.4671 38.7354 26.5201 33.8026 30.1609 30.1619C33.8016 26.5211 38.7345 24.468 43.8832 24.4505H59.4503V5H43.8832C38.7791 4.99781 33.7245 6.00098 29.008 7.95224C24.2915 9.90349 20.0056 12.7646 16.3948 16.3723C12.7841 19.9799 9.91932 24.2634 7.96403 28.9782C6.00873 33.693 5.00121 38.7467 4.99902 43.8509V59.4179H24.4495V43.8842Z" fill="#EA4335"/>
<path d="M43.8832 125.553C38.7345 125.535 33.8016 123.482 30.1609 119.841C26.5201 116.201 24.4671 111.268 24.4495 106.119V90.552H4.99903V106.119C4.99684 111.223 6.00001 116.278 7.95126 120.994C9.90252 125.711 12.7637 129.997 16.3713 133.607C19.9789 137.218 24.2624 140.083 28.9772 142.038C33.692 143.994 38.7457 145.001 43.8499 145.003H59.4503V125.553H43.8832Z" fill="#4285F4"/>
<path d="M121.671 137.22C124.747 137.22 127.754 136.308 130.311 134.599C132.868 132.89 134.861 130.462 136.038 127.62C137.215 124.779 137.523 121.652 136.923 118.636C136.323 115.619 134.842 112.848 132.667 110.674C130.492 108.499 127.722 107.018 124.705 106.418C121.689 105.818 118.562 106.126 115.721 107.303C112.879 108.48 110.45 110.473 108.742 113.03C107.033 115.587 106.121 118.594 106.121 121.669C106.121 125.794 107.759 129.749 110.676 132.665C113.592 135.581 117.547 137.22 121.671 137.22Z" fill="#34A853"/>
<path d="M75.0038 102.219C80.3868 102.219 85.649 100.622 90.1248 97.6318C94.6007 94.6411 98.0893 90.3904 100.149 85.4171C102.209 80.4438 102.748 74.9713 101.698 69.6917C100.648 64.412 98.0557 59.5624 94.2493 55.756C90.4429 51.9495 85.5933 49.3573 80.3136 48.3072C75.034 47.257 69.5615 47.796 64.5882 49.856C59.6149 51.916 55.3641 55.4045 52.3734 59.8804C49.3827 64.3563 47.7865 69.6184 47.7865 75.0015C47.7865 82.22 50.654 89.1428 55.7582 94.247C60.8625 99.3512 67.7853 102.219 75.0038 102.219Z" fill="#4285F4"/>
</g>
<g style="mix-blend-mode:plus-darker" opacity="0.5" filter="url(#filter36_f_6_3613)">
<path d="M106.115 24.4505C111.264 24.468 116.196 26.5211 119.837 30.1619C123.478 33.8026 125.531 38.7354 125.549 43.8842V59.4512H144.999V43.8842C145.001 38.78 143.998 33.7254 142.047 29.009C140.096 24.2925 137.234 20.0066 133.627 16.3958C130.019 12.7851 125.736 9.9203 121.021 7.965C116.306 6.0097 111.252 5.00219 106.148 5H90.5479V24.4505H106.115Z" fill="#FBBC05"/>
<path d="M24.4495 43.8842C24.4671 38.7354 26.5201 33.8026 30.1609 30.1619C33.8016 26.5211 38.7345 24.468 43.8832 24.4505H59.4503V5H43.8832C38.7791 4.99781 33.7245 6.00098 29.008 7.95224C24.2915 9.90349 20.0056 12.7646 16.3948 16.3723C12.7841 19.9799 9.91932 24.2634 7.96403 28.9782C6.00873 33.693 5.00121 38.7467 4.99902 43.8509V59.4179H24.4495V43.8842Z" fill="#EA4335"/>
<path d="M43.8832 125.553C38.7345 125.535 33.8016 123.482 30.1609 119.841C26.5201 116.201 24.4671 111.268 24.4495 106.119V90.552H4.99903V106.119C4.99684 111.223 6.00001 116.278 7.95126 120.994C9.90252 125.711 12.7637 129.997 16.3713 133.607C19.9789 137.218 24.2624 140.083 28.9772 142.038C33.692 143.994 38.7457 145.001 43.8499 145.003H59.4503V125.553H43.8832Z" fill="#4285F4"/>
<path d="M121.671 137.22C124.747 137.22 127.754 136.308 130.311 134.599C132.868 132.89 134.861 130.462 136.038 127.62C137.215 124.779 137.523 121.652 136.923 118.636C136.323 115.619 134.842 112.848 132.667 110.674C130.492 108.499 127.722 107.018 124.705 106.418C121.689 105.818 118.562 106.126 115.721 107.303C112.879 108.48 110.45 110.473 108.742 113.03C107.033 115.587 106.121 118.594 106.121 121.669C106.121 125.794 107.759 129.749 110.676 132.665C113.592 135.581 117.547 137.22 121.671 137.22Z" fill="#34A853"/>
<path d="M75.0038 102.219C80.3868 102.219 85.649 100.622 90.1248 97.6318C94.6007 94.6411 98.0893 90.3904 100.149 85.4171C102.209 80.4438 102.748 74.9713 101.698 69.6917C100.648 64.412 98.0557 59.5624 94.2493 55.756C90.4429 51.9495 85.5933 49.3573 80.3136 48.3072C75.034 47.257 69.5615 47.796 64.5882 49.856C59.6149 51.916 55.3641 55.4045 52.3734 59.8804C49.3827 64.3563 47.7865 69.6184 47.7865 75.0015C47.7865 82.22 50.654 89.1428 55.7582 94.247C60.8625 99.3512 67.7853 102.219 75.0038 102.219Z" fill="#4285F4"/>
</g>
</g>
<defs>
<filter id="filter0_f_6_3613" x="-65.001" y="-65" width="280" height="280.003" filterUnits="userSpaceOnUse" color-interpolation-filters="sRGB">
<feFlood flood-opacity="0" result="BackgroundImageFix"/>
<feBlend mode="normal" in="SourceGraphic" in2="BackgroundImageFix" result="shape"/>
<feGaussianBlur stdDeviation="35" result="effect1_foregroundBlur_6_3613"/>
</filter>
<filter id="filter1_f_6_3613" x="-65.001" y="-65" width="280" height="280.003" filterUnits="userSpaceOnUse" color-interpolation-filters="sRGB">
<feFlood flood-opacity="0" result="BackgroundImageFix"/>
<feBlend mode="normal" in="SourceGraphic" in2="BackgroundImageFix" result="shape"/>
<feGaussianBlur stdDeviation="35" result="effect1_foregroundBlur_6_3613"/>
</filter>
<filter id="filter2_f_6_3613" x="-65.001" y="-65" width="280" height="280.003" filterUnits="userSpaceOnUse" color-interpolation-filters="sRGB">
<feFlood flood-opacity="0" result="BackgroundImageFix"/>
<feBlend mode="normal" in="SourceGraphic" in2="BackgroundImageFix" result="shape"/>
<feGaussianBlur stdDeviation="35" result="effect1_foregroundBlur_6_3613"/>
</filter>
<filter id="filter3_f_6_3613" x="-65.001" y="-65" width="280" height="280.003" filterUnits="userSpaceOnUse" color-interpolation-filters="sRGB">
<feFlood flood-opacity="0" result="BackgroundImageFix"/>
<feBlend mode="normal" in="SourceGraphic" in2="BackgroundImageFix" result="shape"/>
<feGaussianBlur stdDeviation="35" result="effect1_foregroundBlur_6_3613"/>
</filter>
<filter id="filter4_f_6_3613" x="-65.001" y="-65" width="280" height="280.003" filterUnits="userSpaceOnUse" color-interpolation-filters="sRGB">
<feFlood flood-opacity="0" result="BackgroundImageFix"/>
<feBlend mode="normal" in="SourceGraphic" in2="BackgroundImageFix" result="shape"/>
<feGaussianBlur stdDeviation="35" result="effect1_foregroundBlur_6_3613"/>
</filter>
<filter id="filter5_f_6_3613" x="-65.001" y="-65" width="280" height="280.003" filterUnits="userSpaceOnUse" color-interpolation-filters="sRGB">
<feFlood flood-opacity="0" result="BackgroundImageFix"/>
<feBlend mode="normal" in="SourceGraphic" in2="BackgroundImageFix" result="shape"/>
<feGaussianBlur stdDeviation="35" result="effect1_foregroundBlur_6_3613"/>
</filter>
<filter id="filter6_f_6_3613" x="-65.001" y="-65" width="280" height="280.003" filterUnits="userSpaceOnUse" color-interpolation-filters="sRGB">
<feFlood flood-opacity="0" result="BackgroundImageFix"/>
<feBlend mode="normal" in="SourceGraphic" in2="BackgroundImageFix" result="shape"/>
<feGaussianBlur stdDeviation="35" result="effect1_foregroundBlur_6_3613"/>
</filter>
<filter id="filter7_f_6_3613" x="-65.001" y="-65" width="280" height="280.003" filterUnits="userSpaceOnUse" color-interpolation-filters="sRGB">
<feFlood flood-opacity="0" result="BackgroundImageFix"/>
<feBlend mode="normal" in="SourceGraphic" in2="BackgroundImageFix" result="shape"/>
<feGaussianBlur stdDeviation="35" result="effect1_foregroundBlur_6_3613"/>
</filter>
<filter id="filter8_f_6_3613" x="-65.001" y="-65" width="280" height="280.003" filterUnits="userSpaceOnUse" color-interpolation-filters="sRGB">
<feFlood flood-opacity="0" result="BackgroundImageFix"/>
<feBlend mode="normal" in="SourceGraphic" in2="BackgroundImageFix" result="shape"/>
<feGaussianBlur stdDeviation="35" result="effect1_foregroundBlur_6_3613"/>
</filter>
<filter id="filter9_f_6_3613" x="-65.001" y="-65" width="280" height="280.003" filterUnits="userSpaceOnUse" color-interpolation-filters="sRGB">
<feFlood flood-opacity="0" result="BackgroundImageFix"/>
<feBlend mode="normal" in="SourceGraphic" in2="BackgroundImageFix" result="shape"/>
<feGaussianBlur stdDeviation="35" result="effect1_foregroundBlur_6_3613"/>
</filter>
<filter id="filter10_f_6_3613" x="-65.001" y="-65" width="280" height="280.003" filterUnits="userSpaceOnUse" color-interpolation-filters="sRGB">
<feFlood flood-opacity="0" result="BackgroundImageFix"/>
<feBlend mode="normal" in="SourceGraphic" in2="BackgroundImageFix" result="shape"/>
<feGaussianBlur stdDeviation="35" result="effect1_foregroundBlur_6_3613"/>
</filter>
<filter id="filter11_f_6_3613" x="-65.001" y="-65" width="280" height="280.003" filterUnits="userSpaceOnUse" color-interpolation-filters="sRGB">
<feFlood flood-opacity="0" result="BackgroundImageFix"/>
<feBlend mode="normal" in="SourceGraphic" in2="BackgroundImageFix" result="shape"/>
<feGaussianBlur stdDeviation="35" result="effect1_foregroundBlur_6_3613"/>
</filter>
<filter id="filter12_f_6_3613" x="-65.001" y="-65" width="280" height="280.003" filterUnits="userSpaceOnUse" color-interpolation-filters="sRGB">
<feFlood flood-opacity="0" result="BackgroundImageFix"/>
<feBlend mode="normal" in="SourceGraphic" in2="BackgroundImageFix" result="shape"/>
<feGaussianBlur stdDeviation="35" result="effect1_foregroundBlur_6_3613"/>
</filter>
<filter id="filter13_f_6_3613" x="-65.001" y="-65" width="280" height="280.003" filterUnits="userSpaceOnUse" color-interpolation-filters="sRGB">
<feFlood flood-opacity="0" result="BackgroundImageFix"/>
<feBlend mode="normal" in="SourceGraphic" in2="BackgroundImageFix" result="shape"/>
<feGaussianBlur stdDeviation="35" result="effect1_foregroundBlur_6_3613"/>
</filter>
<filter id="filter14_f_6_3613" x="-65.001" y="-65" width="280" height="280.003" filterUnits="userSpaceOnUse" color-interpolation-filters="sRGB">
<feFlood flood-opacity="0" result="BackgroundImageFix"/>
<feBlend mode="normal" in="SourceGraphic" in2="BackgroundImageFix" result="shape"/>
<feGaussianBlur stdDeviation="35" result="effect1_foregroundBlur_6_3613"/>
</filter>
<filter id="filter15_f_6_3613" x="-65.001" y="-65" width="280" height="280.003" filterUnits="userSpaceOnUse" color-interpolation-filters="sRGB">
<feFlood flood-opacity="0" result="BackgroundImageFix"/>
<feBlend mode="normal" in="SourceGraphic" in2="BackgroundImageFix" result="shape"/>
<feGaussianBlur stdDeviation="35" result="effect1_foregroundBlur_6_3613"/>
</filter>
<filter id="filter16_f_6_3613" x="-65.001" y="-65" width="280" height="280.003" filterUnits="userSpaceOnUse" color-interpolation-filters="sRGB">
<feFlood flood-opacity="0" result="BackgroundImageFix"/>
<feBlend mode="normal" in="SourceGraphic" in2="BackgroundImageFix" result="shape"/>
<feGaussianBlur stdDeviation="35" result="effect1_foregroundBlur_6_3613"/>
</filter>
<filter id="filter17_f_6_3613" x="-65.001" y="-65" width="280" height="280.003" filterUnits="userSpaceOnUse" color-interpolation-filters="sRGB">
<feFlood flood-opacity="0" result="BackgroundImageFix"/>
<feBlend mode="normal" in="SourceGraphic" in2="BackgroundImageFix" result="shape"/>
<feGaussianBlur stdDeviation="35" result="effect1_foregroundBlur_6_3613"/>
</filter>
<filter id="filter18_f_6_3613" x="-65.001" y="-65" width="280" height="280.003" filterUnits="userSpaceOnUse" color-interpolation-filters="sRGB">
<feFlood flood-opacity="0" result="BackgroundImageFix"/>
<feBlend mode="normal" in="SourceGraphic" in2="BackgroundImageFix" result="shape"/>
<feGaussianBlur stdDeviation="35" result="effect1_foregroundBlur_6_3613"/>
</filter>
<filter id="filter19_f_6_3613" x="-65.001" y="-65" width="280" height="280.003" filterUnits="userSpaceOnUse" color-interpolation-filters="sRGB">
<feFlood flood-opacity="0" result="BackgroundImageFix"/>
<feBlend mode="normal" in="SourceGraphic" in2="BackgroundImageFix" result="shape"/>
<feGaussianBlur stdDeviation="35" result="effect1_foregroundBlur_6_3613"/>
</filter>
<filter id="filter20_f_6_3613" x="-65.001" y="-65" width="280" height="280.003" filterUnits="userSpaceOnUse" color-interpolation-filters="sRGB">
<feFlood flood-opacity="0" result="BackgroundImageFix"/>
<feBlend mode="normal" in="SourceGraphic" in2="BackgroundImageFix" result="shape"/>
<feGaussianBlur stdDeviation="35" result="effect1_foregroundBlur_6_3613"/>
</filter>
<filter id="filter21_f_6_3613" x="-65.001" y="-65" width="280" height="280.003" filterUnits="userSpaceOnUse" color-interpolation-filters="sRGB">
<feFlood flood-opacity="0" result="BackgroundImageFix"/>
<feBlend mode="normal" in="SourceGraphic" in2="BackgroundImageFix" result="shape"/>
<feGaussianBlur stdDeviation="35" result="effect1_foregroundBlur_6_3613"/>
</filter>
<filter id="filter22_f_6_3613" x="-65.001" y="-65" width="280" height="280.003" filterUnits="userSpaceOnUse" color-interpolation-filters="sRGB">
<feFlood flood-opacity="0" result="BackgroundImageFix"/>
<feBlend mode="normal" in="SourceGraphic" in2="BackgroundImageFix" result="shape"/>
<feGaussianBlur stdDeviation="35" result="effect1_foregroundBlur_6_3613"/>
</filter>
<filter id="filter23_f_6_3613" x="-65.001" y="-65" width="280" height="280.003" filterUnits="userSpaceOnUse" color-interpolation-filters="sRGB">
<feFlood flood-opacity="0" result="BackgroundImageFix"/>
<feBlend mode="normal" in="SourceGraphic" in2="BackgroundImageFix" result="shape"/>
<feGaussianBlur stdDeviation="35" result="effect1_foregroundBlur_6_3613"/>
</filter>
<filter id="filter24_f_6_3613" x="-65.001" y="-65" width="280" height="280.003" filterUnits="userSpaceOnUse" color-interpolation-filters="sRGB">
<feFlood flood-opacity="0" result="BackgroundImageFix"/>
<feBlend mode="normal" in="SourceGraphic" in2="BackgroundImageFix" result="shape"/>
<feGaussianBlur stdDeviation="35" result="effect1_foregroundBlur_6_3613"/>
</filter>
<filter id="filter25_f_6_3613" x="-65.001" y="-65" width="280" height="280.003" filterUnits="userSpaceOnUse" color-interpolation-filters="sRGB">
<feFlood flood-opacity="0" result="BackgroundImageFix"/>
<feBlend mode="normal" in="SourceGraphic" in2="BackgroundImageFix" result="shape"/>
<feGaussianBlur stdDeviation="35" result="effect1_foregroundBlur_6_3613"/>
</filter>
<filter id="filter26_f_6_3613" x="-65.001" y="-65" width="280" height="280.003" filterUnits="userSpaceOnUse" color-interpolation-filters="sRGB">
<feFlood flood-opacity="0" result="BackgroundImageFix"/>
<feBlend mode="normal" in="SourceGraphic" in2="BackgroundImageFix" result="shape"/>
<feGaussianBlur stdDeviation="35" result="effect1_foregroundBlur_6_3613"/>
</filter>
<filter id="filter27_f_6_3613" x="-65.001" y="-65" width="280" height="280.003" filterUnits="userSpaceOnUse" color-interpolation-filters="sRGB">
<feFlood flood-opacity="0" result="BackgroundImageFix"/>
<feBlend mode="normal" in="SourceGraphic" in2="BackgroundImageFix" result="shape"/>
<feGaussianBlur stdDeviation="35" result="effect1_foregroundBlur_6_3613"/>
</filter>
<filter id="filter28_f_6_3613" x="-65.001" y="-65" width="280" height="280.003" filterUnits="userSpaceOnUse" color-interpolation-filters="sRGB">
<feFlood flood-opacity="0" result="BackgroundImageFix"/>
<feBlend mode="normal" in="SourceGraphic" in2="BackgroundImageFix" result="shape"/>
<feGaussianBlur stdDeviation="35" result="effect1_foregroundBlur_6_3613"/>
</filter>
<filter id="filter29_f_6_3613" x="-65.001" y="-65" width="280" height="280.003" filterUnits="userSpaceOnUse" color-interpolation-filters="sRGB">
<feFlood flood-opacity="0" result="BackgroundImageFix"/>
<feBlend mode="normal" in="SourceGraphic" in2="BackgroundImageFix" result="shape"/>
<feGaussianBlur stdDeviation="35" result="effect1_foregroundBlur_6_3613"/>
</filter>
<filter id="filter30_f_6_3613" x="-65.001" y="-65" width="280" height="280.003" filterUnits="userSpaceOnUse" color-interpolation-filters="sRGB">
<feFlood flood-opacity="0" result="BackgroundImageFix"/>
<feBlend mode="normal" in="SourceGraphic" in2="BackgroundImageFix" result="shape"/>
<feGaussianBlur stdDeviation="35" result="effect1_foregroundBlur_6_3613"/>
</filter>
<filter id="filter31_f_6_3613" x="-65.001" y="-65" width="280" height="280.003" filterUnits="userSpaceOnUse" color-interpolation-filters="sRGB">
<feFlood flood-opacity="0" result="BackgroundImageFix"/>
<feBlend mode="normal" in="SourceGraphic" in2="BackgroundImageFix" result="shape"/>
<feGaussianBlur stdDeviation="35" result="effect1_foregroundBlur_6_3613"/>
</filter>
<filter id="filter32_f_6_3613" x="-65.001" y="-65" width="280" height="280.003" filterUnits="userSpaceOnUse" color-interpolation-filters="sRGB">
<feFlood flood-opacity="0" result="BackgroundImageFix"/>
<feBlend mode="normal" in="SourceGraphic" in2="BackgroundImageFix" result="shape"/>
<feGaussianBlur stdDeviation="35" result="effect1_foregroundBlur_6_3613"/>
</filter>
<filter id="filter33_f_6_3613" x="-65.001" y="-65" width="280" height="280.003" filterUnits="userSpaceOnUse" color-interpolation-filters="sRGB">
<feFlood flood-opacity="0" result="BackgroundImageFix"/>
<feBlend mode="normal" in="SourceGraphic" in2="BackgroundImageFix" result="shape"/>
<feGaussianBlur stdDeviation="35" result="effect1_foregroundBlur_6_3613"/>
</filter>
<filter id="filter34_f_6_3613" x="-65.001" y="-65" width="280" height="280.003" filterUnits="userSpaceOnUse" color-interpolation-filters="sRGB">
<feFlood flood-opacity="0" result="BackgroundImageFix"/>
<feBlend mode="normal" in="SourceGraphic" in2="BackgroundImageFix" result="shape"/>
<feGaussianBlur stdDeviation="35" result="effect1_foregroundBlur_6_3613"/>
</filter>
<filter id="filter35_f_6_3613" x="-65.001" y="-65" width="280" height="280.003" filterUnits="userSpaceOnUse" color-interpolation-filters="sRGB">
<feFlood flood-opacity="0" result="BackgroundImageFix"/>
<feBlend mode="normal" in="SourceGraphic" in2="BackgroundImageFix" result="shape"/>
<feGaussianBlur stdDeviation="35" result="effect1_foregroundBlur_6_3613"/>
</filter>
<filter id="filter36_f_6_3613" x="-65.001" y="-65" width="280" height="280.003" filterUnits="userSpaceOnUse" color-interpolation-filters="sRGB">
<feFlood flood-opacity="0" result="BackgroundImageFix"/>
<feBlend mode="normal" in="SourceGraphic" in2="BackgroundImageFix" result="shape"/>
<feGaussianBlur stdDeviation="35" result="effect1_foregroundBlur_6_3613"/>
</filter>
</defs>
</svg>
