<svg width="150" height="150" viewBox="0 0 150 150" fill="none" xmlns="http://www.w3.org/2000/svg">
<mask id="mask0_6_3593" style="mask-type:alpha" maskUnits="userSpaceOnUse" x="12" y="5" width="126" height="140">
<path d="M70.4905 71.861L12.5443 133.367C12.5465 133.38 12.5509 133.39 12.5529 133.403C14.3301 140.082 20.4304 145 27.6702 145C30.5643 145 33.2815 144.218 35.6118 142.844L35.7968 142.736L101.026 105.095L70.4905 71.861Z" fill="#EB3131"/>
<path d="M129.115 61.3889L129.06 61.3509L100.898 45.0252L69.1709 73.2578L101.009 105.091L129.022 88.9283C133.933 86.2769 137.267 81.0994 137.267 75.1288C137.267 69.2011 133.978 64.049 129.115 61.3889Z" fill="#F6B60B"/>
<path d="M12.5315 16.6296C12.1831 17.9142 12 19.2597 12 20.657V129.344C12 130.739 12.1809 132.089 12.5337 133.369L72.4803 73.4343L12.5315 16.6296Z" fill="#5778C5"/>
<path d="M70.9064 74.9996L100.901 45.0136L35.7455 7.23714C33.3772 5.81865 30.6131 5 27.6554 5C20.4156 5 14.307 9.92669 12.5295 16.6133C12.5273 16.6199 12.5273 16.6244 12.5273 16.6301L70.9064 74.9996Z" fill="#3BAD49"/>
</mask>
<g mask="url(#mask0_6_3593)">
<g filter="url(#filter0_f_6_3593)">
<path d="M70.491 71.8611L12.5448 133.367C12.5469 133.38 12.5513 133.39 12.5533 133.404C14.3305 140.082 20.4308 145 27.6706 145C30.5648 145 33.282 144.218 35.6122 142.844L35.7973 142.736L101.027 105.096L70.491 71.8611Z" fill="#EB3131"/>
<path d="M129.116 61.3888L129.06 61.3508L100.899 45.0251L69.1713 73.2577L101.009 105.091L129.022 88.9282C133.933 86.2768 137.267 81.0993 137.267 75.1287C137.267 69.201 133.978 64.0489 129.116 61.3888Z" fill="#F6B60B"/>
<path d="M12.5319 16.6294C12.1835 17.914 12.0004 19.2595 12.0004 20.6568V129.344C12.0004 130.738 12.1814 132.088 12.5341 133.368L72.4807 73.4341L12.5319 16.6294Z" fill="#5778C5"/>
<path d="M70.9069 74.9996L100.902 45.0136L35.746 7.23714C33.3777 5.81865 30.6135 5 27.6558 5C20.416 5 14.3074 9.92669 12.5299 16.6133C12.5278 16.6199 12.5278 16.6244 12.5278 16.6301L70.9069 74.9996Z" fill="#3BAD49"/>
</g>
<g filter="url(#filter1_f_6_3593)">
<path d="M70.491 71.8611L12.5448 133.367C12.5469 133.38 12.5513 133.39 12.5533 133.404C14.3305 140.082 20.4308 145 27.6706 145C30.5648 145 33.282 144.218 35.6122 142.844L35.7973 142.736L101.027 105.096L70.491 71.8611Z" fill="#EB3131"/>
<path d="M129.116 61.3888L129.06 61.3508L100.899 45.0251L69.1713 73.2577L101.009 105.091L129.022 88.9282C133.933 86.2768 137.267 81.0993 137.267 75.1287C137.267 69.201 133.978 64.0489 129.116 61.3888Z" fill="#F6B60B"/>
<path d="M12.5319 16.6294C12.1835 17.914 12.0004 19.2595 12.0004 20.6568V129.344C12.0004 130.738 12.1814 132.088 12.5341 133.368L72.4807 73.4341L12.5319 16.6294Z" fill="#5778C5"/>
<path d="M70.9069 74.9996L100.902 45.0136L35.746 7.23714C33.3777 5.81865 30.6135 5 27.6558 5C20.416 5 14.3074 9.92669 12.5299 16.6133C12.5278 16.6199 12.5278 16.6244 12.5278 16.6301L70.9069 74.9996Z" fill="#3BAD49"/>
</g>
<g filter="url(#filter2_f_6_3593)">
<path d="M70.491 71.8611L12.5448 133.367C12.5469 133.38 12.5513 133.39 12.5533 133.404C14.3305 140.082 20.4308 145 27.6706 145C30.5648 145 33.282 144.218 35.6122 142.844L35.7973 142.736L101.027 105.096L70.491 71.8611Z" fill="#EB3131"/>
<path d="M129.116 61.3888L129.06 61.3508L100.899 45.0251L69.1713 73.2577L101.009 105.091L129.022 88.9282C133.933 86.2768 137.267 81.0993 137.267 75.1287C137.267 69.201 133.978 64.0489 129.116 61.3888Z" fill="#F6B60B"/>
<path d="M12.5319 16.6294C12.1835 17.914 12.0004 19.2595 12.0004 20.6568V129.344C12.0004 130.738 12.1814 132.088 12.5341 133.368L72.4807 73.4341L12.5319 16.6294Z" fill="#5778C5"/>
<path d="M70.9069 74.9996L100.902 45.0136L35.746 7.23714C33.3777 5.81865 30.6135 5 27.6558 5C20.416 5 14.3074 9.92669 12.5299 16.6133C12.5278 16.6199 12.5278 16.6244 12.5278 16.6301L70.9069 74.9996Z" fill="#3BAD49"/>
</g>
<g filter="url(#filter3_f_6_3593)">
<path d="M70.491 71.8611L12.5448 133.367C12.5469 133.38 12.5513 133.39 12.5533 133.404C14.3305 140.082 20.4308 145 27.6706 145C30.5648 145 33.282 144.218 35.6122 142.844L35.7973 142.736L101.027 105.096L70.491 71.8611Z" fill="#EB3131"/>
<path d="M129.116 61.3888L129.06 61.3508L100.899 45.0251L69.1713 73.2577L101.009 105.091L129.022 88.9282C133.933 86.2768 137.267 81.0993 137.267 75.1287C137.267 69.201 133.978 64.0489 129.116 61.3888Z" fill="#F6B60B"/>
<path d="M12.5319 16.6294C12.1835 17.914 12.0004 19.2595 12.0004 20.6568V129.344C12.0004 130.738 12.1814 132.088 12.5341 133.368L72.4807 73.4341L12.5319 16.6294Z" fill="#5778C5"/>
<path d="M70.9069 74.9996L100.902 45.0136L35.746 7.23714C33.3777 5.81865 30.6135 5 27.6558 5C20.416 5 14.3074 9.92669 12.5299 16.6133C12.5278 16.6199 12.5278 16.6244 12.5278 16.6301L70.9069 74.9996Z" fill="#3BAD49"/>
</g>
<g filter="url(#filter4_f_6_3593)">
<path d="M70.491 71.8611L12.5448 133.367C12.5469 133.38 12.5513 133.39 12.5533 133.404C14.3305 140.082 20.4308 145 27.6706 145C30.5648 145 33.282 144.218 35.6122 142.844L35.7973 142.736L101.027 105.096L70.491 71.8611Z" fill="#EB3131"/>
<path d="M129.116 61.3888L129.06 61.3508L100.899 45.0251L69.1713 73.2577L101.009 105.091L129.022 88.9282C133.933 86.2768 137.267 81.0993 137.267 75.1287C137.267 69.201 133.978 64.0489 129.116 61.3888Z" fill="#F6B60B"/>
<path d="M12.5319 16.6294C12.1835 17.914 12.0004 19.2595 12.0004 20.6568V129.344C12.0004 130.738 12.1814 132.088 12.5341 133.368L72.4807 73.4341L12.5319 16.6294Z" fill="#5778C5"/>
<path d="M70.9069 74.9996L100.902 45.0136L35.746 7.23714C33.3777 5.81865 30.6135 5 27.6558 5C20.416 5 14.3074 9.92669 12.5299 16.6133C12.5278 16.6199 12.5278 16.6244 12.5278 16.6301L70.9069 74.9996Z" fill="#3BAD49"/>
</g>
</g>
<defs>
<filter id="filter0_f_6_3593" x="-7.99956" y="-15" width="165.267" height="180" filterUnits="userSpaceOnUse" color-interpolation-filters="sRGB">
<feFlood flood-opacity="0" result="BackgroundImageFix"/>
<feBlend mode="normal" in="SourceGraphic" in2="BackgroundImageFix" result="shape"/>
<feGaussianBlur stdDeviation="10" result="effect1_foregroundBlur_6_3593"/>
</filter>
<filter id="filter1_f_6_3593" x="-7.99956" y="-15" width="165.267" height="180" filterUnits="userSpaceOnUse" color-interpolation-filters="sRGB">
<feFlood flood-opacity="0" result="BackgroundImageFix"/>
<feBlend mode="normal" in="SourceGraphic" in2="BackgroundImageFix" result="shape"/>
<feGaussianBlur stdDeviation="10" result="effect1_foregroundBlur_6_3593"/>
</filter>
<filter id="filter2_f_6_3593" x="-7.99956" y="-15" width="165.267" height="180" filterUnits="userSpaceOnUse" color-interpolation-filters="sRGB">
<feFlood flood-opacity="0" result="BackgroundImageFix"/>
<feBlend mode="normal" in="SourceGraphic" in2="BackgroundImageFix" result="shape"/>
<feGaussianBlur stdDeviation="10" result="effect1_foregroundBlur_6_3593"/>
</filter>
<filter id="filter3_f_6_3593" x="-7.99956" y="-15" width="165.267" height="180" filterUnits="userSpaceOnUse" color-interpolation-filters="sRGB">
<feFlood flood-opacity="0" result="BackgroundImageFix"/>
<feBlend mode="normal" in="SourceGraphic" in2="BackgroundImageFix" result="shape"/>
<feGaussianBlur stdDeviation="10" result="effect1_foregroundBlur_6_3593"/>
</filter>
<filter id="filter4_f_6_3593" x="-7.99956" y="-15" width="165.267" height="180" filterUnits="userSpaceOnUse" color-interpolation-filters="sRGB">
<feFlood flood-opacity="0" result="BackgroundImageFix"/>
<feBlend mode="normal" in="SourceGraphic" in2="BackgroundImageFix" result="shape"/>
<feGaussianBlur stdDeviation="10" result="effect1_foregroundBlur_6_3593"/>
</filter>
</defs>
</svg>
