<svg width="48" height="48" viewBox="0 0 48 48" fill="none" xmlns="http://www.w3.org/2000/svg">
<path d="M0 16.1C0 10.4051 0 7.55764 1.12587 5.39026C2.07462 3.56382 3.56382 2.07462 5.39026 1.12587C7.55764 0 10.4051 0 16.1 0H31.9C37.5949 0 40.4424 0 42.6097 1.12587C44.4362 2.07462 45.9254 3.56382 46.8741 5.39026C48 7.55764 48 10.4051 48 16.1V31.9C48 37.5949 48 40.4424 46.8741 42.6097C45.9254 44.4362 44.4362 45.9254 42.6097 46.8741C40.4424 48 37.5949 48 31.9 48H16.1C10.4051 48 7.55764 48 5.39026 46.8741C3.56382 45.9254 2.07462 44.4362 1.12587 42.6097C0 40.4424 0 37.5949 0 31.9V16.1Z" fill="white"/>
<path d="M16.0996 0.25H31.9004C34.7516 0.25 36.8749 0.250012 38.5566 0.389648C40.2354 0.529061 41.4521 0.806456 42.4941 1.34766C44.2749 2.27269 45.7273 3.72509 46.6523 5.50586C47.1935 6.54785 47.4709 7.76461 47.6104 9.44336C47.75 11.1251 47.75 13.2484 47.75 16.0996V31.9004C47.75 34.7516 47.75 36.8749 47.6104 38.5566C47.4709 40.2354 47.1935 41.4521 46.6523 42.4941C45.7273 44.2749 44.2749 45.7273 42.4941 46.6523C41.4521 47.1935 40.2354 47.4709 38.5566 47.6104C36.8749 47.75 34.7516 47.75 31.9004 47.75H16.0996C13.2484 47.75 11.1251 47.75 9.44336 47.6104C7.76461 47.4709 6.54785 47.1935 5.50586 46.6523C3.72509 45.7273 2.27269 44.2749 1.34766 42.4941C0.806456 41.4521 0.529061 40.2354 0.389648 38.5566C0.250012 36.8749 0.25 34.7516 0.25 31.9004V16.0996C0.25 13.2484 0.250012 11.1251 0.389648 9.44336C0.529061 7.76461 0.806455 6.54785 1.34766 5.50586C2.27269 3.72509 3.72509 2.27269 5.50586 1.34766C6.54785 0.806455 7.76461 0.529061 9.44336 0.389648C11.1251 0.250012 13.2484 0.25 16.0996 0.25Z" stroke="black" stroke-opacity="0.15" stroke-width="0.5"/>
<path fill-rule="evenodd" clip-rule="evenodd" d="M40.32 24.3865C40.32 23.181 40.2118 22.0219 40.0109 20.9092H24V27.4851H33.1491C32.755 29.6101 31.5573 31.4106 29.7568 32.616V36.8815H35.2509C38.4654 33.9219 40.32 29.5637 40.32 24.3865Z" fill="#4285F4"/>
<path fill-rule="evenodd" clip-rule="evenodd" d="M24 41.0001C28.59 41.0001 32.4382 39.4778 35.2509 36.8814L29.7568 32.616C28.2345 33.636 26.2873 34.2387 24 34.2387C19.5722 34.2387 15.8245 31.2482 14.4877 27.23H8.80814V31.6346C11.6054 37.1905 17.3545 41.0001 24 41.0001Z" fill="#34A853"/>
<path fill-rule="evenodd" clip-rule="evenodd" d="M14.4877 27.2301C14.1477 26.2101 13.9545 25.1206 13.9545 24.0001C13.9545 22.8796 14.1477 21.7901 14.4877 20.7701V16.3655H8.80812C7.65676 18.6605 6.99994 21.2569 6.99994 24.0001C6.99994 26.7433 7.65676 29.3397 8.80812 31.6347L14.4877 27.2301Z" fill="#FBBC05"/>
<path fill-rule="evenodd" clip-rule="evenodd" d="M24 13.7614C26.4959 13.7614 28.7368 14.6192 30.4986 16.3037L35.3745 11.4278C32.4304 8.68461 28.5823 7.00006 24 7.00006C17.3545 7.00006 11.6054 10.8096 8.80814 16.3655L14.4877 20.7701C15.8245 16.7519 19.5722 13.7614 24 13.7614Z" fill="#EA4335"/>
</svg>
