<svg width="24" height="24" viewBox="0 0 24 24" fill="none" xmlns="http://www.w3.org/2000/svg">
<path opacity="0.4" d="M7.83832 14.3416L5.74219 10.5657M10.8012 11.379L8.70508 7.60315M13.7621 8.41639L11.666 4.6405" stroke="black" stroke-width="2" stroke-linecap="round" stroke-linejoin="round"/>
<path d="M4.21266 20.7109C4.12722 20.6255 4.0845 20.5828 4.04899 20.546C1.80138 18.2205 1.80138 14.532 4.04899 12.2065C4.0845 12.1698 4.12722 12.1271 4.21266 12.0416L11.8376 4.41664C11.9231 4.3312 11.9658 4.28848 12.0025 4.25296C14.3281 2.00536 18.0165 2.00536 20.3421 4.25296C20.3788 4.28848 20.4215 4.3312 20.507 4.41664C20.5497 4.45936 20.571 4.48072 20.5888 4.4991C21.7126 5.66186 21.7126 7.50609 20.5888 8.66885C20.571 8.68723 20.5497 8.70859 20.507 8.75131L8.54733 20.7109C8.50461 20.7537 8.48325 20.775 8.46487 20.7928C7.30211 21.9166 5.45788 21.9166 4.29512 20.7928C4.27674 20.775 4.25538 20.7537 4.21266 20.7109Z" stroke="black" stroke-width="2" stroke-linecap="round" stroke-linejoin="round"/>
</svg>
