<svg width="24" height="24" viewBox="0 0 24 24" fill="none" xmlns="http://www.w3.org/2000/svg">
<path opacity="0.4" d="M9.5 3H17C17.8284 3 18.5 3.67157 18.5 4.5V6.8859C18.5 8.28453 18.2555 9.67239 17.7775 10.9868L17.5 11.75M14.7363 9.01805C16.9659 9.13853 18.0807 8.66614 18.0807 8.66614" stroke="black" stroke-width="2" stroke-linecap="round" stroke-linejoin="round"/>
<path d="M5.5 5V6.8859C5.5 8.28453 5.74451 9.67239 6.22248 10.9868L6.77752 12.5132C7.25549 13.8276 7.5 15.2155 7.5 16.6141V19.5C7.5 20.3284 8.17157 21 9 21H15C15.8284 21 16.5 20.3284 16.5 19.5V16.6141C16.5 16.3642 16.5078 16.1147 16.5233 15.8659M2.5 1.69653L22.5 21.6965" stroke="black" stroke-width="2" stroke-linecap="round" stroke-linejoin="round"/>
</svg>
