<svg width="24" height="24" viewBox="0 0 24 24" fill="none" xmlns="http://www.w3.org/2000/svg">
<path opacity="0.4" d="M6.24219 8.66616C6.24219 8.66616 8.21517 7.8301 12.1611 8.66616C16.1071 9.50222 18.0801 8.66616 18.0801 8.66616M6.5 11.75C6.22338 10.9893 6.08508 10.609 5.97327 10.2228C5.73413 9.39665 5.58448 8.54722 5.52691 7.68913C5.5 7.28796 5.5 6.88325 5.5 6.07382V5.4C5.5 4.55992 5.5 4.13988 5.66349 3.81901C5.8073 3.53677 6.03677 3.3073 6.31901 3.16349C6.63988 3 7.05992 3 7.9 3H16.1C16.9401 3 17.3601 3 17.681 3.16349C17.9632 3.3073 18.1927 3.53677 18.3365 3.81901C18.5 4.13988 18.5 4.55992 18.5 5.4V6.07382C18.5 6.88325 18.5 7.28796 18.4731 7.68913C18.4155 8.54722 18.2659 9.39665 18.0267 10.2228C17.9149 10.609 17.7766 10.9893 17.5 11.75C17.2234 12.5107 17.0851 12.891 16.9733 13.2772C16.7341 14.1034 16.5845 14.9528 16.5269 15.8109C16.5 16.212 16.5 16.6167 16.5 17.4262V18.6C16.5 19.4401 16.5 19.8601 16.3365 20.181C16.1927 20.4632 15.9632 20.6927 15.681 20.8365C15.3601 21 14.9401 21 14.1 21H9.9C9.05992 21 8.63988 21 8.31901 20.8365C8.03677 20.6927 7.8073 20.4632 7.66349 20.181C7.5 19.8601 7.5 19.4401 7.5 18.6V17.4262C7.5 16.6167 7.5 16.212 7.47309 15.8109C7.41552 14.9528 7.26587 14.1034 7.02673 13.2772C6.91492 12.891 6.77662 12.5107 6.5 11.75Z" stroke="black" stroke-width="2" stroke-linecap="round" stroke-linejoin="round"/>
<path d="M16.1 3H7.9C7.05992 3 6.63988 3 6.31901 3.16349C6.03677 3.3073 5.8073 3.53677 5.66349 3.81901C5.5 4.13988 5.5 4.55992 5.5 5.4V6.07382C5.5 6.88325 5.5 7.28796 5.52691 7.68913C5.58448 8.54722 5.73413 9.39665 5.97327 10.2228C6.08508 10.609 6.22338 10.9893 6.5 11.75L6.50001 11.75C6.77662 12.5107 6.91492 12.891 7.02673 13.2772C7.26587 14.1034 7.41552 14.9528 7.47309 15.8109C7.5 16.212 7.5 16.6167 7.5 17.4262V18.6C7.5 19.4401 7.5 19.8601 7.66349 20.181C7.8073 20.4632 8.03677 20.6927 8.31901 20.8365C8.63988 21 9.05992 21 9.9 21H14.1C14.9401 21 15.3601 21 15.681 20.8365C15.9632 20.6927 16.1927 20.4632 16.3365 20.181C16.5 19.8601 16.5 19.4401 16.5 18.6V17.4262C16.5 16.6167 16.5 16.212 16.5269 15.8109C16.5845 14.9528 16.7341 14.1034 16.9733 13.2772C17.0851 12.891 17.2234 12.5107 17.5 11.75C17.7766 10.9893 17.9149 10.609 18.0267 10.2228C18.2659 9.39665 18.4155 8.54722 18.4731 7.68913C18.5 7.28796 18.5 6.88325 18.5 6.07382V5.4C18.5 4.55992 18.5 4.13988 18.3365 3.81901C18.1927 3.53677 17.9632 3.3073 17.681 3.16349C17.3601 3 16.9401 3 16.1 3Z" stroke="black" stroke-width="2" stroke-linecap="round" stroke-linejoin="round"/>
</svg>
