<svg width="24" height="24" viewBox="0 0 24 24" fill="none" xmlns="http://www.w3.org/2000/svg">
<path d="M10.3489 10.3877L12.7375 7.99912C11.4661 6.59255 11.5083 4.42064 12.864 3.06487C14.2634 1.66555 16.5321 1.66555 17.9314 3.06487C18.4935 3.62699 18.8299 4.3294 18.9404 5.0594C19.6703 5.1699 20.3728 5.50621 20.9349 6.06833C22.3342 7.46765 22.3342 9.73639 20.9349 11.1357C19.5791 12.4915 17.4072 12.5337 16.0006 11.2623L13.6121 13.6509M10.3879 10.349L7.99936 12.7376C6.59279 11.4662 4.42088 11.5084 3.06511 12.8642C1.6658 14.2635 1.6658 16.5322 3.06511 17.9315C3.62723 18.4937 4.32965 18.83 5.05964 18.9405C5.17015 19.6705 5.50646 20.3729 6.06857 20.935C7.46789 22.3343 9.73663 22.3343 11.136 20.935C12.4917 19.5792 12.5339 17.4073 11.2625 16.0008L13.6511 13.6122" stroke="black" stroke-width="2" stroke-linecap="round" stroke-linejoin="round"/>
</svg>
