<svg width="24" height="24" viewBox="0 0 24 24" fill="none" xmlns="http://www.w3.org/2000/svg">
<path opacity="0.4" d="M7.07031 12.4716C7.07031 12.4716 8.71354 11.4106 12 12.4716C15.2865 13.5326 16.9297 12.4716 16.9297 12.4716M14.5 6H9" stroke="black" stroke-width="2" stroke-linecap="round" stroke-linejoin="round"/>
<path d="M6.48438 13.8068C6.48437 12.2954 6.88072 10.8104 7.63387 9.5C8.38702 8.1896 8.78337 6.70461 8.78337 5.1932V4C8.78337 2.89543 9.6788 2 10.7834 2L12.8433 2C13.9023 2 14.7607 2.85846 14.7607 3.91742V5.07045C14.7607 6.65268 15.2418 8.19751 16.1401 9.5C17.0385 10.8025 17.5195 12.3473 17.5195 13.9296V19C17.5195 20.6569 16.1764 22 14.5195 22H9.48437C7.82752 22 6.48438 20.6569 6.48438 19L6.48438 13.8068Z" stroke="black" stroke-width="2" stroke-linecap="round" stroke-linejoin="round"/>
</svg>
