<svg width="24" height="24" viewBox="0 0 24 24" fill="none" xmlns="http://www.w3.org/2000/svg">
<path opacity="0.4" d="M20 14V8.5C20 8.22386 20.2239 8 20.5 8C21.3284 8 22 7.32843 22 6.5V6C22 4.34315 20.6569 3 19 3H9.5" stroke="black" stroke-width="2" stroke-linecap="round" stroke-linejoin="round"/>
<path d="M3.73367 3.27958C2.70968 3.75705 2 4.79565 2 6V6.5C2 7.32843 2.67157 8 3.5 8C3.77614 8 4 8.22386 4 8.5V18C4 19.6569 5.34315 21 7 21H17C18.1849 21 19.2094 20.313 19.6969 19.3156M2.5 2L22.5 22" stroke="black" stroke-width="2" stroke-linecap="round" stroke-linejoin="round"/>
</svg>
