<svg width="24" height="24" viewBox="0 0 24 24" fill="none" xmlns="http://www.w3.org/2000/svg">
<path d="M2 6.33333C2 6.02379 2 5.86902 2.01142 5.73853C2.1383 4.28819 3.28819 3.1383 4.73853 3.01142C4.86902 3 5.02379 3 5.33333 3H18.6667C18.9762 3 19.131 3 19.2615 3.01142C20.7118 3.1383 21.8617 4.28819 21.9886 5.73853C22 5.86902 22 6.02379 22 6.33333V6.5C22 7.32843 21.3284 8 20.5 8C20.2239 8 20 8.22386 20 8.5V16.2C20 17.8802 20 18.7202 19.673 19.362C19.3854 19.9265 18.9265 20.3854 18.362 20.673C17.7202 21 16.8802 21 15.2 21H12H8.8C7.11984 21 6.27976 21 5.63803 20.673C5.07354 20.3854 4.6146 19.9265 4.32698 19.362C4 18.7202 4 17.8802 4 16.2V8.5C4 8.22386 3.77614 8 3.5 8C2.67157 8 2 7.32843 2 6.5V6.33333Z" stroke="black" stroke-width="2" stroke-linecap="round" stroke-linejoin="round"/>
</svg>
