<svg width="24" height="24" viewBox="0 0 24 24" fill="none" xmlns="http://www.w3.org/2000/svg">
<path d="M6.60823 17.1195C5.42018 15.9314 4.82616 15.3374 4.60359 14.6524C4.40782 14.0499 4.40782 13.4008 4.60359 12.7983C4.82616 12.1133 5.42018 11.5193 6.60823 10.3312L10.3315 6.60795C11.5196 5.4199 12.1136 4.82587 12.7986 4.60331C13.4011 4.40753 14.0502 4.40753 14.6527 4.60331C15.3377 4.82587 15.9317 5.4199 17.1198 6.60795L17.3924 6.88063C18.5805 8.06868 19.1745 8.6627 19.3971 9.34769C19.5928 9.95022 19.5928 10.5993 19.3971 11.2018C19.1745 11.8868 18.5805 12.4808 17.3924 13.6688L13.6691 17.3921C12.4811 18.5802 11.8871 19.1742 11.2021 19.3968C10.5995 19.5926 9.9505 19.5926 9.34797 19.3968C8.66298 19.1742 8.06896 18.5802 6.88091 17.3921L6.60823 17.1195Z" stroke="black" stroke-width="2" stroke-linecap="round" stroke-linejoin="round"/>
<path d="M16.7677 6.2574C16.5347 6.02434 16.4181 5.90782 16.3468 5.7697C16.2835 5.64722 16.2462 5.51297 16.2373 5.37539C16.2272 5.22025 16.267 5.06033 16.3465 4.74048C16.6814 3.39338 16.8488 2.71983 17.2267 2.40552C17.5568 2.13087 17.9888 2.0109 18.4133 2.076C18.8991 2.15049 19.3906 2.64203 20.3737 3.6251C21.3568 4.60817 21.8483 5.0997 21.9228 5.58548C21.9879 6.00997 21.8679 6.44201 21.5933 6.77215C21.279 7.14997 20.6054 7.31742 19.2583 7.65231C18.9385 7.73183 18.7786 7.77159 18.6234 7.76152C18.4858 7.75259 18.3516 7.71531 18.2291 7.65203C18.091 7.58066 17.9745 7.46413 17.7414 7.23108L16.7677 6.2574Z" stroke="black" stroke-width="2" stroke-linecap="round" stroke-linejoin="round"/>
<path d="M6.25733 16.769C6.02428 16.5359 5.90775 16.4194 5.76964 16.348C5.64715 16.2847 5.51291 16.2474 5.37533 16.2385C5.22019 16.2284 5.06027 16.2682 4.74041 16.3477C3.39332 16.6826 2.71977 16.8501 2.40546 17.2279C2.13081 17.558 2.01084 17.9901 2.07594 18.4146C2.15043 18.9003 2.64196 19.3919 3.62504 20.3749C4.60811 21.358 5.09964 21.8495 5.58542 21.924C6.00991 21.9891 6.44195 21.8692 6.77209 21.5945C7.14991 21.2802 7.31735 20.6067 7.65225 19.2596C7.73177 18.9397 7.77153 18.7798 7.76146 18.6246C7.75253 18.4871 7.71525 18.3528 7.65196 18.2303C7.5806 18.0922 7.46407 17.9757 7.23102 17.7426L6.25733 16.769Z" stroke="black" stroke-width="2" stroke-linecap="round" stroke-linejoin="round"/>
</svg>
