<svg width="24" height="24" viewBox="0 0 24 24" fill="none" xmlns="http://www.w3.org/2000/svg">
<path opacity="0.4" d="M18.4969 12.0393C18.6652 11.8096 18.7839 11.5971 18.8624 11.375C19.0911 10.728 19.0911 10.0222 18.8624 9.37528C18.6359 8.73445 18.0745 8.17304 16.9517 7.05025C15.8289 5.92745 15.2675 5.36606 14.6267 5.13952C13.9797 4.91082 13.2739 4.91082 12.627 5.13952C12.3955 5.22133 12.1745 5.34681 11.9336 5.52662M18.8374 7.90541C18.5674 7.97252 18.4324 8.00608 18.3014 8.00387C18.1312 8.001 17.9646 7.95471 17.8172 7.86941C17.7038 7.80376 17.6055 7.70541 17.4088 7.5087L16.4918 6.59171C16.2951 6.395 16.1967 6.29665 16.1311 6.18327C16.0458 6.03594 15.9995 5.86928 15.9966 5.69906C15.9944 5.56806 16.028 5.43308 16.0951 5.16311C16.3773 4.02794 16.5184 3.46036 16.807 3.16775C17.1817 2.7879 17.7299 2.63566 18.2468 2.76793C18.645 2.86983 19.0593 3.28411 19.8878 4.11267C20.7164 4.94124 21.1307 5.35552 21.2326 5.75368C21.3648 6.27056 21.2126 6.81881 20.8327 7.19348C20.5401 7.48209 19.9726 7.6232 18.8374 7.90541Z" stroke="black" stroke-width="2" stroke-linecap="round" stroke-linejoin="round"/>
<path d="M15.4214 15.2296L13.7012 16.9498C12.5785 18.0726 12.017 18.634 11.3762 18.8605C10.7293 19.0892 10.0234 19.0892 9.37649 18.8605C8.73565 18.634 8.17425 18.0726 7.05146 16.9498C5.92866 15.827 5.36726 15.2656 5.14073 14.6247C4.91203 13.9778 4.91203 13.272 5.14073 12.625C5.36726 11.9842 5.92866 11.4228 7.05146 10.3L9.00034 8.3511M2.5 1.69653L22.5 21.6965M7.90629 18.8369C7.9734 18.5669 8.00696 18.4319 8.00475 18.3009C8.00188 18.1307 7.95559 17.964 7.87029 17.8167C7.80464 17.7033 7.70629 17.605 7.50958 17.4083L6.59259 16.4913C6.39588 16.2946 6.29753 16.1962 6.18415 16.1306C6.03682 16.0453 5.87016 15.999 5.69994 15.9961C5.56894 15.9939 5.43396 16.0274 5.16399 16.0946C4.02882 16.3768 3.46124 16.5179 3.16863 16.8065C2.78878 17.1812 2.63654 17.7294 2.76881 18.2463C2.87071 18.6445 3.28499 19.0587 4.11355 19.8873C4.94212 20.7159 5.3564 21.1301 5.75456 21.232C6.27144 21.3643 6.81969 21.2121 7.19436 20.8322C7.48297 20.5396 7.62408 19.972 7.90629 18.8369Z" stroke="black" stroke-width="2" stroke-linecap="round" stroke-linejoin="round"/>
</svg>
