<svg width="24" height="24" viewBox="0 0 24 24" fill="none" xmlns="http://www.w3.org/2000/svg">
<path opacity="0.4" d="M16.8114 12.0118C17.3127 10.6106 17.0479 9.03495 15.9808 7.96787C14.914 6.90104 13.3425 6.63793 11.9453 7.13429M21.8747 7.9118L21.1487 7.18582C20.9814 7.01852 20.8978 6.93488 20.8223 6.86915C19.7311 5.91906 18.1064 5.91906 17.0151 6.86915C16.9397 6.93488 16.856 7.01852 16.6887 7.18581L16.5366 7.33795C16.2101 7.66446 16.2101 8.19384 16.5366 8.52035C17.8426 9.82639 19.9601 9.82639 21.2662 8.52035L21.8747 7.9118ZM15.9617 2L16.6877 2.72599C16.855 2.89328 16.9386 2.97693 17.0043 3.05242C17.9544 4.14364 17.9544 5.76834 17.0043 6.85956C16.9386 6.93506 16.855 7.0187 16.6877 7.18599L16.5355 7.33813C16.209 7.66464 15.6797 7.66464 15.3531 7.33813C14.0471 6.03209 14.0471 3.91459 15.3531 2.60855L15.9617 2Z" stroke="black" stroke-width="2" stroke-linecap="round" stroke-linejoin="round"/>
<path d="M9.21607 9.38989L5.40541 13.6513C3.79411 15.4532 2.66536 17.6206 2.13641 19.9284L2.11069 20.0406C1.85976 21.1354 2.75095 22.074 3.85288 21.8754C6.37066 21.4216 8.7443 20.2193 10.6576 18.4287L14.4961 14.8362M8.77148 17.1538L10.138 18.5204M2 2L22 22" stroke="black" stroke-width="2" stroke-linecap="round" stroke-linejoin="round"/>
</svg>
