<svg width="24" height="24" viewBox="0 0 24 24" fill="none" xmlns="http://www.w3.org/2000/svg">
<path opacity="0.4" d="M9.73242 9.23132L11.8468 11.3457M8.77148 17.1538L10.138 18.5204" stroke="black" stroke-width="2" stroke-linecap="round" stroke-linejoin="round"/>
<path d="M3.85518 21.8753C2.75325 22.0739 1.86206 21.1354 2.11299 20.0406L2.13871 19.9284C2.66765 17.6206 3.79641 15.4531 5.40771 13.6512L10.15 8.34807C11.7407 6.56916 14.4103 6.39517 15.9831 7.9679C17.5296 9.51441 17.3909 12.1292 15.6773 13.7329L10.6599 18.4286C8.7466 20.2193 6.37295 21.4216 3.85518 21.8753Z" stroke="black" stroke-width="2" stroke-linecap="round" stroke-linejoin="round"/>
<path d="M21.8754 7.9118L21.2669 8.52035C19.9609 9.82639 17.8434 9.82639 16.5373 8.52035C16.2108 8.19384 16.2108 7.66446 16.5373 7.33795L16.6895 7.18581C16.8567 7.01852 16.9404 6.93488 17.0159 6.86915C18.1071 5.91906 19.7318 5.91906 20.823 6.86915C20.8985 6.93488 20.9822 7.01852 21.1495 7.18581L21.8754 7.9118Z" stroke="black" stroke-width="2" stroke-linecap="round" stroke-linejoin="round"/>
<path d="M15.9624 2L15.3539 2.60855C14.0478 3.91459 14.0478 6.03209 15.3539 7.33813C15.6804 7.66464 16.2098 7.66464 16.5363 7.33813L16.6884 7.18599C16.8557 7.0187 16.9394 6.93506 17.0051 6.85956C17.9552 5.76834 17.9552 4.14364 17.0051 3.05242C16.9394 2.97693 16.8557 2.89328 16.6884 2.72599L15.9624 2Z" stroke="black" stroke-width="2" stroke-linecap="round" stroke-linejoin="round"/>
</svg>
