<svg width="24" height="24" viewBox="0 0 24 24" fill="none" xmlns="http://www.w3.org/2000/svg">
<path opacity="0.4" d="M3.74219 9.39478L21.5434 12.0625" stroke="black" stroke-width="2" stroke-linecap="round" stroke-linejoin="round"/>
<path d="M7.52421 13.4049L7.53177 13.406M12.1414 16.6616L12.149 16.6627M17.4109 14.8863L17.4185 14.8874M3.74363 9.39482L2.76547 15.9219C2.64096 16.7527 2.57871 17.1681 2.69284 17.5097C2.79323 17.8101 2.98616 18.0711 3.24397 18.2551C3.53707 18.4644 3.95247 18.5266 4.78327 18.6511L17.8375 20.6074C18.6683 20.7319 19.0837 20.7942 19.4253 20.6801C19.7257 20.5797 19.9866 20.3867 20.1707 20.1289C20.3799 19.8358 20.4422 19.4204 20.5667 18.5896L21.5448 12.0625L11.9302 4.27598C11.537 3.95757 11.3404 3.79837 10.9717 3.63644C10.7398 3.53462 10.192 3.40294 9.93917 3.38827C9.53714 3.36493 9.40863 3.39218 9.1516 3.44667C8.25227 3.63732 7.11276 4.0506 6.15193 4.94111C4.23022 6.72215 3.74363 9.39482 3.74363 9.39482ZM7.90249 13.4615C7.87118 13.6705 7.67644 13.8145 7.46752 13.7831C7.2586 13.7518 7.11462 13.5571 7.14592 13.3482C7.17723 13.1393 7.37198 12.9953 7.5809 13.0266C7.78981 13.0579 7.9338 13.2526 7.90249 13.4615ZM12.5197 16.7183C12.4884 16.9272 12.2936 17.0712 12.0847 17.0399C11.8758 17.0085 11.7318 16.8138 11.7631 16.6049C11.7944 16.396 11.9892 16.252 12.1981 16.2833C12.407 16.3146 12.551 16.5093 12.5197 16.7183ZM17.7892 14.943C17.7579 15.1519 17.5632 15.2959 17.3542 15.2646C17.1453 15.2333 17.0013 15.0385 17.0326 14.8296C17.064 14.6207 17.2587 14.4767 17.4676 14.508C17.6765 14.5393 17.8205 14.7341 17.7892 14.943Z" stroke="black" stroke-width="2" stroke-linecap="round" stroke-linejoin="round"/>
</svg>
