<svg width="24" height="24" viewBox="0 0 24 24" fill="none" xmlns="http://www.w3.org/2000/svg">
<path d="M5 19.0881C5 18.4236 5 18.0914 5.12793 17.837C5.24373 17.6067 5.4306 17.4199 5.66087 17.3041C5.91526 17.1761 6.24748 17.1761 6.91193 17.1761H17.0881C17.7525 17.1761 18.0847 17.1761 18.3391 17.3041C18.5694 17.4199 18.7563 17.6067 18.8721 17.837C19 18.0914 19 18.4236 19 19.0881C19 19.7525 19 20.0847 18.8721 20.3391C18.7563 20.5694 18.5694 20.7563 18.3391 20.8721C18.0847 21 17.7525 21 17.0881 21H6.91193C6.24748 21 5.91526 21 5.66087 20.8721C5.4306 20.7563 5.24373 20.5694 5.12793 20.3391C5 20.0847 5 19.7525 5 19.0881Z" stroke="black" stroke-width="2" stroke-linecap="round" stroke-linejoin="round"/>
<path opacity="0.4" d="M6.04492 16.98V13.8853C4.29695 13.457 3 11.88 3 10C3 7.79086 4.79086 6 7 6C7.37801 6 7.74377 6.05243 8.09041 6.15043C8.47994 4.34939 10.0824 3 12 3C13.9176 3 15.5201 4.34939 15.9096 6.15043C16.2562 6.05243 16.622 6 17 6C19.2091 6 21 7.79086 21 10C21 11.88 19.7031 13.457 17.9551 13.8853V16.98" stroke="black" stroke-width="2" stroke-linecap="round" stroke-linejoin="round"/>
</svg>
