<svg width="24" height="24" viewBox="0 0 24 24" fill="none" xmlns="http://www.w3.org/2000/svg">
<path opacity="0.4" d="M8.5 6.743C8.03729 6.28692 7.74609 5.62414 7.74609 4.88645C7.74609 4.14877 8.03729 3.48598 8.5 3.02991M12.2539 6.743C11.7912 6.28692 11.5 5.62414 11.5 4.88645C11.5 4.14877 11.7912 3.48598 12.2539 3.02991" stroke="black" stroke-width="2" stroke-linecap="round" stroke-linejoin="round"/>
<path d="M16.943 11H18.9557C19.0566 11 19.107 11 19.1496 11.0018C20.1872 11.0461 21.0182 11.8771 21.0625 12.9147C21.0643 12.9573 21.0643 13.0078 21.0643 13.1086C21.0643 13.3104 21.0643 13.4113 21.0607 13.4965C20.9721 15.5716 19.31 17.2337 17.2349 17.3223C17.1497 17.3259 17.0488 17.3259 16.847 17.3259H16.6758M16.6758 14.8267C16.6758 14.8267 14.4505 13.3116 10 14.8267C5.54948 16.3417 3.32422 14.8267 3.32422 14.8267M10 21C9.07116 21 8.60674 21 8.21684 20.9487C5.52444 20.5942 3.40579 18.4756 3.05133 15.7832C3 15.3933 3 14.9288 3 14V12.2C3 11.548 3 11.222 3.09963 10.9624C3.25198 10.5656 3.56557 10.252 3.96245 10.0996C4.22199 10 4.54799 10 5.2 10H14.8C15.452 10 15.778 10 16.0376 10.0996C16.4344 10.252 16.748 10.5656 16.9004 10.9624C17 11.222 17 11.548 17 12.2V14C17 14.9288 17 15.3933 16.9487 15.7832C16.5942 18.4756 14.4756 20.5942 11.7832 20.9487C11.3933 21 10.9288 21 10 21Z" stroke="black" stroke-width="2" stroke-linecap="round" stroke-linejoin="round"/>
</svg>
