<svg width="24" height="24" viewBox="0 0 24 24" fill="none" xmlns="http://www.w3.org/2000/svg">
<path opacity="0.4" d="M18.8008 9.37402C19.6292 9.37402 20.3008 8.70245 20.3008 7.87402V6.86877C20.3008 6.04035 19.6292 5.36877 18.8008 5.36877H18.4052M18.8008 9.37402H15.5M18.8008 9.37402H19L18.5 12.5305M8 2H16.4052C17.5097 2 18.4052 2.89543 18.4052 4V5.36877M18.4052 5.36877H11.5" stroke="black" stroke-width="2" stroke-linecap="round" stroke-linejoin="round"/>
<path d="M5.19922 9.37402C4.37079 9.37402 3.69922 8.70245 3.69922 7.87402V6.86877C3.69922 6.04035 4.37079 5.36877 5.19922 5.36877H6M5.19922 9.37402H5L7 22H17L17.75 17.2653M5.19922 9.37402H10M2.5 1.69653L22.5 21.6965" stroke="black" stroke-width="2" stroke-linecap="round" stroke-linejoin="round"/>
</svg>
