<svg width="24" height="24" viewBox="0 0 24 24" fill="none" xmlns="http://www.w3.org/2000/svg">
<path opacity="0.4" d="M8.19531 5.88728C8.19531 3.78614 9.89862 2.08282 11.9998 2.08282C14.1009 2.08282 15.8042 3.78614 15.8042 5.88728M8.97266 10.2863L8.63227 11.0596M12.5781 9.52423L12.1557 8.79257M15.6289 11.2153L16.375 10.8189" stroke="black" stroke-width="2" stroke-linecap="round" stroke-linejoin="round"/>
<path d="M18.5517 16.1469C19.7577 16.1469 20.7354 15.2834 20.7354 14.2182V13.2539C20.7354 8.99321 16.8246 5.53925 12.0005 5.53925C7.17637 5.53925 3.26562 8.99321 3.26562 13.2539V14.2182C3.26562 15.2834 4.24331 16.1469 5.44935 16.1469M18.5517 16.1469C17.3456 16.1469 16.3679 15.2834 16.3679 14.2182C16.3679 15.2834 15.3903 16.1469 14.1842 16.1469C12.9782 16.1469 12.0005 15.2834 12.0005 14.2182C12.0005 15.2834 11.0228 16.1469 9.81679 16.1469C8.61075 16.1469 7.63307 15.2834 7.63307 14.2182C7.63307 15.2834 6.65538 16.1469 5.44935 16.1469M18.5517 16.1469L18.1991 18.0096C17.9359 19.4003 17.8043 20.0957 17.4465 20.6164C17.1309 21.0755 16.6938 21.4377 16.1841 21.6623C15.6059 21.9172 14.8982 21.9172 13.4828 21.9172H10.518C9.10256 21.9172 8.39484 21.9172 7.81671 21.6623C7.30695 21.4377 6.86982 21.0755 6.55428 20.6164C6.19642 20.0957 6.06484 19.4003 5.80168 18.0096L5.44935 16.1469" stroke="black" stroke-width="2" stroke-linecap="round" stroke-linejoin="round"/>
</svg>
