<svg width="24" height="24" viewBox="0 0 24 24" fill="none" xmlns="http://www.w3.org/2000/svg">
<path opacity="0.4" d="M14.0572 15.0216L17.6079 8.87155C18.7438 9.45308 20.1485 9.0473 20.7937 7.9297C21.4597 6.77621 21.0645 5.30123 19.911 4.63526C19.4476 4.36773 18.9324 4.27145 18.4385 4.32678C18.2395 3.87144 17.8985 3.47336 17.4352 3.20583C16.2817 2.53986 14.8067 2.93508 14.1407 4.08858C13.4955 5.20617 13.8464 6.62555 14.918 7.31852L11.5313 13.1843M12.3124 14.751L9.25397 9.45356C10.3255 8.76059 10.6765 7.34122 10.0312 6.22362C9.36525 5.07012 7.89028 4.6749 6.73678 5.34088C6.27341 5.6084 5.9324 6.00648 5.7334 6.46182C5.23956 6.40649 4.72431 6.50278 4.26094 6.7703C3.10744 7.43628 2.71222 8.91125 3.3782 10.0647C4.02344 11.1823 5.42811 11.5881 6.56404 11.0066L8.72586 14.751" stroke="black" stroke-width="2" stroke-linecap="round" stroke-linejoin="round"/>
<path d="M3.58904 18.3382C3.08642 17.2827 2.83511 16.755 2.88517 16.3261C2.93787 15.8745 3.1925 15.4713 3.5775 15.2296C3.94323 15 4.52776 15 5.69683 15H18.3019C19.471 15 20.0555 15 20.4213 15.2296C20.8063 15.4713 21.0609 15.8745 21.1136 16.3261C21.1637 16.755 20.9124 17.2827 20.4097 18.3382C19.9718 19.2578 19.7529 19.7176 19.4272 20.0619C19.0819 20.4267 18.6506 20.6991 18.1728 20.8539C17.7219 21 17.2127 21 16.1941 21H7.80463C6.78609 21 6.27683 21 5.826 20.8539C5.34816 20.6991 4.91684 20.4267 4.57161 20.0619C4.2459 19.7176 4.02694 19.2578 3.58904 18.3382Z" stroke="black" stroke-width="2" stroke-linecap="round" stroke-linejoin="round"/>
</svg>
