<svg width="24" height="24" viewBox="0 0 24 24" fill="none" xmlns="http://www.w3.org/2000/svg">
<path opacity="0.4" d="M17.9076 12.18L18.5155 12.7879M16.727 7.72073L16.5045 8.55118M12.2782 6.11941L11.6703 5.51147M6.49913 13.014L5.67135 12.7817M6.64019 8.15772L7.49981 8.14337M20.3338 17.5555C20.3338 17.5555 18.6671 15.8889 15.8893 17C13.1115 18.1112 12.2782 18.1112 9.22266 17C6.1671 15.8889 4.22266 17.5555 4.22266 17.5555" stroke="black" stroke-width="2" stroke-linecap="round" stroke-linejoin="round"/>
<path d="M22 12C22 17.5228 17.5228 22 12 22C6.47715 22 2 17.5228 2 12C2 6.47715 6.47715 2 12 2C17.5228 2 22 6.47715 22 12Z" stroke="black" stroke-width="2" stroke-linecap="round" stroke-linejoin="round"/>
<path d="M14.2222 12C14.2222 13.2273 13.2273 14.2222 12 14.2222C10.7727 14.2222 9.77778 13.2273 9.77778 12C9.77778 10.7727 10.7727 9.77778 12 9.77778C13.2273 9.77778 14.2222 10.7727 14.2222 12Z" stroke="black" stroke-width="2" stroke-linecap="round" stroke-linejoin="round"/>
</svg>
