<svg width="24" height="24" viewBox="0 0 24 24" fill="none" xmlns="http://www.w3.org/2000/svg">
<path opacity="0.4" d="M19.1215 10.6908C18.0466 8.61872 15.8818 7.203 13.3863 7.203C9.82043 7.203 6.92969 10.0937 6.92969 13.6597C6.92969 15.974 8.14729 18.0039 9.97683 19.1437" stroke="black" stroke-width="2" stroke-linecap="round" stroke-linejoin="round"/>
<path d="M15.1953 3.55323L14.5314 3.28796C13.7932 2.99304 12.9699 2.99304 12.2317 3.28796L11.5678 3.55323C11.2684 3.67282 10.9523 3.74498 10.6307 3.76711L9.91741 3.81619C9.12437 3.87076 8.38261 4.22797 7.84549 4.81397L7.36238 5.34105C7.14458 5.57867 6.89105 5.78086 6.61092 5.94032L5.98956 6.29403C5.29873 6.68729 4.78542 7.33096 4.55575 8.09197L4.34917 8.77646C4.25604 9.08505 4.11534 9.37722 3.93214 9.64244L3.52578 10.2307C3.07399 10.8848 2.8908 11.6874 3.01406 12.4727L3.12493 13.179C3.17491 13.4975 3.17491 13.8218 3.12493 14.1402L3.01406 14.8465C2.8908 15.6318 3.07399 16.4345 3.52578 17.0885L3.93214 17.6768C4.11534 17.942 4.25604 18.2342 4.34917 18.5428L4.55575 19.2273C4.78542 19.9883 5.29873 20.632 5.98956 21.0252C6.5337 21.335 7.20191 21.3419 7.73895 21.02C9.83867 19.7615 12.4721 17.8506 15.3237 14.9989C17.7734 12.5492 19.5289 10.2606 20.7729 8.33302C21.304 7.51009 21.0034 6.42485 20.1522 5.94032C19.8721 5.78086 19.6185 5.57867 19.4007 5.34105L18.9176 4.81397C18.3805 4.22797 17.6387 3.87076 16.8457 3.81619L16.1324 3.76711C15.8108 3.74498 15.4947 3.67282 15.1953 3.55323Z" stroke="black" stroke-width="2" stroke-linecap="round" stroke-linejoin="round"/>
</svg>
