<svg width="24" height="24" viewBox="0 0 24 24" fill="none" xmlns="http://www.w3.org/2000/svg">
<path opacity="0.4" d="M21.9811 12.6013C21.9811 17.1944 17.6574 20.9279 12.47 20.9279C7.28258 20.9279 2.08203 17.4461 2.08203 12.2558C2.08203 7.06554 4.88787 3.10033 8.81786 3.10034C13.1019 3.10036 12.8024 6.06052 15.6586 7.48809C18.5148 8.91566 21.9811 8.00823 21.9811 12.6013Z" stroke="black" stroke-width="2" stroke-linecap="round" stroke-linejoin="round"/>
<path d="M14.5684 13.093C14.5684 15.0012 13.0215 16.5481 11.1133 16.5481C9.20509 16.5481 7.6582 15.0012 7.6582 13.093C7.6582 11.1848 9.20509 9.63794 11.1133 9.63794C13.0215 9.63794 14.5684 11.1848 14.5684 13.093Z" stroke="black" stroke-width="2" stroke-linecap="round" stroke-linejoin="round"/>
</svg>
