<svg width="24" height="24" viewBox="0 0 24 24" fill="none" xmlns="http://www.w3.org/2000/svg">
<path opacity="0.4" d="M20.4103 10.4099C21.1558 6.75685 20.5338 3.59673 17.2425 2L17.3032 5.59995L16.4473 7.3126L20.4103 10.4099Z" stroke="black" stroke-width="2" stroke-linecap="round" stroke-linejoin="round"/>
<path d="M12.0253 22C15.9243 22 19.1392 19.3826 19.5902 14.6047C19.6245 14.242 19.6416 14.0607 19.5925 13.8404C19.553 13.6631 19.4544 13.4472 19.3464 13.3013C19.2121 13.1198 19.0371 12.9948 18.6872 12.7449L16.8154 11.4079C16.6276 11.2737 16.5337 11.2067 16.4319 11.156C16.3414 11.1111 16.2465 11.0759 16.1487 11.0509C16.0385 11.0228 15.9236 11.0124 15.6938 10.9915L13.771 10.8167C13.0032 10.7469 12.6193 10.712 12.4074 10.5585C12.1166 10.3479 11.969 9.99151 12.0257 9.6369C12.067 9.37853 12.3138 9.08242 12.8073 8.49019C13.012 8.24452 13.1144 8.12166 13.17 7.9865C13.2462 7.80117 13.262 7.59651 13.2152 7.40167C13.181 7.25957 13.0988 7.12245 12.9342 6.84822L12.3693 5.90667C12.2426 5.69545 12.1792 5.58984 12.145 5.47613C12.1147 5.37535 12.1012 5.27023 12.1053 5.16505C12.1099 5.04639 12.1447 4.92824 12.2143 4.69197L12.7452 2.89015C12.8236 2.62403 12.8628 2.49097 12.8282 2.36167C12.801 2.25972 12.717 2.14379 12.6286 2.08608C12.5165 2.01289 12.3985 2.00929 12.1624 2.00209C12.1168 2.0007 12.0711 2 12.0253 2C7.81741 2 4.40625 7.90572 4.40625 13.4286C4.40625 18.9514 7.81741 22 12.0253 22Z" stroke="black" stroke-width="2" stroke-linecap="round" stroke-linejoin="round"/>
</svg>
