<svg width="24" height="24" viewBox="0 0 24 24" fill="none" xmlns="http://www.w3.org/2000/svg">
<path d="M12.0002 22C16.3488 22 19.9467 19.1052 20.5484 13.8129C20.6019 13.3422 20.6287 13.1069 20.5278 12.955C20.4447 12.8297 20.2875 12.7401 20.1373 12.7323C19.9552 12.7228 19.755 12.8741 19.3545 13.1769L18.9601 13.475C18.7872 13.6057 18.7008 13.671 18.6057 13.6962C18.5218 13.7184 18.4336 13.7184 18.3497 13.6962C18.2546 13.671 18.1682 13.6057 17.9953 13.475L16.8009 12.5722C16.628 12.4415 16.5416 12.3761 16.4465 12.351C16.3626 12.3287 16.2744 12.3287 16.1905 12.351C16.0955 12.3761 16.009 12.4415 15.8361 12.5722L14.6417 13.475C14.4688 13.6057 14.3824 13.671 14.2874 13.6962C14.2035 13.7184 14.1152 13.7184 14.0313 13.6962C13.9363 13.671 13.8498 13.6057 13.6769 13.475L12.4826 12.5722C12.3097 12.4415 12.2232 12.3761 12.1282 12.351C12.0443 12.3287 11.956 12.3287 11.8722 12.351C11.7771 12.3761 11.6907 12.4415 11.5178 12.5722L10.3234 13.475C10.1505 13.6057 10.064 13.671 9.96899 13.6962C9.8851 13.7184 9.79687 13.7184 9.71298 13.6962C9.61793 13.671 9.53148 13.6057 9.35859 13.475L8.1642 12.5722C7.99131 12.4415 7.90486 12.3761 7.80981 12.351C7.72592 12.3287 7.63769 12.3287 7.5538 12.351C7.45875 12.3761 7.3723 12.4415 7.19941 12.5722L6.00502 13.475C5.83213 13.6057 5.74568 13.671 5.65063 13.6962C5.56674 13.7184 5.47851 13.7184 5.39462 13.6962C5.29957 13.671 5.21312 13.6057 5.04023 13.475L4.64584 13.1769C4.24534 12.8741 4.04508 12.7228 3.86299 12.7323C3.71285 12.7401 3.55568 12.8297 3.47251 12.955C3.37164 13.1069 3.3984 13.3422 3.45191 13.8129C4.05361 19.1053 7.65157 22 12.0002 22Z" stroke="black" stroke-width="2" stroke-linecap="round" stroke-linejoin="round"/>
<path opacity="0.4" d="M18.8013 13.4859C18.8422 13.1044 18.8633 12.7073 18.8633 12.2949C18.8633 7.31991 15.7905 2 12 2C8.20951 2 5.13672 7.31991 5.13672 12.2949C5.13672 12.7073 5.15783 13.1044 5.19872 13.4859" stroke="black" stroke-width="2" stroke-linecap="round" stroke-linejoin="round"/>
</svg>
