<svg width="24" height="24" viewBox="0 0 24 24" fill="none" xmlns="http://www.w3.org/2000/svg">
<path opacity="0.4" d="M18.6216 4.21088L19.0795 9.24789C19.1672 10.213 19.0435 11.1448 18.748 12M18.6216 4.21088C18.6216 2.98179 15.8815 1.98541 12.5015 1.98541C11.4994 1.98541 10.5536 2.07299 9.71875 2.22825M18.6216 4.21088C18.6216 5.27518 16.567 6.16499 13.8215 6.38446" stroke="black" stroke-width="2" stroke-linecap="round" stroke-linejoin="round"/>
<path d="M12.4999 16.4509V22.0146M12.4999 16.4509C8.61591 16.4509 5.57124 13.1159 5.92288 9.24787L6.22906 5.87996M12.4999 16.4509C13.7936 16.4509 14.9953 16.0809 16.0084 15.4444M12.4999 22.0146H16.3945M12.4999 22.0146H8.60534M2.5 1.69653L22.5 21.6965" stroke="black" stroke-width="2" stroke-linecap="round" stroke-linejoin="round"/>
</svg>
