<svg width="24" height="24" viewBox="0 0 24 24" fill="none" xmlns="http://www.w3.org/2000/svg">
<path opacity="0.4" d="M18.613 4.21967C18.613 5.44737 15.876 6.44262 12.4998 6.44262C9.12366 6.44262 6.38672 5.44737 6.38672 4.21967" stroke="black" stroke-width="2" stroke-linecap="round" stroke-linejoin="round"/>
<path d="M12.5001 16.4459C11.8983 16.4459 11.5973 16.4459 11.3498 16.4254C8.22085 16.1659 5.82104 13.538 5.84589 10.3984C5.84786 10.1501 5.87511 9.85037 5.92959 9.25099L6.38699 4.21966C6.38699 2.99196 9.12393 1.9967 12.5001 1.9967C15.8763 1.9967 18.6132 2.99196 18.6132 4.21966L19.0706 9.25098C19.1251 9.85037 19.1524 10.1501 19.1543 10.3984C19.1792 13.538 16.7794 16.1659 13.6504 16.4254C13.4029 16.4459 13.102 16.4459 12.5001 16.4459ZM12.5001 16.4459L12.5001 22.0033M12.5001 22.0033H16.3903M12.5001 22.0033H8.60995" stroke="black" stroke-width="2" stroke-linecap="round" stroke-linejoin="round"/>
</svg>
