<svg width="24" height="24" viewBox="0 0 24 24" fill="none" xmlns="http://www.w3.org/2000/svg">
<path d="M18.6265 4.2028L19.0849 9.24501C19.1406 9.85871 19.1685 10.1656 19.17 10.4199C19.1886 13.5504 16.7972 16.1691 13.6779 16.434C13.4245 16.4555 13.1163 16.4555 12.5001 16.4555M18.6265 4.2028C18.6265 5.43316 15.8841 6.43057 12.5006 6.43057C9.11708 6.43057 6.37377 5.43316 6.37377 4.2028M18.6265 4.2028C18.6265 2.97244 15.8841 1.97504 12.5006 1.97504C9.11708 1.97504 6.37377 2.97244 6.37377 4.2028M6.37377 4.2028L5.91538 9.24501C5.85959 9.85871 5.8317 10.1656 5.83019 10.4199C5.81159 13.5504 8.20301 16.1691 11.3224 16.434C11.5758 16.4555 11.8839 16.4555 12.5001 16.4555M12.5001 16.4555L12.5005 22.0249M12.5005 22.0249H16.3991M12.5005 22.0249H8.60191" stroke="black" stroke-width="2" stroke-linecap="round" stroke-linejoin="round"/>
<path opacity="0.4" d="M6.375 10.5721C6.375 10.5721 8.41712 8.68389 12.5014 10.5721C16.5856 12.4604 18.6277 10.5721 18.6277 10.5721" stroke="black" stroke-width="2" stroke-linecap="round" stroke-linejoin="round"/>
</svg>
