<svg width="24" height="24" viewBox="0 0 24 24" fill="none" xmlns="http://www.w3.org/2000/svg">
<path opacity="0.4" d="M13.3477 7.515H18.5737C18.7069 7.515 18.7735 7.515 18.8297 7.51923C19.5693 7.57488 20.1572 8.1628 20.2129 8.90246C20.2171 8.95865 20.2171 9.02524 20.2171 9.15842C20.2171 9.69115 20.2171 9.95751 20.2002 10.1823C20.1229 11.2093 19.7891 12.1632 19.2624 12.9803M12 2V3.76081M16.6955 2V3.76081" stroke="black" stroke-width="2" stroke-linecap="round" stroke-linejoin="round"/>
<path d="M16.1175 15.6983C15.8927 15.7152 14.1761 15.7321 13.6434 15.7321H10.3566C9.82385 15.7321 9.55749 15.7321 9.33273 15.7152C6.37408 15.4926 4.0224 13.1409 3.79979 10.1823C3.78288 9.95751 3.78288 9.69115 3.78288 9.15842C3.78288 9.02524 3.78288 8.95865 3.78711 8.90246C3.84276 8.1628 4.43068 7.57488 5.17035 7.51923C5.22654 7.515 5.29313 7.515 5.42631 7.515H8.12175M9.7499 16.0865L5.59413 21.9559M7.1165 20.0702H14.728M18.1952 21.6467C17.8281 22.0214 17.3165 22.2539 16.7505 22.2539C15.6337 22.2539 14.7283 21.3485 14.7283 20.2317C14.7283 19.5213 15.0947 18.8964 15.6489 18.5357M2.5 1.69653L22.5 21.6965" stroke="black" stroke-width="2" stroke-linecap="round" stroke-linejoin="round"/>
</svg>
