<svg width="24" height="24" viewBox="0 0 24 24" fill="none" xmlns="http://www.w3.org/2000/svg">
<path opacity="0.4" d="M7.30469 2V3.76081M12.0002 2V3.76081M16.6957 2V3.76081" stroke="black" stroke-width="2" stroke-linecap="round" stroke-linejoin="round"/>
<path d="M9.74826 16.0865L5.5925 21.9559M13.9037 16.0865L15.4076 18.2105M7.11487 20.0702H14.7263M10.3549 15.7321H13.6418C14.1745 15.7321 14.4409 15.7321 14.6656 15.7152C17.6243 15.4926 19.976 13.1409 20.1986 10.1823C20.2155 9.95752 20.2155 9.69116 20.2155 9.15844C20.2155 9.02526 20.2155 8.95867 20.2113 8.90248C20.1556 8.16281 19.5677 7.57489 18.828 7.51924C18.7718 7.51501 18.7052 7.51501 18.5721 7.51501H5.42467C5.29149 7.51501 5.2249 7.51501 5.16871 7.51924C4.42905 7.57489 3.84113 8.16281 3.78548 8.90248C3.78125 8.95867 3.78125 9.02526 3.78125 9.15844C3.78125 9.69116 3.78125 9.95752 3.79816 10.1823C4.02076 13.1409 6.37244 15.4926 9.3311 15.7152C9.55586 15.7321 9.82222 15.7321 10.3549 15.7321ZM18.7711 20.2317C18.7711 21.3486 17.8657 22.2539 16.7489 22.2539C15.6321 22.2539 14.7267 21.3486 14.7267 20.2317C14.7267 19.1149 15.6321 18.2096 16.7489 18.2096C17.8657 18.2096 18.7711 19.1149 18.7711 20.2317Z" stroke="black" stroke-width="2" stroke-linecap="round" stroke-linejoin="round"/>
</svg>
