<svg width="24" height="24" viewBox="0 0 24 24" fill="none" xmlns="http://www.w3.org/2000/svg">
<path opacity="0.4" d="M15 3L8 10M16 8L8.5 15.5" stroke="black" stroke-width="2" stroke-linecap="round" stroke-linejoin="round"/>
<path d="M12 22V18M10.4 17H13.6C14.4401 17 14.8601 17 15.181 16.8365C15.4632 16.6927 15.6927 16.4632 15.8365 16.181C16 15.8601 16 15.4401 16 14.6V6C16 5.07003 16 4.60504 15.8978 4.22354C15.6204 3.18827 14.8117 2.37962 13.7765 2.10222C13.395 2 12.93 2 12 2C11.07 2 10.605 2 10.2235 2.10222C9.18827 2.37962 8.37962 3.18827 8.10222 4.22354C8 4.60504 8 5.07003 8 6V14.6C8 15.4401 8 15.8601 8.16349 16.181C8.3073 16.4632 8.53677 16.6927 8.81901 16.8365C9.13988 17 9.55992 17 10.4 17Z" stroke="black" stroke-width="2" stroke-linecap="round" stroke-linejoin="round"/>
</svg>
