<svg width="24" height="24" viewBox="0 0 24 24" fill="none" xmlns="http://www.w3.org/2000/svg">
<path opacity="0.4" d="M19.8448 8.41614H9.94535M17.0168 12.6587H6.41016" stroke="black" stroke-width="2" stroke-linecap="round" stroke-linejoin="round"/>
<path d="M4.28906 19.7298L7.11749 16.9014M6.69232 15.0628L8.95506 17.3256C9.54909 17.9196 9.8461 18.2166 10.1886 18.3279C10.4899 18.4258 10.8144 18.4258 11.1156 18.3279C11.4581 18.2166 11.7551 17.9196 12.3492 17.3256L18.4303 11.2445C19.0879 10.5869 19.4167 10.2581 19.6142 9.91604C20.1501 8.98784 20.1501 7.84425 19.6142 6.91604C19.4167 6.574 19.0879 6.24521 18.4303 5.58762C17.7727 4.93003 17.4439 4.60123 17.1019 4.40375C16.1737 3.86786 15.0301 3.86786 14.1019 4.40375C13.7598 4.60123 13.431 4.93003 12.7734 5.58762L6.69232 11.6687C6.09829 12.2628 5.80128 12.5598 5.69 12.9023C5.59211 13.2035 5.59211 13.5281 5.69 13.8293C5.80128 14.1718 6.09829 14.4688 6.69232 15.0628Z" stroke="black" stroke-width="2" stroke-linecap="round" stroke-linejoin="round"/>
</svg>
