<svg width="24" height="24" viewBox="0 0 24 24" fill="none" xmlns="http://www.w3.org/2000/svg">
<path opacity="0.4" d="M9.98242 17.507L9.98242 14.6969C9.98242 13.0167 9.98242 12.1766 10.3094 11.5349C10.597 10.9704 11.056 10.5115 11.6205 10.2238C12.2622 9.89685 13.1023 9.89685 14.7824 9.89685L17.5926 9.89685M10.1211 10.0383L14.8924 14.8096" stroke="black" stroke-width="2" stroke-linecap="round" stroke-linejoin="round"/>
<path d="M15.3674 4.51999C16.7421 5.89682 17.5921 7.79761 17.5921 9.89693C17.5921 14.0999 14.1849 17.5071 9.98189 17.5071C7.8714 17.5071 5.96155 16.648 4.58301 15.2604M22.0012 9.89141C22.0012 16.5784 16.5803 21.9992 9.89336 21.9992C7.41142 21.9992 5.1039 21.2524 3.18324 19.9713C2.62336 19.5979 2.34343 19.4112 2.16543 19.0447C2.02704 18.7598 1.9833 18.3175 2.0632 18.011C2.16597 17.6167 2.4532 17.3295 3.02766 16.755L16.757 3.02571C17.3315 2.45125 17.6187 2.16401 18.0129 2.06125C18.3194 1.98135 18.7618 2.02509 19.0467 2.16348C19.4131 2.34147 19.5998 2.62141 19.9733 3.18128C21.2544 5.10195 22.0012 7.40947 22.0012 9.89141Z" stroke="black" stroke-width="2" stroke-linecap="round" stroke-linejoin="round"/>
</svg>
