<svg width="24" height="24" viewBox="0 0 24 24" fill="none" xmlns="http://www.w3.org/2000/svg">
<g clip-path="url(#clip0_2012_11749)">
<path d="M17.2812 3.69673L17.0607 3.9172C13.742 2.12396 9.2021 2.89165 6.04549 6.04826C2.88889 9.20486 2.1212 13.7447 3.91444 17.0635L3.69397 17.284C2.86019 18.1177 2.86019 19.4696 3.69397 20.3033C4.52775 21.1371 5.87957 21.1371 6.71335 20.3033L6.93382 20.0829C10.2526 21.8761 14.7925 21.1084 17.9491 17.9518C21.1057 14.7952 21.8734 10.2554 20.0801 6.93659L20.3006 6.71612C21.1344 5.88234 21.1344 4.53051 20.3006 3.69673C19.4668 2.86295 18.115 2.86295 17.2812 3.69673Z" stroke="black" stroke-width="2" stroke-linecap="round" stroke-linejoin="round"/>
</g>
<defs>
<clipPath id="clip0_2012_11749">
<rect width="24" height="24" fill="white"/>
</clipPath>
</defs>
</svg>
