<svg width="24" height="24" viewBox="0 0 24 24" fill="none" xmlns="http://www.w3.org/2000/svg">
<path opacity="0.4" d="M6.28125 12.1764C7.97013 13.4715 10.7353 14.4503 13.5006 10.5M13.5006 10.5C16.1953 6.65039 18.8899 7.48175 20.5886 8.72517M13.5006 10.5C9.68869 7.83166 10.4664 5.16337 11.6893 3.46216M13.5006 10.5C17.3253 13.1772 16.5292 15.8545 15.2993 17.5549" stroke="black" stroke-width="2" stroke-linecap="round" stroke-linejoin="round"/>
<path d="M3 21C3 21 5.29454 18.7483 7.9215 16.0793M21 10.5C21 14.6421 17.6421 18 13.5 18C9.35786 18 6 14.6421 6 10.5C6 6.35786 9.35786 3 13.5 3C17.6421 3 21 6.35786 21 10.5Z" stroke="black" stroke-width="2" stroke-linecap="round" stroke-linejoin="round"/>
</svg>
