<svg width="24" height="24" viewBox="0 0 24 24" fill="none" xmlns="http://www.w3.org/2000/svg">
<path opacity="0.4" d="M13.2335 8.61148L14.9716 6.87341C14.0465 5.84991 14.0772 4.26949 15.0637 3.28296C16.0819 2.26473 17.7328 2.26473 18.751 3.28296C19.1601 3.69199 19.4048 4.20311 19.4852 4.73429C20.0164 4.8147 20.5275 5.05942 20.9365 5.46845C21.9548 6.48668 21.9548 8.13755 20.9365 9.15577C19.95 10.1423 18.3696 10.173 17.3461 9.24789L15.608 10.986M7.23438 16.3158L7.9028 16.9842" stroke="black" stroke-width="2" stroke-linecap="round" stroke-linejoin="round"/>
<path d="M3.22294 12.3053L5.56241 9.96584C7.96194 7.56632 11.8523 7.56632 14.2519 9.96585C16.6514 12.3654 16.6514 16.2558 14.2519 18.6553L11.9124 20.9948M3.22294 12.3053C2.11547 13.4128 3.16229 16.2558 5.56182 18.6553C7.96134 21.0548 10.8049 22.1023 11.9124 20.9948M3.22294 12.3053C4.33042 11.1978 7.17281 12.2452 9.57234 14.6448C11.9719 17.0443 13.0199 19.8873 11.9124 20.9948" stroke="black" stroke-width="2" stroke-linecap="round" stroke-linejoin="round"/>
</svg>
