<svg width="24" height="24" viewBox="0 0 24 24" fill="none" xmlns="http://www.w3.org/2000/svg">
<path d="M9.03743 4.50559C9.57602 1.13713 14.4236 1.13714 14.9622 4.50559L15.2597 6.36614L16.9981 5.70253C20.1867 4.48535 22.6084 8.68857 19.9561 10.8366L18.5195 12L19.9561 13.1635C22.6083 15.3115 20.1867 19.5147 16.9981 18.2975L15.2597 17.6339L14.9622 19.4945C14.4236 22.8629 9.57602 22.8629 9.03743 19.4945L8.73995 17.6339L7.00153 18.2975C3.81294 19.5147 1.39125 15.3115 4.04354 13.1635L5.48009 12L4.04353 10.8366C1.39125 8.68857 3.81294 4.48535 7.00153 5.70253L8.73995 6.36614L9.03743 4.50559Z" stroke="black" stroke-width="2" stroke-linecap="round" stroke-linejoin="round"/>
</svg>
