<svg width="24" height="24" viewBox="0 0 24 24" fill="none" xmlns="http://www.w3.org/2000/svg">
<path opacity="0.4" d="M11.2931 12.2755C9.20174 15.942 5.83703 19.1945 1.95117 22" stroke="black" stroke-width="2" stroke-linecap="round" stroke-linejoin="round"/>
<path d="M11.6366 17.6109L12.0584 19.0661C12.1116 19.2496 12.1382 19.3413 12.2199 19.5259C12.2621 19.6213 12.4216 19.9092 12.4801 19.9955C12.5934 20.1626 12.5975 20.1672 12.6058 20.1763C14.5532 22.3521 18.4432 20.5583 17.7257 17.4466L17.3104 15.6453L19.1587 15.6134C22.5712 15.5543 23.2517 10.7514 19.9899 9.74671L18.2116 9.19899L19.123 7.5499C20.773 4.56429 16.9537 1.579 14.455 3.90125L13.0748 5.18394L12.1138 3.59052C10.3512 0.667898 5.85472 2.48817 6.62157 5.81391L7.03692 7.61523L5.18861 7.6472C1.99579 7.70243 1.19457 11.9105 3.7762 13.2749C3.78711 13.2806 3.79257 13.2835 3.98208 13.3531C4.07993 13.389 4.39785 13.4743 4.50054 13.4923C4.69942 13.5269 4.79488 13.5306 4.98582 13.5379L6.49981 13.5958" stroke="black" stroke-width="2" stroke-linecap="round" stroke-linejoin="round"/>
</svg>
