<svg width="24" height="24" viewBox="0 0 24 24" fill="none" xmlns="http://www.w3.org/2000/svg">
<path opacity="0.4" d="M18.666 8.66663V9.77774M5.94141 10.1671C5.94141 10.1671 7.48249 10.8332 8.71918 10.1671C9.95588 9.50089 11.497 10.1671 11.497 10.1671M5.94141 13.833C5.94141 13.833 7.48249 14.4991 8.71918 13.833C9.95588 13.1668 11.497 13.833 11.497 13.833" stroke="black" stroke-width="2" stroke-linecap="round" stroke-linejoin="round"/>
<path d="M15.3333 5.33331H5.2C4.07989 5.33331 3.51984 5.33331 3.09202 5.5513C2.71569 5.74305 2.40973 6.04901 2.21799 6.42533C2 6.85316 2 7.41321 2 8.53331V15.4666C2 16.5868 2 17.1468 2.21799 17.5746C2.40973 17.951 2.71569 18.2569 3.09202 18.4487C3.51984 18.6666 4.07989 18.6666 5.2 18.6666H15.3333M15.3333 5.33331H18.8C19.9201 5.33331 20.4802 5.33331 20.908 5.5513C21.2843 5.74305 21.5903 6.04901 21.782 6.42533C22 6.85316 22 7.41321 22 8.53331V15.4666C22 16.5868 22 17.1468 21.782 17.5746C21.5903 17.951 21.2843 18.2569 20.908 18.4487C20.4802 18.6666 19.9201 18.6666 18.8 18.6666H15.3333M15.3333 5.33331V18.6666M18.666 13.1111H18.6771" stroke="black" stroke-width="2" stroke-linecap="round" stroke-linejoin="round"/>
</svg>
