<svg width="24" height="24" viewBox="0 0 24 24" fill="none" xmlns="http://www.w3.org/2000/svg">
<path d="M7.01074 5.9073L6.0686 8.33513C5.79919 9.02939 5.66448 9.37653 5.56974 9.73394C5.48557 10.0515 5.42504 10.3748 5.38863 10.7012C5.34766 11.0687 5.34766 11.4411 5.34766 12.1858V18.4306C5.34766 19.6725 5.34766 20.2934 5.58934 20.7678C5.80194 21.185 6.14116 21.5242 6.5584 21.7368C7.03274 21.9785 7.65369 21.9785 8.89557 21.9785H15.1044C16.3463 21.9785 16.9673 21.9785 17.4416 21.7368C17.8588 21.5242 18.1981 21.185 18.4107 20.7678C18.6523 20.2934 18.6523 19.6725 18.6523 18.4306V12.1858C18.6523 11.4411 18.6523 11.0687 18.6114 10.7012C18.575 10.3748 18.5144 10.0515 18.4303 9.73394C18.3355 9.37653 18.2008 9.02939 17.9314 8.33513L16.9893 5.9073M16.9481 5.9073V4.68242C16.9481 3.75101 16.9481 3.2853 16.7668 2.92955C16.6074 2.61662 16.353 2.3622 16.0401 2.20275C15.6843 2.02148 15.2186 2.02148 14.2872 2.02148H9.71282C8.78141 2.02148 8.3157 2.02148 7.95995 2.20275C7.64702 2.3622 7.3926 2.61662 7.23315 2.92955C7.05189 3.2853 7.05189 3.75101 7.05189 4.68242V5.9073H16.9481Z" stroke="black" stroke-width="2" stroke-linecap="round" stroke-linejoin="round"/>
<path opacity="0.4" d="M14.412 13.943C14.412 15.2757 13.3316 16.356 11.999 16.356C10.6663 16.356 9.58594 15.2757 9.58594 13.943C9.58594 12.6103 10.6663 11.53 11.999 11.53C13.3316 11.53 14.412 12.6103 14.412 13.943Z" stroke="black" stroke-width="2" stroke-linecap="round" stroke-linejoin="round"/>
</svg>
