<svg width="24" height="24" viewBox="0 0 24 24" fill="none" xmlns="http://www.w3.org/2000/svg">
<path opacity="0.4" d="M18.3839 10.0264C18.3839 6.65947 15.6545 3.93005 12.2876 3.93005H11.7135C8.3466 3.93005 5.61719 6.65947 5.61719 10.0264M12 3V2" stroke="black" stroke-width="2" stroke-linecap="round" stroke-linejoin="round"/>
<path d="M17.4986 13.4452L16.3468 20.0145C16.223 20.7204 16.1611 21.0733 15.9829 21.338C15.8257 21.5712 15.6062 21.7557 15.3493 21.8701C15.0578 22 14.6995 22 13.9828 22H10.0144C9.29778 22 8.93945 22 8.64801 21.8701C8.39108 21.7557 8.17152 21.5712 8.01439 21.338C7.83615 21.0733 7.77427 20.7204 7.6505 20.0145L6.49863 13.4452M6.77967 13.4452H17.2176C17.3671 13.4452 17.4419 13.4452 17.509 13.4391C18.0746 13.3882 18.563 13.0223 18.7707 12.4937C18.7953 12.431 18.8163 12.3592 18.8583 12.2157C18.9288 11.9746 18.964 11.8541 18.979 11.758C19.1093 10.9247 18.5271 10.1479 17.6908 10.0389C17.5943 10.0264 17.4687 10.0264 17.2176 10.0264H6.77967C6.52853 10.0264 6.40296 10.0264 6.30651 10.0389C5.47014 10.1479 4.88798 10.9247 5.01823 11.758C5.03325 11.8541 5.0685 11.9746 5.139 12.2157C5.18099 12.3592 5.20198 12.431 5.22662 12.4937C5.43428 13.0223 5.92263 13.3882 6.48824 13.4391C6.55535 13.4452 6.63013 13.4452 6.77967 13.4452Z" stroke="black" stroke-width="2" stroke-linecap="round" stroke-linejoin="round"/>
</svg>
