<svg width="24" height="24" viewBox="0 0 24 24" fill="none" xmlns="http://www.w3.org/2000/svg">
<path opacity="0.4" d="M17 8H19.6667C19.9763 8 20.1311 8 20.2611 8.01711C21.1585 8.13526 21.8647 8.84148 21.9829 9.73895C22 9.86891 22 10.0237 22 10.3333C22 10.9526 22 11.2622 21.9658 11.5221C21.7295 13.317 20.317 14.7295 18.5221 14.9658C18.2622 15 17.9526 15 17.3333 15" stroke="black" stroke-width="2" stroke-linecap="round" stroke-linejoin="round"/>
<path d="M3 7.4C3 6.55992 3 6.13988 3.16349 5.81901C3.3073 5.53677 3.53677 5.3073 3.81901 5.16349C4.13988 5 4.55992 5 5.4 5H14.6C15.4401 5 15.8601 5 16.181 5.16349C16.4632 5.3073 16.6927 5.53677 16.8365 5.81901C17 6.13988 17 6.55992 17 7.4V12C17 12.9288 17 13.3933 16.9487 13.7832C16.5942 16.4756 14.4756 18.5942 11.7832 18.9487C11.3933 19 10.9288 19 10 19C9.07116 19 8.60674 19 8.21684 18.9487C5.52444 18.5942 3.40579 16.4756 3.05133 13.7832C3 13.3933 3 12.9288 3 12V7.4Z" stroke="black" stroke-width="2" stroke-linecap="round" stroke-linejoin="round"/>
</svg>
