<svg width="24" height="24" viewBox="0 0 24 24" fill="none" xmlns="http://www.w3.org/2000/svg">
<path opacity="0.4" d="M9.26792 4.50006L8.97722 4.96747C8.32899 6.00971 8.29341 7.55514 8.89232 8.65481C9.46074 9.69849 9.46074 11.1527 8.89232 12.1963L8.85901 12.2575C8.27096 13.3372 8.27096 14.8416 8.85901 15.9214C9.44706 17.0011 9.44706 18.5055 8.85901 19.5852L8.60958 20.0432" stroke="black" stroke-width="2" stroke-linecap="round" stroke-linejoin="round"/>
<path d="M4 4.5H20M12 7.85775L19.7274 9.9283M6.03745 4.50006L5.74675 4.96746C5.09852 6.00971 5.06294 7.55514 5.66185 8.65481C6.23027 9.69849 6.23027 11.1527 5.66185 12.1963L5.62854 12.2575C5.04049 13.3372 5.04049 14.8416 5.62854 15.9214C6.21659 17.0011 6.21659 18.5055 5.62854 19.5852L5.37911 20.0432M12.4984 4.50006L12.2077 4.96746C11.5595 6.00971 11.5239 7.55514 12.1228 8.65481C12.6912 9.69849 12.6912 11.1527 12.1228 12.1963L12.0895 12.2575C11.5014 13.3372 11.5014 14.8416 12.0895 15.9214C12.6775 17.0011 12.6775 18.5055 12.0895 19.5852L11.84 20.0432" stroke="black" stroke-width="2" stroke-linecap="round" stroke-linejoin="round"/>
</svg>
