<svg width="24" height="24" viewBox="0 0 24 24" fill="none" xmlns="http://www.w3.org/2000/svg">
<path opacity="0.4" d="M15.0478 9.57416C14.5541 7.24075 16.2941 6.5277 18.1894 6.2695C19.4645 6.09584 20.4879 5.98099 21.225 7.16006C22.4849 9.17537 22.3664 12.0949 21.1964 14.7227M21.4047 3.25261C19.0908 2.28813 17.0402 3.87937 17.7882 6.07363" stroke="black" stroke-width="2" stroke-linecap="round" stroke-linejoin="round"/>
<path d="M14.2139 13.9567C11.9752 17.0865 6.39219 17.6051 2.97912 12.4864C2.7045 12.0745 2.05442 12.21 2.06859 12.7049C2.63169 18.8974 8.93571 22.5453 15.2358 20.4168C16.4909 19.9928 17.606 19.2966 18.5542 18.4268M2 1.69653L22 21.6965" stroke="black" stroke-width="2" stroke-linecap="round" stroke-linejoin="round"/>
</svg>
