<svg width="24" height="24" viewBox="0 0 24 24" fill="none" xmlns="http://www.w3.org/2000/svg">
<path opacity="0.4" d="M19.1658 16.2335C17.6843 17.0072 15.0771 17.5207 12.108 17.5207C8.99001 17.5207 6.27104 16.9544 4.83594 16.1152M10.2262 12.3035V12.2944M11.9997 8.05758V8.04847M14.6422 13.8719V13.8628M10.2262 11.8481C9.97472 11.8481 9.77082 12.0519 9.77082 12.3035C9.77082 12.555 9.97472 12.7589 10.2262 12.7589C10.4777 12.7589 10.6816 12.555 10.6816 12.3035C10.6816 12.0519 10.4777 11.8481 10.2262 11.8481ZM11.9997 7.60217C11.7482 7.60217 11.5443 7.80607 11.5443 8.05758C11.5443 8.3091 11.7482 8.51299 11.9997 8.51299C12.2512 8.51299 12.4551 8.3091 12.4551 8.05758C12.4551 7.80607 12.2512 7.60217 11.9997 7.60217ZM14.6422 13.4165C14.3907 13.4165 14.1868 13.6204 14.1868 13.8719C14.1868 14.1234 14.3907 14.3273 14.6422 14.3273C14.8938 14.3273 15.0977 14.1234 15.0977 13.8719C15.0977 13.6204 14.8938 13.4165 14.6422 13.4165Z" stroke="black" stroke-width="2" stroke-linecap="round" stroke-linejoin="round"/>
<path d="M20.1391 17.2402L14.1725 4.52896C13.4793 3.05207 13.1327 2.31362 12.6562 2.08181C12.2419 1.88028 11.758 1.88028 11.3438 2.08181C10.8673 2.31361 10.5206 3.05206 9.82739 4.52896L3.86052 17.2408C3.40856 18.2036 3.18258 18.685 3.2285 19.2199C3.26441 19.6382 3.50964 20.1655 3.80636 20.4625C4.18583 20.8423 4.62014 20.9584 5.48877 21.1907C7.41662 21.7063 9.63621 22 11.9984 22C14.3619 22 16.5827 21.706 18.5113 21.1898C19.3797 20.9575 19.8139 20.8413 20.1933 20.4615C20.4899 20.1645 20.7351 19.6372 20.771 19.219C20.8169 18.6841 20.5909 18.2028 20.1391 17.2402Z" stroke="black" stroke-width="2" stroke-linecap="round" stroke-linejoin="round"/>
</svg>
