<svg width="24" height="24" viewBox="0 0 24 24" fill="none" xmlns="http://www.w3.org/2000/svg">
<path opacity="0.4" d="M18.3026 13.3228L13.3602 2.7933C12.8203 1.64312 11.1844 1.64312 10.6445 2.79329L9.85156 4.4825M12.0004 7.11002V7.10091M12.0004 6.65461C11.7489 6.65461 11.545 6.85851 11.545 7.11002C11.545 7.36154 11.7489 7.56543 12.0004 7.56543C12.2519 7.56543 12.4558 7.36154 12.4558 7.11002C12.4558 6.85851 12.2519 6.65461 12.0004 6.65461Z" stroke="black" stroke-width="2" stroke-linecap="round" stroke-linejoin="round"/>
<path d="M4.83594 16.1151C6.27104 16.9543 8.99001 17.5206 12.108 17.5206C13.8926 17.5206 15.5465 17.3351 16.9038 17.0191M20.3835 20.3694C20.1939 20.5814 19.9478 20.7491 19.6513 20.8483C17.481 21.5743 14.8439 22 12 22C9.15752 22 6.52148 21.5747 4.35181 20.8493C3.31116 20.5014 2.89076 19.3103 3.35701 18.317L8.06386 8.2895M9.38053 13.8719V13.8628M2 2L22 22M9.38053 13.4165C9.12901 13.4165 8.92512 13.6203 8.92512 13.8719C8.92512 14.1234 9.12901 14.3273 9.38053 14.3273C9.63204 14.3273 9.83594 14.1234 9.83594 13.8719C9.83594 13.6203 9.63204 13.4165 9.38053 13.4165Z" stroke="black" stroke-width="2" stroke-linecap="round" stroke-linejoin="round"/>
</svg>
