<svg width="24" height="24" viewBox="0 0 24 24" fill="none" xmlns="http://www.w3.org/2000/svg">
<path opacity="0.4" d="M7.79504 6.11182C9.38964 6.61224 11.5964 8.09277 13.6958 10.1922C15.9006 12.397 17.4227 14.72 17.8441 16.3282M11.3382 15.212L11.3318 15.2184M7.08236 16.9603L7.07592 16.9667M9.32455 10.9803L9.31811 10.9867M11.0162 15.534C11.194 15.7119 11.4824 15.7119 11.6602 15.534C11.8381 15.3562 11.8381 15.0678 11.6602 14.89C11.4824 14.7121 11.194 14.7121 11.0162 14.89C10.8384 15.0678 10.8384 15.3562 11.0162 15.534ZM6.76034 17.2823C6.93819 17.4601 7.22654 17.4601 7.40438 17.2823C7.58223 17.1044 7.58223 16.8161 7.40438 16.6383C7.22654 16.4604 6.93819 16.4604 6.76034 16.6383C6.58249 16.8161 6.58249 17.1044 6.76034 17.2823ZM9.00253 11.3023C9.18037 11.4802 9.46872 11.4802 9.64657 11.3023C9.82442 11.1245 9.82442 10.8361 9.64657 10.6583C9.46872 10.4804 9.18037 10.4804 9.00253 10.6583C8.82468 10.8361 8.82468 11.1245 9.00253 11.3023Z" stroke="black" stroke-width="2" stroke-linecap="round" stroke-linejoin="round"/>
<path d="M7.82034 4.71153L3.05115 17.9187C2.49702 19.4532 2.21996 20.2205 2.39298 20.7213C2.5434 21.1567 2.88556 21.4989 3.32098 21.6493C3.82183 21.8223 4.58909 21.5453 6.12361 20.9911L19.3314 16.2218C20.3319 15.8605 20.8321 15.6799 21.1778 15.2692C21.4482 14.948 21.6477 14.4017 21.6478 13.9819C21.6481 13.4451 21.4231 13.0558 20.9731 12.2774C19.9745 10.5496 18.6127 8.77248 16.9424 7.10218C15.2711 5.4309 13.4929 4.06845 11.7642 3.06965C10.9858 2.61996 10.5966 2.3951 10.0598 2.39539C9.64008 2.39561 9.09385 2.59511 8.77276 2.86546C8.36211 3.2112 8.18152 3.71131 7.82034 4.71153Z" stroke="black" stroke-width="2" stroke-linecap="round" stroke-linejoin="round"/>
</svg>
