<svg width="24" height="24" viewBox="0 0 24 24" fill="none" xmlns="http://www.w3.org/2000/svg">
<path opacity="0.4" d="M5 10.6466C5 8.71362 6.567 7.14662 8.5 7.14662C10.433 7.14662 12 8.71362 12 10.6466M11.5 8.45048L13.4895 7.53815C14.0178 7.2959 14.2819 7.17477 14.5497 7.15447C14.7863 7.13653 15.0238 7.17499 15.2427 7.26667C15.4903 7.37043 15.7028 7.56872 16.1276 7.96529L19 10.6466M12.2698 7.81998C12.9449 5.31187 15.3239 3.55459 18.0101 3.75295L19.4277 3.85764L19.3028 5.54888C19.2741 5.93856 19.2597 6.13346 19.2361 6.2971C19.0787 7.39253 18.5584 8.35654 17.8078 9.07482M12.4527 5.12153C11.3406 4.13387 9.83526 3.59558 8.23844 3.75393L6.82387 3.89421L6.99122 5.58177C7.02978 5.97062 7.04906 6.16509 7.07669 6.32809C7.12379 6.60605 7.19422 6.87489 7.28574 7.13278" stroke="black" stroke-width="2" stroke-linecap="round" stroke-linejoin="round"/>
<path d="M3 12.2256C3 12.1523 3 12.1156 3.00128 12.0846C3.03353 11.3049 3.65828 10.6801 4.43801 10.6479C4.46899 10.6466 4.50564 10.6466 4.57895 10.6466H19.4211C19.4944 10.6466 19.531 10.6466 19.562 10.6479C20.3417 10.6801 20.9665 11.3049 20.9987 12.0846C21 12.1156 21 12.1523 21 12.2256C21 12.6165 21 12.812 20.9932 12.9772C20.8212 17.1358 17.4892 20.4678 13.3306 20.6398C13.1654 20.6466 12.9699 20.6466 12.5789 20.6466H11.4211C11.0301 20.6466 10.8346 20.6466 10.6694 20.6398C6.51081 20.4678 3.17883 17.1358 3.00683 12.9772C3 12.812 3 12.6165 3 12.2256Z" stroke="black" stroke-width="2" stroke-linecap="round" stroke-linejoin="round"/>
</svg>
