<svg width="24" height="24" viewBox="0 0 24 24" fill="none" xmlns="http://www.w3.org/2000/svg">
<path opacity="0.4" d="M8.62109 6.743C8.15838 6.28692 7.86719 5.62414 7.86719 4.88645C7.86719 4.14877 8.15838 3.48598 8.62109 3.02991M12.375 6.743C11.9123 6.28692 11.6211 5.62414 11.6211 4.88645C11.6211 4.14877 11.9123 3.48598 12.375 3.02991M16.1289 6.743C15.6662 6.28692 15.375 5.62414 15.375 4.88645C15.375 4.14877 15.6662 3.48598 16.1289 3.02991" stroke="black" stroke-width="2" stroke-linecap="round" stroke-linejoin="round"/>
<path d="M4 11.7368C4 11.5169 4 11.4069 4.01152 11.3145C4.09645 10.6331 4.63313 10.0964 5.31446 10.0115C5.40687 10 5.51686 10 5.73684 10H18.2632C18.4831 10 18.5931 10 18.6855 10.0115C19.3669 10.0964 19.9036 10.6331 19.9885 11.3145C20 11.4069 20 11.5169 20 11.7368V13C20 17.4183 16.4183 21 12 21C7.58172 21 4 17.4183 4 13V11.7368Z" stroke="black" stroke-width="2" stroke-linecap="round" stroke-linejoin="round"/>
</svg>
