<svg width="24" height="24" viewBox="0 0 24 24" fill="none" xmlns="http://www.w3.org/2000/svg">
<path opacity="0.4" d="M19.3627 12.9915C20.16 13.3278 21.4684 12.7744 21.7171 11.9456C22.1481 10.5087 21.5375 8.9826 20.1156 8.5042C18.8884 8.09128 17.1842 7.65643 15.0204 7.42578M4.55118 13.0362C3.76502 13.3775 2.76717 12.7722 2.41574 11.9905C1.77496 10.5651 2.30673 8.91995 3.79104 8.43101C5.15877 7.98048 7.08762 7.51978 9.57243 7.33887" stroke="black" stroke-width="2" stroke-linecap="round" stroke-linejoin="round"/>
<path d="M14.8745 18.0172V8.23847C14.8745 7.07291 14.0494 6.07039 12.9057 5.84612C11.4232 5.55545 9.94038 6.33249 9.55529 7.79326C9.20471 9.12313 8.87447 10.8947 8.87447 12.8498C8.87447 14.8597 9.22349 16.6757 9.58483 18.0172M8.72771 11.6971C7.72881 11.8287 6.81541 12.0083 6.02241 12.1969C5.42805 12.3382 4.9318 12.6364 4.5526 13.0362C3.77159 13.8596 3.48715 15.1136 3.8649 16.3138C4.22087 17.4449 5.26954 18.2143 6.45532 18.2143H17.626C18.9021 18.2143 20.0036 17.3199 20.2656 16.071C20.5099 14.9067 20.1566 13.7399 19.3641 12.9915C19.0092 12.6564 18.5662 12.4051 18.0495 12.2756C17.1854 12.059 16.159 11.8469 15.0218 11.6971" stroke="black" stroke-width="2" stroke-linecap="round" stroke-linejoin="round"/>
</svg>
