<svg width="24" height="24" viewBox="0 0 24 24" fill="none" xmlns="http://www.w3.org/2000/svg">
<path opacity="0.4" d="M17 21C17.93 21 18.395 21 18.7765 20.8978C19.8117 20.6204 20.6204 19.8117 20.8978 18.7765C21 18.395 21 17.93 21 17V13.2C21 12.0799 21 11.5198 20.782 11.092C20.5903 10.7157 20.2843 10.4097 19.908 10.218C19.4802 10 18.9201 10 17.8 10H17" stroke="black" stroke-width="2" stroke-linecap="round" stroke-linejoin="round"/>
<path d="M17 21V8.5C17 5.46243 14.5376 3 11.5 3H11C8.23858 3 6 5.23858 6 8M17 10V21H10.8C9.11984 21 8.27976 21 7.63803 20.673C7.07354 20.3854 6.6146 19.9265 6.32698 19.362C6 18.7202 6 17.8802 6 16.2V14M6 14H10C11.6569 14 13 12.6569 13 11C13 9.34315 11.6569 8 10 8H6M6 14C4.34315 14 3 12.6569 3 11C3 9.34315 4.34315 8 6 8" stroke="black" stroke-width="2" stroke-linecap="round" stroke-linejoin="round"/>
</svg>
