<svg width="24" height="24" viewBox="0 0 24 24" fill="none" xmlns="http://www.w3.org/2000/svg">
<path opacity="0.4" d="M12.5312 4.10527C13.097 4.10527 13.6397 3.88346 14.0397 3.48865C14.4398 3.09383 14.6646 2.55835 14.6646 2C14.0988 2 13.5562 2.2218 13.1561 2.61662C12.756 3.01143 12.5312 3.54692 12.5312 4.10527Z" stroke="black" stroke-width="2" stroke-linecap="round" stroke-linejoin="round"/>
<path d="M8.57173 7.27153C5.14133 7.27153 4 10.6715 4 13.5031C4 16.9021 6.28587 22 8.57173 22C9.8144 21.9473 10.4907 21.4337 12 21.4337C13.4997 21.4337 13.7141 22 15.4283 22C16.7613 22 18.7858 19.9445 19.6202 17.9651C19.7055 17.7627 19.7481 17.6615 19.7474 17.3564C19.7469 17.1105 19.6619 16.8034 19.536 16.5921C19.3799 16.33 19.0766 16.1079 18.4702 15.6638C17.799 15.1722 17.1576 14.3371 17.1424 12.9358C17.1356 12.1473 17.4173 11.5203 17.8064 11.0306C18.4413 10.2316 18.7587 9.83212 18.8137 9.42213C18.8588 9.08537 18.7655 8.67882 18.5781 8.39542C18.3499 8.05039 18.2151 7.98551 17.9454 7.85577C17.1129 7.45532 16.3335 7.29392 16 7.27153C14.3627 7.14522 12.7659 8.40522 12 8.40522C11.2224 8.40522 9.82827 7.27153 8.57173 7.27153Z" stroke="black" stroke-width="2" stroke-linecap="round" stroke-linejoin="round"/>
</svg>
