<svg width="24" height="24" viewBox="0 0 24 24" fill="none" xmlns="http://www.w3.org/2000/svg">
<path opacity="0.4" d="M12.0547 20.9999C12.0185 20.6716 11.9998 20.338 11.9998 20C11.9998 15.0478 15.9996 11.0297 20.9449 11.0002M12.9997 3.05493C12.9701 8.00023 8.95208 12 3.99984 12C3.66188 12 3.32828 11.9814 3 11.9451" stroke="black" stroke-width="2" stroke-linecap="round" stroke-linejoin="round"/>
<path d="M17.8461 18.843C16.2863 20.1768 14.265 20.9866 12.0549 20.9998C12.0366 20.9999 12.0183 21 12 21C7.02944 21 3 16.9706 3 12C3 11.9817 3.00005 11.9634 3.00016 11.9451C3.01337 9.73498 3.82319 7.71372 5.15701 6.15394C6.80771 4.22357 9.26097 3 12 3C12.338 3 12.6716 3.01863 12.9998 3.05491C17.1716 3.516 20.484 6.82841 20.9451 11.0002C20.9814 11.3284 21 11.662 21 12C21 14.739 19.7764 17.1923 17.8461 18.843ZM5.15701 6.15394C11.7149 7.09836 16.9016 12.2851 17.8461 18.843" stroke="black" stroke-width="2" stroke-linecap="round" stroke-linejoin="round"/>
</svg>
