<svg width="24" height="24" viewBox="0 0 24 24" fill="none" xmlns="http://www.w3.org/2000/svg">
<path d="M12 2.02441H8.75C6.95507 2.02441 5.5 3.5168 5.5 5.35775C5.5 7.1987 6.95507 8.69108 8.75 8.69108M12 2.02441V8.69108M12 2.02441H15.25C17.0449 2.02441 18.5 3.5168 18.5 5.35775C18.5 7.1987 17.0449 8.69108 15.25 8.69108M12 8.69108H8.75M12 8.69108V15.3577M12 8.69108H15.25M8.75 8.69108C6.95507 8.69108 5.5 10.1835 5.5 12.0244C5.5 13.8654 6.95507 15.3577 8.75 15.3577M12 15.3577H8.75M12 15.3577V18.6911C12 20.532 10.5449 22.0244 8.75 22.0244C6.95507 22.0244 5.5 20.532 5.5 18.6911C5.5 16.8501 6.95507 15.3577 8.75 15.3577M15.25 8.69108C17.0449 8.69108 18.5 10.1835 18.5 12.0244C18.5 13.8654 17.0449 15.3577 15.25 15.3577C13.4551 15.3577 12 13.8654 12 12.0244C12 10.1835 13.4551 8.69108 15.25 8.69108Z" stroke="black" stroke-width="2" stroke-linecap="round" stroke-linejoin="round"/>
</svg>
