<svg width="24" height="24" viewBox="0 0 24 24" fill="none" xmlns="http://www.w3.org/2000/svg">
<path d="M5.03647 15.6708H17.8676C18.5179 15.6708 18.8431 15.6708 18.9849 15.5455C19.1079 15.4369 19.1697 15.2748 19.1504 15.112C19.1281 14.924 18.8856 14.7074 18.4005 14.2742L12.728 9.2075C12.6438 9.13228 12.6017 9.09467 12.5538 9.06786C12.5113 9.04408 12.4656 9.02663 12.418 9.01606C12.3644 9.00415 12.308 9.00415 12.1951 9.00415H5.83647C5.55644 9.00415 5.41643 9.00415 5.30947 9.05865C5.21539 9.10658 5.1389 9.18307 5.09096 9.27715C5.03647 9.38411 5.03647 9.52412 5.03647 9.80415V15.6708ZM5.03647 15.6708L11.2365 15.6709M11.3091 8.80212L5.60914 3.73545C5.12155 3.30205 4.87776 3.08534 4.85514 2.89722C4.83554 2.73419 4.89723 2.57193 5.02019 2.4631C5.16209 2.33752 5.48827 2.33752 6.14063 2.33752H18.2365C18.5165 2.33752 18.6565 2.33752 18.7635 2.39202C18.8575 2.43996 18.934 2.51645 18.982 2.61053C19.0365 2.71749 19.0365 2.8575 19.0365 3.13752V8.20419C19.0365 8.48422 19.0365 8.62423 18.982 8.73119C18.934 8.82527 18.8575 8.90176 18.7635 8.94969C18.6565 9.00419 18.5165 9.00419 18.2365 9.00419H11.8406C11.7281 9.00419 11.6719 9.00419 11.6184 8.99236C11.5711 8.98186 11.5255 8.96453 11.4831 8.94089C11.4353 8.91425 11.3932 8.87687 11.3091 8.80212Z" stroke="black" stroke-width="2" stroke-linecap="round" stroke-linejoin="round"/>
<path opacity="0.4" d="M5.03516 15.6708L10.6834 21.0502C11.1094 21.4559 11.3224 21.6588 11.5044 21.67C11.6625 21.6797 11.8158 21.614 11.9177 21.4929C12.0352 21.3533 12.0352 21.0592 12.0352 20.4709V16.4709C12.0352 16.1909 12.0352 16.0509 11.9807 15.9439M11.2352 15.6709C11.5152 15.6709 11.6552 15.6709 11.7622 15.7254" stroke="black" stroke-width="2" stroke-linecap="round" stroke-linejoin="round"/>
</svg>
