<svg width="24" height="24" viewBox="0 0 24 24" fill="none" xmlns="http://www.w3.org/2000/svg">
<path d="M5.33333 20.3334L11.0122 10.8686C11.3713 10.27 11.5509 9.97073 11.6211 9.65122C11.6831 9.3686 11.6831 9.07588 11.6211 8.79327C11.5509 8.47376 11.3713 8.17446 11.0122 7.57586L8.66667 3.66669M22 14.7778L16.2655 5.2203C15.9256 4.65377 15.7556 4.3705 15.5216 4.16474C15.3145 3.98266 15.0721 3.84536 14.8094 3.76148C14.5126 3.66669 14.1822 3.66669 13.5215 3.66669H8.66667L2.98783 13.1314C2.62867 13.73 2.44909 14.0293 2.37893 14.3488C2.31687 14.6314 2.31687 14.9242 2.37893 15.2068C2.44909 15.5263 2.62867 15.8256 2.98783 16.4242L5.33333 20.3334H16.8549C17.5155 20.3334 17.8459 20.3334 18.1427 20.2386C18.4054 20.1547 18.6479 20.0174 18.855 19.8353C19.089 19.6295 19.2589 19.3463 19.5988 18.7797L22 14.7778ZM8.66667 3.66669L14.4012 13.2242C14.7411 13.7907 14.911 14.074 15.145 14.2797C15.3521 14.4618 15.5946 14.5991 15.8573 14.683C16.1541 14.7778 16.4845 14.7778 17.1451 14.7778H22M8.66667 14.7778H22" stroke="black" stroke-width="2" stroke-linecap="round" stroke-linejoin="round"/>
</svg>
