<svg width="24" height="24" viewBox="0 0 24 24" fill="none" xmlns="http://www.w3.org/2000/svg">
<path opacity="0.4" d="M2.83594 12H21.1602M11.998 4.70068L11.998 19.2992" stroke="black" stroke-width="2" stroke-linecap="round" stroke-linejoin="round"/>
<path d="M2.83594 7.62776C2.83594 6.8731 2.83594 6.49578 2.9762 6.19464C3.09978 5.92934 3.29826 5.70599 3.5472 5.55209C3.82977 5.37741 4.20448 5.33307 4.95391 5.24439L18.4781 3.64405C19.4057 3.53429 19.8695 3.47941 20.2288 3.62659C20.5443 3.75584 20.8063 3.98873 20.9718 4.28687C21.1602 4.62638 21.1602 5.09339 21.1602 6.02742V17.9726C21.1602 18.9066 21.1602 19.3736 20.9718 19.7131C20.8063 20.0113 20.5443 20.2442 20.2288 20.3734C19.8695 20.5206 19.4057 20.4657 18.4781 20.3559L4.95391 18.7556C4.20448 18.6669 3.82977 18.6226 3.5472 18.4479C3.29826 18.294 3.09978 18.0707 2.9762 17.8054C2.83594 17.5042 2.83594 17.1269 2.83594 16.3722V7.62776Z" stroke="black" stroke-width="2" stroke-linecap="round" stroke-linejoin="round"/>
</svg>
