<svg width="24" height="24" viewBox="0 0 24 24" fill="none" xmlns="http://www.w3.org/2000/svg">
<path d="M20.9443 10.6438C21.1759 12.7154 20.6813 15.1595 19.5448 16.907C18.4083 18.6545 16.7005 19.9533 14.7128 20.5817C12.7252 21.21 10.5811 21.1289 8.64667 20.3522C6.71221 19.5755 5.10734 18.1514 4.10611 16.323C3.10488 14.4946 2.76938 12.3754 3.15689 10.3272C3.54441 8.27894 4.63091 6.42874 6.23087 5.0925C7.83083 3.75626 9.84503 3.01685 11.9295 3.00052C14.014 2.98419 16.0396 3.69197 17.6603 5.00298L15.0053 7.39498C14.0537 6.77424 12.9333 6.4634 11.7979 6.50519C10.6626 6.54697 9.568 6.93934 8.66465 7.62836C7.76131 8.31738 7.0935 9.26924 6.75301 10.3531C6.41252 11.437 6.41605 12.5998 6.76312 13.6816C7.11018 14.7634 7.78375 15.7112 8.69126 16.3947C9.59878 17.0783 10.6957 17.464 11.8313 17.4989C12.9669 17.5338 14.0854 17.2161 15.0332 16.5896C15.9809 15.9631 16.7114 15.0585 17.1243 14H12.9993V10.6438H20.9443Z" stroke="black" stroke-width="2" stroke-linecap="round" stroke-linejoin="round"/>
</svg>
