<svg width="24" height="24" viewBox="0 0 24 24" fill="none" xmlns="http://www.w3.org/2000/svg">
<path d="M11.998 10.1681C13.7698 7.37499 15.3238 5.98047 16.6612 5.98047C18.6677 5.98047 19.9348 8.20067 20.6742 11.2145C21.3805 14.0928 21.1758 18.0195 18.6677 18.0195C17.5501 18.0195 16.0111 16.4494 14.5062 14.3556C13.5486 13.0363 12.7093 11.635 11.998 10.1681ZM11.998 10.1681C10.2263 7.37499 8.67188 5.98047 7.33454 5.98047C5.32803 5.98047 4.06092 8.20067 3.32152 11.2145C2.61523 14.0928 2.81989 18.0195 5.32803 18.0195C6.44566 18.0195 7.98465 16.4494 9.48953 14.3556C10.4928 12.9601 11.3289 11.5636 11.998 10.1681Z" stroke="black" stroke-width="2" stroke-linecap="round" stroke-linejoin="round"/>
</svg>
