<svg width="24" height="24" viewBox="0 0 24 24" fill="none" xmlns="http://www.w3.org/2000/svg">
<path opacity="0.4" d="M8.5 6V19M5.5 8V19M2.5 12.843L2.5 17.157" stroke="black" stroke-width="2" stroke-linecap="round" stroke-linejoin="round"/>
<path d="M17.2203 10.4393H17.0378C17.0173 10.4393 17.0006 10.4226 17.0006 10.4021C17.0006 8.07512 15.3984 6.08758 13.2772 5.32883C12.8694 5.18295 12.6654 5.11001 12.3205 5.19106C12.0738 5.24902 11.7251 5.49458 11.5875 5.70733C11.395 6.00484 11.3949 6.30987 11.3949 6.91994L11.3945 17.0799C11.3945 17.752 11.3945 18.0881 11.5253 18.3448C11.6403 18.5706 11.8239 18.7542 12.0497 18.8692C12.3064 19 12.6424 19 13.3145 19H17.2203C19.5843 19 21.5006 17.0836 21.5006 14.7197C21.5006 12.3557 19.5843 10.4393 17.2203 10.4393Z" stroke="black" stroke-width="2" stroke-linecap="round" stroke-linejoin="round"/>
</svg>
