<svg width="24" height="24" viewBox="0 0 24 24" fill="none" xmlns="http://www.w3.org/2000/svg">
<path d="M19.3425 7.37965C19.9857 7.69758 20.3072 7.85655 20.4318 7.95531C20.7781 8.22984 20.874 8.38423 20.9667 8.81634C21 8.97179 21 9.20305 21 9.66558C21 10.1582 21 10.4045 20.9034 10.6604C20.7165 11.1559 20.0776 11.613 19.5483 11.6301C19.2748 11.6389 19.1071 11.5817 18.7715 11.4673C17.7804 11.1293 16.8443 10.6354 16 10V14.5C15.9997 15.7211 15.6555 16.9175 15.0067 17.952C14.3579 18.9865 13.4308 19.8174 12.3317 20.3493C11.2325 20.8813 10.0057 21.0929 8.79185 20.9599C7.57799 20.8268 6.42615 20.3545 5.46831 19.5971C4.51046 18.8397 3.78534 17.8278 3.37603 16.6773C2.96671 15.5268 2.88976 14.2843 3.15399 13.0921C3.41821 11.8999 4.01293 10.8062 4.87 9.93642C5.01164 9.79268 5.15949 9.65601 5.313 9.52673C5.73127 9.17448 5.94041 8.99836 6.47194 8.98841C6.83658 8.98159 7.43555 9.26024 7.66521 9.54354C8 9.95652 8 10.3743 8 11.2098V11.3C8 11.5043 8 11.6064 7.98652 11.7063C7.96163 11.8906 7.98436 11.7907 7.92708 11.9676C7.89603 12.0635 7.67934 12.5153 7.24595 13.4187C7.23564 13.4402 7.22564 13.4618 7.21594 13.4836C7.04269 13.8729 6.97183 14.3001 7.0101 14.7245C7.04837 15.1489 7.1945 15.5565 7.4346 15.9086C7.6747 16.2606 8.00081 16.5455 8.38197 16.7361C8.76312 16.9266 9.18666 17.0166 9.61237 16.9975C10.0381 16.9783 10.4518 16.8507 10.8143 16.6266C11.1768 16.4026 11.476 16.0896 11.6836 15.7174C11.8911 15.3452 12 14.9261 12 14.5V5.21329C12 4.54882 12 4.21659 12.1034 3.95271C12.2559 3.56367 12.5637 3.25586 12.9527 3.10341C13.2166 3 13.5488 3 14.2133 3C14.766 3 15.0424 3 15.2316 3.05023C15.5912 3.14572 15.705 3.21482 15.9556 3.4899C16.0874 3.63461 16.2833 4.01159 16.6751 4.76554C16.9566 5.30714 17.3206 5.80587 17.7574 6.24263C18.223 6.70827 18.7591 7.09127 19.3425 7.37965Z" stroke="black" stroke-width="2" stroke-linecap="round" stroke-linejoin="round"/>
</svg>
