<svg width="24" height="24" viewBox="0 0 24 24" fill="none" xmlns="http://www.w3.org/2000/svg">
<path d="M21.7395 5.41724C21.9409 4.99206 22.0416 4.77947 21.9974 4.6051C21.9595 4.45588 21.8498 4.32792 21.7081 4.26777C21.5425 4.19748 21.2832 4.27468 20.7646 4.42906C20.2351 4.58669 19.703 4.71959 19.1602 4.87945C17.9614 3.52924 16.1841 3.45452 14.4763 4.0928C12.7684 4.73109 11.6498 6.29157 11.6744 8.08154V9.14891C8.63307 9.22655 5.88332 8.02439 3.90751 5.85426C3.62109 5.53967 3.47787 5.38237 3.32285 5.34814C3.19048 5.3189 3.04337 5.34759 2.93168 5.42441C2.80088 5.51438 2.73843 5.68367 2.61352 6.02225C1.75204 8.35745 0.688827 13.7016 7.39685 16.6205C6.39397 17.2872 5.39243 17.8453 4.33859 18.2243C3.2256 18.6247 2.6691 18.8249 2.57886 18.9987C2.49442 19.1613 2.49734 19.3167 2.58781 19.476C2.68451 19.6463 3.16299 19.7984 4.11996 20.1026C6.71189 20.9265 9.34173 21.0608 11.7108 20.3744C15.5392 19.2643 18.6854 16.4006 19.8928 12.1108C20.2529 10.8062 20.4317 9.45829 20.4242 8.10503C20.4242 7.92563 21.16 6.6408 21.7395 5.41724Z" stroke="black" stroke-width="2" stroke-linecap="round" stroke-linejoin="round"/>
</svg>
