<svg width="24" height="24" viewBox="0 0 24 24" fill="none" xmlns="http://www.w3.org/2000/svg">
<path opacity="0.4" d="M16.6914 8.25964V12.0872M13.5312 8.25964V12.0872" stroke="black" stroke-width="2" stroke-linecap="round" stroke-linejoin="round"/>
<path d="M3 7.2C3 6.07989 3 5.51984 3.21799 5.09202C3.40973 4.71569 3.71569 4.40973 4.09202 4.21799C4.51984 4 5.0799 4 6.2 4H17.8C18.9201 4 19.4802 4 19.908 4.21799C20.2843 4.40973 20.5903 4.71569 20.782 5.09202C21 5.51984 21 6.0799 21 7.2V12.4987C21 13.178 21 13.5177 20.9285 13.8392C20.8581 14.1561 20.7367 14.4595 20.5691 14.7375C20.399 15.0196 20.1647 15.2655 19.696 15.7573C19.1953 16.2828 18.9449 16.5455 18.6512 16.7366C18.3618 16.9249 18.0421 17.0619 17.7061 17.1415C17.3652 17.2222 17.0023 17.2222 16.2764 17.2222H13.1651C12.7337 17.2222 12.5179 17.2222 12.3122 17.266C12.1298 17.3048 11.9537 17.3689 11.789 17.4565C11.6033 17.5552 11.4381 17.6939 11.1076 17.9714L8.81438 19.8966C8.39537 20.2483 8.18586 20.4242 8.00881 20.4273C7.8549 20.43 7.70833 20.3617 7.61145 20.2421C7.5 20.1045 7.5 19.8309 7.5 19.2839V17.2222H6.2C5.0799 17.2222 4.51984 17.2222 4.09202 17.0042C3.71569 16.8125 3.40973 16.5065 3.21799 16.1302C3 15.7024 3 15.1423 3 14.0222V7.2Z" stroke="black" stroke-width="2" stroke-linecap="round" stroke-linejoin="round"/>
</svg>
