<svg width="24" height="24" viewBox="0 0 24 24" fill="none" xmlns="http://www.w3.org/2000/svg">
<path d="M3 12V8.16C3 8.07163 3.07163 8 3.16 8H5C6.10457 8 7 8.89543 7 10C7 11.1046 6.10457 12 5 12M3 12V16M3 12H5M3 12L3 15.84C3 15.9284 3.07164 16 3.16 16H5C6.10457 16 7 15.1046 7 14C7 12.8954 6.10457 12 5 12M3 12L3 8M10 16V8L12 12L14 8V16M17 12V8.16C17 8.07163 17.0716 8 17.16 8H19C20.1046 8 21 8.89543 21 10C21 11.1046 20.1046 12 19 12H17ZM17 12V16" stroke="black" stroke-width="2" stroke-linecap="round" stroke-linejoin="round"/>
</svg>
