<svg width="24" height="24" viewBox="0 0 24 24" fill="none" xmlns="http://www.w3.org/2000/svg">
<path d="M7 14C7 15.1046 6.10457 16 5 16C3.89543 16 3 15.1046 3 14V10C3 8.89543 3.89543 8 5 8H5.5C6.32843 8 7 8.67157 7 9.5M10 15C10.3064 15.6129 10.9328 16 11.618 16H13C13.8284 16 14.5 15.3284 14.5 14.5V13.5C14.5 12.6716 13.8284 12 13 12H11.5C10.6716 12 10 11.3284 10 10.5V9.5C10 8.67157 10.6716 8 11.5 8H12.882C13.5672 8 14.1936 8.38713 14.5 9M17 8L19 16L21 8" stroke="black" stroke-width="2" stroke-linecap="round" stroke-linejoin="round"/>
</svg>
