<svg width="24" height="24" viewBox="0 0 24 24" fill="none" xmlns="http://www.w3.org/2000/svg">
<path d="M21 8H19C17.8954 8 17 8.89543 17 10V14C17 15.1046 17.8954 16 19 16H20C20.5523 16 21 15.5523 21 15V12.5C21 12.2239 20.7761 12 20.5 12H20M10 12V8.16C10 8.07163 10.0716 8 10.16 8H12C13.1046 8 14 8.89543 14 10C14 11.1046 13.1046 12 12 12H10ZM10 12V16M3 8H6.5C6.77614 8 7 8.22386 7 8.5V14.5C7 15.3284 6.32843 16 5.5 16H4.5C3.67157 16 3 15.3284 3 14.5" stroke="black" stroke-width="2" stroke-linecap="round" stroke-linejoin="round"/>
</svg>
