<svg width="24" height="24" viewBox="0 0 24 24" fill="none" xmlns="http://www.w3.org/2000/svg">
<path d="M3 15C3.27027 15.6081 3.87331 16 4.53876 16H5.5C6.32843 16 7 15.3284 7 14.5V13.5C7 12.6716 6.32843 12 5.5 12H4.5C3.67157 12 3 11.3284 3 10.5V9.5C3 8.67157 3.67157 8 4.5 8H5.46124C6.12669 8 6.72973 8.3919 7 9M12.5 14.5L14 16M17 8V15.5C17 15.7761 17.2239 16 17.5 16H21M10 9.5V14.5C10 15.3284 10.6716 16 11.5 16H12.5C13.3284 16 14 15.3284 14 14.5V9.5C14 8.67157 13.3284 8 12.5 8H11.5C10.6716 8 10 8.67157 10 9.5Z" stroke="black" stroke-width="2" stroke-linecap="round" stroke-linejoin="round"/>
</svg>
