<svg width="24" height="24" viewBox="0 0 24 24" fill="none" xmlns="http://www.w3.org/2000/svg">
<path d="M3 15C3.30643 15.6129 3.93283 16 4.61803 16H6C6.82843 16 7.5 15.3284 7.5 14.5V13.5C7.5 12.6716 6.82843 12 6 12H4.5C3.67157 12 3 11.3284 3 10.5V9.5C3 8.67157 3.67157 8 4.5 8H5.88197C6.56717 8 7.19357 8.38713 7.5 9M10.25 8L12.25 16L14.25 8M21 8H19C17.8954 8 17 8.89543 17 10V14C17 15.1046 17.8954 16 19 16H20C20.5523 16 21 15.5523 21 15V12.5C21 12.2239 20.7761 12 20.5 12H20" stroke="black" stroke-width="2" stroke-linecap="round" stroke-linejoin="round"/>
</svg>
